<?xml version="1.0" encoding="utf-8"?>
<!-- Generator: Adobe Illustrator 19.0.0, SVG Export Plug-In . SVG Version: 6.00 Build 0)  -->
<svg version="1.1" id="Calque_1" xmlns="http://www.w3.org/2000/svg" xmlns:xlink="http://www.w3.org/1999/xlink" x="0px" y="0px"
	 viewBox="-269 361 72 72" style="enable-background:new -269 361 72 72;" xml:space="preserve">
<style type="text/css">
	.st0{fill:#D7F1F8;}
	.st1{fill:#48B0CB;}
	.st2{fill:#98D9E9;}
</style>
<path class="st0" d="M-233,433c19.9,0,36-16.1,36-36c0-19.9-16.1-36-36-36c-19.9,0-36,16.1-36,36C-269,416.9-252.9,433-233,433z"/>
<g>
	<g>
		<path class="st1" d="M-218.7,393.3c0,10.3-11.6,19.8-11.6,19.8c-0.7,0.6-1.8,0.6-2.5,0c0,0-11.6-9.5-11.6-19.8
			c0-7.1,5.7-12.8,12.8-12.8S-218.7,386.2-218.7,393.3z"/>
		<path class="st0" d="M-231.5,399.8c-3.6,0-6.4-2.9-6.4-6.4c0-3.6,2.9-6.4,6.4-6.4s6.4,2.9,6.4,6.4S-228,399.8-231.5,399.8z"/>
	</g>
	<g>
		<path class="st2" d="M-221.7,393.3c0,10.3-11.6,19.8-11.6,19.8c-0.7,0.6-1.8,0.6-2.5,0c0,0-11.6-9.5-11.6-19.8
			c0-7.1,5.7-12.8,12.8-12.8S-221.7,386.2-221.7,393.3z"/>
		<path class="st0" d="M-234.5,399.8c-3.6,0-6.4-2.9-6.4-6.4c0-3.6,2.9-6.4,6.4-6.4c3.6,0,6.4,2.9,6.4,6.4S-230.9,399.8-234.5,399.8
			z"/>
	</g>
</g>
</svg>
