<svg xmlns="http://www.w3.org/2000/svg" width="72" height="72" viewBox="0 0 72 72" fill="none">
<path d="M36 72C55.8822 72 72 55.8822 72 36C72 16.1178 55.8822 0 36 0C16.1178 0 0 16.1178 0 36C0 55.8822 16.1178 72 36 72Z" fill="#FCE5EB"></path>
<path d="M17.91 43.4462C17.91 43.4462 25.9921 40.5265 30.9386 33.0323C34.5192 27.5989 35.823 19.0249 35.823 13.4365C35.823 13.4365 24.5533 9.83291 17.91 0C11.2697 9.83391 0 13.4365 0 13.4365C0 19.0249 1.30386 27.5989 4.88346 33.0323C9.82891 40.5265 17.91 43.4462 17.91 43.4462Z" transform="translate(18.089 14.5022)" fill="#F7B7CA"></path>
<path d="M13.0286 33.0323C16.6092 27.5989 17.913 19.0249 17.913 13.4365C17.913 13.4365 6.64326 9.83291 0 0V4.21553V39.2326V43.4462C0 43.4462 8.0831 40.5265 13.0286 33.0323Z" transform="translate(35.999 14.5022)" fill="#EF7398"></path>
<path d="M3.47661 15.2113C3.47661 15.1563 3.47461 15.0983 3.47461 15.0453C3.47461 15.0453 12.5566 12.1416 17.91 4.21553V0C11.2697 9.83391 0 13.4365 0 13.4365C0 13.4365 2.28375 14.9123 3.47461 15.2103H3.47661V15.2113Z" transform="translate(18.089 14.5012)" fill="#EF7398"></path>
<path d="M14.4354 15.2113C14.4374 15.1563 14.4374 15.0983 14.4374 15.0453C14.4374 15.0453 5.3564 12.1416 0 4.21553V0C6.64326 9.83391 17.913 13.4365 17.913 13.4365C17.913 13.4365 15.6303 14.9123 14.4374 15.2103C14.4374 15.2113 14.4374 15.2113 14.4354 15.2113Z" transform="translate(35.999 14.5012)" fill="#F7B7CA"></path>
<path d="M7.41418 17.4011C4.56049 13.0735 3.50261 6.2803 3.47661 1.7758L3.47461 1.7738C2.28375 1.47583 0 0 0 0C0 5.58838 1.30386 14.1624 4.88346 19.5958C9.82891 27.09 17.91 30.0097 17.91 30.0097V25.7961C17.91 25.7951 11.3967 23.4404 7.41418 17.4011Z" transform="translate(18.089 27.9398)" fill="#EF7398"></path>
<path d="M10.5008 17.4011C13.3515 13.0735 14.4084 6.2803 14.4354 1.7758L14.4374 1.7738C15.6293 1.47583 17.913 0 17.913 0C17.913 5.58838 16.6092 14.1624 13.0286 19.5958C8.0831 27.09 1.1504e-07 30.0097 1.1504e-07 30.0097V25.7961C-0.000999774 25.7951 6.51627 23.4404 10.5008 17.4011Z" transform="translate(36 27.9398)" fill="#F7B7CA"></path>
</svg>