<svg xmlns="http://www.w3.org/2000/svg" width="73" height="73" viewBox="0 0 73 73" fill="none">
<path d="M36.001 72.002C55.8838 72.002 72.002 55.8838 72.002 36.001C72.002 16.1182 55.8838 0 36.001 0C16.1182 0 0 16.1182 0 36.001C0 55.8838 16.1182 72.002 36.001 72.002Z" fill="#FAE7D9"></path>
<path d="M14.0566 0C14.0566 0 0.0785971 17.058 0.000597128 28.883C-0.0784029 40.708 7.7016 41.885 11.3036 40.684C14.9046 39.483 24.1386 28.979 21.2376 22.7C19.6786 19.328 17.5916 23.306 17.5916 23.306C17.5916 23.306 20.6286 18.115 19.4176 14.766C18.0336 10.94 16.2396 12.386 16.2396 12.386C16.2396 12.386 17.4696 9.491 16.7666 5.733C16.4316 3.939 15.4256 2.156 14.0566 0Z" transform="translate(20.9234 14.5029)" fill="#D2854F"></path>
<path d="M26.7 0C26.7 0 6.85496 9.621 1.82496 20.324C-3.20604 31.024 3.36196 35.357 7.13496 35.776C10.909 36.195 23.696 30.536 23.696 23.617C23.696 19.903 20.133 22.64 20.133 22.64C20.133 22.64 25.068 19.202 25.373 15.652C25.724 11.599 23.487 12.158 23.487 12.158C23.487 12.158 25.819 10.048 26.756 6.341C27.203 4.57 27.038 2.53 26.7 0Z" transform="translate(24.051 22.153)" fill="#EDBE9C"></path>
</svg>