<?xml version="1.0" encoding="utf-8"?>
<!-- Generator: Adobe Illustrator 19.0.0, SVG Export Plug-In . SVG Version: 6.00 Build 0)  -->
<svg version="1.1" id="Capa_1" xmlns="http://www.w3.org/2000/svg" xmlns:xlink="http://www.w3.org/1999/xlink" x="0px" y="0px"
	 viewBox="-41 164.9 512 512" style="enable-background:new -41 164.9 512 512;" xml:space="preserve">
<style type="text/css">
	.st0{fill:#7657E5;}
	.st1{fill:#5D46D1;}
	.st2{fill:#FFFFFF;}
	.st3{fill:#D0B8FF;}
	.st4{fill:#00EFD1;}
	.st5{fill:#00AD95;}
	.st6{fill:#00CEB4;}
	.st7{fill:#008878;}
</style>
<circle class="st0" cx="215" cy="420.9" r="256"/>
<path class="st1" d="M471,420.9c0-11.9-0.8-23.6-2.4-35.1l-139-139l-28.1,28.1l2.4,2.4l-13.5,13.5c-3.1,3.1-7.5,4.9-11.9,4.8
	l-13.8-0.2c-17.1-0.2-33.9,6.6-46,18.7L50.2,482.8c-14.5,14.5-14.5,38.1,0,52.5l140.4,140.4c8,0.8,16.1,1.2,24.4,1.2
	C356.4,676.9,471,562.3,471,420.9z"/>
<path class="st2" d="M340.7,371.5l-0.2-13.8c-0.1-4.4,1.7-8.8,4.8-11.9l23.9-23.9l-55-55l-23.9,23.9c-3.1,3.1-7.5,4.9-11.9,4.8
	l-13.8-0.2c-17.1-0.2-33.9,6.6-46,18.7L50.2,482.8c-14.5,14.5-14.5,38.1,0,52.5l50.7,50.7c14.5,14.5,38.1,14.5,52.5,0L322,417.5
	C334.1,405.4,340.9,388.6,340.7,371.5z"/>
<path class="st3" d="M322,417.5L153.5,586c-14.5,14.5-38.1,14.5-52.5,0l-25.3-25.3l266.3-266.3l27.5,27.5l-23.9,23.9
	c-3.1,3.1-4.9,7.5-4.8,11.9l0.2,13.8C340.9,388.6,334.1,405.4,322,417.5z"/>
<rect x="151.7" y="359.1" transform="matrix(0.7071 0.7071 -0.7071 0.7071 356.823 -38.3349)" class="st4" width="146" height="104.9"/>
<rect x="198" y="400.9" transform="matrix(0.7071 -0.7071 0.7071 0.7071 -235.8882 305.2296)" class="st5" width="104.9" height="73"/>
<rect x="303.1" y="270.9" transform="matrix(0.7071 0.7071 -0.7071 0.7071 306.7888 -159.1081)" class="st4" width="84.7" height="39.8"/>
<rect x="340.5" y="284.6" transform="matrix(0.7071 -0.7071 0.7071 0.7071 -110.6264 344.4075)" class="st5" width="39.8" height="42.3"/>
<g>
	
		<rect x="322.6" y="253.5" transform="matrix(0.7071 0.7071 -0.7071 0.7071 289.3711 -151.8914)" class="st6" width="10.8" height="39.8"/>
	
		<rect x="340.1" y="270.9" transform="matrix(0.7071 0.7071 -0.7071 0.7071 306.7881 -159.108)" class="st6" width="10.8" height="39.8"/>
</g>
<g>
	
		<rect x="327.5" y="290" transform="matrix(0.7071 -0.7071 0.7071 0.7071 -105.2164 331.3476)" class="st7" width="39.8" height="5.4"/>
	
		<rect x="357.5" y="288.3" transform="matrix(0.7071 0.7071 -0.7071 0.7071 324.2119 -166.3284)" class="st7" width="10.8" height="39.8"/>
</g>
<path class="st2" d="M238.8,430.1c8.8-11.8,10.1-42.7,10.1-42.7s-30.9,1.3-42.7,10.1c-13.3,9.9-17.1,25.9-5.2,37.8
	C212.9,447.2,228.9,443.4,238.8,430.1z"/>
<path class="st3" d="M201,435.3l47.8-47.8c0,0-1.3,30.9-10.1,42.7C228.9,443.4,212.9,447.2,201,435.3z"/>
</svg>
