<?xml version="1.0" encoding="utf-8"?>
<!-- Generator: Adobe Illustrator 19.0.0, SVG Export Plug-In . SVG Version: 6.00 Build 0)  -->
<svg version="1.1" id="Calque_1" xmlns="http://www.w3.org/2000/svg" xmlns:xlink="http://www.w3.org/1999/xlink" x="0px" y="0px"
	 viewBox="-41 164.9 512 512" style="enable-background:new -41 164.9 512 512;" xml:space="preserve">
<style type="text/css">
	.st0{fill:#7657E5;}
	.st1{fill:#6752CE;}
	.st2{fill:#FFA87A;}
	.st3{fill:#EA824E;}
	.st4{fill:#C55835;}
	.st5{fill:#A63914;}
	.st6{fill:#7A2D1A;}
</style>
<g>
	<path class="st0" d="M471,420.9c0,141.4-114.6,256-256,256s-256-114.6-256-256s114.6-256,256-256S471,279.5,471,420.9z"/>
	<path class="st1" d="M471,420.9c0,26.1-3.9,51.2-11.1,74.9c-32,104.8-129.5,181.1-244.9,181.1c-104.6,0-194.5-62.7-234.2-152.6
		c-14-31.6-21.8-66.6-21.8-103.4c0-46.2,12.3-89.6,33.7-127c44.1,77.1,127.2,129,222.3,129s178.2-51.9,222.3-129
		C458.8,331.3,471,374.7,471,420.9z"/>
	<path class="st1" d="M-10.3,542.6c7.2,13.2,15.4,25.7,24.7,37.4c46.9,59,119.3,96.9,200.5,96.9S368.6,639,415.5,580
		c9.3-11.7,17.6-24.2,24.7-37.4H-10.3z"/>
	<path class="st2" d="M399.5,410.9c0,100.7-80.7,182.6-181,184.5c-1.2,0-2.3,0-3.5,0c-101.9,0-184.5-82.6-184.5-184.5
		c0-101.9,82.6-184.5,184.5-184.5c0.2,0,0.4,0,0.7,0c12.7,0,25.1,1.4,37.1,3.9c-4.8,12.8-7.4,26.7-7.4,41.1
		c0,65.2,52.9,118.1,118.1,118.1c11.9,0,23.3-1.8,34.1-5C398.9,393,399.5,401.9,399.5,410.9z"/>
	<path class="st3" d="M399.5,410.9c0,100.7-84.2,182.7-184.5,184.5c-66.3-35.2-108-105-108-185.3c0-79.2,43.2-148.1,108-183.7
		c12.7,0,25.8,1.4,37.8,3.9c-4.8,12.8-7.4,26.7-7.4,41.1c0,65.2,52.9,118.1,118.1,118.1c11.9,0,23.3-1.8,34.1-5
		C398.9,393,399.5,401.9,399.5,410.9z"/>
	<path class="st4" d="M399.5,410.9c0,101.9-82.6,184.5-184.5,184.5v-369c13,0,25.6,1.3,37.8,3.9c-4.8,12.8-7.4,26.7-7.4,41.1
		c0,65.2,52.9,118.1,118.1,118.1c11.9,0,23.3-1.8,34.1-5C398.9,393,399.5,401.9,399.5,410.9z"/>
	<path class="st5" d="M121,367.9c0,12.7-10.3,23-23,23s-23-10.3-23-23s10.3-23,23-23S121,355.1,121,367.9z"/>
	<path class="st6" d="M121,367.9c0,12.7-10.3,23-23,23v-46C110.7,344.9,121,355.1,121,367.9z"/>
	<path class="st5" d="M186,486.9c0,18.8-15.2,34-34,34s-34-15.2-34-34s15.2-34,34-34S186,468.1,186,486.9z"/>
	<path class="st6" d="M186,486.9c0,18.8-15.2,34-34,34v-68C170.8,452.9,186,468.1,186,486.9z"/>
	<path class="st5" d="M365,479.9c0,18.8-15.2,34-34,34s-34-15.2-34-34s15.2-34,34-34S365,461.1,365,479.9z"/>
	<path class="st6" d="M365,479.9c0,18.8-15.2,34-34,34v-68C349.8,445.9,365,461.1,365,479.9z"/>
	<path class="st5" d="M249,338.9c0,18.8-15.2,34-34,34s-34-15.2-34-34s15.2-34,34-34S249,320.1,249,338.9z"/>
	<path class="st6" d="M249,338.9c0,18.8-15.2,34-34,34v-68C233.8,304.9,249,320.1,249,338.9z"/>
	<path class="st5" d="M276,420.9c0,8.8-7.2,16-16,16s-16-7.2-16-16s7.2-16,16-16S276,412,276,420.9z"/>
	<path class="st6" d="M276,420.9c0,8.8-7.2,16-16,16v-32C268.8,404.9,276,412,276,420.9z"/>
	<path class="st5" d="M174,272.9c0,8.8-7.2,16-16,16s-16-7.2-16-16s7.2-16,16-16S174,264,174,272.9z"/>
	<path class="st6" d="M174,272.9c0,8.8-7.2,16-16,16v-32C166.8,256.9,174,264,174,272.9z"/>
	<path class="st5" d="M264,530.9c0,8.8-7.2,16-16,16s-16-7.2-16-16s7.2-16,16-16S264,522,264,530.9z"/>
	<path class="st6" d="M264,530.9c0,8.8-7.2,16-16,16v-32C256.8,514.9,264,522,264,530.9z"/>
</g>
</svg>
