<?xml version="1.0" encoding="utf-8"?>
<!-- Generator: Adobe Illustrator 19.0.0, SVG Export Plug-In . SVG Version: 6.00 Build 0)  -->
<svg version="1.1" id="Calque_1" xmlns="http://www.w3.org/2000/svg" xmlns:xlink="http://www.w3.org/1999/xlink" x="0px" y="0px"
	 viewBox="-41 164.9 512 512" style="enable-background:new -41 164.9 512 512;" xml:space="preserve">
<style type="text/css">
	.st0{fill:#7657E5;}
	.st1{fill:#6752CE;}
	.st2{fill:#323B5A;}
	.st3{fill:#FFE955;}
	.st4{fill:#FFD112;}
	.st5{fill:#DD1265;}
	.st6{fill:#FF3445;}
	.st7{fill:#FFFFFF;}
	.st8{fill:#EB7722;}
	.st9{fill:#FF9F00;}
	.st10{fill:#E3835A;}
	.st11{fill:#FFA87A;}
	.st12{fill:#FFC0A4;}
	.st13{fill:#535E89;}
	.st14{fill:#E32644;}
</style>
<g id="surface1">
	<path class="st0" d="M471,420.9c0,141.4-114.6,256-256,256s-256-114.6-256-256s114.6-256,256-256S471,279.5,471,420.9z"/>
	<path class="st1" d="M-41,420.9c0,26.1,3.9,51.2,11.1,74.9C2.1,600.6,99.7,676.9,215,676.9c104.6,0,194.5-62.7,234.2-152.6
		c14-31.6,21.8-66.6,21.8-103.4c0-46.2-12.3-89.6-33.7-127c-44.1,77.1-127.2,129-222.3,129S36.8,371-7.3,293.9
		C-28.8,331.3-41,374.7-41,420.9z"/>
	<path class="st2" d="M440.3,542.6c-7.2,13.2-15.4,25.7-24.7,37.4c-46.9,59-119.3,96.9-200.5,96.9S61.4,639,14.5,580
		c-9.3-11.7-17.6-24.2-24.7-37.4H440.3z"/>
	<path class="st3" d="M68.6,609.7v21.2c33.3,23.2,72.3,38.8,114.5,44c1.5,0.2,3,0.4,4.4,0.5h0c7.2,0.8,14.5,1.3,21.9,1.4
		c1.8,0,3.7,0.1,5.5,0.1s3.7,0,5.5-0.1c7.4-0.2,14.7-0.6,21.9-1.4c1.5-0.1,3-0.3,4.4-0.5c42.2-5.2,81.3-20.8,114.5-44v-21.2
		c0-55.9-34.8-105.9-87.2-125.3l-6.2-2.3l-3.3-1.2l-14.1-5.2l-5.3-1.9h-60.6l-5.3,1.9l-14.1,5.2l-3.3,1.2l-6.2,2.3
		C103.4,503.9,68.6,553.8,68.6,609.7z"/>
	<path class="st4" d="M215,473.7v203.2c1.8,0,3.7,0,5.5-0.1c7.4-0.2,14.7-0.6,21.9-1.4c1.5-0.1,3-0.3,4.4-0.5
		c42.2-5.2,81.3-20.8,114.5-44v-21.2c0-55.9-34.8-105.9-87.2-125.3l-6.2-2.3l-3.3-1.2l-14.1-5.2l-5.3-1.9H215z"/>
	<path class="st5" d="M312,622.9c-2-2-2-5.2,0-7.1c2-2,5.1-2,7.1,0c2,2,5.1,2,7.1,0c2-2,5.1-2,7.1,0c2,2,2,5.1,0,7.1
		c-2,2-2,5.1,0,7.1c2,2,2,5.1,0,7.1s-5.1,2-7.1,0c-2-2-5.1-2-7.1,0c-2,2-5.1,2-7.1,0c-2-2-2-5.1,0-7.1C314,628,314,624.8,312,622.9z
		"/>
	<path class="st6" d="M317.7,616.4c0-2.8,2.3-5,5-5c2.8,0,5,2.3,5,5c0,2.8,2.2,5,5,5c2.8,0,5,2.3,5,5s-2.3,5-5,5c-2.8,0-5,2.2-5,5
		c0,2.8-2.3,5-5,5s-5-2.3-5-5c0-2.8-2.2-5-5-5c-2.8,0-5-2.3-5-5s2.3-5,5-5C315.4,621.4,317.7,619.1,317.7,616.4z"/>
	<path class="st7" d="M328.7,626.4c0,3.3-2.7,6-6,6c-3.3,0-6-2.7-6-6c0-3.3,2.7-6,6-6C326,620.4,328.7,623.1,328.7,626.4z"/>
	<path class="st3" d="M326.1,626.4c0,1.9-1.5,3.4-3.4,3.4c-1.9,0-3.4-1.5-3.4-3.4s1.5-3.4,3.4-3.4
		C324.6,623,326.1,624.6,326.1,626.4z"/>
	<path class="st5" d="M254.3,648.4c2-2,2-5.2,0-7.1c-2-2-5.2-2-7.1,0c-2,2-5.1,2-7.1,0c-2-2-5.1-2-7.1,0c-2,2-2,5.1,0,7.1
		c2,2,2,5.1,0,7.1c-2,2-2,5.1,0,7.1s5.1,2,7.1,0c2-2,5.1-2,7.1,0c2,2,5.1,2,7.1,0c2-2,2-5.1,0-7.1
		C252.3,653.5,252.3,650.3,254.3,648.4z"/>
	<path class="st6" d="M248.6,641.9c0-2.8-2.3-5-5-5s-5,2.3-5,5c0,2.8-2.2,5-5,5c-2.8,0-5,2.3-5,5s2.3,5,5,5c2.8,0,5,2.2,5,5
		c0,2.8,2.3,5,5,5c2.8,0,5-2.3,5-5c0-2.8,2.2-5,5-5c2.8,0,5-2.3,5-5s-2.3-5-5-5C250.9,646.9,248.6,644.6,248.6,641.9z"/>
	<path class="st7" d="M249.6,651.9c0,3.3-2.7,6-6,6c-3.3,0-6-2.7-6-6c0-3.3,2.7-6,6-6C246.9,645.9,249.6,648.6,249.6,651.9z"/>
	<path class="st3" d="M247,651.9c0,1.9-1.5,3.4-3.4,3.4c-1.9,0-3.4-1.5-3.4-3.4s1.5-3.4,3.4-3.4C245.5,648.5,247,650,247,651.9z"/>
	<path class="st5" d="M324.6,546.3c2-2,2-5.1,0-7.1s-5.1-2-7.1,0c-2,2-5.1,2-7.1,0c-2-2-5.1-2-7.1,0s-2,5.1,0,7.1c2,2,2,5.1,0,7.1
		c-2,2-2,5.1,0,7.1c2,2,5.1,2,7.1,0c2-2,5.1-2,7.1,0c2,2,5.1,2,7.1,0c2-2,2-5.2,0-7.1C322.6,551.5,322.6,548.3,324.6,546.3z"/>
	<path class="st6" d="M319,539.9c0-2.8-2.3-5-5-5c-2.8,0-5,2.3-5,5c0,2.8-2.2,5-5,5c-2.8,0-5,2.3-5,5s2.3,5,5,5c2.8,0,5,2.2,5,5
		c0,2.8,2.3,5,5,5s5-2.3,5-5c0-2.8,2.2-5,5-5c2.8,0,5-2.3,5-5s-2.3-5-5-5C321.2,544.9,319,542.6,319,539.9z"/>
	<path class="st7" d="M319.9,549.9c0,3.3-2.7,6-6,6c-3.3,0-6-2.7-6-6c0-3.3,2.7-6,6-6C317.3,543.9,319.9,546.6,319.9,549.9z"/>
	<path class="st3" d="M317.3,549.9c0,1.9-1.5,3.4-3.4,3.4c-1.9,0-3.4-1.5-3.4-3.4c0-1.9,1.5-3.4,3.4-3.4
		C315.8,546.5,317.3,548,317.3,549.9z"/>
	<path class="st5" d="M279.4,602.8c2-2,2-5.2,0-7.1c-2-2-5.1-2-7.1,0c-2,2-5.1,2-7.1,0c-2-2-5.1-2-7.1,0c-2,2-2,5.1,0,7.1
		c2,2,2,5.1,0,7.1c-2,2-2,5.1,0,7.1c2,2,5.1,2,7.1,0c2-2,5.1-2,7.1,0c2,2,5.1,2,7.1,0s2-5.1,0-7.1
		C277.4,607.9,277.4,604.7,279.4,602.8z"/>
	<path class="st6" d="M273.7,596.3c0-2.8-2.3-5-5-5s-5,2.3-5,5c0,2.8-2.2,5-5,5c-2.8,0-5,2.3-5,5s2.3,5,5,5c2.8,0,5,2.2,5,5
		c0,2.8,2.3,5,5,5s5-2.3,5-5c0-2.8,2.2-5,5-5c2.8,0,5-2.3,5-5s-2.3-5-5-5C276,601.3,273.7,599,273.7,596.3z"/>
	<path class="st7" d="M274.7,606.3c0,3.3-2.7,6-6,6c-3.3,0-6-2.7-6-6s2.7-6,6-6C272,600.3,274.7,603,274.7,606.3z"/>
	<path class="st3" d="M272.1,606.3c0,1.9-1.5,3.4-3.4,3.4s-3.4-1.5-3.4-3.4s1.5-3.4,3.4-3.4S272.1,604.5,272.1,606.3z"/>
	<path class="st5" d="M254.3,552.4c2-2,2-5.1,0-7.1c-2-2-5.2-2-7.1,0c-2,2-5.1,2-7.1,0c-2-2-5.1-2-7.1,0s-2,5.1,0,7.1
		c2,2,2,5.1,0,7.1c-2,2-2,5.1,0,7.1c2,2,5.1,2,7.1,0c2-2,5.1-2,7.1,0c2,2,5.1,2,7.1,0c2-2,2-5.1,0-7.1
		C252.3,557.5,252.3,554.3,254.3,552.4z"/>
	<path class="st6" d="M248.6,545.9c0-2.8-2.3-5-5-5s-5,2.3-5,5c0,2.8-2.2,5-5,5c-2.8,0-5,2.3-5,5s2.3,5,5,5c2.8,0,5,2.2,5,5
		c0,2.8,2.3,5,5,5c2.8,0,5-2.3,5-5c0-2.8,2.2-5,5-5c2.8,0,5-2.3,5-5s-2.3-5-5-5C250.9,550.9,248.6,548.6,248.6,545.9z"/>
	<path class="st7" d="M249.6,555.9c0,3.3-2.7,6-6,6c-3.3,0-6-2.7-6-6c0-3.3,2.7-6,6-6C246.9,549.9,249.6,552.6,249.6,555.9z"/>
	<path class="st3" d="M247,555.9c0,1.9-1.5,3.4-3.4,3.4c-1.9,0-3.4-1.5-3.4-3.4c0-1.9,1.5-3.4,3.4-3.4
		C245.5,552.5,247,554,247,555.9z"/>
	<path class="st5" d="M116.7,622.9c2-2,2-5.2,0-7.1c-2-2-5.1-2-7.1,0c-2,2-5.1,2-7.1,0c-2-2-5.2-2-7.1,0c-2,2-2,5.1,0,7.1
		c2,2,2,5.1,0,7.1c-2,2-2,5.1,0,7.1c2,2,5.1,2,7.1,0c2-2,5.1-2,7.1,0c2,2,5.1,2,7.1,0s2-5.1,0-7.1
		C114.7,628,114.7,624.8,116.7,622.9z"/>
	<path class="st6" d="M111,616.4c0-2.8-2.3-5-5-5s-5,2.3-5,5c0,2.8-2.2,5-5,5c-2.8,0-5,2.3-5,5s2.3,5,5,5c2.8,0,5,2.2,5,5
		c0,2.8,2.3,5,5,5s5-2.3,5-5c0-2.8,2.2-5,5-5c2.8,0,5-2.3,5-5s-2.3-5-5-5C113.3,621.4,111,619.1,111,616.4z"/>
	<path class="st7" d="M112,626.4c0,3.3-2.7,6-6,6s-6-2.7-6-6c0-3.3,2.7-6,6-6S112,623.1,112,626.4z"/>
	<path class="st3" d="M109.4,626.4c0,1.9-1.5,3.4-3.4,3.4s-3.4-1.5-3.4-3.4s1.5-3.4,3.4-3.4S109.4,624.6,109.4,626.4z"/>
	<path class="st5" d="M174.4,648.4c-2-2-2-5.2,0-7.1c2-2,5.1-2,7.1,0c2,2,5.1,2,7.1,0c2-2,5.1-2,7.1,0c2,2,2,5.1,0,7.1
		c-2,2-2,5.1,0,7.1c2,2,2,5.1,0,7.1c-2,2-5.1,2-7.1,0c-2-2-5.1-2-7.1,0c-2,2-5.1,2-7.1,0s-2-5.1,0-7.1
		C176.4,653.5,176.4,650.3,174.4,648.4z"/>
	<path class="st6" d="M180.1,641.9c0-2.8,2.3-5,5-5s5,2.3,5,5c0,2.8,2.2,5,5,5c2.8,0,5,2.3,5,5s-2.3,5-5,5c-2.8,0-5,2.2-5,5
		c0,2.8-2.3,5-5,5s-5-2.3-5-5c0-2.8-2.2-5-5-5c-2.8,0-5-2.3-5-5s2.3-5,5-5C177.8,646.9,180.1,644.6,180.1,641.9z"/>
	<path class="st7" d="M191.1,651.9c0,3.3-2.7,6-6,6c-3.3,0-6-2.7-6-6c0-3.3,2.7-6,6-6C188.4,645.9,191.1,648.6,191.1,651.9z"/>
	<path class="st3" d="M188.5,651.9c0,1.9-1.5,3.4-3.4,3.4s-3.4-1.5-3.4-3.4s1.5-3.4,3.4-3.4S188.5,650,188.5,651.9z"/>
	<path class="st5" d="M104.1,546.3c-2-2-2-5.1,0-7.1s5.1-2,7.1,0c2,2,5.1,2,7.1,0c2-2,5.1-2,7.1,0c2,2,2,5.1,0,7.1c-2,2-2,5.1,0,7.1
		c2,2,2,5.1,0,7.1c-2,2-5.2,2-7.1,0c-2-2-5.1-2-7.1,0c-2,2-5.1,2-7.1,0c-2-2-2-5.2,0-7.1C106.1,551.5,106.1,548.3,104.1,546.3z"/>
	<path class="st6" d="M109.7,539.9c0-2.8,2.3-5,5-5s5,2.3,5,5c0,2.8,2.2,5,5,5c2.8,0,5,2.3,5,5s-2.3,5-5,5c-2.8,0-5,2.2-5,5
		c0,2.8-2.3,5-5,5s-5-2.3-5-5c0-2.8-2.2-5-5-5c-2.8,0-5-2.3-5-5s2.3-5,5-5C107.5,544.9,109.7,542.6,109.7,539.9z"/>
	<path class="st7" d="M120.8,549.9c0,3.3-2.7,6-6,6c-3.3,0-6-2.7-6-6c0-3.3,2.7-6,6-6C118.1,543.9,120.8,546.6,120.8,549.9z"/>
	<path class="st3" d="M118.1,549.9c0,1.9-1.5,3.4-3.4,3.4s-3.4-1.5-3.4-3.4c0-1.9,1.5-3.4,3.4-3.4S118.1,548,118.1,549.9z"/>
	<path class="st5" d="M149.4,602.8c-2-2-2-5.2,0-7.1c2-2,5.1-2,7.1,0c2,2,5.1,2,7.1,0c2-2,5.2-2,7.1,0c2,2,2,5.1,0,7.1
		c-2,2-2,5.1,0,7.1c2,2,2,5.1,0,7.1c-2,2-5.1,2-7.1,0c-1.9-2-5.1-2-7.1,0c-2,2-5.1,2-7.1,0s-2-5.1,0-7.1
		C151.3,607.9,151.3,604.7,149.4,602.8z"/>
	<path class="st6" d="M155,596.3c0-2.8,2.3-5,5-5s5,2.3,5,5c0,2.8,2.2,5,5,5c2.8,0,5,2.3,5,5s-2.3,5-5,5c-2.8,0-5,2.2-5,5
		c0,2.8-2.3,5-5,5s-5-2.3-5-5c0-2.8-2.2-5-5-5c-2.8,0-5-2.3-5-5s2.3-5,5-5C152.7,601.3,155,599,155,596.3z"/>
	<path class="st7" d="M166,606.3c0,3.3-2.7,6-6,6s-6-2.7-6-6s2.7-6,6-6S166,603,166,606.3z"/>
	<path class="st3" d="M163.4,606.3c0,1.9-1.5,3.4-3.4,3.4s-3.4-1.5-3.4-3.4s1.5-3.4,3.4-3.4S163.4,604.5,163.4,606.3z"/>
	<path class="st5" d="M174.4,552.4c-2-2-2-5.1,0-7.1s5.1-2,7.1,0c2,2,5.1,2,7.1,0c2-2,5.1-2,7.1,0c2,2,2,5.1,0,7.1c-2,2-2,5.1,0,7.1
		c2,2,2,5.1,0,7.1c-2,2-5.1,2-7.1,0c-2-2-5.1-2-7.1,0c-2,2-5.1,2-7.1,0c-2-2-2-5.1,0-7.1C176.4,557.5,176.4,554.3,174.4,552.4z"/>
	<path class="st6" d="M180.1,545.9c0-2.8,2.3-5,5-5s5,2.3,5,5c0,2.8,2.2,5,5,5c2.8,0,5,2.3,5,5s-2.3,5-5,5c-2.8,0-5,2.2-5,5
		c0,2.8-2.3,5-5,5s-5-2.3-5-5c0-2.8-2.2-5-5-5c-2.8,0-5-2.3-5-5s2.3-5,5-5C177.8,550.9,180.1,548.6,180.1,545.9z"/>
	<path class="st7" d="M191.1,555.9c0,3.3-2.7,6-6,6c-3.3,0-6-2.7-6-6c0-3.3,2.7-6,6-6C188.4,549.9,191.1,552.6,191.1,555.9z"/>
	<path class="st3" d="M188.5,555.9c0,1.9-1.5,3.4-3.4,3.4s-3.4-1.5-3.4-3.4c0-1.9,1.5-3.4,3.4-3.4S188.5,554,188.5,555.9z"/>
	<path class="st8" d="M220.5,473.7v203.1c-1.8,0-3.7,0.1-5.5,0.1s-3.7,0-5.5-0.1V473.7H220.5z"/>
	<path class="st7" d="M215,524.9v34.3l0,0l0,0L215,524.9L215,524.9z"/>
	<path class="st8" d="M248.4,453.2H215v106l0,0l0,0l9.9-30.5c0.9-2.7,2.3-5.3,4-7.5c1.8-2.2,3.9-4.1,6.4-5.6
		c5.9-2.7,12.8-0.9,16.7,4.2l8.3,10.8l6.5-26.9c3.5-14.3-0.2-29.3-9.8-40.4L248.4,453.2z"/>
	<path class="st9" d="M181.6,453.2H215v106l0,0l0,0l-9.9-30.5c-0.9-2.7-2.3-5.3-4-7.5c-1.8-2.2-3.9-4.1-6.4-5.6
		c-5.9-2.7-12.8-0.9-16.7,4.2l-8.3,10.8l-6.5-26.9c-3.4-14.3,0.2-29.3,9.8-40.4L181.6,453.2z"/>
	<path class="st10" d="M317.7,346.8c12.6,0,22.9,10.2,22.9,22.9c0,23-18.6,41.6-41.6,41.6v-64.6L317.7,346.8z"/>
	<path class="st10" d="M112.3,346.8c-12.6,0-22.9,10.2-22.9,22.9c0,23,18.6,41.6,41.6,41.6v-64.6L112.3,346.8z"/>
	<path class="st10" d="M180.3,429.2v49.3c0,19.1,15.5,34.6,34.6,34.6c19.1,0,34.6-15.5,34.6-34.6v-49.3H180.3z"/>
	<path class="st11" d="M180.3,429.2v49.3c0,19.1,15.5,34.6,34.6,34.6v-83.9H180.3z"/>
	<path class="st11" d="M125.6,351.1v33.7c0,49.3,40,89.4,89.4,89.4c0,0,0,0,0,0c49.3,0,89.4-40,89.4-89.4v-33.7
		c0-5.1-0.4-10.1-1.3-14.9c-5.8-34.8-31.8-62.8-65.5-71.6c-7.2-1.9-14.8-2.9-22.6-2.9c0,0,0,0,0,0c-7.8,0-15.4,1-22.6,2.9
		c-33.7,8.8-59.7,36.8-65.5,71.6C126,341.1,125.6,346.1,125.6,351.1z"/>
	<path class="st12" d="M125.6,351.1v33.7c0,49.3,40,89.4,89.4,89.4V261.8c-7.8,0-15.4,1-22.6,2.9c-33.7,8.8-59.7,36.8-65.5,71.6
		C126,341.1,125.6,346.1,125.6,351.1z"/>
	<path class="st2" d="M254,373.6c0,6.1-4.9,11-11,11s-11-4.9-11-11c0-6.1,4.9-11,11-11S254,367.6,254,373.6z"/>
	<path class="st2" d="M198,373.6c0,6.1-4.9,11-11,11c-6.1,0-11-4.9-11-11c0-6.1,4.9-11,11-11C193,362.6,198,367.6,198,373.6z"/>
	<path class="st2" d="M188.7,418.4c-7.8,0-11.9,9.3-6.6,15c3.4,3.5,7.3,6.5,11.6,8.8c6.3,3.4,13.6,5.3,21.3,5.3s14.9-1.9,21.3-5.3
		c4.3-2.3,8.3-5.3,11.6-8.8c5.3-5.6,1.2-15-6.6-15H188.7z"/>
	<path class="st2" d="M106.4,342.9c0,5.2,3.9,9.6,9.1,10.2c4.5,0.5,9.1,0.8,13.7,0.8c33.9,0,64.4-14.5,85.7-37.6
		c21.3,23.2,51.8,37.6,85.7,37.6c4.6,0,9.1-0.3,13.5-0.8c2.6-0.3,5-1.6,6.6-3.5c1.7-1.9,2.7-4.3,2.7-7c0-40.4-21.8-78.2-57.7-96.9
		c-7.3-3.8-15-6.8-23-8.9c-8.9-2.3-18.2-3.5-27.8-3.5c0,0,0,0,0,0c-9.6,0-19,1.2-27.8,3.6c-4.6,1.2-9.1,2.7-13.5,4.5
		c-20.5,8.3-37.3,22.6-49,40.4C113,299.5,106.4,320.8,106.4,342.9z"/>
	<path class="st13" d="M106.4,342.9c0,5.2,3.9,9.6,9.1,10.2c4.5,0.5,9.1,0.8,13.7,0.8c33.9,0,64.4-14.5,85.7-37.6v-82.9
		c-9.6,0-19,1.2-27.8,3.6c-4.6,1.2-9.1,2.7-13.5,4.5c-20.5,8.3-37.3,22.6-49,40.4C113,299.5,106.4,320.8,106.4,342.9z"/>
	<path class="st10" d="M215,403.8c3.7,0,6.6-3,6.6-6.6v-33.3c0-3.7-3-6.6-6.6-6.6s-6.6,3-6.6,6.6v33.3
		C208.4,400.8,211.3,403.8,215,403.8z"/>
	<path class="st14" d="M193.7,442.2c6.3,3.4,13.6,5.3,21.3,5.3s14.9-1.9,21.3-5.3c-5.3-5.7-12.9-9.3-21.3-9.3S199,436.5,193.7,442.2
		z"/>
	<path class="st8" d="M106.6,318.7h216.1l-7.5-46l-7.5-46H121.6l-7.5,46L106.6,318.7z"/>
	<path class="st9" d="M106.6,318.7H215v-92.1h-93.4l-7.5,46L106.6,318.7z"/>
	<path class="st5" d="M106.6,318.7h216.1l-7.5-46H114.1L106.6,318.7z"/>
	<path class="st6" d="M106.6,318.7H215v-46H114.1L106.6,318.7z"/>
	<path class="st8" d="M73.6,308.6h282.8v20.2H73.6V308.6z"/>
	<path class="st9" d="M73.6,308.6H215v20.2H73.6V308.6z"/>
</g>
</svg>
