<?xml version="1.0" encoding="utf-8"?>
<!-- Generator: Adobe Illustrator 19.0.0, SVG Export Plug-In . SVG Version: 6.00 Build 0)  -->
<svg version="1.1" id="Calque_1" xmlns="http://www.w3.org/2000/svg" xmlns:xlink="http://www.w3.org/1999/xlink" x="0px" y="0px"
	 viewBox="-41 164.9 512 512" style="enable-background:new -41 164.9 512 512;" xml:space="preserve">
<style type="text/css">
	.st0{fill:#7657E5;}
	.st1{fill:#6853D3;}
	.st2{fill:#5946B7;}
	.st3{fill:#323B5A;}
	.st4{fill:#FFE955;}
	.st5{fill:#FFD112;}
	.st6{fill:#FF9F00;}
	.st7{fill:#FFFFFF;}
	.st8{fill:#D0F6FF;}
	.st9{fill:#8FC9F7;}
	.st10{fill:#FF7195;}
	.st11{fill:#FF3445;}
	.st12{fill:#DD1265;}
	.st13{fill:#65B2FF;}
	.st14{fill:#0F9BE8;}
	.st15{fill:#0066E8;}
	.st16{fill:#474F6F;}
	.st17{fill:#065FC1;}
	.st18{fill:#C55835;}
	.st19{fill:#BA0D5C;}
</style>
<g id="surface1">
	<path class="st0" d="M471,420.9c0,78.5-35.3,148.7-91,195.7c-44.6,37.6-102.2,60.3-165,60.3S94.5,654.2,50,616.6
		c-55.6-47-91-117.2-91-195.7c0-141.4,114.6-256,256-256S471,279.5,471,420.9z"/>
	<path class="st1" d="M471,420.9c0,26.1-3.9,51.2-11.1,74.9c-32,104.8-129.5,181.1-244.9,181.1c-104.6,0-194.5-62.7-234.2-152.6
		c-14-31.6-21.8-66.6-21.8-103.4c0-46.2,12.3-89.6,33.7-127c44.1,77.1,127.2,129,222.3,129s178.2-51.9,222.3-129
		C458.8,331.3,471,374.7,471,420.9z"/>
	<path class="st2" d="M440.3,542.6c-7.2,13.2-15.4,25.7-24.7,37.4c-0.1,0.2-0.3,0.4-0.5,0.6C368.2,639.3,296,676.9,215,676.9
		S61.8,639.3,14.9,580.6c-0.2-0.2-0.3-0.4-0.5-0.6c-9.3-11.7-17.6-24.2-24.7-37.4H440.3z"/>
	<path class="st3" d="M380,616.6c-44.6,37.6-102.2,60.3-165,60.3S94.5,654.2,50,616.6H380z"/>
	<path class="st4" d="M356.3,410.9v223.5c-21.4,14.2-45,25.2-70.3,32.5c-22.6,6.5-46.4,10-71.1,10c-23.3,0-45.9-3.1-67.4-9
		c-1.2-0.3-2.4-0.7-3.7-1c-21.2-6.1-41.3-14.9-59.8-26c-3.5-2.1-7-4.3-10.4-6.6V431.6c0-11.5,9.3-20.8,20.8-20.8H356.3z"/>
	<path class="st5" d="M356.3,410.9v223.5c-21.4,14.2-45,25.2-70.3,32.5c-22.6,6.5-46.4,10-71.1,10c-23.3,0-45.9-3.1-67.4-9V410.9
		H356.3z"/>
	<path class="st6" d="M356.3,410.9v223.5c-21.4,14.2-45,25.2-70.3,32.5c-22.6,6.5-46.4,10-71.1,10v-266H356.3z"/>
	<path class="st7" d="M286.1,666.9c-22.6,6.5-46.4,10-71.1,10c-23.3,0-45.9-3.1-67.4-9c-1.2-0.3-2.4-0.7-3.7-1H286.1z"/>
	<path class="st8" d="M286.1,666.9c-22.6,6.5-46.4,10-71.1,10c-23.3,0-45.9-3.1-67.4-9v-1H286.1z"/>
	<path class="st9" d="M286.1,666.9c-22.6,6.5-46.4,10-71.1,10v-10H286.1z"/>
	<path class="st10" d="M356.3,363.2v257c0,0.4,0,0.7,0,1.1c0,0.3,0,0.5-0.1,0.7c0,0.1,0,0.2,0,0.3c0,0.2,0,0.4-0.1,0.5
		c0,0.2-0.1,0.4-0.1,0.6c0,0.2-0.1,0.4-0.1,0.6c0,0.2-0.1,0.4-0.1,0.5c0,0.1-0.1,0.3-0.1,0.4c-0.1,0.3-0.2,0.7-0.3,1
		c-0.1,0.4-0.2,0.7-0.4,1.1c-0.1,0.3-0.2,0.5-0.3,0.7c-0.2,0.5-0.4,0.9-0.6,1.4c-0.1,0.2-0.2,0.4-0.3,0.6c-0.1,0.1-0.1,0.3-0.2,0.4
		c-0.2,0.3-0.4,0.7-0.6,1c-0.1,0.1-0.2,0.3-0.3,0.5c-0.1,0.2-0.2,0.3-0.3,0.5c-0.2,0.3-0.4,0.6-0.7,0.9c-0.2,0.3-0.4,0.5-0.6,0.7
		c0,0-0.1,0.1-0.1,0.1l0,0c-0.1,0.1-0.2,0.3-0.4,0.4c-0.1,0.1-0.3,0.3-0.4,0.4c-0.3,0.3-0.5,0.5-0.8,0.8c-0.3,0.3-0.6,0.5-0.8,0.7
		c-0.3,0.2-0.5,0.4-0.8,0.6c-0.2,0.2-0.5,0.4-0.7,0.5c-0.1,0-0.1,0.1-0.2,0.1c-0.3,0.2-0.5,0.3-0.8,0.5c-0.6,0.4-1.2,0.7-1.8,1
		c-0.3,0.2-0.7,0.3-1,0.5c-0.4,0.1-0.7,0.3-1.1,0.4c-0.2,0.1-0.4,0.1-0.6,0.2c-0.2,0.1-0.3,0.1-0.5,0.1c-0.3,0.1-0.6,0.2-1,0.3
		c-0.1,0-0.3,0.1-0.4,0.1c-0.2,0-0.4,0.1-0.6,0.1c-0.2,0-0.4,0.1-0.6,0.1c-0.3,0-0.5,0.1-0.7,0.1c-0.1,0-0.2,0-0.3,0
		c-0.2,0-0.3,0-0.5,0.1c-0.2,0-0.5,0-0.7,0.1c-0.4,0-0.7,0-1.1,0H84.1c-3.5-2.1-7-4.3-10.4-6.6v-292h261.9
		C347,342.4,356.3,351.7,356.3,363.2z"/>
	<path class="st11" d="M356.3,363.2v257c0,11.5-9.3,20.8-20.8,20.8h-188V342.4h188C347,342.4,356.3,351.7,356.3,363.2z"/>
	<path class="st12" d="M356.3,363.2v257c0,11.5-9.3,20.8-20.8,20.8H215V342.4h120.6C347,342.4,356.3,351.7,356.3,363.2z"/>
	<path class="st7" d="M356.3,619.2v1c0,0.4,0,0.7,0,1.1c0,0.3,0,0.5-0.1,0.7c0,0.1,0,0.2,0,0.3c0,0.2,0,0.4-0.1,0.5
		c0,0.2-0.1,0.4-0.1,0.6c0,0.2-0.1,0.4-0.1,0.6c0,0.2-0.1,0.4-0.1,0.5c0,0.1-0.1,0.3-0.1,0.4c-0.1,0.3-0.2,0.7-0.3,1
		c-0.1,0.4-0.2,0.7-0.4,1.1c-0.1,0.3-0.2,0.5-0.3,0.7c-0.2,0.5-0.4,0.9-0.6,1.4c-0.1,0.2-0.2,0.4-0.3,0.6c-0.1,0.1-0.1,0.3-0.2,0.4
		c-0.2,0.3-0.4,0.7-0.6,1c-0.1,0.1-0.2,0.3-0.3,0.5c-0.1,0.2-0.2,0.3-0.3,0.5c-0.2,0.3-0.4,0.6-0.7,0.9c-0.2,0.3-0.4,0.5-0.6,0.7
		c0,0-0.1,0.1-0.1,0.1l0,0c-0.1,0.1-0.2,0.3-0.4,0.4c-0.1,0.1-0.3,0.3-0.4,0.4c-0.3,0.3-0.5,0.5-0.8,0.8c-0.3,0.3-0.6,0.5-0.8,0.7
		c-0.3,0.2-0.5,0.4-0.8,0.6c-0.2,0.2-0.5,0.4-0.7,0.5c-0.1,0-0.1,0.1-0.2,0.1c-0.3,0.2-0.5,0.3-0.8,0.5c-0.6,0.4-1.2,0.7-1.8,1
		c-0.3,0.2-0.7,0.3-1,0.5c-0.4,0.1-0.7,0.3-1.1,0.4c-0.2,0.1-0.4,0.1-0.6,0.2c-0.2,0.1-0.3,0.1-0.5,0.1c-0.3,0.1-0.6,0.2-1,0.3
		c-0.1,0-0.3,0.1-0.4,0.1c-0.2,0-0.4,0.1-0.6,0.1c-0.2,0-0.4,0.1-0.6,0.1c-0.3,0-0.5,0.1-0.7,0.1c-0.1,0-0.2,0-0.3,0
		c-0.2,0-0.3,0-0.5,0.1c-0.2,0-0.5,0-0.7,0.1c-0.4,0-0.7,0-1.1,0H84.1c-3.5-2.1-7-4.3-10.4-6.6v-36h261.9
		C347,598.4,356.3,607.7,356.3,619.2z"/>
	<path class="st8" d="M356.3,619.2v1c0,11.5-9.3,20.8-20.8,20.8h-188v-42.5h188C347,598.4,356.3,607.7,356.3,619.2z"/>
	<path class="st13" d="M356.3,295.8v278.9H94.4c-11.5,0-20.8-9.3-20.8-20.8v-257c0-11.5,9.3-20.8,20.8-20.8h242.3
		C347.6,276.2,356.3,285,356.3,295.8z"/>
	<path class="st14" d="M356.3,295.8v278.9H147.6V276.2h189.1C347.6,276.2,356.3,285,356.3,295.8z"/>
	<path class="st15" d="M356.3,295.8v278.9H215V276.2h121.7C347.6,276.2,356.3,285,356.3,295.8z"/>
	<path class="st7" d="M356.3,532.2v42.5H94.4c-11.5,0-20.8-9.3-20.8-20.8v-1c0-11.5,9.3-20.8,20.8-20.8H356.3z"/>
	<path class="st8" d="M147.6,532.2h208.8v42.5H147.6V532.2z"/>
	<path class="st9" d="M215,532.2h141.3v42.5H215V532.2z"/>
	<path class="st16" d="M296.1,331.8v59.8c0,6.7-5.4,12.2-12.2,12.2H146.1c-6.7,0-12.2-5.5-12.2-12.2v-59.8c0-6.7,5.4-12.2,12.2-12.2
		h137.8C290.6,319.6,296.1,325.1,296.1,331.8z"/>
	<path class="st3" d="M296.1,331.8v59.8c0,6.7-5.4,12.2-12.2,12.2H215v-84.2h68.9C290.6,319.6,296.1,325.1,296.1,331.8z"/>
	<path class="st7" d="M280.6,344.9v33.6c0,5-4,9-9,9H158.4c-5,0-9-4-9-9v-33.6c0-5,4-9,9-9h113.2
		C276.5,335.9,280.6,339.9,280.6,344.9z"/>
	<path class="st8" d="M280.6,344.9v33.6c0,5-4,9-9,9H215v-51.5h56.6C276.5,335.9,280.6,339.9,280.6,344.9z"/>
	<path class="st9" d="M356.3,619.2v1c0,11.5-9.3,20.8-20.8,20.8H215v-42.5h120.6C347,598.4,356.3,607.7,356.3,619.2z"/>
	<path class="st14" d="M83.7,552.9v1c0,5.9,4.8,10.8,10.8,10.8h261.9v10H94.4c-11.5,0-20.8-9.3-20.8-20.8v-1
		c0-11.5,9.3-20.8,20.8-20.8h261.9v10H94.4C88.5,542.2,83.7,547,83.7,552.9z"/>
	<path class="st15" d="M147.6,532.2h208.8v10H147.6V532.2z"/>
	<path class="st15" d="M147.6,564.7h208.8v10H147.6V564.7z"/>
	<path class="st17" d="M215,532.2h141.3v10H215V532.2z"/>
	<path class="st17" d="M215,564.7h141.3v10H215V564.7z"/>
	<path class="st5" d="M286.1,666.9c-22.6,6.5-46.4,10-71.1,10c-23.3,0-45.9-3.1-67.4-9c-1.2-0.3-2.4-0.7-3.7-1H286.1z"/>
	<path class="st6" d="M286.1,666.9c-22.6,6.5-46.4,10-71.1,10c-23.3,0-45.9-3.1-67.4-9v-1H286.1z"/>
	<path class="st18" d="M286.1,666.9c-22.6,6.5-46.4,10-71.1,10v-10H286.1z"/>
	<path class="st11" d="M356.3,619.2v1c0,0.4,0,0.7,0,1.1c0,0.3,0,0.5-0.1,0.7c0,0.1,0,0.2,0,0.3c0,0.2,0,0.4-0.1,0.5
		c0,0.2-0.1,0.4-0.1,0.6c0,0.2-0.1,0.4-0.1,0.6c0,0.2-0.1,0.4-0.1,0.5c0,0.1-0.1,0.3-0.1,0.4c-0.1,0.3-0.2,0.7-0.3,1
		c-0.1,0.4-0.2,0.7-0.4,1.1c-0.1,0.3-0.2,0.5-0.3,0.7c-0.2,0.5-0.4,0.9-0.6,1.4c-0.1,0.2-0.2,0.4-0.3,0.6c-0.1,0.1-0.1,0.3-0.2,0.4
		c-0.2,0.3-0.4,0.7-0.6,1c-0.1,0.1-0.2,0.3-0.3,0.5c-0.1,0.2-0.2,0.3-0.3,0.5c-0.2,0.3-0.4,0.6-0.7,0.9c-0.2,0.3-0.4,0.5-0.6,0.7
		c0,0-0.1,0.1-0.1,0.1l0,0c-0.1,0.1-0.2,0.3-0.4,0.4c-0.1,0.1-0.3,0.3-0.4,0.4c-0.3,0.3-0.5,0.5-0.8,0.8c-0.3,0.3-0.6,0.5-0.8,0.7
		c-0.3,0.2-0.5,0.4-0.8,0.6c-0.2,0.2-0.5,0.4-0.7,0.5c-0.1,0-0.1,0.1-0.2,0.1c-0.1,0.1-0.2,0.2-0.3,0.2c-0.1,0.1-0.3,0.2-0.4,0.3
		c-0.6,0.4-1.2,0.7-1.8,1c-0.3,0.2-0.7,0.3-1,0.5c-0.4,0.1-0.7,0.3-1.1,0.4c-0.2,0.1-0.4,0.1-0.6,0.2c-0.2,0.1-0.3,0.1-0.5,0.1
		c-0.3,0.1-0.6,0.2-1,0.3c-0.1,0-0.3,0.1-0.4,0.1c-0.2,0-0.4,0.1-0.6,0.1c-0.2,0-0.4,0.1-0.6,0.1c-0.3,0-0.5,0.1-0.7,0.1
		c-0.1,0-0.2,0-0.3,0c-0.2,0-0.3,0-0.5,0.1c-0.2,0-0.5,0-0.7,0.1c-0.4,0-0.7,0-1.1,0H84.1c-3.5-2.1-7-4.3-10.4-6.6v-3.4h261.9
		c5.9,0,10.8-4.8,10.8-10.8v-1c0-5.9-4.8-10.8-10.8-10.8H73.7v-10h261.9C347,598.4,356.3,607.7,356.3,619.2z"/>
	<path class="st12" d="M356.3,619.2v1c0,0.4,0,0.7,0,1.1c0,0.3,0,0.5-0.1,0.7c0,0.3,0,0.6-0.1,0.9c0,0.2-0.1,0.4-0.1,0.6
		c0,0.2-0.1,0.4-0.1,0.6c0,0.2-0.1,0.4-0.1,0.5c0,0.1-0.1,0.3-0.1,0.4c-0.1,0.3-0.2,0.7-0.3,1c-0.1,0.4-0.2,0.7-0.4,1.1
		c-0.3,0.7-0.5,1.4-0.9,2.1c-0.2,0.3-0.3,0.7-0.5,1c-0.2,0.3-0.4,0.7-0.6,1c-0.2,0.3-0.4,0.6-0.6,0.9c-0.2,0.3-0.4,0.6-0.7,0.9
		c-0.2,0.3-0.5,0.6-0.7,0.9l0,0c-0.2,0.3-0.5,0.6-0.8,0.8c-0.3,0.3-0.5,0.5-0.8,0.8c-0.3,0.3-0.6,0.5-0.8,0.7
		c-0.3,0.2-0.5,0.4-0.8,0.6c-0.2,0.2-0.5,0.4-0.7,0.5c-0.1,0-0.1,0.1-0.2,0.1c-0.3,0.2-0.5,0.3-0.8,0.5c-0.6,0.4-1.2,0.7-1.8,1
		c-0.7,0.3-1.4,0.6-2.1,0.9c-0.4,0.1-0.7,0.3-1.1,0.3c-0.3,0.1-0.6,0.2-1,0.3c-0.1,0-0.3,0.1-0.4,0.1c-0.2,0-0.4,0.1-0.6,0.1
		c-0.2,0-0.4,0.1-0.6,0.1c-0.3,0-0.5,0.1-0.7,0.1c-0.1,0-0.2,0-0.3,0c-0.2,0-0.3,0-0.5,0.1c-0.2,0-0.5,0-0.7,0.1c-0.4,0-0.7,0-1.1,0
		h-188v-10h188c5.9,0,10.8-4.8,10.8-10.8v-1c0-5.9-4.8-10.8-10.8-10.8h-188v-10h188C347,598.4,356.3,607.7,356.3,619.2z"/>
	<path class="st19" d="M356.3,619.2v1c0,6.4-2.9,12.2-7.6,16c-0.6,0.5-1.3,1-2,1.5c-0.7,0.4-1.4,0.9-2.2,1.2c-2.7,1.3-5.8,2.1-9,2.1
		H215v-10h120.6c5.9,0,10.8-4.8,10.8-10.8v-1c0-5.9-4.8-10.8-10.8-10.8H215v-10h120.6C347,598.4,356.3,607.7,356.3,619.2z"/>
</g>
</svg>
