<?xml version="1.0" encoding="utf-8"?>
<!-- Generator: Adobe Illustrator 19.0.0, SVG Export Plug-In . SVG Version: 6.00 Build 0)  -->
<svg version="1.1" id="Capa_1" xmlns="http://www.w3.org/2000/svg" xmlns:xlink="http://www.w3.org/1999/xlink" x="0px" y="0px"
	 viewBox="-41 164.9 512 512" style="enable-background:new -41 164.9 512 512;" xml:space="preserve">
<style type="text/css">
	.st0{fill:#60B5F4;}
	.st1{fill:#3A9BF5;}
	.st2{fill:#1E8CE6;}
	.st3{fill:#A5E17D;}
	.st4{fill:#82CD64;}
	.st5{fill:#836CF4;}
	.st6{fill:#7657E5;}
	.st7{fill:#796AE2;}
	.st8{fill:#6E59D3;}
</style>
<path class="st0" d="M465.8,426c0,137.6-111.4,250.8-250.8,250.8C75.9,676.8-35.8,564-35.8,426c0-138.5,112.3-250.8,250.8-250.8
	C353.8,175.2,465.8,287.8,465.8,426z"/>
<path class="st1" d="M464.3,454c-2.1,18.8-6.3,37.1-12.3,54.5c-3.6,10.3-7.8,20.3-12.6,29.9c-22.1,44-56.8,80.8-99.5,105.3
	c-26.9,15.5-56.9,26.1-89,30.6c-50.8,7.2-101.6-0.7-149.2-24.5c-24.9-12.6-46.8-29-65.4-47.9c-33.6-34.1-57.4-77.8-67.2-126.5
	c-0.2-0.9-0.4-1.9-0.5-2.8c0-0.1-0.1-0.3-0.1-0.4c20.7-35.1,48.4-65.6,81.3-89.5c48.4-35.1,108-55.8,172.4-55.8
	c74.5,0,142.5,27.7,194.4,73.4C434.5,416.2,450.6,434.2,464.3,454z"/>
<path class="st2" d="M101,525.8c0,52.4,16.2,101,43.8,141.1c-15-4.4-29.5-10.1-43.2-17.1c-24.4-12.4-46.4-28.6-65.4-47.9
	c-34.3-34.9-58.5-79.8-67.8-129.7c20.7-35.1,48.4-65.6,81.3-89.5c42.5-30.8,93.7-50.5,149.1-54.9C139.4,373.4,101,445.1,101,525.8z"
	/>
<path class="st3" d="M230.3,676.4c-37,2.3-73.7-3.7-107.3-17c0,0,0,0,0,0c-11.6-4.7-16.2-7.1-24.6-11.3c0,0,0,0,0,0
	C45.5,620.6,3.5,574.7-19.5,515.2v0c-5.9-15.4-10.7-34-12.1-43c20.7-35.1,48.4-65.6,81.3-89.5c47.6-13.7,83.3-18.4,110-17.5
	c52.6,1.6,69.7,24.6,72.3,41.8c8,53-120.1,130.7-125,133.8c-1.8,1.2-3.6,2.1-5.4,2.8c-19.3,8.3-32.9-6.7-52.7,4.8
	c-29,16.1-15.3,46.4,1.2,33.8c15.1-11.7,26-5.3,30.3,5.5c4.3,10.8,12.3,66.8,33.4,34.9c2.5-2.7,4.7-9.5,12.6-9.5
	c27.4,0.1,74,35.4,75.9,42.5C206.7,667.6,226.6,669.6,230.3,676.4z"/>
<path class="st4" d="M144.8,666.9c-7.5-2.2-14.8-4.7-21.9-7.5c0,0,0,0,0,0c-11.2-4.4-17.1-7.5-24.6-11.3c0,0,0,0,0,0
	C46.3,621,3.9,575.5-19.5,515.2v0c-5.9-15.4-10.7-34.1-12.1-43c20.7-35.1,48.4-65.6,81.3-89.5c47.6-13.7,83.3-18.4,110-17.5
	c-36.6,43.4-58.7,99.4-58.7,160.6c0,6,0.2,11.9,0.6,17.8c-19.3,8.3-32.9-6.7-52.7,4.8c-29,16.1-15.3,46.4,1.2,33.8
	c15.1-11.7,26-5.3,30.3,5.5c4.3,10.8,12.3,66.8,33.4,34.9c1.2-1.4,2.4-3.8,4.3-5.8C128.9,644,144,666.1,144.8,666.9z"/>
<g>
	<path class="st3" d="M464.3,454c-2.1,18.8-6.3,37.1-12.3,54.5c-22.7,42.6-22.4-50-74.5-3c-28.3,25.5-57.7-22.9-23.6-19.5
		c31.2,3.1,62.6-85.6,62.7-85.7C434.5,416.2,450.6,434.2,464.3,454z"/>
	<path class="st3" d="M439.3,538.4c-22.1,44-56.8,80.8-99.5,105.3c-1-0.4-2.2-0.9-3.5-1.6c-16.3-8.6-28-19.2-32.3-42.7
		c-2.6-14-2.1-22.5,2.1-37C325.6,494.9,417.3,530.7,439.3,538.4z"/>
</g>
<path class="st5" d="M306.5,205.3c-0.6-0.1-127.8-17.1-147.5-19.8c-29.5-6.4-46.6,5.7-57.6,8.7c-3.8,1.4-2.5,8.6,1.8,9.5
	c12.4,2.7,112.9,24.4,125.3,27.1c12.3,2.7,25.1,1.7,36.9-2.7l42-15.7C310.9,211.1,310.3,205.8,306.5,205.3z"/>
<path class="st6" d="M176.5,187.9L122.7,208l-19.7-4.3c-4.2-0.9-5.6-8.1-1.8-9.5l16.2-6.1C140.6,179.5,156,185.9,176.5,187.9z"/>
<path class="st7" d="M307.3,212.5l-42,15.7c-11.8,4.4-24.6,5.3-36.9,2.7c-11.3-2.5-114.2-24.7-125.3-27.1c-3.2-0.7-4.8-5.1-3.6-7.7
	c0.6,0.3-8.2-1.7,126.1,27.4c12.3,2.7,25.1,1.7,36.9-2.7l41.9-15.7l2.1,0.3C310.3,205.8,310.9,211.1,307.3,212.5z"/>
<path class="st6" d="M407.4,210.8l-227.1,85c0,0-129.4,28.8-140.7,29.5c-1.1,0.1-1.7,0.1-1.7,0.1c-6.9,0.1-12.2-4.3-14.2-9.7
	l-10.8-28.9l307-114.9c29.6-11.1,44.5-7.2,58.4-1.6c7.6,3.1,25.3,4.8,30.8,7.3C423.8,184.4,422.4,205.2,407.4,210.8z"/>
<path class="st5" d="M63.4,268c-52.5,64.2,13.2-16.2-39.5,48.3c-57.2-92.1-50.9-81.9-52.4-84.4c-3.1-5-0.9-11.5,4.6-13.6l11.3-4.2
	c3-1.1,6.4-0.6,9,1.4L63.4,268z"/>
<path class="st8" d="M419.4,192.2c0.7,7.9-4.3,15.7-12,18.6l-227.1,85c0,0-129.4,28.8-140.7,29.5c-8,0.5-13.3-3.4-15.6-8.9
	C147.3,290.3,303,239.6,419.4,192.2z"/>
<path class="st8" d="M279.7,247.6c-1.1,1.2,12.8-14.6-114.1,130.3c-22.5,30.1-50.1,31.8-57.4,35.2c-4.4,1.6-10.1-9.3-7.1-13.3
	c17.7-23.8,69.4-93.1,87.3-117c8.7-11.7,23.9-18,37.6-23.1l47.5-23.2C277.7,235.1,282.6,244.3,279.7,247.6z"/>
<path class="st5" d="M277.7,243.8c-0.5,0.5-98.6,112.2-113.8,129.5c-21,28.1-45,30.5-56.9,36.3c-4.4,1.6-8.7-5.6-5.7-9.7
	c29.9-40,69.9-93.7,88.8-119c8.7-11.7,20.6-20.6,34.3-25.7l48.6-18.2C277.1,235.3,280.6,240.4,277.7,243.8z"/>
<path class="st6" d="M183.9,350.5l-20,22.8c-21,28.1-45,30.5-56.9,36.3c-4.4,1.6-8.7-5.6-5.7-9.7l19.1-25.6L183.9,350.5z"/>
<path class="st8" d="M58.5,274c0,0-3.6,17.1-11,25.5c-7.4,8.4-24.1,16.2-24.1,16.2c-2.2-3.5-50.8-81.8-52-83.7
	c-3.1-5-0.9-11.5,4.6-13.6l10.6-4L58.5,274z"/>
<path class="st5" d="M361.3,170.1C271.6,206.5,58.5,274,58.5,274l4.9-6l256.5-96c12.7-4.8,27.1-8,40.7-6.8
	C363.3,165.4,363.8,169.1,361.3,170.1z"/>
<path class="st5" d="M409.7,209.8c-1.5,0.8,1.7-0.5-51.9,19.6c17.6-13.7,29.7-33.6,34-55.7c16.9,3.1,19,3.3,24.8,10.5
	C421.8,192,420.3,203.4,409.7,209.8z"/>
<path class="st7" d="M418.9,198.1c-1.4,5.5-5.6,10.5-11.4,12.7l-49.6,18.6c7.5-5.9,13.9-12.8,19.2-20.5c0.2-0.1,31.1-11.7,31.4-11.8
	c5.4-2,8.7-7.5,8.2-13.1C417.1,184.7,420.6,192,418.9,198.1z"/>
<path class="st8" d="M134.4,203.7l-11.6,4.3l-19.7-4.3c-3.1-0.7-4.6-4.7-3.8-7.2c0-0.1,0.1-0.4,0.2-0.6
	C100.1,196.3,97.9,195.8,134.4,203.7z"/>
</svg>
