<?xml version="1.0" encoding="utf-8"?>
<!-- Generator: Adobe Illustrator 19.0.0, SVG Export Plug-In . SVG Version: 6.00 Build 0)  -->
<svg version="1.1" id="Capa_1" xmlns="http://www.w3.org/2000/svg" xmlns:xlink="http://www.w3.org/1999/xlink" x="0px" y="0px"
	 viewBox="-41 164.9 512 512" style="enable-background:new -41 164.9 512 512;" xml:space="preserve">
<style type="text/css">
	.st0{fill:#7657E5;}
	.st1{fill:#5A5A5A;}
	.st2{fill:#1E8CE6;}
	.st3{fill:#FFAF37;}
	.st4{fill:#FF9B32;}
	.st5{fill:#FFC364;}
	.st6{fill:#FF4046;}
	.st7{fill:#FF5A5F;}
	.st8{fill:#FFD791;}
	.st9{fill:#878C8B;}
	.st10{fill:#FFAF82;}
	.st11{fill:#FF9B69;}
	.st12{fill:#EA4C67;}
	.st13{fill:#CC425F;}
	.st14{fill:#AA6432;}
	.st15{fill:#965028;}
	.st16{fill:#80391B;}
	.st17{fill:#FA875A;}
	.st18{fill:#D27950;}
	.st19{fill:#FAFAFA;}
</style>
<path class="st0" d="M467,420.9c0,139.4-112.8,254-254,254c-140.8,0-254-114.3-254-254c0-140.3,113.7-254,254-254
	C353.5,166.9,467,280.9,467,420.9z"/>
<path class="st1" d="M424.1,451.3H102.3c-25.8,0-46.9-21.1-46.9-46.9v-185c0-25.8,21.1-46.9,46.9-46.9h321.8
	c25.8,0,46.9,21.1,46.9,46.9v185.1C471,430.2,449.9,451.3,424.1,451.3z"/>
<path class="st2" d="M424.1,420H102.2c-9.1,0-16.5-7.4-16.5-16.5V220.2c0-9.1,7.4-16.5,16.5-16.5h321.9c9.1,0,16.5,7.4,16.5,16.5
	v183.2C440.7,412.5,433.2,420,424.1,420z"/>
<g>
	<circle class="st3" cx="46.1" cy="442.8" r="27.2"/>
	<circle class="st3" cx="116.3" cy="433" r="35.1"/>
</g>
<circle class="st4" cx="93.2" cy="455.7" r="34.8"/>
<circle class="st5" cx="76.5" cy="402.6" r="30.4"/>
<circle class="st3" cx="201.5" cy="437.7" r="35.1"/>
<circle class="st4" cx="149.3" cy="461.2" r="34.8"/>
<circle class="st5" cx="149.3" cy="420.9" r="32.7"/>
<path class="st6" d="M235.7,449.6l-44.6,224.3c-14.3-1.2-28.2-3.6-41.7-7.1c-24-6.2-46.5-15.7-67.2-28.2
	c-20.9-12.6-39.8-28.1-56.2-45.9L-2.4,449.6c0-10.2,11.7-16.3,19.9-10.2c12.4,9.3,18.5,25.2,39.6,25.2c3.4,0,6.3-0.4,9-1.1
	c21.1-5.6,24.1-30.5,50.5-30.5c26.1,0,29.3,24.3,49.8,30.3c2.9,0.8,6.1,1.3,9.8,1.3c21.1,0,27.3-15.9,39.7-25.2
	c2.3-1.7,4.8-2.5,7.3-2.5C229.6,437,235.7,442.2,235.7,449.6z"/>
<path class="st7" d="M166.4,463.3l-17,203.6c-24-6.2-46.5-15.7-67.2-28.2L66.1,463.5c21.1-5.6,24.1-30.5,50.5-30.5
	C142.7,433,145.9,457.3,166.4,463.3z"/>
<circle class="st8" cx="114.5" cy="370" r="32.6"/>
<path class="st9" d="M440.7,340.2v39.7c0,22-18,40.1-40.1,40.1h-18.2l5.2-98.1l5,1.5l6.7,2l19,5.8l18.1,5.5
	C438.3,337.3,439.8,338.6,440.7,340.2z"/>
<polygon class="st10" points="354.9,305.8 385.5,311.7 386.2,268.7 361.5,265.7 "/>
<polygon class="st11" points="378,267.7 377.3,308.2 385.5,311.7 386.2,268.7 "/>
<path class="st12" d="M399.3,325.5c0,0.3,0,0.5-0.1,0.8l-0.4,5.3l-6.5,88.4h-85c12-48,31.8-118,48.4-119.4c3.2-0.3,5.8-0.5,8.1-0.6
	c8-0.6,11.4-0.6,22.6-1.5c0,0,0.1,0,0.1,0c0,0,0.1,0.1,0.1,0.1C395.1,304.4,400.2,314.5,399.3,325.5z"/>
<path class="st13" d="M399.2,326.3l-6.9,93.7h-32.6l1.2-16.1l5.7-77.6c1.1-10.1-3-19.6-10-25.8c14.1-1.2,15.9-0.9,29.9-2.1
	C395.2,304.5,400.4,315,399.2,326.3z"/>
<path class="st10" d="M339,226.8c-4.2,4.5-8,14.6-5.6,24.2c0.6,2.2-3.1,9.2-5.1,13.1c-1.1,2.2-0.1,4.9,2.2,5.8
	c1.4,0.5,3.8,0.4,3.8,0.4s5.7,24.2,5.8,24.3c9.9,9.2,22.5-8,34.1-19.8c3.5-3.6,8.6-1.8,11.4-4.8c12-12.9,13.8-34.5,0.9-46.5
	C373.7,211.7,351,214,339,226.8z"/>
<path class="st11" d="M341.3,295.7c9.7,6.8,21.8-9.5,32.9-20.8c3.5-3.6,8.6-1.8,11.4-4.8c9.5-10.2,12.6-25.9,7.1-37.9
	c1.2,11.7-2.9,24.2-11.2,33.2c-3.3,3.5-9.2,1.4-13.3,5.6C359.4,280,350,291.7,341.3,295.7z"/>
<path class="st14" d="M349.9,241.4c0.1,2.9,0.7,5.7,1.5,8.3c0.4,1.3,2.1,1.6,2.9,0.5c1.4-2,3.3-3.1,5.1-2.6c2.1,0.5,4.5,3.6,3.9,9
	c-0.1,1,0.2,2,0.9,2.7c3.5,3.6,9.8,10.1,13.9,11.1c5.3,1.3,2.7,1.2,7.1,1.2c11.6-3,15.9-18.8,15.2-32.7
	c-0.8-15.7-12.7-27.9-26.7-27.2C359.8,212.4,349.1,225.7,349.9,241.4z"/>
<path class="st15" d="M383,241.8c3,10.1,1.9,20.5-2.2,29.3c1.8,0.6,1.1,0.5,4.5,0.4c11.6-3,15.9-18.8,15.2-32.7
	c-0.8-15.7-12.7-27.9-26.7-27.2c-4.6,0.2-8.8,1.8-12.4,4.4C371.5,221.1,379.6,230.1,383,241.8z"/>
<path class="st12" d="M332.8,238.9l68.2,7.8c1.9,0.3,1.7-1.4,1.9-3.3c1.2-14-2.2-31.2-20.3-33.7c-38.3-8.1-44.4,9.6-49.5,21.8
	c-0.3,0.8-24.8-1.6-25-0.8c-0.1,0.3-1.3,4.4,3.1,5.2C319.3,237.2,332.8,238.9,332.8,238.9z"/>
<path class="st16" d="M284,365.2L274,420h-13.5l9.3-57.3c0.6-4,3.8-6.8,7.4-6.8c0.4,0,0.8,0,1.1,0.1
	C282.3,356.7,284.8,360.8,284,365.2z"/>
<path class="st9" d="M420,334.3l-14.6,8c-2.3-4.2-4.5-7.7-6.6-10.8c-2.2-3.2-4.3-5.9-6.2-8.1c-7.8-8.9-13.4-10.2-15.9-10.2h-0.1
	c-6.2,0-10.8,6.5-13.1,10.4c-8.4,14.8-10.4,33.1-5.5,50.3c5,17.1,12.7,32.9,20.4,46h-19.2c-6.6-12.3-12.8-26.3-17.2-41.4
	c-6.2-21.4-3.7-44.4,7-63.1c4.1-7.1,9.1-12.4,14.7-15.5c4-2.2,8.3-3.4,12.8-3.4h0.2c3.2,0,6.4,0.6,9.6,1.8c0.1,0,0.1,0,0.2,0.1
	c10.8,4.2,21.4,15.1,31.6,32.7C418.8,332.3,419.4,333.3,420,334.3z"/>
<path class="st17" d="M387.2,338.9L364.8,420h-2.5l-22.8-14.8l20.7-74.3c1.6-5.5,6.9-9.1,12.9-9.1c1.4,0,2.9,0.2,4.3,0.6
	C384.7,324.7,389.1,332,387.2,338.9z"/>
<path class="st12" d="M345.1,362.4l37.5,10.9c1.6,0.5,3.4-0.5,3.8-2.1l11.6-39.8c3.3-11.4-3.2-23.4-14.7-26.7l-2.1-0.6
	c-11.4-3.3-23.4,3.2-26.7,14.7L343,358.6C342.5,360.2,343.5,361.9,345.1,362.4z"/>
<path class="st10" d="M366.8,416.8c0,1.1-0.1,2.1-0.3,3.2h-51.4l-54-23.8c-5.6-2.5-8.2-8.9-5.9-14.6l0.8-1.9
	c2.2-5.5,8.3-8.3,13.9-6.5l85.9,27.8c1.9,0.7,3.6,1.8,5.1,3C364.6,407.1,366.8,411.9,366.8,416.8z"/>
<path class="st13" d="M386.2,227.1c1.8,6.1,2.5,12.2,2.3,18.2l12.5,1.4c1.9,0.3,1.7-1.4,1.9-3.3c1.2-14-2.2-31.2-20.3-33.7
	c-1.9-0.4-3.8-0.7-5.5-1C381.1,214,384.2,220.2,386.2,227.1z"/>
<circle class="st18" cx="340.6" cy="251.6" r="2.6"/>
<g>
	<g>
		<path class="st19" d="M256.4,293.9l12.8,7.4c0.8,0.5,0.8,1.7,0,2.1l-12.8,7.4c-0.8,0.5-1.9-0.1-1.9-1.1V295
			C254.6,294,255.6,293.4,256.4,293.9z"/>
	</g>
	<g>
		<path class="st19" d="M260.5,326.5c-13.3,0-24.1-10.8-24.1-24.1s10.8-24.1,24.1-24.1c13.3,0,24.1,10.8,24.1,24.1
			S273.8,326.5,260.5,326.5z M260.5,280.7c-11.9,0-21.7,9.7-21.7,21.7s9.7,21.7,21.7,21.7c11.9,0,21.7-9.7,21.7-21.7
			S272.4,280.7,260.5,280.7z"/>
	</g>
</g>
</svg>
