<?xml version="1.0" encoding="utf-8"?>
<!-- Generator: Adobe Illustrator 19.0.0, SVG Export Plug-In . SVG Version: 6.00 Build 0)  -->
<svg version="1.1" id="Layer_1" xmlns="http://www.w3.org/2000/svg" xmlns:xlink="http://www.w3.org/1999/xlink" x="0px" y="0px"
	 viewBox="-49 141 512 512" style="enable-background:new -49 141 512 512;" xml:space="preserve">
<style type="text/css">
	.st0{fill:#D4E1F4;}
	.st1{fill:#7F00FF;}
	.st2{fill:#1CE589;}
</style>
<path class="st0" d="M20.5,581.3c-8.2-5.6-15.9-15.3-21.2-26.8c-4.1-8.7-6.3-17.7-6.3-25.2v-80.8l74.3-36.4l-10-4.9L-27,448.5v80.8
	c0,7.5,2.2,16.5,6.3,25.2c5.3,11.4,13,21.2,21.2,26.8l56.9,38.7l10-6.8L20.5,581.3z"/>
<g>
	<path class="st1" d="M114.7,304.2h192.8c3.3,0,6-2.7,6-6s-2.7-6-6-6H114.7c-3.3,0-6,2.7-6,6S111.4,304.2,114.7,304.2z"/>
	<path class="st1" d="M114.7,365.7h192.8c3.3,0,6-2.7,6-6s-2.7-6-6-6H114.7c-3.3,0-6,2.7-6,6S111.4,365.7,114.7,365.7z"/>
	<path class="st1" d="M114.7,417h192.8c3.3,0,6-2.7,6-6s-2.7-6-6-6H114.7c-3.3,0-6,2.7-6,6S111.4,417,114.7,417z"/>
	<path class="st1" d="M453,500.1c0-17.5-14.2-31.6-31.6-31.6c-17.5,0-31.6,14.2-31.6,31.6c0,15.2,10.8,28.2,25.6,31.1v58.4h-44.4
		v-353c0-3.3-2.7-6-6-6h-55.5v-64c0-3.3-2.7-6-6-6H118.8c-3.3,0-6,2.7-6,6v64H57.3c-3.3,0-6,2.7-6,6v163.9h12V242.7h295.7v347h-59.8
		V561c0-3.3-2.7-6-6-6h-29.9v-91.1c0-3.3-2.7-6-6-6h-92.3c-3.3,0-6,2.7-6,6V555h-20.7v12h148.9v22.7h-183c-3.3,0-6,2.7-6,6
		s2.7,6,6,6H447c3.3,0,6-2.7,6-6s-2.7-6-6-6h-19.6v-58.4C442.2,528.3,453,515.3,453,500.1z M124.8,172.7h172.6v58H124.8L124.8,172.7
		z M171,469.9h34.1v84.7h12v-84.7h34.2V555h-80.3L171,469.9z M401.7,500.1c0-10.8,8.8-19.6,19.6-19.6c10.8,0,19.6,8.8,19.6,19.6
		c0,10.8-8.8,19.6-19.6,19.6c0,0,0,0,0,0C410.5,519.8,401.7,511,401.7,500.1L401.7,500.1z"/>
</g>
<path class="st2" d="M150.4,439.5L60,395.2c-1.7-0.8-3.6-0.8-5.3,0l-90.4,44.2c-2.1,1-3.4,3.1-3.4,5.4v84.6c0,9.4,2.6,19.8,7.4,30.3
	c6.2,13.3,15.4,24.9,25.3,31.6l60.2,41c2,1.4,4.7,1.4,6.8,0l60.2-41c18.4-12.5,32.7-39.7,32.7-61.9v-84.5
	C153.7,442.6,152.4,440.5,150.4,439.5L150.4,439.5z M141.7,529.4c0,18-12.6,41.8-27.5,52l-56.9,38.7L0.5,581.3
	c-8.2-5.6-15.9-15.3-21.2-26.8c-4.1-8.7-6.3-17.7-6.3-25.2v-80.8l84.4-41.3l84.4,41.4V529.4z"/>
<path class="st2" d="M23.3,507c-2.4-2.3-6.2-2.2-8.5,0.2c-2.3,2.4-2.2,6.1,0.1,8.4l27.3,26.6c2.3,2.3,6,2.3,8.4,0l49.2-48
	c2.4-2.3,2.4-6.1,0.1-8.5c-2.3-2.3-6.1-2.4-8.4-0.1l-45,43.9L23.3,507z"/>
</svg>
