<?xml version="1.0" encoding="utf-8"?>
<!-- Generator: Adobe Illustrator 19.0.0, SVG Export Plug-In . SVG Version: 6.00 Build 0)  -->
<svg version="1.1" id="Layer_1" xmlns="http://www.w3.org/2000/svg" xmlns:xlink="http://www.w3.org/1999/xlink" x="0px" y="0px"
	 viewBox="-49 141 512 512" style="enable-background:new -49 141 512 512;" xml:space="preserve">
<style type="text/css">
	.st0{fill:#D4E1F4;}
	.st1{fill:#7F00FF;}
	.st2{fill:#1AE5BE;}
</style>
<g>
	<path class="st0" d="M31,379.9c0-4.9,2.5-9.4,6.7-11.9L81,341.7v-24.9L19.7,354c-4.1,2.6-6.7,7.1-6.7,11.9v11.2l18,11V379.9z"/>
	<path class="st0" d="M33,560.5V403.4l-20-12.2v169.3c0,21.2,17.2,38.4,38.4,38.5h20C50.2,598.9,33,581.7,33,560.5z"/>
	<path class="st1" d="M413,560.5V365.9c0-9-4.7-17.4-12.4-22.2l-65.3-40.3c-0.2-0.1-0.4-0.2-0.6-0.3l-1.6-0.7v-17.7
		c0-1.5-0.5-2.9-1.5-4l-85.5-95.4c0-0.1-0.1-0.1-0.2-0.1c-1.1-1.3-2.8-2-4.5-2c-0.3,0-0.5,0-0.8,0.1l-0.2,0c-0.2,0-0.4,0-0.6,0h-121
		C97.9,183.1,81,200,81,220.8v81.9l-67.6,40.9C5.7,348.4,1,356.8,1,365.9v194.6c0,27.8,22.6,50.4,50.4,50.4h311.1
		C390.4,610.9,413,588.3,413,560.5z M394.3,353.9c4.1,2.6,6.7,7.1,6.7,11.9v11.2l-68,41.6V316.1L394.3,353.9z M247.3,204.8
		l57.5,64.1H273c-14.2,0-25.7-11.5-25.7-25.7V204.8z M118.7,195.1h116.6v48c0,20.8,16.9,37.7,37.7,37.7h42.5l5.5,6.1v139l-114,69.7
		L93,426V220.8C93,206.6,104.5,195.1,118.7,195.1z M19.7,354L81,316.8v101.8l-68-41.6v-11.2C13,361,15.5,356.5,19.7,354z M13,560.5
		V391.1l69.8,42.6c0.7,0.7,1.5,1.1,2.4,1.4l118.7,72.6c1.9,1.2,4.3,1.2,6.3,0l118.7-72.6c0.9-0.3,1.7-0.8,2.4-1.4l69.8-42.6v169.3
		c0,21.2-17.2,38.4-38.4,38.5H51.4C30.2,598.9,13,581.7,13,560.5z"/>
	<path class="st2" d="M192.2,385.5c2.1,2.5,5.8,2.8,8.3,0.8l35.9-29.2c2.6-2.1,3-5.9,0.9-8.4c-2.1-2.6-5.9-3-8.4-0.9l0,0l-31.3,25.5
		l-11.6-13.6c-2.2-2.5-5.9-2.8-8.5-0.7s-2.8,5.9-0.7,8.5L192.2,385.5z"/>
	<path class="st2" d="M207,442.3c41.6,0,75.3-33.7,75.3-75.3s-33.7-75.3-75.3-75.3s-75.3,33.7-75.3,75.3
		C131.7,408.6,165.4,442.3,207,442.3z M207,303.7c35,0,63.3,28.3,63.3,63.3S242,430.3,207,430.3S143.7,402,143.7,367l0,0
		C143.7,332.1,172.1,303.7,207,303.7L207,303.7z"/>
	<path class="st2" d="M316.8,367c0-3.3-2.7-6-6-6h-13.2c-3.3,0-6,2.7-6,6c0,3.3,2.7,6,6,6h13.2C314.1,373,316.8,370.3,316.8,367z"/>
	<path class="st2" d="M98.2,367c0,3.3,2.7,6,6,6h13.2c3.3,0,6-2.7,6-6c0-3.3-2.7-6-6-6h-13.2C100.9,361,98.2,363.7,98.2,367z"/>
	<path class="st2" d="M284,404.7l18.5,6.4c3.1,1.1,6.5-0.6,7.6-3.7c1.1-3.1-0.6-6.5-3.7-7.6l-18.5-6.4c-3.1-1.1-6.5,0.6-7.6,3.8
		C279.2,400.2,280.9,403.6,284,404.7z"/>
	<path class="st2" d="M127.1,340.6c3.1,1.1,6.6-0.5,7.7-3.7c1.1-3.1-0.5-6.6-3.7-7.7c0,0-0.1,0-0.1,0l-18.5-6.4
		c-3.1-1.1-6.5,0.6-7.6,3.7c-1.1,3.1,0.6,6.5,3.7,7.6L127.1,340.6z"/>
	<path class="st2" d="M286.9,343.8c0.6,0,1.2-0.1,1.8-0.3l18.7-5.8c3.2-1,4.9-4.3,3.9-7.5s-4.3-4.9-7.5-3.9l-18.7,5.8
		c-3.2,1-4.9,4.3-4,7.5C281.9,342.1,284.2,343.8,286.9,343.8z"/>
	<path class="st2" d="M109.5,408c0.6,0,1.2-0.1,1.8-0.3l18.7-5.8c3.2-1,4.9-4.3,3.9-7.5c-1-3.2-4.3-4.9-7.5-3.9l-18.7,5.8
		c-3.2,1-4.9,4.3-4,7.5C104.5,406.3,106.9,408,109.5,408z"/>
</g>
</svg>
