<?xml version="1.0" encoding="utf-8"?>
<!-- Generator: Adobe Illustrator 19.0.0, SVG Export Plug-In . SVG Version: 6.00 Build 0)  -->
<svg version="1.1" id="Layer_1" xmlns="http://www.w3.org/2000/svg" xmlns:xlink="http://www.w3.org/1999/xlink" x="0px" y="0px"
	 viewBox="-49 141 512 512" style="enable-background:new -49 141 512 512;" xml:space="preserve">
<style type="text/css">
	.st0{fill:#D4E1F4;}
	.st1{fill:#7F00FF;}
</style>
<g>
	<path class="st0" d="M131.3,274.9c0.1-49.3,37.1-90.7,86.2-96.2c-3.5-0.4-7.1-0.6-10.6-0.6c-53.4,0.1-96.8,43.4-96.8,96.8l0.1,32.6
		l1,1c2.5,2.5,6.4,3.2,9.6,1.7c1.7-0.8,3.1-2.2,3.9-3.9c1.5-3.2,3.8-6.1,6.6-8.3L131.3,274.9z"/>
	<path class="st0" d="M159.5,428.8c-15.8-17.5-24.6-40.2-24.8-63.7v-0.1c0-3.6-2.6-6.7-6.2-7.3c-7.8-1.4-13.4-8.1-13.4-16
		c0-1.3,0.2-2.6,0.5-3.9c1.1-4.4,4.9-7.6,9.4-7.9c2.9-0.3,5.4-2.2,6.4-5c11,3.6,23-1.5,28.1-12c1-2.1,2.6-3.4,3.3-3.4l0.4,0
		c13.9-0.8,37.7-2.1,63.1-14.3c-2.8-2.3-5.6-4.7-8.2-7.2c-30.1,18.9-59.9,20.5-76.1,21.4l-0.4,0c-0.7,0-2.3,1.3-3.3,3.4
		c-5.1,10.4-17.1,15.5-28.1,12c-0.9,2.8-3.4,4.7-6.4,5c-4.5,0.3-8.3,3.5-9.4,7.9c-0.3,1.3-0.5,2.6-0.5,3.9c0,7.9,5.6,14.6,13.4,16
		c3.6,0.6,6.2,3.7,6.2,7.3v0.1c0.2,23.6,9,46.2,24.8,63.7c16.2,17.9,37.4,27.8,59.7,27.8h18.1c0.5,0,1,0,1.6,0
		C195.9,456.1,175.3,446.3,159.5,428.8z"/>
	<path class="st0" d="M153.6,461c0-0.4-0.1-0.8-0.2-1.2c-3.1-1.7-6.1-3.6-8.9-5.6c-1.4,0.3-2.7,1.1-3.7,2.1l-8.2,8.7l1,18.6
		c1,0,2,0.1,3,0.1c3.7,0.1,7.5,0.3,11.3,0.3l6.8-2.3L153.6,461z"/>
	<path class="st0" d="M117.7,426.7c-5.9-8.7-10.5-18.2-13.8-28.2l-22.1,83.1c3.2,0.5,7.3,1.2,12.1,1.7l12.1-12.7L117.7,426.7z"/>
	<path class="st0" d="M105,521.4l25.6-8.7l-5.5-5.3l-41.3,14c-17.2,5.8-28.8,22-28.8,40.1v54.1h21.3v-54.1
		C76.2,543.4,87.8,527.3,105,521.4z"/>
	<polygon class="st0" points="172.7,504.1 199.5,530.7 199.5,530.7 163.2,494.5 140.9,502.1 150.7,511.6 	"/>
	<path class="st1" d="M47.5,630.5h318.9c4.1,0,7.4-3.3,7.4-7.4v-61.5c0-24.5-15.6-46.4-38.9-54.2l-56.3-19.1l9-11.1l20.7,18.7
		c1.6,1.4,3.8,2.1,5.9,1.9l24.4-3c4.1-0.5,7-4.2,6.5-8.3c0-0.2-0.1-0.4-0.1-0.6l-24.3-118c11.2-7.2,16.7-20.7,13.5-33.6
		c-1.9-8.2-7.8-14.8-15.7-17.7l0.1-40.9c0.2-61.7-49.6-111.9-111.3-112.1C145.6,163.2,95.4,213,95.2,274.7c0,0.1,0,0.1,0,0.2
		l0.1,35.7c0,0.1,0,0.1,0,0.2l0.1,5.8c-7.8,2.9-13.7,9.5-15.6,17.6c-3.5,14.1,3.4,28.8,16.4,35.3L65.4,485.4c-1.1,4,1.3,8,5.3,9.1
		c0,0,0.1,0,0.1,0c8.3,1.9,16.7,3.2,25.2,4c2.3,0.2,4.6-0.6,6.2-2.3l16.2-17.1l0.6,12.1c0,0.8,0.2,1.6,0.5,2.4L79,507.3
		c-23.3,7.9-38.9,29.7-38.9,54.2v61.5C40.1,627.2,43.4,630.5,47.5,630.5z M163.2,494.5l36.3,36.2V559l-58.5-56.9L163.2,494.5z
		 M197.9,471.5h18.1c8.6,0,17.1-1.2,25.3-3.6v15.1L207,517.2l-34.4-34.3v-15.1C180.8,470.2,189.4,471.5,197.9,471.5z M214.3,530.9
		l36.5-36.4l22.3,7.5l-58.7,57.1V530.9z M359,561.6v54.1H214.3v-35.7l74.6-72.5l41.3,14C347.4,527.3,359,543.4,359,561.6z
		 M315.8,482.5l-23.9-21.6c-3-2.8-7.8-2.5-10.5,0.5c-0.1,0.1-0.2,0.2-0.2,0.3l-17.5,21.4l-7.3-2.5v-18.6
		c11.6-5.7,21.9-13.6,30.5-23.3c11.3-12.5,19.6-27.4,24.3-43.6l17.7,85.8L315.8,482.5z M243.1,267.6c8.1,16,22,29.6,39.4,39
		c-19.4-4.7-37.3-14.1-52.1-27.5C234.8,275.6,239.1,271.7,243.1,267.6z M206.9,178.1c53.5,0,96.8,43.3,96.8,96.8c0,0.2,0,0.4,0,0.6
		l-0.1,24.2c-23.5-8.1-42.1-24.4-49.8-44.3c5.7-7.2,10.8-14.9,15.2-22.9c2-3.6,0.8-8.1-2.8-10.1c-3.6-2-8.1-0.8-10.1,2.8
		c-36.7,65-89.7,68-115.1,69.4l-0.4,0c-6.5,0.4-12.5,4.9-15.9,11.8c-0.8,1.7-2.2,3.1-3.9,3.9c-3.2,1.5-7.1,0.9-9.6-1.7l-1-1
		l-0.1-32.6C110.1,221.5,153.5,178.1,206.9,178.1z M94.3,337.7c1.1-4.4,4.9-7.6,9.4-7.9c2.9-0.3,5.4-2.2,6.4-5
		c11,3.6,23-1.5,28.1-12c1-2.1,2.6-3.4,3.3-3.4l0.4,0c16.2-0.9,46.1-2.6,76.1-21.4c23.3,22.1,53.8,35.1,85.9,36.7
		c0.9,2.9,3.4,4.9,6.4,5.2c4.5,0.3,8.3,3.5,9.4,7.9c2.1,8.7-3.2,17.5-11.9,19.6c-0.3,0.1-0.7,0.2-1,0.2c-3.6,0.6-6.2,3.7-6.2,7.3
		v0.1c-0.2,23.6-9,46.2-24.8,63.7c-16.2,17.9-37.4,27.8-59.7,27.8h-18.1c-22.3,0-43.5-9.9-59.7-27.8c-15.8-17.5-24.6-40.2-24.8-63.7
		v-0.1c0-3.6-2.6-6.7-6.2-7.3c-7.8-1.4-13.4-8.1-13.4-16C93.8,340.3,94,339,94.3,337.7z M136.5,483.7c-1,0-2-0.1-3-0.1l-1.2-22.5
		c-0.2-4.1-3.7-7.3-7.8-7c-1.9,0.1-3.7,0.9-5,2.3l-25.6,27c-4.9-0.6-9-1.2-12.1-1.7l22.1-83.1c4.8,14.9,12.8,28.6,23.3,40.3
		c8.6,9.6,19,17.5,30.6,23.3v18.6l-9.8,3.3C144.1,483.9,140.2,483.8,136.5,483.7z M55,561.6c0-18.2,11.6-34.3,28.8-40.1l41.3-14
		l74.4,72.3v35.9H55V561.6z"/>
</g>
</svg>
