<?xml version="1.0" encoding="utf-8"?>
<!-- Generator: Adobe Illustrator 19.0.0, SVG Export Plug-In . SVG Version: 6.00 Build 0)  -->
<svg version="1.1" id="Layer_1" xmlns="http://www.w3.org/2000/svg" xmlns:xlink="http://www.w3.org/1999/xlink" x="0px" y="0px"
	 viewBox="-49 141 512 512" style="enable-background:new -49 141 512 512;" xml:space="preserve">
<style type="text/css">
	.st0{fill:#D4E1F4;}
	.st1{fill:#7F00FF;}
	.st2{fill:#1CE589;}
</style>
<g>
	<path class="st0" d="M204.2,162c-52.6-5.5-99.7,32.7-105.2,85.3c-0.3,3.3-0.5,6.6-0.5,10v47.8c1.1,0,2.2-0.3,3.2-0.8
		c2.1-1.1,3.5-3.3,3.5-5.6l1.7-37.3c0.2-3.9,3.4-6.9,7.3-6.7c0,0,0,0,0,0c0.1,0,1.6,0.1,4.2,0.1C119.8,206.7,156.4,167.1,204.2,162z
		"/>
	<path class="st0" d="M126.9,373.1c0-0.2-0.1-0.4-0.2-0.7l-5.1-17.7c-0.5-2.9-2.8-5.2-5.7-5.7c-10.3-1.8-17.1-11.6-15.3-21.9
		c0.1-0.4,0.2-0.8,0.2-1.2c1-4.3,4.3-7.8,8.6-9c10.3,4.9,22.7,0.6,27.7-9.8c1.2-2.5,1.9-5.2,2-8l1.4-30.5c2.3,0,5.1,0,8.3,0
		c-0.3-0.3-0.7-0.6-1-0.9c-11.7,0.8-21.3,0.9-27.3,0.9l-1.4,30.5c-0.5,11.4-10.1,20.3-21.6,19.8c-2.8-0.1-5.6-0.8-8.1-2
		c-4.3,1.2-7.6,4.6-8.6,9c-2.5,10.1,3.7,20.3,13.8,22.8c0.4,0.1,0.8,0.2,1.2,0.2c2.9,0.5,5.2,2.8,5.7,5.7l5.1,17.7
		c0.1,0.2,0.1,0.4,0.2,0.7c8.5,45.8,51,77.1,97.2,71.8C165.4,440.5,134.1,411.4,126.9,373.1z"/>
	<path class="st0" d="M214.1,459.5c6.3,0,12.5-0.6,18.7-1.7v-5.9c-9.2,3.7-18.8,6.1-28.7,7.1C207.4,459.3,210.8,459.4,214.1,459.5z"
		/>
	<path class="st0" d="M175.4,478.1v-20.3c-6.8-1.3-13.5-3.2-20-5.9v26.2c15.2,7.2,32,10.1,48.7,8.2
		C194.2,485.2,184.5,482.4,175.4,478.1z"/>
	<path class="st0" d="M214.1,500.8c13,0,25.9-2.4,38-7.2l-11.6-3.8c-11.4,5.7-23.7,9.2-36.4,10.5
		C207.5,500.6,210.8,500.8,214.1,500.8z"/>
	<path class="st0" d="M63.5,546.9c0.1-0.6,0.3-1.2,0.4-1.8c4.1-14.9,15.7-26.8,30.9-31.7l61.2-19.8c-2.9-1.1-5.7-2.4-8.4-3.8
		l-72.8,23.6c-15.3,5-26.9,16.8-30.9,31.7c-0.2,0.6-0.3,1.2-0.4,1.8c-0.7,3.3-1.1,6.6-1,9.9v44.6h20v-44.6
		C62.4,553.5,62.8,550.2,63.5,546.9z"/>
	<path class="st0" d="M284.5,549.5c0.1-41.9,31.4-77.3,73-82.4c-45.5-5.6-86.9,26.7-92.5,72.2c-5.6,45.5,26.7,86.9,72.2,92.5
		c6.7,0.8,13.6,0.8,20.3,0C315.8,626.8,284.5,591.4,284.5,549.5z"/>
	<path class="st1" d="M35.5,615.5h244v-14h-237v-44.6c0-3.3,0.3-6.7,1-9.9c0.1-0.6,0.3-1.2,0.4-1.8c4.1-14.9,15.7-26.8,30.9-31.7
		l72.8-23.6c29.2,14.6,63.6,14.6,92.9,0l33.8,11l4.3-13.3l-31.8-10.3v-32.3c25.2-15,42.7-40.1,48.2-68.8l4.2-14.3
		c16.4-5.3,25.8-22.4,21.8-39.1c-2.1-8.8-8.5-15.8-17.1-18.7v-46.7c0-60.6-49.1-109.8-109.8-109.8S84.4,196.6,84.4,257.3v46.7
		c-8.5,2.9-15,10-17.1,18.7c-4.1,16.7,5.4,33.7,21.8,39.1l4.2,14.3c5.5,28.8,23.1,53.8,48.2,68.8v32.3l-70.8,23
		c-19.8,6.4-34.8,21.9-40.1,41.3c-0.2,0.8-0.4,1.5-0.6,2.3c-1,4.3-1.5,8.7-1.4,13.1v51.6C28.5,612.3,31.6,615.5,35.5,615.5z
		 M203,259.3c8.9,9.5,37,34.7,86.9,39.9v3.6c-19.3-0.5-76.5-4.7-121.9-36.9l0.6-0.1C180.2,264.3,191.7,262.1,203,259.3z M98.4,257.3
		c0-52.9,42.9-95.8,95.8-95.8s95.8,42.9,95.8,95.8V285c-36.7-4.2-60.2-20.4-71.3-30.2c18.7-6.1,34.7-14.2,47.7-24.2
		c3.1-2.4,3.6-6.7,1.3-9.8c-2.4-3.1-6.7-3.6-9.8-1.3l0,0c-26.6,20.4-64,28.8-90.7,32.4c-17.5,2.3-35.2,3.3-52.9,2.7
		c-3.9-0.2-7.2,2.8-7.4,6.6c0,0,0,0,0,0l-1.7,37.3c-0.1,2.4-1.4,4.5-3.5,5.6c-1,0.5-2.1,0.8-3.2,0.8L98.4,257.3z M106.9,373.1
		c0-0.2-0.1-0.4-0.2-0.7l-5.1-17.7c-0.5-2.9-2.8-5.2-5.7-5.7c-10.3-1.8-17.1-11.6-15.3-21.9c0.1-0.4,0.2-0.8,0.2-1.2
		c1-4.3,4.3-7.8,8.6-9c10.3,4.9,22.7,0.6,27.7-9.8c1.2-2.5,1.9-5.2,2-8l1.4-30.5c6,0.1,15.6-0.1,27.3-0.9
		c31.2,26.8,69.5,38.6,96.5,43.9c29.8,5.8,51.9,5,52.9,5c0.2,0,0.3,0,0.5,0c4.8,0.9,8.6,4.5,9.7,9.3c2.5,10.1-3.7,20.3-13.8,22.8
		c-0.4,0.1-0.8,0.2-1.2,0.2c-2.9,0.5-5.2,2.8-5.7,5.7l-5.1,17.7c-0.1,0.2-0.1,0.4-0.2,0.7c-9.1,48.2-55.5,79.9-103.6,70.8
		C141.8,437.2,113.7,409,106.9,373.1L106.9,373.1z M194.1,459.5c13.3,0,26.4-2.6,38.7-7.6v26.2c-24.5,11.7-52.9,11.7-77.4,0v-26.2
		C167.7,456.9,180.9,459.5,194.1,459.5L194.1,459.5z"/>
	<path class="st2" d="M347.5,646.5c53.6,0,97-43.4,97-97s-43.4-97-97-97s-97,43.4-97,97C250.5,603,293.9,646.4,347.5,646.5z
		 M347.5,466.5c45.8,0,83,37.2,83,83s-37.2,83-83,83s-83-37.2-83-83l0,0C264.5,503.7,301.7,466.6,347.5,466.5z"/>
	<path class="st2" d="M331.9,578.5c1.3,1.3,3.1,2.1,5,2.1h0c1.9,0,3.6-0.7,5-2l48.1-48.1c2.7-2.7,2.7-7.2,0-9.9
		c-2.7-2.7-7.2-2.7-9.9,0l-43.2,43.2l-22-22.2c-2.7-2.8-7.1-2.8-9.9-0.1c-2.8,2.7-2.8,7.1-0.1,9.9c0,0,0.1,0.1,0.1,0.1L331.9,578.5z
		"/>
</g>
</svg>
