<?xml version="1.0" encoding="utf-8"?>
<!-- Generator: Adobe Illustrator 19.0.0, SVG Export Plug-In . SVG Version: 6.00 Build 0)  -->
<svg version="1.1" id="Calque_1" xmlns="http://www.w3.org/2000/svg" xmlns:xlink="http://www.w3.org/1999/xlink" x="0px" y="0px"
	 viewBox="-41 164.9 512 512" style="enable-background:new -41 164.9 512 512;" xml:space="preserve">
<style type="text/css">
	.st0{fill:#7F00FF;}
	.st1{fill:#FFE955;}
	.st2{fill:#FFD112;}
	.st3{fill:#FF9F00;}
	.st4{fill:#FF3445;}
	.st5{fill:#BA0D5C;}
	.st6{fill:#FFFFFF;}
	.st7{fill:#EBF0F3;}
	.st8{fill:#C7D9FF;}
</style>
<g>
	<path class="st0" d="M471,420.9c0,141.4-114.6,256-256,256s-256-114.6-256-256s114.6-256,256-256S471,279.5,471,420.9z"/>
	<path class="st0" d="M471,420.9c0,26.1-3.9,51.2-11.1,74.9c-32,104.8-129.5,181.1-244.9,181.1c-104.6,0-194.5-62.7-234.2-152.6
		c-14-31.6-21.8-66.6-21.8-103.4c0-46.2,12.3-89.6,33.7-127c44.1,77.1,127.2,129,222.3,129s178.2-51.9,222.3-129
		C458.8,331.3,471,374.7,471,420.9z"/>
	<path class="st0" d="M-10.3,542.6c7.2,13.2,15.4,25.7,24.7,37.4c46.9,59,119.3,96.9,200.5,96.9S368.6,639,415.5,580
		c9.3-11.7,17.6-24.2,24.7-37.4H-10.3z"/>
</g>
<g>
	<path class="st1" d="M275.4,237.4l-10.8,18.5l-5.4,9.2l-43.8,74.8l-0.1,0.1l-0.4-0.7L171,265l-5.4-9.2l-10.9-18.4
		c-8.6-14.4,1.3-33.1,18-33.6c0.3,0,0.6,0,0.8,0c4.9,0,9.5,1.5,13.3,4c4.5,2.9,10.3,2.9,14.8,0c3.8-2.5,8.4-4,13.3-4h0
		c4.9,0,9.5,1.5,13.3,4c4.5,2.9,10.3,2.9,14.8,0c3.8-2.5,8.4-4,13.3-4c0.3,0,0.6,0,0.9,0C274,204.5,283.9,222.9,275.4,237.4z"/>
	<path class="st2" d="M275.4,237.4l-10.8,18.5l-5.4,9.2l-43.8,74.8l-0.1,0.1l-0.4-0.7V203.8c4.9,0,9.5,1.5,13.3,4
		c4.5,2.9,10.3,2.9,14.8,0c3.8-2.5,8.4-4,13.3-4c0.3,0,0.6,0,0.9,0C274,204.5,283.9,222.9,275.4,237.4z"/>
	<path class="st2" d="M264.6,255.8l-5.4,9.2l-43.8,74.8l-0.4-0.5L171,265l-5.4-9.2H264.6z"/>
	<path class="st3" d="M264.6,255.8l-5.4,9.2l-43.8,74.8l-0.1,0.1l-0.4-0.7v-83.4H264.6z"/>
	<g>
		<path class="st1" d="M154.7,604.4l10.8-18.5l5.4-9.2l43.8-74.8l0.1-0.1l0.4,0.7l44,74.3l5.4,9.2l10.9,18.4
			c8.6,14.4-1.3,33.1-18,33.6c-0.3,0-0.6,0-0.8,0c-4.9,0-9.5-1.5-13.3-4c-4.5-2.9-10.3-2.9-14.8,0c-3.8,2.5-8.4,4-13.3,4h0
			c-4.9,0-9.5-1.5-13.3-4c-4.5-2.9-10.3-2.9-14.8,0c-3.8,2.5-8.4,4-13.3,4c-0.3,0-0.6,0-0.9,0C156.1,637.3,146.2,618.8,154.7,604.4z
			"/>
		<path class="st2" d="M154.7,604.4l10.8-18.5l5.4-9.2l43.8-74.8l0.1-0.1l0.4,0.7v135.4c-4.9,0-9.5-1.5-13.3-4
			c-4.5-2.9-10.3-2.9-14.8,0c-3.8,2.5-8.4,4-13.3,4c-0.3,0-0.6,0-0.9,0C156.1,637.3,146.2,618.8,154.7,604.4z"/>
		<path class="st2" d="M165.5,585.9l5.4-9.2l43.8-74.8l0.4,0.5l44,74.3l5.4,9.2H165.5z"/>
		<path class="st3" d="M165.5,585.9l5.4-9.2l43.8-74.8l0.1-0.1l0.4,0.7v83.4H165.5z"/>
		<path class="st1" d="M257.4,637.9c-0.3,0-0.6,0-0.9,0c-4.9,0-9.5-1.5-13.3-4c-4.5-2.9-10.3-2.9-14.8,0c-3.8,2.5-8.4,4-13.3,4h0
			c-4.9,0-9.5-1.5-13.3-4c-4.5-2.9-10.3-2.9-14.8,0c-3.8,2.5-8.4,4-13.3,4c-0.3,0-0.6,0-0.8,0c-16.8-0.6-26.6-19.2-18-33.6
			l10.9-18.4l5.4-9.2l44-74.3l0.4-0.7l0.1,0.1l43.8,74.8l5.4,9.2l10.8,18.5C283.9,618.8,274.1,637.3,257.4,637.9z"/>
		<path class="st2" d="M257.4,637.9c-0.3,0-0.6,0-0.9,0c-4.9,0-9.5-1.5-13.3-4c-4.5-2.9-10.3-2.9-14.8,0c-3.8,2.5-8.4,4-13.3,4
			V502.5l0.4-0.7l0.1,0.1l43.8,74.8l5.4,9.2l10.8,18.5C283.9,618.8,274.1,637.3,257.4,637.9z"/>
		<path class="st2" d="M165.6,585.9l5.4-9.2l44-74.3l0.4-0.5l43.8,74.8l5.4,9.2H165.6z"/>
		<path class="st3" d="M215.1,585.9v-83.4l0.4-0.7l0.1,0.1l43.8,74.8l5.4,9.2H215.1z"/>
	</g>
	<g>
		<path class="st1" d="M277.5,609.1c-20,5-41,7.7-62.5,7.7s-42.5-2.7-62.5-7.7c0.5-1.7,1.2-3.3,2.2-4.9l10.9-18.4l5.4-9.2l44-74.3
			l0.4-0.7l0.1,0.1l43.8,74.8l5.4,9.2l10.8,18.5C276.3,605.9,277,607.5,277.5,609.1z"/>
		<path class="st2" d="M277.5,609.1c-20,5-41,7.7-62.5,7.7V502.4l0.4-0.7l0.1,0.1l43.8,74.8l5.4,9.2l10.8,18.5
			C276.3,605.9,277,607.5,277.5,609.1z"/>
		<path class="st2" d="M264.6,585.8h-99.1l5.4-9.2l44-74.3l0.4-0.5l43.8,74.8L264.6,585.8z"/>
		<path class="st3" d="M264.6,585.8H215v-83.4l0.4-0.7l0.1,0.1l43.8,74.8L264.6,585.8z"/>
	</g>
	<path class="st4" d="M252.7,301.5v122.3h-75.4V301.5c0-6.2,5-11.1,11.1-11.1h53.1C247.7,290.4,252.7,295.4,252.7,301.5z"/>
	<path class="st5" d="M252.7,301.5v122.3H215V290.4h26.6C247.7,290.4,252.7,295.4,252.7,301.5z"/>
	<path class="st4" d="M252.7,423.8v116.4c0,6.2-5,11.1-11.1,11.1h-53.1c-6.2,0-11.1-5-11.1-11.1V423.8H252.7z"/>
	<path class="st5" d="M252.7,423.8v116.4c0,6.2-5,11.1-11.1,11.1H215V423.8H252.7z"/>
	<path class="st6" d="M300.9,355v132.7c0,23.8-19.3,43.2-43.2,43.2h-85.4c-23.9,0-43.2-19.3-43.2-43.2V355
		c0-23.8,19.3-43.2,43.2-43.2h85.4C281.6,311.9,300.9,331.2,300.9,355z"/>
	<path class="st7" d="M300.9,355v132.7c0,23.8-19.3,43.2-43.2,43.2h-48.3c-23.9,0-43.2-19.3-43.2-43.2V355
		c0-23.8,19.3-43.2,43.2-43.2h48.3C281.6,311.9,300.9,331.2,300.9,355z"/>
	<path class="st8" d="M300.9,355v132.7c0,23.8-19.3,43.2-43.2,43.2H215v-219h42.7C281.6,311.9,300.9,331.2,300.9,355z"/>
	<path class="st1" d="M300.9,355v58.5l-77.1-52l-8.8-5.9l-40-27l-19.7-13.3c5.2-2.2,11-3.5,17-3.5h72l56.3,37.9
		c0.1,0.4,0.1,0.9,0.1,1.3c0,0.3,0.1,0.6,0.1,1c0,0.2,0,0.5,0.1,0.7c0,0.3,0,0.6,0,0.9C300.9,354.1,300.9,354.6,300.9,355z"/>
	<path class="st1" d="M269.9,529.1c-1,0.3-2,0.5-3,0.8c-0.5,0.1-1,0.2-1.5,0.3c-0.4,0.1-0.8,0.1-1.2,0.2c-0.2,0-0.4,0.1-0.6,0.1
		c-0.4,0.1-0.8,0.1-1.2,0.1c-0.4,0-0.7,0.1-1.1,0.1c-0.1,0-0.2,0-0.3,0c-0.3,0-0.6,0.1-0.9,0.1c-0.3,0-0.6,0-0.9,0c-0.5,0-1,0-1.5,0
		h-79.3l-47.8-32.3c-0.9-3.5-1.4-7.1-1.4-10.9v-53.5l36.9,24.8l49,33L269.9,529.1z"/>
	<path class="st1" d="M300.9,450v37.7c0,0.5,0,1,0,1.5c0,0.4,0,0.7,0,1.1c0,0.3,0,0.5-0.1,0.8c-0.1,1.4-0.3,2.7-0.5,4.1
		c-0.1,0.4-0.2,0.9-0.3,1.3c-0.1,0.5-0.2,1-0.3,1.5c-0.1,0.3-0.2,0.7-0.3,1c-0.4,1.5-0.9,2.9-1.4,4.4c-0.2,0.4-0.3,0.8-0.5,1.2v0
		c-0.2,0.4-0.4,0.9-0.6,1.3c-0.2,0.5-0.4,0.9-0.6,1.4c-0.2,0.4-0.4,0.8-0.6,1.1c-0.2,0.4-0.4,0.8-0.7,1.2h0l-80-53.9l-49-33
		l-36.4-24.5l-0.5-0.3V355c0-0.8,0-1.5,0.1-2.2c0-0.6,0.1-1.1,0.1-1.7c0-0.3,0-0.5,0.1-0.7c0.1-0.8,0.2-1.7,0.3-2.5
		c0.1-0.4,0.1-0.8,0.2-1.2c0.1-0.4,0.2-0.8,0.2-1.1c0.7-3,1.7-5.9,2.9-8.7l32.9,22.2l49,33L300.9,450z"/>
	<path class="st2" d="M215,492.1l54.9,37c-1,0.3-2,0.5-3,0.8c-0.5,0.1-1,0.2-1.5,0.3c-0.4,0.1-0.8,0.1-1.2,0.2
		c-0.2,0-0.4,0.1-0.6,0.1c-0.4,0.1-0.8,0.1-1.2,0.1c-0.4,0-0.7,0.1-1.1,0.1c-0.1,0-0.2,0-0.3,0c-0.3,0-0.6,0.1-0.9,0.1
		c-0.3,0-0.6,0-0.9,0c-0.5,0-1,0-1.5,0h-48.5c-23.9,0-43.2-19.3-43.2-43.2v-28.7L215,492.1z"/>
	<path class="st2" d="M300.9,355v58.5l-77.1-52l-8.8-5.9l-40-27c7.9-10.2,20.3-16.8,34.2-16.8h35.1l56.3,37.9
		c0.1,0.4,0.1,0.9,0.1,1.3c0,0.3,0.1,0.6,0.1,1c0,0.2,0,0.5,0.1,0.7c0,0.3,0,0.6,0,0.9C300.9,354.1,300.9,354.6,300.9,355z"/>
	<path class="st2" d="M215,392.1l85.9,57.9v37.7c0,0.5,0,1,0,1.5c0,0.4,0,0.7,0,1.1c0,0.3,0,0.5-0.1,0.8c-0.1,1.4-0.3,2.7-0.5,4.1
		c-0.1,0.4-0.2,0.9-0.3,1.3c-0.1,0.5-0.2,1-0.3,1.5c-0.1,0.3-0.2,0.7-0.3,1c-0.4,1.5-0.9,2.9-1.4,4.4c-0.2,0.4-0.3,0.8-0.5,1.2v0
		c-0.2,0.4-0.4,0.9-0.6,1.3c-0.2,0.5-0.4,0.9-0.6,1.4c-0.2,0.4-0.4,0.8-0.6,1.1c-0.2,0.4-0.4,0.8-0.7,1.2h0l-80-53.9l-49-33v-63.5
		L215,392.1z"/>
	<path class="st3" d="M215,492.1l54.9,37c-1,0.3-2,0.5-3,0.8c-0.5,0.1-1,0.2-1.5,0.3c-0.4,0.1-0.8,0.1-1.2,0.2
		c-0.2,0-0.4,0.1-0.6,0.1c-0.4,0.1-0.8,0.1-1.2,0.1c-0.4,0-0.7,0.1-1.1,0.1c-0.1,0-0.2,0-0.3,0c-0.3,0-0.6,0.1-0.9,0.1
		c-0.3,0-0.6,0-0.9,0c-0.5,0-1,0-1.5,0H215V492.1z"/>
	<path class="st3" d="M300.9,355v58.5l-77.1-52l-8.8-5.9v-43.8h29.3l56.3,37.9c0.1,0.4,0.1,0.9,0.1,1.3c0,0.3,0.1,0.6,0.1,1
		c0,0.2,0,0.5,0.1,0.7c0,0.3,0,0.6,0,0.9C300.9,354.1,300.9,354.6,300.9,355z"/>
	<path class="st3" d="M215,392.1l85.9,57.9v37.7c0,0.5,0,1,0,1.5c0,0.4,0,0.7,0,1.1c0,0.3,0,0.5-0.1,0.8c-0.1,1.4-0.3,2.7-0.5,4.1
		c-0.1,0.4-0.2,0.9-0.3,1.3c-0.1,0.5-0.2,1-0.3,1.5c-0.1,0.3-0.2,0.7-0.3,1c-0.4,1.5-0.9,2.9-1.4,4.4c-0.2,0.4-0.3,0.8-0.5,1.2v0
		c-0.2,0.4-0.4,0.9-0.6,1.3c-0.2,0.5-0.4,0.9-0.6,1.4c-0.2,0.4-0.4,0.8-0.6,1.1c-0.2,0.4-0.4,0.8-0.7,1.2h0l-80-53.9V392.1z"/>
</g>
</svg>
