<?xml version="1.0" encoding="utf-8"?>
<!-- Generator: Adobe Illustrator 19.0.0, SVG Export Plug-In . SVG Version: 6.00 Build 0)  -->
<svg version="1.1" id="Layer_1" xmlns="http://www.w3.org/2000/svg" xmlns:xlink="http://www.w3.org/1999/xlink" x="0px" y="0px"
	 viewBox="-149 272.9 297 297" style="enable-background:new -149 272.9 297 297;" xml:space="preserve">
<style type="text/css">
	.st0{fill:#7F00FF;}
	.st1{fill:#FFA800;}
	.st2{fill:#DD931D;}
	.st3{fill:#E67E22;}
	.st4{fill:#D35400;}
</style>
<g>
	<g>
		<g>
			<circle class="st0" cx="-0.5" cy="421.4" r="148.5"/>
		</g>
	</g>
	<g>
		<path class="st1" d="M82,338.9c0,0-47.6-5.1-99,0c-51.8,5.2-82.5,16.5-82.5,16.5L-83,503.9c0,0,41.5,8.8,99,0
			c38-5.8,82.5,0,82.5,0L82,338.9z"/>
	</g>
	<g>
		<path class="st2" d="M82,338.9c0,0-37.3-4-81.5-1.4v168.4c5-0.5,10.2-1.2,15.5-2c38-5.8,82.5,0,82.5,0L82,338.9z"/>
	</g>
	<g>
		<ellipse class="st3" cx="-66.5" cy="380.1" rx="16.5" ry="24.8"/>
	</g>
	<g>
		<ellipse class="st4" cx="21.5" cy="462.6" rx="16.5" ry="24.8"/>
	</g>
	<g>
		<circle class="st3" cx="-41.8" cy="479.1" r="8.3"/>
	</g>
	<g>
		<circle class="st4" cx="57.3" cy="363.6" r="5.5"/>
	</g>
	<g>
		<circle class="st3" cx="-12.8" cy="380.1" r="10"/>
	</g>
	<g>
		<circle class="st4" cx="42.5" cy="414.9" r="10"/>
	</g>
	<g>
		<circle class="st3" cx="-52.5" cy="444.4" r="12.5"/>
	</g>
	<g>
		
			<ellipse transform="matrix(-0.4264 0.9045 -0.9045 -0.4264 520.2473 605.3323)" class="st4" cx="68.2" cy="467.6" rx="8.5" ry="12.6"/>
	</g>
</g>
</svg>
