<?xml version="1.0" encoding="utf-8"?>
<!-- Generator: Adobe Illustrator 19.0.0, SVG Export Plug-In . SVG Version: 6.00 Build 0)  -->
<svg version="1.1" id="Layer_1" xmlns="http://www.w3.org/2000/svg" xmlns:xlink="http://www.w3.org/1999/xlink" x="0px" y="0px"
	 viewBox="-149 272.9 297 297" style="enable-background:new -149 272.9 297 297;" xml:space="preserve">
<style type="text/css">
	.st0{fill:#7F00FF;}
	.st1{fill:#F28F00;}
	.st2{fill:#F4B145;}
	.st3{fill:#FFA800;}
	.st4{fill:#F7B759;}
	.st5{fill:#79302A;}
	.st6{fill:#6D2623;}
	.st7{fill:#E28305;}
	.st8{fill:#F4B65B;}
	.st9{fill:#EFAC54;}
	.st10{fill:#C63C22;}
	.st11{fill:#AF2D1C;}
	.st12{fill:#F86E51;}
	.st13{fill:#E55A42;}
</style>
<g>
	<g>
		<g>
			<circle class="st0" cx="-0.5" cy="421.4" r="148.5"/>
		</g>
	</g>
	<g>
		<path class="st1" d="M-51.2,389.5l-10.3,2.6c-3.3,0.8-6.7-1.2-7.5-4.5l-13.8-54.9c-0.8-3.3,1.2-6.7,4.5-7.5l10.3-2.6
			c3.3-0.8,6.7,1.2,7.5,4.5l13.8,54.9C-45.9,385.3-47.9,388.7-51.2,389.5z"/>
	</g>
	<g>
		<path class="st1" d="M60.9,405.8l-10.4-2.1c-3.3-0.7-5.5-3.9-4.8-7.3l11.2-55.5c0.7-3.3,3.9-5.5,7.3-4.8l10.4,2.1
			c3.3,0.7,5.5,3.9,4.8,7.3L68.2,401C67.5,404.3,64.3,406.5,60.9,405.8z"/>
	</g>
	<g>
		<path class="st1" d="M32.8,366.9l-10.6-0.1c-3.4,0-6.2-2.8-6.2-6.2l0.3-56.6c0-3.4,2.8-6.2,6.2-6.2l10.6,0.1
			c3.4,0,6.2,2.8,6.1,6.2L39,360.8C39,364.2,36.2,366.9,32.8,366.9z"/>
	</g>
	<g>
		<path class="st2" d="M-37.6,388.4h-14.6c-3.4,0-6.2-2.8-6.2-6.2v-68.6c0-3.4,2.8-6.2,6.2-6.2h14.6c3.4,0,6.2,2.8,6.2,6.2v68.6
			C-31.5,385.6-34.2,388.4-37.6,388.4z"/>
	</g>
	<g>
		<path class="st3" d="M-6.7,386.3l-10.6,0.9c-3.4,0.3-6.4-2.2-6.7-5.6l-4.9-56.4c-0.3-3.4,2.2-6.4,5.6-6.7l10.6-0.9
			c3.4-0.3,6.4,2.2,6.7,5.6l4.9,56.4C-0.7,383-3.3,386-6.7,386.3z"/>
	</g>
	<g>
		<path class="st3" d="M26.9,391.2l-10.6,0.9c-3.4,0.3-6.4-2.2-6.7-5.6L4.6,330c-0.3-3.4,2.2-6.4,5.6-6.7l10.6-0.9
			c3.4-0.3,6.4,2.2,6.7,5.6l4.9,56.4C32.8,387.9,30.3,390.9,26.9,391.2z"/>
	</g>
	<g>
		<path class="st4" d="M42.1,388l-10.3-2.5c-3.3-0.8-5.4-4.1-4.6-7.4L40.2,323c0.8-3.3,4.1-5.4,7.4-4.6l10.3,2.5
			c3.3,0.8,5.4,4.1,4.6,7.4l-13.1,55.1C48.7,386.8,45.4,388.8,42.1,388z"/>
	</g>
	<g>
		<path class="st2" d="M-67.5,391.6l-10.3,2.6c-3.3,0.8-6.7-1.2-7.5-4.5l-13.8-54.9c-0.8-3.3,1.2-6.7,4.5-7.5l10.3-2.6
			c3.3-0.8,6.7,1.2,7.5,4.5l13.8,54.9C-62.2,387.4-64.2,390.8-67.5,391.6z"/>
	</g>
	<g>
		<path class="st5" d="M-66.5,536.9L-66.5,536.9l15.6-156.2c0.5-4.7-3.2-8.8-8-8.8h-30.9c-5,0-8.8,4.6-7.8,9.6L-66.5,536.9z"/>
	</g>
	<g>
		<path class="st6" d="M65.5,536.9L65.5,536.9L49.9,380.7c-0.5-4.7,3.2-8.8,8-8.8h30.9c5,0,8.8,4.6,7.8,9.6L65.5,536.9z"/>
	</g>
	<g>
		<path class="st1" d="M6.4,375.4l-10.6-0.1c-3.4,0-6.2-2.8-6.2-6.2l0.3-56.6c0-3.4,2.8-6.2,6.2-6.2l10.6,0.1c3.4,0,6.2,2.8,6.1,6.2
			l-0.3,56.6C12.6,372.6,9.8,375.4,6.4,375.4z"/>
	</g>
	<g>
		<path class="st7" d="M6.7,306.4l-7.1,0v69l6.7,0c3.4,0,6.2-2.7,6.2-6.2l0.3-56.6C12.9,309.2,10.2,306.4,6.7,306.4z"/>
	</g>
	<g>
		<path class="st8" d="M3.4,404.8l-10.6-1c-3.4-0.3-5.9-3.3-5.6-6.7l5.1-56.4c0.3-3.4,3.3-5.9,6.7-5.6l10.6,1
			c3.4,0.3,5.9,3.3,5.6,6.7l-5.1,56.4C9.8,402.6,6.8,405.1,3.4,404.8z"/>
	</g>
	<g>
		<path class="st9" d="M9.6,336.1l-9.9-0.9v69.3l3.8,0.3c3.4,0.3,6.4-2.2,6.7-5.6l5.1-56.4C15.5,339.4,13,336.4,9.6,336.1z"/>
	</g>
	<g>
		<rect x="-66.5" y="371.9" class="st10" width="132" height="165"/>
	</g>
	<g>
		<rect x="-0.3" y="371.9" class="st11" width="65.8" height="165"/>
	</g>
	<g>
		<circle class="st12" cx="-0.5" cy="454.4" r="22"/>
	</g>
	<g>
		<path class="st13" d="M21.5,454.4c0-12.1-9.8-21.9-21.8-22v44C11.7,476.3,21.5,466.5,21.5,454.4z"/>
	</g>
</g>
</svg>
