<?xml version="1.0" encoding="utf-8"?>
<!-- Generator: Adobe Illustrator 19.0.0, SVG Export Plug-In . SVG Version: 6.00 Build 0)  -->
<svg version="1.1" id="Layer_1" xmlns="http://www.w3.org/2000/svg" xmlns:xlink="http://www.w3.org/1999/xlink" x="0px" y="0px"
	 viewBox="-149 272.9 297 297" style="enable-background:new -149 272.9 297 297;" xml:space="preserve">
<style type="text/css">
	.st0{fill:#7F00FF;}
	.st1{fill:#C63C22;}
	.st2{fill:#32373B;}
	.st3{fill:#B72F1D;}
	.st4{fill:#292D30;}
	.st5{fill:#86C867;}
	.st6{fill:#78B259;}
</style>
<g>
	<g>
		<g>
			<circle class="st0" cx="-0.5" cy="421.4" r="148.5"/>
		</g>
	</g>
	<g>
		<path class="st1" d="M98.5,388.4c0,54.7-44.3,99-99,99s-99-44.3-99-99H98.5z"/>
	</g>
	<g>
		<path class="st2" d="M-35.8,407.4c0-2.5,2-8,4.5-8s4.5,5.5,4.5,8c0,2.5-2,4.5-4.5,4.5S-35.8,409.9-35.8,407.4z"/>
	</g>
	<g>
		<path class="st3" d="M98.5,388.4h-99v99C54.2,487.4,98.5,443.1,98.5,388.4z"/>
	</g>
	<g>
		<path class="st2" d="M-66.5,407.4c0-2.5,2-8,4.5-8s4.5,5.5,4.5,8c0,2.5-2,4.5-4.5,4.5S-66.5,409.9-66.5,407.4z"/>
	</g>
	<g>
		<path class="st4" d="M25.8,407.4c0-2.5,2-8,4.5-8s4.5,5.5,4.5,8c0,2.5-2,4.5-4.5,4.5S25.8,409.9,25.8,407.4z"/>
	</g>
	<g>
		<path class="st4" d="M56.5,407.4c0-2.5,2-8,4.5-8s4.5,5.5,4.5,8c0,2.5-2,4.5-4.5,4.5S56.5,409.9,56.5,407.4z"/>
	</g>
	<g>
		<path class="st2" d="M-52.3,434.6c0-2.5,2-8,4.5-8s4.5,5.5,4.5,8c0,2.5-2,4.5-4.5,4.5S-52.3,437.1-52.3,434.6z"/>
	</g>
	<g>
		<path class="st2" d="M-21.5,434.6c0-2.5,2-8,4.5-8s4.5,5.5,4.5,8c0,2.5-2,4.5-4.5,4.5S-21.5,437.1-21.5,434.6z"/>
	</g>
	<g>
		<path class="st4" d="M9.3,434.6c0-2.5,2-8,4.5-8s4.5,5.5,4.5,8c0,2.5-2,4.5-4.5,4.5S9.3,437.1,9.3,434.6z"/>
	</g>
	<g>
		<path class="st4" d="M40,434.6c0-2.5,2-8,4.5-8s4.5,5.5,4.5,8c0,2.5-2,4.5-4.5,4.5S40,437.1,40,434.6z"/>
	</g>
	<g>
		<path class="st2" d="M-5,407.4c0-2.5,2-8,4.5-8s4.5,5.5,4.5,8c0,2.5-2,4.5-4.5,4.5S-5,409.9-5,407.4z"/>
	</g>
	<g>
		<path class="st5" d="M-116,388.4c0,63.8,51.7,115.5,115.5,115.5S115,452.2,115,388.4H90.3c0,50.1-40.6,90.8-90.8,90.8
			s-90.8-40.6-90.8-90.8H-116z"/>
	</g>
	<g>
		<path class="st6" d="M115,388.4H90.3c0,50.1-40.6,90.8-90.8,90.8v24.8C63.3,503.9,115,452.2,115,388.4z"/>
	</g>
	<g>
		<path class="st4" d="M4,407.4c0-2.5-2-8-4.5-8v12.5C2,411.9,4,409.9,4,407.4z"/>
	</g>
</g>
</svg>
