<?xml version="1.0" encoding="utf-8"?>
<!-- Generator: Adobe Illustrator 19.0.0, SVG Export Plug-In . SVG Version: 6.00 Build 0)  -->
<svg version="1.1" id="Layer_1" xmlns="http://www.w3.org/2000/svg" xmlns:xlink="http://www.w3.org/1999/xlink" x="0px" y="0px"
	 viewBox="-41 164.9 512 512" style="enable-background:new -41 164.9 512 512;" xml:space="preserve">
<style type="text/css">
	.st0{fill:#7F00FF;}
	.st1{fill:#AF8F2C;}
	.st2{fill:#25EF84;}
	.st3{fill:#B73B32;}
	.st4{fill:#DF5A49;}
	.st5{fill:#F4E4B8;}
</style>
<g>
	<path id="bg_7_" class="st0" d="M471,420.9c0,141.4-114.6,256-256,256s-256-114.6-256-256s114.6-256,256-256
		C356.4,164.9,471,279.5,471,420.9z"/>
	<path class="st1" d="M343.8,583.6c4.6,7.1,2.6,16.7-4.5,21.3l0,0c-7.1,4.6-16.7,2.6-21.3-4.5l-97.3-149.6
		c-4.6-7.1-2.6-16.7,4.5-21.3l0,0c7.1-4.6,16.7-2.6,21.3,4.5L343.8,583.6z"/>
	<path class="st2" d="M347.2,444.1L208.8,248.9c-9.6-14.7-29.3-18.9-44-9.3l-57.4,37.3c18,9.4,30.5,30,30.5,53.9
		c0,28.6-17.9,52.5-41.6,58.2L190,546.4c9.6,14.7,29.3,18.9,44,9.3l103.9-67.6C352.6,478.5,356.8,458.9,347.2,444.1z"/>
	<path class="st3" d="M208.8,248.9c-9.6-14.7-29.3-18.9-44-9.3l-63.3,41.1c1.3,3.2,2.1,6.8,2.1,10.6c0,12.2-7.8,22.4-18.6,26
		c3.6,4.6,5.7,10.5,5.7,16.8c0,10-5.3,18.6-13.1,23.4l23.3,39.2L246.5,302L208.8,248.9z"/>
	<path class="st4" d="M246.7,376.4c2.5,3.8,1.4,8.8-2.4,11.3l0,0c-3.8,2.5-8.8,1.4-11.3-2.4l-38.5-59.2c-2.5-3.8-1.4-8.8,2.4-11.3
		l0,0c3.8-2.5,8.8-1.4,11.3,2.4L246.7,376.4z"/>
	<path class="st4" d="M242.8,346c2.5,3.8,1.4,8.8-2.4,11.3l0,0c-3.8,2.5-8.8,1.4-11.3-2.4l-38.5-59.2c-2.5-3.8-1.4-8.8,2.4-11.3l0,0
		c3.8-2.5,8.8-1.4,11.3,2.4L242.8,346z"/>
	<path class="st5" d="M195.8,528.5c-2.3,0-4.6-1.2-5.9-3.3l-70.6-118.7c-1.9-3.2-0.9-7.4,2.4-9.4c3.2-1.9,7.4-0.9,9.4,2.4
		l70.6,118.7c1.9,3.2,0.9,7.4-2.4,9.4C198.1,528.2,196.9,528.5,195.8,528.5z"/>
	<path class="st4" d="M208.8,248.9c-9.6-14.7-29.3-18.9-44-9.3l-50.5,32.9c5.5,6.8,8.8,15.4,8.8,24.8c0,13.4-6.7,25.2-16.9,32.3
		c0.5,2.5,0.8,5.1,0.8,7.8c0,15-8.4,28.1-20.8,34.7l14.7,24.8l145.6-94.7L208.8,248.9z"/>
</g>
</svg>
