<?xml version="1.0" encoding="utf-8"?>
<!-- Generator: Adobe Illustrator 19.0.0, SVG Export Plug-In . SVG Version: 6.00 Build 0)  -->
<svg version="1.1" id="Calque_1" xmlns="http://www.w3.org/2000/svg" xmlns:xlink="http://www.w3.org/1999/xlink" x="0px" y="0px"
	 viewBox="-41 164.9 512 512" style="enable-background:new -41 164.9 512 512;" xml:space="preserve">
<style type="text/css">
	.st0{fill:#7F00FF;}
	.st1{fill:#EAEBEC;}
	.st2{fill:#72A2F7;}
	.st3{fill:#FFFFFF;}
</style>
<g id="Guides_For_Artboard">
</g>
<g id="Artwork">
</g>
<g id="Layer_3">
	<g>
		<circle class="st0" cx="215" cy="420.9" r="256"/>
		<g>
			<path class="st1" d="M57.6,321h-2.2c-0.5,0-0.9,0.4-0.9,1v54.6c0.1,0.7-0.5,1.1-1.2,1.1c-0.7,0-1.5-0.3-1.5-1.1
				c0-2.6-1-52.5-1-54.6c0-0.5-0.4-1-0.9-1h-3.2c-0.5,0-0.9,0.4-0.9,1c0,0.5-0.5,51.3-0.5,54.6c0,0.4-0.1,0.7-0.3,0.9
				c-0.2,0.2-0.4,0.2-0.7,0.2c-0.1,0-0.2,0-0.3,0c-0.1,0-0.2,0-0.3,0c-0.3,0-0.6-0.1-0.7-0.2c-0.2-0.2-0.3-0.5-0.3-0.9
				c0-3.3-0.5-54.1-0.5-54.6c0-0.5-0.4-1-0.9-1h-3.2c-0.5,0-0.8,0.4-0.9,1c0,2.1-1,52-1,54.6c0,0.8-0.4,1.1-1.2,1.1
				c-0.7,0-1.4-0.2-1.4-1.1V322c0-0.5-0.4-1-0.9-1H31c-0.4,0-0.8,0.3-0.8,0.8c-0.4,2.3-10.2,56.5-5,65.5c3.4,5.8,7.9,9.6,13.5,11.2
				l-5.1,113.6c0,0,0,0.1,0,0.1c0,0,0,0.1,0,0.1c0,5.6,4,10.2,8.9,10.2h1.9h1.9c4.9,0,8.9-4.6,8.9-10.2c0,0,0-0.1,0-0.1
				c0,0,0-0.1,0-0.1L50,398.4c5.5-1.6,10.1-5.4,13.5-11.2c5.2-9-4.6-63.2-5-65.5C58.4,321.3,58,321,57.6,321z"/>
			<path class="st1" d="M347.8,417.5L347.8,417.5c0,0-0.3-96.3-0.3-104.6c-0.1-5.7-6.3,0.2-8.9,5.7c-2.6,5.4-13.5,27.2-13.5,52.4
				c0,9.5,0,24.7,0,30.7c0,10.8,11.4,5.9,11.4,21.3l-5.2,101h0c0,0.1,0,0.1,0,0.2c0,4.9,3.9,8.8,8.8,8.8c0.2,0,3.1,0,3.3,0
				c4.8,0,8.8-3.9,8.8-8.8c0-0.1,0-0.1,0-0.2h0L347.8,417.5z"/>
			<path class="st1" d="M410.7,358.8c0-18.7-14.5-34.8-28.5-34.9c0,0,0,0,0,0h0c-14,0.1-28.5,16.2-28.5,34.9
				c0,17.1,7.4,30.3,17.5,34.8c1.1,0.5,5.8,2.1,5.8,2.1l-5.9,114.5h0c0,0.1,0,0.1,0,0.2c0,5.1,4.1,9.2,9.3,9.2c0.3,0,3.3,0,3.5,0
				c5.1,0,9.3-4.1,9.3-9.2c0-0.1,0-0.1,0-0.2h0l-5.9-114.4c0,0,5.8-2.1,5.9-2.2C403.3,389.1,410.7,376,410.7,358.8z"/>
			<path class="st2" d="M192.2,297.2c-68.8,0-124.6,55.8-124.6,124.6s55.8,124.6,124.6,124.6s124.6-55.8,124.6-124.6
				S261,297.2,192.2,297.2z M192.2,510.8c-49.1,0-89-39.8-89-89s39.8-89,89-89s89,39.8,89,89S241.4,510.8,192.2,510.8z"/>
			<circle class="st3" cx="192.2" cy="421.8" r="89"/>
		</g>
	</g>
</g>
</svg>
