<?xml version="1.0" encoding="utf-8"?>
<!-- Generator: Adobe Illustrator 19.0.0, SVG Export Plug-In . SVG Version: 6.00 Build 0)  -->
<svg version="1.1" id="Layer_1" xmlns="http://www.w3.org/2000/svg" xmlns:xlink="http://www.w3.org/1999/xlink" x="0px" y="0px"
	 viewBox="-149 272.9 297 297" style="enable-background:new -149 272.9 297 297;" xml:space="preserve">
<style type="text/css">
	.st0{fill:#7F00FF;}
	.st1{fill:#EA4C67;}
	.st2{fill:#CC805A;}
	.st3{fill:#C94763;}
	.st4{fill:#7C4529;}
	.st5{fill:#E8A89E;}
</style>
<g>
	<g>
		<g>
			<circle class="st0" cx="-0.5" cy="421.4" r="148.5"/>
		</g>
	</g>
	<g>
		<path class="st1" d="M65.5,338.9c-26.8-28.5-79.3-23.5-84.4,17.7c-5.7,46.1-27.8,58.8-62.3,72.5c-36.9,14.6-26.9,81.9,46.5,77.8
			C61.2,501.4,146,424.4,65.5,338.9z"/>
		<path class="st2" d="M-41.1,514.5c-42.4,0-62.8-23.2-67.3-43.9c-4.6-21,5.5-40.9,24.5-48.5c32.3-12.8,52.3-23.7,57.6-66.4
			c2.4-19.2,14.1-33.6,32.1-39.5C28,308.9,54.2,316,71,333.8c40.3,42.8,37.8,79.5,28.5,102.7c-8.6,21.5-26.4,40.3-51.5,54.5
			c-23.7,13.4-52.9,21.7-82.2,23.4C-36.6,514.4-38.9,514.5-41.1,514.5z M23.7,328.4c-4.5,0-9,0.7-13.3,2.1
			c-12.5,4.1-20.2,13.7-21.9,27c-2.9,23.4-10,40.2-22.5,52.8c-11,11.1-25.2,18.1-44.5,25.8c-14.2,5.6-17.9,19.8-15.4,31.3
			c3.5,16.1,21.1,34.1,58.8,32c56.2-3.2,105.8-31.3,120.6-68.5c10.9-27.5,2.1-57.5-25.5-86.8C50.6,334,36.9,328.4,23.7,328.4z"/>
	</g>
	<g>
		<path class="st3" d="M65.5,338.9c-18.1-19.2-47.8-23.2-66.8-11.2V502C78.9,483,136.5,414.3,65.5,338.9z"/>
		<path class="st4" d="M71,333.7C54.2,316,28,308.9,5.8,316.2c-2.5,0.8-4.9,1.8-7.1,2.9v18c3.2-2.9,7.2-5.2,11.8-6.7
			c4.2-1.4,8.7-2.1,13.3-2.1c13.2,0,26.9,5.7,36.3,15.6c27.6,29.3,36.4,59.4,25.5,86.8c-11.8,29.5-45.4,53.3-86.9,63.4v15.4
			c17.7-4,34.6-10.4,49.3-18.7c25.1-14.2,42.9-33,51.5-54.5C108.7,413.2,111.3,376.6,71,333.7z"/>
	</g>
	<g>
		<circle class="st5" cx="30.3" cy="379.9" r="19"/>
	</g>
</g>
</svg>
