<?xml version="1.0" encoding="utf-8"?>
<!-- Generator: Adobe Illustrator 19.0.0, SVG Export Plug-In . SVG Version: 6.00 Build 0)  -->
<svg version="1.1" id="Calque_1" xmlns="http://www.w3.org/2000/svg" xmlns:xlink="http://www.w3.org/1999/xlink" x="0px" y="0px"
	 viewBox="-41 164.9 512 512" style="enable-background:new -41 164.9 512 512;" xml:space="preserve">
<style type="text/css">
	.st0{fill:#7F00FF;}
	.st1{fill:#EA4C67;}
	.st2{fill:#FFC34A;}
	.st3{fill:#F6E0C2;}
	.st4{fill:#735542;}
</style>
<g id="Guides_For_Artboard">
</g>
<g id="Artwork">
</g>
<g id="Layer_3">
	<g>
		<circle class="st0" cx="215" cy="420.9" r="256"/>
		<g>
			<path class="st1" d="M197.6,430.3c0-31.2-25.3-56.5-56.5-56.5c-21.4,0-40,11.9-49.6,29.4l53.3,83.5
				C174.3,484.8,197.6,460.3,197.6,430.3z"/>
			<path class="st2" d="M213.1,318.4c-84.4,0-144.5,43.8-145.1,44.2c-0.5,0.4-1.1,0.8-1.7,1.1l25.2,39.5
				c9.6-17.5,28.2-29.4,49.6-29.4c31.2,0,56.5,25.3,56.5,56.5c0,30-23.3,54.5-52.8,56.4l47.9,75.1c4.5,6.7,11.9,10.7,19.9,10.9
				c0.2,0,0.3,0,0.5,0c7.8,0,15.2-3.7,19.9-10.1l63.9-92.2l51.8-74.6l20.4-29.4c-2.3-0.7-4.5-1.8-6.5-3.3
				C361.9,362.5,297.9,318.4,213.1,318.4z M230.8,513.4c-13.6,0-24.5-11-24.5-24.5c0-13.6,11-24.5,24.5-24.5
				c13.6,0,24.5,11,24.5,24.5C255.3,502.4,244.3,513.4,230.8,513.4z M265.9,424.1c-21.4,0-38.7-17.3-38.7-38.7
				c0-21.4,17.3-38.7,38.7-38.7c21.4,0,38.7,17.3,38.7,38.7C304.6,406.7,287.2,424.1,265.9,424.1z"/>
			<path class="st3" d="M164.4,273.1c12.3-2,25.3-3.4,38.9-3.8C189.5,269.8,176.5,271.1,164.4,273.1z"/>
			<circle class="st1" cx="265.9" cy="385.4" r="38.7"/>
			<circle class="st1" cx="230.8" cy="488.8" r="24.5"/>
			<path class="st4" d="M390.9,322.8c-3-2.2-74.8-52.1-173.5-53.6c-1.5,0-2.9,0-4.4,0c-1.5,0-3.1,0-4.6,0c-0.3,0-0.5,0-0.8,0
				c-1.3,0-2.6,0.1-3.9,0.1c-0.2,0-0.3,0-0.5,0c-13.6,0.4-26.6,1.8-38.9,3.8c-74.6,12.2-123.5,48.2-125.9,50
				c-10.9,8.2-13.1,23.6-5,34.5c4.8,6.5,12.2,9.9,19.7,9.9c4.5,0,9-1.2,13-3.8c0.6-0.4,1.1-0.7,1.7-1.1
				c0.6-0.4,60.7-44.2,145.1-44.2c84.8,0,148.9,44.2,149.5,44.6c2.1,1.5,4.3,2.5,6.5,3.3c10,3.3,21.4-0.1,27.8-9.2
				C404.7,346,402,330.6,390.9,322.8z"/>
		</g>
	</g>
</g>
</svg>
