<?xml version="1.0" encoding="utf-8"?>
<!-- Generator: Adobe Illustrator 19.0.0, SVG Export Plug-In . SVG Version: 6.00 Build 0)  -->
<svg version="1.1" id="Calque_1" xmlns="http://www.w3.org/2000/svg" xmlns:xlink="http://www.w3.org/1999/xlink" x="0px" y="0px"
	 viewBox="-41 164.9 512 512" style="enable-background:new -41 164.9 512 512;" xml:space="preserve">
<style type="text/css">
	.st0{fill:#7F00FF;}
	.st1{fill:#E9E9EB;}
	.st2{fill:#F8F8F8;}
</style>
<g id="Guides_For_Artboard">
</g>
<g id="Artwork">
</g>
<g id="Layer_3">
	<g>
		<circle class="st0" cx="215" cy="420.9" r="256"/>
		<g>
			<path class="st1" d="M213.7,503.1c-33,0-63.4-6.7-88-18v92.2c0,1,0.4,2,1.2,2.7c0.7,0.6,1.5,0.9,2.4,0.9c0.1,0,0.3,0,0.4,0
				c0,0,170.2,0,170.5,0c1,0.1,2.1-0.2,2.9-0.9c0.8-0.7,1.2-1.7,1.2-2.7v-92.5c-1,0.2-1.9,0.3-2.9,0.4
				C276.9,496.4,246.5,503.1,213.7,503.1z"/>
			<path class="st2" d="M303.9,330.3c-9.9-39.9-45.9-69.5-88.9-69.5c-43.2,0-79.4,29.9-89,70.2c-0.4,1.7-0.8,5.3-5.6,6.2
				c-33.3,7.8-58,37.7-58,73.3c0,36.4,25.9,66.8,60.2,73.8c0.7,0.1,2.8,0.7,3.1,0.8c24.6,11.3,55,18,88,18
				c31.8,0,61.2-6.2,85.3-16.7c0.8-0.4,4.3-1.3,5.3-1.5c35.9-5.8,63.3-36.8,63.3-74.4c0-35.5-24.6-65.3-57.7-73.2
				C307.2,336.3,305.4,336.2,303.9,330.3z"/>
		</g>
	</g>
</g>
</svg>
