<?xml version="1.0" encoding="utf-8"?>
<!-- Generator: Adobe Illustrator 19.0.0, SVG Export Plug-In . SVG Version: 6.00 Build 0)  -->
<svg version="1.1" id="Layer_1" xmlns="http://www.w3.org/2000/svg" xmlns:xlink="http://www.w3.org/1999/xlink" x="0px" y="0px"
	 viewBox="-41 164.9 512 512" style="enable-background:new -41 164.9 512 512;" xml:space="preserve">
<style type="text/css">
	.st0{fill:#7F00FF;}
	.st1{fill:#E0E0E0;}
	.st2{fill:#FFFFFF;}
	.st3{fill:#F28C40;}
	.st4{fill:#F2730A;}
	.st5{fill:#F2D7B3;}
	.st6{fill:#EFAF84;}
	.st7{fill:#BD3E25;}
	.st8{fill:#4B680C;}
	.st9{fill:#DBB538;}
</style>
<circle id="bg_2_" class="st0" cx="215" cy="420.9" r="256"/>
<path class="st1" d="M246.9,378c-1.7,0.6-59.1,7.4-63.1,6c-4-1.4-85.3-10.2-86.1-10.2c-0.9,0-39.8,4.3-39.8,4.3s-0.1-0.3-0.1-0.8
	c0,0.8-0.1,1.5-0.1,2.3c0,41.5,50.2,75.1,112.2,75.1c62,0,112.2-33.6,112.2-75.1c0-5.5-0.9-10.9-2.6-16.1
	C265.8,369.5,248,377.6,246.9,378z"/>
<rect x="143" y="437.5" class="st1" width="26.9" height="17"/>
<ellipse class="st2" cx="144.4" cy="407.1" rx="81.7" ry="47.5"/>
<path class="st3" d="M293.9,345H282v6.4c-33.3,0-161.9,0-176,0c-5.2,0-11.5,1.8-15.5,4.5c-7.7,5.3-20.6,14.1-29.7,20.3H50.1l0,27.6
	c0.2,1.6,2.8,2.6,7.6,2.6c24.3,0,165.5,0,180.3,0c5.2,0,11.5-1.8,15.5-4.5c10-6.9,28.7-19.7,36.4-25c2.7-1.8,4-3.4,4-4.6L293.9,345z
	"/>
<path class="st4" d="M286.3,342.2c-24.3,0-165.5,0-180.3,0c-5.2,0-11.5,1.8-15.5,4.5c-10,6.9-28.7,19.7-36.4,25
	c-6.5,4.5-4.9,7.4,3.6,7.4c24.3,0,165.5,0,180.3,0c5.2,0,11.5-1.8,15.5-4.5c10-6.9,28.7-19.7,36.4-25
	C296.4,345.2,294.7,342.2,286.3,342.2z"/>
<path class="st5" d="M78.3,379.1l53.9-36.9c-5.7,0-10.7,0-14.9,0l-53.9,36.9C67.4,379.1,72.4,379.1,78.3,379.1z"/>
<path class="st5" d="M129.4,379.1l53.9-36.9c-5,0-10,0-14.9,0l-53.9,36.9C119.4,379.1,124.3,379.1,129.4,379.1z"/>
<path class="st5" d="M180.5,379.1l53.9-36.9c-4.8,0-9.8,0-14.9,0l-53.9,36.9C170.6,379.1,175.6,379.1,180.5,379.1z"/>
<path class="st5" d="M231.5,379.1l53.9-36.9c-3.3,0-8.4,0-14.9,0l-53.9,36.9C222.7,379.1,227.7,379.1,231.5,379.1z"/>
<rect x="63.4" y="379.2" class="st6" width="15.1" height="27.4"/>
<rect x="114.6" y="379.2" class="st6" width="15.1" height="27.4"/>
<rect x="165.8" y="379.2" class="st6" width="15.1" height="27.4"/>
<rect x="217" y="379.2" class="st6" width="15.1" height="27.4"/>
<path class="st1" d="M353.2,450.5c-1.7,0.6-59.1,7.4-63.1,6c-4-1.4-85.3-10.2-86.1-10.2s-39.8,4.3-39.8,4.3s-0.1-0.3-0.1-0.8
	c0,0.8-0.1,1.5-0.1,2.3c0,41.5,50.2,75.1,112.2,75.1c62,0,112.2-33.6,112.2-75.1c0-5.5-0.9-10.9-2.6-16.1
	C372,442,354.2,450.1,353.2,450.5z"/>
<rect x="249.2" y="510" class="st1" width="26.9" height="17"/>
<path class="st2" d="M168.9,479.6c0-26.2,36.6-47.5,81.7-47.5c45.1,0,81.7,21.3,81.7,47.5c0,26.2-36.6,47.5-81.7,47.5
	C205.5,527.1,168.9,505.8,168.9,479.6z"/>
<path class="st3" d="M400.1,417.5h-11.9v6.4c-33.3,0-161.9,0-176,0c-5.2,0-11.5,1.8-15.5,4.5c-7.7,5.3-20.6,14.1-29.7,20.3h-10.8
	l0,27.6c0.2,1.6,2.8,2.6,7.6,2.6c24.3,0,165.5,0,180.3,0c5.2,0,11.5-1.8,15.5-4.5c10-6.9,28.7-19.7,36.4-25c2.7-1.8,4-3.4,4-4.6
	L400.1,417.5z"/>
<path class="st4" d="M392.5,414.7c-24.3,0-165.5,0-180.3,0c-5.2,0-11.5,1.8-15.5,4.5c-10,6.9-28.7,19.7-36.4,25
	c-6.5,4.5-4.9,7.4,3.6,7.4c24.3,0,165.5,0,180.3,0c5.2,0,11.5-1.8,15.5-4.5c10-6.9,28.7-19.7,36.4-25
	C402.6,417.7,401,414.7,392.5,414.7z"/>
<path class="st5" d="M184.6,451.6l53.9-36.9c-5.7,0-10.7,0-14.9,0l-53.9,36.9C173.6,451.6,178.7,451.6,184.6,451.6z"/>
<path class="st5" d="M235.6,451.6l53.9-36.9c-5,0-10,0-14.9,0l-53.9,36.9C225.6,451.6,230.6,451.6,235.6,451.6z"/>
<path class="st5" d="M286.7,451.6l53.9-36.9c-4.8,0-9.8,0-14.9,0l-53.9,36.9C276.9,451.6,281.9,451.6,286.7,451.6z"/>
<path class="st5" d="M337.8,451.6l53.9-36.9c-3.3,0-8.4,0-14.9,0l-53.9,36.9C328.9,451.6,334,451.6,337.8,451.6z"/>
<rect x="169.7" y="451.7" class="st6" width="15.1" height="27.4"/>
<rect x="220.9" y="451.7" class="st6" width="15.1" height="27.4"/>
<rect x="272" y="451.7" class="st6" width="15.1" height="27.4"/>
<rect x="323.2" y="451.7" class="st6" width="15.1" height="27.4"/>
<path d="M144.7,495c0,11.4-25.8,20.6-57.7,20.6c-31.9,0-57.7-9.2-57.7-20.6c0-11.4,25.8-47.1,57.7-47.1
	C118.8,447.9,144.7,483.6,144.7,495z"/>
<rect x="29.2" y="419.8" width="115.5" height="75.1"/>
<path d="M144.7,419.8c0,11.4-25.8,20.6-57.7,20.6c-31.9,0-57.7-9.2-57.7-20.6c0-11.4,25.8-20.6,57.7-20.6
	C118.8,399.2,144.7,408.4,144.7,419.8z"/>
<path class="st2" d="M142.4,419.8c0,11-24.8,19.8-55.5,19.8c-30.6,0-55.5-8.9-55.5-19.8c0-11,24.8-19.8,55.5-19.8
	C117.6,400,142.4,408.9,142.4,419.8z"/>
<polygon class="st7" points="84.2,423.6 58.1,423.6 65,411.2 91.1,411.2 "/>
<polygon class="st8" points="106.9,429.5 83.1,429.5 89.4,418.1 113.1,418.1 "/>
<polygon class="st9" points="80.2,431.9 64.3,431.9 68.5,424.3 84.3,424.3 "/>
</svg>
