<?xml version="1.0" encoding="utf-8"?>
<!-- Generator: Adobe Illustrator 19.0.0, SVG Export Plug-In . SVG Version: 6.00 Build 0)  -->
<svg version="1.1" id="Calque_1" xmlns="http://www.w3.org/2000/svg" xmlns:xlink="http://www.w3.org/1999/xlink" x="0px" y="0px"
	 viewBox="-155 247 300 300" style="enable-background:new -155 247 300 300;" xml:space="preserve">
<style type="text/css">
	.st0{fill:#571EE2;}
	.st1{fill:none;}
	.st2{fill:#421CB7;}
	.st3{fill:#FAFAFA;}
</style>
<rect x="-155" y="247.5" class="st0" width="300" height="299.6"/>
<rect x="-155" y="247.5" class="st1" width="300" height="299.6"/>
<rect x="-155" y="247.5" class="st1" width="300" height="299.6"/>
<g>
	<path class="st2" d="M83.1,471v43.7H-93.1V279.3H83.1v43H-49v54.1H78.4v41.4H-49V471H83.1z"/>
</g>
<path class="st3" d="M70.8,415.8c0-7.7-3.8-14.5-9.5-18.8v-9.5c0-31.4-25.5-56.9-56.9-56.9h-19c-31.4,0-56.9,25.5-56.9,56.9v9.5
	c-5.7,4.3-9.5,11.1-9.5,18.8c0,7.8,3.8,14.6,9.6,19h-0.1v4.9c0,13.1,10.6,23.7,23.7,23.7h85.3c13.1,0,23.7-10.6,23.7-23.7v-4.9h-0.1
	C67,430.5,70.8,423.6,70.8,415.8z M-57.1,406.4H47.1c5.2,0,9.5,4.3,9.5,9.5s-4.3,9.5-9.5,9.5H-57.1c-5.2,0-9.5-4.3-9.5-9.5
	C-66.6,410.6-62.3,406.4-57.1,406.4L-57.1,406.4z M37.6,378c2.6,0,4.7,2.1,4.7,4.7c0,2.6-2.1,4.7-4.7,4.7c-2.6,0-4.7-2.1-4.7-4.7
	C32.9,380.2,35,378,37.6,378z M9.2,349.6c2.6,0,4.7,2.1,4.7,4.7c0,2.6-2.1,4.7-4.7,4.7s-4.7-2.1-4.7-4.7
	C4.5,351.7,6.6,349.6,9.2,349.6z M-19.2,378c2.6,0,4.7,2.1,4.7,4.7c0,2.6-2.1,4.7-4.7,4.7s-4.7-2.1-4.7-4.7
	C-24,380.2-21.8,378-19.2,378z M-47.6,359.1c2.6,0,4.7,2.1,4.7,4.7c0,2.6-2.1,4.7-4.7,4.7c-2.6,0-4.7-2.1-4.7-4.7
	C-52.4,361.2-50.3,359.1-47.6,359.1z"/>
</svg>
