<?xml version="1.0" encoding="utf-8"?>
<!-- Generator: Adobe Illustrator 19.0.0, SVG Export Plug-In . SVG Version: 6.00 Build 0)  -->
<svg version="1.1" id="Calque_1" xmlns="http://www.w3.org/2000/svg" xmlns:xlink="http://www.w3.org/1999/xlink" x="0px" y="0px"
	 viewBox="-155 247 300 300" style="enable-background:new -155 247 300 300;" xml:space="preserve">
<style type="text/css">
	.st0{fill:#FCB035;}
	.st1{fill:#DD9731;}
	.st2{fill:#FFFFFF;}
</style>
<rect x="-155" y="247.5" class="st0" width="300" height="299.6"/>
<polygon class="st1" points="-102.3,340.8 -23.7,546.6 144.6,546.6 144.6,453.6 63.4,317 "/>
<g>
	<g>
		<g>
			<g>
				<g>
					<path class="st2" d="M52.3,399c-1.2-3.7-1.7-8.4-1.1-13.4c1.2-11.4,7.1-20.1,13.2-19.4c0.9,0.1,1.8,0.5,2.6,1l25.3-54.8
						L-73.9,339c1.3,7.8,2.9,15.7,5.3,23.5c13,41.6,40.7,74.5,75.5,95c0,0,10.4,6.8,16.1,5.1L52.3,399z M53.4,365
						c-0.7,6.5-6.5,11.2-13,10.5c-6.5-0.7-11.2-6.5-10.5-13c0.7-6.5,6.5-11.2,13-10.5C49.4,352.6,54.1,358.5,53.4,365z M-28.6,361.2
						c1-9.3,9.3-16,18.6-15c9.3,1,16,9.3,15,18.6c-1,9.3-9.3,16-18.6,15C-22.9,378.8-29.6,370.5-28.6,361.2z M-4.9,405.5
						c0.6-6,6.1-10.4,12.1-9.8c6,0.7,10.4,6.1,9.8,12.1c-0.6,6-6.1,10.4-12.1,9.8C-1.2,417-5.6,411.5-4.9,405.5z"/>
				</g>
			</g>
		</g>
		<g>
			<g>
				<g>
					<path class="st2" d="M-71.3,423.9c-28.4-41.6-30.9-80.5-31-83.1l20.3-1.1l-10.1,0.5l10.1-0.5c0.2,3.6,6,87.9,101.1,135.2
						L10,493.1C-29.1,473.6-54.7,448.3-71.3,423.9z"/>
				</g>
			</g>
		</g>
	</g>
</g>
</svg>
