<?xml version="1.0" encoding="utf-8"?>
<!-- Generator: Adobe Illustrator 19.0.0, SVG Export Plug-In . SVG Version: 6.00 Build 0)  -->
<svg version="1.1" id="Calque_1" xmlns="http://www.w3.org/2000/svg" xmlns:xlink="http://www.w3.org/1999/xlink" x="0px" y="0px"
	 viewBox="-155 247 300 300" style="enable-background:new -155 247 300 300;" xml:space="preserve">
<style type="text/css">
	.st0{fill:#322644;}
	.st1{fill:#FFFFFF;}
</style>
<rect x="-154.8" y="247.2" class="st0" width="299.6" height="299.6"/>
<g>
	<path class="st1" d="M-38.6,361c0.2,0,0.2,0.1,0.2,0.2c0,0.8-0.2,1.6-0.6,1.6l-6.3,0.9c-0.9,0.2-1.3,0.6-1.4,1.9
		c-0.5,6.2-1,26-1.3,31.1c-0.1,5.7-0.7,29.3-0.7,32.5c0,1,0.7,1.3,1.5,1.3c3.3,0,16.2-0.8,21.3-2.2c1.2-0.5,2.6-1.2,3.4-2.4
		l6.5-10.4c0.1-0.2,0.2-0.3,0.5-0.2c0.5,0.1,1.3,0.9,1.3,1.3l-3.1,15.7c-0.2,0.7-0.3,1-1.4,1c-0.5,0-4.4-0.1-11.1-0.3
		c-6.5-0.1-15.8-0.2-27.2-0.2c-4.5,0-8.7,0.1-14.2,0.2c-0.2,0-0.2-0.1-0.2-0.3c0-0.6,0.2-1.4,0.6-1.4l5.2-1c0.8-0.1,1.3-0.5,1.3-1.7
		c0.1-3.8-0.2-25.3-0.2-30c0-4.4-0.2-29.1-0.5-32.7c0-1.3-0.2-1.6-1.3-1.9l-4.5-1c-0.3-0.1-0.6-0.7-0.6-1.4c0-0.2,0-0.3,0.3-0.3
		H-38.6z"/>
	<path class="st1" d="M23.9,360.7c4.1,0,7.2,0.1,9.8,0.2c0.3,0,0.8,0.2,0.9,0.5c3.7,12.6,15.7,52.7,20.4,67.1
		c0.2,0.7,0.8,1.3,1.5,1.5l4.3,1.2c0.3,0.1,0.6,0.7,0.6,1.5c0,0.1-0.1,0.2-0.3,0.2c-2.4,0-8-0.2-13.9-0.2c-6.5,0-12.8,0.1-15.9,0.2
		c-0.3,0-0.3-0.1-0.3-0.2c0-0.7,0.3-1.5,0.7-1.6l6.3-1c0.9-0.1,1-0.9,0.8-1.9c-1.3-3.8-5.6-15-6.9-19c-5.2,0.1-18.7,0.5-24.8,0.9
		c-0.3,0-0.7,0.3-0.8,0.9c-0.7,3.4-2.9,12.8-3.6,17c-0.1,1.4,0.3,1.7,1.2,2l6.1,1.2c0.3,0,0.7,0.8,0.7,1.5c0,0.2-0.1,0.2-0.3,0.2
		c-2.9-0.1-7.6-0.2-12.2-0.2c-4,0-7.4,0.1-9.8,0.2c-0.2,0-0.2-0.1-0.2-0.3c0-0.3,0.2-1.4,0.6-1.5l2.9-0.9c0.9-0.2,1.5-0.7,2.1-2.1
		c5.7-14,17.8-49.7,23-63.9c1-2.8,2.6-3.4,7.2-3.4H23.9z M17.6,369.9c-0.6,1.7-0.9,2.9-1.2,4c-2.9,9.7-6.6,23.2-8.8,31.2
		c-0.1,0.5,0.2,0.8,0.6,0.8c5.4,0.7,17.8,1.2,22.8,1c-2-5.6-8-22.5-11.2-32.9c-0.3-1-0.8-2.4-1.5-4.1H17.6z"/>
</g>
</svg>
