<?xml version="1.0" encoding="utf-8"?>
<!-- Generator: Adobe Illustrator 19.0.0, SVG Export Plug-In . SVG Version: 6.00 Build 0)  -->
<svg version="1.1" id="Calque_1" xmlns="http://www.w3.org/2000/svg" xmlns:xlink="http://www.w3.org/1999/xlink" x="0px" y="0px"
	 viewBox="-155 247 300 300" style="enable-background:new -155 247 300 300;" xml:space="preserve">
<style type="text/css">
	.st0{fill:#3AE88D;}
	.st1{fill:#FFFFFF;}
</style>
<rect x="-154.6" y="247.4" class="st0" width="299.6" height="299.6"/>
<g>
	<g id="adb">
		<path class="st1" d="M-65.3,429.8c0,33.6,26.7,60.3,60.3,60.3s60.3-26.7,60.3-60.3v-34.5H-65.3C-65.3,395.3-65.3,429.8-65.3,429.8
			z M30.3,329.8l18.1-18.1l-6.9-6.9l-19.8,19.8c-7.8-4.3-17.2-6.9-26.7-6.9s-19,2.6-26.7,6l-19.8-19.8l-6.9,7.8l18.1,18.1
			c-15.5,10.3-25,28.4-25,48.3v8.6H55.3V378C55.3,358.2,45.9,340.1,30.3,329.8z M-30.9,369.4c-5.2,0-8.6-3.4-8.6-8.6
			c0-5.2,3.4-8.6,8.6-8.6s8.6,3.4,8.6,8.6C-22.2,366-25.7,369.4-30.9,369.4z M20.9,369.4c-5.2,0-8.6-3.4-8.6-8.6
			c0-5.2,3.4-8.6,8.6-8.6s8.6,3.4,8.6,8.6C29.5,366,26,369.4,20.9,369.4z"/>
	</g>
</g>
</svg>
