<?xml version="1.0" encoding="utf-8"?>
<!-- Generator: Adobe Illustrator 19.0.0, SVG Export Plug-In . SVG Version: 6.00 Build 0)  -->
<svg version="1.1" id="Calque_1" xmlns="http://www.w3.org/2000/svg" xmlns:xlink="http://www.w3.org/1999/xlink" x="0px" y="0px"
	 viewBox="-155 247 300 300" style="enable-background:new -155 247 300 300;" xml:space="preserve">
<style type="text/css">
	.st0{clip-path:url(#SVGID_2_);fill:#FF5629;}
	.st1{clip-path:url(#SVGID_2_);fill:#FF7E27;}
	.st2{clip-path:url(#SVGID_2_);}
	.st3{fill:#FAFAFA;}
	.st4{clip-path:url(#SVGID_2_);fill:none;}
</style>
<g>
	<defs>
		<rect id="SVGID_1_" x="-155" y="247.5" width="300" height="299.6"/>
	</defs>
	<clipPath id="SVGID_2_">
		<use xlink:href="#SVGID_1_"  style="overflow:visible;"/>
	</clipPath>
	<rect x="-155" y="247.5" class="st0" width="300" height="299.6"/>
	<path class="st1" d="M-218.7,355.9c0,0,226.3-45.4,399.6,141.2s-109.8,110-109.8,110s-162.3-28.3-162.3,0
		c0,28.3-105.7-106-105.7-106l-18.4-145.3"/>
	<g class="st2">
		<path class="st3" d="M-4.9,330.4c14,0,26.1,3.3,36.3,9.9c10.2,6.6,17.7,14.9,22.3,24.9c4.7,10,7,20.7,6.8,32.3
			c-0.1,8.5-1.5,16.6-4.2,24.4c-2.7,7.7-6.6,14.7-11.8,21c-5.2,6.3-12,11.3-20.5,15c-8.5,3.8-18.2,5.7-29,5.7
			c-10.8,0-20.5-1.8-29.1-5.5s-15.5-8.6-20.7-14.9c-5.2-6.3-9.2-13.3-11.9-21c-2.7-7.7-4-15.9-4-24.5c0-8.6,1.4-16.9,4.2-24.8
			c2.8-7.9,6.8-15,12-21.4c5.2-6.4,12.1-11.5,20.7-15.3C-25.1,332.3-15.5,330.4-4.9,330.4z M-4.9,352.3c-9.5,0-17.5,2.4-24.2,7.1
			c-6.6,4.7-11.3,10.5-14,17.1c-2.7,6.7-4,13.9-3.7,21.5c0.4,11.9,4,22.1,10.9,30.6c6.9,8.5,17.2,12.8,31.1,12.8
			c13.9,0,24.2-4.3,31.1-12.9c6.9-8.6,10.4-18.8,10.7-30.7c0.1-5.6-0.6-11-2.2-16.2c-1.6-5.2-4-10.1-7.2-14.6
			c-3.2-4.5-7.6-8.1-13.2-10.8C8.6,353.6,2.3,352.3-4.9,352.3z"/>
	</g>
	<rect x="-155" y="247.5" class="st4" width="300" height="299.6"/>
</g>
</svg>
