<?xml version="1.0" encoding="utf-8"?>
<!-- Generator: Adobe Illustrator 19.0.0, SVG Export Plug-In . SVG Version: 6.00 Build 0)  -->
<svg version="1.1" id="Calque_1" xmlns="http://www.w3.org/2000/svg" xmlns:xlink="http://www.w3.org/1999/xlink" x="0px" y="0px"
	 viewBox="-172 295.9 250 250" style="enable-background:new -172 295.9 250 250;" xml:space="preserve">
<style type="text/css">
	.st0{fill:#1FB8DB;}
	.st1{clip-path:url(#SVGID_2_);}
	.st2{fill:#00749A;}
	.st3{fill:#464342;}
	.st4{fill:#FFFFFF;}
</style>
<path class="st0" d="M-172,295.9H78v250h-250V295.9z"/>
<g>
	<g>
		<g>
			<g>
				<defs>
					<rect id="SVGID_1_" x="-136.8" y="331.1" width="179.5" height="179.6"/>
				</defs>
				<clipPath id="SVGID_2_">
					<use xlink:href="#SVGID_1_"  style="overflow:visible;"/>
				</clipPath>
				<g class="st1">
					<path class="st2" d="M322.2,401.8H291v3.3c9.7,0,11.3,2.1,11.3,14.4v22.3c0,12.4-1.6,14.6-11.3,14.6c-7.5-1-12.5-5-19.5-12.7
						l-8-8.7c10.8-1.9,16.5-8.7,16.5-16.4c0-9.6-8.2-16.9-23.5-16.9H226v3.3c9.7,0,11.3,2.1,11.3,14.4v22.3
						c0,12.4-1.6,14.6-11.3,14.6v3.3h34.6v-3.3c-9.7,0-11.3-2.3-11.3-14.6v-6.3h3l19.3,24.2h50.6c24.9,0,35.7-13.2,35.7-29.1
						C357.9,414.8,347.1,401.8,322.2,401.8L322.2,401.8z M249.3,430.2V407h7.1c7.8,0,11.3,5.4,11.3,11.7c0,6.1-3.5,11.5-11.3,11.5
						L249.3,430.2L249.3,430.2z M322.7,454.3h-1.2c-6.3,0-7.1-1.6-7.1-9.6V407c0,0,7.7,0,8.4,0c18.1,0,21.4,13.2,21.4,23.5
						C344.1,441.1,340.8,454.3,322.7,454.3z"/>
					<path class="st2" d="M129,436.6l12-35.5c3.5-10.3,1.9-13.2-9.2-13.2v-3.5h32.7v3.5c-11,0-13.6,2.6-17.9,15.3l-19.8,59.5h-2.3
						l-17.8-54.5l-18.1,54.5h-2.3l-19.3-59.5c-4.2-12.7-7-15.3-17.1-15.3v-3.5h38.6v3.5c-10.3,0-13.1,2.4-9.4,13.2l11.7,35.5
						l17.6-52.2h3.3L129,436.6z"/>
					<path class="st2" d="M188.2,462c-19.1,0-34.8-14.1-34.8-31.3c0-17.1,15.7-31.2,34.8-31.2c19.1,0,34.8,14.1,34.8,31.2
						C223,447.9,207.3,462,188.2,462z M188.2,404.9c-16,0-21.6,14.4-21.6,25.8c0,11.5,5.6,25.8,21.6,25.8
						c16.2,0,21.8-14.3,21.8-25.8C209.9,419.4,204.4,404.9,188.2,404.9z"/>
					<path class="st3" d="M400.8,456.3v3.5H361v-3.5c11.7,0,13.7-3,13.7-20.4v-27.8c0-17.4-2.1-20.2-13.7-20.2v-3.5h36
						c17.9,0,27.8,9.2,27.8,21.6c0,12-9.9,21.4-27.8,21.4h-9.9v8.5C387.1,453.3,389.2,456.3,400.8,456.3z M397,390.6h-9.9v30.3h9.9
						c9.7,0,14.3-6.8,14.3-15C411.3,397.6,406.8,390.6,397,390.6z"/>
					<path class="st3" d="M544.4,443.4l-0.9,3.1c-1.6,5.7-3.5,7.8-15.8,7.8h-2.4c-9,0-10.6-2.1-10.6-14.4v-8
						c13.6,0,14.6,1.2,14.6,10.3h3.3v-25.9h-3.3c0,9-1,10.3-14.6,10.3V407h9.6c12.4,0,14.3,2.1,15.8,7.8l0.9,3.3h2.8l-1.2-16.4
						h-51.2v3.3c9.7,0,11.3,2.1,11.3,14.4v22.3c0,11.3-1.3,14.2-9,14.6c-7.3-1.1-12.3-5.1-19.2-12.6l-8-8.7
						c10.8-1.9,16.5-8.7,16.5-16.4c0-9.6-8.2-16.9-23.5-16.9h-30.6v3.3c9.7,0,11.3,2.1,11.3,14.4v22.3c0,12.4-1.6,14.6-11.3,14.6
						v3.3h34.6v-3.3c-9.7,0-11.3-2.3-11.3-14.6v-6.3h3l19.3,24.2H546l1-16.4L544.4,443.4L544.4,443.4z M452.2,430.2V407h7.1
						c7.8,0,11.3,5.4,11.3,11.7c0,6.1-3.5,11.5-11.3,11.5L452.2,430.2L452.2,430.2z"/>
					<path class="st3" d="M579.7,462c-7,0-13.1-3.7-15.7-5.9c-0.9,0.9-2.4,3.5-2.8,5.9H558v-24h3.5c1.4,11.5,9.4,18.3,19.7,18.3
						c5.6,0,10.1-3.1,10.1-8.4c0-4.5-4-8-11.1-11.3l-9.9-4.7c-7-3.3-12.2-9.1-12.2-16.7c0-8.4,7.8-15.5,18.6-15.5
						c5.7,0,10.6,2.1,13.6,4.5c0.9-0.7,1.7-2.6,2.3-4.7h3.3v20.5h-3.7c-1.2-8.2-5.7-15-15-15c-4.9,0-9.4,2.8-9.4,7.1
						c0,4.5,3.7,7,12,10.8l9.6,4.7c8.4,4,11.7,10.4,11.7,15.7C601,454.3,591.4,462,579.7,462L579.7,462z"/>
					<path class="st3" d="M633.3,462c-7,0-13.1-3.7-15.7-5.9c-0.9,0.9-2.4,3.5-2.8,5.9h-3.3v-24h3.5c1.4,11.5,9.4,18.3,19.7,18.3
						c5.6,0,10.1-3.1,10.1-8.4c0-4.5-4-8-11.1-11.3l-9.9-4.7c-7-3.3-12.2-9.1-12.2-16.7c0-8.4,7.8-15.5,18.6-15.5
						c5.7,0,10.6,2.1,13.6,4.5c0.9-0.7,1.7-2.6,2.3-4.7h3.3v20.5h-3.7c-1.2-8.2-5.7-15-15-15c-4.9,0-9.4,2.8-9.4,7.1
						c0,4.5,3.7,7,12,10.8l9.6,4.7c8.4,4,11.7,10.4,11.7,15.7C654.6,454.3,645,462,633.3,462L633.3,462z"/>
					<g>
						<path class="st4" d="M-124,420.9c0,30.5,17.7,56.8,43.4,69.3l-36.7-100.7C-121.6,399.1-124,409.7-124,420.9z"/>
						<path class="st4" d="M5,417c0-9.5-3.4-16.1-6.4-21.2c-3.9-6.3-7.6-11.7-7.6-18.1c0-7.1,5.4-13.7,12.9-13.7c0.3,0,0.7,0,1,0.1
							c-13.7-12.6-32-20.2-52-20.2c-26.9,0-50.6,13.8-64.3,34.7c1.8,0.1,3.5,0.1,5,0.1c8.1,0,20.5-1,20.5-1c4.2-0.2,4.6,5.9,0.5,6.3
							c0,0-4.2,0.5-8.8,0.7l28,83.4l16.9-50.5l-12-32.9c-4.1-0.2-8.1-0.7-8.1-0.7c-4.2-0.2-3.7-6.6,0.5-6.3c0,0,12.7,1,20.3,1
							c8.1,0,20.5-1,20.5-1c4.2-0.2,4.6,5.9,0.5,6.3c0,0-4.2,0.5-8.8,0.7l27.8,82.8l7.7-25.7C2.5,431.2,5,423.6,5,417z"/>
						<path class="st4" d="M-45.6,427.6l-23.1,67.1c6.9,2,14.2,3.1,21.8,3.1c9,0,17.6-1.6,25.6-4.4c-0.2-0.3-0.4-0.7-0.5-1.1
							L-45.6,427.6z"/>
						<path class="st4" d="M20.6,383.9c0.3,2.5,0.5,5.1,0.5,7.9c0,7.8-1.5,16.6-5.9,27.6l-23.5,68C14.6,474.1,30,449.3,30,420.9
							C30,407.5,26.6,394.9,20.6,383.9z"/>
						<path class="st4" d="M-47,331.1c-49.5,0-89.8,40.3-89.8,89.8c0,49.5,40.3,89.8,89.8,89.8c49.5,0,89.8-40.3,89.8-89.8
							C42.8,371.4,2.5,331.1-47,331.1z M-47,506.6c-47.2,0-85.7-38.4-85.7-85.7c0-47.2,38.4-85.7,85.7-85.7
							c47.2,0,85.7,38.4,85.7,85.7C38.7,468.1,0.2,506.6-47,506.6z"/>
					</g>
				</g>
			</g>
		</g>
	</g>
</g>
</svg>
