<?xml version="1.0" encoding="utf-8"?>
<!-- Generator: Adobe Illustrator 19.0.0, SVG Export Plug-In . SVG Version: 6.00 Build 0)  -->
<svg version="1.1" id="Layer_1" xmlns="http://www.w3.org/2000/svg" xmlns:xlink="http://www.w3.org/1999/xlink" x="0px" y="0px"
	 viewBox="-157 248 297 297" style="enable-background:new -157 248 297 297;" xml:space="preserve">
<style type="text/css">
	.st0{fill:#CCCCCC;}
	.st1{fill:#FAFAFA;}
</style>
<rect x="-157" y="248" class="st0" width="297" height="297"/>
<g>
	<g>
		<g>
			<path class="st1" d="M-71.4,327.3L-71.4,327.3c-1.7,0-3.3,0.6-4.5,1.8c-1.2,1.2-1.9,2.9-1.9,4.6V431c0,3.5,2.9,6.4,6.4,6.4
				c15.1,0,40.4,3.2,57.8,21.4V357.1c0-1.2-0.4-2.3-0.9-3.3C-28.7,330.8-56.3,327.3-71.4,327.3z"/>
			<path class="st1" d="M60.8,431v-97.3c0-1.7-0.7-3.4-1.9-4.6c-1.2-1.2-2.8-1.8-4.5-1.8l0,0c-15.1,0-42.7,3.5-56.9,26.6
				c-0.6,1-0.9,2.1-0.9,3.3V459c17.4-18.2,42.7-21.4,57.8-21.4C57.9,437.5,60.8,434.6,60.8,431z"/>
			<path class="st1" d="M75.7,349.7h-4.7v81.2c0,9.1-7.4,16.5-16.5,16.5c-12.8,0-33.9,2.6-48.9,16.7c25.9-6.3,53.1-2.2,68.6,1.3
				c1.9,0.5,3.9,0,5.5-1.2s2.4-3,2.4-5.1v-103C82.1,352.6,79.2,349.7,75.7,349.7z"/>
			<path class="st1" d="M-87.9,431v-81.4h-4.7c-3.5,0-6.4,2.9-6.4,6.4v103c0,1.9,0.9,3.8,2.4,5.1c1.6,1.2,3.5,1.7,5.5,1.2
				c15.6-3.5,42.8-7.7,68.6-1.3c-15-14.1-36-16.7-48.9-16.7C-80.5,447.6-87.9,440.2-87.9,431z"/>
		</g>
	</g>
</g>
</svg>
