<?xml version="1.0" encoding="iso-8859-1"?>
<!-- Generator: Adobe Illustrator 19.0.0, SVG Export Plug-In . SVG Version: 6.00 Build 0)  -->
<svg xmlns="http://www.w3.org/2000/svg" xmlns:xlink="http://www.w3.org/1999/xlink" version="1.1" id="Capa_1" x="0px" y="0px" viewBox="0 0 512 512" style="enable-background:new 0 0 512 512;" xml:space="preserve" width="512px" height="512px">
<g>
	<g>
		<path d="M303.614,90.958l12.273-14.899c5.535-6.718,8.031-15.551,6.838-24.234c-3.732-27.298-38.109-36.607-55.657-15.311    l-44.969,54.294h-18.499c-8.021,0-15.29,3.239-20.564,8.482c-4.271-4.061-10.037-6.567-16.393-6.567h-29.759    c-11.761,0-21.326,9.565-21.326,21.326v106.672c0,11.761,9.565,21.326,21.326,21.326h29.759c5.635,0,10.809-1.965,14.889-5.264    c5.344,6.186,13.255,10.107,22.068,10.107h88.745c29.257,0,53.061-23.803,53.061-53.061v-57.603    C345.405,112.405,326.966,92.813,303.614,90.958z M174.372,218.285c0,4.261-3.469,7.72-7.73,7.72h-29.759    c-2.908,0-5.284-2.366-5.284-5.284V114.049c0-2.918,2.376-5.284,5.284-5.284h29.759c4.261,0,7.731,3.459,7.731,7.72    C174.372,149.18,174.372,186.539,174.372,218.285z M329.362,193.83c0,20.414-16.604,37.018-37.018,37.018h-88.745    c-7.269,0-13.185-5.916-13.185-13.185v-97.629c0-7.269,5.916-13.185,13.185-13.185h19.331c4.281,0,8.292-1.895,10.999-5.184    l45.51-54.935c8.721-10.606,25.545-6.169,27.393,7.269c0.582,4.261-0.632,8.583-3.329,11.861l-14.589,17.707    c-3.002,3.002-4.472,9.623-1.795,15.19c2.396,4.993,7.329,8.091,12.864,8.091c16.193,0,29.378,13.185,29.378,29.378V193.83z" fill="#cfcfcf"/>
	</g>
</g>
<g>
	<g>
		<path d="M323.988,1.04H136.973C61.443,1.04,0,62.482,0,138.012c0,48.789,26.029,93.728,68.241,118.363v38.332    c0,4.161,3.369,7.52,7.52,7.52c4.161,0,7.52-3.359,7.52-7.52v-42.733c0-2.757-1.514-5.304-3.94-6.618    c-39.665-21.447-64.3-62.586-64.3-107.344c0-67.228,54.695-121.933,121.933-121.933h187.015    c93.931,0,152.415,102.287,105.469,182.935c-2.096,3.579-0.872,8.192,2.707,10.277c3.589,2.086,8.202,0.872,10.287-2.717    C495.152,116.136,429.676,1.04,323.988,1.04z" fill="#cfcfcf"/>
	</g>
</g>
<g>
	<g>
		<path d="M504.175,327.865c-1.544-3.85-5.926-5.725-9.776-4.181c-3.73,1.484-5.605,5.625-4.331,9.385    c0.01,0.01,0.01,0.03,0.02,0.05c22.013,64.103-12.053,134.047-76.332,156.113c-63.973,21.969-133.997-11.894-156.113-76.332    c-31.082-90.51,48.872-179.513,140.983-160.224c32.396,6.758,61.473,26.53,79.28,54.905c2.206,3.509,6.848,4.572,10.367,2.366    c3.519-2.206,4.582-6.848,2.366-10.367c-17.405-27.73-44.521-48.717-76.663-58.525c3.289-2.858,6.437-5.886,9.455-9.074    c2.858-3.018,2.717-7.771-0.301-10.628c-3.018-2.858-7.771-2.717-10.628,0.301c-5.294,5.595-11.069,10.648-17.246,15.09    c-36.11-5.686-72.015,3.367-100.396,23.212H163.262c-2.978,0-5.675,1.745-6.878,4.462l-40.818,92.014    c-7.447,16.783-32.286,11.276-32.286-6.838v-24.806c0-4.151-3.359-7.52-7.52-7.52c-4.151,0-7.52,3.369-7.52,7.52v24.806    c0,34.038,46.96,44.702,61.072,12.944l38.833-87.542h108.668c-37.289,36.924-50.793,92.146-33.398,142.788    c19.131,55.738,71.549,93.177,130.435,93.177C470.027,510.96,535.261,415.041,504.175,327.865z" fill="#cfcfcf"/>
	</g>
</g>
<g>
	<g>
		<circle cx="345.305" cy="318.403" r="12.481" fill="#cfcfcf"/>
	</g>
</g>
<g>
	<g>
		<circle cx="402.416" cy="318.403" r="12.481" fill="#cfcfcf"/>
	</g>
</g>
<g>
	<g>
		<path d="M441.125,338.274c-4.154,0-7.52,3.367-7.52,7.52c0,32.942-26.8,59.742-59.743,59.742s-59.743-26.8-59.743-59.742    c0-4.153-3.366-7.52-7.52-7.52s-7.52,3.367-7.52,7.52c0,41.235,33.548,74.782,74.783,74.782s74.783-33.547,74.783-74.782    C448.645,341.641,445.279,338.274,441.125,338.274z" fill="#cfcfcf"/>
	</g>
</g>
<g>
</g>
<g>
</g>
<g>
</g>
<g>
</g>
<g>
</g>
<g>
</g>
<g>
</g>
<g>
</g>
<g>
</g>
<g>
</g>
<g>
</g>
<g>
</g>
<g>
</g>
<g>
</g>
<g>
</g>
</svg>
