<?xml version="1.0" encoding="utf-8"?>
<!-- Generator: Adobe Illustrator 19.0.0, SVG Export Plug-In . SVG Version: 6.00 Build 0)  -->
<svg version="1.1" id="Layer_1" xmlns="http://www.w3.org/2000/svg" xmlns:xlink="http://www.w3.org/1999/xlink" x="0px" y="0px"
	 viewBox="-157 248 297 297" style="enable-background:new -157 248 297 297;" xml:space="preserve">
<style type="text/css">
	.st0{fill:#CCCCCC;}
	.st1{fill:#FAFAFA;}
</style>
<rect x="-157" y="248" class="st0" width="297" height="297"/>
<path class="st1" d="M76,396.5C76,349.9,38.1,312-8.5,312S-93,349.9-93,396.5S-55.1,481-8.5,481h73.9v-10.6H32.3
	C58.3,456,76,428.3,76,396.5L76,396.5z M3.9,413.6c7.1-5.1,17-3.6,22.1,3.5c5.1,7.1,3.6,17-3.5,22.1c-7.1,5.1-17,3.6-22.1-3.5
	C-4.7,428.6-3.2,418.7,3.9,413.6z M21.8,370c8.3-2.7,17.3,1.9,20,10.2c2.7,8.3-1.9,17.3-10.2,20c-8.3,2.7-17.3-1.9-20-10.2
	C8.9,381.7,13.4,372.7,21.8,370z M-8.5,343.7c8.8,0,15.8,7.1,15.8,15.8c0,8.8-7.1,15.8-15.8,15.8s-15.8-7.1-15.8-15.8
	C-24.3,350.8-17.3,343.7-8.5,343.7z M-58.7,380.2c2.7-8.3,11.6-12.9,20-10.2c8.3,2.7,12.9,11.6,10.2,20c-2.7,8.3-11.6,12.9-20,10.2
	C-56.9,397.4-61.4,388.5-58.7,380.2L-58.7,380.2z M-17.4,435.7c-5.1,7.1-15.1,8.6-22.1,3.5c-7.1-5.1-8.6-15.1-3.5-22.1
	c5.1-7.1,15.1-8.6,22.1-3.5C-13.8,418.7-12.3,428.6-17.4,435.7L-17.4,435.7z M-19.1,396.5c0-5.8,4.7-10.6,10.6-10.6
	s10.6,4.7,10.6,10.6c0,5.8-4.7,10.6-10.6,10.6S-19.1,402.3-19.1,396.5z"/>
</svg>
