<?xml version="1.0" encoding="utf-8"?>
<!-- Generator: Adobe Illustrator 19.0.0, SVG Export Plug-In . SVG Version: 6.00 Build 0)  -->
<svg version="1.1" id="Layer_1" xmlns="http://www.w3.org/2000/svg" xmlns:xlink="http://www.w3.org/1999/xlink" x="0px" y="0px"
	 viewBox="-80 -450 450 450" style="enable-background:new -80 -450 450 450;" xml:space="preserve">
<style type="text/css">
	.st0{fill:#37155E;}
	.st1{fill:#7194BF;}
	.st2{fill:#B44AFF;}
	.st3{fill:#FCE542;}
	.st4{fill:#FF277F;}
	.st5{opacity:0.1;}
	.st6{fill:#FFFFFF;}
	.st7{fill:#00D1B2;}
	.st8{fill:#CF649A;}
	.st9{fill:#E44D26;}
	.st10{fill:#F16529;}
	.st11{fill:#EBEBEB;}
</style>
<g>
	<g>
		<g>
			<g>
				
					<image style="overflow:visible;opacity:0.12;" width="396" height="302" xlink:href="395F4526.png"  transform="matrix(1 0 0 1 -51 -370)">
				</image>
				<g>
					<path class="st0" d="M286.8-123.2H3.2c-4.1,0-7.4-3.3-7.4-7.4v-190c0-4.1,3.3-7.4,7.4-7.4h283.7c4.1,0,7.4,3.3,7.4,7.4v190
						C294.3-126.5,290.9-123.2,286.8-123.2z"/>
				</g>
			</g>
		</g>
		<g>
			<rect x="42.3" y="-307.3" class="st1" width="39.2" height="4.4"/>
		</g>
		<g>
			<rect x="42.3" y="-297.6" class="st1" width="25" height="4.4"/>
		</g>
		<g>
			<rect x="81.3" y="-297.6" class="st1" width="100.5" height="4.4"/>
		</g>
		<g>
			<rect x="191.6" y="-297.6" class="st2" width="52.6" height="4.4"/>
		</g>
		<g>
			<rect x="52.1" y="-287.8" class="st3" width="63.5" height="4.4"/>
		</g>
		<g>
			<rect x="135" y="-287.8" class="st1" width="94.6" height="4.4"/>
		</g>
		<g>
			<rect x="42.3" y="-278.1" class="st2" width="89.3" height="4.4"/>
		</g>
		<g>
			<rect x="139.8" y="-278.1" class="st4" width="63.5" height="4.4"/>
		</g>
		<g>
			<rect x="52.1" y="-268.3" class="st1" width="63.5" height="4.4"/>
		</g>
		<g>
			<rect x="42.3" y="-258.6" class="st1" width="92.7" height="4.4"/>
		</g>
		<g>
			<rect x="42.3" y="-248.8" class="st1" width="63.5" height="4.4"/>
		</g>
		<g>
			<rect x="61.8" y="-239.1" class="st2" width="105.9" height="4.4"/>
		</g>
		<g>
			<rect x="178.8" y="-239.1" class="st1" width="34.2" height="4.4"/>
		</g>
		<g>
			<rect x="227.5" y="-239.1" class="st1" width="34.2" height="4.4"/>
		</g>
		<g>
			<rect x="71.6" y="-229.3" class="st1" width="43.2" height="4.4"/>
		</g>
		<g>
			<rect x="71.6" y="-219.6" class="st2" width="57.6" height="4.4"/>
		</g>
		<g>
			<rect x="149.6" y="-219.6" class="st1" width="63.5" height="4.4"/>
		</g>
		<g>
			<rect x="227.5" y="-219.6" class="st2" width="26.4" height="4.4"/>
		</g>
		<g>
			<rect x="42.3" y="-209.8" class="st1" width="39" height="4.4"/>
		</g>
		<g>
			<rect x="42.3" y="-200.1" class="st1" width="63.5" height="4.4"/>
		</g>
		<g>
			<rect x="71.6" y="-190.3" class="st1" width="115.1" height="4.4"/>
		</g>
		<g>
			<rect x="198.3" y="-190.3" class="st4" width="71.3" height="4.4"/>
		</g>
		<g>
			<rect x="71.6" y="-180.6" class="st1" width="39.1" height="4.4"/>
		</g>
		<g>
			<rect x="120.3" y="-180.6" class="st3" width="39.1" height="4.4"/>
		</g>
		<g>
			<rect x="169.1" y="-180.6" class="st1" width="39.1" height="4.4"/>
		</g>
		<g>
			<rect x="42.3" y="-170.8" class="st1" width="63.5" height="4.4"/>
		</g>
		<g>
			<rect x="61.8" y="-161.1" class="st3" width="63.5" height="4.4"/>
		</g>
		<g>
			<rect x="137.3" y="-161.1" class="st3" width="63.5" height="4.4"/>
		</g>
		<g>
			<rect x="136" y="-141.6" class="st1" width="35.6" height="4.4"/>
		</g>
		<g>
			<rect x="61.8" y="-151.4" class="st1" width="94.2" height="4.4"/>
		</g>
		<g>
			<g>
				<rect x="13.4" y="-307.3" class="st1" width="4.4" height="4.4"/>
			</g>
			<g>
				<rect x="13.4" y="-297.6" class="st1" width="4.4" height="4.4"/>
			</g>
			<g>
				<rect x="13.4" y="-287.8" class="st1" width="4.4" height="4.4"/>
			</g>
			<g>
				<rect x="13.4" y="-278.1" class="st1" width="4.4" height="4.4"/>
			</g>
			<g>
				<rect x="13.4" y="-268.3" class="st1" width="4.4" height="4.4"/>
			</g>
			<g>
				<rect x="13.4" y="-258.6" class="st1" width="4.4" height="4.4"/>
			</g>
			<g>
				<rect x="13.4" y="-248.8" class="st1" width="4.4" height="4.4"/>
			</g>
			<g>
				<rect x="13.4" y="-239.1" class="st1" width="4.4" height="4.4"/>
			</g>
			<g>
				<rect x="13.4" y="-229.3" class="st1" width="4.4" height="4.4"/>
			</g>
			<g>
				<rect x="13.4" y="-219.6" class="st1" width="4.4" height="4.4"/>
			</g>
			<g>
				<rect x="13.4" y="-209.8" class="st1" width="4.4" height="4.4"/>
			</g>
			<g>
				<rect x="13.4" y="-200.1" class="st1" width="4.4" height="4.4"/>
			</g>
			<g>
				<rect x="13.4" y="-190.3" class="st1" width="4.4" height="4.4"/>
			</g>
			<g>
				<rect x="13.4" y="-180.6" class="st1" width="4.4" height="4.4"/>
			</g>
			<g>
				<rect x="13.4" y="-170.8" class="st1" width="4.4" height="4.4"/>
			</g>
			<g>
				<rect x="13.4" y="-161.1" class="st1" width="4.4" height="4.4"/>
			</g>
			<g>
				<rect x="13.4" y="-151.4" class="st1" width="4.4" height="4.4"/>
			</g>
			<g>
				<rect x="13.4" y="-141.6" class="st1" width="4.4" height="4.4"/>
			</g>
		</g>
		<g>
			<rect x="61.8" y="-141.6" class="st1" width="47.1" height="4.4"/>
		</g>
		<g class="st5">
			
				<image style="overflow:visible;opacity:0.12;" width="396" height="302" xlink:href="395F452A.png"  transform="matrix(1 0 0 1 -51 -369)">
			</image>
			<g>
				<g>
					<g>
						<polygon class="st6" points="95,-122.6 167.7,-327.4 140.1,-327.4 67.3,-122.6 						"/>
					</g>
					<g>
						<path class="st6" d="M3.2-122.6h13l72.7-204.8H3.2c-4.1,0-7.4,3.3-7.4,7.4v190C-4.3-125.9-0.9-122.6,3.2-122.6z"/>
					</g>
					<g>
						<path class="st6" d="M249.1-122.6h37.7c4.1,0,7.4-3.3,7.4-7.4v-119.7L249.1-122.6z"/>
					</g>
				</g>
			</g>
		</g>
		<g class="st5">
			<g>
				<polygon class="st6" points="153.8,-123.2 204.4,-123.2 277.1,-328 226.5,-328 				"/>
			</g>
		</g>
	</g>
	<g>
		
			<image style="overflow:visible;opacity:0.12;" width="154" height="155" xlink:href="395F452D.png"  transform="matrix(1 0 0 1 44 -402)">
		</image>
		<g>
			<circle class="st6" cx="119.1" cy="-331.8" r="28.9"/>
		</g>
	</g>
	<g>
		
			<image style="overflow:visible;opacity:0.12;" width="162" height="163" xlink:href="395F452E.png"  transform="matrix(1 0 0 1 175 -200)">
		</image>
		<g>
			<circle class="st6" cx="254" cy="-125.4" r="32.9"/>
		</g>
	</g>
	<g>
		
			<image style="overflow:visible;opacity:0.12;" width="163" height="163" xlink:href="395F452C.png"  transform="matrix(1 0 0 1 -18 -214)">
		</image>
		<g>
			<circle class="st6" cx="61.8" cy="-139.4" r="32.9"/>
		</g>
	</g>
	<g>
		<polygon id="Path" class="st7" points="108.5,-326 110.5,-339.4 118.1,-347.1 127.7,-337.5 122,-331.8 129.6,-324.1 118.1,-316.4 
					"/>
	</g>
	<path class="st8" d="M273.1-124.5c-1.4,0-2.6,0.3-3.7,0.9c-0.4-0.8-0.8-1.4-0.8-1.9c-0.1-0.6-0.2-0.9-0.1-1.6
		c0.1-0.7,0.5-1.6,0.5-1.7c0-0.1-0.1-0.4-0.9-0.4c-0.8,0-1.5,0.2-1.6,0.4c-0.1,0.2-0.2,0.7-0.3,1.2c-0.1,0.8-1.6,3.4-2.5,4.8
		c-0.3-0.5-0.5-1-0.6-1.4c-0.1-0.6-0.2-0.9-0.1-1.6c0.1-0.7,0.5-1.6,0.5-1.7c0-0.1-0.1-0.4-0.9-0.4c-0.8,0-1.5,0.2-1.6,0.4
		c-0.1,0.2-0.2,0.7-0.3,1.2c-0.2,0.5-2.1,4.9-2.7,6c-0.3,0.6-0.5,1.1-0.7,1.4c-0.2,0.3,0,0,0,0.1c-0.1,0.3-0.2,0.4-0.2,0.4v0
		c-0.1,0.2-0.2,0.4-0.3,0.4c0,0-0.1-0.5,0-1.3c0.3-1.5,1-3.9,1-4c0,0,0.1-0.5-0.5-0.7c-0.6-0.2-0.8,0.1-0.8,0.1c0,0-0.1,0.1-0.1,0.1
		s0.6-2.7-1.2-2.7c-1.2,0-2.8,1.3-3.6,2.4c-0.5,0.3-1.6,0.9-2.7,1.5c-0.4,0.2-0.9,0.5-1.3,0.7l-0.1-0.1c-2.3-2.4-6.5-4.1-6.3-7.4
		c0.1-1.2,0.5-4.3,8-8.1c6.2-3.1,11.2-2.3,12.1-0.4c1.2,2.7-2.6,7.7-9.1,8.4c-2.5,0.3-3.8-0.7-4.1-1c-0.3-0.4-0.4-0.4-0.5-0.3
		c-0.2,0.1-0.1,0.4,0,0.6c0.2,0.5,1,1.4,2.3,1.8c1.2,0.4,4.1,0.6,7.6-0.8c3.9-1.5,7-5.7,6.1-9.2c-0.9-3.6-6.9-4.8-12.4-2.8
		c-3.3,1.2-7,3-9.6,5.5c-3.1,2.9-3.6,5.4-3.4,6.5c0.7,3.7,5.9,6.2,7.9,8c-0.1,0.1-0.2,0.1-0.3,0.2c-1,0.5-5,2.6-6,4.7
		c-1.1,2.5,0.2,4.2,1,4.5c2.6,0.7,5.4-0.6,6.8-2.8c1.4-2.2,1.3-5,0.6-6.3l0-0.1l0.8-0.5c0.5-0.3,1-0.6,1.5-0.8
		c-0.3,0.7-0.4,1.5-0.5,2.7c-0.1,1.4,0.5,3.2,1.2,3.9c0.3,0.3,0.7,0.3,1,0.3c0.9,0,1.3-0.7,1.7-1.6c0.5-1.1,1-2.3,1-2.3
		s-0.6,3.3,1,3.3c0.6,0,1.2-0.8,1.4-1.2v0c0,0,0,0,0.1-0.1c0-0.1,0.1-0.1,0.1-0.2v0c0.2-0.4,0.8-1.4,1.6-2.9c1-2,2-4.5,2-4.5
		s0.1,0.6,0.4,1.6c0.2,0.6,0.6,1.3,0.9,1.9c-0.2,0.3-0.4,0.5-0.4,0.5l0,0c-0.2,0.3-0.4,0.5-0.6,0.8c-0.8,1-1.8,2.1-1.9,2.4
		c-0.2,0.4-0.1,0.6,0.2,0.9c0.2,0.2,0.6,0.2,1,0.2c0.7-0.1,1.2-0.2,1.5-0.3c0.4-0.1,0.9-0.4,1.3-0.7c0.8-0.6,1.3-1.4,1.2-2.5
		c0-0.6-0.2-1.2-0.5-1.8c0.1-0.1,0.1-0.2,0.2-0.3c1.3-1.8,2.2-3.8,2.2-3.8s0.1,0.6,0.4,1.6c0.2,0.5,0.4,1.1,0.7,1.6
		c-1.2,1-1.9,2.1-2.2,2.8c-0.5,1.4-0.1,1.9,0.6,2.1c0.3,0.1,0.8-0.1,1.1-0.2c0.4-0.1,0.9-0.4,1.4-0.7c0.8-0.6,1.6-1.4,1.5-2.5
		c0-0.5-0.2-1-0.3-1.5c1-0.4,2.3-0.6,3.9-0.4c3.5,0.4,4.2,2.6,4.1,3.5c-0.1,0.9-0.9,1.4-1.1,1.6c-0.3,0.2-0.3,0.2-0.3,0.3
		c0,0.2,0.1,0.2,0.4,0.1c0.3-0.1,1.9-0.8,1.9-2.5C278.8-122.2,276.8-124.6,273.1-124.5L273.1-124.5z M245.8-115.4
		c-1.2,1.3-2.8,1.8-3.5,1.4c-0.8-0.4-0.5-2.3,1-3.7c0.9-0.8,2-1.6,2.8-2.1c0.2-0.1,0.4-0.3,0.7-0.4c0.1,0,0.1-0.1,0.1-0.1
		c0.1,0,0.1-0.1,0.2-0.1C247.6-118.4,247.1-116.7,245.8-115.4L245.8-115.4z M254.4-121.2c-0.4,1-1.3,3.5-1.8,3.4
		c-0.4-0.1-0.7-2.1-0.1-4c0.3-1,1-2.1,1.4-2.5c0.6-0.7,1.3-0.9,1.5-0.7C255.6-124.5,254.6-121.8,254.4-121.2z M261.4-117.8
		c-0.2,0.1-0.3,0.2-0.4,0.1c-0.1,0,0.1-0.2,0.1-0.2s0.9-0.9,1.2-1.4c0.2-0.3,0.4-0.5,0.7-0.9v0.1C263-118.9,261.9-118.1,261.4-117.8
		L261.4-117.8z M266.8-119c-0.1-0.1-0.1-0.4,0.3-1.3c0.2-0.4,0.5-1,1.2-1.6c0.1,0.2,0.1,0.5,0.1,0.7
		C268.5-119.8,267.4-119.3,266.8-119z"/>
	<g>
		<path class="st9" d="M48.5-124l-3-33.3h32.6l-3,33.3l-13.4,3.7"/>
		<path class="st10" d="M61.8-123.1v-31.4h13.3l-2.6,28.4"/>
		<path class="st11" d="M51.6-150.5h10.2v4.1H56l0.4,4.2h5.4v4.1h-9.1 M52.8-136.1h4.1l0.3,3.3l4.6,1.2v4.3l-8.4-2.3"/>
		<path class="st6" d="M72-150.5H61.8v4.1h9.9 M71.3-142.2h-9.5v4.1h5l-0.5,5.3l-4.6,1.2v4.3l8.4-2.3"/>
	</g>
</g>
</svg>
