<?xml version="1.0" encoding="utf-8"?>
<!-- Generator: Adobe Illustrator 19.0.0, SVG Export Plug-In . SVG Version: 6.00 Build 0)  -->
<svg version="1.1" id="Layer_1" xmlns="http://www.w3.org/2000/svg" xmlns:xlink="http://www.w3.org/1999/xlink" x="0px" y="0px"
	 viewBox="-80 -450 450 450" style="enable-background:new -80 -450 450 450;" xml:space="preserve">
<style type="text/css">
	.st0{fill:#FFFFFF;}
	.st1{fill:none;stroke:#EDEDED;stroke-miterlimit:10;}
	.st2{fill:#FC2745;}
	.st3{fill:#FFD629;}
	.st4{fill:#24FF82;}
	.st5{fill:#EDEDED;}
</style>
<g>
	<g>
		<g>
			<g>
				
					<image style="overflow:visible;opacity:0.12;" width="393" height="311" xlink:href="287A8E2D.png"  transform="matrix(1 0 0 1 -26 -407)">
				</image>
				<g>
					<path class="st0" d="M304.3-152.3H32c-6.3,0-11.3-5.1-11.3-11.3v-190.4c0-6.3,5.1-11.3,11.3-11.3h272.3
						c6.3,0,11.3,5.1,11.3,11.3v190.4C315.6-157.4,310.6-152.3,304.3-152.3z"/>
					<path class="st1" d="M304.3-152.3H32c-6.3,0-11.3-5.1-11.3-11.3v-190.4c0-6.3,5.1-11.3,11.3-11.3h272.3
						c6.3,0,11.3,5.1,11.3,11.3v190.4C315.6-157.4,310.6-152.3,304.3-152.3z"/>
				</g>
			</g>
			<g>
				<circle class="st2" cx="40.9" cy="-349.1" r="5.1"/>
				<circle class="st3" cx="54.5" cy="-349.1" r="5.1"/>
				<circle class="st4" cx="68" cy="-349.1" r="5.1"/>
			</g>
			<path class="st5" d="M87.5-254.2h-45c-3.7,0-6.6-3-6.6-6.6v-57c0-3.7,3-6.6,6.6-6.6h45c3.7,0,6.6,3,6.6,6.6v57
				C94.1-257.2,91.1-254.2,87.5-254.2z"/>
			<path class="st5" d="M156.5-254.2h-45c-3.7,0-6.6-3-6.6-6.6v-57c0-3.7,3-6.6,6.6-6.6h45c3.7,0,6.6,3,6.6,6.6v57
				C163.1-257.2,160.2-254.2,156.5-254.2z"/>
			<path class="st5" d="M225.6-254.2h-45c-3.7,0-6.6-3-6.6-6.6v-57c0-3.7,3-6.6,6.6-6.6h45c3.7,0,6.6,3,6.6,6.6v57
				C232.2-257.2,229.2-254.2,225.6-254.2z"/>
			<path class="st5" d="M294.6-254.2h-45c-3.7,0-6.6-3-6.6-6.6v-57c0-3.7,3-6.6,6.6-6.6h45c3.7,0,6.6,3,6.6,6.6v57
				C301.2-257.2,298.3-254.2,294.6-254.2z"/>
			<path class="st5" d="M87.5-173.1h-45c-3.7,0-6.6-3-6.6-6.6v-57c0-3.7,3-6.6,6.6-6.6h45c3.7,0,6.6,3,6.6,6.6v57
				C94.1-176.1,91.1-173.1,87.5-173.1z"/>
			<path class="st5" d="M156.5-173.1h-45c-3.7,0-6.6-3-6.6-6.6v-57c0-3.7,3-6.6,6.6-6.6h45c3.7,0,6.6,3,6.6,6.6v57
				C163.1-176.1,160.2-173.1,156.5-173.1z"/>
			<path class="st5" d="M225.6-173.1h-45c-3.7,0-6.6-3-6.6-6.6v-57c0-3.7,3-6.6,6.6-6.6h45c3.7,0,6.6,3,6.6,6.6v57
				C232.2-176.1,229.2-173.1,225.6-173.1z"/>
			<path class="st5" d="M294.6-173.1h-45c-3.7,0-6.6-3-6.6-6.6v-57c0-3.7,3-6.6,6.6-6.6h45c3.7,0,6.6,3,6.6,6.6v57
				C301.2-176.1,298.3-173.1,294.6-173.1z"/>
		</g>
		<g>
			<defs>
				<circle id="SVGID_1_" cx="291" cy="-349.1" r="10.2"/>
			</defs>
			<clipPath id="SVGID_2_">
				<use xlink:href="#SVGID_1_"  style="overflow:visible;"/>
			</clipPath>
			<g style="clip-path:url(#SVGID_2_);">
				
					<image style="overflow:visible;" width="400" height="400" xlink:href="../../avatars/bobby.jpg"  transform="matrix(5.093255e-002 0 0 5.093255e-002 280.785 -359.2417)">
				</image>
			</g>
		</g>
	</g>
	<g>
		<g>
			
				<image style="overflow:visible;opacity:0.12;" width="393" height="311" xlink:href="287A8E35.png"  transform="matrix(1 0 0 1 -73 -340)">
			</image>
			<g>
				<path class="st0" d="M258-84.6H-14.3c-6.3,0-11.3-5.1-11.3-11.3v-190.4c0-6.3,5.1-11.3,11.3-11.3H258c6.3,0,11.3,5.1,11.3,11.3
					v190.4C269.4-89.7,264.3-84.6,258-84.6z"/>
				<path class="st1" d="M258-84.6H-14.3c-6.3,0-11.3-5.1-11.3-11.3v-190.4c0-6.3,5.1-11.3,11.3-11.3H258c6.3,0,11.3,5.1,11.3,11.3
					v190.4C269.4-89.7,264.3-84.6,258-84.6z"/>
			</g>
		</g>
		<g>
			<defs>
				<circle id="SVGID_3_" cx="244.7" cy="-276.1" r="10.3"/>
			</defs>
			<clipPath id="SVGID_4_">
				<use xlink:href="#SVGID_3_"  style="overflow:visible;"/>
			</clipPath>
			<g style="clip-path:url(#SVGID_4_);">
				
					<image style="overflow:visible;" width="400" height="400" xlink:href="../../avatars/dan.jpg"  transform="matrix(5.131808e-002 0 0 5.131808e-002 234.4248 -286.3319)">
				</image>
			</g>
		</g>
		<g>
			<circle class="st2" cx="-5.3" cy="-277.5" r="5.1"/>
			<circle class="st3" cx="8.2" cy="-277.5" r="5.1"/>
			<circle class="st4" cx="21.7" cy="-277.5" r="5.1"/>
		</g>
		<path class="st5" d="M62.1-182.6H-3.8c-3.7,0-6.6-3-6.6-6.6v-57c0-3.7,3-6.6,6.6-6.6h65.9c3.7,0,6.6,3,6.6,6.6v57
			C68.7-185.6,65.7-182.6,62.1-182.6z"/>
		<path class="st5" d="M155.2-182.6H89.3c-3.7,0-6.6-3-6.6-6.6v-57c0-3.7,3-6.6,6.6-6.6h65.9c3.7,0,6.6,3,6.6,6.6v57
			C161.8-185.6,158.9-182.6,155.2-182.6z"/>
		<path class="st5" d="M248.3-182.6h-65.9c-3.7,0-6.6-3-6.6-6.6v-57c0-3.7,3-6.6,6.6-6.6h65.9c3.7,0,6.6,3,6.6,6.6v57
			C255-185.6,252-182.6,248.3-182.6z"/>
		<path class="st5" d="M142.8-158.5H-6.3c-1.3,0-2.3-1-2.3-2.3v-5.8c0-1.3,1-2.3,2.3-2.3h149.1c1.3,0,2.3,1,2.3,2.3v5.8
			C145.1-159.6,144-158.5,142.8-158.5z"/>
		<path class="st5" d="M116.6-141.1H-6.3c-1.3,0-2.3-1-2.3-2.3v-5.8c0-1.3,1-2.3,2.3-2.3h122.9c1.3,0,2.3,1,2.3,2.3v5.8
			C118.8-142.1,117.8-141.1,116.6-141.1z"/>
		<path class="st5" d="M73.3-123.6H-6.3c-1.3,0-2.3-1-2.3-2.3v-5.8c0-1.3,1-2.3,2.3-2.3h79.6c1.3,0,2.3,1,2.3,2.3v5.8
			C75.6-124.6,74.6-123.6,73.3-123.6z"/>
		<path class="st5" d="M131.9-106.1H-6.3c-1.3,0-2.3-1-2.3-2.3v-5.8c0-1.3,1-2.3,2.3-2.3h138.2c1.3,0,2.3,1,2.3,2.3v5.8
			C134.2-107.1,133.2-106.1,131.9-106.1z"/>
		<path class="st5" d="M249.6-136.2h-68.5c-2.9,0-5.3-2.4-5.3-5.3v-24c0-2.9,2.4-5.3,5.3-5.3h68.5c2.9,0,5.3,2.4,5.3,5.3v24
			C255-138.5,252.6-136.2,249.6-136.2z"/>
	</g>
</g>
</svg>
