<?xml version="1.0" encoding="iso-8859-1"?>
<!-- Generator: Adobe Illustrator 19.0.0, SVG Export Plug-In . SVG Version: 6.00 Build 0)  -->
<svg xmlns="http://www.w3.org/2000/svg" xmlns:xlink="http://www.w3.org/1999/xlink" version="1.1" id="Layer_1" x="0px" y="0px" viewBox="0 0 512 512" style="enable-background:new 0 0 512 512;" xml:space="preserve" width="512px" height="512px">
<g>
	<g>
		<path d="M489.396,44.856H22.604C10.14,44.856,0,54.996,0,67.46V444.54c0,12.464,10.14,22.604,22.604,22.604h466.792    c12.464,0,22.604-10.14,22.604-22.604V67.46C512,54.996,501.86,44.856,489.396,44.856z M489.396,444.54l-466.791,0.015    c0,0-0.001-0.005-0.001-0.015V67.46h466.792V444.54z" fill="#7f00ff"/>
	</g>
</g>
<g>
	<g>
		<path d="M446.975,98.58H65.024c-6.241,0-11.302,5.061-11.302,11.302v249.8c0,6.241,5.061,11.301,11.302,11.301h381.95    c6.241,0,11.302-5.061,11.302-11.302V109.882C458.277,103.641,453.216,98.58,446.975,98.58z M76.326,121.184h359.346v191.334    l-71.228-71.22c-4.412-4.412-11.568-4.412-15.983,0l-43.421,43.421l-99.56-99.56c-4.413-4.41-11.569-4.412-15.983,0    l-113.17,113.16V121.184z M76.326,348.378v-18.095l121.162-121.15l139.244,139.245H76.326z M435.674,348.379h-66.973v-0.001    l-47.676-47.676l35.429-35.43l76.622,76.612c0.788,0.788,1.666,1.43,2.597,1.936V348.379z" fill="#7f00ff"/>
	</g>
</g>
<g>
	<g>
		<path d="M304.345,142.629c-23.56,0-42.729,19.168-42.729,42.729s19.168,42.729,42.729,42.729s42.729-19.168,42.729-42.729    S327.905,142.629,304.345,142.629z M304.345,205.483c-11.098,0-20.125-9.027-20.125-20.125c0-11.097,9.028-20.124,20.125-20.124    c11.096,0,20.124,9.027,20.124,20.124C324.469,196.456,315.442,205.483,304.345,205.483z" fill="#7f00ff"/>
	</g>
</g>
<g>
	<g>
		<path d="M163.332,396.458H65.024c-6.241,0-11.302,5.061-11.302,11.302c0,6.242,5.061,11.302,11.302,11.302h98.308    c6.242,0,11.302-5.061,11.302-11.302C174.634,401.519,169.574,396.458,163.332,396.458z" fill="#7f00ff"/>
	</g>
</g>
<g>
	<g>
		<path d="M240.689,396.458h-25.785c-6.241,0-11.302,5.061-11.302,11.302c0,6.241,5.061,11.302,11.302,11.302h25.785    c6.242,0,11.302-5.061,11.302-11.302C251.991,401.519,246.93,396.458,240.689,396.458z" fill="#7f00ff"/>
	</g>
</g>
<g>
</g>
<g>
</g>
<g>
</g>
<g>
</g>
<g>
</g>
<g>
</g>
<g>
</g>
<g>
</g>
<g>
</g>
<g>
</g>
<g>
</g>
<g>
</g>
<g>
</g>
<g>
</g>
<g>
</g>
</svg>
