<?xml version="1.0" encoding="utf-8"?>
<!-- Generator: Adobe Illustrator 19.0.0, SVG Export Plug-In . SVG Version: 6.00 Build 0)  -->
<svg version="1.1" xmlns="http://www.w3.org/2000/svg" xmlns:xlink="http://www.w3.org/1999/xlink" x="0px" y="0px"
	 viewBox="0 0 800 800" style="enable-background:new 0 0 800 800;" xml:space="preserve">
<style type="text/css">
	.st0{fill:#9DBF9F;}
	.st1{fill:#FCBF60;}
	.st2{fill:#BD8864;}
	.st3{fill:#F9F8F7;}
	.st4{fill:#D8D0BB;}
	.st5{fill:#FC8B60;}
	.st6{fill:#E25050;}
	.st7{fill:#FC6460;}
</style>
<g id="BACKGROUND">
	<rect id="XMLID_1_" class="st0" width="800" height="800"/>
</g>
<g id="Designed_By_Freepik">
</g>
<g id="OBJECTS">
	<path id="XMLID_24_" class="st1" d="M800,222.1v93.6H648.8c-31.1,0-56.3,25.2-56.3,56.3v108.1c0,25.8-20.9,46.8-46.8,46.8H255.4
		V356.6h125c36.7,0,66.4-29.7,66.4-66.4v-68.1H800z"/>
	<path id="XMLID_25_" class="st2" d="M446.9,222.1v68.1c0,36.7-29.7,66.4-66.4,66.4h-125V222.1H446.9z"/>
	<path id="XMLID_26_" class="st0" d="M255.4,356.6v170.3h-84.8c-25.6,0-46.3-20.7-46.3-46.3V222.1h131.1V356.6z"/>
	<path id="XMLID_27_" class="st1" d="M124.4,133.9v88.2H0V92.7h83.2C105.9,92.7,124.4,111.2,124.4,133.9z"/>
	<path id="XMLID_28_" class="st2" d="M255.4,0v222.1H124.4v-88.2c0-22.7-18.4-41.2-41.2-41.2H0V0H255.4z"/>
	<path id="XMLID_29_" class="st0" d="M647,0v36.3c0,26.5-21.5,48-48,48h-95.9c-31.1,0-56.3,25.2-56.3,56.3v81.6H255.4V0H647z"/>
	<path id="XMLID_30_" class="st0" d="M800,0v222.1H446.9v-81.6c0-31.1,25.2-56.3,56.3-56.3h95.9c26.5,0,48-21.5,48-48V0H800z"/>
	<g id="XMLID_31_">
		<rect id="XMLID_32_" x="245.4" y="0" class="st3" width="20" height="526.9"/>
	</g>
	<g id="XMLID_33_">
		<rect id="XMLID_34_" y="212.1" class="st3" width="800" height="20"/>
	</g>
	<g id="XMLID_35_">
		<path id="XMLID_36_" class="st3" d="M380.5,366.6h-125v-20h125c31.1,0,56.4-25.3,56.4-56.4V140.6c0-36.6,29.8-66.3,66.3-66.3h95.9
			c20.9,0,38-17,38-38V0h20v36.3c0,32-26,58-58,58h-95.9c-25.5,0-46.3,20.8-46.3,46.3v149.7C456.9,332.4,422.6,366.6,380.5,366.6z"
			/>
	</g>
	<g id="XMLID_37_">
		<path id="XMLID_38_" class="st3" d="M545.8,536.9H170.6c-31,0-56.3-25.3-56.3-56.3V133.9c0-17.2-14-31.2-31.2-31.2H0v-20h83.2
			c28.2,0,51.2,23,51.2,51.2v346.7c0,20,16.3,36.3,36.3,36.3h375.1c20.3,0,36.8-16.5,36.8-36.8V372c0-36.5,29.7-66.3,66.3-66.3H800
			v20H648.8c-25.5,0-46.3,20.8-46.3,46.3v108.1C602.5,511.4,577.1,536.9,545.8,536.9z"/>
	</g>
	<circle class="st3" cx="475.1" cy="427.1" r="43.4"/>
	<g id="XMLID_39_">
		<rect id="XMLID_40_" x="701.2" y="222.1" class="st3" width="10" height="93.6"/>
	</g>
	<g id="XMLID_41_">
		<path id="XMLID_42_" class="st3" d="M364.9,222.1h-10V73.8c0-15.7-12.8-28.5-28.5-28.5h-71v-10h71c21.2,0,38.5,17.3,38.5,38.5
			V222.1z"/>
	</g>
	<g id="XMLID_43_">
		<rect id="XMLID_44_" x="124.4" y="430.6" class="st3" width="131.1" height="10"/>
	</g>
	<g id="XMLID_45_">
		<rect id="XMLID_46_" x="501.8" y="417.1" class="st3" width="90.8" height="20"/>
	</g>
	<g id="XMLID_47_">
		<path id="XMLID_48_" class="st4" d="M475.1,465.1c-20.9,0-38-17-38-38c0-20.9,17-38,38-38c20.9,0,38,17,38,38
			C513,448.1,496,465.1,475.1,465.1z M475.1,392.2c-19.3,0-35,15.7-35,35c0,19.3,15.7,35,35,35s35-15.7,35-35
			C510,407.9,494.4,392.2,475.1,392.2z"/>
	</g>
	<g id="XMLID_51_">
		<path id="XMLID_52_" class="st4" d="M475.1,456.1c-16,0-29-13-29-29s13-29,29-29c16,0,29,13,29,29S491.1,456.1,475.1,456.1z
			 M475.1,400.2c-14.9,0-27,12.1-27,27c0,14.9,12.1,27,27,27c14.9,0,27-12.1,27-27C502.1,412.3,490,400.2,475.1,400.2z"/>
	</g>
	<g id="XMLID_55_">
		<path id="XMLID_56_" class="st4" d="M475.1,447.9c-11.5,0-20.8-9.3-20.8-20.8s9.3-20.8,20.8-20.8c11.5,0,20.8,9.3,20.8,20.8
			S486.5,447.9,475.1,447.9z M475.1,407.4c-10.9,0-19.8,8.9-19.8,19.8c0,10.9,8.9,19.8,19.8,19.8c10.9,0,19.8-8.9,19.8-19.8
			C494.9,416.2,486,407.4,475.1,407.4z"/>
	</g>
	<circle class="st5" cx="475.1" cy="427.1" r="14.1"/>
	<g id="XMLID_4_">
		<path id="XMLID_60_" class="st6" d="M580.8,182.8c0,15.4-3.3,29.9-9.2,43.1c-0.7,1.7-1.6,3.4-2.4,5.1
			c-4.6,9.6-94.1,196.1-94.1,196.1V246.7c35.3,0,63.9-28.6,63.9-63.9c0-35.3-28.6-63.9-63.9-63.9V77.1
			C533.4,77.1,580.8,124.4,580.8,182.8z"/>
		<path id="XMLID_61_" class="st7" d="M475.1,246.7v180.4L381,231c-0.9-1.7-1.7-3.4-2.5-5.1c-5.9-13.2-9.2-27.7-9.2-43.1
			c0-58.4,47.3-105.7,105.7-105.7V119c-35.3,0-63.9,28.6-63.9,63.9C411.2,218.1,439.8,246.7,475.1,246.7z"/>
		<g id="XMLID_62_">
			<path id="XMLID_63_" class="st3" d="M475.1,119c-35.3,0-63.9,28.6-63.9,63.9c0,35.3,28.6,63.9,63.9,63.9c0,0,0,0,0,0L475.1,119
				C475.1,119,475.1,119,475.1,119z"/>
			<path id="XMLID_64_" class="st4" d="M539,182.8c0-35.3-28.6-63.8-63.9-63.9v127.8C510.4,246.7,539,218.1,539,182.8z"/>
		</g>
	</g>
</g>
</svg>
