<?xml version="1.0" encoding="iso-8859-1"?>
<!-- Generator: Adobe Illustrator 19.0.0, SVG Export Plug-In . SVG Version: 6.00 Build 0)  -->
<svg xmlns="http://www.w3.org/2000/svg" xmlns:xlink="http://www.w3.org/1999/xlink" version="1.1" id="Layer_1" x="0px" y="0px" viewBox="0 0 512 512" style="enable-background:new 0 0 512 512;" xml:space="preserve" width="512px" height="512px">
<g>
	<g>
		<path d="M512,89.745C512,40.259,471.74,0,422.255,0c-26.09,0-49.607,11.198-66.02,29.031    C323.63,14.307,288.815,6.826,252.587,6.826C113.31,6.826,0,120.137,0,259.413S113.31,512,252.587,512    s252.587-113.31,252.587-252.587c0-36.229-7.48-71.043-22.206-103.649C500.802,139.351,512,115.835,512,89.745z M422.255,25.259    c35.558,0,64.487,28.929,64.487,64.487c0,35.558-28.929,64.487-64.487,64.487s-64.487-28.929-64.487-64.487    C357.769,54.187,386.697,25.259,422.255,25.259z M252.587,486.741c-125.349,0-227.328-101.979-227.328-227.328    S127.238,32.085,252.587,32.085c31.077,0,60.993,6.096,89.123,18.131c-5.881,11.935-9.199,25.35-9.199,39.53    c0,49.486,40.259,89.745,89.745,89.745c14.18,0,27.595-3.319,39.53-9.199c12.033,28.128,18.129,58.043,18.129,89.122    C479.915,384.762,377.936,486.741,252.587,486.741z" fill="#7f00ff"/>
	</g>
</g>
<g>
	<g>
		<path d="M455.773,77.116h-20.889V56.227c0-6.975-5.654-12.629-12.629-12.629s-12.629,5.654-12.629,12.629v20.889h-20.889    c-6.975,0-12.629,5.654-12.629,12.629c0,6.974,5.654,12.629,12.629,12.629h20.889v20.889c0,6.975,5.654,12.629,12.629,12.629    s12.629-5.654,12.629-12.629v-20.889h20.889c6.975,0,12.629-5.654,12.629-12.629C468.402,82.77,462.748,77.116,455.773,77.116z" fill="#7f00ff"/>
	</g>
</g>
<g>
	<g>
		<path d="M330.183,304.615c-0.283-0.021-31.141,1.063-39.987-31.293c5.768-4.406,11.113-9.845,15.875-16.293    c10.223-13.84,16.891-31.092,19.419-49.747c0.724-0.859,1.331-1.839,1.79-2.929c4.38-10.429,6.601-21.563,6.601-33.091    c0-44.388-33.609-80.501-74.92-80.501c-10.606,0-20.899,2.387-30.631,7.099c-3.589,0.322-7.108,0.976-10.49,1.955    c-34.616,10.001-54.211,51.735-43.68,93.032c1.057,4.144,3.616,12.086,5.695,14.962c3.937,28.114,17.099,51.604,35.148,65.399    c-8.995,32.893-39.723,31.388-40.003,31.408c-29.837,0.959-53.819,25.513-53.819,55.579v36.326    c0,13.642,11.099,24.741,24.741,24.741h213.324c13.642,0,24.741-11.099,24.741-24.741v-36.326    C383.984,330.132,360.012,305.582,330.183,304.615z M224.149,121.655c2.463-0.712,5.073-1.134,7.757-1.257    c1.666-0.076,3.296-0.517,4.773-1.292c7.088-3.723,14.584-5.611,22.281-5.611c27.253,0,49.68,23.248,51.979,52.768    c-5.669-3.567-12.369-5.639-19.548-5.639h-51.436c-2.23,0-4.346-0.698-6.116-2.021c-1.517-1.133-2.689-2.652-3.387-4.392    c-2.1-5.239-7.288-8.521-12.931-8.162c-5.657,0.359-10.417,4.286-11.848,9.775c-2.16,8.3-5.974,16.095-11.105,22.93    C191.163,152.267,203.402,127.649,224.149,121.655z M202.279,204.025c8.012-7.483,14.61-16.383,19.381-26.201    c5.422,3.626,11.71,5.533,18.295,5.533h51.436c5.442,0,10.163,3.106,12.509,7.633c-0.191,29.817-12.848,55.435-30.856,66.673    c-0.572,0.274-8.786,6.087-20.415,6.087C228.273,263.749,206.861,237.914,202.279,204.025z M286.186,310.088    c-9.669,7.032-21.402,10.924-33.556,10.923c-12.175,0-23.925-3.904-33.603-10.956c7.509-7.105,13.279-16.046,16.571-26.121    c5.475,1.665,11.177,2.547,17.031,2.547c5.797,0,11.47-0.871,16.954-2.511C272.885,294.047,278.667,302.986,286.186,310.088z     M361.251,396.518L361.251,396.518c0,1.108-0.901,2.008-2.008,2.008H145.919c-1.108,0-2.008-0.9-2.008-2.008v-36.326    c0-18.137,14.755-32.892,32.892-32.892c0.306,0,11.036-0.179,22.071-4.389c14.616,13.328,33.781,20.833,53.757,20.833    c19.962,0,39.119-7.499,53.733-20.812c11.255,4.583,21.69,4.369,21.997,4.369c18.136,0,32.891,14.755,32.891,32.892V396.518z" fill="#7f00ff"/>
	</g>
</g>
<g>
</g>
<g>
</g>
<g>
</g>
<g>
</g>
<g>
</g>
<g>
</g>
<g>
</g>
<g>
</g>
<g>
</g>
<g>
</g>
<g>
</g>
<g>
</g>
<g>
</g>
<g>
</g>
<g>
</g>
</svg>
