<?xml version="1.0" encoding="utf-8"?>
<!-- Generator: Adobe Illustrator 19.0.0, SVG Export Plug-In . SVG Version: 6.00 Build 0)  -->
<svg version="1.1" id="Calque_1" xmlns="http://www.w3.org/2000/svg" xmlns:xlink="http://www.w3.org/1999/xlink" x="0px" y="0px"
	 viewBox="-105 247 400 300" style="enable-background:new -105 247 400 300;" xml:space="preserve">
<style type="text/css">
	.st0{fill:#0062FF;}
	.st1{fill:#FFFFFF;}
</style>
<g>
	<rect id="XMLID_1_" x="-105" y="247" class="st0" width="400" height="300"/>
	<g id="XMLID_2_">
		<path id="XMLID_25_" class="st1" d="M61.8,395c-0.8,0-1.4,0.3-2,1.1c-3.3,4.2-6.3,6.7-8.7,7.7c0.1-0.9,0.2-1.6,0.2-2.1
			c0-1.8-0.4-3.4-1.3-4.9c-0.8-1.5-2.1-3.3-3.7-5.5c-1.1-1.4-1.9-2.5-2.5-3.4c-0.5-0.9-0.8-1.8-0.8-2.5c0-1.3,0.5-2.8,1.4-4.6
			c0.3-0.7,0.6-1.3,0.8-1.9c0.2-0.7,0.3-1.1,0.3-1.4c0-0.5-0.3-1-0.8-1.2s-1.5-0.4-3-0.4c-3.1,0-5.1,1.1-6,3.3
			c-1.1,2.6-2.3,5.2-3.4,7.6c-1.2,2.5-2.2,4.4-3.1,5.9c-1.3,2-3.1,4.5-5.6,7.6c-1.9,1.8-3.6,3-5.1,3.6c0.1-0.9,0.2-1.6,0.2-2.1
			c0-1.8-0.4-3.4-1.3-4.9c-0.8-1.5-2.1-3.3-3.7-5.5c-1.1-1.4-1.9-2.5-2.5-3.4c-0.5-0.9-0.8-1.8-0.8-2.5c0-1.3,0.5-2.8,1.4-4.6
			c0.3-0.7,0.6-1.3,0.8-1.9c0.2-0.7,0.3-1.1,0.3-1.4c0-0.5-0.3-1-0.8-1.2s-1.5-0.4-3-0.4c-3.1,0-5.1,1.1-6,3.3
			c-1.1,2.6-2.3,5.2-3.4,7.6c-1.2,2.5-2.2,4.4-3.1,5.9c-1,1.6-2.4,3.4-4,5.6c-4,1.7-7.7,2.9-11,3.7c-3.4,0.8-6.7,1.3-10,1.3
			c-6.7,0-11.7-1.6-15.1-5c-3.4-3.3-5.1-8-5.1-14.1c0-5.8,1-10.9,2.8-15.1c1.7-4.2,4.2-7.4,7.2-9.6c3.1-2.2,6.2-3.2,9.6-3.2
			c5,0,7.4,2.3,7.4,6.9c0,0.9-0.2,2.1-0.5,3.7c-0.2,1.2-0.3,2-0.3,2.5c0,1.3,0.4,2.2,1.2,2.9c0.8,0.7,1.9,1,3.3,1c2,0,3.6-1,4.7-2.8
			c1.1-1.9,1.6-4.3,1.6-7.4c0-4.6-1.4-8.4-4.3-11.1c-2.9-2.8-7-4.2-12.5-4.2c-5.9,0-11.2,1.6-16.1,4.7c-4.8,3.2-8.6,7.6-11.4,13.5
			c-2.8,5.8-4.2,12.4-4.2,19.9c0,5.4,1.2,10.1,3.6,14.1c2.4,4.1,5.8,7.2,10.3,9.4c4.5,2.2,9.7,3.3,15.8,3.3c3.5,0,7.2-0.3,11.1-1.1
			c3.6-0.7,7-1.7,10.3-3.1c0.9-0.1,1.7-0.5,2.5-1.2c1.2-0.8,2.1-1.7,2.7-2.7c0.9-1,1.8-2,2.6-3.1c1.5-1.9,3.1-4.5,4.7-7.4
			c0.7,0.8,1.5,1.8,2.3,2.9s1.5,2.2,2,3.4c0.5,1.2,0.8,2.4,0.9,3.7c-0.5,0-1.1-0.2-2-0.3c-0.9-0.1-1.6-0.2-2.3-0.2
			c-1.9,0-3.3,0.5-4.3,1.4s-1.4,2.1-1.4,3.4c0,1.5,0.7,2.9,2.1,4.1s3.4,1.8,6,1.8c2.8,0,5.2-0.9,7.2-2.6c3.4-0.1,6.2-0.7,8.5-1.9
			c2.3-1.1,4.7-3.3,7.2-6.4c0.2-0.2,0.3-0.5,0.5-0.8c0.3-0.4,0.6-0.8,1-1.2c1.5-1.9,3.1-4.5,4.7-7.4c0.7,0.8,1.5,1.8,2.3,2.9
			s1.5,2.2,2,3.4c0.5,1.2,0.8,2.4,0.9,3.7c-0.5,0-1.1-0.2-2-0.3c-0.9-0.1-1.6-0.2-2.3-0.2c-1.9,0-3.3,0.5-4.3,1.4
			c-1,1-1.4,2.1-1.4,3.4c0,1.5,0.7,2.9,2.1,4.1c1.4,1.2,3.4,1.8,6,1.8c2.8,0,5.2-0.9,7.2-2.6c3.4-0.1,6.2-0.7,8.5-1.9
			c2.3-1.1,4.7-3.3,7.2-6.4c1-1.2,1.4-2.8,1.4-4.7c0-1.1-0.2-1.9-0.6-2.5C63,395.2,62.5,395,61.8,395z"/>
		<path id="XMLID_26_" class="st1" d="M125.7,371.4c2.2,0,3.9-0.6,5.3-1.8c1.3-1.2,1.9-2.8,1.9-4.8c0-1.7-0.6-3-1.8-3.9
			s-2.7-1.4-4.5-1.4c-2.1,0-3.8,0.6-5.2,1.8c-1.4,1.2-2.1,2.7-2.1,4.5s0.5,3.2,1.6,4.2C122,370.9,123.5,371.4,125.7,371.4z"/>
		<path id="XMLID_27_" class="st1" d="M180.4,371.4c2.2,0,3.9-0.6,5.3-1.8c1.3-1.2,1.9-2.8,1.9-4.8c0-1.7-0.6-3-1.8-3.9
			s-2.7-1.4-4.5-1.4c-2.1,0-3.8,0.6-5.2,1.8c-1.4,1.2-2.1,2.7-2.1,4.5s0.5,3.2,1.6,4.2C176.6,370.9,178.2,371.4,180.4,371.4z"/>
		<path id="XMLID_30_" class="st1" d="M230.6,395c-0.8,0-1.4,0.3-2,1.1c-2.4,2.8-4.2,4.8-5.6,6c-1.4,1.3-2.6,1.9-3.5,1.9
			c-0.6,0-1.1-0.2-1.5-0.7s-0.6-1.1-0.6-1.8c0-2.3,0.6-6.4,1.8-12.2c0.8-4,1.1-6.6,1.1-7.6c0-1.8-1.3-2.7-3.7-2.7
			c-1.2,0-2.3,0.1-3.3,0.3c-0.2-1.1-0.6-1.9-1-2.3s-1.1-0.7-2.2-0.7c-3.5,0-6.8,1.1-9.9,3.3c-3.1,2.2-5.6,5.1-7.5,8.7
			c-1.5,2.9-2.4,5.8-2.7,8.9c-2.7,1.9-5.6,4-8.7,6.3l0.8-5.3c1.7-10.6,2.5-17,2.5-19.3c0-0.8-0.2-1.4-0.7-1.9s-1.5-0.7-3-0.7
			c-1.9,0-3.2,0.3-4.2,1s-1.5,1.8-1.7,3.2c-0.7,5.5-1.1,9.5-1.4,12.3c-0.1,1.5-0.3,2.9-0.4,4.4c-1.8,2.1-3.2,3.6-4.4,4.7
			c-1.4,1.3-2.6,1.9-3.6,1.9c-1.5,0-2.2-1-2.2-3.1c0-1.4,0.5-4.3,1.4-8.7c1.1-5.2,1.7-8.7,1.7-10.8c0-3.3-1.6-5-5-5
			c-1.7,0-3.5,0.6-5.5,1.8c-2,1.2-4,3.1-6.1,5.8c-2.1,2.7-4,6.3-5.6,10.7c0.2-2.2,0.5-4.1,0.8-5.6s0.7-3.3,1.2-5.3
			c0.8-2.8,1.1-4.7,1.1-5.5c0-0.7-0.2-1.2-0.6-1.4c-0.4-0.2-1.1-0.4-2.1-0.4c-1.9,0-3.3,0.3-4.4,1c-1.1,0.7-1.8,1.8-2.2,3.2
			c-1.8,5.5-2.7,11.3-2.8,17.4c-1.4,1.7-2.7,3-3.7,3.9c-1.4,1.3-2.5,1.9-3.4,1.9c-1,0-1.6-0.4-2-1.2c-0.4-0.8-0.6-1.9-0.6-3.5
			c0-1.9,0.6-5.8,1.8-11.3c1-4.6,1.4-7.6,1.4-8.8c0-1.7-1.3-2.6-3.9-2.6c-1.7,0-2.9,0.3-3.7,0.9c-0.8,0.6-1.4,1.7-1.8,3.3
			c-0.9,3.1-1.6,6.4-2.2,10c-0.5,3-0.8,5.6-0.9,7.6c-1.4,1.6-2.6,2.8-3.6,3.7c-1.4,1.3-2.6,1.9-3.6,1.9c-1.5,0-2.2-1-2.2-3.1
			c0-1.4,0.5-4.3,1.4-8.7c1.1-5.2,1.7-8.7,1.7-10.8c0-3.3-1.6-5-5-5c-1.7,0-3.5,0.6-5.5,1.8c-2,1.2-4,3.1-6.1,5.8
			c-2.1,2.7-4,6.3-5.6,10.7c0.2-2.2,0.5-4.1,0.8-5.6s0.7-3.3,1.2-5.3c0.8-2.8,1.1-4.7,1.1-5.5c0-0.7-0.2-1.2-0.6-1.4
			c-0.4-0.2-1.1-0.4-2.1-0.4c-1.9,0-3.3,0.3-4.4,1s-1.8,1.8-2.2,3.2c-1.9,5.9-2.8,12.2-2.8,18.8c0,4.5,0.4,7.7,1.2,9.7
			c0.8,2,2.2,3.1,4.1,3.1c1.6,0,2.7-0.4,3.4-1.3c0.8-0.8,1.4-2.4,1.9-4.8c0.8-3.1,1.8-6,3-8.8c1.3-2.8,2.5-5,3.7-6.7
			s2.1-2.6,2.8-2.6c0.5,0,0.8,0.4,0.8,1.2c0,1.2-0.3,3.4-1,6.6c-0.7,3.7-1.1,6.2-1.1,7.6c0,2.8,0.7,5,1.9,6.5
			c1.3,1.5,3.2,2.2,5.8,2.2c3.2,0,6-0.9,8.5-2.6c1.2-0.8,2.4-1.8,3.5-2.8c0.3,0.7,0.6,1.3,1,1.9c1.5,2.4,3.9,3.5,7.2,3.5
			c3.2,0,6.6-1.6,10.1-5c0.2,0.8,0.3,1.4,0.5,1.9c0.8,2,2.2,3.1,4.1,3.1c1.6,0,2.7-0.4,3.4-1.3c0.8-0.8,1.4-2.4,1.9-4.8
			c0.8-3.1,1.8-6,3-8.8c1.3-2.8,2.5-5,3.7-6.7s2.1-2.6,2.8-2.6c0.5,0,0.8,0.4,0.8,1.2c0,1.2-0.3,3.4-1,6.6c-0.7,3.7-1.1,6.2-1.1,7.6
			c0,2.8,0.7,5,1.9,6.5c1.3,1.5,3.2,2.2,5.8,2.2c3.2,0,6-0.9,8.5-2.6c0.6-0.4,1.1-0.8,1.7-1.3l-0.4,2.8c-7.7,6-13,11-15.8,15.1
			s-4.2,7.9-4.2,11.5c0,2.6,0.8,4.7,2.4,6.3s3.7,2.4,6.4,2.4c4.8,0,8.8-3,12-9c3.1-6,5.7-14.3,7.7-24.9c4.2-2.9,7.9-5.4,10.9-7.4
			c0.5,1.4,1.1,2.6,2,3.7c1.9,2.3,4.4,3.4,7.5,3.4c4,0,7.3-2.1,10-6.4c0.7,1.9,1.8,3.5,3.2,4.7c1.4,1.1,2.9,1.7,4.6,1.7
			c2.2,0,4.4-0.9,6.8-2.7s4.5-4,6.6-6.6c1-1.1,1.4-2.7,1.4-4.7c0-1.1-0.2-1.9-0.6-2.5C231.8,395.2,231.2,395,230.6,395z
			 M165.2,434.7c-1.6,3-3,4.5-4.3,4.5c-1.4,0-2.1-1-2.1-3s0.9-4.4,2.6-7.1c1.7-2.7,4.5-5.6,8.4-8.9
			C168.2,426.9,166.7,431.7,165.2,434.7z M208.3,397.4c-0.5,2.2-1.2,3.9-2.2,5.3c-1,1.3-2.1,1.9-3.2,1.9c-1.1,0-2-0.4-2.6-1.1
			c-0.6-0.8-1-1.9-1-3.5c0-2.8,0.5-5.5,1.6-8.1s2.5-4.6,4.3-6.1s3.8-2.4,5.9-2.4L208.3,397.4z"/>
		<path id="XMLID_32_" class="st1" d="M248.1,399.8c-1.1-1.1-2.8-1.6-5.1-1.6c-2.4,0-4.2,0.7-5.5,2c-1.3,1.4-1.9,3.2-1.9,5.5
			c0,1.9,0.6,3.6,1.7,4.8c1.1,1.2,2.8,1.8,5.1,1.8s4.1-0.7,5.4-2.1c1.3-1.4,1.9-3.2,1.9-5.6C249.8,402.5,249.3,400.9,248.1,399.8z"
			/>
	</g>
</g>
</svg>
