<?xml version="1.0" encoding="utf-8"?>
<!-- Generator: Adobe Illustrator 19.0.0, SVG Export Plug-In . SVG Version: 6.00 Build 0)  -->
<svg version="1.1" id="Calque_1" xmlns="http://www.w3.org/2000/svg" xmlns:xlink="http://www.w3.org/1999/xlink" x="0px" y="0px"
	 viewBox="0 0 400 300" style="enable-background:new 0 0 400 300;" xml:space="preserve">
<style type="text/css">
	.st0{fill:#00D38D;}
	.st1{fill:#FFFFFF;}
</style>
<rect id="XMLID_1_" class="st0" width="400" height="300"/>
<g id="Layer_2">
	<g id="XMLID_20_">
		<path id="XMLID_11_" class="st1" d="M185.8,130.1c2.7,1.2,2.9,2.1,0.8,6.1c-2.2,4.2-2.7,4.4-5.4,3.4c-3.4-1.5-7.7-2.5-10.5-2.5
			c-4.5,0-7.6,1.6-7.6,4.1c0,8.2,26.1,3.8,26.1,21.2c0,8.8-7.5,14.7-18.9,14.7c-5.9,0-13.3-2-18.4-4.5c-2.5-1.3-2.7-2-0.5-6.2
			c1.9-3.7,2.5-4,5.2-2.9c4.3,1.9,9.8,3.4,13.5,3.4c4.2,0,6.9-1.7,6.9-4.2c0-8-26.6-4.2-26.6-21.1c0-9,7.5-15,18.7-15
			C174.6,126.4,181.2,128,185.8,130.1z"/>
		<path id="XMLID_10_" class="st1" d="M206.9,109.4v65.1c0,1-1,2-2.5,2h-6.8c-1.5,0-2.5-1-2.5-2v-65.1c0-3.2,0.9-3.5,5.9-3.5
			C206.7,105.8,206.9,106.2,206.9,109.4z"/>
		<path id="XMLID_23_" class="st1" d="M255.5,145.9v28c0,1.5-1,2.5-2.5,2.5h-6.8c-1.5,0-2.7-1.1-2.5-2.7l0.1-3
			c-3.7,4-8.9,6.2-14.2,6.2c-10.2,0-17-5.9-17-14.7c0-9.4,7.7-15.7,19.3-15.7c4.4,0,8.4,0.8,11.7,2.2v-3.2c0-5.2-4-8.2-11-8.2
			c-3.2,0-7.2,1.3-10.3,3.1c-2.4,1.4-3,1.3-5.7-2.7c-2.6-3.9-2.5-4.7,0-6.3c4.7-3.1,11.2-5,17.2-5
			C247.2,126.4,255.5,133.7,255.5,145.9z M224,162.1c0,3.4,2.8,5.6,7.1,5.6c5.2,0,9.8-2.5,12.6-6.7v-4.4c-2.7-1-6.1-1.6-9-1.6
			C228.2,155,224,158,224,162.1z"/>
		<path id="XMLID_7_" class="st1" d="M302,130.2c2.5,1.5,2.6,2.2-0.1,6.4c-2.6,4-3,4.2-5.7,2.8c-2.1-1.1-5.4-2-8.2-2
			c-8.6,0-14.3,5.7-14.3,14.2c0,8.9,5.7,14.8,14.3,14.8c3,0,6.7-1.1,9.1-2.5c2.5-1.5,3-1.3,5.7,2.5c2.4,3.6,2.3,4.4,0.2,5.9
			c-3.8,2.7-9.8,4.7-15.2,4.7c-15.8,0-26.5-10.2-26.5-25.4c0-15.2,10.6-25.2,26.6-25.2C292.7,126.4,298.4,128.1,302,130.2z"/>
		<path id="XMLID_6_" class="st1" d="M353.8,170.3c2,2.5,1.2,3.4-3.8,5.2c-5,1.8-5.7,1.7-7.5-0.6L328.3,156l-6.4,6.1v12.3
			c0,1-1,2-2.5,2h-6.9c-1.5,0-2.5-1-2.5-2v-65.1c0-3.2,0.9-3.5,5.9-3.5c5.7,0,5.9,0.4,5.9,3.5v37l19.4-18.6c2.2-2,3.4-1.9,7.1,0.6
			c4.2,2.7,4.5,3.5,2.5,5.4l-14.5,14.1L353.8,170.3z"/>
	</g>
	<g id="XMLID_13_">
		
			<rect id="XMLID_5_" x="82.7" y="144.6" transform="matrix(-0.9482 0.3176 -0.3176 -0.9482 220.9924 265.0623)" class="st1" width="12.3" height="11.9"/>
		<g id="XMLID_14_">
			
				<rect id="XMLID_4_" x="82.7" y="144.6" transform="matrix(-0.9482 0.3176 -0.3176 -0.9482 220.9924 265.0623)" class="st1" width="12.3" height="11.9"/>
			<path id="XMLID_15_" class="st1" d="M128.9,138.5c-9-30-22-37-52-28s-37,22-28,52s22,37,52,28S137.9,168.5,128.9,138.5z
				 M113.7,157.9l-5.7,1.9l2,5.9c0.8,2.4-0.5,5-2.9,5.7c-0.5,0.1-1,0.3-1.5,0.2c-1.8-0.1-3.6-1.3-4.2-3.1l-2-5.9l-11.7,3.9l2,5.9
				c0.8,2.4-0.5,5-2.9,5.7c-0.5,0.1-1,0.3-1.5,0.2c-1.8-0.1-3.6-1.3-4.2-3.1l-2-5.9l-5.7,1.9c-0.5,0.1-1,0.3-1.5,0.2
				c-1.8-0.1-3.6-1.3-4.2-3.1c-0.8-2.4,0.5-5,2.9-5.7l5.7-1.9l-3.8-11.2l-5.7,1.9c-0.5,0.1-1,0.3-1.5,0.2c-1.8-0.1-3.6-1.3-4.2-3.1
				c-0.8-2.4,0.5-5,2.9-5.7l5.7-1.9l-2-5.9c-0.8-2.4,0.5-5,2.9-5.7c2.4-0.8,5,0.5,5.7,2.9l2,5.9l11.7-3.9l-2-5.9
				c-0.8-2.4,0.5-5,2.9-5.7c2.4-0.8,5,0.5,5.7,2.9l2,5.9l5.7-1.9c2.4-0.8,5,0.5,5.7,2.9c0.8,2.4-0.5,5-2.9,5.7l-5.7,1.9l3.8,11.2
				l5.7-1.9c2.4-0.8,5,0.5,5.7,2.9C117.4,154.6,116.1,157.2,113.7,157.9z"/>
		</g>
	</g>
</g>
</svg>
