<?xml version="1.0" encoding="utf-8"?>
<!-- Generator: Adobe Illustrator 19.0.0, SVG Export Plug-In . SVG Version: 6.00 Build 0)  -->
<svg version="1.1" id="Capa_1" xmlns="http://www.w3.org/2000/svg" xmlns:xlink="http://www.w3.org/1999/xlink" x="0px" y="0px"
	 viewBox="-41 164.8 512.1 512.1" style="enable-background:new -41 164.8 512.1 512.1;" xml:space="preserve">
<style type="text/css">
	.st0{fill:#7F00FF;}
	.st1{fill:#FFC107;}
	.st2{fill:#FAFAFA;}
	.st3{fill:#FFE082;}
	.st4{fill:#FFA000;}
</style>
<circle class="st0" cx="215" cy="420.8" r="256"/>
<g>
	<g>
		<path class="st1" d="M299.4,505c-3.9,0-7-3.1-7-7s3.1-7,7-7c23.3,0,42.1-18.9,42.1-42.1v-49.1c0-11.6-9.4-21.1-21.1-21.1h-14
			c-3.9,0-7-3.1-7-7s3.1-7,7-7h14c19.4,0,35.1,15.7,35.1,35.1v49.1C355.5,479.9,330.4,505,299.4,505z"/>
		<path class="st1" d="M292.3,385c-0.3-3.2-2.7-5.7-5.9-6.2l-150.2-24.1c-1.9-0.3-3.8,0.2-5.4,1.4c-1.5,1.2-2.5,2.9-2.7,4.8
			l-18.3,164.4c-0.4,3.9,2.4,7.3,6.2,7.7c0.3,0,0.5,0,0.8,0h182.5c3.9,0,7-3.1,7.1-7c0-0.2,0-0.5,0-0.7L292.3,385z"/>
	</g>
	<g>
		<path class="st2" d="M159,505h-0.5c-3.9-0.2-6.8-3.6-6.6-7.5c0,0,0,0,0,0l7-105.3c0.3-3.8,3.6-6.7,7.5-6.6
			c3.9,0.3,6.8,3.6,6.5,7.5c0,0,0,0,0,0l-7,105.3C165.8,502.2,162.7,505,159,505z"/>
		<path class="st2" d="M208.1,505c-3.9,0-7-3.1-7-7V385.7c0-3.9,3.1-7,7-7c3.9,0,7,3.1,7,7V498C215.1,501.9,212,505,208.1,505z"/>
		<path class="st2" d="M257.2,505c-3.7,0-6.8-2.9-7-6.6l-7-112.3c-0.2-3.9,2.7-7.2,6.6-7.5c0,0,0,0,0,0c3.8-0.3,7.1,2.5,7.4,6.3
			c0,0.1,0,0.2,0,0.2l7,112.3c0.2,3.9-2.7,7.2-6.6,7.4L257.2,505z"/>
	</g>
	<path class="st3" d="M285,323.2c-3.5-34.6-34.4-59.9-69-56.4c-26.5,2.7-48.5,21.7-54.9,47.6c-7.1-3.9-15-5.9-23.1-5.9
		c-27.1,0-49.1,21.9-49.2,49.1s21.9,49.1,49.1,49.2c19.1,0,36.5-11.1,44.6-28.4c20.6,16.7,49.4,18.8,72.2,5.2
		c6.4,6,14.9,9.2,23.6,9.2c19.4,0,35.1-15.7,35.1-35.1C313.4,340.9,301.5,326.4,285,323.2z"/>
	<path class="st4" d="M299.4,519.1H116.9c-15.5,0-28.1,12.6-28.1,28.1s12.6,28.1,28.1,28.1h182.5c15.5,0,28.1-12.6,28.1-28.1
		C327.4,531.6,314.9,519.1,299.4,519.1z"/>
</g>
</svg>
