<?xml version="1.0" encoding="utf-8"?>
<!-- Generator: Adobe Illustrator 19.0.0, SVG Export Plug-In . SVG Version: 6.00 Build 0)  -->
<svg version="1.1" id="Capa_1" xmlns="http://www.w3.org/2000/svg" xmlns:xlink="http://www.w3.org/1999/xlink" x="0px" y="0px"
	 viewBox="-41 164.8 512.1 512.1" style="enable-background:new -41 164.8 512.1 512.1;" xml:space="preserve">
<style type="text/css">
	.st0{fill:#7F00FF;}
	.st1{fill:#8BC34A;}
	.st2{fill:#FAFAFA;}
	.st3{fill:#F44336;}
</style>
<circle class="st0" cx="215" cy="420.8" r="256"/>
<g>
	<path class="st1" d="M317.6,276.6c-32.3,0-58.4,26.2-58.4,58.4c0,3.6,2.9,6.5,6.5,6.5h38.4l-23.9,29.9c-2.2,2.8-1.8,6.9,1,9.1
		c10.3,8.4,23.1,13,36.4,13c32.3,0,58.4-26.2,58.4-58.4S349.9,276.6,317.6,276.6z"/>
	<path class="st2" d="M322.7,339.1c2.2-2.8,1.8-6.9-1-9.1c-1.2-0.9-2.6-1.4-4.1-1.4H109.9c-3.6,0-6.5,2.9-6.5,6.5
		c0,1.5,0.5,2.9,1.4,4.1l102.5,128.1v95.1h-45.4c-3.6,0-6.5,2.9-6.5,6.5s2.9,6.5,6.5,6.5h110.4c3.6,0,6.5-2.9,6.5-6.5
		s-2.9-6.5-6.5-6.5h-51.9v-95.1L322.7,339.1z"/>
	<polygon class="st3" points="273,380.4 213.8,454.5 154.5,380.4 	"/>
</g>
</svg>
