<?xml version="1.0" encoding="utf-8"?>
<!-- Generator: Adobe Illustrator 19.0.0, SVG Export Plug-In . SVG Version: 6.00 Build 0)  -->
<svg version="1.1" id="Capa_1" xmlns="http://www.w3.org/2000/svg" xmlns:xlink="http://www.w3.org/1999/xlink" x="0px" y="0px"
	 viewBox="-41 164.8 512.1 512.1" style="enable-background:new -41 164.8 512.1 512.1;" xml:space="preserve">
<style type="text/css">
	.st0{fill:#7F00FF;}
	.st1{fill:#607D8B;}
	.st2{fill:#CFD8DC;}
	.st3{fill:#455A64;}
	.st4{fill:#6D4C41;}
	.st5{fill:#FAFAFA;}
</style>
<circle class="st0" cx="215" cy="420.8" r="256"/>
<g>
	<path class="st1" d="M269.4,271.2H160.7c-18.7,0-33.9,15.2-33.9,33.9c0,3.7,3,6.8,6.8,6.8h163c3.7,0,6.8-3,6.8-6.8
		C303.3,286.4,288.1,271.2,269.4,271.2z"/>
	<path class="st2" d="M303.3,333.1l-3.9,33.1l-17.5,149.4l-5.7,48.3c-0.4,3.4-3.4,6-6.8,6H160.7c-3.4,0-6.3-2.6-6.8-6l-5.7-48.3
		l-17.5-149.4l-3.9-33.1c-0.2-1.9,0.4-3.9,1.8-5.3c1.2-1.5,3.1-2.3,5-2.3h163c1.9,0,3.8,0.8,5,2.3
		C302.9,329.3,303.5,331.2,303.3,333.1z"/>
	<path class="st3" d="M106.4,298.4h217.3c3.7,0,6.8,3,6.8,6.8v27.2c0,3.7-3,6.8-6.8,6.8H106.4c-3.7,0-6.8-3-6.8-6.8v-27.2
		C99.6,301.4,102.7,298.4,106.4,298.4z"/>
	<polygon class="st4" points="299.4,366.3 281.9,515.6 148.2,515.6 130.7,366.3 	"/>
</g>
<path class="st5" d="M231.5,418.5c-6.4-6.4-19.1-4.3-28.2,4.8c-9.1,9.1-11.3,21.7-4.8,28.2c2.6,2.5,6.2,3.8,9.8,3.7
	c7-0.4,13.6-3.4,18.4-8.5C235.8,437.6,238,425,231.5,418.5z M215.5,436c-6.7,2.6-12.8,6.6-17.7,11.9c-0.2,0.2-0.4,0.3-0.7,0.3
	c-0.6,0-1-0.5-1-1c0-0.3,0.1-0.5,0.3-0.7c5.1-5.4,11.4-9.6,18.3-12.3c6.7-2.6,12.8-6.6,17.7-11.9c0.4-0.4,1-0.4,1.4,0
	c0.4,0.4,0.4,1,0,1.4C228.7,429.1,222.4,433.2,215.5,436z"/>
</svg>
