<?xml version="1.0" encoding="utf-8"?>
<!-- Generator: Adobe Illustrator 19.0.0, SVG Export Plug-In . SVG Version: 6.00 Build 0)  -->
<svg version="1.1" id="Capa_1" xmlns="http://www.w3.org/2000/svg" xmlns:xlink="http://www.w3.org/1999/xlink" x="0px" y="0px"
	 viewBox="-41 164.8 512.1 512.1" style="enable-background:new -41 164.8 512.1 512.1;" xml:space="preserve">
<style type="text/css">
	.st0{fill:#7F00FF;}
	.st1{fill:#455A64;}
	.st2{fill:#64B5F6;}
	.st3{fill:#FFC107;}
	.st4{fill:#CFD8DC;}
	.st5{fill:#2196F3;}
</style>
<circle class="st0" cx="215" cy="420.8" r="256"/>
<g>
	<path class="st1" d="M190.5,540.2c-3.3,0-6-2.7-5.9-6c0-0.8,0.2-1.6,0.5-2.4l95.4-214.7c0.5-1.1,1.3-2.1,2.4-2.7l59.6-35.8
		c2.8-1.8,6.5-1,8.3,1.7c1.8,2.8,1,6.5-1.7,8.3c-0.1,0.1-0.2,0.2-0.4,0.2l-58,34.8L196,536.6C195,538.7,192.9,540.1,190.5,540.2z"/>
	<path class="st2" d="M214.4,301.6c-42.8,0.1-77.5,34.7-77.5,77.5c0,3.3,2.7,6,6,6H286c3.3,0,6-2.7,6-6
		C291.9,336.3,257.2,301.7,214.4,301.6z"/>
	<path class="st3" d="M279.5,470.7c-1.1-1.3-2.8-2.1-4.5-2.1H153.8c-3.3,0-6,2.7-6,6c0,0.3,0,0.6,0.1,0.9l12.9,83.5
		c0.4,2.9,2.9,5.1,5.9,5.1h95.4c2.9,0,5.4-2.1,5.9-5.1l12.9-83.5C281.1,473.7,280.7,472,279.5,470.7z"/>
	<path class="st4" d="M290.5,399.1c-1.1-1.3-2.8-2.1-4.5-2.1H142.8c-3.3,0-6,2.7-6,6c0,0.3,0,0.6,0.1,0.9l11,71.6
		c0.4,2.9,2.9,5.1,5.9,5.1H275c2.9,0,5.4-2.1,5.9-5.1l11-71.6C292.1,402.2,291.6,400.4,290.5,399.1z"/>
	<path class="st5" d="M119,373.2h190.8c3.3,0,6,2.7,6,6V403c0,3.3-2.7,6-6,6H119c-3.3,0-6-2.7-6-6v-23.9
		C113,375.8,115.7,373.2,119,373.2z"/>
</g>
</svg>
