<?xml version="1.0" encoding="utf-8"?>
<!-- Generator: Adobe Illustrator 19.0.0, SVG Export Plug-In . SVG Version: 6.00 Build 0)  -->
<svg version="1.1" id="Capa_1" xmlns="http://www.w3.org/2000/svg" xmlns:xlink="http://www.w3.org/1999/xlink" x="0px" y="0px"
	 viewBox="-41 164.8 512.1 512.1" style="enable-background:new -41 164.8 512.1 512.1;" xml:space="preserve">
<style type="text/css">
	.st0{fill:#7F00FF;}
	.st1{fill:#CFD8DC;}
	.st2{fill:#26DD26;}
	.st3{fill:#FAFAFA;}
	.st4{fill:#FFE424;}
</style>
<circle class="st0" cx="215" cy="420.8" r="256"/>
<g>
	<path class="st1" d="M283.4,284.2c-4.6,0-6.2-1.6-6.2-6.2c0-3.4-2.8-6.2-6.2-6.2H159.1c-3.4,0-6.2,2.8-6.2,6.2
		c0,4.6-1.6,6.2-6.2,6.2c-9.5-0.8-17.9,6.3-18.6,15.8c-0.1,0.9-0.1,1.9,0,2.8v236.1c-0.8,9.5,6.3,17.9,15.8,18.6
		c0.9,0.1,1.9,0.1,2.8,0c4.6,0,6.2,1.6,6.2,6.2c0,3.4,2.8,6.2,6.2,6.2H271c3.4,0,6.2-2.8,6.2-6.2c0-4.6,1.6-6.2,6.2-6.2
		c9.5,0.8,17.9-6.3,18.6-15.8c0.1-0.9,0.1-1.9,0-2.8V302.8c0.8-9.5-6.3-17.9-15.8-18.6C285.3,284.1,284.3,284.1,283.4,284.2z"/>
	<rect x="128.1" y="309" class="st2" width="174" height="223.7"/>
	<circle class="st3" cx="171.6" cy="489.2" r="18.6"/>
	<circle class="st4" cx="221.3" cy="427.1" r="31.1"/>
	<g>
		<circle class="st3" cx="264.8" cy="371.1" r="12.4"/>
		<circle class="st3" cx="196.4" cy="352.5" r="18.6"/>
	</g>
</g>
</svg>
