<?xml version="1.0" encoding="utf-8"?>
<!-- Generator: Adobe Illustrator 19.0.0, SVG Export Plug-In . SVG Version: 6.00 Build 0)  -->
<svg version="1.1" id="Capa_1" xmlns="http://www.w3.org/2000/svg" xmlns:xlink="http://www.w3.org/1999/xlink" x="0px" y="0px"
	 viewBox="-41 164.8 512.1 512.1" style="enable-background:new -41 164.8 512.1 512.1;" xml:space="preserve">
<style type="text/css">
	.st0{fill:#7F00FF;}
	.st1{fill:#F4F8F9;}
	.st2{fill:#FFC627;}
	.st3{fill:#455A64;}
</style>
<circle class="st0" cx="215" cy="420.8" r="256"/>
<g>
	<path class="st1" d="M283.8,616.8c-5.6,8.4-15,13.4-25.1,13.3c-7.7,0.6-15.4-2.3-20.8-7.8c-6.3,5.4-14.5,8.3-22.8,7.8
		c-8.3,0.4-16.5-2.4-22.8-7.8c-5.4,5.6-13,8.5-20.8,7.8c-10.1,0.1-19.5-4.9-25.1-13.3c-10.4-20.4-11-44.4-1.6-65.2l0.5-1.6V396
		c-0.2-0.4-0.3-0.9-0.3-1.4c-12.2-30.6-6.2-65.5,15.7-90.2c12.2-13.6,19.1-31.1,19.5-49.4c0-4.8,3.9-8.7,8.7-8.7h52.3
		c4.8,0,8.7,3.9,8.7,8.7c0.4,18.2,7.4,35.7,19.5,49.4c21.9,24.7,27.9,59.6,15.7,90.2c-0.1,0.5-0.2,0.9-0.3,1.4v154l0.5,1.6
		C294.7,572.5,294.2,596.5,283.8,616.8z"/>
	<path class="st2" d="M145.3,550V396c-0.2-0.4-0.3-0.9-0.3-1.4h140.2c-0.1,0.5-0.2,0.9-0.3,1.4v154l0.5,1.6H144.8L145.3,550z"/>
	<path class="st3" d="M223.8,211.5h-17.4c-14.4,0-26.2,11.7-26.2,26.2v17.4c0,4.8,3.9,8.7,8.7,8.7h52.3c4.8,0,8.7-3.9,8.7-8.7v-17.4
		C249.9,223.2,238.2,211.5,223.8,211.5z"/>
</g>
</svg>
