<?xml version="1.0" encoding="utf-8"?>
<!-- Generator: Adobe Illustrator 19.0.0, SVG Export Plug-In . SVG Version: 6.00 Build 0)  -->
<svg version="1.1" id="Capa_1" xmlns="http://www.w3.org/2000/svg" xmlns:xlink="http://www.w3.org/1999/xlink" x="0px" y="0px"
	 viewBox="-41 164.8 512.1 512.1" style="enable-background:new -41 164.8 512.1 512.1;" xml:space="preserve">
<style type="text/css">
	.st0{fill:#7F00FF;}
	.st1{fill:#CFD8DC;}
	.st2{fill:#F44336;}
</style>
<circle class="st0" cx="215" cy="420.8" r="256"/>
<g>
	<path class="st1" d="M277.4,559.5H222v-83.5c39.2-3.6,69.3-36.5,69.3-75.9c0-0.3,0-0.5,0-0.8l-13.9-124.8c-0.4-3.5-3.4-6.2-6.9-6.2
		H159.6c-3.5,0-6.5,2.6-6.9,6.2L138.8,400c0.1,39.4,30.1,72.3,69.3,75.9v83.5h-48.5c-3.8,0-6.9,3.1-6.9,6.9s3.1,6.9,6.9,6.9h117.8
		c3.8,0,6.9-3.1,6.9-6.9S281.3,559.5,277.4,559.5z"/>
	<path class="st2" d="M152.7,400.8l2.4-21.6h120.1l2.4,21.2c0.1,34.5-27.7,62.5-62.2,62.6C180.8,463.1,152.8,435.3,152.7,400.8z"/>
</g>
</svg>
