<?xml version="1.0" encoding="utf-8"?>
<!-- Generator: Adobe Illustrator 19.0.0, SVG Export Plug-In . SVG Version: 6.00 Build 0)  -->
<svg version="1.1" xmlns="http://www.w3.org/2000/svg" xmlns:xlink="http://www.w3.org/1999/xlink" x="0px" y="0px"
	 viewBox="0 0 1920 1076.5" style="enable-background:new 0 0 1920 1076.5;" xml:space="preserve">
<style type="text/css">
	.st0{clip-path:url(#SVGID_2_);}
	.st1{fill:#7F00FF;}
	.st2{fill:#F3F2F2;}
	.st3{fill:#DCDCDD;}
	.st4{fill:#5EB1D3;}
	.st5{fill:#6518D3;}
	.st6{fill:#4D4D4D;}
	.st7{fill:#F5D8E5;}
	.st8{opacity:5.000000e-002;}
	.st9{fill:#D64E71;}
	.st10{fill:#FDE5D7;}
	.st11{opacity:0.3;}
	.st12{fill:#D3D3D5;}
	.st13{fill:#D66994;}
	.st14{fill:#F4A5C5;}
	.st15{fill:#C6DAF0;}
	.st16{opacity:4.000000e-002;}
	.st17{fill:#B3C0D2;}
	.st18{opacity:0.5;fill:#FFFFFF;}
	.st19{fill:#808080;}
	.st20{fill:#A25667;}
	.st21{fill:#FDD3A2;}
	.st22{opacity:0.5;}
	.st23{fill:#F17C95;}
	.st24{opacity:0.2;}
	.st25{fill:#D31C5B;}
	.st26{opacity:0.2;fill:#D31C5B;}
	.st27{opacity:0.1;fill:#1A1A1A;}
	.st28{fill:#BC425B;}
	.st29{fill:#ACCBC4;}
	.st30{fill:#00A99D;}
	.st31{fill:#F2F2F2;}
	.st32{fill:#FBB03B;}
	.st33{fill:#F69220;}
	.st34{fill:#A5CFED;}
	.st35{fill:#91CAEC;}
	.st36{fill:#B8BABC;}
	.st37{fill:#E9BB62;}
	.st38{opacity:0.1;}
	.st39{fill:#E58925;}
	.st40{fill:#FBB26C;}
	.st41{fill:#FFFFFF;}
	.st42{fill:#E55881;}
	.st43{fill:#D5D6D5;}
	.st44{fill:#B1904B;}
	.st45{fill:#D1D2D4;}
	.st46{fill:#C28B55;}
	.st47{fill:#393E70;}
</style>
<g id="Background">
</g>
<g id="Clouds">
</g>
<g id="City_Background">
</g>
<g id="Ground">
</g>
<g id="La_x27_Tahzan_Cafe">
</g>
<g id="Green_Shop">
</g>
<g id="Orange_Store">
</g>
<g id="Lamp">
	<g>
		<defs>
			<rect id="SVGID_1_" x="0.1" width="1919.7" height="1076.5"/>
		</defs>
		<clipPath id="SVGID_2_">
			<use xlink:href="#SVGID_1_"  style="overflow:visible;"/>
		</clipPath>
		<g class="st0">
			<rect x="0.1" y="-222.9" class="st1" width="1919.9" height="1298.3"/>
			<path class="st2" d="M383,547.2c-0.3,0-0.5,0-0.8,0c-2.5-12.2-13.2-21.3-26.1-21.3c-7.6,0-14.5,3.2-19.3,8.3
				c-13.3,2.4-23.9,12.6-26.9,25.7c-0.3,0-0.6,0-0.8,0c-11.2,0-20.4,9.1-20.4,20.4c0,11.2,9.1,20.4,20.4,20.4
				c5.5,0,10.5-2.2,14.2-5.8c5.5,3.9,12.2,6.2,19.5,6.2c8.1,0,15.6-2.9,21.4-7.7c4.9,4.8,11.5,7.7,18.8,7.7
				c14.9,0,26.9-12,26.9-26.9S397.9,547.2,383,547.2z"/>
			<path class="st2" d="M149.8,304.8c-0.3,0-0.5,0-0.8,0c-2.5-12.2-13.2-21.3-26.1-21.3c-7.6,0-14.5,3.2-19.3,8.3
				c-13.3,2.4-23.9,12.6-26.9,25.7c-0.3,0-0.6,0-0.8,0c-11.2,0-20.4,9.1-20.4,20.4c0,11.2,9.1,20.4,20.4,20.4
				c5.5,0,10.5-2.2,14.2-5.8c5.5,3.9,12.2,6.2,19.5,6.2c8.1,0,15.6-2.9,21.4-7.7c4.9,4.8,11.5,7.7,18.8,7.7
				c14.9,0,26.9-12,26.9-26.9C176.7,316.9,164.6,304.8,149.8,304.8z"/>
			<path class="st2" d="M944.7,494.4c-0.3,0-0.7,0-1,0c-3.2-15.6-17-27.4-33.5-27.4c-9.8,0-18.6,4.1-24.8,10.7
				c-17.1,3.1-30.7,16.2-34.5,33c-0.4,0-0.7-0.1-1.1-0.1c-14.4,0-26.1,11.7-26.1,26.1c0,14.4,11.7,26.1,26.1,26.1
				c7.1,0,13.5-2.8,18.2-7.4c7.1,5,15.7,8,25.1,8c10.4,0,20-3.7,27.5-9.9c6.2,6.1,14.8,9.9,24.2,9.9c19.1,0,34.5-15.5,34.5-34.5
				C979.3,509.9,963.8,494.4,944.7,494.4z"/>
			<path class="st2" d="M1815.1,257.9c-0.3,0-0.6,0-0.9,0c-3-14.6-15.9-25.7-31.4-25.7c-9.1,0-17.4,3.8-23.2,10
				c-5.1,0.9-9.8,2.8-14.1,5.4c-2.7-1-5.6-1.6-8.6-1.6c-7,0-13.3,2.9-17.7,7.6c-12.2,2.2-21.9,11.5-24.6,23.5c-0.3,0-0.5,0-0.8,0
				c-10.3,0-18.7,8.4-18.7,18.7c0,10.3,8.4,18.7,18.7,18.7c4.4,0,8.4-1.5,11.6-4.1c4.3,7,12,11.6,20.8,11.6c6.6,0,12.6-2.6,17-6.9
				c6.6,4.7,14.7,7.5,23.5,7.5c9.8,0,18.7-3.5,25.7-9.2c5.8,5.7,13.8,9.2,22.6,9.2c17.9,0,32.3-14.5,32.3-32.3
				C1847.5,272.4,1833,257.9,1815.1,257.9z"/>
			<path class="st2" d="M1904.4,538.1c0-0.1,0-0.3,0-0.4c0-14.9-12-26.9-26.9-26.9c-0.3,0-0.5,0-0.8,0
				c-2.5-12.2-13.2-21.3-26.1-21.3c-7.6,0-14.5,3.2-19.3,8.3c-13.3,2.4-23.9,12.6-26.9,25.7c-0.3,0-0.6,0-0.8,0
				c-9.3,0-17.1,6.2-19.5,14.7H1904.4z"/>
			<path class="st3" d="M599.1,282.4c0-0.1,0-0.3,0-0.4c0-14.9-12-26.9-26.9-26.9c-0.3,0-0.5,0-0.8,0c-2.5-12.2-13.2-21.3-26.1-21.3
				c-7.6,0-14.5,3.2-19.3,8.3c-13.3,2.4-23.9,12.6-26.9,25.7c-0.3,0-0.6,0-0.8,0c-9.3,0-17.1,6.2-19.5,14.7H599.1z"/>
			<path class="st2" d="M862.1,335.1c0-0.3,0-0.5,0-0.8c0-30.9-25.1-56-56-56c-0.5,0-1.1,0-1.6,0c-5.1-25.4-27.5-44.5-54.4-44.5
				c-15.8,0-30.1,6.6-40.2,17.3c-27.7,5-49.8,26.2-55.9,53.5c-0.6,0-1.2-0.1-1.7-0.1c-19.3,0-35.6,12.9-40.7,30.6H862.1z"/>
			<g>
				<rect x="1443.5" y="878.5" class="st4" width="11" height="21.6"/>
				<path class="st5" d="M1913.4,967.3h-9.2v-46.5h-48.7V667.2h-32v119.3h-83.3v-36.7h-48.7v36.7h-19V549h-43.1v93.2h-74.8v63.3h-26
					v-155h-24.9v106.9h-20.1v-59.5H1448v22.9h3.5v15.3h-3.5v51.5h3.9v15.3h-3.9v2.5h-28.3V817h-38.5V516.2h-113.5V622h-35V396h-33.6
					v421H1172V458.1h-74.6v115.5h-83.3V465.2h6.2c6.9,0,12.4-6.9,12.4-15.4v-10.1c0-8.5-5.6-15.4-12.4-15.4h-7.7
					c0-15.7-10.3-28.4-23-28.4c-12.7,0-23,12.7-23,28.4h-7.7c-6.9,0-12.4,6.9-12.4,15.4v10.1c0,8.5,5.6,15.4,12.4,15.4h7.7V817
					h-68.9V686h-43.1v256.7h-35.1V530.5h-126v321.8h-19.8v90.4h-28.6V705.5h15.6v-26.6h-15.6v-19.5H633V622h-44.2v37.3h-11.5v19.5
					h-15.1v26.6h15.1v237.1h-40.3V622h-17.1l0-26h-66.3v26H442v320.6h-7.7V676.2h-23.9v266.5h-20.1V749.5h-47.6v193.1h-19.4V709.9
					h-31.6v-63H213v257.2h-7.4V737.5h-61.4v166.6H131v50.7h-17.1V818.1H63.7v48.1H48.2V763.4H33.3v191.4h-12V791.7H0.1v13.6h2.1v9.2
					H0.1v30.7h5.7v9.2H0.1v54h7.2v4.3H0.1v52.8h3.8v12.9H0.1v104h137.2v15.2h1613.1v-12.1h162.9V967.3z M50.9,885.5H66v9.2H50.9
					V885.5z M50.5,927.3h15.1v9.2H50.5V927.3z M72.4,1012.1H62v-12.9h10.4V1012.1z M75.7,845.2h15.1v9.2H75.7V845.2z M98.4,912.9
					H83.3v-9.2h15.1V912.9z M245.5,693.6H256v13h-10.5V693.6z M245.5,760H256v13h-10.5V760z M245.5,826.3H256v13h-10.5V826.3z
					 M245.5,892.7H256v13h-10.5V892.7z M222,664.6h10.5v13H222V664.6z M222,731h10.5v13H222V731z M222,797.3h10.5v13H222V797.3z
					 M222,863.7h1.9v13H222V863.7z M213,912.9v14.4h-7.4v-14.4H213z M179.9,937v-7.8h6.4v7.8H179.9z M179.9,746.7h15v18.6h-15V746.7
					z M179.9,781h15v18.6h-15V781z M179.9,815.4h15V834h-15V815.4z M179.9,849.7h15v18.6h-15V849.7z M179.9,884h15v18.6h-15V884z
					 M152.2,746.7h15v18.6h-15V746.7z M152.2,781h15v18.6h-15V781z M152.2,815.4h15V834h-15V815.4z M152.2,849.7h15v18.6h-15V849.7z
					 M133.6,912.9h10.6v14.4h-10.6V912.9z M134.2,1005.6V960h3.1v45.6H134.2z M279.5,934.7h-10.5v-13h10.5V934.7z M279.5,868.4
					h-10.5v-13h10.5V868.4z M279.5,802h-10.5v-13h10.5V802z M279.5,735.7h-10.5v-13h10.5V735.7z M302.9,897.4h-10.5v-13h10.5V897.4z
					 M302.9,831h-10.5v-13h10.5V831z M302.9,764.7h-10.5v-13h10.5V764.7z M381.9,923.8h-33.5v-9.2h33.5V923.8z M381.9,903.5h-33.5
					v-9.2h33.5V903.5z M381.9,883.2h-33.5V874h33.5V883.2z M381.9,862.9h-33.5v-9.2h33.5V862.9z M381.9,842.6h-33.5v-9.2h33.5V842.6
					z M381.9,822.3h-33.5V813h33.5V822.3z M381.9,801.9h-33.5v-9.2h33.5V801.9z M381.9,781.6h-33.5v-9.2h33.5V781.6z M471.8,776.6
					h-16.3v-20.1h16.3V776.6z M471.8,664.6h-16.3v-20.1h16.3V664.6z M499.8,828.1h-16.3V808h16.3V828.1z M508,709.3h-16.3v-20.1H508
					V709.3z M524.2,664.6H508v-20.1h16.3V664.6z M711.3,575.8h16.3v20.1h-16.3V575.8z M711.3,699.3h16.3v20.1h-16.3V699.3z
					 M735.7,888.7h-16.3v-20.1h16.3V888.7z M751.3,776.6H735v-20.1h16.3V776.6z M789.5,674.7h-16.3v-20.1h16.3V674.7z M789.5,606
					h-16.3v-20.1h16.3V606z M900.6,943h-22.9v-28.3h22.9V943z M966.7,905h-22.9v-28.3h22.9V905z M1068.9,919.2h-22.9v-28.3h22.9
					V919.2z M1097.4,817h-83.3V596h83.3V817z M1112.5,488.2h16.3v20.1h-16.3V488.2z M1120.7,684.7h-16.3v-20.1h16.3V684.7z
					 M1120.7,575.8h16.3v20.1h-16.3V575.8z M1148.4,868.5h-22.9v-28.3h22.9V868.5z M1155.8,724.1h-16.3v-9.4h16.3V724.1z
					 M1251.9,664.6h33.2v20.1h-33.2V664.6z M1251,756.4h33.2v20.1H1251V756.4z M1299.1,943h-22.9v-28.3h22.9V943z M1306.4,575.8
					h33.2v20.1h-33.2V575.8z M1356.3,724.7H1323v-20.1h33.2V724.7z M1672.9,881.7v-1.5h17.4v1.5H1672.9z M1691.4,801.2v24.2h-18.9
					v-24.2H1691.4z M1651,871.5h-12v-8.7h12V871.5z M1574.8,687.6h25.3v15.3h-25.3V687.6z M1549.7,760.7v9.9h-16.4v-9.9H1549.7z
					 M1433.7,724.7h14.2v31.7h-14.2V724.7z M1435.1,828.5h12.9v60.7h6.4v21.6h-6.4v17.9h-12.9V828.5z M1750.5,952.6h-0.1v-10h-12.3
					v-14.2h12.4V952.6z M1760.3,852.8h-19.5v-24.2h19.5V852.8z M1812.1,825.3h-19.5v-24.2h19.5V825.3z M1837.5,930.5H1818v-24.2
					h19.5V930.5z"/>
				<rect x="6.5" y="897.6" class="st4" width="0.2" height="4.3"/>
			</g>
			<rect x="-0.1" y="1075.8" class="st6" width="1919.8" height="30"/>
			<g>
				<rect x="228.4" y="809.1" class="st7" width="577.2" height="266.1"/>
				<g>
					<path class="st8" d="M785.8,810.5h-41.2h-41.2h-41.2h-41.2h-41.2h-41.2h-41.2h-41.2h-41.2h-41.2h-41.2h-41.2h-41.2h-21.5V871
						c0.3,0,0.6,0,0.9,0c11.4,0,20.6-5.4,20.6-12c0,6.6,9.2,12,20.6,12c11.4,0,20.6-5.4,20.6-12c0,6.6,9.2,12,20.6,12
						c11.4,0,20.6-5.4,20.6-12c0,6.6,9.2,12,20.6,12c11.4,0,20.6-5.4,20.6-12c0,6.6,9.2,12,20.6,12c11.4,0,20.6-5.4,20.6-12
						c0,6.6,9.2,12,20.6,12c11.4,0,20.6-5.4,20.6-12c0,6.6,9.2,12,20.6,12c11.4,0,20.6-5.4,20.6-12c0,6.6,9.2,12,20.6,12
						c11.4,0,20.6-5.4,20.6-12c0,6.6,9.2,12,20.6,12c11.4,0,20.6-5.4,20.6-12c0,6.6,9.2,12,20.6,12c11.4,0,20.6-5.4,20.6-12
						c0,6.6,9.2,12,20.6,12c11.4,0,20.6-5.4,20.6-12c0,6.6,9.2,12,20.6,12c11.4,0,20.6-5.4,20.6-12c0,6.6,9.2,12,20.6,12
						c11.4,0,20.6-5.4,20.6-12c0,6.6,9.2,12,20.6,12c11.4,0,20.6-5.4,20.6-12c0,6.6,9.2,12,20.6,12v-60.5H785.8z"/>
					<g>
						<path class="st9" d="M209.5,759v83.1c0,11.4,9.2,20.6,20.6,20.6c11.4,0,20.6-9.2,20.6-20.6V759H209.5z"/>
						<path class="st10" d="M250.6,759v83.1c0,11.4,9.2,20.6,20.6,20.6c11.4,0,20.6-9.2,20.6-20.6V759H250.6z"/>
						<path class="st9" d="M291.8,759v83.1c0,11.4,9.2,20.6,20.6,20.6c11.4,0,20.6-9.2,20.6-20.6V759H291.8z"/>
						<path class="st10" d="M332.9,759v83.1c0,11.4,9.2,20.6,20.6,20.6c11.4,0,20.6-9.2,20.6-20.6V759H332.9z"/>
						<path class="st9" d="M374.1,759v83.1c0,11.4,9.2,20.6,20.6,20.6c11.4,0,20.6-9.2,20.6-20.6V759H374.1z"/>
						<path class="st10" d="M415.3,759v83.1c0,11.4,9.2,20.6,20.6,20.6c11.4,0,20.6-9.2,20.6-20.6V759H415.3z"/>
						<path class="st9" d="M456.4,759v83.1c0,11.4,9.2,20.6,20.6,20.6c11.4,0,20.6-9.2,20.6-20.6V759H456.4z"/>
						<path class="st10" d="M497.6,759v83.1c0,11.4,9.2,20.6,20.6,20.6c11.4,0,20.6-9.2,20.6-20.6V759H497.6z"/>
						<path class="st9" d="M538.8,759v83.1c0,11.4,9.2,20.6,20.6,20.6c11.4,0,20.6-9.2,20.6-20.6V759H538.8z"/>
						<path class="st10" d="M579.9,759v83.1c0,11.4,9.2,20.6,20.6,20.6c11.4,0,20.6-9.2,20.6-20.6V759H579.9z"/>
						<path class="st9" d="M621.1,759v83.1c0,11.4,9.2,20.6,20.6,20.6c11.4,0,20.6-9.2,20.6-20.6V759H621.1z"/>
						<path class="st10" d="M662.3,759v83.1c0,11.4,9.2,20.6,20.6,20.6c11.4,0,20.6-9.2,20.6-20.6V759H662.3z"/>
						<path class="st9" d="M703.4,759v83.1c0,11.4,9.2,20.6,20.6,20.6c11.4,0,20.6-9.2,20.6-20.6V759H703.4z"/>
						<path class="st10" d="M744.6,759v83.1c0,11.4,9.2,20.6,20.6,20.6c11.4,0,20.6-9.2,20.6-20.6V759H744.6z"/>
						<path class="st9" d="M785.8,759v83.1c0,11.4,9.2,20.6,20.6,20.6c11.4,0,20.6-9.2,20.6-20.6V759H785.8z"/>
					</g>
				</g>
				<g>
					<polygon class="st11" points="393.9,778.9 393.9,807.4 393.9,819.9 646.1,819.9 646.1,778.9 					"/>
					<g>
						<g>
							<rect x="392" y="776.9" class="st12" width="252.1" height="41"/>
							<rect x="397.8" y="781.3" class="st2" width="240.4" height="32.3"/>
						</g>
						<g>
							<path class="st9" d="M435.9,804.9c-0.6,0.2-1.4,0.6-2.1,0.6c-0.4,0-0.8-0.1-0.8-0.6c0-0.6,1.3-2.1,1.7-2.7
								c0.2-0.3,0.4-0.6,0.8-0.8c1.1-0.3,2.3-0.3,3.5-0.5l7.8-9.3c1-1.2,4.9-5.2,6.3-5.2c0.9,0,1.3,1,1.3,1.7c0,1.7-2.2,4.9-3.1,6.4
								c0.2,0,0.5,0.1,0.5,0.4c0,0.5-1.1,1.3-1.5,1.6c-0.5,0.3-1.8,1.4-2.3,1.4c-0.5,0-0.6-0.4-0.6-0.8c0-2,2.3-4.9,3.6-6.4
								c0.2-0.2,0.2-0.5,0.1-0.5c-0.3,0-1.5,1.1-4.5,4.5l-5.4,6.1c4.5,0.9,6.8,1.3,10.8,2.3l-1.4,1.4c-1.7,1.7-1.6,1.8-6.9,0.7
								c-2.4-0.5-4.8-0.8-7.2-0.8L435.9,804.9z"/>
							<path class="st9" d="M457.6,803.6c-0.5,0.4-2.2,1.8-2.8,1.8c-0.8,0-2.3-1.8-2.4-3.2c-0.1-3.4,6.9-6.8,10-6.9
								c1.2,0,1.7,1,1.7,1.3c0,0.3-0.7,0.6-0.9,0.7c0.5,0.2,0.8,0.5,0.8,1.1c0,0.9-2.3,2.7-2.3,4c0,0.5,0.4,0.6,0.8,0.6
								c1.1,0,2.7-1.4,3.8-2.1l0.2,1c-1.2,1.3-4.8,4.2-6.1,4.2c-0.9,0-1.3-0.6-1.3-1.4c0-0.9,0.6-2.3,1-3l-0.1-0.1L457.6,803.6z
								 M454.3,802.9c0,0.1,0.1,0.6,0.5,0.5c0.5-0.1,1.4,0,6.7-5.4l-0.1-0.1C455.1,800,454.3,801.6,454.3,802.9z"/>
							<path class="st9" d="M473.6,787c0.4,0,1.4,0,1.4,0.6c0,0.7-0.8,2.4-1.3,3c-1.6,2-2.2,1.8-2.8,1.8c0.4-0.6,0.9-1.2,1.2-1.8
								c-0.5-0.2-1-0.3-1-0.9C471.2,788.6,472.5,787,473.6,787z"/>
							<path class="st9" d="M483.2,794.2c-1.3,2.6-1.5,3.5-4.4,3.4c-0.9,1.2-2.4,3.4-2.4,5c0,0.6,0.2,0.9,0.8,0.9
								c0.9,0,1.8-0.8,4.6-2.8l0.1,1.2c-1.6,1.5-4.5,4.3-6.8,4.3c-1,0-1.7-0.7-1.7-1.8c0-0.9,0.3-1.9,0.7-2.7l-0.1-0.1l-1.4,1.1
								l-0.3-1c1.6-1.2,3.1-2.6,4.1-4.3c-1.6,0-1.1-0.1-2.6,0.1l0.3-0.5c1.5-2.4,1.7-2.8,4.5-2.9c0.8-1.1,1.4-2.4,3-2.4
								c0.3,0,0.9,0.1,0.9,0.5c0,0.5-0.8,1.4-1,1.7L483.2,794.2z"/>
							<path class="st9" d="M486.1,803.6c-0.5,0.4-2.2,1.8-2.8,1.8c-0.8,0-2.3-1.8-2.4-3.2c-0.1-3.4,6.9-6.8,10-6.9
								c1.2,0,1.7,1,1.7,1.3c0,0.3-0.7,0.6-0.9,0.7c0.5,0.2,0.8,0.5,0.8,1.1c0,0.9-2.3,2.7-2.3,4c0,0.5,0.4,0.6,0.8,0.6
								c1.1,0,2.7-1.4,3.8-2.1l0.2,1c-1.2,1.3-4.8,4.2-6.1,4.2c-0.9,0-1.3-0.6-1.3-1.4c0-0.9,0.6-2.3,1-3l-0.1-0.1L486.1,803.6z
								 M482.8,802.9c0,0.1,0.1,0.6,0.5,0.5c0.5-0.1,1.4,0,6.7-5.4L490,798C483.6,800,482.8,801.6,482.8,802.9z"/>
							<path class="st9" d="M496.4,802.1c1.3-1,6.2-5.3,7.7-5.3c0.6,0,1.3,0.7,1.3,1.3c0,0.5-1.1,1.7-1.4,2.1
								c-1.7,2-1.6,2.1-1.6,2.4c0,0.3,0.3,0.6,0.6,0.6c0.9,0,2.8-1.4,3.6-2l0.1,1.1c-1.2,0.9-4.5,3.6-6,3.6c-0.8,0-1.2-0.7-1.2-1.4
								c0-1.7,1.9-3.7,2.8-5l-0.1-0.1c-4.6,3.1-5.9,6-6.8,6c-0.9,0-1.1-2.1-1.1-2.7c0-1.9,0.7-3.1,1.6-4.7c3.2-5.2,8.5-9.9,9.4-9.9
								c0.4,0,1.2,0.2,1.2,0.7c0,1.8-8.5,10.7-10.3,12.4V802.1z"/>
							<path class="st9" d="M512.6,804.7c-0.6,4.3-4.8,7-6.6,7.2c-0.7,0.1-1.2-0.6-1.2-1.3c0-1.5,1.3-2.6,2.4-3.5l3.5-2.8
								c-0.3-1.1-0.7-1.3-1.7-1.6c-0.4-0.1-1-0.2-1-0.7c0.1-0.9,1.9-1.6,4.9-4.1l-0.1-0.1l-3.3,0.6l-3.1,3.3l-0.3-0.9l1.9-2.3
								c-0.4-0.1-0.7-0.2-0.7-0.7c0-1,2.1-2.9,2.9-2.9c0.5,0,0.7,0.5,0.7,0.9c2.1-0.3,3-0.8,3.6-0.8c0.5,0,0.9,1.8,0.9,2.1
								c0,0.4-0.5,0.8-0.8,1l-3.4,2.5c0.7,0.5,1.2,1.2,1.4,2.1l4.2-3.3l0.1,1.2L512.6,804.7z M507.6,808.4c-0.8,0.6-1.3,1.2-1.5,2.2
								c1.8-0.5,4.2-2.7,4.5-4.6L507.6,808.4z"/>
							<path class="st9" d="M520.9,803.6c-0.5,0.4-2.2,1.8-2.8,1.8c-0.8,0-2.3-1.8-2.4-3.2c-0.1-3.4,6.9-6.8,10-6.9
								c1.2,0,1.7,1,1.7,1.3c0,0.3-0.7,0.6-0.9,0.7c0.5,0.2,0.8,0.5,0.8,1.1c0,0.9-2.3,2.7-2.3,4c0,0.5,0.4,0.6,0.8,0.6
								c1.1,0,2.7-1.4,3.8-2.1l0.2,1c-1.2,1.3-4.8,4.2-6.1,4.2c-0.9,0-1.3-0.6-1.3-1.4c0-0.9,0.6-2.3,1-3l-0.1-0.1L520.9,803.6z
								 M517.6,802.9c0,0.1,0.1,0.6,0.5,0.5c0.5-0.1,1.4,0,6.7-5.4l-0.1-0.1C518.4,800,517.6,801.6,517.6,802.9z"/>
							<path class="st9" d="M542.2,800.1l0.2,1.2c-1.4,1.3-4.2,4.6-6.1,4.6c-1,0-1.5-0.9-1.5-1.8c0-1.6,1.5-3.4,2.3-4.6l-0.1-0.1
								c-1.6,1.2-2.9,2.6-4.1,4.1c-0.4,0.5-1.4,1.8-2.1,1.8c-1.2,0-1.5-1.7-1.5-2.6c-0.1-1.9,1.6-4.6,3.2-5.9c0.3-0.3,0.6-0.3,1-0.3
								c1.6,0.1,1.5,0.4,1.5,0.6c0,1-3.4,3.8-3.4,4.4c0,0.2,0.1,0.3,0.3,0.3c0.2,0,0.4-0.2,0.5-0.4c2.1-2.7,7.1-6,7.9-6
								c0.1,0,0.3,0.1,0.4,0.5c0.2,0.4,0.3,0.9,0.4,1.5c0,1-3.3,3.1-3.3,4.9c0,0.2,0.2,0.5,0.5,0.5c0.6,0,1.8-0.9,2.3-1.3
								L542.2,800.1z"/>
							<path class="st9" d="M562.4,795.2c0.2-0.2,1.1-1,1.4-1c0.3,0,0.4,0.2,0.3,0.6l0.1,0.1c2.6-2.3,4.3-4.7,4.3-5.6
								c0-0.5-0.3-0.6-0.7-0.5c-0.5,0.1-3.5,0.2-9.6,7.3c-1.9,2.2-3.2,5.2-3.2,7.2c0,1.9,0.9,3,2.8,3c3.4,0,9.3-4.4,11.8-6.7
								c0.1,1.4-0.3,1.7-1.4,2.7c-5.2,5-9.7,6.7-12.2,6.7c-3,0-5.1-1.9-5.1-4.9c0-3.9,3.3-8.2,6.1-10.8c2.3-2.2,7.9-6.5,11.1-6.5
								c1.6,0,2.7,0.9,2.7,2.6c0.2,3.6-6.7,10.5-10.1,11c-0.8,0.1-1.5-0.4-1.5-1.3c0-0.8,0.7-1.6,1.3-2.1L562.4,795.2z"/>
							<path class="st9" d="M574.6,803.6c-0.5,0.4-2.2,1.8-2.8,1.8c-0.8,0-2.3-1.8-2.4-3.2c-0.1-3.4,6.9-6.8,10-6.9
								c1.2,0,1.7,1,1.7,1.3c0,0.3-0.7,0.6-0.9,0.7c0.5,0.2,0.8,0.5,0.8,1.1c0,0.9-2.3,2.7-2.3,4c0,0.5,0.4,0.6,0.8,0.6
								c1.1,0,2.7-1.4,3.8-2.1l0.2,1c-1.2,1.3-4.8,4.2-6.1,4.2c-0.9,0-1.3-0.6-1.3-1.4c0-0.9,0.6-2.3,1-3l-0.1-0.1L574.6,803.6z
								 M571.4,802.9c0,0.1,0.1,0.6,0.5,0.5c0.5-0.1,1.4,0,6.7-5.4l-0.1-0.1C572.2,800,571.4,801.6,571.4,802.9z"/>
							<path class="st9" d="M586.7,800.8c0.8,0.5,1,1.3,1.4,2.1l3.6-2.3l0.3,1c-1.1,1-2.1,1.9-3.5,2.6c0.1,0.5,0.1,1,0,1.5
								c-0.2,3.2-4,6.2-5.9,6.4c-1.2,0.2-1.6-2.3-1.6-3.2c0-1.7,1.2-3.9,1.9-5.4c-0.4-0.5-0.8-0.9-0.8-1.5c0-1.1,0.7-1.4,1.5-1.8
								c1.6-0.9,2.4-2.1,3.3-3.7c0.7-1.3,4.2-7.7,5.5-7.7c0.6,0,0.6,0.8,0.6,1.2c0,1-0.8,2.9-1.4,3.8L586.7,800.8z M586.6,804.7
								c-0.9,0.1-1.3,0-1.9-0.2c-0.7,1.2-1.1,2.1-1.2,3c-0.1,0.9,0.1,1.6,0.5,2.4C585.6,808.8,586.8,806.7,586.6,804.7z"/>
							<path class="st9" d="M601.6,801.4c-1.6,1.9-4.6,4.4-7.3,4.4c-2,0-2.9-1.7-2.9-3.5c-0.1-3.5,3.8-7.1,7.3-7.1
								c0.9,0,1.9,0.2,1.9,1.3c0,1.3-1.3,3.3-6.5,5l-0.1,0.6c-0.1,1,0.8,1.4,1.7,1.4c1.9,0,4.2-2,5.6-3.1L601.6,801.4z M598.3,797.1
								c0-0.2-0.1-0.3-0.3-0.3c-1.3,0.3-2.9,1.6-3.6,3.4C596.7,799.4,598.3,797.6,598.3,797.1z"/>
						</g>
						<polygon class="st9" points="418.9,798 422,786.4 415.3,786.4 418.3,798 418.3,806.1 417.1,806.1 417.1,806.7 420.2,806.7 
							420.2,806.1 418.9,806.1 						"/>
						<g>
							<path class="st13" d="M621.5,803.2c0.7,0.1,1.5,0,2.3-0.3c1.7-0.7,2.6-2.2,2-3.4c-0.4-0.9-1.5-1.4-2.8-1.2
								c0-0.2,0-0.3-0.1-0.5h-15c-0.1,0.4-0.1,0.7-0.1,1.1c0,3.1,2,5.7,4.4,5.7h-5.7v0.6h18v-0.6h-5.8
								C619.7,804.6,620.7,804.1,621.5,803.2z M625.2,799.7c0.5,1-0.3,2.2-1.6,2.8c-0.6,0.2-1.2,0.3-1.7,0.2c0.7-1,1.1-2.3,1.1-3.8
								c0-0.1,0-0.1,0-0.2C624,798.7,624.8,799,625.2,799.7z"/>
							<g>
								<path class="st13" d="M614.6,795.1c0,0-1.4-2.9,0.4-4.3c0.7-0.6,0.2-2.2,0-3.4C615.6,790.3,611.9,790.5,614.6,795.1z"/>
								<path class="st13" d="M615.3,796.5c0,0,0.9-1.1-0.4-2.1c-0.5-0.4-0.2-1.7,0-2.6C614.5,794.1,617.3,793.1,615.3,796.5z"/>
							</g>
						</g>
						<polygon class="st8" points="392,805.4 392,776.9 644.1,776.9 						"/>
					</g>
				</g>
				<g>
					<rect x="250.6" y="872.9" class="st14" width="102.9" height="201.8"/>
					<rect x="255.7" y="877.8" class="st15" width="93.6" height="93.6"/>
					<rect x="255.7" y="976.8" class="st15" width="93.6" height="93.6"/>
					<g>
						<path class="st9" d="M319.1,942.9h-33.2c-1.7,0-2.2-0.7-2.4-1.2c-0.2-0.4-0.3-1.3,0.9-2.5l15.2-15.2c0.8-0.8,1.8-1.2,2.9-1.2
							c1.1,0,2.2,0.4,2.9,1.2l15.2,15.2c1.2,1.2,1,2.1,0.9,2.5C321.3,942.2,320.7,942.9,319.1,942.9z M302.5,924.3
							c-0.7,0-1.4,0.3-1.9,0.8l-15.2,15.2c-0.5,0.5-0.6,0.8-0.5,0.9c0,0.1,0.3,0.3,1,0.3h33.2c0.7,0,1-0.2,1-0.3
							c0-0.1-0.1-0.4-0.5-0.9l-15.2-15.2C303.9,924.6,303.2,924.3,302.5,924.3z"/>
					</g>
					<g>
						<rect x="276.4" y="939.3" class="st10" width="52.3" height="15.7"/>
						<g>
							<path class="st9" d="M294.8,947.2c0,1.3-0.3,2.4-1,3.1c-0.7,0.8-1.6,1.1-2.8,1.1c-1.2,0-2.2-0.4-2.8-1.1
								c-0.7-0.7-1-1.8-1-3.2c0-1.3,0.3-2.4,1-3.1c0.7-0.7,1.6-1.1,2.8-1.1c1.2,0,2.1,0.4,2.8,1.1
								C294.5,944.9,294.8,945.9,294.8,947.2z M288.2,947.2c0,1.1,0.2,2,0.7,2.5c0.5,0.6,1.2,0.9,2.1,0.9c0.9,0,1.6-0.3,2.1-0.9
								c0.5-0.6,0.7-1.4,0.7-2.6c0-1.1-0.2-2-0.7-2.5c-0.5-0.6-1.2-0.9-2.1-0.9c-0.9,0-1.6,0.3-2.1,0.9
								C288.5,945.3,288.2,946.1,288.2,947.2z"/>
							<path class="st9" d="M301.9,945.5c0,0.8-0.3,1.5-0.9,1.9c-0.6,0.5-1.4,0.7-2.5,0.7h-1v3.3h-1v-8.3h2.1
								C300.9,943.1,301.9,943.9,301.9,945.5z M297.6,947.3h0.9c0.9,0,1.5-0.1,1.9-0.4c0.4-0.3,0.6-0.7,0.6-1.3c0-0.5-0.2-1-0.5-1.2
								c-0.4-0.3-0.9-0.4-1.7-0.4h-1.1V947.3z"/>
							<path class="st9" d="M308.3,951.4h-4.6v-8.3h4.6v0.9h-3.7v2.7h3.4v0.8h-3.4v3h3.7V951.4z"/>
							<path class="st9" d="M316.6,951.4h-1.1l-4.5-6.9h0c0.1,0.8,0.1,1.6,0.1,2.2v4.7h-0.9v-8.3h1.1l4.5,6.9h0c0-0.1,0-0.4-0.1-1
								c0-0.6,0-0.9,0-1.2v-4.7h0.9V951.4z"/>
						</g>
					</g>
					<circle class="st10" cx="302.5" cy="925.7" r="1.8"/>
					<polygon class="st16" points="250.6,953.5 250.6,872.9 353.5,872.9 					"/>
				</g>
				<g>
					<rect x="362.9" y="873.3" class="st14" width="417.5" height="140.2"/>
					<rect x="367.9" y="879.1" class="st15" width="404.4" height="128.4"/>
					<g>
						<path class="st17" d="M403.7,965.1c-2.9,0.4-5.1,2.5-5.1,5v37.4h3v-38C401.7,967.8,402.5,966.2,403.7,965.1z"/>
						<path class="st17" d="M631.7,965.1c1.3,1.1,2.1,2.6,2.1,4.4v38h3v-37.4C636.8,967.6,634.6,965.5,631.7,965.1z"/>
						<path class="st17" d="M538.9,961.9c0.3,0.6,0.7,1.8,1.1,3.3c0.6-0.7,1.1-1.4,1.6-2.1c1.8-2.5,3.1-3.8,1.6-5
							c-0.7-0.5-3,0-4.8,0.6c0,0,0,0.1,0,0.1c0,0,0,0.1,0,0.1c0,0.3,0,0.7,0,1c0,0,0,0.1,0,0.1c0,0.1,0,0.2,0,0.3c0,0.1,0,0.1,0,0.2
							c0,0.1,0,0.2,0.1,0.3c0,0.1,0,0.1,0,0.2c0,0.1,0,0.2,0.1,0.3c0,0,0,0.1,0,0.1C538.8,961.6,538.8,961.8,538.9,961.9z"/>
						<path class="st17" d="M411.1,965.1c1.3,1.1,2.1,2.6,2.1,4.4v38h3v-37.4C416.2,967.6,414,965.5,411.1,965.1z"/>
						<path class="st17" d="M560.6,976.3c1.1-0.5,1.7-1.6,1.3-2.5c-0.3-0.6-1-1-1.8-0.9c0,0.1,0,0.1,0,0.2c0,1.3-0.4,2.5-0.9,3.4
							C559.6,976.6,560.1,976.5,560.6,976.3z"/>
						<path class="st17" d="M481.4,972.9c-0.8-0.1-1.5,0.3-1.8,0.9c-0.4,0.9,0.2,2,1.3,2.5c0.5,0.2,1,0.3,1.4,0.2
							c-0.6-0.9-0.9-2.1-0.9-3.4C481.4,973.1,481.4,973,481.4,972.9z"/>
						<path class="st17" d="M624.4,965.1c-2.9,0.4-5.1,2.5-5.1,5v37.4h3v-38C622.3,967.8,623.1,966.2,624.4,965.1z"/>
						<path class="st17" d="M580.1,1005.2l2.5-1.5v-0.9v-5.6V996v-1.2v-2v-1.1v-0.9v-4v-0.7v-5.6v-2H582h-2.7h-2.8h-5.6h-0.7h-4.8
							h-4v-0.5h-4.8c0.9,0,1.7-0.5,2.4-1.2c0.6,0.1,1.2,0,1.9-0.2c1.4-0.6,2.1-2,1.6-3.1c-0.3-0.8-1.3-1.2-2.3-1.1
							c0-0.1,0-0.3,0-0.4h-4.5h-7.9c0,0.3-0.1,0.7-0.1,1c0,2.8,1.6,5,3.6,5h-4.7v0.5h-3.4h-0.3h-4.1c2.4-3.6,2.4-8,1.7-11.4
							c0.5-1.2,1.3-2.3,2.1-3.4c1.6-2.4,3.2-4.6,1.1-6.2c-1-0.8-3.6-0.1-5.2,0.4c0,0,0,0,0-0.1c0-0.1,0-0.1,0-0.2c0-0.1,0-0.2,0-0.3
							c0-0.1,0-0.1,0-0.2c0-0.1,0-0.2,0-0.2c0-0.6,0.1-1,0.1-1.3h0c0.2,0,0.4-0.2,0.4-0.4c0-0.2-0.2-0.4-0.4-0.4h-0.2
							c-0.1-0.1-0.1-0.1-0.2-0.2c0,0-0.1,0-0.1-0.1c0,0-0.1-0.1-0.1-0.1c-0.1,0-0.1-0.1-0.2-0.1c0,0-0.1,0-0.1,0
							c-0.1,0-0.2-0.1-0.3-0.1c0,0,0,0-0.1,0c-0.1,0-0.2-0.1-0.3-0.1c0,0,0,0,0,0c-0.1,0-0.3-0.1-0.4-0.1c0,0,0,0,0,0
							c-0.3-0.1-0.6-0.1-0.9-0.1c0,0,0,0,0,0c-0.1,0-0.2,0-0.3,0c0-0.2-0.4-0.4-0.8-0.4c-0.4,0-0.8,0.2-0.8,0.4
							c-1.5,0.1-2.7,0.5-3.3,1h-0.2c-0.2,0-0.4,0.2-0.4,0.4c0,0,0,0.1,0,0.1h-2h-0.4c0,0,0,0,0,0c0,0,0,0,0,0c0,0,0.1,0,0.2,0
							c0,0,0,0,0,0c0,0,0.1,0,0.2,0c1.1,0.2,4.1,1.1,2.1,6.4c-0.8,2.1-4,10.7,0.2,16.8h-3.8h-1.1l-3.7-7.5v-6l0,0l0,0h-13.5l0,0h0
							v13.5h-1.8h-2.2h-5.6h-1.3h-2.2v-0.5h-4.7c2,0,3.6-2.3,3.6-5c0-0.3,0-0.7-0.1-1h-4.5h-7.8c0,0.1,0,0.3,0,0.4
							c-1-0.1-1.9,0.3-2.3,1.1c-0.5,1.1,0.3,2.4,1.6,3.1c0.6,0.3,1.3,0.4,1.9,0.2c0.6,0.8,1.5,1.2,2.4,1.2h-4.8v0.5H479h-2.7h-5.6
							h-0.9h-4.7h-4.4h-1.2h-5.6h-0.9v0.9v0.6v5v4.1v1.4v5.6v0v1.9v0.2v1.8v1.6v1.4v4.2v0.1h127.2L580.1,1005.2z M560.1,973.1
							c0-0.1,0-0.1,0-0.2c0.8-0.1,1.5,0.3,1.8,0.9c0.4,0.9-0.2,2-1.3,2.5c-0.5,0.2-1,0.3-1.4,0.2
							C559.7,975.6,560.1,974.4,560.1,973.1z M481,976.3c-1.1-0.5-1.7-1.6-1.3-2.5c0.3-0.6,1-1,1.8-0.9c0,0.1,0,0.1,0,0.2
							c0,1.3,0.4,2.5,0.9,3.4C481.9,976.6,481.5,976.5,481,976.3z M538.6,961.1c0-0.1,0-0.1,0-0.2c0-0.1,0-0.2-0.1-0.3
							c0-0.1,0-0.1,0-0.2c0-0.1,0-0.2,0-0.3c0,0,0-0.1,0-0.1c0-0.3,0-0.7,0-1c0,0,0-0.1,0-0.1c0,0,0-0.1,0-0.1
							c1.8-0.6,4.1-1.1,4.8-0.6c1.5,1.2,0.2,2.5-1.6,5c-0.5,0.7-1.1,1.4-1.6,2.1c-0.4-1.5-0.9-2.7-1.1-3.3c-0.1-0.1-0.1-0.3-0.1-0.4
							c0,0,0-0.1,0-0.1C538.7,961.3,538.6,961.2,538.6,961.1z"/>
						<path class="st17" d="M553.1,969.7c0,0-1.1-2.6,0.3-3.9c0.6-0.5,0.2-2,0-3.1C553.9,965.4,550.9,965.6,553.1,969.7z"/>
						<path class="st17" d="M553.9,970.5c-0.1,0.1-0.1,0.3-0.2,0.4C553.7,971,553.9,970.8,553.9,970.5z"/>
						<path class="st17" d="M553.4,966.8c-0.1,0.8-0.4,1.9,0,2.3c0.6,0.5,0.6,1.1,0.5,1.4C555.1,968,553.1,968.7,553.4,966.8z"/>
						<path class="st17" d="M488.4,969.7c2.2-4-0.8-4.3-0.3-6.9c-0.2,1.1-0.6,2.5,0,3.1C489.5,967.1,488.4,969.7,488.4,969.7z"/>
						<path class="st17" d="M487.6,970.5c0.1,0.3,0.2,0.4,0.2,0.4C487.7,970.8,487.7,970.7,487.6,970.5z"/>
						<path class="st17" d="M488.1,969.1c0.5-0.4,0.1-1.5,0-2.3c0.4,1.9-1.7,1.2-0.5,3.8C487.5,970.2,487.5,969.6,488.1,969.1z"/>
						<path class="st17" d="M619.3,970.1c0-2.5,2.2-4.6,5.1-5c-1.3,1.1-2.1,2.6-2.1,4.4v38h11.5v-38c0-1.8-0.8-3.4-2.1-4.4
							c2.9,0.4,5.1,2.5,5.1,5v37.4h2.5v-37.4c0-3.9-3.9-7.1-8.6-7.1h-5.2c-4.8,0-8.6,3.2-8.6,7.1v37.4h2.5V970.1z"/>
						<path class="st17" d="M398.7,970.1c0-2.5,2.2-4.6,5.1-5c-1.3,1.1-2.1,2.6-2.1,4.4v38h11.5v-38c0-1.8-0.8-3.4-2.1-4.4
							c2.9,0.4,5.1,2.5,5.1,5v37.4h2.5v-37.4c0-3.9-3.9-7.1-8.6-7.1h-5.2c-4.8,0-8.6,3.2-8.6,7.1v37.4h2.5V970.1z"/>
					</g>
					<polygon class="st18" points="772.3,879.1 524.4,879.1 367.9,932.4 367.9,1007.5 398.1,1007.5 772.3,880 					"/>
					<polygon class="st18" points="457.8,1007.5 772.3,900.3 772.3,889.7 426.5,1007.5 					"/>
					<polygon class="st18" points="709.1,1007.5 772.3,986 772.3,975.3 677.8,1007.5 					"/>
				</g>
				<g>
					<g>
						<path class="st19" d="M523.6,1074.9h-2.3c-3.5-5.2-10.8-9.1-19.5-10.1v-12.3c0-1.5-0.4-2.8-1.1-3.9c0.6,0,1.1-0.6,1.1-1.4
							c0-0.5-0.2-0.9-0.4-1.1c0.3-0.3,0.4-0.7,0.4-1.1c0-0.6-0.3-1.2-0.8-1.3c0.5-1,0.8-2.1,0.8-3.4v-37c0-3.4-2.1-6.1-4.7-6.1
							c-2.6,0-4.7,2.7-4.7,6.1v37c0,1.2,0.3,2.4,0.8,3.4c-0.5,0.2-0.8,0.7-0.8,1.3c0,0.5,0.2,0.9,0.4,1.1c-0.3,0.3-0.4,0.7-0.4,1.1
							c0,0.8,0.5,1.4,1.1,1.4c-0.7,1.1-1.1,2.4-1.1,3.9v12.3c-8.7,1.1-15.9,4.9-19.4,10.1h-2.4c-0.7,0-1.2,0.6-1.2,1.2
							c0,0.7,0.6,1.2,1.2,1.2h1.1h3.9h1.9c0.7,0,1.2-0.6,1.2-1.2c0-0.7-0.5-1.2-1.2-1.2c4-4.1,11.3-6.8,19.7-6.8s15.7,2.8,19.7,6.8
							h-0.1c-0.7,0-1.2,0.6-1.2,1.2c0,0.7,0.6,1.2,1.2,1.2h2.1h3.9h0.9c0.7,0,1.2-0.6,1.2-1.2
							C524.8,1075.4,524.3,1074.9,523.6,1074.9z"/>
						<g>
							<polygon class="st20" points="560.1,1014.7 537.3,1019.7 537.3,1000 558.4,1000 							"/>
							<g>
								<polygon class="st21" points="533.2,1022.8 432.3,1011.3 432.3,980.8 561.7,980.8 561.7,1005.9 								"/>
								<g class="st22">
									<polygon class="st23" points="432.3,980.8 432.3,982.3 433.3,980.8 									"/>
									<polygon class="st23" points="433.3,980.8 432.3,982.3 432.3,991.4 438.8,980.8 									"/>
									<polygon class="st23" points="449.9,980.8 444.4,980.8 432.3,1000.5 432.3,1005.4 434.2,1006.5 									"/>
									<polygon class="st23" points="442.4,1011.5 461.1,980.8 455.5,980.8 438.3,1009 									"/>
									<polygon class="st23" points="466.6,980.8 447,1013 452.2,1013.5 472.2,980.8 									"/>
									<polygon class="st23" points="477.7,980.8 457.4,1014.1 462.6,1014.7 483.3,980.8 									"/>
									<polygon class="st23" points="488.9,980.8 467.8,1015.3 473,1015.9 494.4,980.8 									"/>
									<polygon class="st23" points="500,980.8 478.2,1016.5 483.4,1017.1 505.6,980.8 									"/>
									<polygon class="st23" points="511.1,980.8 488.6,1017.7 493.8,1018.3 516.7,980.8 									"/>
									<polygon class="st23" points="522.2,980.8 499,1018.9 504.2,1019.5 527.8,980.8 									"/>
									<polygon class="st23" points="533.4,980.8 509.4,1020.1 514.6,1020.6 538.9,980.8 									"/>
									<polygon class="st23" points="544.5,980.8 519.8,1021.2 525,1021.8 550.1,980.8 									"/>
									<polygon class="st23" points="555.6,980.8 530.2,1022.4 533.2,1022.8 536.9,1020.6 561.2,980.8 									"/>
									<polygon class="st23" points="561.7,989.1 545.6,1015.5 554.3,1010.3 561.7,998.2 									"/>
								</g>
								<g class="st24">
									<polygon class="st25" points="432.3,1011.3 435.9,1011.7 432.3,1009.5 									"/>
									<polygon class="st25" points="561.7,980.8 558.4,980.8 561.7,982.8 									"/>
									<polygon class="st25" points="558.4,980.8 549.3,980.8 561.7,988.4 561.7,982.8 									"/>
									<polygon class="st25" points="531.1,980.8 561.7,999.5 561.7,993.9 540.2,980.8 									"/>
									<polygon class="st25" points="512.9,980.8 557.8,1008.3 561.7,1005.9 561.7,1005.1 522,980.8 									"/>
									<polygon class="st25" points="494.6,980.8 548.6,1013.7 553.2,1011 503.8,980.8 									"/>
									<polygon class="st25" points="476.4,980.8 539.3,1019.2 543.9,1016.5 485.5,980.8 									"/>
									<polygon class="st25" points="458.2,980.8 525.5,1021.9 533.2,1022.8 534.7,1021.9 467.3,980.8 									"/>
									<polygon class="st25" points="440,980.8 503.1,1019.3 514.3,1020.6 449.1,980.8 									"/>
									<polygon class="st25" points="432.3,987.3 480.7,1016.8 491.9,1018.1 432.3,981.7 									"/>
									<polygon class="st25" points="432.3,998.4 458.3,1014.2 469.5,1015.5 432.3,992.9 									"/>
									<polygon class="st25" points="432.3,1009.5 435.9,1011.7 447.1,1013 432.3,1004 									"/>
								</g>
								<polygon class="st26" points="432.3,1002.4 432.3,1011.3 533.2,1022.8 561.7,1005.9 561.7,997 533.2,1013.8 								"/>
								<polygon class="st26" points="432.3,998.4 432.3,1000.4 533.2,1011.8 561.7,995 561.7,993.1 533.2,1009.9 								"/>
							</g>
						</g>
					</g>
					<g>
						<polygon class="st19" points="504.5,980.8 499.9,980.8 499.9,971.4 						"/>
						<rect x="487.3" y="967.3" class="st9" width="13.5" height="13.5"/>
						<rect x="488.2" y="968.3" class="st2" width="11.6" height="11.6"/>
						<g>
							<path class="st9" d="M491.8,970.8h2c0.9,0,1.6,0.1,2,0.4c0.4,0.3,0.6,0.7,0.6,1.3c0,0.4-0.1,0.7-0.3,1
								c-0.2,0.3-0.5,0.4-0.9,0.5v0c0.5,0.1,0.8,0.3,1.1,0.5c0.2,0.3,0.3,0.6,0.3,1.1c0,0.6-0.2,1.1-0.6,1.4c-0.4,0.3-1,0.5-1.8,0.5
								h-2.5V970.8z M492.9,973.6h1.1c0.5,0,0.8-0.1,1-0.2c0.2-0.1,0.3-0.4,0.3-0.8c0-0.3-0.1-0.6-0.3-0.7c-0.2-0.1-0.6-0.2-1.1-0.2
								h-1V973.6z M492.9,974.5v2.2h1.2c0.5,0,0.8-0.1,1.1-0.3c0.2-0.2,0.4-0.5,0.4-0.8c0-0.4-0.1-0.6-0.4-0.8
								c-0.2-0.2-0.6-0.3-1.1-0.3H492.9z"/>
						</g>
						<polygon class="st27" points="487.3,967.3 500.8,967.3 500.8,980.8 						"/>
					</g>
				</g>
				<g>
					<path class="st2" d="M813.2,981.1c-0.9-2.1-0.2-6.5-0.2-6.5h-11.2c0,0,5,0,2.5,6.5c-0.8,2.1-4,10.7,0.2,16.8c2.8,0,5.7,0,8.6,0
						C817.2,991.8,814.1,983.2,813.2,981.1z"/>
					<path class="st2" d="M813,974.1h-0.2c-0.5-0.5-1.6-0.8-3-0.9c0-0.2-0.4-0.4-0.8-0.4c-0.4,0-0.8,0.2-0.8,0.4
						c-1.5,0.1-2.7,0.5-3.3,1h-0.2c-0.2,0-0.4,0.2-0.4,0.4c0,0.2,0.2,0.4,0.4,0.4h0.1c0.5,0.6,2.1,1.1,4.1,1.1c2,0,3.6-0.5,4.1-1.1
						h0.1c0.2,0,0.4-0.2,0.4-0.4C813.5,974.3,813.3,974.1,813,974.1z"/>
					<g>
						<path class="st2" d="M813,990.5c-1.9-3.1,1.2-5.6,2.9-8.1c1.8-2.5,3.1-3.8,1.6-5c-0.8-0.6-3.9,0.3-5.7,1l-0.2-0.6
							c0.5-0.2,5-1.9,6.4-0.9c2.1,1.6,0.6,3.9-1.1,6.2c-1.7,2.5-3.7,5.3-2,8.1L813,990.5z"/>
					</g>
					<g class="st8">
						<path d="M813.2,981.1c-0.8-1.7-0.4-5.1-0.2-6.1h0c0.2,0,0.4-0.2,0.4-0.4c0-0.2-0.2-0.4-0.4-0.4h-0.2c-0.5-0.4-1.5-0.8-2.8-0.9
							c-0.1,1.7-0.2,4.1,0.4,5.6c0.9,2.4,4,12.1-0.2,19.1c0.9,0,1.8,0,2.8,0C817.2,991.8,814.1,983.2,813.2,981.1z"/>
						<path d="M802.3,974.7C802.3,974.7,802.3,974.7,802.3,974.7l-0.4,0C801.9,974.7,802,974.7,802.3,974.7z"/>
					</g>
				</g>
				<g>
					<path class="st2" d="M833.2,996.1c0.6,0.1,1.2,0,1.9-0.2c1.4-0.6,2.1-2,1.6-3.1c-0.3-0.8-1.3-1.2-2.3-1.1c0-0.1,0-0.3,0-0.4
						H822c-0.1,0.3-0.1,0.7-0.1,1c0,2.8,1.6,5,3.6,5h-4.7v0.5h14.9v-0.5h-4.8C831.7,997.4,832.6,996.9,833.2,996.1z M836.2,993.1
						c0.4,0.9-0.2,2-1.3,2.5c-0.5,0.2-1,0.3-1.4,0.2c0.6-0.9,0.9-2.1,0.9-3.4c0-0.1,0-0.1,0-0.2
						C835.2,992.1,835.9,992.4,836.2,993.1z"/>
					<g>
						<path class="st2" d="M827.5,988.9c0,0-1.1-2.6,0.3-3.9c0.6-0.5,0.2-2,0-3.1C828.3,984.7,825.3,984.9,827.5,988.9z"/>
						<path class="st2" d="M828.1,990.2c0,0,0.8-0.9-0.3-1.9c-0.5-0.4-0.1-1.5,0-2.3C827.4,988,829.7,987.1,828.1,990.2z"/>
					</g>
					<path class="st8" d="M833.2,996.1c0.6,0.1,1.2,0,1.9-0.2c1.4-0.6,2.1-2,1.6-3.1c-0.3-0.8-1.3-1.2-2.3-1.1c0-0.1,0-0.3,0-0.4
						h-4.5c0.1,1.3,0.3,5.3-1.3,6.6h7.1v-0.5h-4.8C831.7,997.4,832.6,996.9,833.2,996.1z M834.4,992.3c0-0.1,0-0.1,0-0.2
						c0.8-0.1,1.5,0.3,1.8,0.9c0.4,0.9-0.2,2-1.3,2.5c-0.5,0.2-1,0.3-1.4,0.2C834.1,994.8,834.4,993.6,834.4,992.3z"/>
				</g>
				<g>
					<path class="st2" d="M759.4,997.4h-4.8v0.5h14.9v-0.5h-4.7c2,0,3.6-2.3,3.6-5c0-0.3,0-0.7-0.1-1h-12.4c0,0.1,0,0.3,0,0.4
						c-1-0.1-1.9,0.3-2.3,1.1c-0.5,1.1,0.3,2.4,1.6,3.1c0.6,0.3,1.3,0.4,1.9,0.2C757.6,996.9,758.5,997.4,759.4,997.4z M755.8,992.2
						c0,0.1,0,0.1,0,0.2c0,1.3,0.4,2.5,0.9,3.4c-0.4,0.1-0.9,0-1.4-0.2c-1.1-0.5-1.7-1.6-1.3-2.5C754.3,992.4,755,992.1,755.8,992.2
						z"/>
					<g>
						<path class="st2" d="M762.7,988.9c0,0,1.1-2.6-0.3-3.9c-0.6-0.5-0.2-2,0-3.1C761.9,984.7,764.9,984.9,762.7,988.9z"/>
						<path class="st2" d="M762.1,990.2c0,0-0.8-0.9,0.3-1.9c0.5-0.4,0.1-1.5,0-2.3C762.8,988,760.5,987.1,762.1,990.2z"/>
					</g>
					<path class="st8" d="M769.4,997.4h-4.7c2,0,3.6-2.3,3.6-5c0-0.3,0-0.7-0.1-1h-4.5c0,1.7-0.3,4.5-2.4,6.6h8.1V997.4z"/>
				</g>
				<g>
					<path class="st19" d="M411,1074.3v-45c0-2.7-2.2-4.9-4.9-4.9h-25.4c-2.7,0-4.9,2.2-4.9,4.9v45h-2v-45c0-3.8,3.1-6.9,6.9-6.9
						h25.4c3.8,0,6.9,3.1,6.9,6.9v45H411z"/>
					<path class="st19" d="M420.6,1074.3v-45c0-2.7-2.2-4.9-4.9-4.9h-25.4c-2.7,0-4.9,2.2-4.9,4.9v45h-2v-45c0-3.8,3.1-6.9,6.9-6.9
						h25.4c3.8,0,6.9,3.1,6.9,6.9v45H420.6z"/>
					<path class="st19" d="M395.3,1017.8v-45.5c0-2.8-2.8-5.1-6.2-5.1H384c-3.4,0-6.2,2.3-6.2,5.1v45.5h-2.5v-45.5
						c0-3.9,3.9-7.1,8.6-7.1h5.2c4.8,0,8.6,3.2,8.6,7.1v45.5H395.3z"/>
					<rect x="412.9" y="1061.4" class="st19" width="7.7" height="1.8"/>
					<rect x="375.8" y="1061.4" class="st19" width="7.7" height="1.8"/>
					<path class="st19" d="M390.4,1017.1v-45.5c0-2.1-1.7-3.8-3.8-3.8c-2.1,0-3.8,1.7-3.8,3.8v45.5h-2v-45.5c0-3.2,2.6-5.8,5.8-5.8
						c3.2,0,5.8,2.6,5.8,5.8v45.5H390.4z"/>
					<path class="st9" d="M381.8,1017.1v-45.5c0-2.6,2.1-4.8,4.8-4.8c2.6,0,4.8,2.1,4.8,4.8v45.5H381.8z"/>
					<path class="st28" d="M373,1019.4c0,1.7,1.4,3,3,3h43.5c1.7,0,3-1.4,3-3l0,0c0-1.7-1.4-3-3-3h-43.5
						C374.4,1016.4,373,1017.7,373,1019.4L373,1019.4z"/>
				</g>
				<g>
					<path class="st19" d="M582.8,1074.3v-45c0-2.7,2.2-4.9,4.9-4.9h25.4c2.7,0,4.9,2.2,4.9,4.9v45h2v-45c0-3.8-3.1-6.9-6.9-6.9
						h-25.4c-3.8,0-6.9,3.1-6.9,6.9v45H582.8z"/>
					<path class="st19" d="M573.2,1074.3v-45c0-2.7,2.2-4.9,4.9-4.9h25.4c2.7,0,4.9,2.2,4.9,4.9v45h2v-45c0-3.8-3.1-6.9-6.9-6.9
						h-25.4c-3.8,0-6.9,3.1-6.9,6.9v45H573.2z"/>
					<path class="st19" d="M598.4,1017.8v-45.5c0-2.8,2.8-5.1,6.2-5.1h5.2c3.4,0,6.2,2.3,6.2,5.1v45.5h2.5v-45.5
						c0-3.9-3.9-7.1-8.6-7.1h-5.2c-4.8,0-8.6,3.2-8.6,7.1v45.5H598.4z"/>
					<rect x="573.2" y="1061.4" class="st19" width="7.7" height="1.8"/>
					<rect x="610.3" y="1061.4" class="st19" width="7.7" height="1.8"/>
					<path class="st19" d="M603.4,1017.1v-45.5c0-2.1,1.7-3.8,3.8-3.8c2.1,0,3.8,1.7,3.8,3.8v45.5h2v-45.5c0-3.2-2.6-5.8-5.8-5.8
						c-3.2,0-5.8,2.6-5.8,5.8v45.5H603.4z"/>
					<path class="st9" d="M612,1017.1v-45.5c0-2.6-2.1-4.8-4.8-4.8c-2.6,0-4.8,2.1-4.8,4.8v45.5H612z"/>
					<path class="st28" d="M620.8,1019.4c0,1.7-1.4,3-3,3h-43.5c-1.7,0-3-1.4-3-3l0,0c0-1.7,1.4-3,3-3h43.5
						C619.4,1016.4,620.8,1017.7,620.8,1019.4L620.8,1019.4z"/>
				</g>
				<g>
					<g>
						<path class="st19" d="M807.1,1074.9h-2.3c-3.5-5.2-10.8-9.1-19.5-10.1v-12.3c0-1.5-0.4-2.8-1.1-3.9c0.6,0,1.1-0.6,1.1-1.4
							c0-0.5-0.2-0.9-0.4-1.1c0.3-0.3,0.4-0.7,0.4-1.1c0-0.6-0.3-1.2-0.8-1.3c0.5-1,0.8-2.1,0.8-3.4v-37c0-3.4-2.1-6.1-4.7-6.1
							c-2.6,0-4.7,2.7-4.7,6.1v37c0,1.2,0.3,2.4,0.8,3.4c-0.5,0.2-0.8,0.7-0.8,1.3c0,0.5,0.2,0.9,0.4,1.1c-0.3,0.3-0.4,0.7-0.4,1.1
							c0,0.8,0.5,1.4,1.1,1.4c-0.7,1.1-1.1,2.4-1.1,3.9v12.3c-8.7,1.1-15.9,4.9-19.4,10.1H754c-0.7,0-1.2,0.6-1.2,1.2
							c0,0.7,0.6,1.2,1.2,1.2h1.1h3.9h1.9c0.7,0,1.2-0.6,1.2-1.2c0-0.7-0.6-1.2-1.2-1.2c4-4.1,11.3-6.8,19.7-6.8
							c8.4,0,15.7,2.8,19.7,6.8h-0.1c-0.7,0-1.2,0.6-1.2,1.2c0,0.7,0.6,1.2,1.2,1.2h2.1h3.9h0.9c0.7,0,1.2-0.6,1.2-1.2
							C808.3,1075.4,807.8,1074.9,807.1,1074.9z"/>
						<g>
							<polygon class="st20" points="843.6,1014.7 820.8,1019.7 820.8,1000 841.9,1000 							"/>
							<g>
								<polygon class="st21" points="816.7,1022.8 715.8,1011.3 715.8,980.8 845.2,980.8 845.2,1005.9 								"/>
								<g class="st22">
									<polygon class="st23" points="715.8,980.8 715.8,982.3 716.7,980.8 									"/>
									<polygon class="st23" points="716.7,980.8 715.8,982.3 715.8,991.4 722.3,980.8 									"/>
									<polygon class="st23" points="733.4,980.8 727.9,980.8 715.8,1000.5 715.8,1005.4 717.7,1006.5 									"/>
									<polygon class="st23" points="725.8,1011.5 744.6,980.8 739,980.8 721.8,1009 									"/>
									<polygon class="st23" points="750.1,980.8 730.5,1013 735.7,1013.5 755.7,980.8 									"/>
									<polygon class="st23" points="761.2,980.8 740.9,1014.1 746.1,1014.7 766.8,980.8 									"/>
									<polygon class="st23" points="772.4,980.8 751.3,1015.3 756.5,1015.9 777.9,980.8 									"/>
									<polygon class="st23" points="783.5,980.8 761.7,1016.5 766.9,1017.1 789,980.8 									"/>
									<polygon class="st23" points="794.6,980.8 772.1,1017.7 777.3,1018.3 800.2,980.8 									"/>
									<polygon class="st23" points="805.7,980.8 782.5,1018.9 787.7,1019.5 811.3,980.8 									"/>
									<polygon class="st23" points="816.9,980.8 792.9,1020.1 798.1,1020.6 822.4,980.8 									"/>
									<polygon class="st23" points="828,980.8 803.3,1021.2 808.5,1021.8 833.5,980.8 									"/>
									<polygon class="st23" points="839.1,980.8 813.7,1022.4 816.7,1022.8 820.4,1020.6 844.7,980.8 									"/>
									<polygon class="st23" points="845.2,989.1 829.1,1015.5 837.8,1010.3 845.2,998.2 									"/>
								</g>
								<g class="st24">
									<polygon class="st25" points="715.8,1011.3 719.3,1011.7 715.8,1009.5 									"/>
									<polygon class="st25" points="845.2,980.8 841.9,980.8 845.2,982.8 									"/>
									<polygon class="st25" points="841.9,980.8 832.8,980.8 845.2,988.4 845.2,982.8 									"/>
									<polygon class="st25" points="814.6,980.8 845.2,999.5 845.2,993.9 823.7,980.8 									"/>
									<polygon class="st25" points="796.4,980.8 841.3,1008.3 845.2,1005.9 845.2,1005.1 805.5,980.8 									"/>
									<polygon class="st25" points="778.1,980.8 832,1013.7 836.7,1011 787.3,980.8 									"/>
									<polygon class="st25" points="759.9,980.8 822.8,1019.2 827.4,1016.5 769,980.8 									"/>
									<polygon class="st25" points="741.7,980.8 809,1021.9 816.7,1022.8 818.1,1021.9 750.8,980.8 									"/>
									<polygon class="st25" points="723.5,980.8 786.5,1019.3 797.8,1020.6 732.6,980.8 									"/>
									<polygon class="st25" points="715.8,987.3 764.1,1016.8 775.3,1018.1 715.8,981.7 									"/>
									<polygon class="st25" points="715.8,998.4 741.7,1014.2 752.9,1015.5 715.8,992.9 									"/>
									<polygon class="st25" points="715.8,1009.5 719.3,1011.7 730.5,1013 715.8,1004 									"/>
								</g>
								<polygon class="st26" points="715.8,1002.4 715.8,1011.3 816.7,1022.8 845.2,1005.9 845.2,997 816.7,1013.8 								"/>
								<polygon class="st26" points="715.8,998.4 715.8,1000.4 816.7,1011.8 845.2,995 845.2,993.1 816.7,1009.9 								"/>
							</g>
						</g>
					</g>
					<g>
						<polygon class="st19" points="788,980.8 783.4,980.8 783.4,971.4 						"/>
						<rect x="770.8" y="967.3" class="st9" width="13.5" height="13.5"/>
						<rect x="771.7" y="968.3" class="st2" width="11.6" height="11.6"/>
						<g>
							<path class="st9" d="M780,977.6h-4.9v-0.8l3.4-5.1h-3.3v-1h4.7v0.8l-3.4,5.1h3.5V977.6z"/>
						</g>
						<polygon class="st27" points="770.8,967.3 784.3,967.3 784.3,980.8 						"/>
					</g>
				</g>
				<g>
					<path class="st19" d="M694.5,1074.3v-45c0-2.7-2.2-4.9-4.9-4.9h-25.4c-2.7,0-4.9,2.2-4.9,4.9v45h-2v-45c0-3.8,3.1-6.9,6.9-6.9
						h25.4c3.8,0,6.9,3.1,6.9,6.9v45H694.5z"/>
					<path class="st19" d="M704.1,1074.3v-45c0-2.7-2.2-4.9-4.9-4.9h-25.4c-2.7,0-4.9,2.2-4.9,4.9v45h-2v-45c0-3.8,3.1-6.9,6.9-6.9
						h25.4c3.8,0,6.9,3.1,6.9,6.9v45H704.1z"/>
					<path class="st19" d="M678.8,1017.8v-45.5c0-2.8-2.8-5.1-6.2-5.1h-5.2c-3.4,0-6.2,2.3-6.2,5.1v45.5h-2.5v-45.5
						c0-3.9,3.9-7.1,8.6-7.1h5.2c4.8,0,8.6,3.2,8.6,7.1v45.5H678.8z"/>
					<rect x="696.4" y="1061.4" class="st19" width="7.7" height="1.8"/>
					<rect x="659.3" y="1061.4" class="st19" width="7.7" height="1.8"/>
					<path class="st19" d="M673.9,1017.1v-45.5c0-2.1-1.7-3.8-3.8-3.8c-2.1,0-3.8,1.7-3.8,3.8v45.5h-2v-45.5c0-3.2,2.6-5.8,5.8-5.8
						c3.2,0,5.8,2.6,5.8,5.8v45.5H673.9z"/>
					<path class="st9" d="M665.3,1017.1v-45.5c0-2.6,2.1-4.8,4.8-4.8c2.6,0,4.8,2.1,4.8,4.8v45.5H665.3z"/>
					<path class="st28" d="M656.5,1019.4c0,1.7,1.4,3,3,3H703c1.7,0,3-1.4,3-3l0,0c0-1.7-1.4-3-3-3h-43.5
						C657.9,1016.4,656.5,1017.7,656.5,1019.4L656.5,1019.4z"/>
				</g>
				<g>
					<path class="st19" d="M866.3,1074.3v-45c0-2.7,2.2-4.9,4.9-4.9h25.4c2.7,0,4.9,2.2,4.9,4.9v45h2v-45c0-3.8-3.1-6.9-6.9-6.9
						h-25.4c-3.8,0-6.9,3.1-6.9,6.9v45H866.3z"/>
					<path class="st19" d="M856.7,1074.3v-45c0-2.7,2.2-4.9,4.9-4.9H887c2.7,0,4.9,2.2,4.9,4.9v45h2v-45c0-3.8-3.1-6.9-6.9-6.9
						h-25.4c-3.8,0-6.9,3.1-6.9,6.9v45H856.7z"/>
					<path class="st19" d="M881.9,1017.8v-45.5c0-2.8,2.8-5.1,6.2-5.1h5.2c3.4,0,6.2,2.3,6.2,5.1v45.5h2.5v-45.5
						c0-3.9-3.9-7.1-8.6-7.1h-5.2c-4.8,0-8.6,3.2-8.6,7.1v45.5H881.9z"/>
					<rect x="856.7" y="1061.4" class="st19" width="7.7" height="1.8"/>
					<rect x="893.8" y="1061.4" class="st19" width="7.7" height="1.8"/>
					<path class="st19" d="M886.9,1017.1v-45.5c0-2.1,1.7-3.8,3.8-3.8c2.1,0,3.8,1.7,3.8,3.8v45.5h2v-45.5c0-3.2-2.6-5.8-5.8-5.8
						c-3.2,0-5.8,2.6-5.8,5.8v45.5H886.9z"/>
					<path class="st9" d="M895.5,1017.1v-45.5c0-2.6-2.1-4.8-4.8-4.8c-2.6,0-4.8,2.1-4.8,4.8v45.5H895.5z"/>
					<path class="st28" d="M904.2,1019.4c0,1.7-1.4,3-3,3h-43.5c-1.7,0-3-1.4-3-3l0,0c0-1.7,1.4-3,3-3h43.5
						C902.9,1016.4,904.2,1017.7,904.2,1019.4L904.2,1019.4z"/>
				</g>
			</g>
			<g>
				<rect x="1338.4" y="809.1" class="st29" width="423" height="266.1"/>
				<g>
					<path class="st8" d="M1761.3,800.9h-33.7h-33.7h-33.7h-33.7h-33.7h-33.7h-33.7h-33.7h-33.7H1424h-33.7h-33.7H1339V850
						c0.2,0,0.5,0,0.7,0c9.3,0,16.9-4.4,16.9-9.8c0,5.4,7.5,9.8,16.9,9.8c9.3,0,16.9-4.4,16.9-9.8c0,5.4,7.6,9.8,16.9,9.8
						s16.9-4.4,16.9-9.8c0,5.4,7.6,9.8,16.9,9.8c9.3,0,16.9-4.4,16.9-9.8c0,5.4,7.6,9.8,16.9,9.8c9.3,0,16.9-4.4,16.9-9.8
						c0,5.4,7.6,9.8,16.9,9.8c9.3,0,16.9-4.4,16.9-9.8c0,5.4,7.6,9.8,16.9,9.8c9.3,0,16.9-4.4,16.9-9.8c0,5.4,7.6,9.8,16.9,9.8
						c9.3,0,16.9-4.4,16.9-9.8c0,5.4,7.6,9.8,16.9,9.8c9.3,0,16.9-4.4,16.9-9.8c0,5.4,7.5,9.8,16.9,9.8s16.9-4.4,16.9-9.8
						c0,5.4,7.5,9.8,16.9,9.8c9.3,0,16.9-4.4,16.9-9.8c0,5.4,7.6,9.8,16.9,9.8c9.3,0,16.9-4.4,16.9-9.8c0,5.4,7.5,9.8,16.9,9.8
						c9.3,0,16.9-4.4,16.9-9.8V800.9z"/>
					<g>
						<path class="st30" d="M1322.8,759v67.5c0,9.2,7.6,16.7,16.9,16.7s16.9-7.5,16.9-16.7V759H1322.8z"/>
						<path class="st10" d="M1356.6,759v67.5c0,9.2,7.5,16.7,16.9,16.7c9.3,0,16.9-7.5,16.9-16.7V759H1356.6z"/>
						<path class="st30" d="M1390.3,759v67.5c0,9.2,7.6,16.7,16.9,16.7s16.9-7.5,16.9-16.7V759H1390.3z"/>
						<path class="st10" d="M1424,759v67.5c0,9.2,7.6,16.7,16.9,16.7c9.3,0,16.9-7.5,16.9-16.7V759H1424z"/>
						<path class="st30" d="M1457.8,759v67.5c0,9.2,7.6,16.7,16.9,16.7c9.3,0,16.9-7.5,16.9-16.7V759H1457.8z"/>
						<path class="st10" d="M1491.5,759v67.5c0,9.2,7.6,16.7,16.9,16.7c9.3,0,16.9-7.5,16.9-16.7V759H1491.5z"/>
						<path class="st30" d="M1525.2,759v67.5c0,9.2,7.6,16.7,16.9,16.7c9.3,0,16.9-7.5,16.9-16.7V759H1525.2z"/>
						<path class="st10" d="M1558.9,759v67.5c0,9.2,7.6,16.7,16.9,16.7c9.3,0,16.9-7.5,16.9-16.7V759H1558.9z"/>
						<path class="st30" d="M1592.7,759v67.5c0,9.2,7.6,16.7,16.9,16.7c9.3,0,16.9-7.5,16.9-16.7V759H1592.7z"/>
						<path class="st10" d="M1626.4,759v67.5c0,9.2,7.5,16.7,16.9,16.7s16.9-7.5,16.9-16.7V759H1626.4z"/>
						<path class="st30" d="M1660.1,759v67.5c0,9.2,7.5,16.7,16.9,16.7c9.3,0,16.9-7.5,16.9-16.7V759H1660.1z"/>
						<path class="st10" d="M1693.8,759v67.5c0,9.2,7.6,16.7,16.9,16.7c9.3,0,16.9-7.5,16.9-16.7V759H1693.8z"/>
						<path class="st30" d="M1727.6,759v67.5c0,9.2,7.5,16.7,16.9,16.7c9.3,0,16.9-7.5,16.9-16.7V759H1727.6z"/>
					</g>
				</g>
				<g>
					<rect x="1373.4" y="872.9" class="st30" width="84.3" height="201.8"/>
					<rect x="1377.6" y="877.8" class="st15" width="76.7" height="93.6"/>
					<rect x="1377.6" y="976.8" class="st15" width="76.7" height="93.6"/>
					<polygon class="st16" points="1373.4,953.5 1373.4,872.9 1457.8,872.9 					"/>
				</g>
				<g>
					<rect x="1477.5" y="873.3" class="st30" width="230.4" height="140.2"/>
					<rect x="1480.2" y="879.1" class="st15" width="223.2" height="128.4"/>
					<g>
						<path class="st30" d="M1594.2,986.3c-26.3,0-47.7-21.4-47.7-47.7c0-26.3,21.4-47.7,47.7-47.7s47.7,21.4,47.7,47.7
							C1641.9,964.9,1620.5,986.3,1594.2,986.3z M1594.2,891.8c-25.8,0-46.7,21-46.7,46.7c0,25.8,21,46.7,46.7,46.7
							s46.7-21,46.7-46.7C1640.9,912.8,1620,891.8,1594.2,891.8z"/>
					</g>
					<circle class="st30" cx="1594.2" cy="938.6" r="41.7"/>
					<polygon class="st18" points="1529.8,1007.5 1703.4,900.3 1703.4,889.7 1512.5,1007.5 					"/>
					<polygon class="st18" points="1668.5,1007.5 1703.4,986 1703.4,975.3 1651.2,1007.5 					"/>
					<g>
						<path class="st31" d="M1580.6,945.4l-3.5,7.7c-0.3,3.6-0.7,6.5-1.4,8.6c-0.7,2.1-1.3,3.3-2,3.6c-0.4,0.2-0.6,0-0.8-0.4
							c-0.4-0.8-0.5-2.1-0.3-3.9c0.1-0.7,0.2-1.4,0.4-2.1c0.2-0.7,0.4-1.3,0.6-1.9c0.2-0.6,0.5-1.3,0.9-2.1c0.4-0.8,0.6-1.4,0.8-1.7
							c0-3,0-5.2-0.1-6.7c-0.5,1.7-1,3.1-1.5,4.3c-0.5,1.2-0.9,2.1-1.4,2.8c-0.5,0.7-1,1.2-1.6,1.5c-0.6,0.3-1.4,0.1-2.4-0.6
							c-1-0.7-1.7-1.6-2.2-2.6c-0.2-0.5-0.4-1-0.4-1.6c0-0.6,0-1.3,0.2-2.2c0.2-0.8,0.5-1.7,0.9-2.7c0.4-1,1-2,1.6-3
							c1.3-2,2.4-3.3,3.4-3.8c0.8-0.4,1.3-0.3,1.5,0.3c0.4,0.8-0.1,1.9-1.4,3.4c-0.8,0.9-1.5,2-2.1,3.2c-0.6,1.2-1.1,2.3-1.3,3.4
							c-0.2,1.1-0.2,2,0.1,2.6c0.2,0.3,0.4,0.5,0.6,0.6c0.2,0.1,0.5,0.1,0.7,0c0.4-0.2,0.8-0.6,1.1-1.2c0.3-0.6,0.8-1.7,1.4-3.1
							c0.3-0.7,0.5-1.7,0.9-3c0.3-1.3,0.6-2.4,0.9-3.2c0.3-0.8,0.6-1.2,1-1.4c0.2-0.1,0.5-0.1,0.7-0.1s0.4,0.3,0.5,0.5
							c0.3,0.5,0.4,1.4,0.5,2.7c0.1,1.2,0.1,3.3,0.1,6.2l2.8-5.2L1580.6,945.4z"/>
						<path class="st31" d="M1579.9,946l-0.6-1.1c0.3-1.1,0.4-1.9,0.5-2.6c-0.4,0.1-0.8,0-1.1-0.1c-0.3-0.1-0.5-0.3-0.7-0.7
							c-0.2-0.4-0.3-1-0.3-1.9c0-0.8,0.2-1.6,0.4-2.5c0.2-0.8,0.5-1.4,0.9-1.8c0.1-0.2,0.3-0.3,0.4-0.4c0.2-0.1,0.4-0.1,0.5,0.2
							c0.1,0.2,0.1,0.7,0,1.5c2.2-1.6,3.7-2.5,4.3-2.8c0.2-0.1,0.4-0.2,0.5-0.2c0.3,0,0.5,0.2,0.9,0.5c0.3,0.3,0.6,0.7,0.8,1.1
							c0.1,0.2,0.1,0.6,0.1,1c-0.1,0.4-0.2,1-0.5,1.8c-0.3,1-0.5,2-0.5,3c0,1,0,1.7,0.2,2.1c0.3,0.6,0.7,0.7,1.4,0.3
							c0.7-0.3,1.6-1.7,2.7-4l0.6,1.2c-0.5,1.5-0.9,2.7-1.2,3.6c-0.4,0.9-0.7,1.6-1.1,2.3c-0.4,0.6-0.8,1-1.2,1.2
							c-0.5,0.2-1,0.2-1.6-0.1c-0.5-0.3-1-0.9-1.4-1.7c-0.2-0.5-0.4-1.1-0.4-1.9c-0.1-0.8,0-1.7,0.1-2.7c0.1-1,0.3-2,0.6-3.1
							c-0.3,0.2-0.6,0.5-1,0.8c-0.4,0.3-0.8,0.6-1.2,0.9c-0.4,0.3-0.7,0.5-1,0.7C1581.2,942.3,1580.7,944.1,1579.9,946z"/>
						<path class="st31" d="M1593.1,938.7l0.2,0.4c0.3,0.7,0.8,1.2,1.3,1.4c0.5,0.2,1.1,0.2,1.6-0.1c0.6-0.3,1.1-0.7,1.6-1.3
							c0.5-0.6,0.9-1.2,1.3-2c0.4-0.7,0.9-1.7,1.4-2.9l0.5,1.1c-0.6,2.2-1.2,4.1-2,5.5c-0.8,1.4-1.7,2.4-2.9,3c-1,0.5-2.1,0.5-3.1,0
							c-1-0.5-1.8-1.5-2.5-2.9c-0.6-1.2-0.9-2.5-0.8-3.8c0.1-1.3,0.5-2.8,1.3-4.6c0.5-1.2,1.1-2.2,1.8-3c0.7-0.8,1.4-1.4,2.1-1.7
							c0.6-0.3,1.1-0.4,1.5-0.3c0.4,0.1,0.8,0.4,1,0.9c0.4,0.7,0.4,1.6,0.2,2.6c-0.2,1-0.7,2.1-1.5,3.4
							C1595.5,935.8,1594.5,937.2,1593.1,938.7z M1592.8,937.4c0.9-0.9,1.5-1.9,2-2.9c0.5-1,0.7-1.8,0.8-2.6
							c0.1-0.7,0.1-1.2-0.1-1.5c-0.1-0.3-0.3-0.3-0.6-0.2c-0.2,0.1-0.5,0.4-0.8,0.9c-0.3,0.5-0.7,1.1-0.9,1.8
							c-0.3,0.7-0.5,1.4-0.6,2.2C1592.5,935.9,1592.5,936.7,1592.8,937.4z"/>
						<path class="st31" d="M1603.7,933.6l0.2,0.4c0.3,0.7,0.8,1.2,1.3,1.4c0.5,0.2,1.1,0.2,1.6-0.1c0.6-0.3,1.1-0.7,1.6-1.3
							c0.5-0.6,0.9-1.2,1.3-2c0.4-0.7,0.9-1.7,1.4-2.9l0.5,1.1c-0.6,2.2-1.2,4.1-2,5.5c-0.8,1.4-1.7,2.4-2.9,3c-1,0.5-2.1,0.5-3.1,0
							c-1-0.5-1.8-1.5-2.5-2.9c-0.6-1.2-0.9-2.5-0.8-3.8c0.1-1.3,0.5-2.8,1.3-4.6c0.5-1.2,1.1-2.2,1.8-3c0.7-0.8,1.4-1.4,2.1-1.7
							c0.6-0.3,1.1-0.4,1.5-0.3c0.4,0.1,0.8,0.4,1,0.9c0.4,0.7,0.4,1.6,0.2,2.6c-0.2,1-0.7,2.1-1.5,3.4
							C1606.1,930.7,1605,932.1,1603.7,933.6z M1603.3,932.3c0.9-0.9,1.5-1.9,2-2.9c0.5-1,0.7-1.8,0.8-2.6c0.1-0.7,0.1-1.2-0.1-1.5
							c-0.1-0.3-0.3-0.3-0.6-0.2c-0.2,0.1-0.5,0.4-0.8,0.9c-0.3,0.5-0.7,1.1-0.9,1.8c-0.3,0.7-0.5,1.4-0.6,2.2
							C1603,930.8,1603.1,931.6,1603.3,932.3z"/>
						<path class="st31" d="M1621.5,920.2c-1,3.3-1.2,5.4-0.8,6.3c0.2,0.5,0.6,0.7,1,0.5c0.3-0.2,0.7-0.6,1.1-1.2
							c0.4-0.6,0.9-1.7,1.6-3.2l0.6,1.2c-0.9,2.5-1.6,4.3-2.1,5.4c-0.5,1.2-1.1,1.9-1.7,2.2c-1,0.5-1.8,0.1-2.4-1.2
							c-0.2-0.4-0.3-0.8-0.4-1.2c-0.1-0.4-0.1-0.9-0.1-1.4s0.1-1.2,0.1-2.2c0.1-0.9,0.2-2,0.3-3.2c-0.5,0.7-1,1.8-1.5,3.3
							c-0.4,1-0.6,1.8-0.8,2.6c-0.2,0.8-0.4,1.7-0.5,2.6c-0.2,1-0.3,1.6-0.5,2c-0.1,0.4-0.3,0.6-0.6,0.7c-0.4,0.2-0.9,0-1.6-0.7
							c-0.7-0.6-1.3-1.5-1.8-2.5c-0.3-0.6-0.5-1.2-0.5-1.6c0-0.4,0-1.1,0.1-2c0.2-1.6,0.5-2.9,0.8-3.8c0.3-0.9,0.7-1.4,1.3-1.7
							c0.4-0.2,0.7-0.3,1-0.2c0.3,0,0.5,0.2,0.6,0.4c0.1,0.1,0.1,0.3,0.1,0.4c0,0.2,0,0.3-0.1,0.5c0,0.1-0.1,0.4-0.3,0.9
							c-0.9,3-1.1,4.7-0.8,5.4c0.2,0.3,0.4,0.5,0.6,0.3c0.1-0.1,0.3-0.4,0.5-1.1c0.2-0.7,0.4-1.5,0.7-2.5c0.3-1,0.7-2.2,1.2-3.4
							c0.5-1.2,1.1-2.5,1.9-3.8c0.4-0.7,0.8-1.2,1.2-1.4c0.2-0.1,0.5,0.1,0.9,0.5c0.4,0.4,0.8,0.9,1,1.4
							C1621.8,918.9,1621.7,919.4,1621.5,920.2z"/>
					</g>
				</g>
			</g>
			<g>
				<g>
					<rect x="924" y="861.9" class="st31" width="332.5" height="190.7"/>
					<path class="st32" d="M1266.5,1066.5c0,4.6-3.7,8.3-8.3,8.3H920.1c-4.6,0-8.3-3.7-8.3-8.3v-5.6c0-4.6,3.7-8.3,8.3-8.3h338.1
						c4.6,0,8.3,3.7,8.3,8.3V1066.5z"/>
					<g>
						<rect x="1138.6" y="870.3" class="st33" width="91.2" height="182.4"/>
						<g>
							<rect x="1150.3" y="880.3" class="st15" width="67.8" height="77"/>
							<polygon class="st34" points="1150.3,957.3 1150.3,880.3 1218.2,880.3 							"/>
							<polygon class="st35" points="1150.3,880.3 1150.3,882.8 1216.1,882.8 1216.1,957.3 1218.2,957.3 1218.2,880.3 							"/>
						</g>
						<g>
							<rect x="1150.3" y="967.3" class="st34" width="67.8" height="77"/>
							<polygon class="st15" points="1218.2,967.3 1150.3,967.3 1150.3,1044.3 							"/>
							<polygon class="st35" points="1150.3,1044.3 1150.3,1041.8 1216.1,1041.8 1216.1,967.3 1218.2,967.3 1218.2,1044.3 							
								"/>
						</g>
					</g>
					<path class="st36" d="M1152.4,961.5c0,3.5-2.8,6.2-6.2,6.2c-3.5,0-6.3-2.8-6.3-6.2c0-3.5,2.8-6.3,6.3-6.3
						C1149.6,955.2,1152.4,958,1152.4,961.5z"/>
					<path class="st2" d="M1152,961.5c0,3.2-2.6,5.8-5.8,5.8c-3.2,0-5.8-2.6-5.8-5.8c0-3.2,2.6-5.8,5.8-5.8
						C1149.4,955.6,1152,958.2,1152,961.5z"/>
					<path class="st37" d="M1089.2,986.5c0,2.9-2.6,5.3-5.8,5.3H963.2c-3.2,0-5.8-2.4-5.8-5.3l0,0c0-2.9,2.6-5.3,5.8-5.3h120.1
						C1086.5,981.2,1089.2,983.6,1089.2,986.5L1089.2,986.5z"/>
					<g>
						<rect x="965.2" y="876.4" class="st37" width="115.7" height="104.8"/>
						<g>
							<rect x="976.3" y="884.5" class="st15" width="95.6" height="96.7"/>
							<polygon class="st38" points="976.3,981.2 976.3,884.5 1071.9,884.5 							"/>
							<polygon class="st35" points="976.3,884.5 976.3,887.6 1069,887.6 1069,981.2 1071.9,981.2 1071.9,884.5 							"/>
						</g>
						<path class="st39" d="M1089.2,880.3c0,2.9-2.6,5.3-5.8,5.3H963.2c-3.2,0-5.8-2.4-5.8-5.3l0,0c0-2.9,2.6-5.3,5.8-5.3h120.1
							C1086.5,875,1089.2,877.4,1089.2,880.3L1089.2,880.3z"/>
					</g>
					<path class="st32" d="M1226.5,783.3v-25.9c0-4.6-3.7-8.3-8.2-8.3h-264c-4.5,0-8.2,3.7-8.2,8.3v25.9H1226.5z"/>
					<g>
						<g>
							<g>
								<path class="st40" d="M878.8,877c0.6,12.2,10.7,21.9,23.1,21.9c12.4,0,22.5-9.7,23.1-21.9H878.8z"/>
								<path class="st41" d="M925.1,877c0.6,12.2,10.7,21.9,23.1,21.9c12.4,0,22.5-9.7,23.1-21.9H925.1z"/>
								<path class="st40" d="M971.3,877c0.6,12.2,10.7,21.9,23.1,21.9c12.4,0,22.5-9.7,23.1-21.9H971.3z"/>
								<path class="st41" d="M1016.8,877c0.6,12.2,10.7,21.9,23.1,21.9c12.4,0,22.5-9.7,23.1-21.9H1016.8z"/>
								<path class="st42" d="M1063,877c0.6,12.2,10.7,21.9,23.1,21.9c12.4,0,22.5-9.7,23.1-21.9H1063z"/>
							</g>
							<g>
								<path class="st40" d="M1293.4,877c-0.6,12.2-10.7,21.9-23.1,21.9c-12.4,0-22.5-9.7-23.1-21.9H1293.4z"/>
								<path class="st41" d="M1247.2,877c-0.7,12.2-10.7,21.9-23.1,21.9c-12.4,0-22.5-9.7-23.1-21.9H1247.2z"/>
								<path class="st40" d="M1200.9,877c-0.6,12.2-10.7,21.9-23.1,21.9c-12.4,0-22.5-9.7-23.1-21.9H1200.9z"/>
								<path class="st41" d="M1155.5,877c-0.6,12.2-10.7,21.9-23.1,21.9c-12.4,0-22.5-9.7-23.1-21.9H1155.5z"/>
								<path class="st40" d="M1109.2,877c-0.6,12.2-10.7,21.9-23.1,21.9c-12.4,0-22.5-9.7-23.1-21.9H1109.2z"/>
							</g>
							<g>
								<polygon class="st32" points="1079.7,877 878.8,877 945.5,788.6 1079.7,788.6 								"/>
								<polygon class="st43" points="1074.6,877 925.1,877 977.8,788.6 1079.7,788.6 								"/>
								<polygon class="st32" points="1074.6,877 971,877 1009.8,788.6 1079.7,788.6 								"/>
								<polygon class="st43" points="1083.1,877 1016.8,877 1041.7,788.6 1081.8,788.6 								"/>
								<polygon class="st32" points="1086.1,788.6 1073.9,788.6 1063,877 1086.1,877 								"/>
							</g>
							<g>
								<polygon class="st40" points="1092.6,877 1293.5,877 1226.7,788.6 1092.6,788.6 								"/>
								<polygon class="st43" points="1097.7,877 1247.1,877 1194.4,788.6 1092.6,788.6 								"/>
								<polygon class="st32" points="1097.7,877 1201.2,877 1162.5,788.6 1092.6,788.6 								"/>
								<polygon class="st43" points="1089.2,877 1155.5,877 1130.6,788.6 1090.4,788.6 								"/>
								<polygon class="st32" points="1086.1,788.6 1098.4,788.6 1109.2,877 1086.1,877 								"/>
							</g>
						</g>
						<rect x="1081.8" y="788.6" class="st32" width="7.3" height="88.4"/>
					</g>
				</g>
				<g>
					<rect x="1266.5" y="755" class="st44" width="3.8" height="319.9"/>
					<rect x="1270.3" y="762.7" class="st44" width="97.2" height="3.5"/>
					<rect x="1293.4" y="764.4" class="st44" width="4" height="35"/>
					<rect x="1344.9" y="764.4" class="st44" width="4" height="35"/>
					<path class="st45" d="M1367.5,811.1c0,10-12.8,18-28.5,18h-36.9c-15.8,0-28.5-8.1-28.5-18v-23.3c0-10,12.8-18,28.5-18h36.9
						c15.8,0,28.5,8.1,28.5,18V811.1z"/>
					<path class="st31" d="M1364.4,810.3c0,9.3-11.9,16.8-26.6,16.8h-34.4c-14.7,0-26.6-7.5-26.6-16.8v-21.7
						c0-9.3,11.9-16.8,26.6-16.8h34.4c14.7,0,26.6,7.5,26.6,16.8V810.3z"/>
					<g>
						<path class="st46" d="M1297.1,786.6c0.3-0.1,0.5-0.1,0.8-0.2c0.3-0.1,0.5-0.1,0.8-0.2c0.3,0,0.5-0.1,0.8-0.1
							c0.6,0,1,0.1,1.4,0.4c0.4,0.2,0.7,0.6,0.9,1c0.2,0.4,0.3,0.9,0.3,1.4c0,0.8-0.1,1.7-0.4,2.7c-0.3,1-0.7,2-1.2,3
							c-0.5,1-1.1,2-1.8,2.9c-1,1.2-2.1,2.2-3.5,3c-1.4,0.8-2.6,1.1-3.7,1.1c-0.8,0-1.6-0.2-2.2-0.7c-0.6-0.5-1.1-1.1-1.5-2
							c-0.4-0.9-0.5-1.9-0.5-3c0-1.6,0.4-3.1,1.3-4.7c0.9-1.6,1.9-3,3.2-4.3c1.3-1.3,2.6-2.3,3.9-3.1c1.3-0.8,2.4-1.2,3.2-1.2
							c0.7,0,1.2,0.2,1.6,0.6c0.4,0.4,0.7,1.1,1,2c-0.9,0-1.7,0.1-2.3,0.3C1298.5,785.9,1297.8,786.2,1297.1,786.6z M1293.5,789.5
							c-0.7,0.7-1.3,1.6-2,2.8c-0.7,1.1-1.2,2.2-1.7,3.3c-0.4,1.1-0.6,1.9-0.6,2.5c0,1.4,0.7,2.1,2,2.1c0.9,0,2.1-0.6,3.6-1.9
							c1.5-1.3,2.7-2.8,3.8-4.5c1.1-1.8,1.6-3.4,1.6-4.8c0-1.1-0.4-1.6-1.3-1.6c-0.6,0-1.4,0.3-2.4,0.8c-0.9,0.5-1.8,1.2-2.7,2.2
							c-0.3,0.3-0.9,1.2-1.8,2.5C1292.2,792,1292.7,790.9,1293.5,789.5z"/>
						<path class="st46" d="M1302.9,797.9v-0.9c0.5-0.6,0.9-1.1,1.2-1.6c-0.3-0.1-0.5-0.2-0.7-0.4c-0.1-0.2-0.2-0.4-0.2-0.7
							c0-0.3,0.1-0.8,0.4-1.3c0.3-0.5,0.6-1,1.1-1.5s0.8-0.8,1.1-0.9c0.1-0.1,0.3-0.1,0.4-0.1c0.2,0,0.3,0.1,0.3,0.3
							c0,0.2-0.1,0.5-0.4,1c2-0.3,3.2-0.5,3.7-0.5c0.2,0,0.3,0,0.4,0.1c0.2,0.1,0.3,0.3,0.4,0.6c0.1,0.3,0.2,0.6,0.2,0.9
							c0,0.2-0.1,0.4-0.3,0.7c-0.2,0.2-0.5,0.6-0.9,1c-0.5,0.5-0.9,1.1-1.3,1.8c-0.3,0.6-0.5,1.1-0.5,1.4c0,0.4,0.3,0.7,0.8,0.7
							c0.6,0,1.6-0.6,3-1.8v1c-0.8,0.8-1.4,1.5-2,2c-0.5,0.5-1,0.9-1.4,1.1c-0.4,0.3-0.8,0.4-1.2,0.4c-0.4,0-0.7-0.2-1-0.6
							c-0.3-0.4-0.4-0.9-0.4-1.6c0-0.4,0.1-0.9,0.3-1.4c0.2-0.5,0.5-1.1,0.9-1.7c0.4-0.6,0.9-1.2,1.4-1.8c-0.3,0.1-0.6,0.1-0.9,0.2
							c-0.3,0.1-0.7,0.1-1.1,0.2c-0.4,0.1-0.7,0.1-0.9,0.2C1304.9,795.8,1304.1,796.9,1302.9,797.9z"/>
						<path class="st46" d="M1313.3,794.2c1.5-1.3,2.9-2.3,4.2-2.9c1.4-0.6,2.4-1,3.2-1c0.2,0,0.4,0.1,0.6,0.2
							c0.2,0.2,0.3,0.4,0.4,0.6c0.1,0.2,0.2,0.4,0.2,0.5c0,0.2-0.1,0.3-0.2,0.4c-0.1,0.1-0.4,0.2-0.7,0.3c0.1,0.2,0.2,0.3,0.3,0.6
							c0.1,0.2,0.2,0.4,0.2,0.6c0.1,0.1,0.1,0.3,0.1,0.4c0,0.2-0.2,0.7-0.7,1.3c-0.5,0.6-0.8,1.1-1,1.4s-0.3,0.7-0.3,1.1
							c0,0.7,0.3,1.1,1,1.1c0.7,0,1.7-0.6,3.1-1.9v0.9c-2.4,2.7-4.1,4-5.2,4c-0.4,0-0.6-0.1-0.8-0.4c-0.2-0.2-0.2-0.6-0.2-1.1
							c0-0.8,0.3-1.8,0.8-3.3c-1.4,1.5-2.4,2.6-3.1,3.3c-0.7,0.7-1.2,1-1.7,1c-0.2,0-0.5-0.2-0.8-0.5c-0.3-0.4-0.6-0.8-0.8-1.4
							c-0.2-0.6-0.4-1.2-0.4-1.8c0-0.4,0-0.8,0.1-1.1c0.1-0.3,0.3-0.6,0.5-0.9C1312.4,795.1,1312.8,794.7,1313.3,794.2z
							 M1320.2,792.6c-2.5,1.1-4.3,2.1-5.3,2.9c-1.1,0.8-1.6,1.6-1.6,2.5c0,0.3,0.1,0.6,0.2,0.8c0.1,0.2,0.2,0.3,0.4,0.3
							c0.1,0,0.3-0.1,0.6-0.2c1-0.6,1.9-1.4,2.8-2.3C1318,795.5,1319,794.3,1320.2,792.6z"/>
						<path class="st46" d="M1333.2,794.2c-1.7,1.9-2.5,3.2-2.5,3.9c0,0.4,0.2,0.6,0.5,0.6c0.3,0,0.6-0.1,1.1-0.4
							c0.4-0.3,1.1-0.8,2.1-1.6v1c-1.4,1.3-2.4,2.3-3.1,2.9c-0.7,0.6-1.3,0.9-1.8,0.9c-0.8,0-1.2-0.5-1.2-1.5c0-0.3,0-0.6,0.1-0.9
							c0.1-0.3,0.2-0.6,0.4-0.9s0.4-0.8,0.8-1.4c0.3-0.6,0.7-1.3,1.2-2c-0.5,0.3-1.2,0.8-2,1.6c-0.5,0.5-1,1-1.4,1.5
							c-0.4,0.5-0.8,1-1.2,1.5c-0.4,0.6-0.7,1-0.9,1.1c-0.2,0.2-0.4,0.3-0.6,0.3c-0.3,0-0.6-0.3-0.8-1c-0.3-0.6-0.4-1.4-0.4-2.2
							c0-0.5,0.1-0.9,0.2-1.2c0.1-0.3,0.4-0.7,0.7-1.3c0.7-1,1.2-1.8,1.7-2.2c0.5-0.5,0.9-0.7,1.4-0.7c0.3,0,0.6,0.1,0.7,0.2
							c0.2,0.1,0.3,0.3,0.3,0.5c0,0.1,0,0.2-0.1,0.3c-0.1,0.1-0.1,0.2-0.2,0.3s-0.2,0.3-0.5,0.5c-1.5,1.7-2.3,2.8-2.3,3.3
							c0,0.3,0.1,0.4,0.3,0.4c0.1,0,0.3-0.2,0.7-0.6c0.3-0.4,0.8-0.9,1.3-1.4c0.5-0.6,1.1-1.2,1.8-1.9s1.5-1.3,2.4-1.9
							c0.5-0.4,0.9-0.5,1.3-0.5c0.2,0,0.3,0.2,0.5,0.6c0.1,0.4,0.2,0.8,0.2,1.3C1333.8,793.4,1333.6,793.7,1333.2,794.2z"/>
						<path class="st46" d="M1345.7,797.7l-4.8,3.9c-1.3,2.3-2.6,4-3.7,5.2c-1.1,1.1-1.9,1.7-2.5,1.7c-0.3,0-0.4-0.2-0.4-0.5
							c0-0.7,0.3-1.6,1-2.6c0.3-0.4,0.6-0.8,1-1.2c0.4-0.4,0.7-0.7,1-1c0.3-0.3,0.7-0.7,1.3-1.1c0.5-0.4,0.9-0.7,1.1-0.9
							c1-1.9,1.6-3.4,2.1-4.5c-0.9,1-1.7,1.7-2.3,2.3c-0.7,0.6-1.3,1.1-1.8,1.4c-0.6,0.3-1.1,0.5-1.5,0.5c-0.5,0-0.9-0.4-1.3-1.2
							c-0.4-0.8-0.6-1.6-0.6-2.4c0-0.4,0.1-0.8,0.3-1.2c0.2-0.4,0.5-0.9,0.8-1.3c0.4-0.5,0.9-1,1.4-1.5c0.6-0.5,1.3-1,2-1.5
							c1.5-0.9,2.6-1.4,3.5-1.4c0.6,0,0.9,0.2,0.9,0.7c0,0.6-0.7,1.2-2,1.8c-0.8,0.4-1.6,0.8-2.4,1.4c-0.8,0.6-1.4,1.2-1.9,1.9
							s-0.7,1.2-0.7,1.8c0,0.3,0.1,0.5,0.2,0.6c0.1,0.2,0.3,0.2,0.5,0.2c0.3,0,0.7-0.2,1.1-0.5c0.4-0.3,1.1-0.8,1.9-1.6
							c0.4-0.4,0.9-0.9,1.5-1.7c0.6-0.8,1.2-1.4,1.6-1.8c0.4-0.4,0.8-0.6,1.1-0.6c0.2,0,0.3,0.1,0.5,0.2s0.2,0.3,0.2,0.5
							c0,0.4-0.2,1.1-0.5,1.9c-0.3,0.8-1,2.2-1.9,4.1l3.5-2.5V797.7z"/>
						<path class="st46" d="M1347.9,797.3v0.4c0,0.6,0.1,1,0.4,1.3c0.3,0.3,0.6,0.5,1.1,0.5c0.5,0,1-0.1,1.5-0.3
							c0.5-0.2,1-0.5,1.5-0.9c0.5-0.4,1.1-0.9,1.8-1.5v0.9c-1.1,1.3-2.1,2.3-3,3c-0.9,0.7-1.9,1-2.9,1c-0.9,0-1.5-0.3-2-1
							c-0.5-0.7-0.7-1.6-0.7-2.7c0-1,0.2-1.9,0.7-2.7c0.5-0.8,1.2-1.7,2.3-2.6c0.7-0.6,1.4-1.1,2.2-1.4c0.7-0.3,1.4-0.5,1.9-0.5
							c0.4,0,0.8,0.1,1.1,0.3c0.3,0.2,0.4,0.5,0.4,0.9c0,0.6-0.2,1.2-0.7,1.8c-0.4,0.6-1.1,1.2-2.1,1.8
							C1350.3,796.2,1349.2,796.7,1347.9,797.3z M1348,796.3c0.9-0.3,1.6-0.8,2.2-1.2c0.6-0.5,1.1-1,1.4-1.4c0.3-0.5,0.4-0.8,0.4-1
							c0-0.2-0.1-0.3-0.3-0.3c-0.2,0-0.5,0.1-0.8,0.3c-0.4,0.2-0.8,0.5-1.2,0.9s-0.8,0.8-1.1,1.2S1348.1,795.8,1348,796.3z"/>
					</g>
					<g>
						<path class="st46" d="M1297,812.4c-0.1-0.3-0.4-0.5-0.7-0.7c-0.3-0.2-0.6-0.4-1-0.5c-0.4-0.1-0.7-0.2-1.1-0.3
							c-1.2-0.2-2.3-0.6-3.3-1.1c-0.1,0-0.2-0.1-0.3-0.3c-0.1-0.2-0.1-0.3-0.1-0.4c0-0.5,0.1-1,0.3-1.5c0.2-0.5,0.4-0.9,0.7-1.2
							c0.4-0.5,1.2-0.9,2.3-1.3c1.1-0.4,2.4-0.5,3.8-0.5c0.8,0,1.5,0.1,1.9,0.2c0.5,0.1,0.7,0.3,0.7,0.6c0,0.4-0.1,0.8-0.2,1
							c-0.1,0.2-0.2,0.4-0.4,0.5c-0.1,0.1-0.4,0.2-0.7,0.3c-0.4,0.1-0.7,0.3-1,0.4c-0.3,0.1-0.5,0.3-0.7,0.4
							c-0.2,0.1-0.3,0.2-0.4,0.2c-0.1,0-0.1,0-0.1-0.1c0-0.1,0.1-0.2,0.3-0.4c0.2-0.2,0.5-0.4,0.8-0.5c0.3-0.2,0.5-0.3,0.5-0.3
							c0-0.1-0.2-0.1-0.5-0.1c-1.1,0-2.1,0.1-3,0.3c-0.9,0.2-1.6,0.4-2.2,0.8c-0.5,0.3-0.8,0.6-0.8,1c0,0.2,0.1,0.3,0.3,0.4
							c0.2,0.1,0.7,0.2,1.4,0.4c0.7,0.2,1.4,0.4,2,0.7c0.8,0.4,1.5,0.7,1.9,1.1c0.4,0.4,0.6,0.8,0.6,1.3c0,0.3-0.1,0.7-0.2,1
							c-0.2,0.3-0.4,0.6-0.7,0.9c-0.3,0.3-0.7,0.5-1.1,0.7c-0.3,0.1-0.8,0.3-1.3,0.4c-0.5,0.1-1.1,0.2-1.7,0.3
							c-0.6,0.1-1.2,0.1-1.7,0.1c-1,0-1.8-0.1-2.5-0.3c-0.6-0.2-0.9-0.5-0.9-0.9c0-0.2,0.1-0.4,0.3-0.8c0.2-0.4,0.5-0.6,0.7-0.7
							c0.2-0.1,0.5-0.2,0.7-0.2c0.2,0,0.3,0,0.3,0.1c0,0,0,0,0,0.1c0,0,0,0-0.1,0s0,0-0.1,0c-0.1,0-0.2,0.1-0.3,0.1
							c-0.1,0-0.1,0.1-0.2,0.1c0,0-0.1,0.1-0.1,0.1c0,0.1,0.6,0.2,1.8,0.2c1,0,1.9,0,2.6-0.1c0.7-0.1,1.3-0.2,1.8-0.4
							C1296.1,813,1296.6,812.8,1297,812.4z"/>
						<path class="st46" d="M1302.6,807.7h0.4c0.3-0.6,0.6-0.9,0.8-1.2c0.2-0.2,0.5-0.3,0.9-0.3c0.3,0,0.5,0.1,0.5,0.2
							c0,0.1-0.1,0.3-0.4,0.6c-0.3,0.3-0.4,0.6-0.6,0.8c0.2,0,0.4,0,0.5,0.1c0.2,0,0.3,0,0.4,0c-0.3,0.6-0.7,1.2-1.2,1.9
							c-0.2,0-0.3,0-0.4,0c-0.1,0-0.2,0-0.3,0c-0.1,0-0.3,0-0.4,0c-0.3,0.5-0.6,1-0.8,1.4c-0.2,0.4-0.4,0.8-0.5,1.1
							c-0.1,0.3-0.2,0.6-0.2,0.9c0,0.4,0.2,0.6,0.5,0.6c0.2,0,0.5-0.1,0.9-0.4c0.4-0.2,0.8-0.6,1.4-1.1v0.6
							c-1.6,1.7-2.7,2.6-3.5,2.6c-0.3,0-0.5-0.1-0.6-0.3c-0.2-0.2-0.2-0.5-0.2-0.8c0-0.2,0-0.5,0.1-0.8c0.1-0.3,0.3-0.7,0.5-1.3
							c-0.1,0.1-0.2,0.1-0.2,0.2c-0.1,0.1-0.1,0.1-0.2,0.2c-0.1,0.1-0.1,0.1-0.2,0.2c-0.1,0.1-0.1,0.1-0.2,0.2v-0.6
							c0.6-0.5,1.3-1.4,2.2-2.7c-0.1,0-0.2,0-0.2,0c-0.1,0-0.2,0-0.3,0c-0.3,0-0.6,0-0.8,0.1c-0.1,0-0.1,0-0.2,0.1
							c-0.1,0-0.1,0-0.1,0c0,0,0,0,0-0.1c0-0.2,0.1-0.5,0.4-0.9c0.2-0.3,0.4-0.6,0.5-0.7c0.2-0.2,0.4-0.3,0.6-0.3
							C1301.8,807.7,1302.2,807.7,1302.6,807.7z"/>
						<path class="st46" d="M1309.6,812.2v0.6c-0.4,0.3-0.7,0.6-0.9,0.7s-0.6,0.2-1,0.1c-0.8,0.9-1.4,1.3-2,1.3
							c-0.3,0-0.6-0.1-0.9-0.3c-0.3-0.2-0.5-0.5-0.6-0.9c-0.2-0.4-0.2-0.8-0.2-1.2c0-0.4,0.1-0.8,0.4-1.2c0.2-0.5,0.6-0.9,1-1.3
							c0.4-0.4,0.8-0.7,1.3-1c0.4-0.2,0.9-0.4,1.2-0.4c0.3,0,0.5,0,0.6,0.1c0.2,0.1,0.2,0.2,0.2,0.4c0,0.1-0.1,0.3-0.2,0.4
							c0.2,0,0.4,0.1,0.5,0.2c0.1,0.1,0.1,0.3,0.1,0.6c0,0.3-0.1,0.6-0.2,1.1c-0.1,0.4-0.3,0.8-0.5,1.2l0.2,0.2h0.1
							c0.1,0,0.2,0,0.3-0.1s0.2-0.1,0.3-0.2C1309.2,812.5,1309.4,812.4,1309.6,812.2z M1307.8,809.9c-0.5,0.3-0.9,0.6-1.2,0.8
							c-0.3,0.2-0.6,0.5-0.9,0.7c-0.2,0.2-0.4,0.5-0.5,0.7c-0.1,0.7-0.2,1-0.2,1.1c0,0.4,0.3,0.6,0.8,0.6c0.3,0,0.7-0.2,1.3-0.6
							c-0.1-0.3-0.1-0.5-0.1-0.8c0-0.4,0.1-0.7,0.2-1.1C1307.3,810.8,1307.5,810.4,1307.8,809.9z"/>
						<path class="st46" d="M1309.5,812.9v-0.6c0.3-0.4,0.6-0.7,0.7-1c-0.2-0.1-0.3-0.1-0.4-0.2c-0.1-0.1-0.1-0.2-0.1-0.4
							c0-0.2,0.1-0.5,0.3-0.8c0.2-0.3,0.4-0.6,0.6-0.9c0.3-0.3,0.5-0.5,0.7-0.5c0.1,0,0.2-0.1,0.2-0.1c0.1,0,0.2,0.1,0.2,0.2
							c0,0.1-0.1,0.3-0.3,0.6c1.2-0.2,2-0.3,2.3-0.3c0.1,0,0.2,0,0.3,0c0.1,0.1,0.2,0.2,0.2,0.4c0.1,0.2,0.1,0.4,0.1,0.6
							c0,0.1-0.1,0.3-0.2,0.4c-0.1,0.1-0.3,0.4-0.6,0.6c-0.3,0.3-0.6,0.7-0.8,1.1c-0.2,0.4-0.3,0.7-0.3,0.9c0,0.3,0.2,0.4,0.5,0.4
							c0.4,0,1-0.4,1.8-1.1v0.6c-0.5,0.5-0.9,0.9-1.2,1.2c-0.3,0.3-0.6,0.5-0.9,0.7c-0.3,0.2-0.5,0.3-0.7,0.3
							c-0.2,0-0.4-0.1-0.6-0.3c-0.2-0.2-0.2-0.5-0.2-1c0-0.3,0.1-0.5,0.2-0.9c0.1-0.3,0.3-0.7,0.6-1s0.5-0.7,0.8-1.1
							c-0.2,0-0.3,0.1-0.5,0.1c-0.2,0-0.4,0.1-0.6,0.1c-0.2,0-0.4,0.1-0.5,0.1C1310.7,811.6,1310.2,812.3,1309.5,812.9z"/>
						<path class="st46" d="M1316.2,812.5v0.2c0,0.3,0.1,0.6,0.3,0.8c0.2,0.2,0.4,0.3,0.7,0.3c0.3,0,0.6-0.1,0.9-0.2
							s0.6-0.3,0.9-0.5c0.3-0.2,0.7-0.5,1.1-0.9v0.5c-0.7,0.8-1.3,1.4-1.8,1.8c-0.6,0.4-1.2,0.6-1.8,0.6c-0.5,0-0.9-0.2-1.2-0.6
							c-0.3-0.4-0.5-1-0.5-1.6c0-0.6,0.1-1.2,0.4-1.7c0.3-0.5,0.8-1,1.4-1.6c0.4-0.4,0.9-0.7,1.3-0.9c0.4-0.2,0.8-0.3,1.2-0.3
							c0.3,0,0.5,0.1,0.6,0.2s0.2,0.3,0.2,0.6c0,0.4-0.1,0.7-0.4,1.1c-0.3,0.4-0.7,0.7-1.3,1.1
							C1317.7,811.8,1317,812.2,1316.2,812.5z M1316.3,811.9c0.5-0.2,1-0.5,1.3-0.8c0.4-0.3,0.6-0.6,0.8-0.9
							c0.2-0.3,0.3-0.5,0.3-0.6c0-0.1-0.1-0.2-0.2-0.2c-0.1,0-0.3,0.1-0.5,0.2c-0.2,0.1-0.5,0.3-0.7,0.5c-0.2,0.2-0.5,0.5-0.7,0.8
							C1316.5,811.3,1316.3,811.6,1316.3,811.9z"/>
					</g>
				</g>
			</g>
			<g>
				<polygon class="st38" points="1715.8,772.9 1751.6,1075.3 1695.2,1075.3 1695.2,812 1700.2,771 				"/>
				<g>
					<path class="st47" d="M1715.8,829.4c0,1-0.8,1.9-1.9,1.9h-37.4c-1,0-1.9-0.8-1.9-1.9l0,0c0-1,0.8-1.9,1.9-1.9h37.4
						C1714.9,827.5,1715.8,828.3,1715.8,829.4L1715.8,829.4z"/>
					<path class="st47" d="M1715.8,772.9c0,1-0.8,1.9-1.9,1.9h-37.4c-1,0-1.9-0.8-1.9-1.9l0,0c0-1,0.8-1.9,1.9-1.9h37.4
						C1714.9,771,1715.8,771.9,1715.8,772.9L1715.8,772.9z"/>
					<path class="st47" d="M1711,778.1c0,7.8-7.1,14.1-15.8,14.1c-8.7,0-15.8-6.3-15.8-14.1c0-7.8,7.1-14.1,15.8-14.1
						C1703.9,764,1711,770.3,1711,778.1z"/>
					<path class="st31" d="M1680.1,772.9c-5.4,6.8-8.9,17.1-8.9,28.6c0,10.1,2.6,19.2,6.9,25.9h34.1c4.3-6.7,6.9-15.8,6.9-25.9
						c0-11.6-3.5-21.9-8.9-28.6H1680.1z"/>
					<path class="st47" d="M1707.3,829.4l-10.2-1.4v-0.5l-1.9,0.3l-1.9-0.3v0.5l-10.2,1.4c0,0,8.2,7,7.2,19.4c1.1,0,2.1,0,2.9,0
						c0,0,0,0,0.1,0c0.3,0,1.3,0,3.8,0c0,0,0.1,0,0.1,0c0.8,0,1.8,0,2.9,0C1699.1,836.4,1707.3,829.4,1707.3,829.4z"/>
					<rect x="1693.1" y="844.6" class="st47" width="4.1" height="186.6"/>
					<rect x="1685.7" y="1029.5" class="st47" width="19" height="46"/>
					<rect x="1690.1" y="956.8" class="st47" width="10.1" height="4.1"/>
					<rect x="1690.1" y="869" class="st47" width="10.1" height="4.1"/>
				</g>
			</g>
			<g>
				<polygon class="st38" points="950.4,772.9 986.3,1075.3 929.9,1075.3 929.9,812 934.9,771 				"/>
				<g>
					<path class="st47" d="M950.4,829.4c0,1-0.8,1.9-1.9,1.9h-37.4c-1,0-1.9-0.8-1.9-1.9l0,0c0-1,0.8-1.9,1.9-1.9h37.4
						C949.6,827.5,950.4,828.3,950.4,829.4L950.4,829.4z"/>
					<path class="st47" d="M950.4,772.9c0,1-0.8,1.9-1.9,1.9h-37.4c-1,0-1.9-0.8-1.9-1.9l0,0c0-1,0.8-1.9,1.9-1.9h37.4
						C949.6,771,950.4,771.9,950.4,772.9L950.4,772.9z"/>
					<path class="st47" d="M945.6,778.1c0,7.8-7.1,14.1-15.8,14.1c-8.7,0-15.8-6.3-15.8-14.1c0-7.8,7.1-14.1,15.8-14.1
						C938.6,764,945.6,770.3,945.6,778.1z"/>
					<path class="st31" d="M914.8,772.9c-5.4,6.8-8.9,17.1-8.9,28.6c0,10.1,2.6,19.2,6.9,25.9h34.1c4.3-6.7,6.9-15.8,6.9-25.9
						c0-11.6-3.5-21.9-8.9-28.6H914.8z"/>
					<path class="st47" d="M942,829.4l-10.2-1.4v-0.5l-1.9,0.3l-1.9-0.3v0.5l-10.2,1.4c0,0,8.2,7,7.2,19.4c1.1,0,2.1,0,2.9,0
						c0,0,0,0,0.1,0c0.3,0,1.3,0,3.8,0c0,0,0.1,0,0.1,0c0.8,0,1.8,0,2.9,0C933.8,836.4,942,829.4,942,829.4z"/>
					<rect x="927.8" y="844.6" class="st47" width="4.1" height="186.6"/>
					<rect x="920.4" y="1029.5" class="st47" width="19" height="46"/>
					<rect x="924.8" y="956.8" class="st47" width="10.1" height="4.1"/>
					<rect x="924.8" y="869" class="st47" width="10.1" height="4.1"/>
				</g>
			</g>
			<g>
				<polygon class="st38" points="185.1,772.9 221,1075.3 164.6,1075.3 164.6,812 169.6,771 				"/>
				<g>
					<path class="st47" d="M185.1,829.4c0,1-0.8,1.9-1.9,1.9h-37.4c-1,0-1.9-0.8-1.9-1.9l0,0c0-1,0.8-1.9,1.9-1.9h37.4
						C184.3,827.5,185.1,828.3,185.1,829.4L185.1,829.4z"/>
					<path class="st47" d="M185.1,772.9c0,1-0.8,1.9-1.9,1.9h-37.4c-1,0-1.9-0.8-1.9-1.9l0,0c0-1,0.8-1.9,1.9-1.9h37.4
						C184.3,771,185.1,771.9,185.1,772.9L185.1,772.9z"/>
					<path class="st47" d="M180.3,778.1c0,7.8-7.1,14.1-15.8,14.1c-8.7,0-15.8-6.3-15.8-14.1c0-7.8,7.1-14.1,15.8-14.1
						C173.3,764,180.3,770.3,180.3,778.1z"/>
					<path class="st31" d="M149.5,772.9c-5.4,6.8-8.9,17.1-8.9,28.6c0,10.1,2.6,19.2,6.9,25.9h34.1c4.3-6.7,6.9-15.8,6.9-25.9
						c0-11.6-3.5-21.9-8.9-28.6H149.5z"/>
					<path class="st47" d="M176.7,829.4l-10.2-1.4v-0.5l-1.9,0.3l-1.9-0.3v0.5l-10.2,1.4c0,0,8.2,7,7.2,19.4c1.1,0,2.1,0,2.9,0
						c0,0,0,0,0.1,0c0.3,0,1.3,0,3.8,0c0,0,0.1,0,0.1,0c0.8,0,1.8,0,2.9,0C168.5,836.4,176.7,829.4,176.7,829.4z"/>
					<rect x="162.5" y="844.6" class="st47" width="4.1" height="186.6"/>
					<rect x="155" y="1029.5" class="st47" width="19" height="46"/>
					<rect x="159.5" y="956.8" class="st47" width="10.1" height="4.1"/>
					<rect x="159.5" y="869" class="st47" width="10.1" height="4.1"/>
				</g>
			</g>
		</g>
	</g>
</g>
</svg>
