<?xml version="1.0" encoding="utf-8"?>
<!-- Generator: Adobe Illustrator 19.0.0, SVG Export Plug-In . SVG Version: 6.00 Build 0)  -->
<svg version="1.1" id="Calque_1" xmlns="http://www.w3.org/2000/svg" xmlns:xlink="http://www.w3.org/1999/xlink" x="0px" y="0px"
	 viewBox="240 212.5 1920 1076.5" style="enable-background:new 240 212.5 1920 1076.5;" xml:space="preserve">
<style type="text/css">
	.st0{clip-path:url(#SVGID_2_);fill:#FAFAFA;}
	.st1{clip-path:url(#SVGID_4_);fill:#F3F2F2;}
	.st2{clip-path:url(#SVGID_6_);fill:#F3F2F2;}
	.st3{clip-path:url(#SVGID_8_);fill:#F3F2F2;}
	.st4{clip-path:url(#SVGID_10_);fill:#F3F2F2;}
	.st5{clip-path:url(#SVGID_12_);fill:#F3F2F2;}
	.st6{clip-path:url(#SVGID_14_);fill:#F3F2F2;}
	.st7{clip-path:url(#SVGID_16_);fill:#F3F2F2;}
	.st8{clip-path:url(#SVGID_18_);}
	.st9{fill:#FFB03E;}
	.st10{fill:#5AE584;}
	.st11{fill:#54D375;}
	.st12{fill:#87655C;}
	.st13{fill:#7A5A54;}
	.st14{fill:#2FE06A;}
	.st15{fill:#25C155;}
	.st16{fill:#F5F5F6;}
	.st17{fill:#E1E1E0;}
</style>
<g id="Background">
</g>
<g id="Clouds">
</g>
<g id="City_Background">
</g>
<g id="Ground">
</g>
<g id="La_x27_Tahzan_Cafe">
</g>
<g id="Green_Shop">
</g>
<g id="Orange_Store">
</g>
<g>
	<g>
		<defs>
			<rect id="SVGID_1_" x="240.2" y="212.5" width="1919.7" height="1076.5"/>
		</defs>
		<clipPath id="SVGID_2_">
			<use xlink:href="#SVGID_1_"  style="overflow:visible;"/>
		</clipPath>
		<rect x="240.1" y="-10.4" class="st0" width="1919.9" height="1298.3"/>
	</g>
	<g>
		<defs>
			<rect id="SVGID_3_" x="240.2" y="212.5" width="1919.7" height="1076.5"/>
		</defs>
		<clipPath id="SVGID_4_">
			<use xlink:href="#SVGID_3_"  style="overflow:visible;"/>
		</clipPath>
		<path class="st1" d="M623,759.7c-0.3,0-0.5,0-0.8,0c-2.5-12.2-13.2-21.3-26.1-21.3c-7.6,0-14.5,3.2-19.3,8.3
			c-13.3,2.4-23.9,12.6-26.9,25.7c-0.3,0-0.6,0-0.8,0c-11.2,0-20.4,9.1-20.4,20.4c0,11.2,9.1,20.4,20.4,20.4
			c5.5,0,10.5-2.2,14.2-5.8c5.5,3.9,12.2,6.2,19.5,6.2c8.1,0,15.6-2.9,21.4-7.7c4.9,4.8,11.5,7.7,18.8,7.7c14.9,0,26.9-12,26.9-26.9
			S637.9,759.7,623,759.7z"/>
	</g>
	<g>
		<defs>
			<rect id="SVGID_5_" x="240.2" y="212.5" width="1919.7" height="1076.5"/>
		</defs>
		<clipPath id="SVGID_6_">
			<use xlink:href="#SVGID_5_"  style="overflow:visible;"/>
		</clipPath>
		<path class="st2" d="M389.8,517.3c-0.3,0-0.5,0-0.8,0c-2.5-12.2-13.2-21.3-26.1-21.3c-7.6,0-14.5,3.2-19.3,8.3
			c-13.3,2.4-23.9,12.6-26.9,25.7c-0.3,0-0.6,0-0.8,0c-11.2,0-20.4,9.1-20.4,20.4c0,11.2,9.1,20.4,20.4,20.4
			c5.5,0,10.5-2.2,14.2-5.8c5.5,3.9,12.2,6.2,19.5,6.2c8.1,0,15.6-2.9,21.4-7.7c4.9,4.8,11.5,7.7,18.8,7.7c14.9,0,26.9-12,26.9-26.9
			S404.6,517.3,389.8,517.3z"/>
	</g>
	<g>
		<defs>
			<rect id="SVGID_7_" x="240.2" y="212.5" width="1919.7" height="1076.5"/>
		</defs>
		<clipPath id="SVGID_8_">
			<use xlink:href="#SVGID_7_"  style="overflow:visible;"/>
		</clipPath>
		<path class="st3" d="M1184.7,706.9c-0.3,0-0.7,0-1,0c-3.2-15.6-17-27.4-33.5-27.4c-9.8,0-18.6,4.1-24.8,10.7
			c-17.1,3.1-30.7,16.2-34.5,33c-0.4,0-0.7-0.1-1.1-0.1c-14.4,0-26.1,11.7-26.1,26.1s11.7,26.1,26.1,26.1c7.1,0,13.5-2.8,18.2-7.4
			c7.1,5,15.7,8,25.1,8c10.4,0,20-3.7,27.5-9.9c6.2,6.1,14.8,9.9,24.2,9.9c19.1,0,34.5-15.5,34.5-34.5
			C1219.3,722.4,1203.8,706.9,1184.7,706.9z"/>
	</g>
	<g>
		<defs>
			<rect id="SVGID_9_" x="240.2" y="212.5" width="1919.7" height="1076.5"/>
		</defs>
		<clipPath id="SVGID_10_">
			<use xlink:href="#SVGID_9_"  style="overflow:visible;"/>
		</clipPath>
		<path class="st4" d="M2055.1,470.4c-0.3,0-0.6,0-0.9,0c-3-14.6-15.9-25.7-31.4-25.7c-9.1,0-17.4,3.8-23.2,10
			c-5.1,0.9-9.8,2.8-14.1,5.4c-2.7-1-5.6-1.6-8.6-1.6c-7,0-13.3,2.9-17.7,7.6c-12.2,2.2-21.9,11.5-24.6,23.5c-0.3,0-0.5,0-0.8,0
			c-10.3,0-18.7,8.4-18.7,18.7c0,10.3,8.4,18.7,18.7,18.7c4.4,0,8.4-1.5,11.6-4.1c4.3,7,12,11.6,20.8,11.6c6.6,0,12.6-2.6,17-6.9
			c6.6,4.7,14.7,7.5,23.5,7.5c9.8,0,18.7-3.5,25.7-9.2c5.8,5.7,13.8,9.2,22.6,9.2c17.9,0,32.3-14.5,32.3-32.3
			C2087.4,484.9,2072.9,470.4,2055.1,470.4z"/>
	</g>
	<g>
		<defs>
			<rect id="SVGID_11_" x="240.2" y="212.5" width="1919.7" height="1076.5"/>
		</defs>
		<clipPath id="SVGID_12_">
			<use xlink:href="#SVGID_11_"  style="overflow:visible;"/>
		</clipPath>
		<path class="st5" d="M2144.3,750.6c0-0.1,0-0.3,0-0.4c0-14.9-12-26.9-26.9-26.9c-0.3,0-0.5,0-0.8,0c-2.5-12.2-13.2-21.3-26.1-21.3
			c-7.6,0-14.5,3.2-19.3,8.3c-13.3,2.4-23.9,12.6-26.9,25.7c-0.3,0-0.6,0-0.8,0c-9.3,0-17.1,6.2-19.5,14.7L2144.3,750.6
			L2144.3,750.6z"/>
	</g>
	<g>
		<defs>
			<rect id="SVGID_13_" x="240.2" y="212.5" width="1919.7" height="1076.5"/>
		</defs>
		<clipPath id="SVGID_14_">
			<use xlink:href="#SVGID_13_"  style="overflow:visible;"/>
		</clipPath>
		<path class="st6" d="M839.1,494.9c0-0.1,0-0.3,0-0.4c0-14.9-12-26.9-26.9-26.9c-0.3,0-0.5,0-0.8,0c-2.5-12.2-13.2-21.3-26.1-21.3
			c-7.6,0-14.5,3.2-19.3,8.3c-13.3,2.4-23.9,12.6-26.9,25.7c-0.3,0-0.6,0-0.8,0c-9.3,0-17.1,6.2-19.5,14.7h120.3V494.9z"/>
	</g>
	<g>
		<defs>
			<rect id="SVGID_15_" x="240.2" y="212.5" width="1919.7" height="1076.5"/>
		</defs>
		<clipPath id="SVGID_16_">
			<use xlink:href="#SVGID_15_"  style="overflow:visible;"/>
		</clipPath>
		<path class="st7" d="M1102.1,547.6c0-0.3,0-0.5,0-0.8c0-30.9-25.1-56-56-56c-0.5,0-1.1,0-1.6,0c-5.1-25.4-27.5-44.5-54.4-44.5
			c-15.8,0-30.1,6.6-40.2,17.3c-27.7,5-49.8,26.2-55.9,53.5c-0.6,0-1.2-0.1-1.7-0.1c-19.3,0-35.6,12.9-40.7,30.6H1102.1
			L1102.1,547.6z"/>
	</g>
	<g>
		<defs>
			<rect id="SVGID_17_" x="240.2" y="212.5" width="1919.7" height="1076.5"/>
		</defs>
		<clipPath id="SVGID_18_">
			<use xlink:href="#SVGID_17_"  style="overflow:visible;"/>
		</clipPath>
		<g class="st8">
			<path class="st9" d="M1822.7,1084.4v-12.2h6.6v-2.4h-103.2v2.4h6.3v12.2h-13.2v26.6H1699v-61.2h-82.4v-13.4h-6.3v13.4h-11.8v101
				h-22.3v-60.4h-14.5v-145l-50.7-23l-50.7,23v70h-17.4v-17.8H1426v17.8h-13.9v-7h-11.7v7h-10.2V891.8H1370v-9.1h14.2v-6.1h-88v6.1
				h14.2v9.1H1290v123.6v74.9h-22.3V891.8h-10.1v-18.1h-30.9v18.1h-18.1v-18.1h-30.9v18.1h-10.1v194h-45.9V1069h-20.2v16.8h-6.7
				v37.3h-48.5v-55.9l-88.6-35.5v143.8h67.2h21.5h48.5h25h47.8h22.2h39.1h38.9h22.3h100.1h35.8h34.2h17.5h44.4h39.5h14.5h22.3h76.4
				h3h21.1h20.1h12.8h103.9v-91.2L1822.7,1084.4L1822.7,1084.4z M1318.9,882.8h42.5v9.1h-42.5V882.8z M1738.7,1084.4v-12.2h77.7
				v12.2H1738.7z"/>
			<rect x="240.1" y="1175.4" class="st10" width="1919.7" height="113.6"/>
			<g>
				<path class="st10" d="M770.1,1175.4h-530v-72.1c40.7-26.5,85.5-50.2,165.7-50.2C588,1053.2,588,1175.4,770.1,1175.4z"/>
				<path class="st11" d="M405.8,1175.4h364.3c-182.2,0-182.2-122.2-364.3-122.2l0,0V1175.4z"/>
			</g>
			<g>
				<path class="st10" d="M1236,1175.4c-232.9,0-232.9-156.3-465.9-156.3c-232.9,0-232.9,156.3-465.9,156.3H1236z"/>
				<path class="st11" d="M770.1,1175.4H1236c-232.9,0-232.9-156.3-465.9-156.3l0,0V1175.4z"/>
			</g>
			<g>
				<path class="st10" d="M2159.8,1050.7v124.8h-440.6c192.2,0,192.2-129,384.4-129C2124.3,1046.5,2142.9,1048,2159.8,1050.7z"/>
				<path class="st11" d="M2159.8,1050.7v124.8h-56.2v-129C2124.3,1046.5,2142.9,1048,2159.8,1050.7z"/>
			</g>
			<g>
				<path class="st12" d="M634,1136.2v76.8c0,2.7,3.3,4.8,7.3,4.8s7.3-2.2,7.3-4.8v-76.8H634z"/>
				<path class="st13" d="M648.6,1136.2v76.8c0,2.7-3.3,4.8-7.3,4.8v-81.6L648.6,1136.2L648.6,1136.2z"/>
				<ellipse class="st14" cx="641.3" cy="1089.9" rx="48.4" ry="91.1"/>
				<path class="st15" d="M641.3,998.8V1181c26.7,0,48.4-40.8,48.4-91.1C689.7,1039.6,668,998.8,641.3,998.8z"/>
				<circle class="st15" cx="618.8" cy="1145.2" r="4.7"/>
				<circle class="st15" cx="631.4" cy="1111.4" r="4.7"/>
				<circle class="st15" cx="602" cy="1086.5" r="4.7"/>
				<circle class="st15" cx="626.7" cy="1054.3" r="4.7"/>
				<circle class="st14" cx="651.2" cy="1019" r="4.7"/>
				<circle class="st14" cx="670.1" cy="1042" r="4.7"/>
				<circle class="st14" cx="651.2" cy="1068.9" r="4.7"/>
				<circle class="st14" cx="670.1" cy="1084.1" r="4.7"/>
				<circle class="st14" cx="649.6" cy="1120.7" r="4.7"/>
				<circle class="st14" cx="664.6" cy="1152.6" r="4.7"/>
				<circle class="st15" cx="618.8" cy="1026.6" r="4.7"/>
			</g>
			<g>
				<path class="st12" d="M455.8,1085.1V1190c0,3.6,4.5,6.6,10,6.6s10-2.9,10-6.6v-104.9H455.8z"/>
				<path class="st13" d="M475.7,1085.1V1190c0,3.6-4.5,6.6-10,6.6v-111.4L475.7,1085.1L475.7,1085.1z"/>
				<ellipse class="st14" cx="465.8" cy="1021.9" rx="66.1" ry="124.4"/>
				<path class="st15" d="M465.8,897.4v248.9c36.5,0,66.1-55.7,66.1-124.4S502.3,897.4,465.8,897.4z"/>
				<circle class="st15" cx="435.1" cy="1097.4" r="6.4"/>
				<circle class="st15" cx="452.2" cy="1051.1" r="6.4"/>
				<circle class="st15" cx="412.2" cy="1017.2" r="6.4"/>
				<circle class="st15" cx="445.9" cy="973.1" r="6.4"/>
				<circle class="st14" cx="479.3" cy="924.9" r="6.4"/>
				<circle class="st14" cx="505.2" cy="956.4" r="6.4"/>
				<circle class="st14" cx="479.3" cy="993.1" r="6.4"/>
				<circle class="st14" cx="505.2" cy="1013.9" r="6.4"/>
				<circle class="st14" cx="477.1" cy="1063.9" r="6.4"/>
				<circle class="st14" cx="497.6" cy="1107.4" r="6.4"/>
				<circle class="st15" cx="435.1" cy="935.3" r="6.4"/>
			</g>
			<g>
				<path class="st12" d="M1911.3,1115.2v89.9c0,3.1,3.8,5.6,8.6,5.6s8.6-2.5,8.6-5.6v-89.9H1911.3z"/>
				<path class="st13" d="M1928.4,1115.2v89.9c0,3.1-3.8,5.6-8.6,5.6v-95.6L1928.4,1115.2L1928.4,1115.2z"/>
				<ellipse class="st14" cx="1919.9" cy="1060.9" rx="56.7" ry="106.7"/>
				<path class="st15" d="M1919.9,954.2v213.5c31.3,0,56.7-47.8,56.7-106.7C1976.6,1002,1951.2,954.2,1919.9,954.2z"/>
				<circle class="st15" cx="1893.6" cy="1125.7" r="5.5"/>
				<circle class="st15" cx="1908.3" cy="1086" r="5.5"/>
				<circle class="st15" cx="1873.9" cy="1056.9" r="5.5"/>
				<circle class="st15" cx="1902.8" cy="1019.1" r="5.5"/>
				<circle class="st14" cx="1931.5" cy="977.8" r="5.5"/>
				<circle class="st14" cx="1953.7" cy="1004.8" r="5.5"/>
				<circle class="st14" cx="1931.5" cy="1036.3" r="5.5"/>
				<circle class="st14" cx="1953.7" cy="1054.1" r="5.5"/>
				<circle class="st14" cx="1929.6" cy="1096.9" r="5.5"/>
				<circle class="st14" cx="1947.2" cy="1134.3" r="5.5"/>
				<circle class="st15" cx="1893.6" cy="986.7" r="5.5"/>
			</g>
			<g>
				<path class="st14" d="M1065.5,1207.6c-10.3,0-18.6,8.3-18.6,18.6h37.3C1084.1,1215.9,1075.8,1207.6,1065.5,1207.6z"/>
				<path class="st15" d="M1082.7,1214c-6.8,0-12.2,5.5-12.2,12.2h24.5C1094.9,1219.5,1089.4,1214,1082.7,1214z"/>
			</g>
			<g>
				<path class="st12" d="M2067.1,1118.1v128.1c0,4.4,5.5,8,12.2,8s12.2-3.6,12.2-8v-128.1H2067.1z"/>
				<path class="st13" d="M2091.3,1118.1v128.1c0,4.4-5.5,8-12.2,8v-136.1H2091.3z"/>
				<ellipse class="st14" cx="2079.3" cy="1040.9" rx="80.7" ry="152"/>
				<path class="st15" d="M2079.3,888.9v303.9c44.6,0,80.7-68,80.7-152C2159.9,956.9,2123.8,888.9,2079.3,888.9z"/>
				<circle class="st15" cx="2041.8" cy="1133.1" r="7.8"/>
				<circle class="st15" cx="2062.6" cy="1076.6" r="7.8"/>
				<circle class="st15" cx="2013.8" cy="1035.2" r="7.8"/>
				<circle class="st15" cx="2054.9" cy="981.4" r="7.8"/>
				<circle class="st14" cx="2095.8" cy="922.5" r="7.8"/>
				<circle class="st14" cx="2127.3" cy="961" r="7.8"/>
				<circle class="st14" cx="2095.8" cy="1005.8" r="7.8"/>
				<circle class="st14" cx="2127.3" cy="1031.2" r="7.8"/>
				<circle class="st14" cx="2093.1" cy="1092.2" r="7.8"/>
				<circle class="st14" cx="2118.1" cy="1145.3" r="7.8"/>
				<circle class="st15" cx="2041.8" cy="935.2" r="7.8"/>
			</g>
			<g>
				<path class="st14" d="M2091.4,1241.9c-6.8,0-12.2,5.5-12.2,12.2h24.5C2103.6,1247.4,2098.3,1241.9,2091.4,1241.9z"/>
				<path class="st15" d="M2115.1,1233.5c-11.4,0-20.7,9.2-20.7,20.7h41.3C2135.6,1242.8,2126.4,1233.5,2115.1,1233.5z"/>
			</g>
			<g>
				<path class="st16" d="M1520.4,1223.7c-10.8,0-19.6,8.8-19.6,19.6h39.2C1540.1,1232.5,1531.3,1223.7,1520.4,1223.7z"/>
				<path class="st17" d="M1540.1,1243.3c0-10.8-8.8-19.6-19.6-19.6v19.6H1540.1z"/>
			</g>
			<g>
				<path class="st16" d="M592.9,1209.2c-10.8,0-19.6,8.8-19.6,19.6h39.2C612.5,1218,603.7,1209.2,592.9,1209.2z"/>
				<path class="st17" d="M612.5,1228.8c0-10.8-8.8-19.6-19.6-19.6v19.6H612.5z"/>
			</g>
			<g>
				<path class="st16" d="M1764.8,1180.5c-5.7,0-10.3,4.6-10.3,10.3h20.7C1775.1,1185.1,1770.5,1180.5,1764.8,1180.5z"/>
				<path class="st17" d="M1775.1,1190.8c0-5.7-4.6-10.3-10.3-10.3v10.3H1775.1z"/>
			</g>
			<g>
				<path class="st16" d="M718.4,1194.4c-5.7,0-10.3,4.6-10.3,10.3h20.7C728.7,1199,724.1,1194.4,718.4,1194.4z"/>
				<path class="st17" d="M728.7,1204.7c0-5.7-4.6-10.3-10.3-10.3v10.3H728.7z"/>
			</g>
			<g>
				<path class="st16" d="M1964.6,1201.1c-8.3,0-15,6.7-15,15h30.1C1979.7,1207.8,1972.9,1201.1,1964.6,1201.1z"/>
				<path class="st17" d="M1979.7,1216.1c0-8.3-6.7-15-15-15v15H1979.7z"/>
			</g>
			<g>
				<g>
					<path class="st12" d="M882.7,1024.5v22.5c0,0.8,1,1.4,2.1,1.4c1.2,0,2.1-0.6,2.1-1.4v-22.5H882.7z"/>
					<path class="st13" d="M887,1024.5v22.5c0,0.8-1,1.4-2.1,1.4v-24L887,1024.5L887,1024.5z"/>
				</g>
				<polygon class="st14" points="884.8,974.5 865.1,1036.5 904.5,1036.5 				"/>
				<polygon class="st15" points="904.5,1036.5 884.8,974.5 884.8,1036.5 				"/>
			</g>
			<g>
				<g>
					<path class="st12" d="M716.8,1009v16.5c0,0.6,0.7,1,1.6,1s1.6-0.5,1.6-1V1009H716.8z"/>
					<path class="st13" d="M720,1009v16.5c0,0.6-0.7,1-1.6,1V1009H720z"/>
				</g>
				<polygon class="st14" points="718.4,972.4 704,1017.8 732.8,1017.8 				"/>
				<polygon class="st15" points="732.8,1017.8 718.4,972.4 718.4,1017.8 				"/>
			</g>
			<g>
				<g>
					<path class="st12" d="M1018.7,1123.6v22.5c0,0.8,1,1.4,2.1,1.4s2.1-0.6,2.1-1.4v-22.5H1018.7z"/>
					<path class="st13" d="M1023,1123.6v22.5c0,0.8-1,1.4-2.1,1.4v-24L1023,1123.6L1023,1123.6z"/>
				</g>
				<polygon class="st14" points="1020.8,1073.6 1001.1,1135.6 1040.5,1135.6 				"/>
				<polygon class="st15" points="1040.5,1135.6 1020.8,1073.6 1020.8,1135.6 				"/>
			</g>
			<g>
				<g>
					<path class="st12" d="M1822.2,1150.6v22.5c0,0.8,1,1.4,2.1,1.4c1.2,0,2.1-0.6,2.1-1.4v-22.5H1822.2z"/>
					<path class="st13" d="M1826.5,1150.6v22.5c0,0.8-1,1.4-2.1,1.4v-24L1826.5,1150.6L1826.5,1150.6z"/>
				</g>
				<polygon class="st14" points="1824.3,1100.5 1804.6,1162.6 1844,1162.6 				"/>
				<polygon class="st15" points="1844,1162.6 1824.3,1100.5 1824.3,1162.6 				"/>
			</g>
			<g>
				<g>
					<path class="st12" d="M551.4,1086.6v22.5c0,0.8,1,1.4,2.1,1.4c1.2,0,2.1-0.6,2.1-1.4v-22.5H551.4z"/>
					<path class="st13" d="M555.7,1086.6v22.5c0,0.8-1,1.4-2.1,1.4v-24L555.7,1086.6L555.7,1086.6z"/>
				</g>
				<polygon class="st14" points="553.6,1036.5 533.9,1098.6 573.2,1098.6 				"/>
				<polygon class="st15" points="573.2,1098.6 553.6,1036.5 553.6,1098.6 				"/>
			</g>
			<g>
				<g>
					<path class="st12" d="M270.1,1081.9v22.5c0,0.8,1,1.4,2.1,1.4c1.2,0,2.1-0.6,2.1-1.4v-22.5H270.1z"/>
					<path class="st13" d="M274.4,1081.9v22.5c0,0.8-1,1.4-2.1,1.4v-24L274.4,1081.9L274.4,1081.9z"/>
				</g>
				<polygon class="st14" points="272.2,1031.9 252.5,1093.9 291.9,1093.9 				"/>
				<polygon class="st15" points="291.9,1093.9 272.2,1031.9 272.2,1093.9 				"/>
			</g>
			<g>
				<g>
					<path class="st12" d="M797.5,1117.7v35.3c0,1.2,1.5,2.2,3.4,2.2s3.4-1,3.4-2.2v-35.3H797.5z"/>
					<path class="st13" d="M804.2,1117.7v35.3c0,1.2-1.5,2.2-3.4,2.2v-37.5H804.2z"/>
				</g>
				<polygon class="st14" points="800.9,1039.4 770.1,1136.4 831.7,1136.4 				"/>
				<polygon class="st15" points="831.7,1136.4 800.9,1039.4 800.9,1136.4 				"/>
			</g>
			<g>
				<path class="st12" d="M315.7,1129.1v67.1c0,2.3,2.9,4.2,6.4,4.2s6.4-1.9,6.4-4.2v-67.1H315.7z"/>
				<path class="st13" d="M328.5,1129.1v67.1c0,2.3-2.9,4.2-6.4,4.2v-71.3L328.5,1129.1L328.5,1129.1z"/>
				<ellipse class="st14" cx="322.1" cy="1088.6" rx="42.3" ry="79.7"/>
				<path class="st15" d="M322.1,1008.9v159.3c23.4,0,42.3-35.7,42.3-79.7S345.5,1008.9,322.1,1008.9z"/>
				<circle class="st15" cx="302.5" cy="1136.9" r="4.1"/>
				<circle class="st15" cx="313.5" cy="1107.3" r="4.1"/>
				<circle class="st15" cx="287.8" cy="1085.6" r="4.1"/>
				<circle class="st15" cx="309.4" cy="1057.4" r="4.1"/>
				<circle class="st14" cx="330.8" cy="1026.5" r="4.1"/>
				<circle class="st14" cx="347.4" cy="1046.7" r="4.1"/>
				<circle class="st14" cx="330.8" cy="1070.2" r="4.1"/>
				<circle class="st14" cx="347.4" cy="1083.5" r="4.1"/>
				<circle class="st14" cx="329.4" cy="1115.5" r="4.1"/>
				<circle class="st14" cx="342.5" cy="1143.3" r="4.1"/>
				<circle class="st15" cx="302.5" cy="1033.2" r="4.1"/>
			</g>
			<g>
				<path class="st14" d="M312.5,1196.6c-6,0-10.9,4.9-10.9,10.9h21.8C323.4,1201.5,318.5,1196.6,312.5,1196.6z"/>
				<path class="st15" d="M333.5,1189.1c-10.2,0-18.4,8.2-18.4,18.4h36.8C351.9,1197.3,343.6,1189.1,333.5,1189.1z"/>
			</g>
		</g>
	</g>
</g>
</svg>
