<?xml version="1.0" encoding="utf-8"?>
<!-- Generator: Adobe Illustrator 19.0.0, SVG Export Plug-In . SVG Version: 6.00 Build 0)  -->
<svg version="1.1" id="Calque_1" xmlns="http://www.w3.org/2000/svg" xmlns:xlink="http://www.w3.org/1999/xlink" x="0px" y="0px"
	 viewBox="0 91 612 612" style="enable-background:new 0 91 612 612;" xml:space="preserve">
<style type="text/css">
	.st0{fill:#D4E1F4;}
	.st1{fill:#0062FF;}
	.st2{fill:#FF5F59;}
</style>
<g>
	<path class="st0" d="M89.7,230.2c-11.3-26.5,0.9-57.1,27.4-68.5c6.5-2.8,13.5-4.2,20.5-4.2h322.6v-12.8H112
		c-28.8,0-52.2,23.4-52.1,52.2c0,25,17.7,46.5,42.3,51.2c0.1,0,0.2,0,0.3,0.1C96.9,243.1,92.6,237,89.7,230.2L89.7,230.2z"/>
	<path class="st1" d="M489.7,189h-14v-52c0-4.3-3.4-7.7-7.7-7.7H112c-37.3,0-67.6,30.2-67.6,67.5c0,32.4,23,60.2,54.8,66.3
		c3,0.6,5.1,3.3,5.1,6.3v52.9c0,16.1,13.1,29.2,29.2,29.2s29.2-13.1,29.2-29.2v-32.9c0-7.6,6.2-13.8,13.8-13.8h0.3
		c7.6,0,13.8,6.2,13.8,13.8v103.8c0,16.1,13.1,29.2,29.2,29.2h0.2c16.1,0,29.2-13.1,29.2-29.2V270.9c0-3.6,2.9-6.5,6.5-6.5H468
		c4.3,0,7.7-3.4,7.7-7.7v-52.2h14c34.5,0,62.5,28,62.5,62.5s-28,62.5-62.5,62.5H310.1c-4.3,0-7.7,3.4-7.7,7.7v96.3
		c0,4.3,3.4,7.7,7.7,7.7c4.3,0,7.7-3.4,7.7-7.7v-88.6h171.9c43,0,77.9-34.9,77.9-77.9S532.7,189,489.7,189L489.7,189z M460.3,249
		H255.5c-12.1,0-21.9,9.8-21.9,21.9v122.5c0,7.6-6.2,13.8-13.8,13.8h-0.2c-7.6,0-13.8-6.2-13.8-13.8V289.6
		c0-16.1-13.1-29.2-29.2-29.2h-0.3c-16.1,0-29.2,13.1-29.2,29.2v32.9c0,7.6-6.2,13.8-13.8,13.8c-7.6,0-13.8-6.2-13.8-13.8v-52.9
		c0-10.4-7.3-19.4-17.6-21.5c-28.3-5.5-46.8-32.8-41.3-61.1c4.7-24.5,26.2-42.3,51.2-42.3h348.3V249H460.3z"/>
	<path class="st2" d="M273.4,664.7h73.3c4.3,0,7.7-3.4,7.7-7.7V434.8c0-4.3-3.4-7.7-7.7-7.7h-73.3c-4.3,0-7.7,3.4-7.7,7.7V657
		C265.7,661.3,269.2,664.7,273.4,664.7z M339,610.9h-57.9v-23.1H339V610.9z M339,572.4h-57.9v-23.1H339V572.4z M281.1,649.3v-23.1
		H339v23.1H281.1z M339,442.5v91.4h-57.9v-91.4L339,442.5L339,442.5z"/>
</g>
</svg>
