<?xml version="1.0" encoding="utf-8"?>
<!-- Generator: Adobe Illustrator 19.0.0, SVG Export Plug-In . SVG Version: 6.00 Build 0)  -->
<svg version="1.1" xmlns="http://www.w3.org/2000/svg" xmlns:xlink="http://www.w3.org/1999/xlink" x="0px" y="0px"
	 viewBox="0 0 500 324.5" style="enable-background:new 0 0 500 324.5;" xml:space="preserve">
<style type="text/css">
	.st0{fill:#F4F4F4;}
	.st1{fill:#FA968C;}
	.st2{fill:#8C29FF;}
	.st3{fill:#FAB9AF;}
	.st4{fill:#F57A2F;}
	.st5{fill:#0091C8;}
	.st6{fill:#7F00FF;}
	.st7{fill:#5E05DB;}
	.st8{fill:#FF8C46;}
	.st9{fill:#ED4C67;}
	.st10{fill:#41378C;}
	.st11{fill:none;stroke:#5046AF;stroke-width:2.0668;stroke-linecap:round;stroke-miterlimit:10;}
	.st12{fill:none;stroke:#9F9FFF;stroke-width:2.0668;stroke-linecap:round;stroke-miterlimit:10;}
	.st13{fill:#5046AF;}
	.st14{fill:#FFFFFF;}
	.st15{opacity:0.4;fill:none;stroke:#7F00FF;stroke-width:0.9879;stroke-miterlimit:10;}
	.st16{fill:#A5C8CD;}
	.st17{fill:#B4D7DC;}
	.st18{fill:#6A00E5;}
	.st19{fill:#41B4E6;}
	.st20{fill:#7006ED;}
	.st21{fill:#5B07D3;}
	.st22{fill:#9043FF;}
	.st23{fill:#D2DAF9;}
</style>
<g id="BACKGROUND">
	<rect id="XMLID_141_" class="st0" width="500" height="324.5"/>
	<g id="XMLID_1_">
		<rect id="XMLID_114_" class="st0" width="500" height="324.5"/>
	</g>
</g>
<g id="OBJECTS">
	<g id="XMLID_12_">
		<g id="XMLID_13_">
			<g id="XMLID_14_">
				<path class="st1" d="M343.7,21.2c0.1-1.4,2.5-4.2,2.1-4.6c-0.3-0.3-1.2,0.6-1.7,1.1c-0.1,0.1-0.1,0.1-0.2,0.1
					c-0.1,0-0.1-0.1-0.1-0.2c-0.1-1.4-0.5-5.2-0.8-5.3c-0.4,0-0.6,2.4-0.6,3.2c0,0,0,0,0,0c0,0,0,0-0.1,0c-0.3-0.9-1.3-3.7-1.7-3.3
					c-0.4,0.3,0.2,3,0.5,4c0,0,0,0.1,0,0.1c0,0-0.1,0-0.1,0c-0.5-0.9-1.9-3.3-2.3-3c-0.4,0.3,0.7,2.8,1.1,3.7c0,0,0,0.1,0,0.1
					c0,0-0.1,0-0.1,0c-0.6-0.7-2.2-2.4-2.1-1.9c0,0.6,2.7,5.8,3.6,6.7C341.9,22.9,343.7,21.2,343.7,21.2z"/>
				<path id="XMLID_15_" class="st1" d="M368.2,38.5c-1.9,4.1-4.5,8.8-7.7,12c-6.3,6.2-14.3,4.6-17.1-9.9c-0.5-2.2-0.8-4.4-1.1-6.5
					c-0.6-4.3-0.8-8.7-1-13c0-0.7,0.5-1.2,1.1-1.2c0.6,0,1.1,0.4,1.2,0.9l0,0c0.9,4.2,1.7,8.4,2.8,12.4c0.6,2,1.1,4,1.8,6
					c0.6,1.8,3,7.5,4.8,8.1c0.1,0,0.1,0.1,0.2,0c0,0,0.1,0,0.1,0c0,0,0.1-0.1,0.1-0.1c0.1-0.1,0.2-0.1,0.4-0.3
					c0.4-0.3,1-0.8,1.5-1.4c1.1-1.3,2.1-2.9,2.9-4.7c1.5-3,2.4-5.1,2.4-5.1c1.9-5.1,9.6-2.7,7.8,2.5
					C368.3,38.3,368.3,38.4,368.2,38.5z"/>
				<path class="st2" d="M355.8,44.1C355.8,44,355.8,44,355.8,44.1c1-1.4,1.8-2.9,2.7-4.4c0.8-1.4,1.6-3.1,2.2-4.4l0-0.1
					c0-0.1,0.1-0.2,0.2-0.3c1.1-2,3.6-2.8,5.6-1.7c2,1.1,2.8,3.6,1.7,5.6c-1,1.9-2,3.4-3.1,5.1c-0.7,1.1-1.5,2.1-2.4,3.2
					C362.1,46.3,357.2,44.6,355.8,44.1z"/>
				<path class="st3" d="M359.8,72.8c3.6,4.1,24.4,5.9,24.4,5.9c1.5-1.8-0.7-9.9-1.2-18.1c-0.6-8.9-0.9-18.7-1.1-24
					c-0.1-2.2-1.9-3.9-4-3.9h-13.2c-2,0-3.7,1.6-3.9,3.6c-0.3,4.2-0.9,11.5-1.5,18.6C358.6,62.1,356.7,69.2,359.8,72.8z"/>
				<path class="st1" d="M371.8,141.9l0,8.2l0.7,4c0.1,0.7-0.4,1.3-1.1,1.3c-3.3,0.1-11.9,0.3-12.1,0c-1.1-1.7,3.8-2.4,7.4-3.8
					c3.6-1.4,1.1-14.9,1.1-14.9L371.8,141.9z"/>
				<path class="st4" d="M366.6,151.5C366.6,151.5,366.7,151.5,366.6,151.5c0.9,0.3,1.9,0.5,2.9,0.5c0.9,0,1.8-0.1,2.5-0.4l0.4,2.4
					c0.1,0.7-0.4,1.3-1.1,1.3c-3.3,0.1-11.9,0.3-12.1,0C358.2,153.6,363.1,152.9,366.6,151.5z"/>
				<path class="st5" d="M359.8,75.8c-0.1,5.7,2.1,41.7,6.5,41.8c4.4,0.1,9.3-35.8,9.5-41.5c0.1-5.7-3.3-10.4-7.8-10.5
					C363.6,65.6,360,70.1,359.8,75.8z"/>
				<path class="st6" d="M372.5,110.1c0.4,3.1,0.5,23.2-0.2,33.3h-4c-2.2-9.9-4.5-29-4.9-32.1c0,0,0-0.1,0-0.1
					c-2.4-10.6-3.6-31.3-3.5-35.5c0.1-5.7,3.8-10.2,8.2-10.1c4.4,0.1,7.9,4.8,7.8,10.5C375.7,79.7,372.2,108.6,372.5,110.1z"/>
				<path class="st7" d="M371.8,126c0.1-2.2-0.1-4.3-0.7-6.3c-1.6-6-1.6-12.3-1-18.5c0.1-0.5,0.1-1,0.1-1.6
					c0.4-8.1-4-15.5-10.3-20.1c-0.1-1.7-0.1-3-0.1-3.8c0.1-5.7,3.8-10.2,8.2-10.1c4.4,0.1,7.9,4.8,7.8,10.5
					c-0.1,3.6-3.6,32.5-3.4,34c0.4,3.1,0.5,23.2-0.2,33.3h-4c-0.3-1.2-0.5-2.5-0.8-3.8C370,135.7,371.6,131,371.8,126z"/>
				<path class="st1" d="M381.5,141.9l0,8.2l0.7,4c0.1,0.7-0.4,1.3-1.1,1.3c-3.3,0.1-11.9,0.3-12.1,0c-1.1-1.7,3.8-2.4,7.4-3.8
					c3.6-1.4,1.1-14.9,1.1-14.9L381.5,141.9z"/>
				<path class="st8" d="M376.3,151.5C376.3,151.5,376.3,151.5,376.3,151.5c0.9,0.3,1.9,0.5,2.9,0.5c0.9,0,1.8-0.1,2.5-0.4l0.4,2.4
					c0.1,0.7-0.4,1.3-1.1,1.3c-3.3,0.1-11.9,0.3-12.1,0C367.8,153.6,372.7,152.9,376.3,151.5z"/>
				<path class="st5" d="M369.5,75.8c-0.1,5.7,2.1,41.7,6.5,41.8c4.4,0.1,8.4-35.9,8.5-41.6s-2.4-10.2-6.8-10.3
					C373.3,65.6,369.6,70.1,369.5,75.8z"/>
				<path class="st6" d="M382.1,110.1c0.4,3.1,0.5,23.2-0.2,33.3h-4c-2.2-9.9-4.5-29-4.9-32.1c0,0,0-0.1,0-0.1
					c-2.4-10.6-4.5-31.4-4.5-35.6c0.1-5.7,4.8-10.1,9.2-10c4.4,0.1,6.9,4.7,6.8,10.3C384.4,79.6,381.9,108.6,382.1,110.1z"/>
				<path class="st6" d="M364.5,32.7h2.1c0.7,1.7,2.3,3.1,4.8,3.1c2.5,0,4-1.3,4.8-3.1h2c2,0,3.6,1.6,3.7,3.6
					c0.1,5.2,0.5,15.2,1.1,24.3c0.5,8.2,2.8,15.8,1.2,18.1c0,0-20.8-1.7-24.4-5.9c-3.1-3.6-1.2-10.7-0.6-17.9
					c0.6-7.2,1.2-14.6,1.6-18.8C360.9,34.2,362.6,32.7,364.5,32.7z"/>
				<path class="st7" d="M379.5,44.5c0.2-4.2-0.9-8.3-2.9-11.8h1.5c2,0,3.6,1.6,3.7,3.6c0.1,5.2,0.5,15.2,1.1,24.3
					c0.5,8.2,2.8,15.8,1.2,18.1c0,0-20.8-1.7-24.4-5.9c-0.8-0.9-1.3-2.1-1.5-3.5C370.4,67.4,379,56.8,379.5,44.5z"/>
				<path id="XMLID_88_" class="st9" d="M372,27.9l0.2,0.1c1.9,0.4,3.7-0.8,4.2-2.7l1.1-5l-3.7-0.8L372,27.9z"/>
				<g id="XMLID_18_">
					<polygon class="st3" points="368.8,32.7 375.7,32.7 373.7,25.8 369,26.4 					"/>
				</g>
				<path class="st1" d="M369,26.4l4.7-0.6l0.9,3.2c-1.1,1.2-2.6,3-4.3,3c-0.5,0-1-0.2-1.5-0.4L369,26.4z"/>
				<path class="st3" d="M368.3,30L368.3,30c3.1,0.7,6.2-1.3,6.9-4.4l1.4-6.2l-9.6-2.1c0,0-1.1,4.9-1.1,8.3
					C365.7,28.2,366.7,29.7,368.3,30z"/>
				
					<rect id="XMLID_87_" x="374.6" y="21.7" transform="matrix(-0.9762 -0.2171 0.2171 -0.9762 737.1994 125.259)" class="st10" width="1.9" height="0.8"/>
				<path class="st3" d="M373.7,24.1c-0.3,1.2,0.1,2.3,0.8,2.5c0.7,0.2,1.9-1.3,2.1-2.5s-0.4-1.8-1.2-1.9
					C374.8,22,374,22.9,373.7,24.1z"/>
				<path class="st9" d="M365.6,19.7c-0.1-0.8,0.1-1.7,0.4-2.4l0,0c0.8-1.9,2.9-2.7,4.9-2.1c0.2,0.1,0.4,0.1,0.6,0.2l3.2,0.7
					c2,0.4,3.2,2.4,2.7,4.3l-0.2,0.8l-1.9,1.1l-0.8,1.4l-0.1,0c-0.6-0.1-1-0.7-0.9-1.4c0.2-1-0.3-2-1.4-2.2l-2.9-0.6
					c-1.8-0.4-2.9,0.3-3.2,1.7l-0.2,1.1L365.6,19.7z"/>
				<g id="XMLID_19_">
					<line id="XMLID_22_" class="st11" x1="374.8" y1="56.8" x2="422.3" y2="320.8"/>
					<line id="XMLID_23_" class="st11" x1="382.8" y1="320.8" x2="335.4" y2="56.8"/>
					<line id="XMLID_24_" class="st11" x1="338.5" y1="68.5" x2="377.1" y2="68.5"/>
					<line id="XMLID_25_" class="st11" x1="341.1" y1="86.2" x2="380.2" y2="86.2"/>
					<line id="XMLID_26_" class="st11" x1="344.7" y1="103.9" x2="383.4" y2="103.9"/>
					<line id="XMLID_37_" class="st11" x1="348.1" y1="121.5" x2="386.6" y2="121.5"/>
					<line id="XMLID_38_" class="st11" x1="350.2" y1="139.2" x2="389.2" y2="139.2"/>
					<line id="XMLID_39_" class="st11" x1="352.9" y1="156.6" x2="392.4" y2="156.6"/>
					<line id="XMLID_40_" class="st11" x1="356.9" y1="174.5" x2="395.8" y2="174.5"/>
					<line id="XMLID_41_" class="st11" x1="360" y1="192.2" x2="399" y2="192.2"/>
					<line id="XMLID_42_" class="st11" x1="363.2" y1="208.9" x2="402.2" y2="208.9"/>
					<line id="XMLID_43_" class="st11" x1="365.8" y1="225.6" x2="404.9" y2="225.6"/>
					<line id="XMLID_44_" class="st11" x1="368.9" y1="242.3" x2="407.9" y2="242.3"/>
					<line id="XMLID_45_" class="st11" x1="371.9" y1="259" x2="410.9" y2="259"/>
					<line id="XMLID_46_" class="st11" x1="374.8" y1="275.7" x2="413.8" y2="275.7"/>
					<line id="XMLID_47_" class="st11" x1="378.2" y1="292.4" x2="417.2" y2="292.4"/>
				</g>
				<g id="XMLID_48_">
					<line class="st12" x1="335.4" y1="56.8" x2="287.5" y2="321.4"/>
					<line class="st12" x1="327" y1="321.4" x2="374.8" y2="56.8"/>
					<line class="st12" x1="371.7" y1="68.5" x2="333.2" y2="68.5"/>
					<line class="st12" x1="369.1" y1="86.2" x2="330" y2="86.2"/>
					<line class="st12" x1="365.6" y1="103.9" x2="326.8" y2="103.9"/>
					<line class="st12" x1="362.1" y1="121.5" x2="323.6" y2="121.5"/>
					<line class="st12" x1="359.3" y1="139.2" x2="320.4" y2="139.2"/>
					<line class="st12" x1="356.7" y1="156.6" x2="317.2" y2="156.6"/>
					<line class="st12" x1="352.9" y1="174.5" x2="313.9" y2="174.5"/>
					<line class="st12" x1="350.2" y1="192.2" x2="311.2" y2="192.2"/>
					<line class="st12" x1="347.2" y1="212" x2="308.2" y2="212"/>
					<line class="st12" x1="342.6" y1="231.9" x2="303.6" y2="231.9"/>
					<line class="st12" x1="339.3" y1="251.7" x2="300.2" y2="251.7"/>
					<line class="st12" x1="336.1" y1="271.5" x2="297" y2="271.5"/>
					<line class="st12" x1="331.9" y1="291.5" x2="292.9" y2="291.5"/>
				</g>
				<path class="st9" d="M375.4,17.4c0.2,1.8-6.2,4-7.9,4.2c-1.7,0.2-3.2-1.1-3.5-2.8c-0.2-1.8,1-3.4,2.7-3.6
					C368.4,15,375.1,15.6,375.4,17.4z"/>
				<path class="st6" d="M286.9,20.1c-2,0.4-3.4,2.3-3.1,4.4l3.5,19.7l1.3-0.2c1.2-2.6,3.8-4.4,7.1-4.4c3.1,0,5.9,2,7,4.8
					c1.8,4.7-1.1,9.5-5.8,10.3c-2.5,0.5-5-0.4-6.7-2.1l-1.3,0.2l3.9,21.8c0.4,2,2.3,3.4,4.4,3.1l19.7-3.5l-0.2-1.4
					c-2.6-1.2-4.4-3.8-4.4-7.1c0-3.1,2-5.9,4.8-7c4.7-1.8,9.5,1.1,10.3,5.8c0.5,2.5-0.4,5-2.1,6.7l0.2,1.4l21.8-3.9
					c2-0.4,3.4-2.3,3.1-4.4l-8.9-50.1c-0.4-2-2.3-3.4-4.4-3.1L286.9,20.1z"/>
				<path id="XMLID_49_" class="st3" d="M382.7,39.4c-2.1,2.9-5.8,6.7-10.1,10c-13.3,9.7-27.6,10.7-39.2-0.3c-0.5-0.5-0.5-1.2,0-1.7
					c0.4-0.4,1-0.5,1.5-0.2l0.1,0c7.6,4.4,14.4,6.2,22.9,2.6c11.2-4.8,19.2-16.5,18.3-15.4c1.4-1.8,4-2.2,5.8-0.8
					C383.6,35,384,37.6,382.7,39.4z"/>
				<g id="XMLID_50_">
					<path class="st2" d="M369.9,41.1c2.8-2.5,6.3-7.4,6.3-7.4s1.7-2,5.1-0.5c2.8,1.2,2.2,4.4,2.2,4.4c-0.1,0.5-1,5.8-7.3,10.6
						C376.2,48.2,369.5,41.6,369.9,41.1z"/>
				</g>
				<path class="st3" d="M335.6,47.7c-0.9-1.1-1.2-4.8-1.7-4.8c-0.4,0-0.4,1.3-0.4,2c0,0.1-0.1,0.2-0.1,0.2c-0.1,0-0.2,0-0.2,0
					c-1-0.9-4-3.4-4.3-3.2c-0.3,0.2,1.2,2.1,1.8,2.8c0,0,0,0,0,0.1c0,0,0,0-0.1,0c-0.8-0.4-3.5-1.7-3.5-1.2c-0.1,0.5,2.3,2,3.2,2.6
					c0,0,0,0,0,0.1c0,0,0,0-0.1,0c-1-0.3-3.6-1-3.7-0.6c-0.1,0.5,2.5,1.6,3.4,1.9c0,0,0,0,0,0.1c0,0,0,0-0.1,0
					c-0.9-0.1-3.2-0.2-2.8,0.1c0.4,0.4,6,2.3,7.2,2.3C335.4,50.1,335.6,47.7,335.6,47.7z"/>
			</g>
			<rect x="118.7" y="110.8" class="st13" width="263.7" height="160.5"/>
			<rect id="XMLID_86_" x="132" y="122.8" class="st14" width="237" height="136.4"/>
			<g id="XMLID_51_">
				<rect x="147.5" y="157.1" class="st15" width="60.7" height="87"/>
				<rect id="XMLID_85_" x="221.9" y="157.1" class="st15" width="60.7" height="87"/>
				<rect x="296.3" y="157.1" class="st15" width="60.7" height="87"/>
			</g>
			<rect id="XMLID_84_" x="132" y="122.8" class="st16" width="237" height="2.2"/>
			<g id="XMLID_54_">
				<path class="st1" d="M95.4,294.8c0,0-5.4,6.2-6.4,7.2c-0.8,0.8-2,1.1-3.1,1.4c-0.4,0.1-0.8,0.5-1.2,0.8c-0.3,0.2-0.5,0.6-0.5,1
					c0.1,7,6.2,11.9,6.6,11.5c0.6-0.7,0.1-2.8-1-4.1c-1.2-1.4-1.5-3.3-0.9-5l0,0c0.4-1.4,1.2-2.6,2.2-3.6l4.7-4.4L95.4,294.8z"/>
				<path class="st17" d="M83.2,323.4h88.5c0.7,0,1.3-0.6,1.3-1.3l0,0c0-0.7-0.6-1.3-1.3-1.3H83.2c-0.7,0-1.3,0.6-1.3,1.3l0,0
					C81.9,322.8,82.5,323.4,83.2,323.4z"/>
				<path class="st1" d="M150.7,303.7l4.3,7.2c1.3,2.2,1.8,4.8,1.4,7.3c0,0,0,0,0,0c-0.2,1.4,0.8,2.7,2.2,2.8
					c4.6,0.1,13.6,0.3,13.9-0.1c1.3-2.2-4.4-3.1-8.8-4.6c-3-1-6.7-9.2-9-15.6l-3.5,2.2C150.8,303.1,150.7,303.4,150.7,303.7z"/>
				<path class="st9" d="M163.6,318.7c1.9,0,3.8-0.4,5.6-0.8c0.2,0,0.4,0,0.6,0c2.1,0.7,3.3,1.8,2.6,2.9c-0.3,0.5-10.8,0.2-15,0.1
					c-0.9,0-1.5-0.8-1.3-1.7l0.3-1.5C158.8,318.3,161.2,318.7,163.6,318.7z"/>
				<path id="XMLID_55_" class="st18" d="M135.3,222.4c-4.8-1-10.4,2.9-11.7,9.1c-0.7,3.5-1.7,16.6-1.6,27.3
					c0.1,4.1-1.9,8.1-5.4,10.2c-0.6,0.3-1.1,0.7-1.6,1.1c-2.3,2.1-13.3,15.8-20.1,25.1c-0.2,1.5,0,3.5,0.8,4.4
					c8.8-6.9,23.6-19.8,26.1-22.1c1.4-1.3,2.9-2.8,4.2-4.2c5.4-3.6,14.1-31.2,15.3-36.8C142.5,230.5,140,223.4,135.3,222.4z"/>
				<ellipse class="st9" cx="132.3" cy="182.7" rx="7.4" ry="9.6"/>
				<path id="XMLID_56_" class="st9" d="M130.5,183.7c-0.1-5.3-4.4-9.7-9.7-10c-4.7-0.3-8.7,2.6-10.2,6.7c-0.5,1.4-1.9,2.4-3.5,2.3
					c-0.6,0-1.3,0-2,0.2c-3.9,0.8-6.9,4.1-7.3,8c-0.4,3.5,1.3,6.7,4,8.5c1.1,0.8,1.8,2.1,2,3.4c0.9,6.3,6.6,10.9,13.2,10.2
					c5.6-0.6,10.1-5.2,10.6-10.9c0.3-3.5-0.9-6.6-3-9C128.2,191.6,130.6,187.9,130.5,183.7z"/>
				<path id="XMLID_57_" class="st6" d="M195.8,185c-1.9-0.4-3.6,0.4-4.6,1.8h-1.1v-10.2c0-1.9-1.5-3.4-3.4-3.4h-11.4V172
					c1.4-1,2.2-2.7,1.8-4.6c-0.3-1.6-1.6-2.9-3.2-3.3c-2.9-0.7-5.4,1.5-5.4,4.3c0,1.5,0.7,2.8,1.9,3.6v1.1H160
					c-1.9,0-3.4,1.5-3.4,3.4v10.2h0.8c1-1.4,2.7-2.2,4.6-1.8c1.6,0.3,2.9,1.6,3.3,3.2c0.7,2.9-1.5,5.4-4.3,5.4
					c-1.5,0-2.8-0.7-3.6-1.9h-0.8v11.4c0,1.9,1.5,3.4,3.4,3.4h10.2v-0.8c-1.4-1-2.2-2.7-1.8-4.6c0.3-1.6,1.6-2.9,3.2-3.3
					c2.9-0.7,5.4,1.5,5.4,4.3c0,1.5-0.7,2.8-1.9,3.6v0.8h11.4c1.9,0,3.4-1.5,3.4-3.4v-11.4h1.1c0.8,1.1,2.1,1.9,3.6,1.9
					c2.8,0,4.9-2.5,4.3-5.4C198.7,186.7,197.4,185.4,195.8,185z"/>
				<path class="st9" d="M132.3,170c0,0,4.2,2.6,3.7,6.2c0,0,2.2-1.6,2.7-7C139,165.4,132.3,170,132.3,170z"/>
				<g>
					<path id="XMLID_59_" class="st3" d="M142.3,191.6c-0.1,1.7,0,3.4,0.2,5c0.2,1.6,0.6,3.3,1.2,4.6c0.3,0.7,0.6,1.3,0.9,1.7
						c0.3,0.4,0.5,0.6,0.5,0.6c-0.1,0-0.1,0.2,0.3,0c0.2,0,0.4-0.2,0.6-0.4c0.2-0.2,0.5-0.4,0.8-0.7c1.1-1.1,2.1-2.6,3-4.2
						c0.9-1.6,1.7-3.3,2.5-5.1c1.5-3.5,2.8-7.2,4-10.9l0,0c0.2-0.7,1-1.1,1.6-0.8c0.6,0.2,1,0.8,0.9,1.4c-0.5,3.9-1.2,7.9-2.2,11.8
						c-0.2,1-0.5,2-0.8,3c-0.3,1-0.6,2-1,3c-0.7,2-1.7,3.9-3.1,5.9c-0.4,0.5-0.8,1-1.2,1.5c-0.5,0.5-1,1-1.7,1.4l-0.5,0.3
						c-0.2,0.1-0.4,0.2-0.6,0.3c-0.4,0.2-0.8,0.3-1.3,0.4c-0.9,0.2-2,0.2-2.9,0c-2-0.4-3.4-1.5-4.4-2.5c-1-1-1.8-2.1-2.4-3.2
						c-2.3-4.3-3.2-8.7-3.4-13.2l0,0c-0.1-2.5,1.8-4.6,4.3-4.8c2.5-0.1,4.6,1.8,4.8,4.3C142.3,191.3,142.3,191.4,142.3,191.6z"/>
				</g>
				<path id="XMLID_58_" class="st3" d="M137,209.9c1.7-5,5-15.7,4.7-19.1c-0.2-2.2-2-3.9-4.3-3.9h-14.5c-2.4,0-4.4,1.9-4.4,4.3
					c-0.1,4.2,1.8,13.8,2.9,18.8H137z"/>
				<path class="st3" d="M134.1,232.5c1.7,6,15.2,48.8,10.5,50.1c-4.7,1.3-30.1-40.5-30.5-46.7c-0.3-5.9,3.1-12.3,7.8-13.6
					C126.7,221,132.4,226.5,134.1,232.5z"/>
				<path id="XMLID_60_" class="st6" d="M155.1,302.4c0.2-0.2,0.2-0.5,0.1-0.7c-3.6-10-8.5-22.7-9.5-25.1c-0.1-0.3-0.2-0.5-0.4-0.8
					c-1.8-12.7-9.9-38.5-11.2-43.1c-1.7-6-7.4-11.5-12.1-10.2c-4.7,1.3-8.1,7.7-7.8,13.6c0.2,3.9,10.3,21.7,18.9,34.2
					c1.8,2.6,3,5.6,3.5,8.8c0.4,2.2,1,4.3,1.7,5.9c1,2.4,7,11.4,12.4,19c0.2,0.2,0.4,0.4,0.7,0.3
					C152.8,304.1,154.1,303.5,155.1,302.4z"/>
				<path class="st6" d="M119.7,216.2c0.8-2.1,1-4.4,0.7-6.6c-0.7-5.1-2-14.8-1.9-18.9c0.1-2.2,1.9-3.9,4.1-3.9h2.2
					c0.8,1.9,2.6,3.4,5.3,3.4c2.7,0,4.4-1.5,5.2-3.4h2c-2.2,4.7-1.4,10.9,2.4,14.5c-0.7,2.5-1.3,5-1.7,7c-0.6,2.7-0.3,5.6,0.7,8.2
					c1.9,4.4,3.3,11.6,2.9,14.4c-15.3,4.3-25.8-3.3-25.8-3.3L119.7,216.2z"/>
				<path id="XMLID_61_" class="st18" d="M137.9,208.3c0.1-0.7,0.3-1.4,0.5-2.2c-2.2-0.5-4.4-1.3-6.5-2.2
					c-4.4-1.9-10.1-5.1-13.3-9.5c0.1,1.3,0.2,2.6,0.4,4.1c1.6,3.7,3.2,7.2,6.3,9.9c3.7,3.3,8.2,5.5,12.9,6.9
					C137.5,213,137.4,210.6,137.9,208.3z"/>
				<g id="XMLID_62_">
					<polygon class="st3" points="132.3,187.8 125.7,187.1 127.8,179.9 132.1,180.4 					"/>
				</g>
				<path class="st1" d="M132.1,180.4l-4.3-0.5l-0.6,2.2c1,1.1,2.2,3.4,3.7,3.4c0.5,0,0.9-0.1,1.3-0.4L132.1,180.4z"/>
				<path class="st3" d="M132.2,183.9c-1.4,0-3-0.7-5.2-2.6c-1.2-1.1-2.2-3-2.2-4.2v-7h10.8c0,0,0.8,3.7,0,7.4
					C135.2,180.2,133.4,183.9,132.2,183.9z"/>
				<path class="st3" d="M126.7,175.7c0,1.4-0.7,2.5-1.5,2.5c-0.8,0-1.7-1.8-1.7-3.2c0-1.4,0.9-1.8,1.7-1.8
					C126.1,173.2,126.7,174.4,126.7,175.7z"/>
				<path class="st9" d="M123.6,170.9c0-2.2,1.8-4,4-4l3.7,0c1,0,2.1-0.3,2.9-0.8c1.3-0.7,2.9-0.5,3.8,0.7c1,1.3,1.4,3-1,4.6
					c-1.2,0.8-3-0.1-4.1,0.3c-0.1,0-0.1,0-0.2,0h-3.2c-1.1,0-2,0.9-2,2c0,0.7-0.6,1.3-1.3,1.3h-0.1l-0.5-1.7l-1.8,2.4V170.9z"/>
				<path class="st3" d="M159.2,178.6c0,0,0.8,3.7-0.3,4.3c-1.1,0.6-1.9,0.8-2.8-0.7s-1.5-4-1.6-5.6c0-1.6,1-4.3,1.3-4.5
					c1.1-0.8,0.9,2.1,0.8,3.5c0,1.4,0,3,0.7,2.8c0.7-0.2,0.6-2.9,1.3-3.3C159.3,174.7,159.2,178.6,159.2,178.6z"/>
				<path class="st3" d="M175.3,204.1c0,0-3.8-0.6-4.3,0.5c-0.6,1.1-0.8,1.9,0.8,2.8c1.6,0.9,4.1,1.4,5.7,1.3c1.6,0,4.2-1.2,4.4-1.5
					c0.7-1.1-2.1-0.8-3.5-0.7c-1.4,0.1-3,0.1-2.8-0.6c0.1-0.7,2.8-0.7,3.3-1.4C179.2,203.8,175.3,204.1,175.3,204.1z"/>
				<path class="st9" d="M134.9,169.9c-0.4,1.6,0.2,2.5-5.1,5c-5.3,2.5-6.9,1.4-8.6,4.1c0,0,0.7-4.5,3.6-6c2.9-1.5,8-2.5,9.6-6.1
					C134.5,166.9,135.2,168.8,134.9,169.9z"/>
				<g>
					<path id="XMLID_64_" class="st3" d="M125.8,190.9c0,0,0-0.1,0-0.1L125.8,190.9l0.1,0.1c0.1,0.2,0.1,0.3,0.2,0.5
						c0.2,0.3,0.3,0.7,0.5,1.1c0.2,0.3,0.4,0.7,0.7,1.1c0.3,0.3,0.6,0.7,0.8,1c0.7,0.6,1.2,1.4,2,1.9l1.1,0.9l1.3,0.8
						c3.5,2.1,7.7,3.5,12.1,4.6c1.1,0.2,2.2,0.4,3.4,0.6c1.1,0.2,2.2,0.4,3.4,0.5l3.5,0.3l1.7,0.2l1.8,0.1l3.5,0.2
						c1.2,0.1,2.4,0.1,3.5,0.1c2.4,0,4.7,0,7.1,0l0.1,0c0.7,0,1.3,0.6,1.3,1.3c0,0.6-0.5,1.1-1,1.3c-2.4,0.5-4.8,0.9-7.1,1.4
						c-1.2,0.3-2.4,0.4-3.6,0.5l-3.6,0.4l-1.8,0.2l-1.8,0.1l-3.7,0.1c-1.2,0.1-2.5,0-3.7-0.1c-1.3-0.1-2.5-0.1-3.8-0.2
						c-5-0.6-10.2-1.6-15.1-4.1l-1.8-1c-0.6-0.4-1.2-0.8-1.8-1.2c-1.2-0.8-2.2-1.8-3.3-2.8c-0.5-0.6-1-1.1-1.5-1.7
						c-0.5-0.6-0.9-1.3-1.3-1.9c-0.4-0.7-0.8-1.4-1.1-2.1l-0.4-1.2l-0.2-0.7l-0.1-0.4l-0.1-0.6c-0.4-2.5,1.4-4.8,3.8-5.2
						C123.1,186.7,125.5,188.4,125.8,190.9z"/>
				</g>
				<path id="XMLID_63_" class="st9" d="M133.9,170.2c0,0,0.2,5.4,4.9,8c0,0-2.1-4.1-1.9-6.8C137,168.8,133.6,168.4,133.9,170.2z"/>
				<path class="st9" d="M81.9,306.5c-0.2-0.4,0-0.9,0.4-1.2c0.3-0.2,1.2-0.8,1.9-1.2c0.3-0.2,0.7,0,0.7,0.4
					c0.4,3.9,2.2,7.4,5.5,9.1c0.9,1.1,1,3.1,0.5,3.7c-0.1,0.1-1.7-0.4-2.9-1.9C82.2,308.8,81.9,306.5,81.9,306.5z"/>
			</g>
			<g id="XMLID_65_">
				<path class="st3" d="M431.2,286.3c-0.2,0-0.4-0.1-0.7-0.1c-0.5-0.1-1.2-0.1-1.8-0.1c-1,0.1-2-0.1-3-0.6l-3.8-1.9
					c-1.6-0.8-3.3,0.9-2.6,2.5l0,0c0.1,0.1,0.2,0.3,0.3,0.3l4.5,2c1.3,0.6,2.5,1.5,3.4,2.6l1.3,1.6
					C431.5,290.9,431.2,287.9,431.2,286.3z"/>
				<path class="st9" d="M429.6,299.4c0.2-2.2-0.8-5.8-1.3-7c1.2-2.1,1.2-4.4,0.5-6.5c0.6,0,1.3-0.1,1.8,0.1
					c0.7,0.2,2.4,0.4,3.1,0.5c0.5,0.1,0.8,0.5,0.8,1c0,0-2.2,15.6-2.6,15.3C431,302.4,429.4,301.3,429.6,299.4z"/>
				<path class="st17" d="M285.3,324.5h55.2c0.7,0,1.3-0.6,1.3-1.3v0c0-0.7-0.6-1.3-1.3-1.3h-55.2c-0.7,0-1.3,0.6-1.3,1.3v0
					C284,323.9,284.6,324.5,285.3,324.5z"/>
				<path class="st17" d="M375.4,324.5h60c0.8,0,1.4-0.6,1.4-1.4l0,0c0-0.8-0.6-1.4-1.4-1.4h-60c-0.8,0-1.4,0.6-1.4,1.4l0,0
					C374,323.9,374.6,324.5,375.4,324.5z"/>
				<path class="st19" d="M348.1,270.8c-1.2,4.8-9.7,42.5-8,42.5c1.5,0,17-35.2,18.2-40c1.2-4.8-0.1-9.2-2.9-10
					C352.5,262.7,349.3,266,348.1,270.8z"/>
				<path class="st19" d="M366.7,232.5c-4.1,5-22.4,37.7-18.5,40.9c3.9,3.2,29.3-23.9,33.4-28.9c4.1-5,3.5-12.1-0.4-15.3
					C377.3,226.1,370.8,227.6,366.7,232.5z"/>
				<path id="XMLID_66_" class="st3" d="M342.2,318.6c0-0.2,0-0.5,0-0.7c0-0.6-0.1-1.2-0.2-1.8c-0.2-1-0.2-2,0.1-3l1.3-4
					c0.5-1.7-1.3-3.2-2.9-2.2l0,0c-0.1,0.1-0.2,0.2-0.3,0.4l-1.3,4.8c-0.4,1.4-1.1,2.6-2.1,3.7l-1.4,1.5
					C337.6,319.6,340.6,318.7,342.2,318.6z"/>
				<path class="st9" d="M328.9,318.9c2.2-0.1,5.6-1.6,6.7-2.3c2.3,0.8,4.6,0.5,6.5-0.5c0.1,0.6,0.2,1.2,0.2,1.8
					c0,0.7-0.1,2.4-0.1,3.1c0,0.5-0.4,0.9-0.9,0.9c0,0-15.8,0.2-15.5-0.4C326.2,320.7,327.1,319,328.9,318.9z"/>
				<path class="st20" d="M358.2,273.4c-0.7,3-10,25.9-15,36.6c-1.5-0.6-2.3-0.5-3.9-1c2-10,5.4-32.5,6.6-37.3
					c0.5-6.7,17-34.5,20.8-39.1c4.1-5,10.6-6.5,14.4-3.3c3.9,3.2,4.5,10.3,0.4,15.3C378.9,247.8,358.7,271.4,358.2,273.4z"/>
				<path id="XMLID_67_" class="st21" d="M381.2,229.3c-3.9-3.2-10.3-1.7-14.4,3.3c-0.3,0.4-0.8,1-1.3,1.7c3.7,7.4,5,15.5,4.8,23.8
					c5.1-6.1,10.1-12,11.3-13.5C385.7,239.6,385.1,232.4,381.2,229.3z"/>
				<path class="st6" d="M378.1,273.6C378.1,273.6,378.1,273.6,378.1,273.6C378.1,273.6,378.1,273.6,378.1,273.6
					c-0.2-0.3-0.3-0.7-0.4-1c-2.7-8.1-2-37.5-1.1-43.5c0.2-1.6,0.7-3.1,1.3-4.4l8.7,4.7c2.2,2.5,4.8,4.7,7.7,6.4
					c0.4,0.3-0.1-0.9,0.3-0.7c-1.3,7.7-2.9,23.1-3.5,30.8c-0.1,1.7,0.8,3.4,2.5,4.1c8.1,3.4,22.6,10,30.7,14.4l-0.3,4.6
					c-11.8-2.5-35.3-9.5-38.9-10.5C381.8,277.6,379.2,275.6,378.1,273.6z"/>
				<g>
					<path id="XMLID_69_" class="st1" d="M370.9,199.3c0,0.5-0.1,0.7-0.1,1.1c0,0.3-0.1,0.6-0.1,0.9c-0.1,0.6-0.2,1.2-0.3,1.7
						c-0.3,1.1-0.6,2.2-1,3.3c-0.8,2.2-1.8,4.2-3.2,6.2c-2.6,3.8-6.5,6.9-10.7,8.5c-2.1,0.9-4.2,1.4-6.3,1.7
						c-2.1,0.3-4.2,0.4-6.3,0.3c-4.1-0.2-8.1-1-12-2c-0.7-0.2-1.1-0.9-0.9-1.7c0.2-0.6,0.8-1,1.4-1l0,0c3.8,0.3,7.6,0.3,11.3-0.1
						c3.6-0.5,7.1-1.4,10-3.2c2.9-1.7,5.1-4,6.5-6.8c0.7-1.4,1.3-2.9,1.7-4.5c0.2-0.8,0.3-1.6,0.4-2.4c0.1-0.4,0.1-0.8,0.1-1.2
						c0-0.2,0-0.4,0-0.6c0-0.2,0-0.4,0-0.4c0-2.6,2.2-4.7,4.7-4.6C368.8,194.6,370.9,196.7,370.9,199.3z"/>
				</g>
				<path class="st2" d="M356.5,206.1c0.8-1.7,3.9-8.5,4.3-10.1l0-0.1c0-0.1,0.1-0.3,0.1-0.4c0.8-2.5,3.5-3.8,5.9-3
					c2.5,0.8,3.8,3.5,3,5.9c-0.8,2.3-1.6,4.2-2.5,6.3c-0.6,1.3-1.3,2.7-2.1,4C364.6,208.1,356.5,206.1,356.5,206.1z"/>
				<path class="st3" d="M366.9,238.2c3.9,3.2,20.1,2.6,26.2,2.2c1.5-0.1,2.7-1.5,2.4-3c-0.6-3.8-3.3-10.4-4.9-17.2
					c-2.3-9.9-4.5-20.8-5.7-26.7c-0.5-2.4-2.8-4.1-5.3-3.6l-14.8,2.4c-2.3,0.4-3.9,2.4-3.7,4.7c0.4,4.8,1.1,13.1,1.7,21.2
					C363.6,226.5,362.8,234.8,366.9,238.2z"/>
				<path class="st22" d="M364.8,192.3l2.4-0.4c1.2,1.8,3.2,3,5.9,2.5c2.8-0.5,4.3-2.2,4.8-4.3l2.2-0.4c2.2-0.4,4.4,1.1,4.8,3.3
					c1.1,5.8,3.4,17,5.7,27.1c1.6,6.9,4.3,13.3,4.9,17.2c0.2,1.5-0.9,2.9-2.4,3c-6.1,0.4-22.2,1-26.1-2.2c-4.2-3.4-3.3-11.7-4-20
					c-0.7-8.2-1.3-16.6-1.7-21.3C361,194.7,362.6,192.7,364.8,192.3z"/>
				<path id="XMLID_83_" class="st6" d="M372.6,184.3l0.3-0.1c2.1-0.6,3.3-2.8,2.7-4.9l-1.6-5.6l-4.1,1.2L372.6,184.3z"/>
				<g id="XMLID_68_">
					<polygon class="st3" points="369.3,192.4 376.4,191.8 376.7,190.8 372.5,183.3 367.6,185.4 					"/>
				</g>
				<path class="st1" d="M367.6,185.4l5-2.1l1.7,3c-0.8,1.6-1.7,3.4-3.6,4c-0.6,0.2-1.3,0.1-1.8,0L367.6,185.4z"/>
				<path class="st3" d="M370,188.5L370,188.5c3.5-1,5.5-4.6,4.5-8.1l-2-7l-10.8,3.1c0,0,1.6,5.5,3.4,8.9
					C366.5,188,368.3,189,370,188.5z"/>
				
					<rect id="XMLID_82_" x="371.9" y="176.2" transform="matrix(-0.9612 0.2758 -0.2758 -0.9612 780.1737 243.6622)" class="st6" width="2.1" height="1"/>
				<path class="st3" d="M372.3,179.6c0.4,1.4,1.4,2.3,2.2,2.1c0.8-0.2,1.2-2.3,0.8-3.6c-0.4-1.4-1.4-1.5-2.2-1.3
					C372.2,177,371.9,178.2,372.3,179.6z"/>
				<path class="st6" d="M361.8,179.6c-0.5-0.8-0.8-1.7-0.9-2.6c0,0-0.9-3.1,0.1-4.1c1-0.9,3.1-0.7,4.3-0.8c0.9-0.1,3.6-1,3.6-1
					c2.2-0.6,4.5,0.6,5.1,2.8l0.2,0.8l-1.3,2.2l0,1.8l-0.1,0c-0.7,0.2-1.4-0.2-1.7-0.8c-0.4-1.1-1.4-1.8-2.6-1.5l-3.2,0.9
					c-2,0.6-2.7,1.9-2.3,3.4l0.5,1.2L361.8,179.6z"/>
				<path class="st6" d="M335,196.1l-0.7-1.7c1.1-1.7,1.5-3.9,0.8-6c-1.2-3.6-5.5-5.7-9-4.4c-3.6,1.4-5.4,5.4-4,9
					c0.9,2.2,2.7,3.7,4.8,4.2l0.7,1.7l-18.3,7.1c-1.6,0.6-2.4,2.4-1.8,4l7.1,18.1l-1,0.4c-1.7-1.1-3.9-1.5-6-0.8
					c-3.6,1.2-5.7,5.5-4.4,9c1.4,3.6,5.4,5.4,9,4c2.2-0.9,3.7-2.7,4.2-4.8l1-0.4l7.1,18.1c0.6,1.6,2.4,2.4,4,1.8l43.6-17
					c1.6-0.6,2.4-2.4,1.8-4l-17-43.6c-0.6-1.6-2.4-2.4-4-1.8L335,196.1z"/>
				<path id="XMLID_70_" class="st3" d="M386.8,194.1c0.6,11.7-5.9,25.6-19.7,29c-11,2.7-22.8-0.3-33.2-4.8c-0.7-0.3-1-1.1-0.7-1.8
					c0.3-0.6,0.9-0.9,1.5-0.8l0,0c14.5,3.1,33,5.1,39.8-8.1c3.5-6.5,2.8-14.3,2.9-13.2C377.4,188.4,386.5,188.1,386.8,194.1z"/>
				<g id="XMLID_71_">
					<path class="st2" d="M376,203.4c1.1-5,1.2-9,1.3-9.1l0,0.1l0.8-3.2c0,0,1.5-2.5,5.6-1.6c3.3,0.8,3.3,4.5,3.3,4.5
						c0,0.5,1.2,4.3-2,12.4C385,206.8,375.9,204.1,376,203.4z"/>
				</g>
			</g>
			<path class="st3" d="M335.5,216c-0.9-1.1-1.2-4.8-1.7-4.8c-0.4,0-0.4,1.3-0.4,2c0,0.1-0.1,0.2-0.1,0.2c-0.1,0-0.2,0-0.2,0
				c-1-0.9-4-3.4-4.3-3.2c-0.3,0.2,1.2,2.1,1.8,2.8c0,0,0,0,0,0.1c0,0,0,0-0.1,0c-0.8-0.4-3.5-1.7-3.5-1.2c-0.1,0.5,2.3,2,3.2,2.6
				c0,0,0,0,0,0.1c0,0,0,0-0.1,0c-1-0.3-3.6-1-3.7-0.6c-0.1,0.5,2.5,1.6,3.4,1.9c0,0,0,0,0,0.1c0,0,0,0-0.1,0
				c-0.9-0.1-3.2-0.2-2.8,0.1c0.4,0.4,6,2.3,7.2,2.3C335.4,218.4,335.5,216,335.5,216z"/>
			<rect x="228" y="164.6" class="st23" width="47.8" height="11.2"/>
			<rect x="228" y="181.4" class="st23" width="47.8" height="11.2"/>
			<rect x="228" y="198.2" class="st23" width="47.8" height="11.2"/>
			<rect x="228" y="215" class="st23" width="47.8" height="11.2"/>
			<rect id="XMLID_81_" x="147.4" y="135.5" class="st23" width="209.8" height="12.3"/>
		</g>
		<path id="XMLID_80_" class="st6" d="M243.8,141.4h-64.2c-3.2,0-5.9-2.6-5.9-5.9v-14.8c0-3.2,2.6-5.9,5.9-5.9h64.2
			c3.2,0,5.9,2.6,5.9,5.9v14.8C249.7,138.8,247.1,141.4,243.8,141.4z"/>
		
			<rect x="231.1" y="138.3" transform="matrix(0.7071 0.7071 -0.7071 0.7071 168.5155 -124.1391)" class="st6" width="6.1" height="6.1"/>
		<rect id="XMLID_79_" x="182.8" y="121.6" class="st14" width="56.3" height="2.1"/>
		<rect id="XMLID_78_" x="182.8" y="127.1" class="st14" width="56.3" height="2.1"/>
		<rect id="XMLID_77_" x="182.8" y="132.6" class="st14" width="56.3" height="2.1"/>
		<g id="XMLID_72_">
			<rect x="230.6" y="222.4" class="st6" width="6.1" height="6.1"/>
			<circle class="st6" cx="217.5" cy="242.3" r="24"/>
			<g id="XMLID_75_">
				<circle class="st14" cx="208.3" cy="242.4" r="1.9"/>
				<circle class="st14" cx="216.9" cy="242.4" r="1.9"/>
				<circle class="st14" cx="225.4" cy="242.4" r="1.9"/>
			</g>
		</g>
	</g>
</g>
<g id="DESIGNED_BY_FREEPIK">
</g>
</svg>
