<?xml version="1.0" encoding="utf-8"?>
<!-- Generator: Adobe Illustrator 19.0.0, SVG Export Plug-In . SVG Version: 6.00 Build 0)  -->
<svg version="1.1" xmlns="http://www.w3.org/2000/svg" xmlns:xlink="http://www.w3.org/1999/xlink" x="0px" y="0px"
	 viewBox="0 0 826 639" style="enable-background:new 0 0 826 639;" xml:space="preserve">
<style type="text/css">
	.st0{fill:#9EA6AD;}
	.st1{fill:#1A3151;}
	.st2{fill:#CC937A;}
	.st3{fill:#FFFFFF;}
	.st4{fill:#FFB03E;}
	.st5{fill:#7F00FF;}
	.st6{fill:#EACFC1;}
	.st7{fill:#FF225C;}
	.st8{fill:#F1F2F2;}
</style>
<g id="background">
</g>
<g id="object">
	<g>
		<g>
			<g>
				<path class="st0" d="M633.4,187.9l40.3-16c0,0,14.3,35.6,30.6,92.7c16.3,57.1-7.6,129.7-7.6,129.7s-92.4-22-110.9-25.6
					l23.2-104.3L633.4,187.9z"/>
			</g>
			<g>
				<polygon class="st0" points="664.8,329.9 664.8,350.2 637.7,438.4 644.5,529.9 627.6,533.3 600.4,421.4 601.5,388.5 614,321.4 
									"/>
			</g>
			<g>
				<polygon class="st0" points="643.3,354 670.6,540.4 683,540.4 690.8,438.7 707.7,337 				"/>
			</g>
			<g>
				<polygon class="st1" points="629.8,531.5 616.8,545.2 620.6,552.2 647.3,539.4 642.4,529.2 				"/>
			</g>
			<g>
				<polygon class="st1" points="670.8,537.8 654.9,547.8 656.7,555.5 685.8,549.7 683.6,538.7 				"/>
			</g>
			<g>
				<g>
					<path class="st2" d="M632.1,132c11,0.8,21.3-8.2,32.1-6c7,1.5,12.6,7.7,14.7,14.7c1,3.3,1.4,6.8,0.4,10.1
						c-0.6,2.1-1.8,4-3.2,5.7c-1.8,2.3-4.1,4.1-6.6,5.6c1.4,2.2,3,4.3,4.7,6.2c-5.1,1.9-10.1,3.9-15.2,5.8c-1.1-2.9-2.2-5.8-3.4-8.7
						c-1.5-0.1-3-0.3-4.5-0.7c-9-2.3-16.5-10.2-18.5-19.5C631.7,140.9,631.8,136.4,632.1,132z"/>
				</g>
				<g>
					<polygon class="st1" points="634.8,135.3 668.8,131.2 675.4,157.2 685,149.6 680,107.1 632.1,106.1 611.4,118.3 612.2,130.5 
						630.8,143 					"/>
				</g>
			</g>
			<g>
				<path class="st3" d="M648,178.2l40.3-16c0,0,14.3,35.6,30.6,92.7c16.3,57.1-7.6,129.7-7.6,129.7s-82.7-40.9-101.1-44.5
					l13.4-85.4L648,178.2z"/>
			</g>
			<g>
				<polygon class="st0" points="688.8,163.6 733.7,257.7 717.8,282.9 697,270.3 675.7,194.2 				"/>
			</g>
			<g>
				<path class="st0" d="M719.6,256.1C703.3,199,689,163.4,689,163.4l-40.3,16l-0.1,0.2c0.9,2.3,1.8,4.6,2.6,7
					c3.2,9.3,5.6,18.9,7,28.7c2.6,17.1,2.8,34.8,2.3,52.1c-0.5,16.6-2.2,33.2-5.2,49.5c-3.9,21.6-10.1,42.7-18.1,63
					c37.5,7.6,81.7,16.6,81.7,16.6S735.9,313.1,719.6,256.1z"/>
			</g>
			<g>
				<path class="st0" d="M629.6,269.3c-1.8,7.7-3.8,16.3-2.2,23.8c0,0,5,10.5,5.5,10.1c0-0.3,5.7-5.1,7.3-8.6
					c2.7-6,3.3-13.5,3.4-20.3c0.2-24-1.2-48.3,2.8-72c4.7-1.4,8.8-4.9,5.9-9.9c-9.2,3.5-10.2,24.2-12.2,32.7
					C636.6,239.9,633.1,254.6,629.6,269.3z"/>
			</g>
			<g>
				<path class="st2" d="M648.6,245.6l-17,16.3l-24.8-2.7l3.2-8.2c0,0,17-2.7,17.4-3.8c0.4-1,3.4-5.7,3.4-5.7l9.4-1.6L648.6,245.6z"
					/>
			</g>
			<g>
				<polygon class="st0" points="733.8,257.4 698.5,237.5 641.9,237.5 640.2,256.7 723,276 				"/>
			</g>
		</g>
		<g>
			<g>
				<polygon class="st4" points="492.5,155.2 474.2,162.5 438.1,228.1 443,246.2 461.1,248.4 				"/>
			</g>
			<g>
				<polygon class="st4" points="527.1,153.5 544.3,162.5 577.7,228.1 565.1,251.7 549.8,244 527.3,155.3 				"/>
			</g>
			<g>
				<path class="st4" d="M574.5,317.5c0.3,9.9,0.1,23.2-4.1,23.7c-0.8,0.1-1.5-0.3-2.2-0.6c-7.3-3.5-12.4-8.5-19.6-11.9
					c-7.5-3.6-16-5.4-24.4-6.7c-12.4-2-25.1-3.2-37.6-3.3c-10.8-0.1-21.9,4.8-32.1,7.5c-3.9,1-7.1,3.9-10.3,6.1
					c-4.8,3.3-6.9,4.6-6.3-2.1c1.1-11,2.2-22,3.5-33c2.7-21.9,6.4-43.8,12.6-65c2.4-8.1,5.1-16.1,7.9-24.1c3.3-9.7,6.7-19.4,10-29.2
					c4.2-12.1,11.2-20.6,23.4-24.8c10.6-3.7,23.8-4.7,34.1,0.5c11.5,5.7,16.9,25.1,22.5,35.4c4.9,9.1,11,33.8,12.9,43.6
					c2.2,11.8,4.2,23.5,5.8,35.2c1.8,12.9,3,25.8,3.4,38.7C574.1,308.8,574.4,312.7,574.5,317.5z"/>
			</g>
			<g>
				<g>
					<polygon class="st4" points="457.2,279.8 455.9,387.9 476.3,527.3 491.9,527.3 501.8,398.7 523.3,270.1 					"/>
				</g>
			</g>
			<g>
				<g>
					<polygon class="st4" points="553.6,279.8 553.9,342.4 534.5,527.3 518.8,527.3 501.5,404.5 487.5,270.1 					"/>
				</g>
				<g>
					<polygon class="st1" points="466.4,533.9 474.9,542.3 491.9,533.9 491.9,525.4 474.9,525.4 					"/>
					<polygon class="st1" points="543.8,533.8 535.3,542.2 518.4,533.8 518.4,525.3 535.3,525.3 					"/>
				</g>
			</g>
			<g>
				<path class="st3" d="M516.8,156.2l-21.2,0.2c0,0-22.7,79.4-23.5,93c-0.8,13.4-6.6,67.9-6.6,67.9s23.4,0.6,50.4,3.8
					c26.4,5.7,28.6,2.3,28.6,2.3s-14.2-57.2-14.7-73.7c-0.5-16.8-2.6-72.4-2.6-72.4L516.8,156.2z"/>
			</g>
			<g>
				<path class="st5" d="M513.7,157.5h-10.4c-2.4,0-3.8,2.8-2.3,4.7l4.3,5.6l-11.4,105l14,13.8l9.6-16.4l-2.6-102.4l1.7-6.7
					C517,159.3,515.6,157.5,513.7,157.5z"/>
			</g>
			<g>
				<g>
					<path class="st6" d="M503.9,156.7c0.2,0.2,0.5,0.4,0.9,0.5c0.7,0.2,1.4,0.1,2.1,0.1c2.8-0.3,5.6-0.7,8.4-1
						c-0.9-8.6,4.1-10.5,9-16c5-5.6,3.4-13.1,3.1-20c-0.1-1.9-0.2-3.9-1-5.6c-1.4-3-4.7-4.7-7.9-5.7c-8.2-2.5-17.5-1.9-24.7,2.7
						c-1.9,1.2-3.7,2.8-4.7,4.8c-1.6,3.1-1.2,6.8-0.7,10.3c0.7,5.3,2.3,10.6,5.3,15.1c2.8,4.2,8.2,6.2,8.8,11.2
						C502.6,154.4,503,155.8,503.9,156.7z"/>
				</g>
				<path class="st5" d="M535.6,90.3c-1.6-2.5-3.6-4.8-5.9-6.2c-5.6-3.4-13.3-3.7-19.3-6c-8.4-3.3-12.7-0.3-20.6,2.2
					c-3.2,1-6.8,1.9-8.5,4.9c-0.9,1.7-1.1,3.7-2,5.4c-1.2,2.1-3.5,3.2-5.5,4.6c-2.3,1.6-3.3,3.9-3.4,6.4c-0.2,5.5,4,14.5,9.1,16.7
					c1,0.4,2.1,0.7,3.3,0.8c1.2,3.4,3.4,6.7,6.7,7.9c0.5-2.1-0.5-4.3-1-6.5c-0.1-0.5-0.1-1.1-0.1-1.7c3.8-0.7,7.7-2.1,10.5-3.3
					c5.9-2.6,17.3-5.3,23.3-2.3c4.8,2.4,3.3,10,3.1,14.8c-0.1,1.2-0.2,2.5,0.1,3.7c0.4,1.7,1.7,2.6,1.9,4.3c3.9-1.8,6.3-6.2,8.5-9.8
					c1.1-1.8,2.2-3.7,3-5.7C542.6,111.4,541.2,99.1,535.6,90.3z"/>
			</g>
			<g>
				<polygon class="st4" points="438.1,228.1 470.4,215 537.7,212.8 539.4,225.4 465.5,248.4 443,246.2 				"/>
			</g>
			<g>
				<path class="st4" d="M577.7,228.1l-31.7-11.5l-70.4-11l-5.1,11c0,0,69,30.7,71.2,31.7c2.2,1.1,23.5,3.3,23.5,3.3L577.7,228.1z"
					/>
			</g>
			<g>
				<polygon class="st6" points="537.8,213.6 551.4,209.5 562.9,215 567.3,226 556.3,226 547.3,217.2 538.1,215.4 				"/>
			</g>
			<g>
				<path class="st6" d="M474.2,206.8c0,0-2.3,8.2-3.1,8.2s-18.1,7.1-18.1,7.1s0.9-9.3,1.5-9.3c0.5,0,9.9-8.2,9.9-8.2L474.2,206.8z"
					/>
			</g>
		</g>
		<g>
			<g>
				<polygon class="st6" points="246,188.7 243.8,177.8 238.3,171.2 235.6,172.3 237.8,177.2 226.8,169 222.4,171.8 228.5,186.5 
					238.3,193.7 				"/>
			</g>
			<g>
				<polygon class="st6" points="419.5,174.8 426.5,166.6 433.3,162.6 434.5,165.1 431.6,168.5 445.5,164.9 448.6,172.4 
					435.3,181.2 425,182.3 				"/>
			</g>
			<g>
				<path class="st1" d="M345.1,161.9l-0.8-5.7l11.2,1.8l24.1,19.2l30.7,53.6c0,0-10.9,23.5-10.4,24.1c0.5,0.5-10.9-5.5-10.9-5.5
					L345.1,161.9z"/>
			</g>
			<g>
				<path class="st1" d="M365.9,523.2l13.1,9.3l4.4,7.1c0,0-4.9,2.2-7.7,2.7c-2.7,0.5-24.1-2.7-24.1-2.7V527L365.9,523.2z"/>
			</g>
			<g>
				<path class="st1" d="M318.2,529.2l7.1,7.1c0,0,6,9.9,3.3,9.9c-2.7,0-17.5,1.6-18.6,0c-1.1-1.6-9.3-7.1-10.4-8.2
					c-1.1-1.1-0.6-10.7-0.6-10.7L318.2,529.2z"/>
			</g>
			<g>
				<path class="st1" d="M343.4,337.1l-9.3,93.6l-15.9,98.5h-19.2l-2.2-102.9c0,0-19.2-93.6-20.8-121.5L343.4,337.1z"/>
			</g>
			<g>
				<polygon class="st1" points="387.2,338.7 370.8,527 351.1,527 345.1,430.7 333.7,345.4 376.8,294.9 				"/>
			</g>
			<g>
				<g>
					<path class="st1" d="M416.4,340.4c-4-11-3.1-22.8-4.4-34.3c-2.3-20-10.5-38.2-17.4-56.9c-2.9-7.7-5.6-15.5-8-23.3
						c-1.1-3.6-2.1-7.2-3.1-10.8c-1.1-3.6-3-8.3-3-12c0-15.1-13.5-26.4-22.3-37.5c-2.6-3.3-5.5-6.8-9.4-8.3
						c-2.7-1.1-5.7-1.2-8.6-1.3c-8.8-0.3-17.6-0.5-26.4-0.8c-3.2-0.1-6.6-0.2-9.5,1.2c-4.4,2-6.9,6.6-9,10.9
						c-9.7,19.3-5.5,42.3-9,63.7c-1.8,11.2-3.5,22.4-4.8,33.7c-0.4,3.2-1.7,8.6-3.6,15c0,0-14.5,61.5-5.9,86.5l0,0
						c5.1-3.4,9.3-7.4,14.8-10.3c6.8-3.6,14.6-5.6,22.2-6.9c11.4-2.1,23.1-3.4,34.7-3.6c9.1-0.2,18.3,0.6,27.5,1.4
						c7.6,0.6,14.6,2.9,22.4,2.3c7.9-0.5,15.7-3,22.5-7.1c0.2-0.2,0.5-0.3,0.6-0.6C416.6,341.1,416.5,340.7,416.4,340.4z"/>
				</g>
			</g>
			<g>
				<polygon class="st3" points="319.3,155.9 312.2,155.9 312.2,164.1 345.6,234.7 348.3,202.4 337.4,157 				"/>
			</g>
			<g>
				<g>
					<path class="st7" d="M347.8,208.3c-0.3-2.9-0.7-5.5-1.2-7.5c-3.1-14.4-15.3-32.3-15.3-32.3s-1.1-4.1-1.6-7.7l-8.8-0.5l1.4,8.9
						l4.1,3.5c0,0,12.5,33.7,14,47.5c0.2,1.5,0.3,3,0.4,4.5l4.7,10L347.8,208.3z"/>
				</g>
			</g>
			<g>
				<polygon class="st3" points="351.6,262.6 339.6,345.3 360.9,346.9 375.7,346.9 358.7,275.2 				"/>
			</g>
			<g>
				<g>
					<path class="st6" d="M331.1,160.9c-4.9-0.2-9.8-0.4-14.7-0.6c-0.3-3.9-0.2-7.8,0.1-11.7c-4.1-1.2-9-3.1-9.9-7.3
						c-0.3-1.3-0.1-2.7,0-4.1c0.6-5.6,1.3-11.2,1.9-16.8c0.2-1.9,0.5-3.9,1.4-5.6c1.7-3,5.1-4.4,8.5-5.2c8.5-2,17.9-0.6,24.9,4.6
						c1.9,1.4,3.5,3.1,4.4,5.2c1.4,3.3,0.7,7,0,10.5c-0.7,3.2-1.3,6.5-2,9.7c-0.8,3.7-1.9,8-5.4,9.5c-1.8,0.8-4.1,0.7-5.7,1.9
						C331.8,153.2,332.4,157.7,331.1,160.9z"/>
				</g>
				<g>
					<path class="st7" d="M358.2,90c-1.1-0.2-2.2-0.4-3.3-0.9c-3.6-1.5-6-4.6-9.8-6.1c-7.6-2.9-17.2-2.5-24.7,0.6
						c-7.2,3-17,4.2-23.4,8.2c-2.7,1.7-4.8,4.2-6.3,7c-5.5,9.5-4.8,22.2,1.6,31.2c1.4,2,3.1,3.8,4.9,5.5c3.7,3.6,8,8,12.9,9.1
						c-0.1-4.3-4.7-17.4-1.7-21.1c4.1-4.9,12.1-4.7,17.8-4.2c6.8,0.6,12.4-1.6,19.2-1.2c3.5,0.2,7.4,0.9,10-1.4
						c3.1-2.6,9.6-10.8,11.1-14.4c1.3-3.1,0.4-7-1.9-9.5C362.7,90.6,360.5,90.4,358.2,90z"/>
				</g>
			</g>
			<g>
				<path class="st1" d="M386.7,225.4l32.8-50.4l9.9,7.1l-18.6,65.7l-10.9,7.1c0,0-13.7-1.6-13.1-3.3
					C387.2,250,386.7,225.4,386.7,225.4z"/>
			</g>
			<g>
				<polygon class="st1" points="305.1,155.9 288.7,163 261.9,234.7 271.8,255.2 294.2,254.4 				"/>
			</g>
			<g>
				<polygon class="st1" points="293.1,244 287,228.1 246.5,187.1 235,193.1 264,248.9 276.1,260.4 				"/>
			</g>
		</g>
		<g>
			<g>
				<g>
					<polygon class="st5" points="218.9,197.2 241.6,258.3 219.4,290.5 215.1,213.1 					"/>
				</g>
				<g>
					<g>
						<path class="st1" d="M159.3,530.8c-2.1-1.3-4.2-1.8-6.2-0.9c-2,0.8-3.5,2.7-3.8,4.7c-0.3,1.4,0,2.8,0.2,4.2
							c1.2,7.1,5.5,23.7,15.7,23.6c4.3,0,6.8-3.7,7-7.5C172.4,549.2,166.2,535.2,159.3,530.8z"/>
					</g>
					<g>
						<path class="st6" d="M177.6,440.5l-1.6,18.1l-12,73.3l2.2,10.9c0,0-1.1,6-7.1,4.9c-2.4-0.4-8.2-12.6-8.2-12.6l1.6-4.9
							l-1.6-52.5l3.8-22.4l-3.8-18.1L177.6,440.5z"/>
					</g>
				</g>
				<g>
					<g>
						<path class="st1" d="M217.5,551.9l-13.6-12.5c-3.9-2-8.1-3.4-11.5-3.3c-2.4,0-4.5,0.8-5.7,2.7c-1.2,1.8-1.4,4.1-0.6,6
							c0.3,0.7,0.7,1.3,1.2,1.9l0,0l0,0c0.4,0.5,0.8,1,1.3,1.5c0.3,0.3,0.6,0.6,0.9,1c2.8,3,7.5,8,9.4,9.1c2.7,1.6,8.8,6,15.9,1.1
							c0,0-0.1,0-0.1-0.1C217.3,557.5,218,554.6,217.5,551.9z"/>
					</g>
					<g>
						<path class="st6" d="M206.8,442.9l-1.1,15.7l-5.4,76.5l5.4,8.9c0,0,1.1,7.1-7.1,6.6c-2.4-0.2-11.1-11.2-11.1-11.2l1.3-5
							l-5.8-52.3l-0.3-21.9l-2.9-18.5L206.8,442.9z"/>
					</g>
				</g>
				<g>
					<path class="st1" d="M160.7,180.9l38.3,2.3l20.1,14.4c0,0-1.1,64.3,0,88.1c1.1,23.8,3,43.1,5.6,77.9
						c2.9,38.3-6.2,84.5-6.2,84.5h-79.6c0,0-17.5-87-9.5-109.7c8-22.7,11.1-44.8,11.1-63.3c0-18.5-8.2-77.2-8.2-77.2L160.7,180.9z"
						/>
				</g>
				<g>
					<path class="st5" d="M142.9,186.1l-13,9.8c0,0,9.9,67.6,10.4,79.4c0.5,11.8-13.1,59.1-13.1,59.1l62.9,8.2
						c0,0,12.1-54.9,14.8-79.9s-44.3-81.6-44.3-81.6L142.9,186.1z"/>
				</g>
				<g>
					<path class="st5" d="M206,184.9l13.1,12.6c0,0,1.7,75.9,1.2,87.7c-0.5,11.8,9.8,49.3,9.8,49.3l-20.3,7c0,0-10.1-37.9-12.6-62.9
						c-2.5-25-2.2-96.3-2.2-96.3L206,184.9z"/>
				</g>
				<g>
					<g>
						<g>
							<path class="st4" d="M196.7,153.3c2.2,6.3-1,13-3.8,18.7c-1.2,2.3-3,5.6-1,8c2.2,2.7,7.1,1.6,9-0.7c1.4-1.6,1.9-3.7,2.4-5.8
								c2.1-9.1,5-21.9,3.4-31.1c-1.3-7.4-11.7-19.8-20.7-14.2c-1.6,1-2.6,2.7-3.4,4.4c-0.5,1-0.9,2-0.9,3.1
								c-0.1,4.4,4.2,5.1,7.2,7.2C192.5,145.5,195.3,149.3,196.7,153.3z"/>
						</g>
						<g>
							<path class="st6" d="M183.1,177.8c6.2-1.4,11.1-6.2,13.4-11.8c2.3-5.6,2.5-11.7,1.8-17.6c-2.2-19.8-28.5-18.5-37.4-3.3
								C153.1,158.2,165,181.8,183.1,177.8z"/>
						</g>
						<g>
							<path class="st4" d="M162.9,154.3c0,2.4-1,5.1-1.1,7.6c-0.2,4.6,1.3,10.4,0.1,14.7c-4.7-0.2-10.5-2.6-14.2-5.4
								c-3.8-2.9-3.6-7.8-4.8-12.4c-1.1-4.3-2.4-8.7-2.6-13.1c-0.8-24.5,22.3-40,44.6-30.9c8.5,3.4,13,13.7,7.6,21.1
								c-5.7,8-19,6-26.2,12.2C164.7,149.3,163.6,151.6,162.9,154.3z"/>
						</g>
					</g>
					<g>
						<path class="st6" d="M183.4,175.7c-0.2,1.5-0.4,3-0.6,4.5c-0.1,0.7,0.1,2.6-0.4,3.1c-0.3,0.3-0.7,0.3-1.1,0.3
							c-1.1,0-11.4-0.4-11.4-1.1c0.1-1.8,0.3-3.5,0.7-5.2c0.3-1.4,0.3-3.9,1-5c1.8,1,3.7,1.6,5.8,2c2,0.4,4,0.7,6.1,1
							C183.4,175.5,183.4,175.6,183.4,175.7z"/>
					</g>
				</g>
				<g>
					<g>
						<polygon class="st5" points="129.9,195.9 92.2,281.5 100.9,292.8 174.9,299.4 180.4,284.5 123.9,265.4 153.1,217.8 						"/>
					</g>
					<g>
						<polygon class="st3" points="222.4,273 173,242.2 120.9,261.8 145.6,272.8 181.7,285.9 						"/>
					</g>
					<g>
						<g>
							<path class="st6" d="M191.8,282.3l-3.3,1.1l2.2-5.5l-1.6-2.7l-4.9,4.9c0,0-4.4,6.6-4.7,6.9l0,0l-3.9,10.2
								c4.4,0.2,11.4,0.4,12.9,0.4l16.4-14.2l1.6-9.3L191.8,282.3z"/>
						</g>
					</g>
				</g>
			</g>
			<g>
				<path class="st8" d="M222.4,273l45.4-35.6c-4.4,0.5-56.4,14.2-56.4,14.2l-10.9,7.7L222.4,273z"/>
			</g>
			<g>
				<path class="st6" d="M249.5,241.8l-7.9-2.7l-10.9-1.1l-5.5,6.6c0,0-0.5,7.7,0,7.1c0.5-0.5,3.3,0,3.3,0l1.6-3.8l2.5-1.8
					L249.5,241.8z"/>
			</g>
		</g>
	</g>
</g>
</svg>
