<?xml version="1.0" encoding="utf-8"?>
<!-- Generator: Adobe Illustrator 19.0.0, SVG Export Plug-In . SVG Version: 6.00 Build 0)  -->
<svg version="1.1" id="Layer_1" xmlns="http://www.w3.org/2000/svg" xmlns:xlink="http://www.w3.org/1999/xlink" x="0px" y="0px"
	 viewBox="0 0 1700 1400" style="enable-background:new 0 0 1700 1400;" xml:space="preserve">
<style type="text/css">
	.st0{fill:#D84136;}
	.st1{fill:#F9B982;}
	.st2{fill:#EA5443;}
	.st3{fill:#564596;}
	.st4{fill:#EF7E39;}
	.st5{fill:#FFFFFF;}
	.st6{fill:#954F18;}
	.st7{fill:#A25919;}
	.st8{fill:#634E42;}
	.st9{fill:#F6F6F6;}
	.st10{fill:#28313F;}
	.st11{fill:#354258;}
	.st12{fill:#A68987;}
	.st13{fill:#F3F3F4;}
	.st14{fill:#C6B2B0;}
	.st15{fill:#B69A98;}
</style>
<g>
	<g>
		<g>
			<path class="st0" d="M999.3,763.4c-17.9,0-32.5,14.6-32.5,32.5V1034h-3.5H924h-44.6H871h-51.5h-74.9v65h95.4h65.5h19.9h58.6h15.4
				c17.9,0,32.5-14.6,32.5-32.5V795.9C1031.8,778,1017.3,763.4,999.3,763.4z"/>
			<circle class="st1" cx="719" cy="1074.8" r="58.4"/>
		</g>
		<path class="st2" d="M1100.2,688.3h-52.7c-5.9,0-10.6,4.8-10.6,10.6V714h74V699C1110.8,693.1,1106,688.3,1100.2,688.3z"/>
		<path class="st3" d="M1265.7,815.4h-220.5V1099H1326V875.8C1326,842.5,1299,815.4,1265.7,815.4z"/>
		<path class="st2" d="M962.9,1098.6h203.5V714h-140.1c-35.1,0-63.5,28.4-63.5,63.5V1098.6z"/>
		<g>
			<path class="st1" d="M1139.4,676.1c1.4,0,2.8,0,4.1-0.1v38h-70.1v-59.6C1091.8,668.1,1114.7,676.1,1139.4,676.1L1139.4,676.1z"/>
			<path class="st4" d="M1143.5,538.5v137.5c-1.4,0.1-2.7,0.1-4.1,0.1h0c-24.7,0-47.6-8.1-66-21.8V538.5H1143.5z"/>
		</g>
		<path class="st2" d="M1228,1098.6h-123.2v-323c0-34,27.6-61.6,61.6-61.6h0c34,0,61.6,27.6,61.6,61.6V1098.6z"/>
		<path class="st5" d="M690.8,1048.8L690.8,1048.8c-27.5,0-49.9,22.3-49.9,49.9v2h99.8v-2C740.6,1071.2,718.3,1048.8,690.8,1048.8z"
			/>
		<g>
			<path class="st6" d="M1206,503.3L1206,503.3c29,0,52.4-23.5,52.4-52.4v-8.8c0-29-23.5-52.4-52.4-52.4l0,0V503.3z"/>
			<path class="st7" d="M996.6,503.3h48.4v86.1h0c-26.7,0-48.4-21.7-48.4-48.4V503.3z"/>
			<path class="st1" d="M1139.4,651.1L1139.4,651.1c61.3,0,111-49.7,111-111v-70c0-61.3-49.7-111-111-111h0
				c-61.3,0-111,49.7-111,111v70C1028.4,601.4,1078.1,651.1,1139.4,651.1z"/>
			<path class="st8" d="M1215.7,469.1L1215.7,469.1c12.7-4.7,26.4-4.2,38.7,1.4c3.5,1.6,5,5.7,3.4,9.2c-0.8,1.7-2.2,3-3.9,3.6
				c-1.7,0.6-3.6,0.6-5.3-0.2c-8.9-4.1-18.9-4.5-28.1-1c-3.6,1.3-7.6-0.5-8.9-4.1C1210.2,474.4,1212.1,470.5,1215.7,469.1z"/>
			<path class="st8" d="M1128.7,469.1L1128.7,469.1c12.7-4.7,26.4-4.2,38.7,1.4c3.5,1.6,5,5.7,3.4,9.2c-0.8,1.7-2.2,3-3.9,3.6
				c-1.7,0.6-3.6,0.6-5.3-0.2c-8.9-4.1-18.9-4.5-28.1-1c-3.6,1.3-7.6-0.5-8.9-4.1C1123.2,474.4,1125.1,470.5,1128.7,469.1z"/>
			<path class="st4" d="M1213.6,564.4c-2.5,5.1-7.7,8.6-13.8,8.6s-11.3-3.5-13.8-8.6H1213.6z"/>
			<path class="st5" d="M1160.3,632.4c-23.7,0-43-19.3-43-43h86C1203.3,613.2,1184,632.4,1160.3,632.4z"/>
			<circle class="st8" cx="1237.6" cy="500.7" r="8.3"/>
			<circle class="st8" cx="1152" cy="500.7" r="8.3"/>
			<path class="st7" d="M1086,327h206.8v0c0,49.3-40,89.3-89.3,89.3h-98.8V466c0,20.6-16.7,37.3-37.3,37.3V552
				c0,6.9-5.6,12.5-12.5,12.5h-17v-61.1h-41.3v-87v0C996.6,367,1036.6,327,1086,327z"/>
		</g>
		<path class="st2" d="M1160.8,688.3H1108c-5.9,0-10.6,4.8-10.6,10.6V714h74V699C1171.4,693.1,1166.6,688.3,1160.8,688.3z"/>
		<circle class="st5" cx="1046.9" cy="736.6" r="7.6"/>
		<circle class="st5" cx="1046.9" cy="823" r="7.6"/>
		<circle class="st5" cx="1046.9" cy="909.5" r="7.6"/>
		<circle class="st5" cx="1046.9" cy="995.9" r="7.6"/>
		<polygon class="st0" points="1161.8,788.1 1228,1059.3 1228,797 		"/>
		<g>
			<path class="st2" d="M1412.5,800.4c-10.8-3.5-20.6-9.6-28.6-17.6l-68.7,166.1l-93.5-185.5c-8.1-16-27.6-22.5-43.7-14.4v0
				c-16,8.1-22.5,27.6-14.4,43.7l125.4,248.8c5.5,11,16.8,17.9,29,17.9c0.4,0,0.8,0,1.2,0c12.7-0.5,24-8.3,28.8-20.1l97.8-236.5
				C1434.8,804.6,1423.2,803.8,1412.5,800.4z"/>
			<path class="st1" d="M1406.1,729l-22.2,53.8c8,8,17.8,14.1,28.6,17.6c10.8,3.5,22.3,4.3,33.5,2.4l20.2-48.9L1406.1,729z"/>
		</g>
		<circle class="st1" cx="1425" cy="723.8" r="58.4"/>
	</g>
	<path class="st9" d="M932.8,479.4l-83.5-105c19.2-29.2,30.4-64.1,30.4-101.7c0-102.2-82.8-185-185-185c-102.2,0-185,82.8-185,185
		c0,102.2,82.8,185,185,185c26,0,50.7-5.4,73.1-15L932.8,479.4z"/>
	<g>
		<rect x="1206.9" y="1098.6" class="st10" width="403.2" height="69"/>
		<rect x="89.9" y="1098.6" class="st11" width="1121.8" height="69"/>
		<path class="st10" d="M1392.4,1312.3H886.8v-144.6H1537v0C1537,1247.5,1472.2,1312.3,1392.4,1312.3z"/>
		<path class="st11" d="M1032.3,1312.3H307.6c-79.9,0-144.6-64.8-144.6-144.6v0h1013.9v0C1176.9,1247.5,1112.1,1312.3,1032.3,1312.3
			z"/>
	</g>
	<g>
		<rect x="373.3" y="1079.4" class="st12" width="287" height="19.2"/>
		<path class="st12" d="M523.9,832.4h-85.3c-17,0-30.9,13.8-30.9,30.9v235.3h147V863.3C554.7,846.3,540.9,832.4,523.9,832.4z"/>
		<path class="st5" d="M761.5,992.1H503c-21.1,0-38.2-17.1-38.2-38.2V556.4c0-21.1,17.1-38.2,38.2-38.2h258.6
			c21.1,0,38.2,17.1,38.2,38.2v397.6C799.8,975,782.6,992.1,761.5,992.1z"/>
		<path class="st13" d="M718,992.1H244.5c-21.1,0-38.2-17.1-38.2-38.2V556.4c0-21.1,17.1-38.2,38.2-38.2H718
			c21.1,0,38.2,17.1,38.2,38.2v397.6C756.3,975,739.1,992.1,718,992.1z"/>
		<path class="st14" d="M497.4,832.4h-85.3c-17,0-30.9,13.8-30.9,30.9v235.3h147V863.3C528.3,846.3,514.4,832.4,497.4,832.4z"/>
		<rect x="311.3" y="1079.4" class="st15" width="287" height="19.2"/>
		<path class="st14" d="M679.6,927.4h-66.7c-3.7,0-6.7-3-6.7-6.7l0,0c0-3.7,3-6.7,6.7-6.7h66.7c3.7,0,6.7,3,6.7,6.7l0,0
			C686.3,924.4,683.3,927.4,679.6,927.4z"/>
		<path class="st14" d="M679.6,950.8h-66.7c-3.7,0-6.7-3-6.7-6.7l0,0c0-3.7,3-6.7,6.7-6.7h66.7c3.7,0,6.7,3,6.7,6.7l0,0
			C686.3,947.8,683.3,950.8,679.6,950.8z"/>
	</g>
	<circle class="st5" cx="454.8" cy="676.1" r="55.7"/>
	<g>
		<path class="st14" d="M796.5,206.2H577.2c-4.8,0-8.8,3.9-8.8,8.8c0,4.8,3.9,8.8,8.8,8.8h219.3c4.8,0,8.8-3.9,8.8-8.8
			C805.3,210.1,801.3,206.2,796.5,206.2z"/>
		<path class="st14" d="M769,242H604.7c-4.8,0-8.8,3.9-8.8,8.8c0,4.8,3.9,8.8,8.8,8.8H769c4.8,0,8.8-3.9,8.8-8.8
			C777.7,246,773.8,242,769,242z"/>
		<path class="st14" d="M740.3,335H623.7c-4.8,0-8.8,3.9-8.8,8.8c0,4.8,3.9,8.8,8.8,8.8h116.5c4.8,0,8.8-3.9,8.8-8.8
			C749,338.9,745.1,335,740.3,335z"/>
		<path class="st14" d="M697.4,295.3h-94.8c-4.8,0-8.8,3.9-8.8,8.8c0,4.8,3.9,8.8,8.8,8.8h94.8c4.8,0,8.8-3.9,8.8-8.8
			C706.1,299.2,702.2,295.3,697.4,295.3z"/>
		<path class="st14" d="M771.1,295.3h-27.6c-4.8,0-8.8,3.9-8.8,8.8c0,4.8,3.9,8.8,8.8,8.8h27.6c4.8,0,8.8-3.9,8.8-8.8
			C779.9,299.2,776,295.3,771.1,295.3z"/>
	</g>
	<circle class="st5" cx="1109.8" cy="1082.4" r="7.6"/>
</g>
</svg>
