<?xml version="1.0" encoding="utf-8"?>
<!-- Generator: Adobe Illustrator 19.0.0, SVG Export Plug-In . SVG Version: 6.00 Build 0)  -->
<svg version="1.1" id="Слой_1" xmlns="http://www.w3.org/2000/svg" xmlns:xlink="http://www.w3.org/1999/xlink" x="0px" y="0px"
	 viewBox="0 0 820 500" style="enable-background:new 0 0 820 500;" xml:space="preserve">
<style type="text/css">
	.st0{fill:url(#SVGID_1_);}
	.st1{fill:#8E2CFF;}
	.st2{fill:#FFFFFF;}
	.st3{fill:#7F00FF;}
	.st4{fill:url(#SVGID_2_);}
	.st5{fill:url(#SVGID_3_);}
	.st6{fill:#FFCA55;}
	.st7{fill:#FFC655;}
	.st8{fill:#FFBC55;}
	.st9{fill:#FFA655;}
	.st10{fill:#FFD255;}
	.st11{fill:#B7CEFF;}
	.st12{fill:#EEA886;}
	.st13{fill:#E8E8E8;}
	.st14{fill:#303669;}
	.st15{fill:#3A3F47;}
	.st16{fill:#A77860;}
	.st17{fill:#B0B0B0;}
	.st18{fill:#444C94;}
	.st19{fill:#FAA146;}
	.st20{fill:#5478B3;}
	.st21{fill:#E55353;}
	.st22{fill:#B57433;}
	.st23{fill:#525252;}
	.st24{fill:#6E6E6E;}
	.st25{fill:#464240;}
	.st26{fill:#EB4747;}
	.st27{fill:#51578C;}
	.st28{fill:#6E05E8;}
	.st29{fill:#48484D;}
	.st30{fill:#5C5049;}
	.st31{fill:#FAB46C;}
	.st32{fill:#FCCCA2;}
	.st33{fill:#D4C3BD;}
	.st34{fill:#DE9673;}
	.st35{fill:#2F4563;}
	.st36{fill:#E6D3CC;}
	.st37{fill:#DED1C5;}
	.st38{fill:#BC8551;}
	.st39{fill:#23344A;}
	.st40{fill:#807066;}
	.st41{fill:#EEA987;}
	.st42{fill:#214361;}
	.st43{fill:#DB9C7C;}
</style>
<g>
	<g>
		<linearGradient id="SVGID_1_" gradientUnits="userSpaceOnUse" x1="422.3102" y1="388.5997" x2="420.2441" y2="339.0118">
			<stop  offset="0" style="stop-color:#FFEBE3"/>
			<stop  offset="1" style="stop-color:#EDDAD4"/>
		</linearGradient>
		<path class="st0" d="M90.8,346.4h638.7c0,0,50.3-2.5,24.3,23.5c-26,26-126.1,19.8-188.1,57c-62,37.2-52.1-17.6-133.5-20.7
			c-81.4-3.1-330.1-8.3-332.3-31C97.6,352.5,63.7,346.9,90.8,346.4z"/>
		<g>
			<path class="st1" d="M214.2,178.4c5.3-2.5,10.6,14.4,10.6,14.4c9.1,12,21.7-4,20.5,13.9c-2.2,31.3,36,9.8,18.4,42.5
				c-17.6,32.7,15.6,18.5,4.6,44.8c-10.9,26.3,3.2,57.7-13.2,44.8c0,0-14.5-31.8-29.5-41.6c-15-9.8,9-21.5,4.3-34.9
				c-6.8-19.4-23.2-18.6-11.4-39.5C230.4,202,196.1,187,214.2,178.4z"/>
			<g>
				<path class="st2" d="M260.3,326.9c-7.1-5-15.5-40-16-60.8c-0.3-10.7-3.4-15.1-6.2-19c-2.7-3.8-5-7-3.6-14.4
					c2.6-14.2-4.2-20.3-4.2-20.4l0.8-0.9c0.3,0.3,7.3,6.6,4.6,21.5c-1.3,6.9,0.8,9.9,3.4,13.5c2.7,3.9,6.1,8.7,6.4,19.7
					c0.5,22.4,9.1,55.4,15.5,59.9L260.3,326.9z"/>
			</g>
			<g>
				<path class="st3" d="M263,329.5c-0.9,0-1.9-0.1-3-0.3c-2.8-0.6-4.6-2-5.4-4.3c-1.9-5.5,2.5-14.4,6.2-18.8
					c0.1-0.1,6.1-7.5,5.5-17.7c-0.1-1.7-0.3-3.3-0.4-4.7c-0.5-4.1-0.8-7,1-9c1.5-1.7,4.5-2.5,9.9-2.5c9.5,0,13.3-4,16.3-7.1
					c1.3-1.3,2.5-2.6,4-3.4l0,0c4.7-2.6,9.7-3,11.9-0.9c1,1,1.9,2.9,0.2,6.5c-1.6,3.3-3.6,5.3-5.2,7c-2.2,2.2-3.6,3.7-2.9,6.7
					c0.2,0.7,0.4,1.4,0.6,2.1c1.5,5,3.1,10.7-5.4,14.5c-1.8,0.8-3.5,1.5-4.9,2c-6,2.3-9.6,3.8-13.7,12.4c-0.8,1.7-1.5,3.2-2.2,4.8
					C272.1,324,269.6,329.5,263,329.5z M297.5,262.7c-1.3,0.7-2.4,1.9-3.7,3.2c-3.2,3.3-7.1,7.5-17.1,7.5c-5,0-7.8,0.7-9,2.1
					c-1.4,1.6-1.1,4.3-0.7,8c0.2,1.4,0.3,3,0.5,4.8c0.7,10.7-5.5,18.3-5.7,18.6c-3.6,4.3-7.6,12.8-5.9,17.6c0.7,1.9,2.2,3.1,4.5,3.5
					c8.1,1.6,10.3-3.4,14-11.8c0.7-1.5,1.4-3.1,2.2-4.8c4.3-9,8.3-10.6,14.3-13c1.5-0.6,3.1-1.2,4.9-2c7.6-3.4,6.3-8.1,4.8-13.1
					c-0.2-0.7-0.4-1.4-0.6-2.1c-0.9-3.6,0.9-5.4,3.2-7.8c1.7-1.7,3.5-3.6,5-6.7c0.8-1.6,1.4-3.8,0.1-5.1
					C306.2,259.9,301.7,260.4,297.5,262.7L297.5,262.7z"/>
			</g>
			<g>
				<path class="st3" d="M260.1,336.3l-1.2-0.1c0.1-1.1,1.5-27.2,12-34.9c11.5-8.4,15.1-17.4,16.9-23.4c2-7.1,12.4-9,12.8-9.1
					l0.2,1.2c-0.1,0-10.1,1.9-11.9,8.3c-1.8,6.2-5.5,15.5-17.3,24.1C261.6,309.7,260.1,336,260.1,336.3z"/>
			</g>
			<path class="st3" d="M284.1,204.7c-7.5-2.6-5.9,11.8-9.1,22.4c-3.1,10.6-35,4.6-21.6,31.2c13.4,26.6-16.9,8.9-7.9,32.1
				c9.1,23.2,0.8,48,10.6,41.7c9.8-6.3,5.5-35.6,15.8-39c10.2-3.5,11.9-7.5,1.8-17c-10.1-9.4,26.5-18.8,17.5-37.9
				C282.1,219.3,292.7,207.7,284.1,204.7z"/>
			<g>
				<path class="st2" d="M260.7,331.1c-0.9-4-8.9-39-1.5-43.2c6.6-3.7,6.4-18.2,5.4-31.9c-0.9-12.1,14.7-17.8,15.3-18l0.4,1.1
					c-0.2,0.1-15.4,5.6-14.5,16.8c1.1,14.1,1.2,29-6,33c-5.7,3.2-0.5,31.3,2,41.9L260.7,331.1z"/>
			</g>
			<linearGradient id="SVGID_2_" gradientUnits="userSpaceOnUse" x1="232.5786" y1="338.8677" x2="277.6265" y2="338.8677">
				<stop  offset="0" style="stop-color:#FF9340"/>
				<stop  offset="1" style="stop-color:#FFCE45"/>
			</linearGradient>
			<polygon class="st4" points="277.6,318.7 267,359 243.2,359 232.6,318.7 			"/>
			<linearGradient id="SVGID_3_" gradientUnits="userSpaceOnUse" x1="232.5786" y1="338.8677" x2="277.6265" y2="338.8677">
				<stop  offset="0" style="stop-color:#C97332"/>
				<stop  offset="1" style="stop-color:#FFCE45"/>
			</linearGradient>
			<path class="st5" d="M277.6,318.7c0,0-23.4,4.4-23.4,40.4h-11l-10.6-40.4H277.6z"/>
		</g>
		<g>
			<g>
				<g>
					<polygon class="st6" points="416.1,193.4 365.6,193.6 365.8,230.2 365.8,237.9 373.5,230.2 416.3,230 					"/>
				</g>
			</g>
			<circle class="st2" cx="391" cy="213.3" r="3.9"/>
			<circle class="st2" cx="403.6" cy="213.2" r="3.9"/>
			<circle class="st2" cx="378.6" cy="213.3" r="3.9"/>
		</g>
		<g>
			<g>
				<g>
					<polygon class="st3" points="401.1,93.4 451.6,93.6 451.4,130.2 451.4,137.9 443.7,130.2 400.9,130 					"/>
				</g>
			</g>
			<circle class="st2" cx="426.3" cy="113.3" r="3.9"/>
			<circle class="st2" cx="413.6" cy="113.2" r="3.9"/>
			<circle class="st2" cx="438.6" cy="113.3" r="3.9"/>
		</g>
		<g>
			<g>
				<g>
					<polygon class="st6" points="639.2,83.4 567.5,83.7 567.7,135.7 567.8,146.7 578.7,135.7 639.5,135.4 					"/>
				</g>
			</g>
			<circle class="st2" cx="603.5" cy="111.6" r="5.5"/>
			<circle class="st2" cx="621.5" cy="111.6" r="5.5"/>
			<circle class="st2" cx="585.9" cy="111.7" r="5.5"/>
		</g>
		<g>
			<g>
				<g>
					<polygon class="st1" points="755.1,121.8 692,122 692.2,167.8 692.3,177.4 701.9,167.8 755.3,167.5 					"/>
				</g>
			</g>
			<circle class="st2" cx="723.7" cy="146.6" r="4.8"/>
			<circle class="st2" cx="739.5" cy="146.6" r="4.8"/>
			<circle class="st2" cx="708.2" cy="146.7" r="4.8"/>
		</g>
		<g>
			<g>
				<g>
					<polygon class="st1" points="59,121.6 134.7,121.9 134.5,176.8 134.4,188.4 122.9,176.8 58.7,176.5 					"/>
				</g>
			</g>
			<circle class="st2" cx="96.7" cy="151.4" r="5.8"/>
			<circle class="st2" cx="77.7" cy="151.3" r="5.8"/>
			<circle class="st2" cx="115.3" cy="151.5" r="5.8"/>
		</g>
		<path class="st6" d="M330.3,197.2c1.5-4.2-0.6-8.8-4.8-10.3c-4.2-1.5-8.8,0.6-10.3,4.8c0,0-0.2,0.3-0.3,1.1
			c-0.1,0.3-0.1,0.5-0.1,0.8c-0.3,2.5-0.3,7.6,1.9,17.4c8.1-6,11.4-10,12.8-12c0.2-0.2,0.3-0.5,0.4-0.7
			C330.3,197.6,330.3,197.2,330.3,197.2z M321,199.1c-2.6-1-3.9-3.8-3-6.4c1-2.6,3.8-3.9,6.4-3c2.6,1,3.9,3.8,3,6.4
			C326.5,198.7,323.6,200.1,321,199.1z"/>
		<g>
			<g>
				<g>
					<g>
						<g>
							<g>
								<path class="st6" d="M675.6,85.3l-9.1-4c-0.7-0.3-1.1-1.2-0.8-1.9c0.3-0.7,1.2-1.1,1.9-0.8l6.4,2.8l4.6-10.3
									c0.3-0.7,1.2-1.1,1.9-0.7c0.7,0.3,1.1,1.2,0.7,1.9L675.6,85.3z"/>
							</g>
						</g>
					</g>
				</g>
			</g>
			<g>
				<path class="st6" d="M685.9,94c-8.4,5.9-20,3.9-25.9-4.5c-5.9-8.4-3.9-20,4.5-25.9c8.4-5.9,20-3.9,25.9,4.5
					C696.4,76.5,694.3,88.1,685.9,94z M666.1,65.8c-7.2,5.1-8.9,15-3.9,22.2c5,7.2,15,8.9,22.2,3.9c7.2-5.1,8.9-15,3.9-22.2
					C683.2,62.5,673.3,60.7,666.1,65.8z"/>
			</g>
		</g>
		<g>
			
				<rect x="277.2" y="150.2" transform="matrix(0.9798 0.2001 -0.2001 0.9798 37.5958 -54.7238)" class="st7" width="24.7" height="16.9"/>
			<polygon class="st8" points="275.8,164.5 289.8,157.7 300,169.4 			"/>
			<polygon class="st9" points="303.3,152.8 289.1,160.7 279.1,147.9 			"/>
		</g>
		<path class="st6" d="M637.7,159.7c-6.3-0.1-8.5,5.6-8.5,5.6s-5.3-3.1-10.2,0.9c-4.9,4-2.4,8-2.4,8c3.5,8.4,20.2,12.7,20.2,12.7
			s10.3-13.8,7.8-22.5C644.6,164.5,644.1,159.8,637.7,159.7z"/>
		<g>
			<g>
				<path class="st10" d="M206.7,156.7c-1.2,0.4-2.4,0.4-3.5,0c-1.2-0.4-2.2-1.3-2.6-2.4c-1.1-2.1-2.7-4.1-3.9-5.5
					c-3.6-1-6.4-3.8-7.5-7.3c-1.9-5.9,1.3-12.2,7.2-14.1c5.9-1.9,12.2,1.3,14.1,7.2c1,3.2,0.6,6.7-1.2,9.5c0.1,2.4,0.4,4.5,1,6.3
					c0.9,2.3-0.5,5-3.2,6.1C206.9,156.6,206.8,156.6,206.7,156.7z M196.7,128.3c-5.4,1.7-8.4,7.6-6.6,13c1.1,3.3,3.7,5.8,7,6.8
					l0.1,0l0.1,0.1c1.3,1.4,3,3.5,4.1,5.8l0,0c0.3,0.9,1.1,1.5,2.1,1.9c1,0.3,2.2,0.3,3.2-0.1c2.2-0.9,3.4-3.1,2.7-4.9l0,0l0,0
					c-0.6-1.9-0.9-4.1-1-6.7l0-0.1l0.1-0.1c1.7-2.6,2.2-5.8,1.2-8.8C207.9,129.5,202.1,126.5,196.7,128.3z"/>
			</g>
			<g>
				<polygon class="st10" points="203.3,153.9 197.3,143.2 200.5,144.2 201.3,141.9 203.1,142.9 204.6,140.2 207.9,152.1 207,152.3 
					204.3,142.7 203.5,144.2 201.8,143.2 201,145.3 199.2,144.7 204.1,153.5 				"/>
			</g>
			<g>
				
					<rect x="203.3" y="155.4" transform="matrix(0.928 -0.3725 0.3725 0.928 -43.5664 88.4952)" class="st10" width="8" height="3.2"/>
			</g>
			<g>
				
					<rect x="201.1" y="152.3" transform="matrix(0.928 -0.3725 0.3725 0.928 -42.8333 88.0221)" class="st10" width="10.5" height="5.2"/>
			</g>
		</g>
		<g>
			<g>
				<path class="st3" d="M750.7,260.8c0,63.3-1.8,75.7-17.7,89.9c-6.2,5.6-17.7,17.1-50.7,22.9c-9.9,1.7-21.8,2.9-36,3.3
					c-5.8,0.1-11.2-0.1-16-0.6c-4.1-0.4-7.9-1.1-11.3-2c-36.3-9.1-39-40.2-23.2-66.4c4.2-6.9,9-13.3,14.1-19.3
					c7.8-9.2,16.1-17.3,23.7-24.9c7-7,13.3-13.6,17.8-20c1.9-2.7,3.6-5.4,4.8-8.2c0.3-0.6,0.6-1.3,0.9-1.9c1-2.1,2-4,3-5.9
					c1.9-3.6,3.9-6.8,5.7-9.7c1.5-2.3,2.9-4.4,4.3-6.3c4.6-6.4,8.1-10,8.1-10s0.4-0.2,1.2-0.5c0.4-0.2,0.9-0.4,1.6-0.6
					c0.2-0.1,0.5-0.2,0.8-0.3c0.3-0.1,0.6-0.2,0.9-0.3c0.3-0.1,0.6-0.2,0.9-0.3c0.4-0.1,0.7-0.2,1.1-0.4c0.2-0.1,0.5-0.1,0.7-0.2
					c0.1,0,0.3-0.1,0.4-0.1c0.1,0,0.1,0,0.2,0c4.7-1.4,11.2-3,18.2-3.2C724.8,194.9,750.7,205.2,750.7,260.8z"/>
			</g>
			<g>
				<path class="st11" d="M666.2,356.2c0,0,0.5,4.2,1.2,6.1c0.7,1.9,4.4,6.2,2.9,10.3c-1.7,4.5-9.2,0.2-12.3-1.2
					c-3.1-1.4-2.4-3.9-2.7-6.9c-0.3-3.1-1.8-3.1-1.3-5.3c0.5-2.1,3.9-6.3,3.9-6.3L666.2,356.2z"/>
			</g>
			<g>
				<g>
					<path class="st12" d="M659.3,350.8c0,0-1.9,2.7-1.9,2.8c0.1,0.1,8.2,5,8.8,3.4c0.5-1.3,0.6-3.1,0.6-3.1L659.3,350.8z"/>
				</g>
			</g>
			<g>
				<path class="st11" d="M631.7,359.2c0,0-2.5,2.2-4.7,5.5c-2.2,3.4-8.2,3.5-8.4,8.1c-0.3,4.6,8.1,4.7,12.4,3.2
					c4.4-1.5,5-6,7.7-7.1c2.6-1.1,4-2,3.8-4.2c-0.2-2.2-1.7-5.7-1.7-5.7s-1.6,0.5-2.6,0.6C637.2,359.8,634,359.8,631.7,359.2z"/>
			</g>
			<g>
				<path class="st13" d="M661.6,235.2c0,0-1.7,10-3,16.5l0,0c-0.5,2.7-1,4.8-1.3,5.4c-0.4,0.8-3.5,4.2-7.4,8.2
					c-6.8,6.9-15.7,15.7-15.7,15.7l-3.5-6.6c0,0,7.9-9.3,13.3-15.5c2.5-2.9,4.4-5.1,4.8-5.4c1.1-1,2.4-10.9,4.3-19.1
					c1.8-8.2,5.5-12.7,5.5-12.7L661.6,235.2z"/>
			</g>
			<g>
				<path class="st12" d="M649.9,265.3c-6.8,6.9-15.7,15.7-15.7,15.7l-3.5-6.6c0,0,7.9-9.3,13.3-15.5
					C645.7,259.7,648.7,261.7,649.9,265.3z"/>
			</g>
			<g>
				<path class="st12" d="M632.1,356.1l-0.4,3.1c0,0,4.3,1.5,9.1-0.1l0.1-2.7L632.1,356.1z"/>
			</g>
			<g>
				<path class="st13" d="M693.6,279.7c0.3,0.9-45.9,0-45.9,0s12.8-9.3,13.6-11.8c0.8-2.5-3.3-17.4-3.8-22.2
					c-0.4-3.9-1.5-21.2,1.1-23.9c2.7-2.8,12.3-5.7,12.3-5.7l14,0.5c0,0,2.3,0.5,4,1.3c1.7,0.8,11.1,4.1,12.7,8.9
					c1.5,4.7-9.4,19.9-9.4,19.9s0,0.7-0.1,1.8l0,0c0,1.5-0.1,3.8-0.2,6.2c-0.1,3.2-0.1,6.7-0.1,9.3
					C691.7,270,693.3,278.8,693.6,279.7z"/>
			</g>
			<g>
				<path class="st14" d="M693.6,279.7c0,0,6.3,9.2,6.4,15.5c0.1,6.3-11.1,27.4-12.8,30.4c-5.1,9.1-19.1,28.6-19.1,28.6
					s-2.4-0.1-9.9-3c0,0,9.3-25.8,10.5-28.5c5-11.4,7.8-19.4,6.1-21.4c-1.7-2-6.3-3.9-7.6-5.1c-1.3-1.2-24.5,4.4-26.9,5
					c-6.3,1.6-3.4,12.6-2,17.5c2.3,8.2,4.4,37.8,4.4,37.8s-4.5,1.9-12,0.3c0,0-14.7-53.5-15.2-58.8c-0.5-5.3-0.7-14.1,35.6-20.8
					L693.6,279.7z"/>
			</g>
			<g>
				<path class="st12" d="M674.7,185.7c0,0-12.2-2.7-9.4,12.6c2.8,15.3,5.7,16.5,13.1,13.4c7.3-3.2,6.7-13,7.1-17.8
					C685.8,189,678.6,185.9,674.7,185.7z"/>
			</g>
			<g>
				<path class="st12" d="M671.5,220.1c0,0,5.4,5.7,13.9,0.5c0,0-1.9-12.4-0.9-18.4c1-6-11.1,9.3-11.1,9.3c0.2,0.1,0.3,0.7,0.3,1.5
					c0,0.7,0,1.6-0.1,2.5C673.3,217.5,672.7,219.6,671.5,220.1z"/>
			</g>
			<g>
				<path class="st15" d="M684.8,201.7c0,0-0.3-4.8-2.1-5c-1.8-0.2-2,1.8-2,1.8l-1.8,0.3c0,0,0.6-4.2-1.2-5
					c-1.8-0.7-11.4,2.3-12.8,1.1c-1.4-1.2-0.7-9.8,1.8-11c2.6-1.2,9.6-3.8,14.8-0.3c0,0,4-0.5,4.6,2.8
					C686.7,189.7,685.9,199.3,684.8,201.7z"/>
			</g>
			<g>
				<path class="st16" d="M673.5,215.5c8.8-2.7,9.5-8,9.5-8.1c-2.9,5-9.3,5.6-9.3,5.6C673.7,213.7,673.6,214.6,673.5,215.5z"/>
			</g>
			<g>
				<path class="st12" d="M689,218c0,0-6.4,12.8-16.8,12c-10.4-0.8-1.8-13.7-1.3-13.8C671.4,216,681.5,213.5,689,218z"/>
			</g>
			<g>
				<path class="st13" d="M642.4,279c0,0,31.9,3.9,51.2,0.7l-36.9-4.6C656.7,275.1,656.5,276,642.4,279z"/>
			</g>
			<g>
				<path class="st12" d="M666.2,273.6l-2.4,1.2c0,0,0.5,3.8,1.8,4.9l2.7-0.7C668.4,279.1,667.8,274.9,666.2,273.6z"/>
			</g>
			<g>
				<path class="st13" d="M703.1,265.9c-0.5,0.5-6.7,3.1-13.8,5.8l0,0c-9.7,3.7-20.6,7.2-20.6,7.2l-2.5-5.3c0,0,11.4-6.2,19.1-10.6
					c3.6-2.1,6.5-3.7,6.9-4.1c1.2-1.2,1.6-3.1,0.7-6.4c-0.9-3.3-3-18.5-3.3-20.3c-0.2-1.8,0.6-6.5,5-6.7c4.4-0.2,6.7,1,6.7,1
					s1.1,0.5,1.9,11.2C704.1,248.6,704.2,264.6,703.1,265.9z"/>
			</g>
			<g>
				<path class="st17" d="M692,248.5L692,248.5c0,1.5-0.1,3.8-0.2,6.2c-4.3-10.6-1.8-19.1-1.8-19.2C689.6,238.4,692,248.4,692,248.5
					z"/>
			</g>
			<g>
				<path class="st17" d="M658.6,251.7L658.6,251.7c-0.5,2.7-1,4.8-1.3,5.4c-1.5-7.1-0.1-16.3-0.1-16.3
					C657.3,245.2,658.6,251.7,658.6,251.7z"/>
			</g>
			<g>
				<path class="st12" d="M689.3,271.7L689.3,271.7c-9.7,3.7-20.9,7.4-20.9,7.4l-2.1-5.4c0,0,11.4-6.2,19.1-10.6
					C685.4,263.1,688.2,264.4,689.3,271.7z"/>
			</g>
			<g>
				<polygon class="st18" points="665.6,279.4 620.3,278.7 643.1,290.3 				"/>
			</g>
			<g>
				<polygon class="st14" points="643.1,290.3 665.6,281.6 665.6,279.4 641.4,288.1 				"/>
			</g>
			<g>
				<g>
					<path class="st12" d="M664.4,274.9c0,0-2.8-0.4-4.8-0.9c-1.5-0.4-5.3,0.1-6.2,1.1c-1,1-4,7.7-4.6,8.1c-0.6,0.4,0.3,1.4,1.3,0.9
						c0,0,0.9,3,3.2,1.9c2.3-1.1,3.9-3.5,5.1-4c1.2-0.4,8.2-2.6,8.2-2.6S666.2,274.2,664.4,274.9z"/>
				</g>
			</g>
			<g>
				<g>
					<path class="st12" d="M654.1,274.7c0,0-1.8,0.9-2.3,1.3c-0.5,0.4-2.4,1.8-2.9,2.2c-0.5,0.3,0.7,1.3,4.1-0.2
						S654.1,274.7,654.1,274.7z"/>
				</g>
			</g>
			<g>
				<polygon class="st14" points="643.1,290.3 629.7,253.5 586.2,254.2 599.1,288.1 				"/>
			</g>
			<g>
				
					<ellipse transform="matrix(0.8944 -0.4472 0.4472 0.8944 -56.7386 302.5619)" class="st1" cx="612.5" cy="271.5" rx="3.7" ry="5.4"/>
			</g>
			<g>
				<path class="st12" d="M680.7,196.4c0.2-1.4,2.8-1.8,3,0.2c0.2,2-1.2,5.6-2.2,5.2C680.6,201.5,680.5,198.3,680.7,196.4z"/>
			</g>
		</g>
		<g>
			<path class="st19" d="M412.9,343c-0.3,2.2-13.2,11.2-15.8,13c-2,1.5-3.8,2.1-6.9,3.3c0,0,0,0,0,0c-7,1.8-51.1,15-51.1,15
				c-0.1-0.4-0.2-0.8-0.4-1.3c-1.6,0.7-3.3,1.1-4.4,1.4c-1.6,0.5-14.7,0.9-17.3,1.4c-2.7,0.5-8,1.3-10.2-0.7
				c-2.2-2.1,1.3-6.5,4.3-7.6c3-1.1,13.8-1.4,15.8-1.6c1.9-0.2,4.5-0.9,5.7-0.5c0.4,0.1,2.1-0.4,4.3-1.1c-0.1-0.8-0.1-1.3-0.1-1.3
				l11.6-3.3l-2.1-20.5c0,0,5-19,25.1-4.5c0,0,4.5,1.3,6,1.7c0.1,0,0.3,0,0.5,0c3.1-0.2,16.3-4.2,21-4.2c5.1,0,6.8-0.3,8.6,0.6
				C409.4,333.6,413.2,340.8,412.9,343z"/>
			<path class="st19" d="M392.3,375.1c-2.2,2.1-7.5,1.2-10.2,0.7c-2.7-0.5-15.7-0.9-17.3-1.4c-1.6-0.5-4.7-1.2-6.9-2.7
				c-0.2-0.1-0.6-0.3-1.2-0.5c0,0,0,0,0,0l-3.3,2.3l-45.3-14.4c-2.7-0.7-4.9-1.9-6.3-3.1c-2.4-2.1-15.5-10.9-15.8-13
				c-0.3-2.2,3.5-9.3,5.3-10.3c1.8-0.9,3.5-0.6,8.6-0.6c5.1,0,20,4.6,21.5,4.2c0.7-0.2,2.1-0.9,3.5-1.7c1.6-0.9,3.2-1.8,3.2-1.8
				c22-9.8,24.5,6.3,24.5,6.3l-1.3,19.9c0,0,1.8,0.9,4.2,2l10.9,3.1l-1.4,1c0.6,0.2,1.1,0.3,1.2,0.2c1.2-0.4,3.8,0.3,5.7,0.5
				c1.9,0.2,12.8,0.5,15.8,1.6C391,368.6,394.5,373,392.3,375.1z"/>
			<path class="st20" d="M325.2,334.6c1.5,0.1,11.8,6,14.2,7.5c-3.7-1.9-17.7-5.8-17.7-5.8C322.4,336.1,323.8,335.4,325.2,334.6z"/>
			<path class="st20" d="M378,336.3c0,0-17.7,4.3-20.9,6.1c0.1-0.1,9.3-7.1,14.1-8c0,0,4.7,1.5,6.3,1.9
				C377.6,336.3,377.7,336.3,378,336.3C378,336.3,378,336.3,378,336.3z"/>
			<path class="st12" d="M392.3,375.1c-2.2,2.1-7.5,1.2-10.2,0.7c-2.7-0.5-15.7-0.9-17.3-1.4c-0.5-0.1-1.1-0.3-1.7-0.5h0
				c-1.6-0.5-3.6-1.1-5.2-2.2c-0.2-0.1-0.6-0.3-1.2-0.5l8.2-5.9l0.2-0.2c0.6,0.2,1.1,0.3,1.2,0.2c1.2-0.4,3.8,0.3,5.7,0.5
				c1.9,0.2,12.8,0.5,15.8,1.6C391,368.6,394.5,373,392.3,375.1z"/>
			<path class="st2" d="M392.3,375.1c-2.2,2.1-7.5,1.2-10.2,0.7c-2.7-0.5-15.7-0.9-17.3-1.4c-0.5-0.1-1.1-0.3-1.7-0.5h0c0,0,0,0,0,0
				s3.6-3.5,1.9-8.6l0.2-0.2c0.6,0.2,1.1,0.3,1.2,0.2c1.2-0.4,3.8,0.3,5.7,0.5c1.9,0.2,12.8,0.5,15.8,1.6
				C391,368.6,394.5,373,392.3,375.1z"/>
			<path class="st21" d="M329.7,339.2c0,0.1,0,0.1,0,0.1C329.5,339.4,329.5,339.4,329.7,339.2z"/>
			<path class="st3" d="M389,315.2c-0.2-0.3-9.5-15-12-21.7c-2.5-6.7-8.6-9.8-11.5-10.7c-1-0.3-2.8-0.9-4.8-1.6
				c-3.5-1.1-7.3-2.3-7.3-2.3h-12c0,0-4.1,1.4-8.5,2.9c0,0,0,0,0,0c-4.1,1.4-8.3,3-9.8,3.7c-3,1.5-8.1,12.2-9.1,13.5
				c-1,1.2-8.9,15.8-10,21.5c-0.9,4.4,25,17.1,25.7,18.8c0.8-0.9,4.6-4.5,4.6-4.5s-1.2-0.8-2.9-1.9c6.9,0.3,23.9-0.3,26.3-0.2
				c0.5,0,1,0,1.6,0c0,0,0,0,0,0c0.8,0.5,5.6,4.8,5.6,4.8s12-5,17.5-10.5C390.1,319,389.8,316.9,389,315.2z M320.9,324.9
				c-2.6-3.1-6.1-4.9-5.2-6.3c0.9-1.4,8.4-14.4,8.4-14.4s3.9,8.5,5,13c1.1,4.4,1,6.5,0.5,7.9c-0.4,1.2-0.7,2.1-1.1,5.8
				C325.5,328.8,322.1,326.3,320.9,324.9z M373.8,323.4c-1,1.1-5,3.7-8.6,5.8c-0.3-2.5-0.7-6.4-0.7-7.8c-0.1-2.1,0.8-8.2,1.9-10.5
				c1.1-2.3,1.8-8.7,1.8-8.7s9.1,12.3,10.5,13.6C380.2,317.1,377.2,319.6,373.8,323.4z"/>
			<g>
				<path class="st12" d="M348.8,245.9c0,0,9.4,1.5,7.9,16.1c-1.4,14.6-9.7,13.4-10.2,13.4c-0.6,0-8.3,0.3-8.9-17.6
					C337.6,257.9,337.4,244.6,348.8,245.9z"/>
			</g>
			<g>
				<path class="st12" d="M356.9,257.9c0,0,1-1.1,1.4,0c0.4,1.1-1.4,6-1.5,6.3c0,0-0.2,0.4-0.4,0.2
					C356.2,264.2,356.9,257.9,356.9,257.9z"/>
			</g>
			<g>
				<path class="st12" d="M337.9,257.7c0,0-1-1.1-1.4,0c-0.4,1.1,1.3,6.1,1.3,6.3c0,0,0.2,0.4,0.4,0.2
					C338.5,264,337.9,257.7,337.9,257.7z"/>
			</g>
			<g>
				<path class="st3" d="M356.9,260.2l-1.3,1.8c0,0,0-3.9-0.2-4.5c-0.2-0.6-0.5-2.5-0.7-2.9c-0.2-0.4-8-2.6-15,0.6
					c0,0,0.3,2.8-0.4,3.1c-0.7,0.3-0.3,4.6-0.3,4.6l-1.1-1.2c0,0-1.7-11.3-1.3-12.4c0.4-1.2,1.7-8.2,16-4c0,0,4.4-0.9,5.3,2.1
					C358.8,250.2,356.9,260.2,356.9,260.2z"/>
			</g>
			<path class="st22" d="M335.1,353.8c0,0-14.3-8.6-20.6-9.9c-5.9-1.3-8.1-3.5-8.1-3.5s9.4,0,15.7,4.4
				C326.3,347.8,335.1,353.8,335.1,353.8z"/>
			<path class="st22" d="M347.8,359.7c0,0,24.9-13.1,35.1-15.9c5.8-1.6,8.1-3.5,8.1-3.5s-15.4,1.5-24.8,7.1
				C361.7,350.2,347.8,359.7,347.8,359.7z"/>
			<path class="st12" d="M338.7,372.9c-1.6,0.7-3.3,1.1-4.4,1.4c-1.6,0.5-14.7,0.9-17.3,1.4c-2.7,0.5-8,1.3-10.2-0.7
				c-2.2-2.1,1.3-6.5,4.3-7.6c3-1.1,13.8-1.4,15.8-1.6c1.9-0.2,4.5-0.9,5.7-0.5c0.4,0.1,2.1-0.4,4.3-1.1
				C337,365.5,338.7,372.9,338.7,372.9z"/>
			<path class="st19" d="M347.8,371.7l24.5-7.2l-4.8-1.5C367.4,363,347.9,370.1,347.8,371.7z"/>
			<polygon class="st22" points="347.8,371.7 359.3,368.2 351.3,372.8 			"/>
			<path class="st23" d="M339.9,342.4c0,0-0.2-0.1-0.5-0.3C339.6,342.2,339.8,342.3,339.9,342.4z"/>
			<path class="st2" d="M334.3,374.4c-1.6,0.5-14.7,0.9-17.3,1.4c-2.7,0.5-8,1.3-10.2-0.7c-2.2-2.1,1.3-6.5,4.3-7.6
				c3-1.1,13.8-1.4,15.8-1.6c1.9-0.2,4.5-0.9,5.7-0.5C332.6,365.3,329.4,370.4,334.3,374.4z"/>
			<path class="st23" d="M326.2,340.3l-3.8-21.5l48.8-1.1l-3.1,21.1c0,0-15.6,5.7-20.9,9C347.2,347.9,333.8,342.4,326.2,340.3z"/>
			<ellipse class="st24" cx="347.3" cy="331.8" rx="2.7" ry="3.2"/>
			<path class="st12" d="M353.5,278.9C353.5,278.8,353.5,278.8,353.5,278.9c-0.6-1.3-0.3-7.7-0.3-7.7s-11.9-3-11.6-0.7
				c0.3,2.3-1,8.7-1,8.7l-6.1,2.1c0,0,6.5,17.5,14,15.2c7.5-2.3,10.3-15.9,10.3-15.9L353.5,278.9z"/>
			<path class="st16" d="M341.9,273.1c0,0,1.9,2.4,5.2,2.4c2.2,0,3.7-0.5,5.9-2.7c0,0-0.9,4-5.9,4.3
				C347.1,277.2,343.5,277.7,341.9,273.1z"/>
		</g>
		<g>
			<g>
				<g>
					<g>
						<path class="st25" d="M547,141.1c0,0,6.9-0.7,9.4,6c2.5,6.7,4.8,8.9,5.1,12.4c1.2,14.2,7.8,11,6,19.2
							c-1.9,8.2-3.2,9.4-3.2,9.4l-15.9-3.1l-16.1,0.1c0,0,6.3-3.1,4.9-9.8c-1.4-6.7-4.9-17.6-2.9-25.1
							C536.4,142.6,542.9,141.7,547,141.1z"/>
					</g>
				</g>
			</g>
			<g>
				<g>
					<path class="st3" d="M542.7,360.7c0,0-5,6.8-4.3,7.9c0.7,1.1,6.1,1.3,9.4,0c3.3-1.3,3.4-9.4,4.9-12.9c0.6-1.5-0.7-5.8-2.6-6.1
						c-1.9-0.3-4.1,0.7-4.1,0.7S548,355.3,542.7,360.7z"/>
				</g>
			</g>
			<g>
				<g>
					<path class="st12" d="M546,350.3c0,0-0.4,3.2-1,5.5c-0.6,2.3-4,7.5-3.9,8.1c0.2,0.6,4.4,1.2,6.1-0.4c1.7-1.6,3.1-6.3,3.2-9.2
						c0.2-2.8-0.4-4.7-0.4-4.7S547.7,348.6,546,350.3z"/>
				</g>
			</g>
			<g>
				<g>
					<polygon class="st26" points="552.7,355.7 552.7,363 551.8,363 551.8,357.4 					"/>
				</g>
			</g>
			<g>
				<g>
					<path class="st3" d="M555.7,360.7c0,0-5,6.8-4.3,7.9c0.7,1.1,6.1,1.3,9.4,0c3.3-1.3,3.4-9.4,4.9-12.9c0.6-1.5-0.7-5.8-2.6-6.1
						c-1.9-0.3-4.1,0.7-4.1,0.7S561,355.3,555.7,360.7z"/>
				</g>
			</g>
			<g>
				<g>
					<path class="st12" d="M559,350.3c0,0-0.4,3.2-1,5.5c-0.6,2.3-4,7.5-3.9,8.1c0.2,0.6,4.4,1.2,6.1-0.4c1.7-1.6,3.1-6.3,3.2-9.2
						c0.2-2.8-0.4-4.7-0.4-4.7S560.7,348.6,559,350.3z"/>
				</g>
			</g>
			<g>
				<g>
					<polygon class="st26" points="565.7,355.7 565.7,363 564.8,363 564.8,357.4 					"/>
				</g>
			</g>
			<g>
				<g>
					<path class="st12" d="M533.5,237.1c0,0-3.8,20.7-4.8,25.9c-1,5.2-3.9,30.3-4.2,34.6c-0.3,4.3,9.3,24.8,9.9,26.2
						c10,23.7,11.2,29.1,11.2,29.1s3.3,2.1,4.8-0.4c0.5-0.8-6.2-27.9-7.3-35.5c-1-7-3.7-17.9-2.9-20.3c0.7-2.5,7.2-36.4,8.4-37.8
						c1.2-1.4,3.1,0.8,3.8,4c0.7,3.2,2.2,30.4,3.2,33.9c0.9,3.5,0.2,15.2,0.7,21c0.5,5.9,2.6,33.4,2.6,33.4s4.1,0.7,4.5,0.1
						c0.4-0.7,4-30.6,4.1-37.6c0.1-7,0.2-16.7,0.4-19.7c1.9-29.1,5.4-32.9-0.8-53.8C551.9,188.9,533.5,237.1,533.5,237.1z"/>
				</g>
			</g>
			<g>
				<g>
					<path class="st19" d="M533.5,237.1c0,0-3.8,20.7-4.8,25.9c-1,5.2-3.9,30.3-4.2,34.6c-0.3,4.3,8.9,24.8,9.2,26.3
						c0.2,1.5,7.8,23.4,7.8,23.4s7.7-0.1,9.8-2.1c0.4-0.4-7.1-20.6-8.2-28.1c-1-7-3.7-17.9-2.9-20.3c0.7-2.5,7.2-36.4,8.4-37.8
						c1.2-1.4,3.1,0.8,3.8,4c0.7,3.2,2.2,30.4,3.2,33.9c0.9,3.5,0.2,15.2,0.7,21c0.5,5.9-0.6,26.9-0.6,26.9s10.1,0.5,10.5-0.1
						c0.4-0.7,1.2-23.8,1.3-30.8c0.1-7,0.2-16.7,0.4-19.7c1.9-29.1,5.4-32.9-0.8-53.8C551.9,188.9,533.5,237.1,533.5,237.1z"/>
				</g>
			</g>
			<g>
				<g>
					<path class="st3" d="M568.6,244c0.6-0.2-4.1-15.8-5.1-20.5c-0.8-4.2-3.7-8-0.9-15.2c1.6-4.1,1.5-8.9,1.5-8.9s4.3,9.5,4.7,11.9
						c0.4,2.4-14.8-2-15-1.7c-0.4,0.6-0.8,4.8-0.8,6.2c0,1.2,22.1,6.4,24.7,1.8c0.7-1.3-4.1-26.4-7.2-29.8
						c-5.1-5.5-18.4-10.2-18.4-10.2s-3.7-2-10.1,0.1c-6.4,2-15.5,8.3-17,9.9c-1.6,1.6-7.8,26.1-8.3,29.3c-0.5,3-0.3,9.3,6.5,8.5
						l18.4-4.2l-1.1-5.6l-13.8,1.1c-2.8,0.5-1.5-2-1.1-3.4c0.4-1.3,3.8-13.8,3.8-13.8c-0.2,3.5,2.4,14.8,3.8,18.7
						c1.4,3.9-1.6,25-1.8,27.3C531.2,245.6,542.3,254.7,568.6,244z"/>
				</g>
			</g>
			<g>
				<g>
					<path class="st12" d="M555.1,178.9c0,0-4.5,9.4-8.3,12.1c0,0-6.8-10.2-6.5-12.6C540.3,178.4,547.9,175,555.1,178.9z"/>
				</g>
			</g>
			<g>
				<path class="st12" d="M555.3,210.5c0,0-2.1-0.8-2.7-1.6c-0.6-0.8-2.4-1.2-3.8-0.8c-1.4,0.4-0.6,6.3-0.6,6.3l7.3,0.9L555.3,210.5
					z"/>
			</g>
			<g>
				<g>
					<path class="st12" d="M542.1,215c0,0,0.7-3.8,0.5-4.5c-0.2-0.7,1.2-1.4,1.4,0.3c0.2,1.7,0.3,2.9,0.3,2.9L542.1,215z"/>
				</g>
			</g>
			<g>
				<path class="st27" d="M545.1,217.6l5.3-0.2c0.7,0,1.2-0.6,1.2-1.3l0.1-11.6c0-0.7-0.6-1.3-1.3-1.3l-6.3,0.2
					c-0.7,0-1.3,0.7-1.2,1.4l0.9,11.6C543.8,217.2,544.4,217.7,545.1,217.6z"/>
			</g>
			<g>
				<g>
					<path class="st12" d="M542,215.3c0,0-0.1-1.1,2-2.1c2.8-1.3,6.5-2.7,7.1-2.3c0.9,0.5,0.4,1.2-1.3,1.8c-1.8,0.6-2.3,0.8-2.3,0.8
						s3.4-0.3,4.2,0.1c0.8,0.4,0.8,1.4,0.3,1.5c-0.6,0.2-1.9,0.2-1.9,0.2s1.5,0.1,1.6,0.6c0.1,0.4,0.2,1.1-1.2,1.3
						c0,0,0.9,1-0.5,1.7c-1.4,0.7-3.9,1.3-5.2,1.5c-2.6,0.4-8.6,0.1-8.6,0.1l2.5-4.2c0,0,1.4,0.1,2.3-0.2
						C542.1,215.7,542,215.3,542,215.3z"/>
				</g>
			</g>
			<g>
				<polygon class="st3" points="540.4,215.6 541.6,221.3 529.8,223.9 529.4,216.5 				"/>
			</g>
			<g>
				<path class="st3" d="M553.8,209.7c0,0-1,2.1-0.8,6.2c0,0,7.3,2.7,12.9,3.3V212L553.8,209.7z"/>
			</g>
			<g>
				<path class="st28" d="M541.6,221.3l-8.2,4.6c0.1-1,0.1-1.9,0.1-2.7L541.6,221.3z"/>
			</g>
			<g>
				<path class="st28" d="M563.2,221.9c-6.6-2.6-9.2-5-10-5.7c-0.2-0.2-0.2-0.2-0.2-0.2l9.4,2.7c0,0,0,0,0,0
					C562.6,219.7,562.9,220.8,563.2,221.9z"/>
			</g>
			<g>
				<g>
					<g>
						<path class="st12" d="M548,145c0,0,9.2,1.3,7.8,14.9c-1.3,13.5-9.4,12.5-10,12.5c-0.5,0-8.1,0.3-8.8-16.2
							C537,156.1,536.7,143.9,548,145z"/>
					</g>
				</g>
			</g>
			<g>
				<g>
					<g>
						<path class="st12" d="M552,169.9c0,0-0.6,7,0.8,9.2c1.4,2.1-1.2,5-6.3,4c-5.2-1-4.9-3.9-4.9-3.9s1.5-4.3,1-7.8
							C542.2,167.9,552,169.9,552,169.9z"/>
					</g>
				</g>
			</g>
			<g>
				<g>
					<g>
						<path class="st25" d="M546.9,149.9c0,0,4.3,4.5,6.3,6.8c2,2.3,2.2,6.7,2.2,6.7s3.4-4.1,2-8.9c-1.4-4.8-4.7-14-13.1-11.2
							c-8.4,2.9-8.7,15.4-7.7,21.6C536.5,165,540.3,151.2,546.9,149.9z"/>
					</g>
				</g>
			</g>
			<g>
				<g>
					<path class="st16" d="M543.3,171.7c0,0,3.9,1.8,7.7-0.9c0,0-1.1,2.2-3.9,2.5C544.4,173.6,543.3,171.7,543.3,171.7z"/>
				</g>
			</g>
			<g>
				<path class="st25" d="M542,174.2c0,0-12.6,11.2-9.3,18.2c2.8,6,12.7,2.3,11.1-4C542.1,182.2,542,174.2,542,174.2z"/>
			</g>
			<g>
				<circle class="st29" cx="544.6" cy="205.7" r="0.8"/>
			</g>
		</g>
		<g>
			<g>
				<polygon class="st30" points="204.1,361.7 194.9,300.4 196.7,300.1 205.9,361.4 				"/>
			</g>
			<g>
				<polygon class="st30" points="192.9,361.7 183.7,300.4 185.5,300.1 194.7,361.4 				"/>
			</g>
			<g>
				<polygon class="st30" points="137.5,361.7 135.7,361.4 144.9,300.1 146.7,300.4 				"/>
			</g>
			<path class="st31" d="M197.8,301l7.2-75.9c0,0-12.6-1.6-20.2-1.2L173.3,301H197.8z"/>
			<rect x="173.3" y="297.2" class="st31" width="24.5" height="3.9"/>
			<path class="st31" d="M157.3,298l-3.8-72.3c0,0,31.9-3.5,51.5-0.5L157.3,298z"/>
			<path class="st32" d="M182.8,202.2c0,0,4.9-14.5-4.5-18.9c-9.4-4.5-17.4,2-18.9,5.5c-1.5,3.5-1.1,9.9,0.2,14.3
				c1.3,4.4,1.1,11.2-1.7,13.5c-2.8,2.3-6.3,6-6.1,13.7c0.1,4.7,18.7-12.1,18.7-12.1L182.8,202.2z"/>
			<path class="st33" d="M170.3,357.8c0,0-0.3,10.2,1.2,10.8c1.5,0.6,7-2.9,9.4-6.5c2.4-3.5-3.1-11.7-4-16.2
				c-0.4-1.9-4.7-5.3-6.8-4.3c-2.1,1-3.6,3.5-3.6,3.5S171.8,348.8,170.3,357.8z"/>
			<g>
				<path class="st34" d="M166.5,345.1c0,0,1.8,3.5,2.7,6.2c0.9,2.7,1.1,10.2,1.7,10.7c0.6,0.5,5.2-1.8,5.8-4.6
					c0.6-2.8-1.3-8.4-3-11.3c-1.8-2.9-3.6-4.4-3.6-4.4S167,342.3,166.5,345.1z"/>
			</g>
			<polygon class="st33" points="176.9,346 181.9,353.2 180.9,353.9 177.1,348.3 			"/>
			<path class="st34" d="M159,265.7c0,0,2.4,4.1,0,7.1c-2.4,3-18.8,11.2-18.7,15.9c0.1,4.7,3.1,12.2,4.2,14c1.1,1.9,5,9.7,7.1,14.3
				c2.1,4.6,14,26.5,16.3,31.4c2.3,4.9,0.9-19.7,0.9-19.7l-11.9-35l27.9-27.1C184.8,266.6,181.4,259.1,159,265.7z"/>
			<path class="st35" d="M169.6,219.4c0,0-7.7,1.7-10.8,3.5c-3.1,1.8-9.9,10-9.9,13.6c0,3.5,29.8,6.9,29.8,6.9l5.6,20.6
				c0,0,15.1-3.7,16.9-6.7c1.8-3-5.9-24.7-7-29.3c-1.1-4.6-6.7-7.7-13-8.5C174.9,218.5,169.6,219.4,169.6,219.4z"/>
			<path class="st12" d="M187.9,266.4c0,0-0.5,3.5,0.9,5c1.4,1.5,8,10.2,4.5,18.8c-3.2,7.9-9.4,7.7-9.4,7.7h-9.6
				c0,0,2.8,14.2,1.9,23.5c-0.9,9.3-5.2,30.6-5.2,31.7c-0.1,1.1-4.1,4.4-5.2,2.7c0,0-0.1-12.8-0.7-17.7c-0.6-4.8-3.3-24.2-4.1-27.1
				c-0.8-2.9-5.6-11.6-5.6-12.5c0-0.9-4.6-14.9,5.5-18.5C170.8,276.5,174.4,266.5,187.9,266.4z"/>
			<path class="st36" d="M160.8,365.7c0,0-6.7,7.8-5.9,9.2c0.7,1.4,7.3,2.1,11.4,0.9c4.1-1.2,5-11,7.1-15.1c0.9-1.7-0.3-7-2.5-7.6
				c-2.2-0.6-5,0.4-5,0.4S167.7,359.7,160.8,365.7z"/>
			<g>
				<path class="st12" d="M165.9,353.5c0,0-0.8,3.8-1.8,6.5c-1,2.7-5.6,8.6-5.4,9.4c0.1,0.8,5.2,1.9,7.4,0.1
					c2.2-1.8,4.3-7.3,4.8-10.7c0.5-3.4,0-5.7,0-5.7S168,351.6,165.9,353.5z"/>
			</g>
			<polygon class="st36" points="173.4,360.7 172.7,369.5 171.6,369.4 172.1,362.6 			"/>
			<path class="st35" d="M193.3,290.2c-3,8-9.4,7.7-9.4,7.7h-9.6c0,0-4-6.4-13.9-7.5c-2.2-0.2-4.7-0.2-7.4,0.2c0,0-0.1,0-0.1,0
				c-13.1,1.9-10.6,6.7-10.5,6.9c-1.1-2.7-2.2-6.9-2-9.2c1.3-10.4,16.2-12.5,18.7-15.5c2.4-3,0-7.1,0-7.1
				c22.4-6.6,25.8,0.9,25.8,0.9c1-0.1,3.5-1.6,4.6-1.6c0,0,1.1,2.5,1.9,4.7C192,271.7,196.6,281.6,193.3,290.2z"/>
			<polygon class="st37" points="184,233.2 187.3,264 143.6,264 140.3,233.2 			"/>
			<rect x="183.5" y="261.2" class="st37" width="7.3" height="2.8"/>
			<rect x="113.6" y="264" class="st38" width="120.3" height="4.2"/>
			<path class="st12" d="M174.4,185.8c0,0,9.8,2.9,8.4,16.5c-1.4,13.6-7.8,12.9-8.4,13c-0.6,0.1-8.2,0.6-10.6-15.9
				C161.4,182.9,174.4,185.8,174.4,185.8z"/>
			<path class="st12" d="M179.1,212.7c0,0-0.5,4.5,0.3,7.3c0.9,2.8-11.4,2.9-11.4,0.6c0-2.6,1.3-4.8,0.1-9.3
				C166.9,206.8,179.1,212.7,179.1,212.7z"/>
			<path class="st32" d="M171.9,191.8c0,0,5.3,8.5,10.9,10.4c0,0,3.1-14.2-9.6-17.2c-12.6-3-10.6,14.3-9.7,18.9
				C163.5,204,166.2,197.2,171.9,191.8z"/>
			<path class="st16" d="M169.6,213.3c0,0,3.9,4,8.8,0.4c0,0-0.4,2.6-4,2.9C170.9,216.9,169.6,213.3,169.6,213.3z"/>
			<path class="st39" d="M164.8,190.5c0,0,2.8-5.4,7.5-5.7c4.7-0.2,7.5,3.9,7.5,3.9s-1.8-4.6-7.5-4.6S164.8,190.5,164.8,190.5z"/>
			<path class="st12" d="M180.7,219.4c0,0-0.2,9.4-7.6,9.7c-7.5,0.3-5.9-9-5.9-9S172.6,217.8,180.7,219.4z"/>
			<rect x="230.7" y="268.2" class="st40" width="3.1" height="96.4"/>
			<rect x="113.6" y="268.2" class="st40" width="3.1" height="96.4"/>
		</g>
		<g>
			<path class="st12" d="M478.3,183c0,0,9.6,2.8,9,15.8C486.7,211.8,478.3,183,478.3,183z"/>
			<g>
				<path class="st12" d="M477.4,183c0,0,0.7,1-0.2,7.5c-0.9,6.5,0.8,9.2,1,11.9c0.2,2.7,3.4,20.1,3.5,20.9c0.1,0.8,0.5,10,1.7,12.5
					c1.2,2.5,10.3,16.4,10.4,17.1c0.1,0.7,4.4-2.4,4.4-2.4s-8.1-16.9-8.7-18.6c-0.7-2.1-2.7-7.2-2.8-9.9c-0.3-6.6,0.3-21.8,0.1-25.1
					C486.5,190.5,481.6,184,477.4,183z"/>
			</g>
			<g>
				<g>
					<g>
						<path class="st41" d="M489.6,238.5c0,0,1.4,3.1,2.3,3.3c0.8,0.2,1.8,1.2,2.6,1.6c0.7,0.3,3,0.5,3.6,1.1
							c0.2,0.2,1.2,2.3,1.8,2.8c0.6,0.4,1.8,1.2,1.4,1.7c-0.4,0.5-1.7,0.1-1.7,0.1s0.5,0.4,0.3,0.9c-0.4,1-1.1,1.1-1.1,1.1
							s0.2,0.8-0.1,1.1c-0.6,0.8-1.3,0.9-1.3,0.9s-0.1,0.6-0.6,1c-0.7,0.6-1.5,0.3-1.5,0.3s-0.7,0.9-1.3,0.8c-0.6-0.2-1-0.6-1.4-0.9
							c-0.4-0.3-3.6-3.8-4.7-7.2c-1.1-3.3-3.1-6.1-3.1-6.1L489.6,238.5z"/>
					</g>
				</g>
			</g>
			
				<rect x="476.4" y="215.5" transform="matrix(0.6299 0.7767 -0.7767 0.6299 366.1415 -292.396)" class="st42" width="27" height="45"/>
			<g>
				<g>
					<path class="st43" d="M499.4,248.6c0,0-2.7-3-4.1-3c-1.4,0.1-0.4,1.2-0.4,1.2s-0.9-1.1-1.9-0.5c-1,0.6,0.2,1.9,0.2,1.9
						s-0.9-0.7-1.6,0.3c-0.7,1,0.5,1.8,0.5,1.8s-1.8-0.3-1.4,1.2c0.6,2.5,3.3,3.7,3.3,3.7s0.7,0.2,1.4-0.8c0,0,1.7,0.6,2.1-1.3
						c0,0,2-0.5,1.3-2C498.8,251.1,500.9,250.3,499.4,248.6z"/>
				</g>
			</g>
			<path class="st19" d="M469.6,145c0,0-13.8-1.2-13.5,13.4c0.4,14.6,2.7,16.7,0,27c-2.7,10.3,13.5-5.8,13.5-5.8L469.6,145z"/>
			<path class="st41" d="M454.5,234.9c0,0-5.1,6.5-6.9,10.8c-1.8,4.3-4.8,13.7-4.4,21c0.4,7.3,2.8,21,2.1,24.1
				c-0.7,3.1-1.4,9.5-2.1,11.7c-0.8,2.2-3.7,8.6-4,15.2c-0.3,6.6,4.2,35.6,4,38.3c-0.2,2.7,5.1,1.1,5.1,1.1s1.8-26.2,2.8-30.7
				c1-4.5,2.2-19.8,3.1-20.9c0.9-1.1,3.4-12.5,3-14.3c-0.4-1.8,9.8-28.8,10.4-34.2s15.6-22.1,15.6-22.1S470,229.9,454.5,234.9z"/>
			<path class="st41" d="M478.8,234.9c0,0,0.3,2.7,0.6,3.7c0.3,1,7.2,26.5,7.9,36.3c0.7,9.8,2.5,18.1,2.8,20.2
				c0.3,2.1-0.3,9.1-0.9,10.9c-0.6,1.8,3,44.3,3.3,45.3c0.3,1-2.4,1.3-4.3,1c-1.9-0.3-11.5-31.2-10.9-36.4
				c0.6-5.2,1.2-16.3-0.5-20.8c-1.7-4.5-17-37.1-17.1-39.1C459.6,254,453.1,219.6,478.8,234.9z"/>
			<path class="st41" d="M448.1,353.9c0,0,0.5,3.4,1,4.4c0.5,0.9,2,5.7,2.7,6.6c0.7,0.9,2.2,7.6,0,8.4c-2.2,0.8-7.2,2.2-8.9-0.5
				c-1.7-2.7-1.9-5.4-1.7-7.4c0.3-2.1,2.3-11.5,2.3-12.5C443.5,352,448.1,353.9,448.1,353.9z"/>
			<path class="st2" d="M451,363c0,0,0.2,5.2-3.7,5.2c-3.9,0-5.7-4.8-5.7-4.8s-1.3,2.3,0,7.3c1.3,5,6.9,3.9,8.2,3.8
				C451,374.4,457,372.8,451,363z"/>
			<path class="st2" d="M492,349.2c0,0,2.8,5,4.4,6c2.1,1.3,6.1,5.3,7.5,5.5c1.4,0.2,6.4,1.1,5.5,3.9c-0.8,2.3-12.8,2-14.1,0.8
				c-1.4-1.2-5.4-5.3-7-5.3c-1.6,0.1-1,6-1,6h-1.8c0,0-0.6-5.8-0.7-6.8c-0.2-2.9,1.9-5.1,2-6.8c0.1-1.7,0.2-2.9,0.2-2.9L492,349.2z"
				/>
			<path class="st41" d="M503.5,360.5c0,0-4,1.4-7-0.4c-3-1.7-8.9-4.4-10.9-4.4c0,0,1.1-3.4,1.1-3.8c0-0.4,0.1-2.2,0.1-2.2l5.1-0.8
				c0,0,3.3,4.9,4.8,6C498.2,356,502,358.9,503.5,360.5z"/>
			<path class="st19" d="M483.2,234.5c0,0,1.4,5.9,1.9,7.6c0.5,1.7,3.9,28.5,4.7,45.2c0,0-20.2,7.6-47.9,6.4c0,0-0.7-30.7,1.9-39.4
				c2.5-8.7,7.2-16.8,10.6-19.3C457.6,232.7,483.2,234.5,483.2,234.5z"/>
			<path class="st13" d="M486.7,199.5c-0.2,3.5-1.7,5.8-2,7.1c-0.3,1.3,0,4.2-0.4,7.1c-0.4,2.9-1.5,16.9-1.1,20.8
				c0.4,4-27.3,2.2-29.4,1c0,0,4.7-8.3,4.8-11.8c0-1.2,0.8-4.9-1.2-7.6c-1-1.4-2.9-6-4.8-9.3c0,0,0.4-0.7,0,0
				c-0.7-1.3-1.5-2.6-2.1-3.5l0,0c-0.7-1.2-1.1-2.7-1.1-2.7s-1.2-15.3,2.1-17c3.4-1.7,5.2-2,8.5-2.2c3.3-0.2,5.5-0.8,5.5-0.8
				l7.7,0.8c0,0,2.7,1.3,4.7,1.4c1.9,0.1,4.3,4.4,5.5,7.4C484.4,192.8,486.9,196,486.7,199.5z"/>
			<path class="st12" d="M455.8,182c0,0-6.1,0.5-8.4,6.1c-2.3,5.6-2.1,11.3-2.6,13.4c-0.5,2.1-1.2,14.1-1.8,15.9
				c-0.5,1.8-2.3,10-2.7,16.7c-0.4,6.7,0.6,20.7,0.6,20.7l3.4-1.6c0,0,3-20.8,4.3-25.2c1.1-3.8,1.1-10.2,1.7-12.5
				c0.6-2.3,4.5-16.2,5.1-17.6C456.4,195.6,461,181.9,455.8,182z"/>
			<path class="st12" d="M468.2,146.4c3.4-0.6,11.3,0.3,13.5,9.3c0,0,0,2.5-0.4,4.5c-0.4,2,2,7.5,1.6,7.8c-0.4,0.3-2.3,0.9-2.3,0.9
				s-1.3,6.5-3.5,6.7c-2.2,0.2-10.7-0.6-15.5-7.9C456.9,160.5,454.4,148.7,468.2,146.4z"/>
			<path class="st12" d="M473.9,173.2c0,0-0.2,0.9-0.3,2.2c-0.1,0.7-0.2,1.5-0.2,2.3c-0.1,2.3-0.1,5,0.7,6.7c0,0-4.3,2.6-8.9-3.8
				c0,0,0.5-7.9-2.2-12.2C460.4,164.2,473.9,173.2,473.9,173.2z"/>
			<path class="st19" d="M481.7,155.7c0,0-5.2,4.5-10.6,5.9c-5.5,1.4-8.4,7.5-8.4,7.5s-9.7-9.7-3.8-19
				C464.7,140.8,481.7,145,481.7,155.7z"/>
			<path class="st16" d="M473.6,175.4c-0.1,0.7-0.2,1.5-0.2,2.3c-4.8-2.3-7.5-5.5-7.5-5.5C468.7,174.2,473.6,175.4,473.6,175.4z"/>
			<path class="st19" d="M470.1,161.9c0,0-5.6,15-4.9,18.7c0,0-3-0.5-8.2,1.1C456.9,181.7,459.5,154.9,470.1,161.9z"/>
			<path class="st12" d="M463.3,181.1c0,0,1.8,11.3,8.7,10c6.8-1.3,1.6-9.5,1.6-9.5S470.6,179,463.3,181.1z"/>
			<path class="st12" d="M444.3,252.5c0,0,0.5,1.8,1.4,3.6c0.4,0.9,1,6.8,1,7.6c0,0.6-0.4,0.3-0.7-0.1c-0.1-0.2-0.7-2.3-1.1-3.3
				c-0.4-0.9-0.7-1.2-0.8-0.9c-0.1,0.3-0.1,4.1,0.3,5.7c0.5,1.6,0.4,5.4-0.5,4.9c-0.9-0.5-3.4-7.1-3.4-9.7c0-2.6,0.4-5.7,0.4-5.7
				L444.3,252.5z"/>
		</g>
	</g>
</g>
</svg>
