<?xml version="1.0" encoding="utf-8"?>
<!-- Generator: Adobe Illustrator 19.0.0, SVG Export Plug-In . SVG Version: 6.00 Build 0)  -->
<svg version="1.1" id="Layer_1" xmlns="http://www.w3.org/2000/svg" xmlns:xlink="http://www.w3.org/1999/xlink" x="0px" y="0px"
	 viewBox="544 -304 1700 1400" style="enable-background:new 544 -304 1700 1400;" xml:space="preserve">
<style type="text/css">
	.st0{fill:#7F00FF;}
	.st1{fill:#F9A469;}
	.st2{fill:#455A66;}
	.st3{fill:#FFFFFF;}
	.st4{fill:#913920;}
	.st5{fill:#7C2C19;}
	.st6{fill:#37474F;}
	.st7{fill:#F1F2F2;}
	.st8{fill:#FBB47F;}
	.st9{fill:#F48242;}
	.st10{fill:#2A373D;}
	.st11{fill:#594A42;}
	.st12{fill:#D8633A;}
	.st13{fill:#27313F;}
	.st14{fill:#344258;}
	.st15{fill:#9D8483;}
	.st16{fill:#EDEDED;}
	.st17{fill:#BDABAA;}
	.st18{fill:#AE9493;}
</style>
<g>
	<g>
		<g>
			<path class="st0" d="M1872.6,511.4h-220.5V795H1933V571.8C1933,538.5,1906,511.4,1872.6,511.4z"/>
			<g>
				<g>
					<circle class="st1" cx="1363.6" cy="770.8" r="58.4"/>
					<g>
						<path class="st2" d="M1657.8,459.4L1657.8,459.4c-17.9,0-32.5,14.6-32.5,32.5V730h-42.8c9.7,7.8,15.9,19.7,15.9,33
							c0,12.8-5.6,24.2-14.6,32h74c17.9,0,32.5-14.6,32.5-32.5V491.9C1690.3,474,1675.7,459.4,1657.8,459.4z"/>
						<path class="st1" d="M1575.6,767.7c0-20.8-16.9-37.7-37.7-37.7h-8.5H1403v65h160.9C1571.1,788.1,1575.6,778.5,1575.6,767.7z"
							/>
						<path class="st3" d="M1598.3,763.1c0-13.4-6.2-25.3-15.9-33c-7.3-5.8-16.5-9.3-26.5-9.3s-19.3,3.5-26.5,9.3h8.5
							c20.8,0,37.7,16.9,37.7,37.7c0,10.7-4.5,20.4-11.7,27.3c-4.7,4.5-10.7,7.8-17.2,9.4c3,0.7,6.1,1,9.3,1
							c10.6,0,20.4-3.9,27.8-10.4C1592.6,787.2,1598.3,775.8,1598.3,763.1z"/>
					</g>
				</g>
				<circle class="st4" cx="1853.3" cy="186.1" r="53.3"/>
				<path class="st4" d="M1826,190.8h-79.1v112.6l0,0c43.7,0,79.1-35.4,79.1-79.1V190.8z"/>
				<circle class="st4" cx="1592.4" cy="91.1" r="64.9"/>
				<circle class="st5" cx="1590.7" cy="108.4" r="43.6"/>
				<path class="st6" d="M1695.9,794.6h-123.2v-323c0-34,27.6-61.6,61.6-61.6h61.6V794.6z"/>
				<path class="st7" d="M1672,419.6l-5.5-19.3c-1.8-6.2,2.9-12.4,9.3-12.4h7.6v31.7H1672z"/>
				<path class="st8" d="M1680.9,372.1c-1.4,0-2.8,0-4.1-0.1v38h70.1v-59.6C1728.4,364.1,1705.6,372.1,1680.9,372.1L1680.9,372.1z"
					/>
				<path class="st9" d="M1676.8,234.5V372c1.4,0.1,2.7,0.1,4.1,0.1l0,0c24.7,0,47.6-8.1,66-21.8V234.5H1676.8z"/>
				<path class="st7" d="M1676.8,410l-9.3,18.7l-6.5,13.2c-0.6,1.2-1.2,2.4-1.8,3.6c-18.3,35.3-52.2,64.6-84.5,79.8
					c-23.2,10.9-37.6,28.2-37.6,52.4c0,30.3,26.6,54.5,56.9,55.7c0.7,0,1.5,0,2.2,0v161.2h210.6V452.4l-60-42.4H1676.8z"/>
				<path class="st7" d="M1777,424.4h-77.5v-9.3c0-13.9,10.2-25.8,24-27.8l33-4.9c10.8-1.6,20.5,6.8,20.5,17.7V424.4z"/>
				<path class="st6" d="M1835,794.6h-123.2v-323c0-34,27.6-61.6,61.6-61.6l0,0c34,0,61.6,27.6,61.6,61.6V794.6z"/>
				<path class="st8" d="M1680.9,347.1L1680.9,347.1c-61.3,0-111-49.7-111-111v-70c0-61.3,49.7-111,111-111l0,0
					c61.3,0,111,49.7,111,111v70C1791.9,297.4,1742.2,347.1,1680.9,347.1z"/>
				<path class="st4" d="M1652.2,31v49.2h53.4v60.2c0,33.3,27,60.2,60.2,60.2h60.2v-65.7c0-57.4-46.5-103.9-103.9-103.9L1652.2,31
					L1652.2,31z"/>
				<circle class="st4" cx="1676.8" cy="82.4" r="73.6"/>
				<polygon class="st10" points="1824.4,491.9 1759.4,504.1 1743.7,720.7 1709.7,730 1711.8,730 1711.8,794.6 1835,794.6 
					1835,668.4 				"/>
				<path class="st4" d="M1604.6,165.1L1604.6,165.1c-12.7-4.7-26.4-4.2-38.7,1.4c-3.5,1.6-5,5.7-3.4,9.2c0.8,1.7,2.2,3,3.9,3.6
					c1.7,0.6,3.6,0.6,5.3-0.2c8.9-4.1,18.9-4.5,28.1-1c3.6,1.3,7.6-0.5,8.9-4.1S1608.2,166.5,1604.6,165.1z"/>
				<path class="st11" d="M1585.2,197.2h-9.9c-1.3,0-2.3,1-2.3,2.3s1,2.3,2.3,2.3h2.3c-0.6,1.1-0.9,2.4-0.9,3.8
					c0,4.7,3.8,8.5,8.5,8.5s8.5-3.8,8.5-8.5C1593.7,201,1589.9,197.2,1585.2,197.2z"/>
				<path class="st4" d="M1691.6,165.1L1691.6,165.1c-12.7-4.7-26.4-4.2-38.7,1.4c-3.5,1.6-5,5.7-3.4,9.2c0.8,1.7,2.2,3,3.9,3.6
					c1.7,0.6,3.6,0.6,5.3-0.2c8.9-4.1,18.9-4.5,28.1-1c3.6,1.3,7.6-0.5,8.9-4.1C1697,170.4,1695.2,166.5,1691.6,165.1z"/>
				<path class="st11" d="M1672.2,197.2h-9.9c-1.3,0-2.3,1-2.3,2.3s1,2.3,2.3,2.3h2.3c-0.6,1.1-0.9,2.4-0.9,3.8
					c0,4.7,3.8,8.5,8.5,8.5s8.5-3.8,8.5-8.5C1680.7,201,1676.9,197.2,1672.2,197.2z"/>
				<path class="st9" d="M1606.7,260.4c2.5,5.1,7.7,8.6,13.8,8.6c6.1,0,11.3-3.5,13.8-8.6H1606.7z"/>
				<path class="st3" d="M1660,328.4c23.7,0,43-19.3,43-43h-86C1617,309.2,1636.3,328.4,1660,328.4z"/>
				<g>
					<g>
						<path class="st8" d="M1791.2,200.6h-28.4v59.3h28.4c16.4,0,29.6-13.3,29.6-29.6l0,0C1820.9,213.9,1807.6,200.6,1791.2,200.6z"
							/>
						<path class="st12" d="M1779.9,242.9v-25.3h11.4c7,0,12.6,5.7,12.6,12.6c0,7-5.7,12.6-12.6,12.6h-11.4V242.9z"/>
					</g>
					<circle class="st3" cx="1794.6" cy="264.9" r="9.3"/>
				</g>
				<path class="st3" d="M1442.7,744.8L1442.7,744.8c-27.5,0-49.9,22.3-49.9,49.9v2h99.8v-2C1492.5,767.2,1470.2,744.8,1442.7,744.8
					z"/>
				<g>
					<circle class="st8" cx="1497.8" cy="770.8" r="58.4"/>
					<g>
						<path class="st2" d="M1791.9,459.4L1791.9,459.4c-17.9,0-32.5,14.6-32.5,32.5V730h-42.8c9.7,7.8,15.9,19.7,15.9,33
							c0,12.8-5.6,24.2-14.6,32h74c17.9,0,32.5-14.6,32.5-32.5V491.9C1824.4,474,1809.8,459.4,1791.9,459.4z"/>
						<path class="st8" d="M1709.7,767.7c0-20.8-16.9-37.7-37.7-37.7h-8.5h-126.4v65H1698C1705.2,788.1,1709.7,778.5,1709.7,767.7z"
							/>
						<path class="st3" d="M1732.4,763.1c0-13.4-6.2-25.3-15.9-33c-7.3-5.8-16.5-9.3-26.5-9.3s-19.3,3.5-26.5,9.3h8.5
							c20.8,0,37.7,16.9,37.7,37.7c0,10.7-4.5,20.4-11.7,27.3c-4.7,4.5-10.7,7.8-17.2,9.4c3,0.7,6.1,1,9.3,1
							c10.6,0,20.4-3.9,27.8-10.4C1726.8,787.2,1732.4,775.8,1732.4,763.1z"/>
					</g>
				</g>
			</g>
			<g>
				<rect x="1750.9" y="794.7" class="st13" width="403.2" height="69"/>
				<rect x="633.9" y="794.7" class="st14" width="1121.8" height="69"/>
				<path class="st13" d="M1936.4,1008.3h-505.6V863.7H2081l0,0C2081,943.5,2016.2,1008.3,1936.4,1008.3z"/>
				<path class="st14" d="M1576.3,1008.3H851.6c-79.9,0-144.6-64.8-144.6-144.6l0,0h1013.9l0,0
					C1720.9,943.5,1656.1,1008.3,1576.3,1008.3z"/>
			</g>
			<g>
				<rect x="917.2" y="775.4" class="st15" width="287" height="19.2"/>
				<path class="st15" d="M1067.9,528.4h-85.3c-17,0-30.9,13.8-30.9,30.9v235.3h147V559.3C1098.7,542.3,1084.9,528.4,1067.9,528.4z"
					/>
				<path class="st3" d="M1305.5,688.1H1047c-21.1,0-38.2-17.1-38.2-38.2V252.4c0-21.1,17.1-38.2,38.2-38.2h258.6
					c21.1,0,38.2,17.1,38.2,38.2V650C1343.8,671,1326.6,688.1,1305.5,688.1z"/>
				<path class="st16" d="M1262,688.1H788.5c-21.1,0-38.2-17.1-38.2-38.2V252.4c0-21.1,17.1-38.2,38.2-38.2H1262
					c21.1,0,38.2,17.1,38.2,38.2V650C1300.2,671,1283.1,688.1,1262,688.1z"/>
				<path class="st17" d="M1041.4,528.4h-85.3c-17,0-30.9,13.8-30.9,30.9v235.3h147V559.3C1072.3,542.3,1058.4,528.4,1041.4,528.4z"
					/>
				<rect x="855.2" y="775.4" class="st18" width="287" height="19.2"/>
				<path class="st17" d="M1223.6,623.4h-66.7c-3.7,0-6.7-3-6.7-6.7l0,0c0-3.7,3-6.7,6.7-6.7h66.7c3.7,0,6.7,3,6.7,6.7l0,0
					C1230.2,620.4,1227.3,623.4,1223.6,623.4z"/>
				<path class="st17" d="M1223.6,646.8h-66.7c-3.7,0-6.7-3-6.7-6.7l0,0c0-3.7,3-6.7,6.7-6.7h66.7c3.7,0,6.7,3,6.7,6.7l0,0
					C1230.2,643.8,1227.3,646.8,1223.6,646.8z"/>
			</g>
			<circle class="st3" cx="998.8" cy="372.1" r="55.7"/>
		</g>
	</g>
</g>
</svg>
