<?xml version="1.0" encoding="utf-8"?>
<!-- Generator: Adobe Illustrator 23.0.1, SVG Export Plug-In . SVG Version: 6.00 Build 0)  -->
<svg version="1.1" id="Layer_1" xmlns="http://www.w3.org/2000/svg" xmlns:xlink="http://www.w3.org/1999/xlink" x="0px" y="0px"
	 viewBox="0 0 321.7 321.7" style="enable-background:new 0 0 321.7 321.7;" xml:space="preserve">
<style type="text/css">
	.st0{fill:#006AEA;}
	.st1{fill:#459AFF;}
	.st2{fill:#2980FF;}
	.st3{fill:#4B314C;}
	.st4{fill:#745075;}
	.st5{fill:#FFCE00;}
	.st6{fill:#3C233D;}
	.st7{fill:#FFD15F;}
	.st8{fill:#FF875F;}
	.st9{fill:#FFF983;}
	.st10{fill:#66BAFF;}
</style>
<g>
	<path class="st0" d="M125.8,29l7.9-2.3c0,0,11.8,10.1,25.6,8.8C173.2,34.2,184,28,184,28l12.7,3.1c0,0-19.1,49.7-35.4,45.2
		C145,71.7,125.8,29,125.8,29z"/>
	<path class="st1" d="M119.8,70.7c0,0,0.3,12.6,1.7,16.4c1.4,3.7,4,10.6,4,10.6l3.2,23.8h59.1l2.6-25.4c0,0,5.2-12.2,5.2-15.9V68.5
		c0-0.9,0-1.8,0.1-2.7c0.6-6.1,3.5-29.3,6.2-33.4L184,28c0,0-10.2,32.8-28.3,29s-21.9-30.3-21.9-30.3l-19.3,5.6
		C114.4,32.3,124.1,62.7,119.8,70.7z"/>
	<path class="st2" d="M128.7,121.5h59.1c0,0,36,45.2,52.1,96.1s14.5,54.7,14.5,54.7s-43.3,21.8-79.6,13.8
		c-36.4-8-86.5,9.2-110.5-14.8C64.3,271.2,100.1,150.1,128.7,121.5z"/>
	<path class="st0" d="M212,286c13-2.3,24.7-6.3,32.4-9.4c-9.2-32.4-44.2-136.1-56.7-143.1C187.8,133.6,207,238.2,212,286z"/>
	<path class="st0" d="M175.8,130.1c0,0,31,121.7,12.1,132.1C168.9,272.5,175.8,130.1,175.8,130.1z"/>
	<path class="st0" d="M81.9,281.3c14.4,4.3,32.2,3.4,50.1,2.8c-1.2-57.3,12.2-157.5,12.2-157.5C114.3,143.5,91.8,234.2,81.9,281.3z"
		/>
	<path class="st0" d="M158.5,130.1c0,0-16.6,99.9-4.6,99.9C166,230,158.5,130.1,158.5,130.1z"/>
	<path class="st0" d="M146.6,115.1c-15-7.5-19.3-61.1-27.9-84l-4.2,1.2c0,0,9.7,30.3,5.4,38.4c0,0,0.3,12.6,1.7,16.4
		c1.4,3.7,4,10.6,4,10.6l3.2,23.8h59.1l0.7-6.9C181.7,117.2,159.7,121.6,146.6,115.1z"/>
	<g>
		<path class="st3" d="M158.2,124.3c-17.1,0-28.1-1.3-30.6-2.4l0.4-3c2,0.8,13.2,2.4,30.3,2.4c17,0,29.4-2.2,30.4-2.4l-0.1,3.1
			C187.4,122.2,175.5,124.3,158.2,124.3z"/>
	</g>
	<g>
		<path class="st4" d="M162.7,122.7c0,0.5-0.1,1-0.4,1.5c-0.7,0-1.4,0-2.2,0c-0.6,0-1.2,0-1.7,0c-0.3,0-0.5,0-0.7,0
			c-7-0.2-12.1-1.1-14.5-2c-0.7-0.3-1.1-1-0.9-1.7l0,0c0.2-0.8,1-1.3,1.8-1c2.3,0.7,7.1,1.6,13.6,1.7c0.2,0,0.5,0,0.7,0
			c0.6,0,1.1,0,1.7,0c0.7,0,1.5,0,2.2,0C162.5,121.7,162.7,122.2,162.7,122.7z"/>
		<g>
			<path class="st4" d="M162,124.2L162,124.2c-5,0.2-14.2-0.3-18.9-2c-0.7-0.3-1.1-1-0.9-1.7c0.2-0.7,0.8-1.1,1.4-1.1
				c0.1,0,0.3,0,0.4,0.1c4.8,1.5,12.6,1.9,17.9,1.8C162.9,122.1,162.9,123.2,162,124.2z"/>
			<path class="st5" d="M163.2,124.2c-1.8,3-7.6,3-9.4,0c0.5,0,0.8,0,1.3,0c0.8,0.7,2,1.2,3.4,1.2c2.3,0,3.3-1.1,3.4-1.2
				c2.6-2.9-3.4-5.8-6.6-3.1c-0.5,0-0.9,0-1.4-0.1c0.9-1.2,2.6-2,4.6-2C162.3,119.1,164.7,121.8,163.2,124.2z"/>
		</g>
		<path class="st6" d="M162.7,122.7c0,0.2-0.2,0.4-0.4,0.4s-0.4-0.2-0.4-0.4c0-0.2,0.2-0.4,0.4-0.4
			C162.5,122.3,162.7,122.5,162.7,122.7z"/>
		<path class="st7" d="M163,123.1h-0.7c-0.2,0-0.4-0.2-0.4-0.4l0,0c0-0.2,0.2-0.4,0.4-0.4h0.7c0.2,0,0.4,0.2,0.4,0.4l0,0
			C163.4,122.9,163.2,123.1,163,123.1z"/>
		<path class="st8" d="M163.4,122.7c0,0.2-0.2,0.3-0.4,0.3h-1c0.1,0.1,0.2,0.2,0.3,0.2h0.7C163.2,123.1,163.4,122.9,163.4,122.7
			L163.4,122.7z"/>
	</g>
	<path class="st9" d="M155.9,120.1c2.8-1.2,5.3-0.5,6.7,0.9c0.2,0.2-0.1,0.6-0.4,0.4l0,0C161.1,120,158.7,119.2,155.9,120.1z"/>
	<path class="st9" d="M155.9,125.7c2.8,1.1,5.3,0.5,6.7-0.9c0.2-0.2-0.1-0.6-0.4-0.3l0,0C161.1,125.8,158.8,126.6,155.9,125.7z"/>
	<path class="st10" d="M148.2,63.1c-8.3,1.1-13.1,10.1-9.4,17.6c0.1,0.1,0.1,0.2,0.2,0.3c5.8,11,41.1,18.5,48.8,6.8
		C195.3,76.4,199,56.3,148.2,63.1z"/>
</g>
</svg>
