<?xml version="1.0" encoding="utf-8"?>
<!-- Generator: Adobe Illustrator 23.0.1, SVG Export Plug-In . SVG Version: 6.00 Build 0)  -->
<svg version="1.1" id="Layer_1" xmlns="http://www.w3.org/2000/svg" xmlns:xlink="http://www.w3.org/1999/xlink" x="0px" y="0px"
	 viewBox="0 0 321.7 321.7" style="enable-background:new 0 0 321.7 321.7;" xml:space="preserve">
<style type="text/css">
	.st0{fill:#264D59;}
	.st1{fill:#0B6277;}
	.st2{fill:#0B5460;}
	.st3{fill:#0282A2;}
	.st4{fill:#378EB1;}
	.st5{fill:#0D5A72;}
	.st6{fill:#0291B4;}
	.st7{fill:#0A4756;}
	.st8{fill:#F6F9B2;}
	.st9{fill:#F6F9DF;}
	.st10{fill:#3CA6C0;}
</style>
<g>
	<polygon class="st0" points="127.7,51.5 125.2,51.1 126.4,53.4 	"/>
	<polygon class="st0" points="206.3,52.7 208.3,52.2 208.3,55.1 206.9,55.1 	"/>
	<path class="st1" d="M175.6,283.7l-11.1-137.1l-0.2,2.8l-11,134.9C161,284.3,168.5,284.1,175.6,283.7z"/>
	<path class="st2" d="M175.6,283.7l-11.1-137.1l-11.2,137.6C161,284.3,168.5,284.1,175.6,283.7z"/>
	<path class="st3" d="M175.6,291.7c31.1-1.9,54.3-7.2,54.3-7.2s-5.9-40.2-9.7-134.1c-3.8-93.9-22-120.2-22-120.2
		c-39.2,15.6-65.9,0-65.9,0s-6.4,20.6-8.7,31.7C121.2,73.9,92,284.5,92,284.5c19.9,5.7,41.4,7.7,61.3,7.9l11.2-145.8L175.6,291.7z"
		/>
	<g>
		<path class="st4" d="M204.6,44.5C204.6,44.5,204.6,44.4,204.6,44.5c-3.5-10.2-6.4-14.4-6.3-14.3c0,0,0,0,0,0
			c-39.2,15.6-65.9,0-65.9,0s-2.2,7.2-4.6,15.4C137.5,49,166.1,56.6,204.6,44.5z"/>
	</g>
	<g>
		<path class="st5" d="M127.9,45.6c3.1,1,6.2,1.8,9.4,2.4c1.6,0.4,3.2,0.6,4.8,0.9c1.6,0.2,3.2,0.5,4.8,0.7
			c6.4,0.8,12.9,1.1,19.4,0.9c6.5-0.1,12.9-0.8,19.3-1.8l4.8-0.8l4.8-1l2.4-0.5l2.4-0.6l4.7-1.2c-6.2,2-12.4,3.9-18.9,5
			c-6.4,1.2-12.9,1.9-19.4,2.1c-6.5,0.1-13.1-0.2-19.5-1.2C140.3,49.4,133.9,47.9,127.9,45.6z"/>
	</g>
	<g>
		<path class="st4" d="M204.6,44.5C204.6,44.5,204.6,44.4,204.6,44.5c-3.5-10.2-6.4-14.4-6.3-14.3c0,0,0,0,0,0
			c-41.5,13.8-65.9,0-65.9,0s-2.2,7.2-4.6,15.4C137.5,49,166.1,56.6,204.6,44.5z"/>
	</g>
	<path class="st6" d="M132.4,30.2c0,0-6.4,20.6-8.7,31.7C121.2,73.9,92,284.5,92,284.5c11.2,3.2,22.9,5.3,34.5,6.5
		c-3.4-46.1,18.2-146.9,13.1-176.4c-4.2-24.3-0.7-63.8,1.1-81.2C135.4,31.6,132.4,30.2,132.4,30.2z"/>
	<g>
		<path class="st5" d="M127.9,45.6c3.1,1,6.2,1.8,9.4,2.4c1.6,0.4,3.2,0.6,4.8,0.9c1.6,0.2,3.2,0.5,4.8,0.7
			c6.4,0.8,12.9,1.1,19.4,0.9c6.5-0.1,12.9-0.8,19.3-1.8l4.8-0.8l4.8-1l2.4-0.5l2.4-0.6l4.7-1.2c-6.2,2-12.4,3.9-18.9,5
			c-6.4,1.2-12.9,1.9-19.4,2.1c-6.5,0.1-13.1-0.2-19.5-1.2C140.3,49.4,133.9,47.9,127.9,45.6z"/>
	</g>
	<path class="st5" d="M123.7,61.8c0,0.1,0,0.1,0,0.2l20,11.4l4.9-8.7l-23.4-13.7C124.3,54.7,124.3,59,123.7,61.8z"/>
	<path class="st7" d="M146.8,63.7l-4.5,7.9l-18.5-10.5c0,0.3-0.1,0.5-0.1,0.8c0,0.1,0,0.1,0,0.2l20,11.4l4.9-8.7L146.8,63.7z"/>
	<path class="st5" d="M208.3,52.2l-21,12.5l5.1,8.6l17.5-10.5C209.6,59.1,209.1,55.2,208.3,52.2z"/>
	<path class="st7" d="M193.3,71.6l-4.6-7.7l-1.4,0.9l5.1,8.6l17.5-10.5c0-0.4-0.1-0.8-0.1-1.1L193.3,71.6z"/>
	<path class="st6" d="M191.7,137.8l6.2,152c8.1-1,15.1-2,20.4-3L191.7,137.8z"/>
	<path class="st5" d="M176.5,290.8c-0.3-5.3-2.3-37.1-10.6-144.6c0-0.1-1.8-63.1-2.7-95.1c-0.2-5.9-0.3-10.8-0.4-14h-0.2l-0.3,12
		c0,0.6,0,1.3,0,2c-0.1,24,0.8,95.1,0.8,95.3c2,31.9,9.2,115.2,11.9,146.9c0,0,38.5-4,55-8.7C229.9,284.5,187.8,291.3,176.5,290.8z"
		/>
	<g>
		<g>
			<g>
				<path class="st2" d="M175.8,53.2c-0.1,0-0.2-0.1-0.2-0.2c-0.1-0.5-0.1-1-0.2-1.5c0-0.1,0.1-0.3,0.2-0.3c0.1,0,0.3,0.1,0.3,0.2
					c0.1,0.5,0.1,1,0.2,1.5C176.1,53.1,176,53.2,175.8,53.2C175.8,53.2,175.8,53.2,175.8,53.2z"/>
			</g>
			<g>
				<path class="st2" d="M198,283.9c-0.1,0-0.2-0.1-0.2-0.2c-0.2-1-0.4-2-0.5-2.9c0-0.1,0.1-0.3,0.2-0.3c0.1,0,0.3,0.1,0.3,0.2
					c0.2,1,0.4,2,0.5,2.9C198.3,283.7,198.2,283.8,198,283.9C198.1,283.9,198.1,283.9,198,283.9z M197,278c-0.1,0-0.2-0.1-0.2-0.2
					c-0.2-1-0.3-2-0.5-2.9c0-0.1,0.1-0.3,0.2-0.3c0.1,0,0.3,0.1,0.3,0.2c0.2,1,0.3,2,0.5,2.9C197.3,277.8,197.2,278,197,278
					C197,278,197,278,197,278z M196,272.1c-0.1,0-0.2-0.1-0.2-0.2c-0.2-1-0.3-2-0.5-2.9c0-0.1,0.1-0.3,0.2-0.3
					c0.1,0,0.3,0.1,0.3,0.2c0.2,1,0.3,2,0.5,2.9C196.3,272,196.2,272.1,196,272.1C196,272.1,196,272.1,196,272.1z M195.1,266.2
					c-0.1,0-0.2-0.1-0.2-0.2c-0.1-1-0.3-2-0.4-3c0-0.1,0.1-0.3,0.2-0.3c0.1,0,0.3,0.1,0.3,0.2c0.1,1,0.3,2,0.4,3
					C195.4,266.1,195.3,266.2,195.1,266.2C195.1,266.2,195.1,266.2,195.1,266.2z M194.2,260.3c-0.1,0-0.2-0.1-0.2-0.2
					c-0.1-1-0.3-2-0.4-3c0-0.1,0.1-0.3,0.2-0.3c0.1,0,0.3,0.1,0.3,0.2c0.1,1,0.3,2,0.4,3C194.5,260.2,194.4,260.3,194.2,260.3
					C194.3,260.3,194.2,260.3,194.2,260.3z M193.4,254.4c-0.1,0-0.2-0.1-0.2-0.2c-0.1-1-0.3-2-0.4-3c0-0.1,0.1-0.3,0.2-0.3
					c0.1,0,0.3,0.1,0.3,0.2c0.1,1,0.3,2,0.4,3C193.7,254.3,193.6,254.4,193.4,254.4C193.4,254.4,193.4,254.4,193.4,254.4z
					 M192.7,248.5c-0.1,0-0.2-0.1-0.2-0.2c-0.1-1-0.2-2-0.4-3c0-0.1,0.1-0.3,0.2-0.3c0.1,0,0.3,0.1,0.3,0.2c0.1,1,0.2,2,0.4,3
					C192.9,248.3,192.8,248.5,192.7,248.5C192.7,248.5,192.7,248.5,192.7,248.5z M192,242.5c-0.1,0-0.2-0.1-0.2-0.2
					c-0.1-1-0.2-2-0.3-3c0-0.1,0.1-0.3,0.2-0.3c0.1,0,0.3,0.1,0.3,0.2c0.1,1,0.2,2,0.3,3C192.2,242.4,192.1,242.5,192,242.5
					C192,242.5,192,242.5,192,242.5z M191.3,236.6c-0.1,0-0.2-0.1-0.2-0.2c-0.1-1-0.2-2-0.3-3c0-0.1,0.1-0.3,0.2-0.3
					c0.1,0,0.3,0.1,0.3,0.2c0.1,1,0.2,2,0.3,3C191.6,236.5,191.5,236.6,191.3,236.6C191.3,236.6,191.3,236.6,191.3,236.6z
					 M190.7,230.7c-0.1,0-0.2-0.1-0.2-0.2c-0.1-1-0.2-2-0.3-3c0-0.1,0.1-0.3,0.2-0.3c0.1,0,0.3,0.1,0.3,0.2c0.1,1,0.2,2,0.3,3
					C191,230.5,190.9,230.7,190.7,230.7C190.7,230.7,190.7,230.7,190.7,230.7z M190.1,224.8c-0.1,0-0.2-0.1-0.2-0.2
					c-0.1-1-0.2-2-0.3-3c0-0.1,0.1-0.3,0.2-0.3c0.1,0,0.3,0.1,0.3,0.2c0.1,1,0.2,2,0.3,3C190.4,224.6,190.3,224.7,190.1,224.8
					C190.1,224.8,190.1,224.8,190.1,224.8z M189.6,218.8c-0.1,0-0.2-0.1-0.2-0.2c-0.1-1-0.2-2-0.3-3c0-0.1,0.1-0.3,0.2-0.3
					c0.1,0,0.3,0.1,0.3,0.2c0.1,1,0.2,2,0.3,3C189.8,218.7,189.7,218.8,189.6,218.8C189.6,218.8,189.6,218.8,189.6,218.8z
					 M189.1,212.9c-0.1,0-0.2-0.1-0.2-0.2l-0.3-3c0-0.1,0.1-0.3,0.2-0.3c0.1,0,0.3,0.1,0.3,0.2l0.3,3
					C189.3,212.7,189.2,212.9,189.1,212.9C189.1,212.9,189.1,212.9,189.1,212.9z M188.6,206.9c-0.1,0-0.2-0.1-0.2-0.2l-0.2-3
					c0-0.1,0.1-0.3,0.2-0.3c0.1,0,0.3,0.1,0.3,0.2l0.2,3C188.8,206.8,188.7,206.9,188.6,206.9C188.6,206.9,188.6,206.9,188.6,206.9z
					 M188.1,201c-0.1,0-0.2-0.1-0.2-0.2l-0.2-3c0-0.1,0.1-0.3,0.2-0.3c0.1,0,0.3,0.1,0.3,0.2l0.2,3C188.3,200.9,188.2,201,188.1,201
					C188.1,201,188.1,201,188.1,201z M187.6,195.1c-0.1,0-0.2-0.1-0.2-0.2l-0.2-3c0-0.1,0.1-0.3,0.2-0.3c0.1,0,0.3,0.1,0.3,0.2
					l0.2,3C187.9,194.9,187.8,195.1,187.6,195.1C187.6,195.1,187.6,195.1,187.6,195.1z M187.2,189.1c-0.1,0-0.2-0.1-0.2-0.2l-0.2-3
					c0-0.1,0.1-0.3,0.2-0.3c0.1,0,0.3,0.1,0.3,0.2l0.2,3C187.5,189,187.4,189.1,187.2,189.1C187.2,189.1,187.2,189.1,187.2,189.1z
					 M186.8,183.2c-0.1,0-0.2-0.1-0.2-0.2l-0.2-3c0-0.1,0.1-0.3,0.2-0.3c0.1,0,0.3,0.1,0.3,0.2l0.2,3
					C187,183.1,186.9,183.2,186.8,183.2C186.8,183.2,186.8,183.2,186.8,183.2z M186.4,177.3c-0.1,0-0.2-0.1-0.2-0.2l-0.2-3
					c0-0.1,0.1-0.3,0.2-0.3c0.1,0,0.3,0.1,0.3,0.2l0.2,3C186.6,177.1,186.5,177.3,186.4,177.3C186.4,177.3,186.4,177.3,186.4,177.3z
					 M185.9,171.3c-0.1,0-0.2-0.1-0.2-0.2l-0.2-3c0-0.1,0.1-0.3,0.2-0.3c0.1,0,0.3,0.1,0.3,0.2l0.2,3
					C186.2,171.2,186.1,171.3,185.9,171.3C186,171.3,186,171.3,185.9,171.3z M185.5,165.4c-0.1,0-0.2-0.1-0.2-0.2l-0.2-3
					c0-0.1,0.1-0.3,0.2-0.3c0.1,0,0.3,0.1,0.3,0.2l0.2,3C185.8,165.3,185.7,165.4,185.5,165.4C185.5,165.4,185.5,165.4,185.5,165.4z
					 M185.1,159.5c-0.1,0-0.2-0.1-0.2-0.2l-0.2-3c0-0.1,0.1-0.3,0.2-0.3c0.2,0,0.3,0.1,0.3,0.2l0.2,3
					C185.4,159.4,185.3,159.5,185.1,159.5C185.1,159.5,185.1,159.5,185.1,159.5z M184.7,153.6c-0.1,0-0.2-0.1-0.2-0.2l-0.2-3
					c0-0.1,0.1-0.3,0.2-0.3c0.1,0,0.3,0.1,0.3,0.2l0.2,3C185,153.4,184.9,153.6,184.7,153.6C184.7,153.6,184.7,153.6,184.7,153.6z
					 M184.3,147.6c-0.1,0-0.2-0.1-0.2-0.2l-0.2-3c0-0.1,0.1-0.3,0.2-0.3c0.1,0,0.3,0.1,0.3,0.2l0.2,3
					C184.5,147.5,184.4,147.6,184.3,147.6C184.3,147.6,184.3,147.6,184.3,147.6z M183.9,141.7c-0.1,0-0.2-0.1-0.2-0.2l-0.2-3
					c0-0.1,0.1-0.3,0.2-0.3c0.1,0,0.3,0.1,0.3,0.2l0.2,3C184.1,141.6,184,141.7,183.9,141.7C183.9,141.7,183.9,141.7,183.9,141.7z
					 M183.4,135.8c-0.1,0-0.2-0.1-0.2-0.2c-0.1-1-0.2-2-0.2-3c0-0.1,0.1-0.3,0.2-0.3c0.1,0,0.3,0.1,0.3,0.2c0.1,1,0.2,2,0.2,3
					C183.7,135.6,183.6,135.7,183.4,135.8C183.4,135.8,183.4,135.8,183.4,135.8z M182.9,129.8c-0.1,0-0.2-0.1-0.2-0.2
					c-0.1-1-0.2-2-0.2-3c0-0.1,0.1-0.3,0.2-0.3c0.1,0,0.3,0.1,0.3,0.2c0.1,1,0.1,2,0.2,3C183.2,129.7,183.1,129.8,182.9,129.8
					C182.9,129.8,182.9,129.8,182.9,129.8z M182.5,123.9c-0.1,0-0.2-0.1-0.2-0.2c-0.1-1-0.1-2-0.2-3c0-0.1,0.1-0.3,0.2-0.3
					c0.1,0,0.3,0.1,0.3,0.2c0.1,1,0.1,2,0.2,3C182.7,123.8,182.6,123.9,182.5,123.9C182.5,123.9,182.5,123.9,182.5,123.9z
					 M182.1,117.9c-0.1,0-0.2-0.1-0.2-0.2l-0.2-3c0-0.1,0.1-0.3,0.2-0.3c0.1,0,0.3,0.1,0.3,0.2l0.2,3
					C182.3,117.8,182.2,117.9,182.1,117.9C182.1,117.9,182.1,117.9,182.1,117.9z M181.7,112c-0.1,0-0.2-0.1-0.2-0.2l-0.2-3
					c0-0.1,0.1-0.3,0.2-0.3c0.1,0,0.3,0.1,0.3,0.2l0.2,3C181.9,111.9,181.8,112,181.7,112C181.7,112,181.7,112,181.7,112z
					 M181.3,106.1c-0.1,0-0.2-0.1-0.2-0.2c-0.1-1-0.1-2-0.2-3c0-0.1,0.1-0.3,0.2-0.3c0.1,0,0.3,0.1,0.3,0.2c0.1,1,0.1,2,0.2,3
					C181.5,105.9,181.4,106.1,181.3,106.1C181.3,106.1,181.3,106.1,181.3,106.1z M180.8,100.1c-0.1,0-0.2-0.1-0.2-0.2
					c-0.1-1-0.2-2-0.2-3c0-0.1,0.1-0.3,0.2-0.3c0.1,0,0.3,0.1,0.3,0.2c0.1,1,0.2,2,0.2,3C181.1,100,181,100.1,180.8,100.1
					C180.9,100.1,180.8,100.1,180.8,100.1z M180.4,94.2c-0.1,0-0.2-0.1-0.2-0.2c0-0.8-0.1-1.8-0.2-3c0-0.1,0.1-0.3,0.2-0.3
					c0.1,0,0.3,0.1,0.3,0.2c0.1,1.2,0.2,2.2,0.2,3C180.7,94.1,180.6,94.2,180.4,94.2C180.4,94.2,180.4,94.2,180.4,94.2z M180,88.2
					c-0.1,0-0.2-0.1-0.2-0.2c-0.1-0.9-0.2-1.9-0.3-3c0-0.1,0.1-0.3,0.2-0.3c0.1,0,0.3,0.1,0.3,0.2c0.1,1,0.2,2,0.3,3
					C180.2,88.1,180.1,88.2,180,88.2C180,88.2,180,88.2,180,88.2z M179.4,82.3c-0.1,0-0.2-0.1-0.2-0.2c-0.1-1-0.2-2-0.3-3
					c0-0.1,0.1-0.3,0.2-0.3c0.1,0,0.3,0.1,0.3,0.2c0.1,1,0.2,2,0.3,3C179.6,82.2,179.5,82.3,179.4,82.3
					C179.4,82.3,179.4,82.3,179.4,82.3z M178.7,76.4c-0.1,0-0.2-0.1-0.2-0.2c-0.1-1-0.2-2-0.3-3c0-0.1,0.1-0.3,0.2-0.3
					c0.1,0,0.3,0.1,0.3,0.2c0.1,1,0.2,2,0.3,3C179,76.2,178.9,76.4,178.7,76.4C178.7,76.4,178.7,76.4,178.7,76.4z M178.1,70.5
					c-0.1,0-0.2-0.1-0.2-0.2c-0.1-1-0.2-2-0.3-3c0-0.1,0.1-0.3,0.2-0.3c0.1,0,0.3,0.1,0.3,0.2c0.1,1,0.2,2,0.3,3
					C178.3,70.3,178.2,70.4,178.1,70.5C178.1,70.5,178.1,70.5,178.1,70.5z M177.3,64.5c-0.1,0-0.2-0.1-0.2-0.2c-0.1-1-0.2-2-0.4-3
					c0-0.1,0.1-0.3,0.2-0.3c0.1,0,0.3,0.1,0.3,0.2c0.1,1,0.2,2,0.4,3C177.6,64.4,177.5,64.5,177.3,64.5
					C177.4,64.5,177.4,64.5,177.3,64.5z M176.6,58.6c-0.1,0-0.2-0.1-0.2-0.2c-0.1-1-0.3-2-0.4-3c0-0.1,0.1-0.3,0.2-0.3
					c0.1,0,0.3,0.1,0.3,0.2c0.1,0.9,0.3,1.9,0.4,3C176.9,58.5,176.8,58.6,176.6,58.6C176.6,58.6,176.6,58.6,176.6,58.6z"/>
			</g>
			<g>
				<path class="st2" d="M198.9,288.2c-0.1,0-0.2-0.1-0.2-0.2l-0.3-1.5c0-0.1,0.1-0.3,0.2-0.3c0.1,0,0.3,0.1,0.3,0.2l0.3,1.5
					C199.1,288,199.1,288.1,198.9,288.2C198.9,288.2,198.9,288.2,198.9,288.2z"/>
			</g>
		</g>
		<g>
			<g>
				<path class="st2" d="M177.3,53.1c-0.1,0-0.2-0.1-0.2-0.2l-0.2-1.5c0-0.1,0.1-0.3,0.2-0.3c0.1,0,0.3,0.1,0.3,0.2l0.2,1.5
					C177.6,52.9,177.5,53,177.3,53.1C177.4,53.1,177.4,53.1,177.3,53.1z"/>
			</g>
			<g>
				<path class="st2" d="M200.7,283.2c-0.1,0-0.2-0.1-0.2-0.2c-0.2-1-0.3-1.9-0.5-2.9c0-0.1,0.1-0.3,0.2-0.3c0.1,0,0.3,0.1,0.3,0.2
					c0.1,1,0.3,2,0.5,2.9C201,283,200.9,283.1,200.7,283.2C200.8,283.2,200.8,283.2,200.7,283.2z M199.9,277.3
					c-0.1,0-0.2-0.1-0.2-0.2c-0.1-1-0.3-2-0.4-2.9c0-0.1,0.1-0.3,0.2-0.3c0.1,0,0.3,0.1,0.3,0.2c0.1,1,0.3,2,0.4,2.9
					C200.1,277.1,200,277.2,199.9,277.3C199.9,277.3,199.9,277.3,199.9,277.3z M199.1,271.4c-0.1,0-0.2-0.1-0.2-0.2
					c-0.1-1-0.3-2-0.4-3c0-0.1,0.1-0.3,0.2-0.3c0.1,0,0.3,0.1,0.3,0.2c0.1,1,0.3,2,0.4,2.9C199.3,271.2,199.2,271.4,199.1,271.4
					C199.1,271.4,199.1,271.4,199.1,271.4z M198.3,265.5c-0.1,0-0.2-0.1-0.2-0.2c-0.1-1-0.2-2-0.4-3c0-0.1,0.1-0.3,0.2-0.3
					c0.1,0,0.3,0.1,0.3,0.2c0.1,1,0.2,2,0.4,3C198.6,265.3,198.5,265.5,198.3,265.5C198.3,265.5,198.3,265.5,198.3,265.5z
					 M197.6,259.6c-0.1,0-0.2-0.1-0.2-0.2c-0.1-1-0.2-2-0.3-3c0-0.1,0.1-0.3,0.2-0.3c0.1,0,0.3,0.1,0.3,0.2c0.1,1,0.2,2,0.3,3
					C197.9,259.4,197.8,259.5,197.6,259.6C197.6,259.6,197.6,259.6,197.6,259.6z M196.9,253.7c-0.1,0-0.2-0.1-0.2-0.2l-0.3-3
					c0-0.1,0.1-0.3,0.2-0.3c0.1,0,0.3,0.1,0.3,0.2l0.3,3C197.2,253.5,197.1,253.6,196.9,253.7C196.9,253.7,196.9,253.7,196.9,253.7z
					 M196.3,247.8c-0.1,0-0.2-0.1-0.2-0.2l-0.3-3c0-0.1,0.1-0.3,0.2-0.3c0.1,0,0.3,0.1,0.3,0.2l0.3,3
					C196.5,247.6,196.4,247.7,196.3,247.8C196.3,247.8,196.3,247.8,196.3,247.8z M195.6,241.8c-0.1,0-0.2-0.1-0.2-0.2l-0.3-3
					c0-0.1,0.1-0.3,0.2-0.3c0.1,0,0.3,0.1,0.3,0.2l0.3,3C195.9,241.7,195.8,241.8,195.6,241.8C195.6,241.8,195.6,241.8,195.6,241.8z
					 M194.9,235.9c-0.1,0-0.2-0.1-0.2-0.2c-0.1-1-0.2-2-0.3-3c0-0.1,0.1-0.3,0.2-0.3c0.1,0,0.3,0.1,0.3,0.2c0.1,1,0.2,2,0.3,3
					C195.2,235.8,195.1,235.9,194.9,235.9C195,235.9,194.9,235.9,194.9,235.9z M194.2,230c-0.1,0-0.2-0.1-0.2-0.2
					c-0.1-1-0.2-2-0.3-3c0-0.1,0.1-0.3,0.2-0.3c0.1,0,0.3,0.1,0.3,0.2c0.1,1,0.2,2,0.3,3C194.5,229.9,194.4,230,194.2,230
					C194.3,230,194.3,230,194.2,230z M193.6,224.1c-0.1,0-0.2-0.1-0.2-0.2c-0.1-1-0.2-2-0.3-3c0-0.1,0.1-0.3,0.2-0.3
					c0.1,0,0.3,0.1,0.3,0.2c0.1,1,0.2,2,0.3,3C193.8,224,193.7,224.1,193.6,224.1C193.6,224.1,193.6,224.1,193.6,224.1z
					 M192.9,218.2c-0.1,0-0.2-0.1-0.2-0.2c-0.1-1-0.2-2-0.3-3c0-0.1,0.1-0.3,0.2-0.3c0.1,0,0.3,0.1,0.3,0.2c0.1,1,0.2,2,0.3,3
					C193.2,218.1,193.1,218.2,192.9,218.2C192.9,218.2,192.9,218.2,192.9,218.2z M192.3,212.3c-0.1,0-0.2-0.1-0.2-0.2
					c-0.1-1-0.2-2-0.3-3c0-0.1,0.1-0.3,0.2-0.3c0.1,0,0.3,0.1,0.3,0.2c0.1,1,0.2,2,0.3,3C192.6,212.2,192.5,212.3,192.3,212.3
					C192.3,212.3,192.3,212.3,192.3,212.3z M191.7,206.4c-0.1,0-0.2-0.1-0.2-0.2l-0.3-3c0-0.1,0.1-0.3,0.2-0.3
					c0.1,0,0.3,0.1,0.3,0.2l0.3,3C191.9,206.2,191.8,206.4,191.7,206.4C191.7,206.4,191.7,206.4,191.7,206.4z M191.1,200.5
					c-0.1,0-0.2-0.1-0.2-0.2l-0.3-3c0-0.1,0.1-0.3,0.2-0.3c0.1,0,0.3,0.1,0.3,0.2l0.3,3C191.4,200.3,191.3,200.4,191.1,200.5
					C191.1,200.5,191.1,200.5,191.1,200.5z M190.5,194.5c-0.1,0-0.2-0.1-0.2-0.2l-0.3-3c0-0.1,0.1-0.3,0.2-0.3
					c0.1,0,0.3,0.1,0.3,0.2l0.3,3C190.8,194.4,190.7,194.5,190.5,194.5C190.6,194.5,190.6,194.5,190.5,194.5z M190,188.6
					c-0.1,0-0.2-0.1-0.2-0.2l-0.3-3c0-0.1,0.1-0.3,0.2-0.3c0.1,0,0.3,0.1,0.3,0.2l0.3,3C190.3,188.5,190.2,188.6,190,188.6
					C190,188.6,190,188.6,190,188.6z M189.5,182.7c-0.1,0-0.2-0.1-0.2-0.2l-0.3-3c0-0.1,0.1-0.3,0.2-0.3c0.1,0,0.3,0.1,0.3,0.2
					l0.3,3C189.7,182.6,189.6,182.7,189.5,182.7C189.5,182.7,189.5,182.7,189.5,182.7z M189,176.8c-0.1,0-0.2-0.1-0.2-0.2l-0.3-3
					c0-0.1,0.1-0.3,0.2-0.3c0.1,0,0.3,0.1,0.3,0.2l0.3,3C189.2,176.6,189.1,176.8,189,176.8C189,176.8,189,176.8,189,176.8z
					 M188.5,170.8c-0.1,0-0.2-0.1-0.2-0.2l-0.2-3c0-0.1,0.1-0.3,0.2-0.3c0.1,0,0.3,0.1,0.3,0.2l0.2,3
					C188.7,170.7,188.6,170.8,188.5,170.8C188.5,170.8,188.5,170.8,188.5,170.8z M188,164.9c-0.1,0-0.2-0.1-0.2-0.2l-0.2-3
					c0-0.1,0.1-0.3,0.2-0.3c0.1,0,0.3,0.1,0.3,0.2l0.2,3C188.2,164.8,188.1,164.9,188,164.9C188,164.9,188,164.9,188,164.9z
					 M187.5,159c-0.1,0-0.2-0.1-0.2-0.2l-0.2-3c0-0.1,0.1-0.3,0.2-0.3c0.1,0,0.3,0.1,0.3,0.2l0.2,3C187.8,158.9,187.7,159,187.5,159
					C187.5,159,187.5,159,187.5,159z M187,153.1c-0.1,0-0.2-0.1-0.2-0.2l-0.2-3c0-0.1,0.1-0.3,0.2-0.3c0.1,0,0.3,0.1,0.3,0.2l0.2,3
					C187.3,152.9,187.2,153.1,187,153.1C187,153.1,187,153.1,187,153.1z M186.6,147.1c-0.1,0-0.2-0.1-0.2-0.2l-0.2-3
					c0-0.1,0.1-0.3,0.2-0.3c0.1,0,0.3,0.1,0.3,0.2l0.2,3C186.8,147,186.7,147.1,186.6,147.1C186.6,147.1,186.6,147.1,186.6,147.1z
					 M186.1,141.2c-0.1,0-0.2-0.1-0.2-0.2l-0.2-3c0-0.1,0.1-0.3,0.2-0.3c0.1,0,0.3,0.1,0.3,0.2l0.2,3
					C186.4,141.1,186.3,141.2,186.1,141.2C186.1,141.2,186.1,141.2,186.1,141.2z M185.6,135.3c-0.1,0-0.2-0.1-0.2-0.2l-0.2-3
					c0-0.1,0.1-0.3,0.2-0.3c0.1,0,0.3,0.1,0.3,0.2l0.2,3C185.9,135.1,185.8,135.3,185.6,135.3C185.6,135.3,185.6,135.3,185.6,135.3z
					 M185.1,129.3c-0.1,0-0.2-0.1-0.2-0.2l-0.3-3c0-0.1,0.1-0.3,0.2-0.3c0.1,0,0.3,0.1,0.3,0.2l0.3,3
					C185.4,129.2,185.3,129.3,185.1,129.3C185.1,129.3,185.1,129.3,185.1,129.3z M184.6,123.4c-0.1,0-0.2-0.1-0.2-0.2l-0.3-3
					c0-0.1,0.1-0.3,0.2-0.3c0.1,0,0.3,0.1,0.3,0.2l0.3,3C184.8,123.3,184.7,123.4,184.6,123.4C184.6,123.4,184.6,123.4,184.6,123.4z
					 M184,117.5c-0.1,0-0.2-0.1-0.2-0.2l-0.3-3c0-0.1,0.1-0.3,0.2-0.3c0.1,0,0.3,0.1,0.3,0.2l0.3,3
					C184.3,117.3,184.2,117.5,184,117.5C184.1,117.5,184,117.5,184,117.5z M183.5,111.6c-0.1,0-0.2-0.1-0.2-0.2l-0.3-3
					c0-0.1,0.1-0.3,0.2-0.3c0.1,0,0.3,0.1,0.3,0.2l0.3,3C183.7,111.4,183.6,111.5,183.5,111.6C183.5,111.6,183.5,111.6,183.5,111.6z
					 M182.9,105.6c-0.1,0-0.2-0.1-0.2-0.2l-0.3-3c0-0.1,0.1-0.3,0.2-0.3c0.1,0,0.3,0.1,0.3,0.2l0.3,3
					C183.2,105.5,183.1,105.6,182.9,105.6C182.9,105.6,182.9,105.6,182.9,105.6z M182.3,99.7c-0.1,0-0.2-0.1-0.2-0.2l-0.3-3
					c0-0.1,0.1-0.3,0.2-0.3c0.1,0,0.3,0.1,0.3,0.2l0.3,3C182.6,99.6,182.5,99.7,182.3,99.7C182.3,99.7,182.3,99.7,182.3,99.7z
					 M181.7,93.8c-0.1,0-0.2-0.1-0.2-0.2l-0.3-3c0-0.1,0.1-0.3,0.2-0.3c0.1,0,0.3,0.1,0.3,0.2l0.3,3C182,93.7,181.9,93.8,181.7,93.8
					C181.8,93.8,181.7,93.8,181.7,93.8z M181.1,87.9c-0.1,0-0.2-0.1-0.2-0.2l-0.3-3c0-0.1,0.1-0.3,0.2-0.3c0.1,0,0.3,0.1,0.3,0.2
					l0.3,3C181.4,87.7,181.3,87.9,181.1,87.9C181.1,87.9,181.1,87.9,181.1,87.9z M180.5,82c-0.1,0-0.2-0.1-0.2-0.2l-0.3-3
					c0-0.1,0.1-0.3,0.2-0.3c0.1,0,0.3,0.1,0.3,0.2l0.3,3C180.8,81.8,180.7,81.9,180.5,82C180.5,82,180.5,82,180.5,82z M179.9,76.1
					c-0.1,0-0.2-0.1-0.2-0.2l-0.3-3c0-0.1,0.1-0.3,0.2-0.3c0.1,0,0.3,0.1,0.3,0.2l0.3,3C180.2,75.9,180.1,76,179.9,76.1
					C179.9,76.1,179.9,76.1,179.9,76.1z M179.3,70.2c-0.1,0-0.2-0.1-0.2-0.2l-0.3-3c0-0.1,0.1-0.3,0.2-0.3c0.1,0,0.3,0.1,0.3,0.2
					l0.3,3C179.5,70,179.4,70.1,179.3,70.2C179.3,70.2,179.3,70.2,179.3,70.2z M178.6,64.2c-0.1,0-0.2-0.1-0.2-0.2l-0.3-3
					c0-0.1,0.1-0.3,0.2-0.3c0.1,0,0.3,0.1,0.3,0.2l0.3,3C178.9,64.1,178.8,64.2,178.6,64.2C178.6,64.2,178.6,64.2,178.6,64.2z
					 M178,58.3c-0.1,0-0.2-0.1-0.2-0.2l-0.3-2.9c0-0.1,0.1-0.3,0.2-0.3c0.1,0,0.3,0.1,0.3,0.2l0.3,2.9
					C178.3,58.2,178.2,58.3,178,58.3C178,58.3,178,58.3,178,58.3z"/>
			</g>
			<g>
				<path class="st2" d="M201.5,287.5c-0.1,0-0.2-0.1-0.2-0.2c-0.1-0.5-0.2-1-0.3-1.5c0-0.1,0.1-0.3,0.2-0.3c0.1,0,0.3,0.1,0.3,0.2
					c0.1,0.5,0.2,1,0.3,1.5C201.8,287.4,201.7,287.5,201.5,287.5C201.5,287.5,201.5,287.5,201.5,287.5z"/>
			</g>
		</g>
	</g>
	<g>
		<g>
			<g>
				<path class="st2" d="M151,53.1c0.1-0.5,0.1-1,0.2-1.5c0-0.3,0.5-0.3,0.5,0.1c-0.1,0.5-0.1,1-0.2,1.5
					C151.4,53.5,151,53.5,151,53.1z"/>
			</g>
			<g>
				<path class="st2" d="M133.4,284.2c0.2-1,0.3-2,0.5-2.9c0.1-0.3,0.5-0.2,0.5,0.1c-0.2,1-0.3,2-0.5,2.9
					C133.9,284.6,133.4,284.5,133.4,284.2z M134.4,278.3c0.2-1,0.3-2,0.4-2.9c0-0.3,0.5-0.3,0.5,0.1c-0.1,1-0.3,2-0.4,2.9
					C134.8,278.7,134.3,278.6,134.4,278.3z M135.2,272.4c0.1-1,0.3-2,0.4-2.9c0-0.3,0.5-0.3,0.5,0.1c-0.1,1-0.3,2-0.4,3
					C135.7,272.8,135.2,272.7,135.2,272.4z M136,266.5c0.1-1,0.3-2,0.4-3c0-0.3,0.5-0.3,0.5,0.1c-0.1,1-0.3,2-0.4,3
					C136.5,266.9,136,266.9,136,266.5z M136.8,260.6c0.1-1,0.2-2,0.3-3c0-0.3,0.5-0.3,0.5,0.1c-0.1,1-0.2,2-0.4,3
					C137.2,261,136.7,260.9,136.8,260.6z M137.7,254.9C137.7,254.9,137.7,254.9,137.7,254.9c-0.2,0-0.3-0.1-0.2-0.3
					c0.1-1,0.2-2,0.3-3c0-0.1,0.1-0.2,0.3-0.2c0.1,0,0.2,0.1,0.2,0.3c-0.1,1-0.2,2-0.3,3C137.9,254.8,137.8,254.9,137.7,254.9z
					 M138.3,249C138.3,249,138.3,249,138.3,249c-0.2,0-0.3-0.1-0.2-0.3c0.1-1,0.2-2,0.3-3c0-0.1,0.1-0.2,0.3-0.2
					c0.1,0,0.2,0.1,0.2,0.3c-0.1,1-0.2,2-0.3,3C138.6,248.9,138.5,249,138.3,249z M138.9,243.1C138.9,243.1,138.9,243.1,138.9,243.1
					c-0.2,0-0.3-0.1-0.2-0.3c0.1-1,0.2-2,0.3-3c0-0.3,0.5-0.3,0.5,0c-0.1,1-0.2,2-0.3,3C139.2,243,139.1,243.1,138.9,243.1z
					 M139.5,237.1C139.5,237.1,139.5,237.1,139.5,237.1c-0.2,0-0.3-0.1-0.2-0.3c0.1-1,0.2-2,0.3-3c0-0.3,0.5-0.3,0.5,0
					c-0.1,1-0.2,2-0.3,3C139.7,237,139.6,237.1,139.5,237.1z M140,231.2C140,231.2,140,231.2,140,231.2c-0.2,0-0.3-0.1-0.2-0.3
					c0.1-1,0.2-2,0.2-3c0-0.3,0.5-0.3,0.5,0c-0.1,1-0.2,2-0.2,3C140.2,231.1,140.1,231.2,140,231.2z M140.4,225.2
					C140.4,225.2,140.4,225.2,140.4,225.2c-0.2,0-0.3-0.1-0.3-0.3c0.1-1,0.1-2,0.2-3c0-0.3,0.5-0.3,0.5,0c-0.1,1-0.1,2-0.2,3
					C140.7,225.1,140.6,225.2,140.4,225.2z M140.9,219.3C140.9,219.3,140.8,219.3,140.9,219.3c-0.2,0-0.3-0.1-0.2-0.3
					c0.1-1,0.1-2,0.2-3c0-0.4,0.5-0.3,0.5,0c-0.1,1-0.1,2-0.2,3C141.1,219.2,141,219.3,140.9,219.3z M141.3,213.3
					C141.3,213.3,141.3,213.3,141.3,213.3c-0.2,0-0.3-0.1-0.2-0.3l0.2-3c0-0.3,0.5-0.3,0.5,0l-0.2,3
					C141.5,213.2,141.4,213.3,141.3,213.3z M141.6,207.4C141.6,207.4,141.6,207.4,141.6,207.4c-0.2,0-0.3-0.1-0.2-0.3
					c0.3-2.8,0-3.2,0.4-3.2c0.1,0,0.2,0.1,0.2,0.3l-0.2,3C141.9,207.3,141.8,207.4,141.6,207.4z M142,201.5
					C142,201.5,142,201.5,142,201.5c-0.2,0-0.3-0.1-0.2-0.3l0.2-3c0-0.3,0.5-0.3,0.5,0l-0.2,3C142.2,201.4,142.1,201.5,142,201.5z
					 M142.3,195.5C142.3,195.5,142.3,195.5,142.3,195.5c-0.2,0-0.3-0.1-0.2-0.3l0.2-3c0-0.3,0.5-0.3,0.5,0l-0.2,3
					C142.6,195.4,142.5,195.5,142.3,195.5z M142.7,189.6C142.6,189.6,142.6,189.6,142.7,189.6c-0.2,0-0.3-0.1-0.2-0.3l0.2-3
					c0-0.3,0.5-0.3,0.5,0l-0.2,3C142.9,189.5,142.8,189.6,142.7,189.6z M143,183.6C143,183.6,143,183.6,143,183.6
					c-0.2,0-0.3-0.1-0.2-0.3l0.2-3c0-0.3,0.5-0.3,0.5,0l-0.2,3C143.2,183.5,143.1,183.6,143,183.6z M143.3,177.7
					C143.3,177.7,143.3,177.7,143.3,177.7c-0.2,0-0.3-0.1-0.2-0.3l0.1-3c0-0.3,0.5-0.3,0.5,0l-0.1,3
					C143.5,177.6,143.4,177.7,143.3,177.7z M143.6,171.8C143.6,171.8,143.5,171.8,143.6,171.8c-0.1,0-0.3-0.1-0.2-0.3l0.1-3
					c0-0.3,0.5-0.3,0.5,0l-0.1,3C143.8,171.7,143.7,171.8,143.6,171.8z M143.8,165.8C143.8,165.8,143.8,165.8,143.8,165.8
					c-0.2,0-0.3-0.1-0.2-0.3l0.1-3c0-0.3,0.5-0.3,0.5,0l-0.1,3C144.1,165.7,144,165.8,143.8,165.8z M144.1,159.9
					C144.1,159.9,144.1,159.9,144.1,159.9c-0.2,0-0.3-0.1-0.2-0.3l0.1-3c0-0.3,0.5-0.3,0.5,0l-0.1,3
					C144.4,159.8,144.3,159.9,144.1,159.9z M144.4,154C144.4,154,144.4,154,144.4,154c-0.2,0-0.3-0.1-0.2-0.3l0.2-3
					c0-0.3,0.5-0.3,0.5,0l-0.2,3C144.7,153.9,144.6,154,144.4,154z M144.7,148C144.7,148,144.7,148,144.7,148
					c-0.2,0-0.3-0.1-0.2-0.3l0.2-3c0-0.3,0.5-0.3,0.5,0l-0.2,3C145,147.9,144.9,148,144.7,148z M145.1,142.1
					C145.1,142.1,145.1,142.1,145.1,142.1c-0.2,0-0.3-0.1-0.2-0.3l0.2-3c0-0.3,0.5-0.3,0.5,0l-0.2,3
					C145.3,142,145.2,142.1,145.1,142.1z M145.4,136.1C145.4,136.1,145.4,136.1,145.4,136.1c-0.2,0-0.3-0.1-0.2-0.3
					c0.1-1,0.1-2,0.2-3c0-0.3,0.5-0.3,0.5,0c-0.1,1-0.1,2-0.2,3C145.6,136,145.5,136.1,145.4,136.1z M145.8,130.2
					C145.8,130.2,145.7,130.2,145.8,130.2c-0.2,0-0.3-0.1-0.2-0.3c0.1-1,0.1-2,0.2-3c0-0.3,0.5-0.3,0.5,0c-0.1,1-0.1,2-0.2,3
					C146,130.1,145.9,130.2,145.8,130.2z M146.1,124.2C146.1,124.2,146.1,124.2,146.1,124.2c-0.2,0-0.3-0.1-0.2-0.3
					c0.1-1,0.1-2,0.1-3c0-0.3,0.5-0.3,0.5,0c0,1-0.1,2-0.1,3C146.3,124.1,146.2,124.2,146.1,124.2z M146.4,118.3
					C146.4,118.3,146.4,118.3,146.4,118.3c-0.1,0-0.3-0.1-0.2-0.3l0.1-3c0-0.3,0.5-0.3,0.5,0l-0.1,3
					C146.6,118.2,146.5,118.3,146.4,118.3z M146.7,112.3C146.7,112.3,146.6,112.3,146.7,112.3c-0.1,0-0.3-0.1-0.2-0.3l0.1-3
					c0-0.3,0.5-0.3,0.5,0l-0.1,3C146.9,112.2,146.8,112.3,146.7,112.3z M146.9,106.4C146.9,106.4,146.9,106.4,146.9,106.4
					c-0.2,0-0.3-0.1-0.2-0.3c0-1,0.1-2,0.2-3c0-0.3,0.5-0.3,0.5,0c-0.1,1-0.1,2-0.2,3C147.2,106.3,147.1,106.4,146.9,106.4z
					 M147.3,100.5C147.3,100.5,147.2,100.5,147.3,100.5c-0.2,0-0.3-0.1-0.2-0.3c0.1-1,0.1-2,0.2-3c0-0.3,0.5-0.3,0.5,0
					c-0.1,1-0.1,2-0.2,3C147.5,100.3,147.4,100.5,147.3,100.5z M147.5,94.5C147.5,94.5,147.5,94.5,147.5,94.5
					c-0.1,0-0.3-0.1-0.3-0.3c0-0.8,0.1-1.8,0.2-3c0-0.3,0.5-0.3,0.5,0c-0.1,1.2-0.1,2.2-0.2,3C147.8,94.4,147.7,94.5,147.5,94.5z
					 M147.9,88.6C147.9,88.6,147.9,88.6,147.9,88.6c-0.2,0-0.3-0.1-0.3-0.3c0.1-0.9,0.1-1.9,0.2-3c0-0.3,0.5-0.3,0.5,0
					c-0.1,1-0.2,2-0.2,3C148.1,88.5,148,88.6,147.9,88.6z M148.4,82.6C148.4,82.6,148.4,82.6,148.4,82.6c-0.2,0-0.3-0.1-0.2-0.3
					c0.1-1,0.2-2,0.3-3c0-0.3,0.5-0.3,0.5,0c-0.1,1-0.2,2-0.3,3C148.6,82.5,148.5,82.6,148.4,82.6z M148.9,76.7
					C148.9,76.7,148.9,76.7,148.9,76.7c-0.2,0-0.3-0.1-0.2-0.3c0.1-1,0.2-2,0.3-3c0-0.3,0.5-0.3,0.5,0c-0.1,1-0.2,2-0.3,3
					C149.1,76.6,149,76.7,148.9,76.7z M149.5,70.7C149.5,70.7,149.4,70.7,149.5,70.7c-0.2,0-0.3-0.1-0.2-0.3c0.1-1,0.2-2,0.3-3
					c0-0.3,0.5-0.3,0.5,0c-0.1,1-0.2,2-0.3,3C149.7,70.6,149.6,70.7,149.5,70.7z M150.1,64.8C150,64.8,150,64.8,150.1,64.8
					c-0.2,0-0.3-0.1-0.2-0.3c0.1-1,0.2-2,0.3-3c0-0.3,0.5-0.3,0.5,0.1c-0.1,1-0.2,2-0.3,3C150.3,64.7,150.2,64.8,150.1,64.8z
					 M150.7,58.9C150.7,58.9,150.7,58.9,150.7,58.9c-0.2,0-0.3-0.1-0.2-0.3c0.1-1,0.2-2,0.3-3c0-0.3,0.5-0.3,0.5,0.1
					c-0.1,0.9-0.2,1.9-0.3,3C150.9,58.8,150.8,58.9,150.7,58.9z"/>
			</g>
			<g>
				<path class="st2" d="M132.9,288.8c-0.1,0-0.2-0.2-0.2-0.3l0.3-1.5c0.1-0.3,0.5-0.2,0.5,0.1l-0.3,1.5
					C133.1,288.7,133,288.8,132.9,288.8z"/>
			</g>
		</g>
		<g>
			<g>
				<path class="st2" d="M149.7,53.1C149.7,53.1,149.7,53.1,149.7,53.1c-0.2,0-0.3-0.1-0.2-0.3l0.1-1.5c0-0.3,0.5-0.3,0.5,0
					l-0.1,1.5C150,53,149.9,53.1,149.7,53.1z"/>
			</g>
			<g>
				<path class="st2" d="M130.7,283.6c0.1-1,0.3-2,0.4-2.9c0-0.3,0.5-0.3,0.5,0.1c-0.1,1-0.3,2-0.4,2.9
					C131.2,283.9,130.7,283.9,130.7,283.6z M131.5,277.7c0.1-1,0.2-2,0.4-3c0-0.3,0.5-0.3,0.5,0.1c-0.1,1-0.2,2-0.4,3
					C131.9,278,131.4,278,131.5,277.7z M132.4,272C132.4,272,132.4,272,132.4,272c-0.2,0-0.3-0.1-0.2-0.3c0.1-1,0.2-2,0.3-3
					c0-0.3,0.5-0.3,0.5,0.1c-0.1,1-0.2,2-0.3,3C132.6,271.9,132.5,272,132.4,272z M133,266.1C133,266.1,133,266.1,133,266.1
					c-0.2,0-0.3-0.1-0.2-0.3c0.1-1,0.2-2,0.3-3c0-0.3,0.5-0.3,0.5,0c-0.1,1-0.2,2-0.3,3C133.3,266,133.2,266.1,133,266.1z
					 M133.6,260.2C133.6,260.2,133.6,260.2,133.6,260.2c-0.2,0-0.3-0.1-0.2-0.3c0.1-1,0.2-2,0.3-3c0-0.3,0.5-0.3,0.5,0
					c-0.1,1-0.2,2-0.3,3C133.9,260.1,133.8,260.2,133.6,260.2z M134.2,254.3C134.2,254.3,134.2,254.3,134.2,254.3
					c-0.2,0-0.3-0.1-0.2-0.3l0.3-3c0-0.3,0.5-0.3,0.5,0l-0.3,3C134.4,254.2,134.3,254.3,134.2,254.3z M134.7,248.4
					C134.7,248.4,134.7,248.4,134.7,248.4c-0.2,0-0.3-0.1-0.2-0.3l0.3-3c0-0.1,0.1-0.2,0.3-0.2c0.1,0,0.2,0.1,0.2,0.3l-0.3,3
					C135,248.3,134.9,248.4,134.7,248.4z M135.3,242.4C135.3,242.4,135.3,242.4,135.3,242.4c-0.2,0-0.3-0.1-0.2-0.3l0.3-3
					c0-0.3,0.5-0.3,0.5,0l-0.3,3C135.5,242.3,135.4,242.4,135.3,242.4z M135.8,236.5C135.8,236.5,135.8,236.5,135.8,236.5
					c-0.2,0-0.3-0.1-0.2-0.3c0.1-1,0.2-2,0.3-3c0-0.3,0.5-0.3,0.5,0c-0.1,1-0.2,2-0.3,3C136.1,236.4,136,236.5,135.8,236.5z
					 M136.4,230.6C136.4,230.6,136.4,230.6,136.4,230.6c-0.2,0-0.3-0.1-0.2-0.3c0.1-1,0.2-2,0.3-3c0-0.3,0.5-0.3,0.5,0
					c-0.1,1-0.2,2-0.3,3C136.6,230.5,136.5,230.6,136.4,230.6z M137,224.7C137,224.7,137,224.7,137,224.7c-0.2,0-0.3-0.1-0.2-0.3
					c0.1-1,0.2-2,0.3-3c0-0.3,0.5-0.3,0.5,0c-0.1,1-0.2,2-0.3,3C137.2,224.6,137.1,224.7,137,224.7z M137.5,218.8
					C137.5,218.8,137.5,218.8,137.5,218.8c-0.2,0-0.3-0.1-0.2-0.3l0.3-3c0-0.3,0.5-0.3,0.5,0l-0.3,3
					C137.7,218.7,137.6,218.8,137.5,218.8z M138,212.8C138,212.8,138,212.8,138,212.8c-0.2,0-0.3-0.1-0.2-0.3l0.2-3
					c0-0.3,0.5-0.3,0.5,0l-0.2,3C138.3,212.7,138.1,212.8,138,212.8z M138.5,206.9C138.5,206.9,138.5,206.9,138.5,206.9
					c-0.2,0-0.3-0.1-0.2-0.3l0.2-3c0-0.1,0.1-0.2,0.3-0.2c0.1,0,0.2,0.1,0.2,0.3l-0.2,3C138.7,206.8,138.6,206.9,138.5,206.9z
					 M139,201C139,201,139,201,139,201c-0.2,0-0.3-0.1-0.3-0.3l0.2-3c0-0.3,0.5-0.3,0.5,0l-0.2,3C139.2,200.9,139.1,201,139,201z
					 M139.4,195C139.4,195,139.4,195,139.4,195c-0.2,0-0.3-0.1-0.3-0.3l0.2-3c0-0.3,0.5-0.3,0.5,0l-0.2,3
					C139.7,194.9,139.5,195,139.4,195z M139.8,189.1C139.8,189.1,139.8,189.1,139.8,189.1c-0.2,0-0.3-0.1-0.3-0.3l0.2-3
					c0-0.3,0.5-0.3,0.5,0l-0.2,3C140.1,189,140,189.1,139.8,189.1z M140.2,183.2C140.2,183.2,140.2,183.2,140.2,183.2
					c-0.2,0-0.3-0.1-0.3-0.3l0.2-3c0-0.4,0.5-0.3,0.5,0l-0.2,3C140.5,183.1,140.4,183.2,140.2,183.2z M140.6,177.2
					C140.6,177.2,140.6,177.2,140.6,177.2c-0.2,0-0.3-0.1-0.2-0.3l0.2-3c0-0.3,0.5-0.3,0.5,0l-0.2,3
					C140.9,177.1,140.8,177.2,140.6,177.2z M141,171.3C141,171.3,141,171.3,141,171.3c-0.2,0-0.3-0.1-0.3-0.3l0.2-3
					c0-0.3,0.5-0.3,0.5,0l-0.2,3C141.3,171.2,141.2,171.3,141,171.3z M141.4,165.4C141.4,165.4,141.4,165.4,141.4,165.4
					c-0.2,0-0.3-0.1-0.2-0.3l0.2-3c0-0.3,0.5-0.3,0.5,0l-0.2,3C141.6,165.3,141.5,165.4,141.4,165.4z M141.8,159.4
					C141.8,159.4,141.8,159.4,141.8,159.4c-0.2,0-0.3-0.1-0.2-0.3l0.2-3c0-0.3,0.5-0.3,0.5,0l-0.2,3
					C142,159.3,141.9,159.4,141.8,159.4z M142.1,153.5C142.1,153.5,142.1,153.5,142.1,153.5c-0.2,0-0.3-0.1-0.3-0.3l0.2-3
					c0-0.3,0.5-0.3,0.5,0l-0.2,3C142.4,153.4,142.2,153.5,142.1,153.5z M142.5,147.6C142.5,147.6,142.5,147.6,142.5,147.6
					c-0.2,0-0.3-0.1-0.2-0.3l0.2-3c0-0.3,0.5-0.3,0.5,0l-0.2,3C142.7,147.5,142.6,147.6,142.5,147.6z M142.8,141.6
					C142.8,141.6,142.8,141.6,142.8,141.6c-0.2,0-0.3-0.1-0.2-0.3c0.1-1,0.1-2,0.2-3c0-0.3,0.5-0.3,0.5,0c-0.1,1-0.1,2-0.2,3
					C143.1,141.5,142.9,141.6,142.8,141.6z M143.2,135.7C143.2,135.7,143.2,135.7,143.2,135.7c-0.2,0-0.3-0.1-0.2-0.3l0.2-3
					c0-0.3,0.5-0.3,0.5,0l-0.2,3C143.4,135.6,143.3,135.7,143.2,135.7z M143.6,129.7C143.6,129.7,143.6,129.7,143.6,129.7
					c-0.2,0-0.3-0.1-0.2-0.3l0.2-3c0-0.3,0.5-0.3,0.5,0l-0.2,3C143.8,129.6,143.7,129.7,143.6,129.7z M144,123.8
					C144,123.8,144,123.8,144,123.8c-0.2,0-0.3-0.1-0.2-0.3l0.2-3c0-0.3,0.5-0.3,0.5,0l-0.2,3C144.2,123.7,144.1,123.8,144,123.8z
					 M144.4,117.9C144.4,117.9,144.4,117.9,144.4,117.9c-0.2,0-0.3-0.1-0.3-0.3l0.2-3c0-0.3,0.5-0.3,0.5,0l-0.2,3
					C144.6,117.8,144.5,117.9,144.4,117.9z M144.8,111.9C144.8,111.9,144.8,111.9,144.8,111.9c-0.2,0-0.3-0.1-0.3-0.3l0.2-3
					c0-0.3,0.5-0.3,0.5,0l-0.2,3C145.1,111.8,145,111.9,144.8,111.9z M145.3,106C145.3,106,145.3,106,145.3,106
					c-0.2,0-0.3-0.1-0.2-0.3l0.2-3c0-0.3,0.5-0.3,0.5,0l-0.2,3C145.5,105.9,145.4,106,145.3,106z M145.8,100.1
					C145.8,100.1,145.7,100.1,145.8,100.1c-0.2,0-0.3-0.1-0.2-0.3l0.2-3c0-0.3,0.5-0.3,0.5,0l-0.2,3
					C146,100,145.9,100.1,145.8,100.1z M146.2,94.1C146.2,94.1,146.2,94.1,146.2,94.1c-0.2,0-0.3-0.1-0.2-0.3l0.2-3
					c0-0.3,0.5-0.3,0.5,0l-0.2,3C146.5,94,146.4,94.1,146.2,94.1z M146.7,88.2C146.7,88.2,146.7,88.2,146.7,88.2
					c-0.2,0-0.3-0.1-0.2-0.3l0.2-3c0-0.3,0.5-0.3,0.5,0l-0.2,3C147,88.1,146.9,88.2,146.7,88.2z M147.2,82.3
					C147.2,82.3,147.2,82.3,147.2,82.3c-0.2,0-0.3-0.1-0.2-0.3l0.3-3c0-0.3,0.5-0.3,0.5,0l-0.3,3C147.5,82.2,147.4,82.3,147.2,82.3z
					 M147.7,76.4C147.7,76.4,147.7,76.4,147.7,76.4c-0.2,0-0.3-0.1-0.2-0.3l0.3-3c0-0.3,0.5-0.3,0.5,0l-0.3,3
					C148,76.3,147.9,76.4,147.7,76.4z M148.2,70.5C148.2,70.5,148.2,70.5,148.2,70.5c-0.2,0-0.3-0.1-0.2-0.3l0.3-3
					c0-0.3,0.5-0.3,0.5,0l-0.3,3C148.5,70.4,148.4,70.5,148.2,70.5z M148.8,64.5C148.8,64.5,148.7,64.5,148.8,64.5
					c-0.2,0-0.3-0.1-0.2-0.3l0.3-3c0-0.3,0.5-0.3,0.5,0l-0.3,3C149,64.4,148.9,64.5,148.8,64.5z M149.3,58.6
					C149.3,58.6,149.3,58.6,149.3,58.6c-0.2,0-0.3-0.1-0.2-0.3l0.3-3c0-0.3,0.5-0.3,0.5,0l-0.3,3C149.5,58.5,149.4,58.6,149.3,58.6z
					"/>
			</g>
			<g>
				<path class="st2" d="M130.3,288.2c-0.1,0-0.2-0.1-0.2-0.3c0.1-0.5,0.2-1,0.2-1.5c0-0.3,0.5-0.3,0.5,0.1c-0.1,0.5-0.2,1-0.2,1.5
					C130.5,288.2,130.4,288.2,130.3,288.2z"/>
			</g>
		</g>
	</g>
	<g>
		<circle class="st8" cx="166.8" cy="43.3" r="3.8"/>
		<path class="st9" d="M167.7,42.8c0,1.2-1,2.2-2.2,2.2c-1.2,0-2.2-1-2.2-2.2c0-1.2,1-2.2,2.2-2.2C166.7,40.6,167.7,41.6,167.7,42.8
			z"/>
	</g>
	<g>
		<circle class="st8" cx="167.4" cy="63.8" r="2.3"/>
		<path class="st9" d="M168,63.5c0,0.8-0.6,1.4-1.4,1.4s-1.4-0.6-1.4-1.4c0-0.8,0.6-1.4,1.4-1.4S168,62.7,168,63.5z"/>
	</g>
	<g>
		<circle class="st8" cx="168" cy="80.2" r="2.3"/>
		<path class="st9" d="M168.5,79.9c0,0.8-0.6,1.4-1.4,1.4c-0.8,0-1.4-0.6-1.4-1.4c0-0.8,0.6-1.4,1.4-1.4
			C167.9,78.5,168.5,79.2,168.5,79.9z"/>
	</g>
	<g>
		<circle class="st8" cx="168.5" cy="98.7" r="2.3"/>
		<circle class="st9" cx="167.6" cy="98.4" r="1.4"/>
	</g>
	<g>
		<circle class="st8" cx="169" cy="119.2" r="2.3"/>
		<path class="st9" d="M169.5,118.9c0,0.8-0.6,1.4-1.4,1.4c-0.8,0-1.4-0.6-1.4-1.4c0-0.8,0.6-1.4,1.4-1.4
			C168.9,117.5,169.5,118.2,169.5,118.9z"/>
	</g>
	<g>
		<circle class="st8" cx="169" cy="141.5" r="2.3"/>
		<path class="st9" d="M169.5,141.2c0,0.8-0.6,1.4-1.4,1.4c-0.8,0-1.4-0.6-1.4-1.4c0-0.8,0.6-1.4,1.4-1.4
			C168.9,139.9,169.5,140.5,169.5,141.2z"/>
	</g>
	<g>
		<path class="st10" d="M136,48.2c0,0-2.7-0.7-2.8-0.8c0,0,6.5-14,6.8-14.4l3,0.9C142.9,34,137.5,43.9,136,48.2z"/>
	</g>
	<g>
		<path class="st10" d="M189.9,48.6l-5.4-14.8l2.9-0.8l5.7,14.8C193,47.9,189.9,48.6,189.9,48.6z"/>
	</g>
	<path class="st5" d="M157.5,225.1l-2.6,33.6l-2.3,32.8c-19.2-0.3-41.9-2.1-60.5-7c19.1,6.2,42,8,62.1,8.7
		c0.9-12.7,5.2-58.7,9.6-136.9C163.7,156.4,159.7,195.3,157.5,225.1z"/>
</g>
</svg>
