<?xml version="1.0" encoding="utf-8"?>
<!-- Generator: Adobe Illustrator 23.0.1, SVG Export Plug-In . SVG Version: 6.00 Build 0)  -->
<svg version="1.1" id="Layer_1" xmlns="http://www.w3.org/2000/svg" xmlns:xlink="http://www.w3.org/1999/xlink" x="0px" y="0px"
	 viewBox="0 0 321.7 321.7" style="enable-background:new 0 0 321.7 321.7;" xml:space="preserve">
<style type="text/css">
	.st0{fill:#FF751D;}
	.st1{fill:#FF951D;}
	.st2{fill:#FFBD1D;}
	.st3{fill:#CC3403;}
	.st4{fill:#FF1932;}
	.st5{fill:#D81809;}
	.st6{opacity:0.33;fill:#FF891D;}
	.st7{fill:#FF4304;}
</style>
<g>
	<path class="st0" d="M217.7,180.1c0,0-37.9,2.5-88.4,9.4c-38.7,5.3-73-1.8-79.1-10.5c-2.9-4.1,1.5-8.4,6-9.3
		C68.9,167.1,217.7,180.1,217.7,180.1z"/>
	<path class="st1" d="M167.5,116.1c-4.1,0-24.2-1.2-33.2,7.8c-9.1,9.1-5.3,22.6-23.5,28.2c-18.2,5.6-54.6,17.5-54.6,17.5
		s17-1.8,42,2.6c25.1,4.4,104.7,33.6,128.6,33.6c23.8,0,41.4-1.9,47-12.5c0,0-49.5-18.6-66.2-26.7c0,0-3.4-3.7-3.4-13.4
		c0-9.7,2.8-15.1-8.3-26.2C184.8,115.8,167.5,116.1,167.5,116.1z"/>
	<path class="st2" d="M153.5,120.9c0,0-16.4-2.1-20.1,7.9c-3.7,10-2.7,10.1,7,14.4c9.7,4.3,25.2,2.2,27.4-7.2
		S157.6,120.9,153.5,120.9z"/>
	<path class="st3" d="M56.2,169.7c57.1-6.4,136.6,36.2,171.9,35.3c12,0.1,31.7,0.1,41-6.6c1.9-1.4,3.5-3.1,4.7-5.1
		c-4.4,8.3-15.1,10.8-24.5,12.1c-7.8,1-19.6,1.6-28.4,0.9l-3.5-0.5C167.9,199.1,112.1,166.8,56.2,169.7z"/>
	<path class="st4" d="M204.4,166.1c1,0,2-0.1,2.9-0.2c-0.6-0.9-1.8-3-2.4-6.5c-8.2,0.4-18.6,0.4-27-0.9
		c-22.7-3.6-32.8-11.4-53.6-16.1c-1.3,2.1-2.9,4-5.2,5.7C150.8,154.4,159.5,168.3,204.4,166.1z"/>
	<path class="st5" d="M204.8,159.5c-5.3,0.3-11.5,0.4-17.5,0.1c-0.7,2.4-2.1,4.5-3.7,6.3c6,0.5,12.8,1.3,20.8,0.9
		c1,0,2.4-0.3,3.3-0.3C207.1,165.6,205.5,163,204.8,159.5z"/>
	<path class="st6" d="M273.8,193.2c0,0-49.5-18.6-66.2-26.7c0,0-3.4-3.7-3.4-13.4c0-9.7,2.8-15.1-8.3-26.2
		c-11.1-11.1-28.4-10.8-28.4-10.8c-0.1,0-0.3,0-0.5,0c7.5,7.9,15.4,17.6,18.6,26.4c7,19.2-8.5,29.5-8.5,29.5s35.3,15.7,44.3,24.7
		c2.6,2.6,4.4,5.8,5.7,9C250.8,205.8,268.2,203.9,273.8,193.2z"/>
	<path class="st2" d="M95.6,160.9c0,0,12.1-5.3,23.4-2.8c11.3,2.5,32.5,10,26.4,16.1S87,167.7,95.6,160.9z"/>
	<g>
		<path class="st7" d="M180.1,161.9c1.4-10,0.8-27.8-5.1-34.7c-4-4.7-9.9-1.6-11.3,2.9c-3.1,9.2,9.1,24.4,16.3,30.8
			C180,161.2,180.1,161.5,180.1,161.9z M168.6,130.2c1.3-1.2,2-1.5,3.1-0.2c4.6,4.8,7.3,24.1,8.2,30.6
			C175.8,154,164,135.7,168.6,130.2z"/>
		<path class="st7" d="M212.9,152c8.2-8.5-3.2-14.3-3.3-14.4c-12.1-6.2-22.6,11.2-26.1,23.3c6.9-10.9,17.8-26.8,26.5-17.6
			c4.3,4.1-2.5,8.2-7.8,10.8c-5.9,2.8-12.3,4.8-18.7,6.8c6.7-0.2,13.5-1.3,20-3.6C207,156.1,210.3,154.5,212.9,152z"/>
		<path class="st7" d="M185.6,182.3c-5.2-4-5.4-12.6-5.2-19c0-0.1-0.8,2.2-0.7,4.9c0.6,18.2,9.8,20.1,26.5,13.6l-1.5-2.9
			C199.7,181.9,190.3,185.7,185.6,182.3z"/>
		<path class="st7" d="M213.8,163.2L211,165c3.7,5.8,1.4,8.7,1.4,8.8c-0.3,0.3-0.6,1.1-2.3,2c-6.1,3.5-21.9-8.3-27.4-12.8l0,0
			c6,5.7,21,18.6,28.4,14.9c2.4-1.1,3-2.3,3.4-2.6C214.5,175.1,218.1,171,213.8,163.2z"/>
	</g>
	<path class="st7" d="M185.9,161c0,2-1.8,3.6-4,3.6c-2.2,0-4-1.6-4-3.6c0-2,1.8-3.6,4-3.6C184.1,157.4,185.9,159.1,185.9,161z"/>
</g>
</svg>
