<?xml version="1.0" encoding="utf-8"?>
<!-- Generator: Adobe Illustrator 23.0.1, SVG Export Plug-In . SVG Version: 6.00 Build 0)  -->
<svg version="1.1" id="Layer_1" xmlns="http://www.w3.org/2000/svg" xmlns:xlink="http://www.w3.org/1999/xlink" x="0px" y="0px"
	 viewBox="0 0 321.7 321.7" style="enable-background:new 0 0 321.7 321.7;" xml:space="preserve">
<style type="text/css">
	.st0{fill:#709ED6;}
	.st1{fill:#88D2FF;}
	.st2{fill:#A6DDFF;}
	.st3{opacity:0.58;fill:#5F89C6;}
	.st4{fill:#C3E4FA;}
	.st5{fill:#5F83C6;}
	.st6{fill:#505D79;}
	.st7{fill:#DBC083;}
	.st8{fill:#FFE6A6;}
	.st9{fill:#FFFFE3;}
	.st10{opacity:0.4;fill:#BCB49B;}
	.st11{fill:#5C7A93;}
	.st12{fill:#C46F74;}
	.st13{opacity:0.46;fill:#C0EAFF;}
</style>
<g>
	<g>
		<path class="st0" d="M88.5,60c-12.2,4.7-25.3,68.1-25.3,68.1C76.3,141.2,98.2,139,98.2,139l16.9-44.9
			C115.1,94.1,100.7,55.3,88.5,60z"/>
		<path class="st1" d="M88.5,60c-12.2,4.7-25.3,68.1-25.3,68.1c4.4,4.4,9.8,7.1,15.1,8.7c3-9.6,6.7-21.8,10.2-33.8
			c4.1-14.2,4.1-31.1,3.3-43.3C90.7,59.5,89.6,59.6,88.5,60z"/>
		<path class="st0" d="M258.5,127.6c0,0-13.4-63.4-25.7-68c-12.3-4.6-26.4,34.2-26.4,34.2l10.5,41.9
			C217,135.7,245.5,140.7,258.5,127.6z"/>
		<path class="st1" d="M217.5,70.9c0.7,19.9,3.4,48,12.2,65.8c9.3,0,21.5-1.7,28.8-9.1c0,0-13.4-63.4-25.7-68
			C227.7,57.6,222.1,63.5,217.5,70.9z"/>
		<path class="st2" d="M89.3,59.7c2.6-1,13.3-5.1,51.9-19.8h41.4c0.1,0.1,49.6,18.9,51.1,20c0,0.1-17.2,11.9-18.4,70.8
			c-0.9,39.8,4,131.8,4,131.9c0,0-38.7,27.5-116.7,2.6l2.6-141.1c-1.5-11.5-8.4-56-16.6-64.2L89.3,59.7z"/>
		<path class="st3" d="M219.1,262.6c0,0-38.7,27.5-116.7,2.6l2.6-141.1c0,0-7.4-55-16.6-64.2l4-1.5c7,15.3,22.5,50.5,22.5,63.3
			c0,16.5,2.4,108,5.2,120.6C123.1,254.8,184.4,272.1,219.1,262.6z"/>
		<path class="st4" d="M160.7,112.2L160.7,112.2c-3.9,0-7.1-3.2-7.1-7.1v-51h14.2v51C167.7,109,164.6,112.2,160.7,112.2z"/>
		<path class="st5" d="M167.7,54.1c0.2,4.1,2,50.8,0,54.3c-1.3,2.4-4.5,3.9-7.1,3.7c2.9-0.1,5.8-2.1,6.6-5.7
			C167.5,104.9,166.7,78.1,167.7,54.1z"/>
		<path class="st6" d="M161,54.6c-19.6,2.2-26.1-21-22.9-22.3c0,0,34.6,1.4,42.7,0.2c0.9-0.1,1.9,0.1,2.6,0.6l0,0
			C184.7,37.8,176.7,52.8,161,54.6z"/>
		<path class="st7" d="M177.8,45.8c4.3-4.8,6.3-10.2,5.7-12.7l0,0c-0.8-0.5-1.7-0.7-2.6-0.6c-8.2,1.1-42.7-0.2-42.7-0.2
			c-1.7,0.7-0.7,7.5,3.5,13.5C151.7,46.1,171.3,46.6,177.8,45.8z"/>
		<path class="st8" d="M161,54.6l-15.7,21.6c0,0-19.6-23.4-16.7-31.5c2.9-8.1,8-12.4,9.5-12.4C134.9,33.6,141.4,56.7,161,54.6z"/>
		<path class="st8" d="M175.1,74L161,54.6c16.4-1.8,23.5-17.4,22.6-21.4c2,1.4,5.8,4.5,9,10.3C197.1,51.7,175.1,74,175.1,74z"/>
		<g>
			<circle class="st9" cx="160.3" cy="69.3" r="2.9"/>
			<path class="st10" d="M160.3,66.4c-0.2,0-0.4,0-0.5,0.1c1.4,0.3,2.4,1.4,2.4,2.9c0,1.4-1,2.6-2.4,2.9c0.2,0,0.4,0.1,0.5,0.1
				c1.6,0,2.9-1.3,2.9-2.9C163.3,67.7,162,66.4,160.3,66.4z"/>
		</g>
		<g>
			<circle class="st9" cx="160.3" cy="83.2" r="2.9"/>
			<path class="st10" d="M160.3,80.2c-0.2,0-0.4,0-0.5,0.1c1.4,0.3,2.4,1.4,2.4,2.9c0,1.4-1,2.6-2.4,2.9c0.2,0,0.4,0.1,0.5,0.1
				c1.6,0,2.9-1.3,2.9-2.9C163.3,81.5,162,80.2,160.3,80.2z"/>
		</g>
		<g>
			<circle class="st9" cx="160.3" cy="98.9" r="2.9"/>
			<path class="st10" d="M160.3,96c-0.2,0-0.4,0-0.5,0.1c1.4,0.3,2.4,1.4,2.4,2.9c0,1.4-1,2.6-2.4,2.9c0.2,0,0.4,0.1,0.5,0.1
				c1.6,0,2.9-1.3,2.9-2.9C163.3,97.3,162,96,160.3,96z"/>
		</g>
		<path class="st11" d="M205.5,268.8c-31.1,11-70.4,5.8-102.1-4.3c0.5-32.6,1.4-86.1,1.3-121.8c-1.4,33.4-2.6,89.8-3.3,123.3
			c21.4,6.1,32.1,8.8,52.4,10.2c2.1,0,41.3,2.6,65.4-13.5C214.9,265.3,210.2,267.2,205.5,268.8z"/>
		<g>
			<path class="st12" d="M145.3,75.3c-4.6-5.7-18.6-23.5-16.7-30.6c-2.9,7.8,12.1,26.5,16.7,32.3c4.7-6.6,10.9-15.2,15.6-22.5
				C155.9,60.9,149.7,69.3,145.3,75.3z"/>
			<path class="st12" d="M192.6,43.5c3.3,7.1-11.9,23.9-17.4,29.7c-3.7-5-10.3-13.8-14.2-18.6c4.5,6.8,11.6,16.7,14.1,20.2
				C176.6,73,197.6,51.9,192.6,43.5z"/>
		</g>
	</g>
	<path class="st13" d="M207.7,64.4c0,0-29.2,82.3-58.8,85c-29.7,2.7-7.3,100,28.3,94.3C212.8,238.1,207.7,64.4,207.7,64.4z"/>
</g>
</svg>
