<?xml version="1.0" encoding="utf-8"?>
<!-- Generator: Adobe Illustrator 23.0.1, SVG Export Plug-In . SVG Version: 6.00 Build 0)  -->
<svg version="1.1" id="Layer_1" xmlns="http://www.w3.org/2000/svg" xmlns:xlink="http://www.w3.org/1999/xlink" x="0px" y="0px"
	 viewBox="0 0 321.7 321.7" style="enable-background:new 0 0 321.7 321.7;" xml:space="preserve">
<style type="text/css">
	.st0{fill:#A09B7D;}
	.st1{fill:#0F0F0F;}
	.st2{fill:#4B5370;}
	.st3{fill:#24283F;}
	.st4{fill:#04060C;}
	.st5{fill:#49519B;}
	.st6{fill:#C40E0E;}
	.st7{fill:#B6CECD;}
	.st8{fill:#E3F8FC;}
	.st9{fill:#C9C399;}
	.st10{fill:#E2D79A;}
	.st11{fill:#5D6DCE;}
	.st12{fill:#2F3535;}
	.st13{opacity:0.48;fill:#E2D79A;}
</style>
<g>
	<g>
		<polygon class="st0" points="121.6,141.3 119.4,142.1 118.2,145.5 120.2,144.3 		"/>
		<path class="st1" d="M166.7,120.3c0,0-0.7-2.1-6.2-9c-0.6-0.8-1.2-1.5-1.9-2.1c-5.5-5.6-14.7-5.4-20,0.4c-1.7,1.8-3.2,3.8-4.2,5.8
			c-3.4,6.7-26.4,51.9-26.4,51.9L166.7,120.3z"/>
		<path class="st2" d="M71,230.1c1.6,2.3,8,4.6,14,7.2c6.3,2.8,12.3,5.9,15,5.5c5.3-0.8,7-1.5,7-1.5l-1.6-2.3l3.9-1.8l1.8,1.2
			l7.1-3.3l-0.2-2.2l3.4-1.5l0.7,1.3l7.2-3.5l0.3-2.2l3-2.1l2,2l7.4-5.1l-0.9-2.3l3.5-2.4l1.8,1.6l7.4-5.1l-0.3-1.8l3.3-2.1l1,1.1
			l8.2-5.7l-0.7-1.7l3.9-2.5l1.2,1.7l7.5-5.2l-1.1-1.8l3.7-2.6l1.5,2.1l7.6-5.3l-1.3-2.2l3.5-2.2l1.4,2l7.9-4.8l-1.4-2.3l3.4-2.5
			l1.6,2.3l7.7-5.8l-1.5-2.1l2.7-1.9l1.5,1.5l6.4-4.1l-0.9-2.7l2.6-1.5c0,0,1.2,0.7,5.5-2.2c4.3-3,7.3-2.8,7.3-2.8l2.3-1.6
			c0,0,0.9-3.3,1-4.3c0.2-1,4.9-4.8,5.9-4.6c1,0.2,4.1-0.1,4.1-0.1l3.1-2.5c0,0-0.9-5.5,0.1-6.8c0.9-1.1-6.5-8.2-11.7-13.3
			c-0.6-0.5-1-3.3-1.4-3.8c-2.8-3.5-4.6-4.4-4.6-4.4s-14.1-26.7-21.7-26.4c0,0-10.9-10.3-17.4-11.1l0,0c-0.8-0.1-1.6-0.1-2.3,0.2
			c-5.9,2.1,0.7,16.1-2,22c-2.6,5.9-21.1,15.3-31.7,16c-0.5,0-0.9,0.1-1.4,0.1c-8,0.5-15.4,1.5-18,1.9c0,0,0,0,0,0
			c-0.7,0.1-1.1,0.2-1.1,0.2l-30.1,45.3l-4.1,2.8c0,0-6.6,15.1-12.7,24.2c-0.7,1-1.4,2-2.1,2.8c-0.7,0.8-1.3,1.5-1.9,2.1
			c-4.9,4.6-12.7,10.4-17.1,14.8c-1.8,1.8-3.1,3.4-3.3,4.5c-0.7,3.8-0.2,8.7,2.7,13.2C70.8,229.7,70.9,229.9,71,230.1z"/>
		<path class="st3" d="M205.2,161.1l-15.6,11.8c0,0-1.4-27.2-0.4-42.7c1-14,19.7-34.9,23.3-38.8c0.4-0.4,0.6-0.6,0.6-0.6
			c7.6-0.3,21.7,26.4,21.7,26.4s6,3.9,6.9,10C241.8,127.7,205.2,161.1,205.2,161.1z"/>
		<path class="st4" d="M243.2,132.5l-38,28.6c-0.7-4.9-1.3-10.2-1.6-15.6c-0.7-13.4,4.9-38.7,8.8-54.2c0.4-0.4,0.6-0.6,0.6-0.6
			c7.6-0.3,21.7,26.4,21.7,26.4L243.2,132.5z"/>
		<path class="st5" d="M68,216.3c0,0,15.3,16.2,21.5,15.5c6.2-0.7,45.5-22.2,45.5-22.2s-2-3.2-4.6-6.6c-2.7-3.5-6-7-8.5-7.5
			c-3.1-0.6-11,0.3-17.5,0.7c0,0,0,0,0,0c-1.6,0.1-3,0.1-4.3,0.1c-2,0-3.5-0.2-4.3-0.6c-1.3-0.7-2.5-2.2-3.4-3.6
			c-0.7,1-1.4,2-2.1,2.8c-0.7,0.8-1.3,1.5-1.9,2.1C81.5,203.6,68.7,212.4,68,216.3z"/>
		<path class="st3" d="M171.8,191.4l-28.8,20c0,0-4.7-4.4-12.6-8.5c-6.7-3.5-15.7-6.7-26-6.8h0c-1.4,0-2.8,0-4.3,0.1
			c-1.3,0.1-2.5,0.2-3.8,0.4c-2.9,0.4-4.8-0.2-5.9-1.8c0,0,0,0,0,0c0.7-0.8,1.4-1.8,2.1-2.8c6.1-9.1,12.7-24.2,12.7-24.2l4.1-2.8
			l30.1-45.3c0,0,0.4-0.1,1.1-0.2c0,0,0,0,0,0c1-0.1,2.7-0.4,4.9-0.6c3.5-0.4,8.2-0.9,13.1-1.2c-13.6,17.1-46.7,59.3-45.6,63.2
			c1.4,4.9,29.9,3.4,39.1,2.8C161.1,183.2,171.8,191.4,171.8,191.4z"/>
		<path class="st6" d="M145.3,119L112,166.3l-5.2,2.6c0,0-7,16.2-10.3,20.7c-1.7,2.2-4.1,4.1-6.2,5.4c0,0,0,0,0,0
			c0.7-0.8,1.4-1.8,2.1-2.8c6.1-9.1,12.7-24.2,12.7-24.2l4.1-2.8l30.1-45.3c0,0,0.4-0.1,1.1-0.2c0,0,0,0,0,0
			C141.3,119.5,143.1,119.3,145.3,119z"/>
		<path class="st3" d="M178.1,187l-74.6,44.4L85,237.9c-6-2.7-12.4-5.5-14-7.8c-1.1-1.6-1.9-3.2-2.4-4.8c-1.1-3.2-1.1-6.3-0.7-9
			c0.2-1.2,1.5-2.7,3.3-4.5c2.9,4.2,9.7,3.6,21.9-2.4c12.2-6,39.8-21,55.1-25.4c12.6-3.7,24.8,0.8,28.7,2.5
			C177.7,186.8,178.1,187,178.1,187z"/>
		<path class="st4" d="M178.1,187l-74.6,44.4L84.6,238c-6-2.7-12-5.6-13.6-7.9c-1.1-1.6-1.9-3.2-2.4-4.8c16.6-2,44.4-6.8,62.7-17.1
			c24.3-13.7,30.1-18.1,45.5-21.8C177.7,186.8,178.1,187,178.1,187z"/>
		<path class="st3" d="M121.7,165.8c0,0,11.7-2.6,25.7,3.4c13.9,6,32.5,20.3,32.5,20.3l32.4-26.2c0,0-30.3,0.6-41.8-8.2
			c-11.5-8.8-19.3-14.9-35-10.5C119.8,149,121.7,165.8,121.7,165.8z"/>
		<path class="st7" d="M71,230.1c1.3,1.8,5.1,4.3,9.7,6.5c1.2,0.6,2.9,0.4,4.1,1c6.3,2.8,12.5,5.6,15.2,5.3c5.3-0.8,7-1.5,7-1.5
			l-1.6-2.3l3.9-1.8l1.8,1.2l7.1-3.3l-0.2-2.2l3.4-1.5l0.7,1.3l7.2-3.5l0.3-2.2l3-2.1l2,2l7.4-5.1l-0.9-2.3l3.5-2.4l1.8,1.6l7.4-5.1
			l-0.3-1.8l3.3-2.1l1,1.1l8.2-5.7l-0.7-1.7l3.9-2.5l1.2,1.7l7.5-5.2l-1.1-1.8l3.7-2.6l1.5,2.1l7.6-5.3l-1.3-2.2l3.5-2.2l1.4,2
			l7.9-4.8l-1.4-2.3l3.4-2.5l1.6,2.3l7.7-5.8l-1.5-2.1l2.7-1.9l1.5,1.5l6.4-4.1l-0.9-2.7l2.6-1.5c0,0,1.2,0.7,5.5-2.2
			c4.3-3,7.3-2.8,7.3-2.8l2.3-1.6c0,0,0.9-3.3,1-4.3c0.2-1,4.9-4.8,5.9-4.6c1,0.2,4.1-0.1,4.1-0.1l3.1-2.5c0,0,0.4-4.3,1.4-5.6
			c0.9-1.1-4.5-10.9-9.5-16.4c-0.4-0.5-0.8-0.9-1.2-1.3c-0.6-0.5-1.1-1-1.6-1.4c-5.4-4-6.7-3.7-6.7-3.7s4.7,2.5-0.6,10.3
			c-5.4,7.8-43.5,30.1-63.8,55.3c-20.3,25.2-78.6,49.2-91.8,48.8c-3.2-0.1-5.8-1.3-7.8-1.9C70.8,229.7,70.9,229.9,71,230.1z"/>
		<path class="st8" d="M253.7,139.8c-1,1.3-1.4,5.6-1.4,5.6l-3.1,2.5c0,0-3.1,0.3-4.1,0.1c-1-0.2-5.7,3.6-5.9,4.6
			c-0.1,0.9-0.8,3.3-1,4c0,0.2-0.1,0.3-0.1,0.3l-0.9,0.6l-1.4,0.9c0,0-3-0.1-7.3,2.8c-4.3,3-5.5,2.2-5.5,2.2l-2.7,1.5l0.9,2.7
			l-6.4,4.1l-1.5-1.5l-2.7,1.9l1.5,2.1l-7.7,5.8l-1.6-2.3l-3.4,2.5l1.4,2.3l-7.9,4.8l-1.4-2l-3.5,2.2l1.3,2.2l-7.6,5.3l-1.5-2.1
			l-3.7,2.6l1.1,1.8l-7.6,5.2l-1.2-1.7l-3.9,2.5l0.7,1.7l-8.2,5.7l-1-1.1l-3.3,2.1l0.3,1.8l-7.4,5.1l-1.8-1.6l-3.5,2.4l0.9,2.3
			l-7.4,5.1l-2-2l-3,2.1l-0.3,2.2l-7.2,3.5l-0.7-1.3l-3.4,1.5l0.2,2.2l-7.1,3.3l-1.8-1.2l-3.9,1.8l1.6,2.3c0,0-1.7,0.7-7,1.5
			c-2.4,0.3-7.9-1.3-13.5-3.6c-0.7-0.3-1.5-0.6-2.2-0.9c-1.2-0.5-2.4-1.1-3.6-1.7c1.1-0.3,2.4-0.5,3.9-0.7
			c26-3.2,70.8-35.4,121.1-75.5c24.5-19.5,34.6-30.7,38.5-37.1c1,1.1,2,2.4,3,3.7C251.1,132.5,254.4,138.9,253.7,139.8z"/>
		<path class="st4" d="M140.3,135.6c0,1-0.8,1.8-1.8,1.8c-1,0-1.8-0.8-1.8-1.8c0-1,0.8-1.8,1.8-1.8
			C139.5,133.8,140.3,134.6,140.3,135.6z"/>
		<path class="st9" d="M139.1,134.1c1.1,0.8,1,2.4,0,3.1c-0.4,0.3-0.9,0.7-1.6,1.1c-2.4,1.7-14.8,0.1-15.2,0.8l3.1-6.1
			c0,0,5-1.6,8.4-1C135.8,132.5,137.9,133.2,139.1,134.1z"/>
		<path class="st4" d="M144.7,127.2c0,1-0.8,1.8-1.8,1.8c-1,0-1.8-0.8-1.8-1.8s0.8-1.8,1.8-1.8C143.9,125.4,144.7,126.2,144.7,127.2
			z"/>
		<path class="st9" d="M128.9,124.4c0,0,4.8-1.8,9.5-1c4.7,0.8,6.7,4.5,5.3,5.4c-1.4,1-13.9-0.6-15.3,0.4c-1.4,1-2,2.1-2,2.1
			S126.1,126.4,128.9,124.4z"/>
		<path class="st4" d="M130.7,147.6c0,1-0.8,1.8-1.8,1.8s-1.8-0.8-1.8-1.8c0-1,0.8-1.8,1.8-1.8S130.7,146.6,130.7,147.6z"/>
		<path class="st10" d="M125.4,133.1c0,0-2.1,0.6-3.1,6.1c-1,5.4,5.5,10.8,7.3,9.5c1.8-1.3,0.9-3.8-0.2-6.7
			C128.4,139.1,125.4,133.1,125.4,133.1z"/>
		<path class="st4" d="M122.9,157.9c0,1-0.8,1.8-1.8,1.8c-1,0-1.8-0.8-1.8-1.8c0-1,0.8-1.8,1.8-1.8
			C122.1,156.1,122.9,156.9,122.9,157.9z"/>
		<path class="st10" d="M119.4,142.1c0,0,4.4,10.5,3.5,14.2c-0.9,3.7-3.3,2.8-5,0.4c-1.7-2.4-2.1-7.1-2.1-7.1
			S117.6,142.7,119.4,142.1z"/>
		<path class="st4" d="M116.4,167.2c0,1-0.8,1.8-1.8,1.8c-1,0-1.8-0.8-1.8-1.8s0.8-1.8,1.8-1.8C115.6,165.4,116.4,166.2,116.4,167.2
			z"/>
		<path class="st10" d="M115,153.6c0,0-3.7,2.1-4.7,4.8c-0.4,1,1.5,10.1,3.6,10.5C116.1,169.3,115,153.6,115,153.6z"/>
		<path class="st4" d="M103.1,188.3c0,1-0.8,1.8-1.8,1.8c-1,0-1.8-0.8-1.8-1.8c0-1,0.8-1.8,1.8-1.8
			C102.2,186.5,103.1,187.3,103.1,188.3z"/>
		<path class="st10" d="M98.3,180.7c0.1,0.7,0.5,7.4,2.8,7.8c3.2,0.6,1-14.2,1-14.2S98,178.3,98.3,180.7z"/>
		<path class="st5" d="M140.3,119.7c0.6,0,38.3,0.8,50.4-9c12.2-9.8,9.3-17.2,5.5-22.6c-3.8-5.4-0.6-8.5-0.6-8.5
			c-0.8-0.1-1.6-0.1-2.3,0.2c-5.9,2.1,0.7,16.1-2,22c-2.6,5.9-21.1,15.3-31.7,16C151.2,118.2,143.1,119.3,140.3,119.7z"/>
		<path class="st5" d="M140.3,119.7c0.6,0,38.3,0.8,50.4-9c12.2-9.8,9.3-17.2,5.5-22.6c-3.8-5.4-0.6-8.5-0.6-8.5
			c-0.8-0.1-1.6-0.1-2.3,0.2c-5.9,2.1,0.7,16.1-2,22c-2.6,5.9-21.1,15.3-31.7,16C151.2,118.2,143.1,119.3,140.3,119.7z"/>
		<path class="st11" d="M195.6,79.6c-9.4-0.8-0.9,15.5-3.8,22.3c-2.5,5.7-15.4,11.7-21.3,13.8c-9.7,3.4-9.5,1.7-30.2,4
			c18.4-3.3,19.2-1.1,29.9-4.9c5.8-2.1,15.3-6.7,19.4-11.3c1.4-1.6,2.1-2.8,2-6.7C191.3,90.1,187.9,78.4,195.6,79.6z"/>
		<path class="st7" d="M253.7,139.8c-1,1.3-1.4,5.6-1.4,5.6l-3.1,2.5c0,0-3.1,0.3-4.1,0.1c-1-0.2-5.7,3.6-5.9,4.6
			c-0.1,0.9-0.8,3.3-1,4c-0.3,0.3-0.7,0.6-1,0.9l-1.4,0.9c0,0-3-0.1-7.3,2.8c-4.3,3-5.5,2.2-5.5,2.2l-2.7,1.5l0.9,2.7l-6.4,4.1
			l-1.5-1.5l-2.7,1.9l1.5,2.1l-7.7,5.8l-1.6-2.3l-3.4,2.5l1.4,2.3l-7.9,4.8l-1.4-2l-3.5,2.2l1.3,2.2l-7.6,5.3l-1.5-2.1l-3.7,2.6
			l1.1,1.8l-7.6,5.2l-1.2-1.7l-3.9,2.5l0.7,1.7l-8.2,5.7l-1-1.1l-3.3,2.1l0.3,1.8l-7.4,5.1l-1.8-1.6l-3.5,2.4l0.9,2.3l-7.4,5.1l-2-2
			l-3,2.1l-0.3,2.2l-7.2,3.5l-0.7-1.3l-3.4,1.5l0.2,2.2l-7.1,3.3l-1.8-1.2l-3.9,1.8l1.6,2.3c0,0-1.7,0.7-7,1.5
			c-2.4,0.3-7.9-1.3-13.5-3.6c28.1-8.6,74.2-40.1,74.2-40.1s47.1-34.1,69.5-54.8c8.7-8.1,13.9-13.5,17-17.2c0.3,0.4,0.6,0.8,0.9,1.2
			c0.9,1.3,1.8,2.7,2.6,4C252.8,136,254.2,139.2,253.7,139.8z"/>
		<path class="st12" d="M252.3,145.3l-3.1,2.4c-3.5,0.3-3.8,0.1-4.2,0.1c-0.9,0-5.3,3.1-5.9,4.7c0,0.1-1,4-1,4l-2.2,1.7
			c-2.2,0-4.9,1.1-6.6,2.3c-4.1,2.9-6.3,2.7-6.3,2.7c-0.1,0-3,1.7-2.9,1.6c0,0.1,0.9,2.9,0.9,2.7l-5.9,3.8c-0.1-0.1-1.6-1.6-1.5-1.5
			c-0.1,0.1-3.1,2.1-3,2.1l-0.4,0.3c0,0.1,1.5,2.2,1.5,2.1l-6.9,5.2c-0.1-0.1-1.7-2.4-1.6-2.3c-0.1,0.1-4,2.9-3.8,2.8l-0.4,0.3
			c0,0.1,1.4,2.3,1.3,2.3l-7,4.3c0-0.1-1.5-2.1-1.4-2c-0.1,0.1-4.4,2.7-4.4,2.7c0,0.1,1.4,2.4,1.3,2.2l-6.8,4.7
			c-0.1-0.1-1.6-2.2-1.5-2.1c-0.1,0-4.5,3.2-4.5,3.2c0.1,0.2,1.1,1.9,1.1,1.8l-6.7,4.7c-0.4-0.6-1.2-1.8-1.2-1.7
			c-0.1,0.1-4.7,3-4.7,3c0.2,0.4,0.8,1.8,0.8,1.7l-7.4,5.2c-0.1-0.1-1-1.1-1-1.1c-0.1,0.1-3.9,2.5-3.9,2.5c0,0.1,0.4,1.9,0.3,1.8
			l-6.8,4.8c-0.1-0.1-1.9-1.7-1.8-1.6c-0.1,0.1-4,2.8-4,2.8c0,0.1,1,2.4,0.9,2.3l-6.9,4.8c-0.1-0.1-2.2-2.1-2-1.9
			c-0.1,0.1-3.3,2.4-3.3,2.4c0,0.1-0.3,2.3-0.3,2.2l-6.8,3.3c-0.1-0.2-0.7-1.4-0.7-1.3c-0.1,0-3.8,1.7-3.8,1.7
			c0,0.1,0.2,2.3,0.2,2.2l-6.9,3.3c-0.1-0.1-1.8-1.3-1.8-1.2c-0.1,0-4,1.9-4,1.9c3.6,5.1,0,0.1,0.1,0l3.8-1.7
			c0.1,0.1,1.8,1.3,1.8,1.3c5.1-2.3-1.8,0.8,7.3-3.3c0-0.2-0.1-2.3-0.1-2.2l3.1-1.3c0.1,0.2,0.7,1.4,0.7,1.3c2.2-1,5.4-2.6,7.6-3.6
			c0-0.1,0.3-2.4,0.3-2.2l2.7-1.9c0.2,0.2,2.1,2,2,2c6-4.1,2.4-1.7,7.9-5.4c-0.3-0.9-0.9-2.3-0.9-2.3l2.9-2c0.1,0.1,1.9,1.8,1.8,1.7
			c5.2-3.6,2.9-2,8-5.5c0-0.1-0.3-1.8-0.3-1.8l2.7-1.7c0.1,0.1,1.1,1.2,1,1.1c1.2-0.8,7.9-5.5,8.9-6.1c-0.1-0.2-0.8-1.8-0.7-1.7
			l3.1-2c0.2,0.3,1.3,1.8,1.2,1.8c1.7-1.2,6.7-4.6,8.4-5.8c-0.1-0.2-1.1-1.9-1-1.8l2.9-2c0.1,0.1,1.6,2.2,1.5,2.1
			c4.7-3.3,3.7-2.6,8.5-5.9c0-0.1-1.4-2.3-1.3-2.2l2.6-1.7c0,0.1,1.5,2.1,1.4,2c2.5-1.6,6.1-3.8,8.7-5.3c0-0.1-1.5-2.4-1.4-2.3
			l2.6-1.9c0.1,0.1,1.7,2.4,1.6,2.3c2.3-1.7,6.4-4.9,8.4-6.4c0-0.1-1.5-2.2-1.5-2.1l2-1.4c0.1,0.1,1.5,1.5,1.5,1.4
			c3.3-2.1,3.7-2.4,6.9-4.5c0-0.1-1-2.9-0.9-2.7l2.2-1.3c1.7,0.4,5-2,6.4-2.9c3.8-2.5,6.4-2.3,6.5-2.3c0.1-0.1,2.5-2,2.4-1.9
			l0.1-0.1c0.8-3.4,1-4.2,1-4.3c0.7-1.2,3.4-3.4,4.8-4.1c1.1-0.5-0.1,0,4.9-0.4c0.1-0.1,3.2-2.6,3.1-2.6c0.2-1.4,0.3-2.8,0.8-4.4
			C252.7,142.4,252.5,143.8,252.3,145.3z"/>
		<path class="st6" d="M250.6,132.3c-7.7,9.4-24.6,23.8-26,23.8c-1.8,0-2.8-0.6-2-2.5c0.7-1.9,8.8-8.2,19.3-18.8
			c2.8-2.8,4.8-4.9,6.1-6.5C249,129.7,249.9,131,250.6,132.3z"/>
		<path class="st0" d="M109.1,165.1l-3.2,4.3l-1.5-0.5l0.8-1.6C105.2,167.3,107.4,165.1,109.1,165.1z"/>
		<path class="st4" d="M111.3,175.1c0,1-0.8,1.8-1.8,1.8c-1,0-1.8-0.8-1.8-1.8c0-1,0.8-1.8,1.8-1.8
			C110.5,173.3,111.3,174.1,111.3,175.1z"/>
		<path class="st10" d="M105.2,167.3c0,0,3.6,5.1,4.3,7.4c0.7,2.3-5.9,1.7-7.4-0.5C100.7,172.1,105.2,167.3,105.2,167.3z"/>
	</g>
	<path class="st13" d="M118.2,145.5l-1.6,4.5c0,0,1.7,7.4,3.3,6.7C121.6,155.9,118.2,145.5,118.2,145.5z"/>
	<path class="st13" d="M124.9,135.6l-1.9,4.3c0,0,3.5,9,4.9,7.6C129.4,146,124.9,135.6,124.9,135.6z"/>
	<path class="st13" d="M113.7,156.1l-2.2,1.7c0,0,1,9.4,1.8,7.8C114.2,163.9,113.7,156.1,113.7,156.1z"/>
	<path class="st13" d="M104,169.4l-1.1,3.9c0,0,3.4,3.4,3.8,1C107.2,171.8,104,169.4,104,169.4z"/>
</g>
</svg>
