<?xml version="1.0" encoding="utf-8"?>
<!-- Generator: Adobe Illustrator 23.0.1, SVG Export Plug-In . SVG Version: 6.00 Build 0)  -->
<svg version="1.1" id="Layer_1" xmlns="http://www.w3.org/2000/svg" xmlns:xlink="http://www.w3.org/1999/xlink" x="0px" y="0px"
	 viewBox="0 0 321.7 321.7" style="enable-background:new 0 0 321.7 321.7;" xml:space="preserve">
<style type="text/css">
	.st0{fill:#134715;}
	.st1{fill:#1E6324;}
	.st2{fill:#26BC34;}
	.st3{fill:#0EAF22;}
	.st4{fill:#2B7F2F;}
	.st5{fill:#272B28;}
	.st6{fill:#EAE298;}
	.st7{fill:#91BABC;}
	.st8{fill:#87AFAF;}
	.st9{fill:#BDF0F4;}
	.st10{fill:#2E4242;}
	.st11{fill:#555B56;}
	.st12{opacity:0.39;fill:#2B7F2F;}
	.st13{fill:#F4EFC9;}
</style>
<g>
	<g>
		<path class="st0" d="M98.4,171l42.3-65.3c3-4.7,9-6.7,14.2-4.6c4.4,1.7,9.4,4.1,12.6,7c6.9,6.3,7.2,11.2,7.2,11.2L109.3,192
			L98.4,171z"/>
		<path class="st0" d="M163.7,115.1c0,0,11.4,5.4,25.7-7.6c14.3-13.1,6.9-22.3,7.8-27.2c0.8-4.9,6.1-8.4,6.1-8.4l8.7,31.6L188.7,129
			L163.7,115.1z"/>
		<path class="st1" d="M264.4,138.5c-0.5,3.2-27.4,20.9-27.4,20.9s-53.9,36.5-64.4,43.3c-10.5,6.7-92,35.9-105.6,32.6
			c0,0-4.1,0.1-4.5-1.3c-1.1-3.8-2.6-11.4,0.7-15.2c0,0,16.1-13.4,18.1-14.7c0.4-0.2,1.2-1.6,2.3-3.5c0.9-1.5,1.9-3.4,3-5.5
			c5.1-9.8,11.9-24,11.9-24s34.7-54.1,44.6-59.3c0.1-0.1,0.2-0.1,0.3-0.1c0.1-0.1,0.3-0.1,0.4-0.2c0,0,0,0,0,0
			c3.6-1.4,9.4-0.8,15.7,0.2c10.6,1.7,22.9,4.5,29.8,0.7c0.7-0.4,1.4-0.8,2.1-1.3c9.5-6.2,12.7-15.9,11.7-23.1
			c-1.1-7.7-3-13.3-3-13.3s2.3-6.7,5.5-5.8c0.2,0.1,0.5,0.2,0.8,0.3c5.1,2.8,25.2,19.8,29.6,24.5c4.6,5,13.6,18.9,12.9,22.8
			c0,0,0.3,0.1,0.7,0.4c1.4,0.8,4.3,2.9,3.9,5.7C253.4,122.6,264.9,135.3,264.4,138.5z"/>
		<g>
			<polygon class="st2" points="166.2,191.7 157.8,197.1 144.3,191.7 112.2,178.6 106.4,176.3 110.8,168.7 117.6,171.6 150.9,185.4 
							"/>
			<polygon class="st2" points="172.9,180.6 164.4,186 154.4,181.9 120.3,168.1 113.1,165.2 117.4,157.6 125.7,161.1 160.9,175.7 
							"/>
			<polygon class="st2" points="180.2,170.4 171.7,175.8 164,172.7 128,158.1 120.4,155 124.7,147.4 133.5,151.1 170.5,166.4 			"/>
			<polygon class="st2" points="188.5,161.4 180.1,166.8 173.1,164 135.4,148.7 128.7,146 133.1,138.4 140.8,141.6 179.6,157.7 			
				"/>
			<polygon class="st2" points="117.6,171.6 150.9,185.4 144.3,191.7 112.2,178.6 			"/>
			<polygon class="st2" points="125.7,161.1 160.9,175.7 154.4,181.9 120.3,168.1 			"/>
			<polygon class="st2" points="132.3,152.6 169,167.9 164,172.7 128,158.1 			"/>
			<polygon class="st2" points="178,159.3 173.1,164 135.4,148.7 139.6,143.2 			"/>
		</g>
		<path class="st3" d="M235.9,93.8c-1.5,1-7.5-0.8-13.6,2.3c-6.1,3.1-13.2,20.2-16.4,20.7c-3.3,0.5-13.3-3.9-13.3-3.9l-1.3-1.7
			c9.5-6.2,12.7-15.9,11.7-23.1c-1.1-7.7-3-13.3-3-13.3s2.3-6.7,5.5-5.8c0.2,0.1,0.5,0.2,0.8,0.3C211.4,72,231.5,89,235.9,93.8z"/>
		<path class="st4" d="M86.5,195.1l7.8,40.3L69,242.8l-1.9-4.3c-0.5-1.2-4.4-3.2-4.7-4.5c0,0-3.8-10,0.7-15.2
			c0,0,16.1-13.4,18.1-14.7c0.4-0.2,1.2-1.6,2.3-3.5C84.4,199.1,85.5,197.2,86.5,195.1z"/>
		<path class="st5" d="M206.3,69.3c-0.9,1.2-1.8,3.2-0.9,5.9c1.4,4.5,8.5,12,4.5,20.9c-4,9-13.7,18.5-22.6,20.8
			c-8.7,2.2-38.7-6.9-43.6-5.6c3.6-1.4,9.4-0.8,15.7,0.2c10.6,1.7,22.9,4.5,29.8,0.7c11.2-6.1,14.9-16.7,13.8-24.3
			c-1.1-7.7-3-13.3-3-13.3s2.3-6.7,5.5-5.8C205.7,69,206,69.1,206.3,69.3z"/>
		<path class="st5" d="M159.4,111.6c-5.9,11.3-69.9,95.2-72.3,96.8c-2.6,1.6-3.3,0.5-3.5-5.5c0-0.8,0-1.6,0.1-2.3
			c2-3.5,4.8-9.1,7.5-14.5c3.8-7.7,7.3-15,7.3-15s35.4-55.2,44.9-59.5C146.9,110,152.8,110.6,159.4,111.6z"/>
		<path class="st6" d="M90.3,194.9c0,0,1.9,0.7,3.7-1.9c1.8-2.5-2.8-7-2.8-7l0.8-1.7c0,0-1-0.6-2.9,1.1c-1.9,1.7-3,5.7-3,5.7
			S87.1,194,90.3,194.9z"/>
		<path class="st6" d="M97.9,172.2c0,0-2.5-0.5-3.5,1c-1,1.5-2.8,4.4-3.1,5.8c-0.2,0.8,2.5,5,6,4.4c3.5-0.5,4.3-3.5,2.9-5.8
			c-1.4-2.3-3.1-3.6-3.1-3.6L97.9,172.2z"/>
		<path class="st6" d="M101.1,163.3c0,0-1.2,1.4,0,3.3c1.2,1.8,2.2,4.4,5,3.9c2.8-0.5,2-8.9,0-11.2
			C104.1,157,101.1,163.3,101.1,163.3z"/>
		<path class="st6" d="M109.2,154.7c0,0,4.7,7,6.8,5.7c2.1-1.3,2.3-1.4,1.3-4.7c-1-3.3-3.9-7.7-3.9-7.7S107.7,152.3,109.2,154.7z"/>
		<path class="st6" d="M121.1,135.9c0,0-0.3,0.2-2.1,1.4c-1.3,0.8-2.3,3.1-2.9,4.5c-0.3,0.8-0.3,1.6,0,2.4c0.7,1.8,2.2,5,4.7,5.7
			c3.5,1,4.1-0.5,4.6-3.3c0.3-1.8-1.3-4.5-2.4-6.1c-0.7-1-1.2-2.1-1.5-3.2L121.1,135.9z"/>
		<path class="st6" d="M127.1,126.7c0,0-0.3-1.2-2.8,2.2c-2.5,3.5-1.9,5-1.9,5s0.8,1.4,2.5,2.6c2,1.3,4.9,3.2,7.4-0.2
			c1.8-2.4-1.3-5.4-3.2-6.9C128.2,128.7,127.5,127.8,127.1,126.7L127.1,126.7z"/>
		<path class="st7" d="M264.4,138.5c-0.5,3.2-27.4,20.9-27.4,20.9s-50.2,34.1-63.2,42.5c-0.5,0.3-0.9,0.6-1.2,0.8
			c-10.5,6.7-30.2,22.6-61.9,37.1c-31.7,14.4-37.6,12-37.6,12s-1.7-1.4-3.7-3.8c-1.5-1.8-3.2-4.2-4.5-7c-0.2-0.3-0.3-0.7-0.5-1
			c-0.5-1.2-0.9-2.5-1.2-3.8c0,0-0.3-0.9-0.7-2.2c6.2,0.7,18-0.2,38.4-9.1c33.7-14.7,63.9-48.4,73.2-57c2.7-2.5,10.6-8.1,20.4-14.7
			c18.9-12.8,44.8-29.6,55.1-36.2c1.3,0.7,3.8,2.5,3.9,4.9c0,0.2,0,0.5,0,0.7c0,0,6,6.6,9.2,11.5C263.8,136,264.6,137.6,264.4,138.5
			z"/>
		<path class="st8" d="M264.4,138.5c-0.5,3.2-27.4,20.9-27.4,20.9s-50.2,34.1-63.2,42.5c16.7-21.4,20.5-38.2,20.6-48.7
			c18.9-12.8,44.8-29.6,55.1-36.2c1.3,0.7,3.8,2.5,3.9,4.9c0,0.2,0,0.5,0,0.7c0,0,6,6.6,9.2,11.5C263.8,136,264.6,137.6,264.4,138.5
			z"/>
		<path class="st9" d="M253.1,122.9l-72.9,47.6c0,0-50.1,44.6-77.2,59.5c-17.7,9.7-31,11.2-38.1,11.1c-0.2-0.3-0.3-0.7-0.4-1
			c-0.5-1.2-1.6-4.5-1.9-6c6.2,0.7,18-0.2,38.4-9.1c33.7-14.7,63.9-48.4,73.2-57c7.8-7.2,58-40.5,74.5-51.2c0.5-0.3,1.2-0.3,1.7,0.1
			c1.2,0.9,2.9,3,3.4,4.7C253.7,122,253.5,122.6,253.1,122.9z"/>
		<path class="st7" d="M262.6,134.1c1.2,1.9,2,3.5,1.8,4.4c-0.5,3.2-27.4,20.9-27.4,20.9s-53.9,36.5-64.4,43.3
			c-10.5,6.7-30.2,22.6-61.9,37.1c-31.7,14.5-37.6,12-37.6,12s-1.7-1.4-3.7-3.8c9.2-1.2,29.1-5.1,51.9-17.4
			c31.6-17,44.5-28.4,57-36.3C190.7,186.3,261.7,139.1,262.6,134.1z"/>
		<g>
			<path class="st10" d="M264.4,138.5c-1.3,5-90.2,63.8-91.5,64.6c-14,9-34,25.7-73,41.6c-4.6,1.8-21.8,8.5-26.9,7.1
				c5.1,1.3,22.3-5.8,26.7-7.6c38.6-16.4,59.5-33.6,72.6-42c1.5-0.9,85.2-55.9,91.1-62.2C263.8,139.5,264.2,139.1,264.4,138.5z"/>
		</g>
		<path class="st11" d="M203.2,71.8c0,0,0.8,7,2.9,12.3c2.1,5.3,2,10.6-2.9,17.7c0,0,3.2-7.6,2.1-14.1c-0.8-4.6-5.3-14.2-3.6-15.9
			C203.5,70.1,203.2,71.8,203.2,71.8z"/>
		<path class="st12" d="M80.1,209c-0.6,0.2-11.9,9.9-13.9,9.9c-2.1,0-3.1,3.6-0.9,4.3c2.2,0.7,17.8-5.1,19.8-7.1
			C87.1,214.1,83.5,208.2,80.1,209z"/>
		<g>
			<g>
				<path class="st5" d="M193.1,115.2c-0.8-0.3-1.4-0.5-1.4-0.5l0.2-0.5c0,0,0.5,0.2,1.4,0.5L193.1,115.2z"/>
			</g>
			<g>
				<path class="st5" d="M204.7,119.2c-0.5,0-1.4-0.3-3-0.8l0.2-0.6c1.9,0.6,2.6,0.8,2.9,0.8L204.7,119.2z M207.8,118.5l-0.3-0.5
					c0.9-0.4,1.7-1,2.3-1.8l0.4,0.4C209.6,117.4,208.7,118,207.8,118.5z M198.8,117.3c-1-0.4-1.9-0.7-2.8-1.1l0.2-0.5
					c0.9,0.4,1.9,0.7,2.8,1.1L198.8,117.3z M211.9,113.9l-0.5-0.2c0.2-0.4,0.3-0.8,0.5-1.2c0.2-0.5,0.5-1,0.7-1.6l0.5,0.2
					c-0.3,0.6-0.5,1.1-0.7,1.6C212.2,113.1,212,113.5,211.9,113.9z M214.4,108.4l-0.5-0.3c0.5-1,1-1.9,1.5-2.7l0.5,0.3
					C215.4,106.6,214.9,107.4,214.4,108.4z M217.7,103.3l-0.4-0.4c0.7-0.8,1.5-1.6,2.2-2.2l0.4,0.5
					C219.1,101.8,218.4,102.5,217.7,103.3z M222.3,99.6l-0.3-0.5l0.6-0.4c0.7-0.5,1.4-0.9,2-1.2l0.3,0.5c-0.6,0.4-1.2,0.8-2,1.2
					L222.3,99.6z M227.6,96.7l-0.2-0.6c0.9-0.3,1.9-0.5,3-0.6l0.1,0.6C229.3,96.3,228.4,96.4,227.6,96.7z M233.5,96.1l0-0.6
					c1.1,0,2.1-0.2,2.9-0.4l0.2,0.6C235.7,95.9,234.7,96,233.5,96.1z"/>
			</g>
		</g>
	</g>
	<path class="st13" d="M88.7,187.1c0,0-1.8,2.6-1.8,3.5c0,0.9,2.4,3.2,3.9,3.2c1.5,0,1.7-1.4,1.7-2.6
		C92.5,190,88.7,187.1,88.7,187.1z"/>
	<path class="st13" d="M94.4,174.9c0,0-2.5,2.9-2.2,4.3c0.3,1.5,3.8,4.8,5.5,2.4C99.4,179.2,94.4,174.9,94.4,174.9z"/>
	<path class="st13" d="M105.1,159.8c0,0-3.9,1.4-3.5,4.2c0.4,2.7,2.6,6.9,4.2,5.3C107.6,167.6,106.5,159.1,105.1,159.8z"/>
	<path class="st13" d="M113.1,149.4c0,0-3.6,2-3.1,3.8c0.5,1.8,3.4,7.6,5.3,5.7C117.1,156.9,113.1,149.4,113.1,149.4z"/>
	<path class="st13" d="M120.3,137.6c0,0-4.3,3.3-3.7,5.4c0.6,2.1,4.1,8.1,6.7,5C125.9,144.8,120.3,137.6,120.3,137.6z"/>
	<path class="st13" d="M126.2,127.7c0,0-3.5,3.4-3.2,5c0.3,1.6,4.6,6.5,6.5,3.6C131.5,133.3,126.2,127.7,126.2,127.7z"/>
</g>
</svg>
