<?xml version="1.0" encoding="utf-8"?>
<!-- Generator: Adobe Illustrator 23.0.1, SVG Export Plug-In . SVG Version: 6.00 Build 0)  -->
<svg version="1.1" id="Layer_1" xmlns="http://www.w3.org/2000/svg" xmlns:xlink="http://www.w3.org/1999/xlink" x="0px" y="0px"
	 viewBox="0 0 321.7 321.7" style="enable-background:new 0 0 321.7 321.7;" xml:space="preserve">
<style type="text/css">
	.st0{fill:#0C0C0C;}
	.st1{fill:#252326;}
	.st2{fill:#C97209;}
	.st3{opacity:0.35;fill:#C97209;}
	.st4{fill:#494746;}
	.st5{opacity:0.51;fill:#494746;}
	.st6{fill:#D8BA98;}
	.st7{fill:#ED7F07;}
	.st8{fill:#EFCAA3;}
	.st9{fill:#FFE8D2;}
	.st10{fill:#EFC495;}
	.st11{fill:#472F15;}
	.st12{opacity:0.27;fill:#ED7F07;}
	.st13{opacity:0.4;fill:#494746;}
</style>
<g>
	<path class="st0" d="M117.3,90.2c-1.9-9.9,3.8-19.7,13.8-23.4c5.8-2.2,14.8-3.5,19.2,0.9c8.2,8.2-27.1,70-27.1,70l-8.7-0.6
		c0,0,4.1-10.2,6-20.3C121.4,111.4,119.2,99.9,117.3,90.2z"/>
	<path class="st1" d="M253.7,117.8c0,0,1.7,10.8-5.8,17c-7.4,6.3-49.7,45.1-49.7,45.1s-73.6,63.7-92.3,73.6
		c-18.7,9.9-35.8-9.6-35.8-9.6s-3.4-6.6-1.9-13.3c0-0.1,0.1-0.2,0.1-0.4c1.3-5.3,17.3-24,26.1-35.4c2.6-3.4,4.6-6.1,5.4-7.6
		c0.7-1.4,1.7-4.2,2.8-7.9c1.7-5.5,3.8-13.2,6-21.2c3.7-13.4,7.6-28,10.3-35.8c2.8-8,2.3-16.4,1-22.7c-1.2-6.1-2.9-10.2-2.9-10.2
		c-0.4-3.3,1.9-6.9,5.7-10.2c7.6-6.7,21.1-12.2,31.2-11.7c10.4,0.6,21.2-3.3,26.9-5.8c2.7-1.2,5.9-1,8.5,0.4c5.4,3,14.7,8.1,19.4,10
		c7,2.8,26.3,27.4,26.3,27.4l10.2,9.8L253.7,117.8z"/>
	<path class="st2" d="M171.9,186.9l-73.4,57.5l-28.3-0.5c0,0-0.6-1.2-1.2-3.1c-0.8-2.6-1.6-6.4-0.7-10.2c0-0.1,0-0.2,0.1-0.4
		c1.6-6.8,28-36.3,31.5-43c0.7-1.4,1.7-4.2,2.8-7.9c1.7-5.6,3.8-13.2,6-21.2c3.8,6.1,10,14.1,16.2,14.4c5.6,0.3,14,0.4,21.5,1
		c5.9,0.4,11.2,1.2,14.2,2.4C167.1,179,171.9,186.9,171.9,186.9z"/>
	<path class="st3" d="M171.9,186.9l-73.4,57.5l-23.7,5.4c-1.1-1.8-4.6-5.9-4.6-5.9s-0.6-1.2-1.2-3.1c22.9-11.3,60.3-49.1,77.4-67.2
		c5.9,0.4,11.2,1.2,14.2,2.4C167.1,179,171.9,186.9,171.9,186.9z"/>
	<path class="st4" d="M116.5,196.7c-5.6,10-16.2,16.8-32.4,27.3c-8.9,5.8-13.5,6.8-15.9,6.6c0-0.1,0.1-0.2,0.1-0.4
		c1.6-6.8,28-36.3,31.5-43c0.7-1.4,1.7-4.2,2.8-7.9C106.1,180.8,121.4,187.9,116.5,196.7z"/>
	<path class="st2" d="M238.7,115.1l-27.5,23.2c-2.4,2-5.6,2.3-8.2,1.1c-1.4-0.7-2.7-1.8-3.5-3.3c-3.1-5.8-5.9-13.7-2.6-19.9
		c6-11.2,9.9-19.5-4.4-21.9c-14.3-2.5-49.7,15.2-54.8,12.1c-1.9-1.2-4.7-5.8-7.4-11.1c-5.1-10-0.1-22.3,10.7-25.7
		c4.5-1.4,9.1-2.2,13.1-1.9c10.9,0.6,22.2-3.7,27.7-6.1c1.1-0.5,2.2-0.7,3.4-0.6c1.2,0,2.4,0.4,3.5,1c5.3,3,15.2,8.5,20.2,10.5
		c6.5,2.6,23.5,23.8,26,27c0.2,0.3,0.4,0.5,0.7,0.8l3.6,3.5C242.4,106.8,242.2,112.2,238.7,115.1z"/>
	<path class="st3" d="M238.7,115.1l-27.5,23.2c-2.4,2-5.6,2.3-8.2,1.1c-0.3-23.6,12.6-46.2,12.6-52.3c0-4.5-17.6-17.4-30.5-26.2
		c1.2,0,2.4,0.4,3.5,1c5.3,3,15.2,8.5,20.2,10.5c6.5,2.6,23.5,23.8,26,27c0.2,0.3,0.4,0.5,0.7,0.8l3.6,3.5
		C242.4,106.8,242.2,112.2,238.7,115.1z"/>
	<path class="st4" d="M149.8,115.2c-0.5,7.4-12.4,21.7-17.5,28.7c-5.2,7-8.2,22.1-14.8,27.7c-6.7,5.6-8,17.8-14.8,21.6
		c-3.4,1.9-6.3,2-8.3,1.6c2.2-2.8,3.9-5.2,4.9-6.8c0.2-0.3,0.4-0.6,0.5-0.8c0.7-1.4,1.7-4.2,2.8-7.9c1.7-5.6,3.8-13.2,6-21.2
		c3.7-13.4,7.6-28,10.3-35.8c2.8-8,2.3-16.4,1-22.7c6.6-1.7,14-3.2,18.3-2.9c1.2,0.1,2.2,0.3,2.9,0.7
		C146.5,101.1,150.3,107.8,149.8,115.2z"/>
	<path class="st5" d="M142.9,111.3c0,9.6-10.1,21.5-16.1,33.8c-6,12.3-12.5,22.2-17.6,25.8c-5.1,3.6-2.8,13.7-6.9,16.4
		c-0.9,0.5-1.9,0.8-2.9,0.9c0.2-0.3,0.4-0.6,0.5-0.8c0.7-1.4,1.7-4.2,2.8-7.9c1.1-3.5,2.3-7.8,3.6-12.5c0.8-2.8,1.6-5.7,2.4-8.6
		c3.7-13.4,7.6-28,10.3-35.8c2.8-8,2.3-16.4,1-22.7c4.5-1.2,9.4-2.2,13.4-2.7c1.8-0.2,3.5-0.3,4.9-0.2
		C140.5,100.8,142.9,106.2,142.9,111.3z"/>
	<path class="st5" d="M140.1,108.5c-2.6,8.6-15.7,21.9-18.7,33.2c-3.1,11.3-7.4,21.2-13.4,24.8c-0.6,0.4-1.2,0.5-1.8,0.4
		c0.8-2.8,1.6-5.7,2.4-8.6c3.7-13.4,7.6-28,10.3-35.8c2.8-8,2.3-16.4,1-22.7c4.5-1.2,9.4-2.2,13.4-2.7
		C137.3,99.5,141.6,103.5,140.1,108.5z"/>
	<path class="st6" d="M132.3,85.4c0.2-0.1,0.5,0.1,0.6,0.5l7.7,24c0.1,0.3,0,0.6-0.2,0.7l-7.1,2c-0.2,0.1-0.5-0.1-0.6-0.5l-7.7-24
		c-0.1-0.3,0-0.6,0.2-0.7L132.3,85.4L132.3,85.4z M131.3,82.5l-7.1,2c-1.4,0.4-2,2.3-1.4,4.2l7.7,24c0.6,1.9,2.2,3.2,3.6,2.8l7.1-2
		c1.4-0.4,2-2.3,1.4-4.2l-7.7-24C134.3,83.4,132.7,82.1,131.3,82.5L131.3,82.5z"/>
	<path class="st7" d="M127.2,89.3c0,0,7.8,19.2,6.9,19.9c-0.8,0.7-12.5,6.9-13.7,6.8c-1.2-0.1-8.3-17.7-6.4-20.2
		C115.8,93.3,127.2,89.3,127.2,89.3z"/>
	<path class="st7" d="M130.1,87.5l7.4,18.8c0,0,36.5-12.5,40.5-15.9c4-3.3,7.6-15.1,4.7-20.1c-2.9-5-4.4-1.5-19.7,3.8
		C147.8,79.4,130.1,87.5,130.1,87.5z"/>
	<path class="st8" d="M104,174.5c0,0-1.8-0.5-3.3,0.7c-1.5,1.3-2.6,6.3-2.6,6.3l2.6,3.6c0,0,1.8,1.6,4.1,0.3c2.2-1.3,1.7-4,0.8-5.1
		c-1-1-2.1-3.7-2.1-3.7L104,174.5z"/>
	<path class="st8" d="M106.7,166.4c0,0-1.7-0.3-2.4,0.2c-0.7,0.6-0.5,5.7-0.5,5.7l1.9,2.1c0,0,4.2,0.9,5.2,1.1
		c1,0.2,1.5-1.8,1.3-3.7C112,169.8,106.7,166.4,106.7,166.4z"/>
	<path class="st8" d="M109.4,155.3c0,0-1.3-0.2-2.7,2.3c-1.4,2.5,0.8,4.4,0.8,4.4s4.6,1.5,5.3,2.3c0.8,0.8,2,2.4,4,2.1
		c2-0.3,2.3-2.3,1.9-3.2C118.5,162.4,111.5,155,109.4,155.3z"/>
	<path class="st8" d="M112.2,145.1c0,0-5.3,3.5-1.9,7l7.9,0.6c0,0,2.2,0.5,3-0.2c0.8-0.7,0.1-4-2.9-5.2
		C115.3,146,112.2,145.1,112.2,145.1z"/>
	<path class="st8" d="M116.1,130c0,0-3.3,5.4-1.7,7.1c1.6,1.7,11.4,7.5,13.5,7.6c2.1,0.1,3.1-0.2,3.2-2.7c0.2-2.5-2.3-3.2-5.7-5.3
		C122,134.6,116.1,130,116.1,130z"/>
	<path class="st8" d="M117.3,128.9c0,0-1.9-2.4-0.8-4.4c1.1-1.9,2.8-2.8,2.8-2.8s11.4,1.1,12.9,2.7c1.4,1.5,1.2,3.7-0.7,4.4
		C129.7,129.5,117.3,128.9,117.3,128.9z"/>
	<path class="st9" d="M253.7,117.8c0,0,1.7,10.8-5.8,17c-7.4,6.3-49.7,45.1-49.7,45.1s-73.6,63.7-92.3,73.6
		c-18.7,9.9-27.7,7.4-29,5.3c-1.2-1.8-5.3-7.4-6.7-10.4c-0.2-0.4-0.4-0.8-0.5-1.1c-0.4-1.4-0.6-2.5,0.4-3.4
		c4,0.2,15.5-1.3,43.3-21.9c36.4-27.1,62.6-62.7,79.7-79.1c17-16.3,31.5-28.2,41.9-43c0.1-0.1,0.2-0.1,0.3,0l2.6,2.7L253.7,117.8z"
		/>
	<path class="st10" d="M247.9,134.8c-7.4,6.3-49.7,45.1-49.7,45.1s-73.6,63.7-92.3,73.6c-18.7,9.9-27.7,7.3-29,5.3
		c-0.6-0.9-1.9-2.7-3.2-4.7c-1.4-2-2.7-4.2-3.5-5.6c3-0.2,8-1.4,16.3-5.4c18.9-8.9,57.9-38.9,73.3-58c15.4-19.1,46-50.4,59.2-61.4
		c9.7-8.2,16.1-15.9,18.9-21.2c0.1-0.2,0.4-0.3,0.6-0.1l8.8,8.9l1.7,1.8l2.5,2.5l2.2,2.1C253.7,117.8,255.3,128.6,247.9,134.8z"/>
	<polygon class="st10" points="207.4,153.1 207.9,156.3 223.6,141.8 223,139.5 	"/>
	<path class="st10" d="M247.9,117c-1.4,2.6-12.2,13.2-12.2,13.2l-1-2.1c0,0,9.8-9.9,11.5-13c1.8-3.1,0.9-3.7,1-3.7l1.7,1.8
		c0.1,0.2,0.1,0.2,0.1,0.2S249.3,114.4,247.9,117z"/>
	<path class="st11" d="M253.7,117.8c0,0,1.7,10.8-5.8,17c-7.4,6.3-49.7,45.1-49.7,45.1s-73.6,63.7-92.3,73.6
		c-18.7,9.9-27.7,7.4-29,5.3c-0.6-0.9-1.9-2.7-3.2-4.7c4.3,0.3,11,0.1,19.3-3c14.6-5.5,57.8-38,68.4-48c10.6-10,46.4-40.6,48.3-42.2
		c1.9-1.6,37-29.3,41.7-45.2c0.1-0.3,0.5-0.4,0.7-0.1L253.7,117.8z"/>
	<path class="st12" d="M124.2,93.1c0,0-7.4,2.2-8.9,3.7c-1.5,1.5,3.8,16.6,5.8,16.6s7.3-2,9.1-5.3
		C131.9,104.8,128.8,93.1,124.2,93.1z"/>
	<path class="st12" d="M133.1,89.9l5.7,13.3c0,0,26.7-7.1,30.5-13.3c3.8-6.2,5.7-14.6-3.3-12.8S133.1,89.9,133.1,89.9z"/>
	<path class="st13" d="M106.3,190c0,0-33.6,29.3-27.9,31.7c5.7,2.4,14.5-6.7,14.5-6.7s20.9-15.8,20.9-19.9
		C113.7,191,106.3,190,106.3,190z"/>
</g>
</svg>
