<?xml version="1.0" encoding="utf-8"?>
<!-- Generator: Adobe Illustrator 23.0.1, SVG Export Plug-In . SVG Version: 6.00 Build 0)  -->
<svg version="1.1" id="Layer_1" xmlns="http://www.w3.org/2000/svg" xmlns:xlink="http://www.w3.org/1999/xlink" x="0px" y="0px"
	 viewBox="0 0 321.7 321.7" style="enable-background:new 0 0 321.7 321.7;" xml:space="preserve">
<style type="text/css">
	.st0{fill:#FFFC99;}
	.st1{fill:#214918;}
	.st2{fill:#66D856;}
	.st3{fill:#2C771F;}
	.st4{fill:#B7E0F9;}
	.st5{fill:#FFFFFF;}
	.st6{fill:#DDD1E0;}
	.st7{fill:#E2345E;}
	.st8{fill:#5A555B;}
</style>
<g>
	<g>
		<g>
			<path class="st0" d="M87.1,161.8c0.1,0,11.2,2.5,10.5,2.3l13.4,2.9c0.9-11.5,6.6-84.2,13.8-93.1c2.8-3.4,3.8-7.3,2.3-11.5
				c-1.4-3.8-4-6-4.1-6.1c-0.1,0.1-14.7,6.3-21.9,20.5C94.3,89.7,88.3,150,87.1,161.8z"/>
			<path class="st0" d="M170.2,64c8.9,8.9,41.4,65.8,40.2,92.9c0,0,13.1-1.4,20.2-3.6h0c1.8-0.6,3.3-1.2,4-1.9
				c-4.3-15.2-21.6-80.5-33.5-90.6c-12.6-10.2-25.8-9.8-26-9.8c-0.1,0.1-4.8,4.1-6.1,8.1C168.4,60.9,168.6,62.6,170.2,64z"/>
		</g>
		<path class="st1" d="M126.5,54c0,0,4.3-0.4,15.4-1.6c11.2-1.1,33.2-1.5,33.2-1.5l-8.6,24.4l-41.9-1.5L126.5,54z"/>
		<path class="st2" d="M126.5,54c0,0,3.5,10.2,15.1,11.2c11.6,1,22.9-1.1,33.5-14.2l4.7,0.4c0.5,0.1,2,0.4,2.9,0.5
			c0,0,2.8,24.6,14.7,58.7c11.9,34.1,21.4,132.8,8.6,148.6c-12.8,15.7-25.3,5.9-23.7-4.3c1.6-10.2,6.3-34.3-1.8-47.8
			c-8.1-13.6-30.1-8-28.2,11c1.9,19,19.9,27.3,12.4,42c-7.5,14.7-20.9,10.8-27.6,1.9c-6.7-8.9-26.5-61.6-26.2-94.8
			c0.2-33.2,12-110.7,12-110.7L126.5,54z"/>
		<g>
			<path class="st3" d="M180,51.4c0,0-4.1-0.9-5.4-0.4c0,0-16.1,15.7-32.8,11.1c-9-2.5-15.3-7.7-15.4-8l-3.6,2.3
				c0.2,0.5,6.6,8.9,20.4,11.1C157.6,69.8,169.8,64,180,51.4z"/>
		</g>
		<path class="st0" d="M201.2,263.3c0,0-1.6-5.9-9.4-9.1c-7.8-3.2-9.3-2.6-9.3-2.6l1.7,11.6l5.3,3.8l6.7,0L201.2,263.3z"/>
		<path class="st0" d="M167.5,255.6c0,0-5.5-2.5-13.5-0.1c-8,2.4-8,11.9-8,11.9l5.4,2.2l7.9-2.9l7.2-7.7L167.5,255.6z"/>
		<path class="st3" d="M116.6,102.1c-2.1,15.7-6.5,50.6-6.3,66.5c1.2,30.5,12.1,68.2,23.9,90.6c7.3,13.1,20.1,14.7,27.4,7.1
			c14.2-14.7-0.4-26.4-5.5-38.6c-8.1-18.6,3.8-29.5,15.1-26.4c8.5,2.3,10.7,11.8,10.6,11.7c0,0.1,0.9,3.1,0.8,2.9
			c2.8,16.6,0.2,25.2-1.5,39c-0.4,9.5,5.7,14.4,12.7,13.5c6.4-0.8,14.7-6.6,17.3-19.6c1.8-9,2.8-24.5,0.9-52.2
			c-4.3-62.9-15.9-89.1-18.7-98.2c2.2,7.5,13.4,34.2,17.1,98.3c0.6,11,1.7,36.1-1.4,51.5c-2.6,12.8-10.9,17.3-15.7,18
			c-6.5,0.9-10.9-4.2-9.6-12.9c3-18.5,6.4-49.3-11.9-54.2c-5.8-1.6-12.2,0.1-16.5,4.7c-11.8,13,3.1,33.1,6.9,39.6
			c3.9,7,5.2,13.8-2.2,21.5c-3.9,4.1-9,5-14.1,2.9c-7.9-3.3-11.9-10.8-20.3-34.2C107.9,182.6,109.8,163.1,116.6,102.1z"/>
	</g>
	<g>
		<g>
			<path class="st4" d="M137.8,109l12.2-1.1l-0.8-24.4c-0.1-3.5-3.9-6.1-8.2-5.7l0,0c-4.4,0.4-7.6,3.7-7,7.1L137.8,109z"/>
			<path class="st5" d="M140.2,108.2l7.3-0.7l-0.8-18.4c-0.1-2.6-2.4-4.6-5.1-4.4l0,0c-2.6,0.2-4.5,2.6-4.1,5.3L140.2,108.2z"/>
			<path class="st4" d="M156.6,107.3l12.2-1.1l-0.8-24.4c-0.1-3.5-3.9-6.1-8.2-5.7l0,0c-4.4,0.4-7.6,3.7-7,7.1L156.6,107.3z"/>
			<path class="st5" d="M159,106.7l7.3-0.7l-0.5-14.7c-0.1-2.1-2.3-3.7-5-3.4l0,0c-2.6,0.2-4.6,2.2-4.2,4.3L159,106.7z"/>
		</g>
		<path class="st4" d="M133.6,112.3c2.9-7.3,9.6-12.7,18-13.5c9-0.8,17.2,4,21.1,11.6c-8.2,2.6-14.1,10.2-15.1,19.2l-5.9,0.6
			C149.6,120.7,142.3,113.7,133.6,112.3z"/>
		<path class="st4" d="M157.6,129.5c-0.2,1.6-0.2,3.2,0,4.9c0.2,2.4,0.8,4.7,1.7,6.9c-1.1,0.1-2.3,0.2-3.6,0.2c-1.5,0-2.9,0.1-4.2,0
			c0.7-2.7,1-5.6,0.7-8.6c-0.1-1-0.3-2-0.5-3L157.6,129.5z"/>
		<path class="st6" d="M172.7,110.3c1.2,2.4,2,5,2.3,7.8c1,11.1,2,21.4-15.7,23.2c-0.9-2.1-1.4-4.5-1.7-6.9
			C156.5,123.3,163,113.4,172.7,110.3z"/>
		<path class="st6" d="M132.1,122.2c-0.3-3.5,0.2-6.9,1.4-9.9c9.7,1.5,17.5,9.9,18.6,20.8c0.3,3,0,5.9-0.7,8.6
			C134,141.1,133.2,133.2,132.1,122.2z"/>
		<path class="st5" d="M150.8,129.5c1.6-0.2,3.2,0.3,4.3,1.2c0.9-1.1,2.4-1.8,4-2c3.1-0.3,5.9,1.7,6.1,4.4c0.3,2.7-2.1,5.2-5.2,5.5
			c-1.6,0.2-3.2-0.3-4.3-1.2c-0.9,1.1-2.4,1.8-4,2c-3.1,0.3-5.9-1.7-6.1-4.4C145.4,132.2,147.7,129.7,150.8,129.5z"/>
		<path class="st7" d="M151.6,129.3c0.1,1.2,3.1,3.4,3.7,3.3c0.1,0,0.2-0.1,0.4-0.2c0.9-0.7,2.5-2.6,2.6-3.6c0,0,0-0.1,0-0.1
			c-0.1-1.2-1.7-2-3.6-1.8C152.9,127.1,151.5,128.2,151.6,129.3z"/>
		<path class="st8" d="M143.6,125.7c-1.5,0.1-2.7,0.7-3.4,1.5c-0.4-0.3-0.7-0.7-0.7-1.2c-0.1-1.3,1.6-2.6,3.9-2.8
			c2.3-0.2,4.2,0.7,4.3,2c0,0.5-0.1,0.9-0.5,1.3C146.5,125.9,145.1,125.5,143.6,125.7z"/>
		<path class="st8" d="M166,123.6c-1.5,0.1-2.7,0.7-3.4,1.5c-0.4-0.3-0.7-0.7-0.7-1.2c-0.1-1.3,1.6-2.6,3.9-2.8
			c2.3-0.2,4.2,0.7,4.3,2c0,0.5-0.1,0.9-0.5,1.3C168.8,123.8,167.5,123.4,166,123.6z"/>
	</g>
</g>
</svg>
