<?xml version="1.0" encoding="utf-8"?>
<!-- Generator: Adobe Illustrator 23.0.1, SVG Export Plug-In . SVG Version: 6.00 Build 0)  -->
<svg version="1.1" id="Layer_1" xmlns="http://www.w3.org/2000/svg" xmlns:xlink="http://www.w3.org/1999/xlink" x="0px" y="0px"
	 viewBox="0 0 321.7 321.7" style="enable-background:new 0 0 321.7 321.7;" xml:space="preserve">
<style type="text/css">
	.st0{fill:#FFFC99;}
	.st1{fill:#CC1C05;}
	.st2{fill:#FF831D;}
	.st3{fill:#FF491F;}
	.st4{fill:#FF3312;}
	.st5{fill:#FFFFFF;}
	.st6{fill:#D65600;}
	.st7{fill:#48384C;}
	.st8{fill:#272528;}
</style>
<g>
	<g>
		<path class="st0" d="M87.2,162.7c0.1,0,11.2,2.3,10.5,2.2l13.4,2.8c0.8-11.5,5.6-84.2,12.7-93.2c2.7-3.4,3.7-7.4,2.2-11.5
			c-1.4-3.7-4.1-5.9-4.2-6.1c-0.1,0.1-14.6,6.4-21.6,20.7C93.6,90.6,88.3,150.9,87.2,162.7z"/>
		<path class="st0" d="M169.2,64c9,8.8,42.1,65.2,41.2,92.3c0,0,13.1-1.5,20.1-3.8h0c1.8-0.6,3.3-1.2,3.9-1.9
			c-4.5-15.1-22.5-80.1-34.5-90.1c-12.7-10.1-25.9-9.5-26-9.5c-0.1,0.1-4.7,4.1-6,8.1C167.3,60.9,167.5,62.7,169.2,64z"/>
	</g>
	<path class="st1" d="M125.4,54.6c0,0,4.3-0.5,15.4-1.8c11.1-1.3,33.2-1.8,33.2-1.8l-8.3,24.5l-41.9-1L125.4,54.6z"/>
	<path class="st2" d="M125.4,54.6c0,0,3.7,10.1,15.2,11c11.6,0.8,22.8-1.4,33.3-14.6l7.5,0.8c0,0,3.1,24.5,15.4,58.4
		c12.3,33.9,22.9,132.4,10.3,148.3c-12.6,15.8-25.2,6.2-23.7-4c1.4-10.2,5.9-34.3-2.3-47.8c-8.3-13.5-30.2-7.6-28,11.3
		c2.2,19,20.2,27,12.8,41.8c-7.4,14.8-20.8,11-27.5,2.2c-6.8-8.8-27.1-61.3-27.3-94.4c-0.2-33.1,10.7-110.7,10.7-110.7L125.4,54.6z"
		/>
	<g>
		<path class="st3" d="M178.8,51.4c0,0-4.1-0.9-5.4-0.4c0,0-15.9,15.9-32.6,11.5c-9-2.4-15.3-7.5-15.5-7.9l-3.6,2.3
			c0.2,0.5,6.7,8.8,20.5,10.9C156.6,70,168.7,64.1,178.8,51.4z"/>
	</g>
	<path class="st0" d="M202.4,262.7c0,0-1.7-5.9-9.5-9c-7.8-3.1-9.3-2.5-9.3-2.5l1.8,11.5l5.4,3.7l6.7,0L202.4,262.7z"/>
	<path class="st0" d="M168.6,255.5c0,0-5.5-2.4-13.5,0.1c-8,2.5-7.9,12-7.9,12l5.4,2.2l7.9-3l7.1-7.7L168.6,255.5z"/>
	<path class="st3" d="M116,102.7c-2,15.7-6,50.6-5.5,66.5c1.6,30.5,12.9,68,24.9,90.2c7.4,13,20.2,14.5,27.4,6.7
		c14-14.8-0.7-26.4-5.9-38.5c-8.3-18.4,3.4-29.5,14.7-26.5c8.5,2.2,10.8,11.7,10.7,11.5c0,0.1,0.9,3.1,0.8,2.9
		c3,16.5,0.5,25.2-1,38.9c-0.5,13.9,12.9,17.6,22.4,8.4c4-3.9,5.2-6.4,6.2-9.4c2.5-7.6,4.4-23.3,1.7-57.6
		c-5-62.7-16.9-88.8-19.8-97.8c2.3,7.5,13.8,34,18.2,97.9c0.8,12.4,2.5,42.6-2.2,56.8c-0.8,2.3-1.9,5.2-5.9,8.6
		c-10.2,8.6-19.7,3.5-18-8.7c2.8-18.5,5.8-49.3-12.5-54c-5.8-1.5-12.2,0.2-16.4,4.9c-11.6,13.2,3.5,33,7.3,39.5
		c4,6.9,5.4,13.7-1.9,21.5c-3.9,4.1-9,5.1-14,3c-7.9-3.2-12-10.6-20.7-33.9C108.3,183.2,109.9,163.7,116,102.7z"/>
	<g>
		<g>
			<path class="st4" d="M166.8,77.3c7.4,7,11.1,15.8,11,24c-5.6-4.8-14.7-6.6-23.4-2.6C155.2,91.3,159.3,83.3,166.8,77.3z"/>
			<g>
				<path class="st5" d="M173.9,98.5c0-4.9-1.7-10.1-4.8-14.5l-0.3-0.4l-0.4,0.2c-5.3,3.1-9.1,7.9-10.4,13.2l0.9,0.2
					c1.2-4.9,4.6-9.4,9.5-12.4c2.8,4.2,4.4,9,4.4,13.6L173.9,98.5z"/>
			</g>
			<path class="st4" d="M134.3,81.4c-4.3,9.2-4.4,18.8-1.3,26.3c3.5-6.5,11.2-11.6,20.8-11.1C150.4,90.1,143.6,84.2,134.3,81.4z"/>
			<g>
				<path class="st5" d="M135.6,103.7l0.9-0.4c-1.7-4.3-2-9.3-1-14.2c5.7,1,10.5,3.9,13.5,8l0.8-0.5c-3.1-4.5-8.4-7.6-14.5-8.5
					l-0.4-0.1l-0.1,0.4C133.5,93.7,133.8,99.1,135.6,103.7z"/>
			</g>
		</g>
		<path class="st6" d="M132.2,111.4c0,0.3,0.1,0.7,0.2,1c1.9,6.8,14.9,17.4,22.2,21.2l0,0c1.8,0.9,3.3,1.4,4.1,1.3
			c0.6-0.1,1.6-0.7,2.8-1.7c6-4.8,17.8-18.6,18.3-25.9c0-0.4,0-0.7,0-1c-0.9-8.3-12.3-13.9-25.4-12.5
			C141.3,95.3,131.4,103.2,132.2,111.4z"/>
		<path class="st5" d="M160.7,129c0.2,1.5,0.5,2.9,1,4.3c6-4.8,17.8-18.6,18.3-25.9l-0.1,0C168.1,108.7,159.5,118.3,160.7,129z"/>
		<path class="st5" d="M132.5,112.5c1.9,6.8,14.9,17.4,22.2,21.2l0,0c0.2-1.3,0.2-2.6,0-4C153.6,119.3,143.8,111.8,132.5,112.5z"/>
		<path class="st7" d="M154,130.4c0.9-1.7,7.1-2.2,8.6-0.9c1.4,1.3-1.5,6.5-3.6,6.8C156.8,136.5,153.1,132.1,154,130.4z"/>
		<path class="st8" d="M170.1,116.2c-1.5,0.2-2.7,0.8-3.3,1.5c-0.4-0.3-0.7-0.7-0.7-1.2c-0.1-1.3,1.6-2.6,3.8-2.8
			c2.2-0.2,4.1,0.6,4.3,1.9c0,0.4-0.1,0.9-0.5,1.3C172.9,116.3,171.5,116,170.1,116.2z"/>
		<path class="st8" d="M143.4,119c-1.5,0.2-2.7,0.8-3.3,1.5c-0.4-0.3-0.7-0.7-0.7-1.2c-0.1-1.3,1.6-2.6,3.8-2.8
			c2.2-0.2,4.1,0.6,4.3,1.9c0,0.4-0.1,0.9-0.5,1.3C146.1,119.2,144.8,118.8,143.4,119z"/>
	</g>
</g>
</svg>
