<?xml version="1.0" encoding="utf-8"?>
<!-- Generator: Adobe Illustrator 23.0.1, SVG Export Plug-In . SVG Version: 6.00 Build 0)  -->
<svg version="1.1" id="Layer_1" xmlns="http://www.w3.org/2000/svg" xmlns:xlink="http://www.w3.org/1999/xlink" x="0px" y="0px"
	 viewBox="0 0 321.7 321.7" style="enable-background:new 0 0 321.7 321.7;" xml:space="preserve">
<style type="text/css">
	.st0{fill:#721212;}
	.st1{fill:#57556D;}
	.st2{fill:#50E530;}
	.st3{fill:#F9820B;}
	.st4{fill:#7FF4F1;}
	.st5{fill:#FFFFFF;}
	.st6{opacity:0.37;fill:#574F59;}
	.st7{fill:#D31C1C;}
</style>
<g>
	<path d="M66.5,213.4c0,0,13.4-24.5,19.1-47.6c5.7-23.1,22.6-74,22.6-74L124,120L93.6,222.5C93.6,222.5,66.4,218.4,66.5,213.4z"/>
	<path d="M228.1,97.6c0,0,28.6,118.7,26.3,120.8c-2.3,2.1-21.9,4.8-21.9,4.8c-6.9-7.3-18.8-89-18.8-89l11.3-29.9L228.1,97.6z"/>
	<path d="M139.3,71.2c0,0,33.3,15.9,60.8,1.8l28,24.6l-14.4,36.6L225,241.3c0,0-77.6,22.6-127.7-3.7l11.6-74.3L139.3,71.2z"/>
	<path class="st0" d="M139.3,71.2c20.1,6.3,33,6,34.2,6.2c1.3,0,2.6-0.1,3.8-0.1c1.8,0.1,6.9-0.4,7.7-0.6c5.1-0.6,10-2.1,15-3.8
		c-4.5,2.8-9.4,4.9-14.7,6c-5.2,1.1-10.6,1.5-15.9,1.1C157.7,79.3,146.9,75.7,139.3,71.2z"/>
	<path class="st1" d="M231.7,233.8c-0.5,2.4-1.1,3.8-1.6,4.3c-2.6,2.4-5.1,3.2-5.1,3.2c-4.6-3.3-9.6-6-15-8.2l0,0
		c-7.9-3.4-21.9-6.7-36.2-7.1c-16.3-0.7-33.9,1.3-49.8,4.6c-15.8,3.2-26.6,6.9-26.6,6.9c-4.9-5.1-2.6-22.8-1.3-29.7
		c5.7-33.1,12.9-38.7,17.1-60.2c3.1-17.2,0.6-38.8-4.6-54.8c-0.2-0.7-0.3-1-0.3-1c0.2-0.1,31.2-20.8,31-20.7
		c0.1,0.1,1.5,10.1,9.5,16.8c4.8,4,11.9,6.9,22.5,5.7c9.8-1.1,20.4-4.4,25.8-12.7c1.8-2.8,2.5-5.3,2.8-6.7c0.2-0.8,0.2-1.3,0.2-1.3
		c0.2,0.2,9.9,8.7,9.6,8.4c0.4,0.4,18.3,16.1,18.5,16.2c-0.2,0.3-2.3,2.5-4.6,10.9c-3.8,12.9-2.8,30.7-0.8,44.1
		C225.1,168.1,235.8,212.4,231.7,233.8z"/>
	<g>
		<path class="st2" d="M139.6,72.5c0.4,1.5,1.1,4,2.5,6.9L127.6,79l9.8-6.5L139.6,72.5z"/>
		<path class="st2" d="M209.7,81.4L197.1,81c1.8-2.8,2.5-5.3,2.8-6.7l1.7,0.1L209.7,81.4z"/>
		<path class="st3" d="M227.6,97.1l-118.7-3.5c-0.1-0.3-0.2-0.5-0.2-0.7c-0.2-0.7-0.3-1-0.3-1l7.3-4.9l33.3,1
			c4.8,4,11.9,6.9,22.5,5.7c7.1-0.8,12.5-2.5,16.5-4.6l31.7,0.9L227.6,97.1z"/>
		<path class="st4" d="M224.5,105.4c-0.6,1.9-1.3,4.1-1.9,6.8l-110-3.2c-0.5-2.5-0.9-4.8-1.4-6.9L224.5,105.4z"/>
		<path class="st3" d="M221.4,120.5c-0.2,2.1-0.3,4.4-0.4,6.8l-106.6-3.1c-0.1-2.4-0.3-4.7-0.6-6.8L221.4,120.5z"/>
		<path class="st5" d="M221.5,142.4l-107.3-3.1c0.2-2.3,0.3-4.6,0.3-6.8l106.5,3.1C221.2,137.8,221.3,140,221.5,142.4z"/>
		<path class="st4" d="M223.6,157.7l-111.9-3.3c0.5-2.1,1.1-4.5,1.5-6.8l109.2,3.2C222.7,152.2,223,154.5,223.6,157.7z"/>
		<path class="st2" d="M226.5,172.9l-119.8-3.5c1.3-3.6,2.3-6.2,2.5-6.7l116,3.4C225.7,168.4,226.1,170.7,226.5,172.9z"/>
		<path class="st3" d="M229.2,188.2l-127.7-3.8c0.7-2.2,1.4-4.5,2.2-6.7l124.4,3.7C228.4,183.7,228.8,186,229.2,188.2z"/>
		<path class="st4" d="M231.4,203.4l-133.7-3.9c0.5-2.2,0.9-4.4,1.5-6.7l131.3,3.9C230.8,199,231.1,201.3,231.4,203.4z"/>
		<path class="st5" d="M232.6,218.6l-137.5-4c0.2-2.2,0.5-4.5,1-6.8l136.1,4C232.4,214.3,232.5,216.6,232.6,218.6z"/>
		<path class="st2" d="M232.5,227c-0.1,2.8-0.5,5.1-0.8,6.8l-21.7-0.6c-27.6-11.1-62.5-7.3-86-2.5l-29.3-0.9c-0.2-2-0.3-4.3-0.2-6.8
			L232.5,227z"/>
	</g>
	<path class="st6" d="M107.5,112.4c0,0,2,32.2-1.2,41.6c-3.2,9.4-17.1,60.6-22.9,57.9c-5.8-2.7-8.5-30.3,5.3-43.3
		C102.4,155.6,102.2,114.6,107.5,112.4z"/>
	<path class="st7" d="M139.3,71.2c4.7,13.8,14.8,21.4,29.3,20.5c5.6-0.2,13.2-1.7,19-4.4c6-2.9,11-7.9,12.5-14.3c0.2,3.5-1.1,7-3,10
		c-4.1,6.2-10.6,9.4-17.7,11.5c-10.7,2.7-22.6,2.7-30.9-4.6C142.8,85,139.7,78,139.3,71.2z"/>
</g>
</svg>
