<?xml version="1.0" encoding="utf-8"?>
<!-- Generator: Adobe Illustrator 23.0.1, SVG Export Plug-In . SVG Version: 6.00 Build 0)  -->
<svg version="1.1" id="Layer_1" xmlns="http://www.w3.org/2000/svg" xmlns:xlink="http://www.w3.org/1999/xlink" x="0px" y="0px"
	 viewBox="0 0 321.7 321.7" style="enable-background:new 0 0 321.7 321.7;" xml:space="preserve">
<style type="text/css">
	.st0{fill:#510F56;}
	.st1{fill:#C161D8;}
	.st2{fill:#823D93;}
	.st3{opacity:0.42;fill:#C161D8;}
	.st4{fill:#7F2096;}
	.st5{fill:#F2E977;}
	.st6{fill:#B746CE;}
</style>
<g>
	<path class="st0" d="M131.1,54.3c0,0,14,26.5,30.4,22.8c16.4-3.8,30.2-24.3,30.2-24.3l12.5,3.6l-12.6,36.9L131.3,95l-13.6-36.7
		L131.1,54.3z"/>
	<path class="st1" d="M136,83.9l54.2-1.6l26.7,57.3c0,0,14.9,63.5,0.6,128.3l-35.2-1.4c0,0,11.6-26.2-4.4-37.2
		c-16-11.1-28.7,1.9-31.3,10.8c-2.6,8.9,0,25.6,0,25.6l-40.4,3.1c0,0-7.9-102.3,0.6-131.2C107.2,136,136,83.9,136,83.9z"/>
	<path class="st2" d="M182.3,266.5c4.1-12,5.9-28.2-4.3-35.7c-3.4-2.4-7.3-4.3-11.4-4.5c-6.5-0.3-12,3-15.8,8.1
		c-4,5.3-4.5,10.5-4.6,18.2c-0.1,4.4,0.2,8.7,0.5,13.1c-1.5-7.4-2.8-19.1-0.7-26.4c0.7-2.2,1.8-4.3,3.1-6.1
		c4.7-6.6,11.2-9.6,17.8-9.3c4.7,0.4,9,2.4,12.7,5.2c7.6,5.9,8.8,15.6,7,25C185.5,258.3,184.2,262.6,182.3,266.5z"/>
	<path class="st2" d="M190.2,82.3c8,15.8,19.9,40.5,27.8,57c12.2,55.1,4.2,104.1,4.2,104.8c0,0.1-2.2,12.8-2,12
		c0,0.1-2.8,12.6-2.6,11.8c2.9-17.1,4.5-29.4,5-48.1c0-5.4,0.2-10.7,0.1-16.1c-0.3-20.8-2.8-45.2-6.7-63.9l0.1,0.2
		c-3.6-7.8-14.6-32.1-19.4-43.2C194.4,92,192.2,87.1,190.2,82.3z"/>
	<path class="st2" d="M106.1,268.8c-3.4-30.7-6.9-92.4-2.2-123.5c0.3-1.9,1.3-7.4,2.2-9.1c4.5-8.7,23.1-41.2,29.8-52.4
		c-4.6,9.2-27.8,53.2-27.9,53.4c-0.9,1.5-2.1,9.7-2.3,11.4c-2.9,24.2-1.5,71.5-0.6,96.1C105.4,252.8,105.8,260.8,106.1,268.8z"/>
	<path class="st3" d="M145.2,94.2c0,0-33.9,27.3-25.5,36.2c8.4,8.9,78.1,9.7,78.3,4.1c0.2-5.6-5.9-32-11.5-37.9
		C181,90.7,145.2,94.2,145.2,94.2z"/>
	
		<rect x="129" y="107.5" transform="matrix(0.9997 -2.394664e-02 2.394664e-02 0.9997 -2.8905 3.9011)" class="st4" width="64.8" height="30.4"/>
	<g>
		<path class="st5" d="M131.9,114.5c0.3,0,0.6-0.3,0.6-0.6l-0.1-3.1c0-0.3-0.3-0.6-0.6-0.6c-0.3,0-0.6,0.3-0.6,0.6l0.1,3.1
			C131.3,114.3,131.6,114.6,131.9,114.5z"/>
		<path class="st5" d="M132.2,125.9c0.3,0,0.6-0.3,0.6-0.6l-0.1-5.7c0-0.3-0.3-0.6-0.6-0.6c-0.3,0-0.6,0.3-0.6,0.6l0.1,5.7
			C131.6,125.7,131.9,125.9,132.2,125.9z"/>
		<path class="st5" d="M135.5,133.4l-2.5,0.1L133,131c0-0.3-0.3-0.6-0.6-0.6c-0.3,0-0.6,0.3-0.6,0.6l0.1,3.7l3.7-0.1
			c0.3,0,0.6-0.3,0.6-0.6C136.1,133.7,135.8,133.4,135.5,133.4z"/>
		<path class="st5" d="M158.1,132.9l-5.6,0.1c-0.3,0-0.6,0.3-0.6,0.6c0,0.3,0.3,0.6,0.6,0.6l5.6-0.1c0.3,0,0.6-0.3,0.6-0.6
			C158.7,133.1,158.4,132.9,158.1,132.9z"/>
		<path class="st5" d="M146.8,133.1l-5.6,0.1c-0.3,0-0.6,0.3-0.6,0.6c0,0.3,0.3,0.6,0.6,0.6l5.6-0.1c0.3,0,0.6-0.3,0.6-0.6
			C147.4,133.4,147.1,133.1,146.8,133.1z"/>
		<path class="st5" d="M180.7,132.3l-5.6,0.1c-0.3,0-0.6,0.3-0.6,0.6c0,0.3,0.3,0.6,0.6,0.6l5.6-0.1c0.3,0,0.6-0.3,0.6-0.6
			C181.3,132.6,181,132.3,180.7,132.3z"/>
		<path class="st5" d="M169.4,132.6l-5.6,0.1c-0.3,0-0.6,0.3-0.6,0.6c0,0.3,0.3,0.6,0.6,0.6l5.6-0.1c0.3,0,0.6-0.3,0.6-0.6
			C170,132.9,169.7,132.6,169.4,132.6z"/>
		<path class="st5" d="M189.4,129c-0.3,0-0.6,0.3-0.6,0.6l0.1,2.5l-2.5,0.1c-0.3,0-0.6,0.3-0.6,0.6c0,0.3,0.3,0.6,0.6,0.6l3.7-0.1
			l-0.1-3.7C190,129.3,189.7,129,189.4,129z"/>
		<path class="st5" d="M189.1,117.6c-0.3,0-0.6,0.3-0.6,0.6l0.1,5.7c0,0.3,0.3,0.6,0.6,0.6c0.3,0,0.6-0.3,0.6-0.6l-0.1-5.7
			C189.7,117.9,189.4,117.6,189.1,117.6z"/>
		<path class="st5" d="M188.9,108.8c-0.3,0-0.6,0.3-0.6,0.6l0.1,3.1c0,0.3,0.3,0.6,0.6,0.6c0.3,0,0.6-0.3,0.6-0.6l-0.1-3.1
			C189.5,109.1,189.2,108.8,188.9,108.8z"/>
	</g>
	<g>
		<path class="st6" d="M102.1,153.4c-3-0.9-5.2-3.6-5.2-6.9c0-4,3.2-7.2,7.2-7.2c31.6,0.1,95.6-0.7,111.8-4.1
			c3.9-0.8,7.7,1.7,8.5,5.5c0.8,3.9-1.7,7.7-5.5,8.5c-21.7,4.6-111,4.4-114.8,4.4C103.4,153.7,102.8,153.6,102.1,153.4z"/>
	</g>
	<path class="st2" d="M117.9,163.3c-0.1,2.8-2.4,5-5.2,4.9c-2.8-0.1-5-2.4-4.9-5.2c0.1-2.8,2.4-5,5.2-4.9
		C115.8,158.2,118,160.6,117.9,163.3z"/>
	<path class="st2" d="M118,183.2c-0.1,2.8-2.4,5-5.2,4.9c-2.8-0.1-5-2.4-4.9-5.2c0.1-2.8,2.4-5,5.2-4.9
		C115.9,178,118.1,180.4,118,183.2z"/>
	<path class="st2" d="M217.1,161.4c-0.1,2.8-2.4,5-5.2,4.9c-2.8-0.1-5-2.4-4.9-5.2c0.1-2.8,2.4-5,5.2-4.9
		C215,156.3,217.2,158.6,217.1,161.4z"/>
	<path class="st2" d="M217.3,181.2c-0.1,2.8-2.4,5-5.2,4.9c-2.8-0.1-5-2.4-4.9-5.2c0.1-2.8,2.4-5,5.2-4.9
		C215.1,176.1,217.3,178.4,217.3,181.2z"/>
	<path class="st3" d="M122.4,192.7c0,0-17.6-0.9-15.2,12.6c2.4,13.5-2,46.2,5.7,54.3c7.6,8.1,12.6,3.5,17.9-1.5
		C136.2,253,143.2,193.3,122.4,192.7z"/>
</g>
</svg>
