<?xml version="1.0" encoding="utf-8"?>
<!-- Generator: Adobe Illustrator 23.0.1, SVG Export Plug-In . SVG Version: 6.00 Build 0)  -->
<svg version="1.1" id="Layer_1" xmlns="http://www.w3.org/2000/svg" xmlns:xlink="http://www.w3.org/1999/xlink" x="0px" y="0px"
	 viewBox="0 0 321.7 321.7" style="enable-background:new 0 0 321.7 321.7;" xml:space="preserve">
<style type="text/css">
	.st0{fill:#EF5826;}
	.st1{fill:#12826D;}
	.st2{fill:#1EBCA0;}
	.st3{opacity:0.47;fill:#3EA486;}
	.st4{fill:#3CDDD5;}
	.st5{opacity:0.24;fill:#58B1AF;}
	.st6{fill:#26EFCB;}
	.st7{fill:#1EA58B;}
	.st8{fill:#4ED1AA;}
	.st9{fill:#A6F2EA;}
	.st10{opacity:0.24;fill:#4ED1AA;}
	.st11{fill:#26D1CB;}
	.st12{fill:#43A895;}
	.st13{fill:#6FF2DA;}
	.st14{opacity:0.53;fill:#A6F2EA;}
</style>
<g>
	<polygon class="st0" points="83.3,228.5 82.3,245 85.9,245.2 86.6,228.1 	"/>
	<path class="st1" d="M241.7,157.6c0,0,5.1,2.2,13.2-9.4s18.7-22.3,17.6-23.4c-6.4-6.4-28.6,4.7-32.3,14.8
		C236.4,149.7,241.7,157.6,241.7,157.6z"/>
	<path class="st2" d="M49.2,121.4c-0.6,0.7,5.4,15.3,13.6,23.4c8.1,8.1,13.9,12.4,16.5,10.3c2.8-2.3-2.6-18.9-14.3-28.5
		C53.4,117.1,49.2,121.4,49.2,121.4z"/>
	<path class="st2" d="M137.9,53c0,0,26.3,7.2,50.8,2.1c0,0-17,47-13.1,79.8c3.9,32.7-0.2,127.1-0.2,127.1h-50.2L137.9,53z"/>
	<path class="st3" d="M177.1,163.6c-12.2,32.9-29.8,70.6-51.1,84.7l-0.8,13.7h50.2C175.3,261.9,177.8,204.4,177.1,163.6z"/>
	<path class="st4" d="M49.2,121.4c0,0,30.1,14.6,30.1,33.7l12.4-9.3c0,0,19.9-45.6,18.7-58.9c-1.2-13.3-13.9-15.4-13.9-15.4
		L49.2,121.4z"/>
	<path class="st5" d="M108.8,98.2c-9.8,14-19.4,6.7-26.5,23.3c-2.1,4.9-7,9.8-12.7,14.3c5.4,5.4,9.7,12,9.7,19.3l12.4-9.3
		C91.7,145.8,104.4,116.7,108.8,98.2L108.8,98.2z"/>
	<path class="st6" d="M152.7,157.6c-3.2,23.3-11,122-11,122c-26.5-4.4-56.9-22.9-56.9-22.9l6.8-110.9c0,0-0.6-2.2,4.8-29.2
		c5.4-27,0-45.1,0-45.1L126.6,58l11.3-5l1.1,2.3c-0.2,7,0.1,15,2.1,19.9c4,10,11.6,8.5,11.6,8.5S156,134.3,152.7,157.6z"/>
	<path class="st7" d="M152.7,83.7c1,19.4,2.1,54.2-0.4,73.6c-3.3,24.8-9.1,97.1-10.9,121.9c-18.7-3.3-40.9-13.3-56.5-22.4
		c4.4,2.7,8.9,5.1,13.5,7.5c27.4,14.1,42.6,15.5,43.8,15.9c2.5-30.4,8.4-101.8,11.1-122.8C155.7,137.1,154.1,103.9,152.7,83.7z"/>
	<path class="st6" d="M233.8,259c0,0-30.8,17.6-57.4,21.2c0,0-5.5-98.9-8.2-122.3c-2.7-23.4,1.7-73.9,1.7-73.9
		c12.8-8,15.6-20.7,15.7-30.2l9.5,4.6l31.3,15.1c0,0-5.8,17.9-1,45.1C230.2,145.7,233.8,259,233.8,259z"/>
	<path class="st8" d="M139,60.4l-1.1-7.4l2.1-11.5c0,0,31.5,2.6,44.3,0l6.1,11.5l1.9,6.7L139,60.4z"/>
	<path class="st9" d="M152.7,83.7l-20.5,12.6c0,0-8.9-22.5-7.1-33.4c0.3-1.6,0.8-3.2,1.5-4.8c3.9-9,13.4-16.5,13.4-16.5
		s-0.8,6.3-1,13.8c-0.2,7,0.1,15,2.1,19.9C145.1,85.1,152.7,83.7,152.7,83.7z"/>
	<path class="st9" d="M195,66.2c-3.2,14.4-10.2,27.5-10.2,27.5l-15-9.8c12.8-8,15.6-20.7,15.7-30.2c0.1-7.1-1.4-12.3-1.4-12.3
		s9.1,6.7,10.9,16.9C195.6,60.8,195.6,63.4,195,66.2z"/>
	<path class="st10" d="M96.5,263.1c5.6-25,12.3-62.2,12.3-96.8c0-59.1-10.9-58.9-10.9-58.9c-0.4,2.9-0.8,6-1.5,9.2
		c-5.4,27-4.8,29.2-4.8,29.2l-6.8,110.9C84.9,256.7,89.4,259.5,96.5,263.1z"/>
	<path class="st10" d="M225.4,118.5c-1.4-7.9-1.9-15.1-1.9-21.2c-1.6,2-4.5,7.6-8.3,23.8c-3.9,16.6,5,91.1,11.8,141.5
		c4.2-2.1,6.7-3.5,6.7-3.5S230.2,145.7,225.4,118.5z"/>
	<path class="st11" d="M226.5,73.4l45.9,51.3c0,0-30.3,13.7-30.7,32.8l-14.1-20.4c0,0-15.7-9.7-14-28.9
		C215.3,89.1,226.5,73.4,226.5,73.4z"/>
	<path class="st12" d="M227.6,137.2c-10.5-6.7-16.1-17.8-14.4-30.4c1.4-12.2,6.8-24.6,13.3-33.4c-11.1,17.8-12.2,33.4-12.2,33.5
		C212.5,119.1,217.9,130,227.6,137.2z"/>
	<g>
		<polygon class="st13" points="135.5,145.7 119.2,154 101.9,143.4 104.2,109.8 137.8,112.1 		"/>
		<path class="st12" d="M135.1,145.3l-15.9,8l-16.7-10.2c0.4-5.8,1.3-21.6,1.7-33.3c-1.3,13.7-2.1,25.4-2.7,33.8
			c9.8,6.1,7.9,4.9,17.7,11c4.7-2.4,10.9-5.6,16.8-8.7c0.8-13.6,1.2-20.7,1.8-33.9C137.2,117.7,135.4,139.8,135.1,145.3z"/>
	</g>
	<polygon class="st13" points="212.9,147.1 197.7,157.4 179.3,148.9 177.5,115.3 211.1,113.5 	"/>
	<path class="st14" d="M130.6,55c-2.1,0.9-4.2,19.8,0,28c4.2,8.2,10.2,2.5,10.2,0C140.8,80.6,133.7,53.5,130.6,55z"/>
	<polygon class="st0" points="191.6,114.6 192,118.4 211.2,117.6 211.1,113.5 	"/>
	<path class="st12" d="M212.4,146.8l-14.8,9.9l-17.9-8.1c-0.3-5.8-1.4-21.5-2.3-33.3c0.4,13.7,1,25.5,1.4,33.9
		c10.5,4.9,8.4,3.9,18.9,8.7c4.4-3,10.1-6.9,15.7-10.7c-0.9-13.5-1.3-20.7-2.4-33.8C211.2,119.1,212.1,141.3,212.4,146.8z"/>
	<path class="st12" d="M148.2,97.5c0,1.1-0.9,2-2,2c-1.1,0-2-0.9-2-2c0-1.1,0.9-2,2-2C147.3,95.5,148.2,96.4,148.2,97.5z"/>
	<path class="st12" d="M151.2,128.7c0,1.1-0.9,2-2,2c-1.1,0-2-0.9-2-2c0-1.1,0.9-2,2-2C150.2,126.7,151.2,127.6,151.2,128.7z"/>
	<path class="st12" d="M148.5,162.7c0,1.1-0.9,2-2,2c-1.1,0-2-0.9-2-2c0-1.1,0.9-2,2-2C147.6,160.7,148.5,161.6,148.5,162.7z"/>
	<path class="st12" d="M144.4,197.8c0,1.1-0.9,2-2,2c-1.1,0-2-0.9-2-2c0-1.1,0.9-2,2-2C143.5,195.8,144.4,196.7,144.4,197.8z"/>
	<path class="st12" d="M140.3,243.9c0,1.1-0.9,2-2,2s-2-0.9-2-2c0-1.1,0.9-2,2-2S140.3,242.8,140.3,243.9z"/>
	<path class="st12" d="M224,134.2l1.3,31c3.9,86.6,8,89.2,8.5,93.8C226.4,231.9,224,162.1,224,134.2z"/>
	<path class="st4" d="M224,84c0,0,0.4,17.3,6.7,31.5c6.3,14.2,32.1,26.3,28.1,7.9C254.8,105.1,224.5,70.6,224,84z"/>
</g>
</svg>
