<?xml version="1.0" encoding="utf-8"?>
<!-- Generator: Adobe Illustrator 23.0.1, SVG Export Plug-In . SVG Version: 6.00 Build 0)  -->
<svg version="1.1" id="Layer_1" xmlns="http://www.w3.org/2000/svg" xmlns:xlink="http://www.w3.org/1999/xlink" x="0px" y="0px"
	 viewBox="0 0 321.7 321.7" style="enable-background:new 0 0 321.7 321.7;" xml:space="preserve">
<style type="text/css">
	.st0{fill:#16294C;}
	.st1{fill:#5A76A8;}
	.st2{fill:#3D5D84;}
	.st3{fill:#7FA1D3;}
	.st4{fill:#E2C676;}
</style>
<g>
	<path class="st0" d="M101.9,66.8c0,0-0.5-3.2,38.8-4.4c39.4-1.1,64.5-3.8,65.9,2s-49.5,37.9-72,25.3
		C112.1,77.2,101.9,66.8,101.9,66.8z"/>
	<path class="st1" d="M237.6,251.3l-43.1,8.1c0,0-12.5-86-33.9-90.9c-21.4-4.8-22.4,89.4-22.4,89.4l-51.7-2.6
		c0-0.4,3.5-153,15.4-188.6c2.4,0.2,19.5,3.1,48.8,4.7c23.1,1.1,47.5,0.3,55.9-7c4.6,20.4,22.9,100.3,25.2,121.1
		C234.4,208.7,237.6,251.3,237.6,251.3z"/>
	<path class="st2" d="M86.5,255.4c-0.1-15.8,0.1-31.6,0.6-47.4c0.9-29.3,4.6-113.7,14.8-141.2c-6.9,25-10.8,107.7-12.7,141.3
		L86.5,255.4z"/>
	<path class="st2" d="M160.6,168.6c-1-0.2-2-0.1-3,0.1c-9.9,2.5-13.5,30.7-14.8,41c-3,25-3.3,48.3-3.4,49.6
		c-1.3-0.1-32.4-1.9-52.8-3.9c20.4,0.1,50.3,1.3,51.7,1.4L137,258c0.1-18.2,2.7-78.1,17.7-88.3C156.4,168.5,158.3,168,160.6,168.6z"
		/>
	<path class="st2" d="M194.5,259.4c-4.8-22.1-11.4-52.4-19.4-71.8c-2.9-6.9-7.7-16.9-14.5-19c16.8,3.1,27.3,49.1,30.5,66.1
		C192.5,242.9,193.7,251.1,194.5,259.4z"/>
	<polygon class="st3" points="190.3,247.1 236.6,238.5 238.2,254.5 193,260.8 	"/>
	<polygon class="st3" points="83.5,244.1 140.6,246 139.3,259.3 85.1,257.7 	"/>
	<path class="st3" d="M210.8,83.2c-2.9,1.4-6.1,2.8-9.5,4.3c-11.6,5-25.6,6.6-40,6.1C137.9,93,113.7,87,98.3,82.5
		c0.2-0.9,0.3-1.8,0.5-2.7c12.2,3.6,30.1,8.1,48.7,10.1l0.5-18.5l2.6,0.1l-0.5,18.7c17.9,1.7,36.1,1,50.2-5.1c3.6-1.5,6.9-3,9.9-4.5
		C210.5,81.4,210.7,82.3,210.8,83.2z"/>
	<path class="st4" d="M165.5,84c-0.1,3.1-2.7,5.5-5.7,5.4c-3.1-0.1-5.5-2.7-5.4-5.7c0.1-3.1,2.7-5.5,5.7-5.4
		C163.1,78.4,165.6,80.9,165.5,84z"/>
	<g>
		<g>
			
				<rect x="199.9" y="86.3" transform="matrix(0.9813 -0.1925 0.1925 0.9813 -13.1579 40.3606)" class="st3" width="2.6" height="3.3"/>
		</g>
		<g>
			<path class="st3" d="M227.1,235.3c-0.3-2-0.7-4.2-1.1-6.6l2.6-0.4c0.4,2.4,0.7,4.7,1.1,6.6L227.1,235.3z M225,222.1
				c-0.3-2.1-0.7-4.3-1.1-6.6l2.6-0.4c0.4,2.3,0.8,4.5,1.1,6.6L225,222.1z M222.8,208.8c-0.4-2.2-0.8-4.4-1.1-6.6l2.6-0.5
				c0.4,2.3,0.8,4.5,1.1,6.6L222.8,208.8z M220.5,195.6c-0.4-2.2-0.8-4.4-1.2-6.6l2.6-0.5c0.4,2.2,0.8,4.4,1.2,6.6L220.5,195.6z
				 M218,182.3l-1.2-6.6l2.6-0.5l1.2,6.6L218,182.3z M215.5,169.1l-1.3-6.6l2.6-0.5l1.3,6.6L215.5,169.1z M213,155.9l-1.3-6.6
				l2.6-0.5l1.3,6.6L213,155.9z M210.5,142.6l-1.3-6.6l2.6-0.5l1.3,6.6L210.5,142.6z M207.9,129.4l-1.3-6.6l2.6-0.5l1.3,6.6
				L207.9,129.4z M205.4,116.2l-1.3-6.6l2.6-0.5l1.3,6.6L205.4,116.2z M202.8,103l-1.3-6.6l2.6-0.5l1.3,6.6L202.8,103z"/>
		</g>
		<g>
			<polygon class="st3" points="228.7,245.1 228.2,241.9 230.8,241.5 231.3,244.7 			"/>
		</g>
	</g>
	<g>
		<g>
			<path class="st3" d="M106.4,85.7l-2.6-0.3c0.3-2.1,0.4-3.3,0.4-3.3l2.6,0.3C106.8,82.4,106.7,83.6,106.4,85.7z"/>
		</g>
		<g>
			<path class="st3" d="M93.4,241.2c-0.2-2-0.4-4.2-0.5-6.5l2.6-0.2c0.1,2.3,0.3,4.5,0.5,6.4L93.4,241.2z M92.6,228.1
				c-0.1-2.1-0.1-4.3-0.1-6.5l2.6,0c0,2.2,0,4.4,0.1,6.5L92.6,228.1z M92.6,215.1c0-2.1,0.1-4.3,0.1-6.5l2.6,0.1
				c-0.1,2.2-0.1,4.4-0.1,6.5L92.6,215.1z M95.6,202.1L93,202c0.1-2.1,0.2-4.3,0.3-6.5l2.6,0.1C95.8,197.8,95.7,200,95.6,202.1z
				 M96.2,189.2l-2.6-0.2c0.1-2.2,0.3-4.3,0.4-6.5l2.6,0.2C96.5,184.9,96.4,187,96.2,189.2z M97.1,176.2l-2.6-0.2
				c0.2-2.2,0.3-4.3,0.5-6.5l2.6,0.2C97.4,171.9,97.3,174,97.1,176.2z M98.1,163.2l-2.6-0.2c0.2-2.2,0.4-4.3,0.6-6.5l2.6,0.2
				C98.5,158.9,98.3,161.1,98.1,163.2z M99.3,150.3l-2.6-0.2c0.2-2.2,0.4-4.3,0.6-6.5l2.6,0.3C99.7,146,99.5,148.1,99.3,150.3z
				 M100.5,137.4l-2.6-0.3c0.2-2.2,0.4-4.4,0.7-6.5l2.6,0.3C100.9,133,100.7,135.2,100.5,137.4z M101.8,124.4l-2.6-0.3
				c0.2-2.2,0.5-4.4,0.7-6.5l2.6,0.3C102.3,120.1,102.1,122.2,101.8,124.4z M103.3,111.5l-2.6-0.3c0.3-2.3,0.5-4.4,0.7-6.5l2.6,0.3
				C103.8,107.1,103.5,109.2,103.3,111.5z M104.8,98.6l-2.6-0.3c0.3-2.4,0.6-4.5,0.8-6.5l2.6,0.3C105.3,94,105.1,96.2,104.8,98.6z"
				/>
		</g>
		<g>
			<path class="st3" d="M95.2,251c-0.3-1-0.6-2.1-0.8-3.3l2.6-0.5c0.2,1.1,0.5,2.2,0.8,3.1L95.2,251z"/>
		</g>
	</g>
	<path class="st3" d="M119.7,69c0,0-3.2,11.4-0.6,18.9l4.6,1l0.6-19.4L119.7,69z"/>
	<path class="st3" d="M184.9,71l-0.6,21.3l5.4-1l0.6-21C190.3,70.3,186.8,69.3,184.9,71z"/>
	<path class="st2" d="M151.8,92.9c-1.5,29.1-4.2,57.3-1.2,64.5c3.3,6.3,11.3,7.5,18.4,6.9c-3.5,0.9-7.3,1.1-11,0.4
		c-1.8-0.4-3.6-1.1-5.3-2.1c-1.7-1-3-2.5-4-4.3c-0.9-1.9-1.2-3.7-1.5-5.6C145.2,137.3,148.8,108.3,151.8,92.9z"/>
</g>
</svg>
