<?xml version="1.0" encoding="utf-8"?>
<!-- Generator: Adobe Illustrator 23.0.1, SVG Export Plug-In . SVG Version: 6.00 Build 0)  -->
<svg version="1.1" id="Layer_1" xmlns="http://www.w3.org/2000/svg" xmlns:xlink="http://www.w3.org/1999/xlink" x="0px" y="0px"
	 viewBox="0 0 321.7 321.7" style="enable-background:new 0 0 321.7 321.7;" xml:space="preserve">
<style type="text/css">
	.st0{fill:#D8D8DA;}
	.st1{fill:#262127;}
	.st2{fill:#DD8787;stroke:#262127;stroke-width:3;stroke-miterlimit:10;}
	.st3{fill:#EBB0A0;}
</style>
<g>
	
		<ellipse transform="matrix(0.2107 -0.9776 0.9776 0.2107 -46.2238 272.9189)" class="st0" cx="145.9" cy="165.1" rx="13" ry="4.5"/>
	<path class="st1" d="M172.3,135.5c0-0.1-1.2-0.3-1.3-0.3c-3.2-0.7-6.5-1.2-9.9-1.2c-3.3-0.1-6.6,0.4-9.8,1.1
		c-0.5,0.1-0.9,0.2-1.4,0.3c-0.2,0-0.4,0.1-0.6,0.1c0,0-2.6,8.2,1.3,5.6c1.8-1.2,3.9-1.6,6-1.8c2.8-0.3,5.5-0.2,8.3,0
		c2.1,0.1,4.4,0.6,6.2,1.8C174.9,143.7,172.3,135.5,172.3,135.5z"/>
	<path class="st0" d="M171.4,166c1.5,7,4.7,12.2,7.1,11.7c2.4-0.5,3.1-6.6,1.6-13.6c-1.5-7-4.7-12.2-7.1-11.7
		C170.6,152.9,169.9,159,171.4,166z"/>
	<path class="st1" d="M48.3,127.3c2.6-1.8,40.1-5.5,53.6-5.1c13.5,0.4,39.6,5.7,45.5,11.1c5.9,5.4,2.3,13.5-1.4,16.7
		c-3.6,3.3-83.5,2.1-83.5,2.1l-6.6,0.2c0,0,0.6-5.7-1.5-8.1c-2-2.4-5.5-3.2-6.3-5.8C47.6,135.7,48.3,127.3,48.3,127.3z"/>
	<path class="st2" d="M67.6,135.5c6.9-8.8,28.3-8.9,38.5-8.2c10.2,0.6,26.8,1.8,34.8,12.1c8,10.4,7,32.7-3.3,44.2
		c-10.4,11.5-21.6,16.8-35.7,15.7c-14.1-1.1-27.8-6.7-34.2-22.6S60.9,144,67.6,135.5z"/>
	<path class="st3" d="M64.8,161.5c0.7,4.9,2.1,9.9,4.1,14.9c6.2,15.6,19.4,21.1,33,22.2c13.5,1.1,24.4-4.2,34.4-15.4
		c4.9-5.5,7.6-13.6,8.2-21.6H64.8z"/>
	<path class="st1" d="M273.3,127.3c-2.6-1.8-40.1-5.5-53.6-5.1c-13.5,0.4-39.6,5.7-45.5,11.1c-5.9,5.4-2.3,13.5,1.4,16.7
		c3.6,3.3,83.5,2.1,83.5,2.1l6.6,0.2c0,0-0.6-5.7,1.5-8.1c2-2.4,5.5-3.2,6.3-5.8C274.1,135.7,273.3,127.3,273.3,127.3z"/>
	<path class="st2" d="M254.1,135.5c-6.9-8.8-28.3-8.9-38.5-8.2c-10.2,0.6-26.8,1.8-34.8,12.1c-8,10.4-7,32.7,3.3,44.2
		c10.4,11.5,21.6,16.8,35.7,15.7c14.1-1.1,27.8-6.7,34.2-22.6C260.6,160.9,260.8,144,254.1,135.5z"/>
	<path class="st3" d="M256.8,161.5c-0.7,4.9-2.1,9.9-4.1,14.9c-6.2,15.6-19.4,21.1-33,22.2c-13.5,1.1-24.4-4.2-34.4-15.4
		c-4.9-5.5-7.6-13.6-8.2-21.6H256.8z"/>
</g>
</svg>
