<?xml version="1.0" encoding="utf-8"?>
<!-- Generator: Adobe Illustrator 23.0.1, SVG Export Plug-In . SVG Version: 6.00 Build 0)  -->
<svg version="1.1" id="Layer_1" xmlns="http://www.w3.org/2000/svg" xmlns:xlink="http://www.w3.org/1999/xlink" x="0px" y="0px"
	 viewBox="0 0 321.7 321.7" style="enable-background:new 0 0 321.7 321.7;" xml:space="preserve">
<style type="text/css">
	.st0{fill:#3C323B;}
	.st1{fill:#919BAA;stroke:#3C323B;stroke-width:2;stroke-miterlimit:10;}
	.st2{fill:#7A7989;}
</style>
<g>
	<path class="st0" d="M58.6,153.6h-4.4c-1.8,0-3.2-1.4-3.2-3.2l0,0c0-1.8,1.4-3.2,3.2-3.2h4.4c1.8,0,3.2,1.4,3.2,3.2l0,0
		C61.9,152.2,60.4,153.6,58.6,153.6z"/>
	<path class="st0" d="M263,153.6h4.4c1.8,0,3.2-1.4,3.2-3.2l0,0c0-1.8-1.4-3.2-3.2-3.2H263c-1.8,0-3.2,1.4-3.2,3.2l0,0
		C259.8,152.2,261.2,153.6,263,153.6z"/>
	<path class="st0" d="M201.5,126.1c-0.9-3-3.5-4.3-8-4.3c-4.4,0-32.7,0-32.7,0s-28.3,0-32.7,0c-4.4,0-7,1.3-8,4.3l10.7,1.3
		c0,0-0.9-3.3,5.6-3.4c6.5-0.1,24.4,0,24.4,0s17.9-0.1,24.4,0c6.5,0.1,5.6,3.4,5.6,3.4L201.5,126.1z"/>
	<path class="st0" d="M167.5,137.7c-3.9-0.2-5.2-0.1-6.6-0.1c-1.4,0-2.7-0.1-6.6,0.1s-7.5,1.7-8.5,3.7v3.1c0,0,3.9-4.4,7.6-5
		c3.7-0.6,5.8-0.4,7.6-0.4c1.7,0,3.9-0.2,7.6,0.4c3.7,0.6,7.6,5,7.6,5v-3.1C174.9,139.5,171.3,137.9,167.5,137.7z"/>
	<path class="st1" d="M58.4,150.3c2.2-10.2,4.8-17.4,14.1-22s22.6-5.7,34.8-5c12.2,0.7,27.9,0.7,36.4,9.8c8.5,9.1-0.9,30.9-4.8,36.1
		c-3.9,5.2-21.1,33.1-46.8,30.5c-25.7-2.6-30.2-18.3-31.8-24.1C58.6,169.9,56.7,157.9,58.4,150.3z"/>
	<path class="st1" d="M263.3,150.3c-2.2-10.2-4.8-17.4-14.1-22c-9.3-4.6-22.6-5.7-34.8-5c-12.2,0.7-27.9,0.7-36.4,9.8
		c-8.5,9.1,0.9,30.9,4.8,36.1c3.9,5.2,21.1,33.1,46.8,30.5c25.7-2.6,30.2-18.3,31.8-24.1C263.1,169.9,265,157.9,263.3,150.3z"/>
	<path class="st2" d="M68.4,188.6c4.5,4.6,11.8,8.8,23.9,10c25.3,2.5,42.2-24.9,46-30c3.2-4.3,10.4-20.5,7.4-30.7
		C105.6,141.8,74.1,162.5,68.4,188.6z"/>
	<path class="st2" d="M253.7,188.5c-4.5,4.6-11.8,8.8-23.9,10c-25.4,2.6-42.3-25-46.2-30.1c-3.3-4.3-10.5-20.6-7.4-30.9
		C216.4,141.6,248,162.4,253.7,188.5z"/>
</g>
</svg>
