<?xml version="1.0" encoding="utf-8"?>
<!-- Generator: Adobe Illustrator 23.0.1, SVG Export Plug-In . SVG Version: 6.00 Build 0)  -->
<svg version="1.1" id="Layer_1" xmlns="http://www.w3.org/2000/svg" xmlns:xlink="http://www.w3.org/1999/xlink" x="0px" y="0px"
	 viewBox="0 0 321.7 321.7" style="enable-background:new 0 0 321.7 321.7;" xml:space="preserve">
<style type="text/css">
	.st0{fill:#F49292;}
	.st1{fill:#AA6868;}
	.st2{fill:#894447;}
</style>
<g>
	<path class="st0" d="M101.7,122.9c10.7-0.1,28.7,3.8,33.3,4.4c4.6,0.6,22.4,5,25.8,5s4.2,15.6,1,15.8c-3.3,0.2-6.3-0.4-7.6,1.5
		c-1.3,1.9-7.4,26.6-18.5,36.3c-11.1,9.6-23.1,13.5-37.6,13c-14.4-0.6-28.5-5.4-34.8-19.8c-6.3-14.4-5-25.7-5.9-29.6
		c-0.9-3.9-5.9-3.9-6.5-6.5c-0.6-2.6,0.2-12.2,1.1-13.9c0.9-1.7,6.7-1.4,10.4-1.9C66.2,126.6,83.6,123,101.7,122.9z"/>
	<path class="st1" d="M105.2,127.1c12.3,0.9,26.6,3.5,32.2,7.6c5.6,4.1,9.5,6.5,7.5,18.4c-2,11.8-7.6,24.2-18.6,33.5
		c-11,9.4-37.5,7.4-47.6,0.9c-10.1-6.5-14.2-23.1-12.5-38.5s10.4-17.6,15-19.6C85.9,127.4,98.3,126.6,105.2,127.1z"/>
	<path class="st2" d="M82.3,129c-0.4,0.1-0.7,0.2-1,0.4c-4.7,2-13.3,4.2-15,19.6c-1.7,15.4,2.3,31.9,12.5,38.5
		c10.1,6.5,36.6,8.5,47.6-0.9c2.1-1.8,4-3.7,5.7-5.7C129.1,154.3,108.5,133,82.3,129z"/>
	<path class="st0" d="M220,122.9c-10.7-0.1-28.7,3.8-33.3,4.4c-4.6,0.6-22.4,5-25.8,5c-3.4,0-4.2,15.6-1,15.8
		c3.3,0.2,6.3-0.4,7.6,1.5c1.3,1.9,7.4,26.6,18.5,36.3c11.1,9.6,23.1,13.5,37.6,13c14.4-0.6,28.5-5.4,34.8-19.8
		c6.3-14.4,5-25.7,5.9-29.6c0.9-3.9,5.9-3.9,6.5-6.5c0.6-2.6-0.2-12.2-1.1-13.9c-0.9-1.7-6.7-1.4-10.4-1.9
		C255.5,126.6,238.1,123,220,122.9z"/>
	<path class="st1" d="M216.5,127.1c-12.3,0.9-26.6,3.5-32.2,7.6c-5.6,4.1-9.5,6.5-7.5,18.4c2,11.8,7.6,24.2,18.6,33.5
		c11,9.4,37.5,7.4,47.6,0.9c10.1-6.5,14.2-23.1,12.5-38.5s-10.4-17.6-15-19.6C235.7,127.4,223.4,126.6,216.5,127.1z"/>
	<path class="st2" d="M239.4,129c0.4,0.1,0.7,0.2,1,0.4c4.7,2,13.3,4.2,15,19.6c1.7,15.4-2.3,31.9-12.5,38.5
		c-10.1,6.5-36.6,8.5-47.6-0.9c-2.1-1.8-4-3.7-5.7-5.7C192.6,154.3,213.2,133,239.4,129z"/>
</g>
</svg>
