<?xml version="1.0" encoding="utf-8"?>
<!-- Generator: Adobe Illustrator 23.0.1, SVG Export Plug-In . SVG Version: 6.00 Build 0)  -->
<svg version="1.1" id="Layer_1" xmlns="http://www.w3.org/2000/svg" xmlns:xlink="http://www.w3.org/1999/xlink" x="0px" y="0px"
	 viewBox="0 0 321.7 321.7" style="enable-background:new 0 0 321.7 321.7;" xml:space="preserve">
<style type="text/css">
	.st0{fill:#FFFFFF;stroke:#C4C4C4;stroke-miterlimit:10;}
	.st1{fill:#894447;stroke:#C4C4C4;stroke-miterlimit:10;}
	.st2{fill:#AA6868;stroke:#C4C4C4;stroke-miterlimit:10;}
</style>
<g>
	<path class="st0" d="M237.5,116.8c-4.1-0.1-8.2,0.9-12,2.3c-2.8,1.1-6.2,3.8-9.2,3.9s-7.8-5.5-19.4-6.1c-5.7-0.3-11.5,1.5-16.2,4.6
		c-2.8,1.9-5.2,4.4-7,7.3c-1.9,3-2.8,6.4-4.5,9.5c-0.8,1.5-2.5,1.9-4.1,1.9c-2.5-0.1-5.1-0.4-7.6-0.2c-1.8,0.1-3.9,0.1-4.8-1.7
		c-1.7-3.1-2.6-6.5-4.5-9.5c-1.8-2.9-4.2-5.4-7-7.3c-4.7-3.1-10.6-4.9-16.2-4.6c-11.6,0.5-16.4,6.2-19.4,6.1s-6.4-2.8-9.2-3.9
		c-3.8-1.5-7.9-2.4-12-2.3c-15,0.3-23.8,16.9-23.8,30.3c0,0.8,0,1.6,0.1,2.4c1,9.1,6.1,17.6,11.1,25.1c8.5,12.6,19.1,21.2,32.3,28.2
		c1.7,0.9,3.4,1.8,5.3,2.1c2.4,0.4,4.8-0.7,6.7-2c1.7-1.2,3.4-2.4,5-3.6c7.3-5.5,14.1-11.7,19.7-18.8c4.5-5.7,8-12.2,10.8-18.9
		c1-2.5,2-5,2.8-7.6c0.6-1.8,1-4.4,2.7-5.5c0.9-0.6,2.7-0.7,3.9-0.8c1.3,0.1,3.1,0.2,3.9,0.8c1.7,1.1,2.1,3.7,2.7,5.5
		c0.8,2.6,1.8,5.1,2.8,7.6c2.8,6.7,6.3,13.2,10.8,18.9c5.7,7.1,12.4,13.4,19.7,18.8c1.6,1.2,3.3,2.4,5,3.6c1.9,1.3,4.3,2.4,6.7,2
		c1.9-0.3,3.6-1.2,5.3-2.1c13.3-7,23.9-15.6,32.3-28.2c5-7.4,10.1-16,11.1-25.1c0.1-0.8,0.1-1.6,0.1-2.4
		C261.3,133.7,252.6,117.2,237.5,116.8z"/>
	<path class="st1" d="M106.1,132.4c1.1-0.1,2.1-0.7,3.2-1.6c2.9-2.3,5.3-4.1,8.7-5.6c3.8-1.6,7.9-1.8,11.9-0.9
		c6.7,1.7,12.8,6.5,15.3,13c0,0.1,0.1,0.3,0.1,0.4c2.8,7.7,1.4,16.8-1.2,24.4c-4.4,13.2-14.6,24.5-26,32.2c-2.9,2-6.5,4.2-10.1,3.3
		c-2.4-0.6-4.7-1.7-6.9-2.9c-7.4-3.9-14.1-9.3-19.5-15.6c-9.5-11.1-18.5-29.9-11.1-44.2c2.9-5.5,8.4-11.2,15-11.1
		c7,0.1,12.3,2.9,17.7,7.4C104.3,132.2,105.2,132.5,106.1,132.4z"/>
	<path class="st0" d="M59.6,154.9H59c-2.2,0-4.1-1.8-4.1-4.1v-4.9c0-2.2,1.8-4.1,4.1-4.1h0.6c2.2,0,4.1,1.8,4.1,4.1v4.9
		C63.6,153.1,61.8,154.9,59.6,154.9z"/>
	<path class="st2" d="M69.1,155.8c2.2,8.8,7.4,17.3,12.7,23.5c5.4,6.3,12.1,11.7,19.5,15.6c2.2,1.1,4.5,2.3,6.9,2.9
		c3.6,0.9,7.3-1.4,10.1-3.3c11.3-7.8,21.6-19,26-32.2c0.7-2.1,1.3-4.2,1.7-6.4H69.1V155.8z"/>
	<path class="st1" d="M215.6,132.4c-1.1-0.1-2.1-0.7-3.2-1.6c-2.9-2.3-5.3-4.1-8.7-5.6c-3.8-1.6-7.9-1.8-11.9-0.9
		c-6.7,1.7-12.8,6.5-15.3,13c0,0.1-0.1,0.3-0.1,0.4c-2.8,7.7-1.4,16.8,1.2,24.4c4.4,13.2,14.6,24.5,26,32.2c2.9,2,6.5,4.2,10.1,3.3
		c2.4-0.6,4.7-1.7,6.9-2.9c7.4-3.9,14.1-9.3,19.5-15.6c9.5-11.1,18.5-29.9,11.1-44.2c-2.9-5.5-8.4-11.2-15-11.1
		c-7,0.1-12.3,2.9-17.7,7.4C217.4,132.2,216.4,132.5,215.6,132.4z"/>
	<path class="st0" d="M262.1,154.9h0.6c2.2,0,4.1-1.8,4.1-4.1v-4.9c0-2.2-1.8-4.1-4.1-4.1h-0.6c-2.2,0-4.1,1.8-4.1,4.1v4.9
		C258,153.1,259.9,154.9,262.1,154.9z"/>
	<path class="st2" d="M252.6,155.8c-2.2,8.8-7.4,17.3-12.7,23.5c-5.4,6.3-12.1,11.7-19.5,15.6c-2.2,1.1-4.5,2.3-6.9,2.9
		c-3.6,0.9-7.3-1.4-10.1-3.3c-11.3-7.8-21.6-19-26-32.2c-0.7-2.1-1.3-4.2-1.7-6.4h76.9V155.8z"/>
</g>
</svg>
