<?xml version="1.0" encoding="utf-8"?>
<!-- Generator: Adobe Illustrator 23.0.1, SVG Export Plug-In . SVG Version: 6.00 Build 0)  -->
<svg version="1.1" id="Layer_1" xmlns="http://www.w3.org/2000/svg" xmlns:xlink="http://www.w3.org/1999/xlink" x="0px" y="0px"
	 viewBox="0 0 321.7 321.7" style="enable-background:new 0 0 321.7 321.7;" xml:space="preserve">
<style type="text/css">
	.st0{fill:#D8D8DA;}
	.st1{fill:#262127;}
	.st2{fill:#DD8787;stroke:#262127;stroke-width:2;stroke-miterlimit:10;}
	.st3{fill:#EBB0A0;}
</style>
<g>
	<path class="st0" d="M146.8,165.7c-1.2,6.1-3.7,10.8-5.5,10.4c-1.8-0.4-2.4-5.6-1.2-11.7c1.2-6.1,3.7-10.8,5.5-10.4
		C147.4,154.3,148,159.5,146.8,165.7z"/>
	<polygon class="st1" points="63.2,143.8 51,141.6 51,136.8 63.2,136.8 	"/>
	<path class="st2" d="M102.4,121.6c13.7,0.7,25,4.3,32.6,11.7c7.6,7.4,10.2,18.9,7.4,28.9c-2.8,10-14.4,39.8-43.3,38.1
		c-28.9-1.7-46.4-31.8-39.2-57.2C67.1,117.7,102.4,121.6,102.4,121.6z"/>
	<path class="st1" d="M144.7,149.2h-1.5c-0.6,0-1-0.4-1-1v-10.4c0-0.6,0.4-1,1-1h1.5c0.6,0,1,0.4,1,1v10.4
		C145.7,148.7,145.2,149.2,144.7,149.2z"/>
	<path class="st1" d="M160.8,133.5c0,0-5.9,0.4-8.8,1.2c-2.9,0.8-8,3.1-8,3.1v2.4c0,0,3,0.2,4,0c1-0.2,7.5-3.3,12.9-3.3
		C166.1,136.9,160.8,133.5,160.8,133.5z"/>
	<path class="st0" d="M174.9,165.7c1.2,6.1,3.7,10.8,5.5,10.4c1.8-0.4,2.4-5.6,1.2-11.7c-1.2-6.1-3.7-10.8-5.5-10.4
		C174.2,154.3,173.7,159.5,174.9,165.7z"/>
	<polygon class="st1" points="258.5,143.8 270.7,141.6 270.7,136.8 258.5,136.8 	"/>
	<path class="st2" d="M219.3,121.6c-13.7,0.7-25,4.3-32.6,11.7c-7.6,7.4-10.2,18.9-7.4,28.9c2.8,10,14.4,39.8,43.3,38.1
		c28.9-1.7,46.4-31.8,39.2-57.2C254.6,117.7,219.3,121.6,219.3,121.6z"/>
	<path class="st1" d="M177,149.2h1.5c0.6,0,1-0.4,1-1v-10.4c0-0.6-0.4-1-1-1H177c-0.6,0-1,0.4-1,1v10.4
		C176,148.7,176.4,149.2,177,149.2z"/>
	<path class="st1" d="M160.9,133.5c0,0,5.9,0.4,8.8,1.2c2.9,0.8,8,3.1,8,3.1v2.4c0,0-3,0.2-4,0c-1-0.2-7.5-3.3-12.9-3.3
		C155.5,136.9,160.9,133.5,160.9,133.5z"/>
	<path class="st3" d="M67.1,180.9c7,10.1,18,17.4,31.7,18.2c28.2,1.6,39.6-27.5,42.3-37.2s0.2-21-7.2-28.2c-1.1-1-2.2-2-3.4-2.9
		C98.5,137.8,73.9,157,67.1,180.9z"/>
	<path class="st3" d="M254.3,180.9c-7,10.1-18,17.4-31.7,18.2c-28.2,1.6-39.6-27.5-42.3-37.2s-0.2-21,7.2-28.2c1.1-1,2.2-2,3.4-2.9
		C222.9,137.8,247.5,157,254.3,180.9z"/>
</g>
</svg>
