<?xml version="1.0" encoding="utf-8"?>
<!-- Generator: Adobe Illustrator 23.0.1, SVG Export Plug-In . SVG Version: 6.00 Build 0)  -->
<svg version="1.1" id="Layer_1" xmlns="http://www.w3.org/2000/svg" xmlns:xlink="http://www.w3.org/1999/xlink" x="0px" y="0px"
	 viewBox="0 0 321.7 321.7" style="enable-background:new 0 0 321.7 321.7;" xml:space="preserve">
<style type="text/css">
	.st0{fill:#428263;}
	.st1{fill:#386D51;}
	.st2{fill:#387053;}
	.st3{fill:#398755;}
	.st4{fill:#2B5E41;}
	.st5{fill:#499161;}
	.st6{fill:#3E5B45;}
	.st7{fill:#214C35;}
	.st8{opacity:0.43;fill:#386D51;}
	.st9{fill:#3D7F59;}
	.st10{fill:#367252;}
	.st11{fill:#366B4F;}
	.st12{fill:#AA9157;}
</style>
<g>
	<path class="st0" d="M96.8,67.8c-2.6,0.6-22.6,181.8-22.6,181.8s0.7-3.6,17.3,2.7c16.6,6.4,51.7,9.4,51.7,9.4s10-81.8,15-86.9
		l21.7,86.9c0,0,70-15.4,72.2-15.4L216.1,69.8c0,0-50.3,11.9-59.1,11.9S106.4,65.5,96.8,67.8z"/>
	<path class="st1" d="M96.8,67.8c-2.6,0.6-22.6,181.8-22.6,181.8s0.7-3.6,17.3,2.7c6.8,2.6,16.6,4.6,25.8,6.1
		c1.9-29.8,2.4-49.8-5.7-88.9c-5.5-26.7,3.2-64.4,10.9-97C111.5,69.4,101,66.8,96.8,67.8z"/>
	<path class="st2" d="M216.1,69.8c0,0-14.9,3.5-29.8,6.7c3.6,18.5,12.1,52.9,26.7,59.5c8,3.6,13.7,4.7,17.7,4.7L216.1,69.8z"/>
	<path class="st3" d="M240.7,171.8c1.7,3.3,3.8,7.7,5.7,12.6c4.2,10.8,4.8,43.8,2.9,47.9c-1.8,4.1-26.8,6.3-34.2,3.6
		c-4.6-1.7-5.7-40-5.9-58.4c-0.1-5.4,4-6.8,9.5-7.3C233.2,169,238.2,166.9,240.7,171.8z"/>
	<path class="st4" d="M224.5,230.3c-5-1.8-5.8-43.5-5.9-58.8c0,0-9.5-0.1-9.4,4.5c0.2,17.7,1.3,58.3,6,60c7.4,2.7,32.4,0.5,34.2-3.6
		c0.2-0.4,0.4-1.2,0.5-2.2C241.4,231.8,229.3,232,224.5,230.3z"/>
	<path class="st5" d="M251.5,192.7c-0.6-4.2-0.4-6.9-1.2-9.5c-3.9-13.1-14.6-17.3-14.6-17.3l-20,1.4c-3.8,0.3-6.7,3.5-6.6,7.3
		c0,5,0.2,12.3,0.5,20.2L251.5,192.7z"/>
	<path class="st6" d="M84.1,246.4c0,0-9.9-0.7-9.9,3.2c0,4,53.3,13.6,69,12.1C143.2,261.8,93.3,246.4,84.1,246.4z"/>
	<path class="st2" d="M202,256.9c-7.6-18.6-16.1-41.5-20.8-57.6c-3.5-11.9-18.7-48.1-22.9-24.5l21.7,86.9
		C180,261.8,189.7,259.6,202,256.9z"/>
	<path class="st0" d="M199.7,80.4c0,0,18.9,45.2,28.5,48.4h2.8l4.5,35.8l-24.1,3.2l-25.1-84.2L199.7,80.4z"/>
	<path class="st7" d="M199.7,80.4c8.6,17.7,21.1,44.9,28.5,48.3l0,0l2.8,0.1c-0.1,0-3,0.1-2.9,0.1l0,0
		C218.3,125.2,203.3,90.3,199.7,80.4z"/>
	<path class="st2" d="M96.8,67.8c-0.9,0.2-4,23.1-7.6,52.5c9.7,2.7,20.2,4.3,22.3-0.7c3-6.9,6.1-33.2,7.7-48
		C109.4,68.9,100.6,66.9,96.8,67.8z"/>
	<path class="st0" d="M113,80.4c0,0-24.9,44-29.3,44l0.4,38.8l27.6,8.3l12.7-88.1L113,80.4z"/>
	<path class="st8" d="M103.8,96.1c-7.6,12.6-17.5,28.3-20.2,28.3l0.4,38.8l23.2,2.7C105,145.4,104.1,119.1,103.8,96.1z"/>
	<path class="st7" d="M113,80.4c-6.1,12.3-24.7,43.8-29.3,44c3.1-0.5,14.8-20.6,22.3-32.7C106.6,90.6,103.3,95.9,113,80.4z"/>
	<path class="st3" d="M84,163.2c0,0-5.4,8.1-9.8,18.8c-4.5,10.7-1.7,43.8,0,48c1.7,4.2,22.4,7.2,29.8,4.5c4.5-1.7,6.9-44,7.7-60.9
		c0.2-3.9-2.7-7.3-6.6-7.8L84,163.2z"/>
	<path class="st4" d="M103.5,165.6c-0.7,16.7-3.1,59.6-7.7,61.3c-4.8,1.7-15.3,1.1-22.4-0.7c0.3,1.9,0.6,3.2,0.8,3.9
		c1.7,4.2,22.4,7.2,29.8,4.5c4.5-1.7,6.9-44,7.7-61c0.2-3.9-2.7-7.2-6.5-7.7L103.5,165.6z"/>
	<path class="st4" d="M95.5,58.8L94.9,77c0,0,53.7,11.8,70.2,8.8V71.4C165.1,71.4,119.2,70.7,95.5,58.8z"/>
	<path class="st9" d="M153.2,80.4L153.2,80.4c0,5.5,4.8,9.7,10.3,8.9l55-7.7l-1-20.3c0,0-14.7,6.3-56.3,10.2
		C156.6,71.9,153.2,75.9,153.2,80.4z"/>
	<path class="st10" d="M153.2,92.7c1.9,28.6-0.1,58.7,3.1,65.5c2.3,4.3,7.8,5.6,12.7,5.1c-7.8,2.5-14.5-1.2-15.9-6.5
		c-2.9-8.9-2.4-33.7-1.8-43.7C151.7,106.3,152.3,99.5,153.2,92.7z"/>
	<circle class="st7" cx="162.1" cy="79.6" r="3.9"/>
	<g>
		<polygon class="st11" points="120.2,85.6 113.4,84.3 117.4,64.1 124.1,65.5 		"/>
	</g>
	<g>
		<polygon class="st11" points="184.6,90.1 179.9,67.6 186.7,66.6 191.4,88.7 		"/>
	</g>
	<g>
		<path class="st2" d="M75.3,186.2c0.7,3,1.2,7.6-0.6,10.5c-1.2,1.8-3.1,2.8-6,3.1l0.4,4.6c4.4-0.4,7.6-2.1,9.5-5.2
			c2.6-4.1,2.2-9.5,1.5-13H75.3z"/>
	</g>
	<rect x="74.3" y="192.7" class="st12" width="8.2" height="2.3"/>
	<g>
		<path class="st5" d="M235.8,189.9l5.7-1c0.4,2.6,2.4,9.7,6.1,11.8c0.8,0.4,2.1,0.9,4.3,0.1l0.3,5.9
			C242.3,210.6,237.6,200.4,235.8,189.9z"/>
	</g>
	<rect x="235" y="196.9" class="st12" width="11.8" height="1.8"/>
	<path class="st5" d="M110.6,192.4c0.4-7.5,0.8-15.4,1.1-20.5c0.1-2.9-2-5.9-4.9-6.3L84,162.8c0,0-9.3,1.1-12.4,19.3
		c-0.3,1.8-0.5,4-0.9,6.7L110.6,192.4z"/>
</g>
</svg>
