<?xml version="1.0" encoding="utf-8"?>
<!-- Generator: Adobe Illustrator 23.0.1, SVG Export Plug-In . SVG Version: 6.00 Build 0)  -->
<svg version="1.1" id="Layer_1" xmlns="http://www.w3.org/2000/svg" xmlns:xlink="http://www.w3.org/1999/xlink" x="0px" y="0px"
	 viewBox="0 0 321.7 321.7" style="enable-background:new 0 0 321.7 321.7;" xml:space="preserve">
<style type="text/css">
	.st0{fill:#781123;}
	.st1{fill:#F27238;}
	.st2{fill:#3D5478;}
	.st3{fill:#2B193A;}
	.st4{fill:#521760;}
	.st5{fill:#8E0D0D;}
	.st6{fill:#6D0B0B;}
	.st7{fill:#4A6792;}
	.st8{fill:#E56838;}
	.st9{fill:#D03400;}
	.st10{fill:#667A95;}
	.st11{fill:#4A6691;}
	.st12{fill:#94A3BB;}
	.st13{fill:#1A122D;}
	.st14{fill:#B2C3D4;}
	.st15{fill:#395072;}
	.st16{fill:#F28757;}
	.st17{fill:#E18256;}
</style>
<g>
	<polygon class="st0" points="148,68.6 175.6,69.4 169.9,59.9 152.9,59.9 	"/>
	<path class="st1" d="M157.1,74c0,0-5.1-9.2-4.2-14.1c0,0-5.5,5-5.5,9.9c0,4.9,5.9,11.7,5.9,11.7L157.1,74z"/>
	<path class="st1" d="M169.9,59.9c0,0,1.8,10.3-2.8,13.6l2,8c0,0,6.6-7.4,6.4-12.1C175.5,66.6,172.3,61.1,169.9,59.9z"/>
	<path class="st2" d="M229,92.1c-4.2-9.3-13.9-18.5-15.2-19l-1.4-0.1l-19.1,12.3c1.3,0.8,16.9,4.1,20,9.8c0.1,0.3,0.8,1.2,1.3,2.6
		c0-0.1,2.1,4.6,4.5,17.6c4.3,24.4,7.8,66.9,5.4,90.6c-1,7.5-5,15.2-5.4,15.9c-4.5,6.5-11.7,10.7-19.3,13.7l0.2,3.6
		c4.7,0.8,9.2,0.3,13.8-0.9c24-6.6,25.4-24.7,26.3-49.3c0.6-15.1,0.2-30.2-1-45.2C238,129,233.8,103.6,229,92.1z"/>
	<path class="st3" d="M238.4,136.3c-1.7-11.2-5.3-32-9.3-42.5c-2.8-7.8-12.8-19.2-15.4-20.7c3.6,1.9,13.2,12.3,16.2,20.3
		C234.3,104.6,237.5,124.4,238.4,136.3z"/>
	<path class="st2" d="M119.8,239.4c0,0-15.4-13.4-26.8-54.1c-11.4-40.7,21.5-109.9,21.5-109.9l1.5-1.6l10-0.8l2.5,8.4
		c0,0-15.6,23.3-22.7,50.6c-7.6,29.1-6.5,60.9,0.5,74.6c7,13.7,17.9,16.8,17.9,16.8L119.8,239.4z"/>
	<g>
		<path class="st4" d="M111.8,163.3c0,0-9.6-6-15.2,2.7c-5.6,8.7-4.7,32.4-2.9,50.9c1.8,18.5,6.5,30.4,23.1,28.4
			C133.4,243.2,111.8,163.3,111.8,163.3z"/>
		<path class="st5" d="M115.1,157.2c0,0-16.6-5.6-22.8,10c-6.2,15.6,0,50.9,0,50.9s26-4.8,29.9-2.9
			C126.1,217.3,115.1,157.2,115.1,157.2z"/>
		<path class="st6" d="M99.6,158.5c0,15.3,0.5,40.3,3,58c7.7-1.2,17.4-2.3,19.6-1.2c3.9,2-7.1-58.1-7.1-58.1S106.7,154.4,99.6,158.5
			z"/>
	</g>
	<path class="st7" d="M111.8,163.3c0,0-9.6-6-15.2,2.7c-5.6,8.7-4.7,32.4-2.9,50.9c1.8,18.5,6.5,30.4,23.1,28.4
		C133.4,243.2,111.8,163.3,111.8,163.3z"/>
	<path class="st1" d="M115.1,157.2c0,0-16.6-5.6-22.8,10c-6.2,15.6,0,50.9,0,50.9s26-4.8,29.9-2.9
		C126.1,217.3,115.1,157.2,115.1,157.2z"/>
	<path class="st8" d="M99.6,158.5c0,15.3,0.5,40.3,3,58c7.7-1.2,17.4-2.3,19.6-1.2c3.9,2-7.1-58.1-7.1-58.1S106.7,154.4,99.6,158.5z
		"/>
	<path class="st7" d="M214.2,163.3c0,0,9.6-6,15.2,2.7c5.6,8.7,4.7,32.4,2.9,50.9c-1.8,18.5-6.5,30.4-23.1,28.4
		C192.6,243.2,214.2,163.3,214.2,163.3z"/>
	<path class="st1" d="M210.9,157.2c0,0,16.6-5.6,22.8,10c6.2,15.6,0,50.9,0,50.9s-26-4.8-29.9-2.9
		C199.9,217.3,210.9,157.2,210.9,157.2z"/>
	<path class="st9" d="M114.5,75.4c0,0,9.4-8.1,6.3,26.4c-0.6,6.5,21.6-14.6,21.6-14.6l-0.8-2.9c-2.7-9.7-12.9-15.6-22.5-12.5
		C116.8,72.6,115.6,73.7,114.5,75.4z"/>
	<path class="st9" d="M187.4,83.3l-1.5,5.2c0,0,18.8,28.2,19.1,21.1c1.6-37.7,8.8-36.6,8.8-36.6s-4-0.8-9.1-1.3
		C196.9,70.8,189.5,75.7,187.4,83.3z"/>
	<path class="st10" d="M181.1,74c-13.1-3.2-26.8-2.9-39.6,1.3c-7.5,2.5-15.3,6.5-19.9,12.9c-11.4,15.8-9.6,24.9-12.5,34.8
		c-2.9,9.9-1.6,45.8-3.1,69.9s5.4,45.3,13.2,55.8c7.8,10.5,81.8,6.1,86.4,1.6c4.6-4.6,15.4-16.3,14.1-62.7
		c-1.3-46.4,0.6-62.3-8.1-84.6C204.9,86,197.3,78,181.1,74z"/>
	<path class="st11" d="M126.7,234c-28.9-28.9-6.5-115.7,5.6-154.7c-4.2,2.3-7.9,5.2-10.6,9c-11.4,15.8-9.6,24.9-12.5,34.8
		c-2.9,9.9-1.6,45.8-3.1,69.9s5.4,45.3,13.2,55.8c7.8,10.5,81.8,6.1,86.4,1.6c2.7-2.7,7.7-8.1,11-21.9
		C198,240.6,155.4,262.8,126.7,234z"/>
	<path class="st12" d="M163.3,89.9c0,0-4.4-0.9-14.4,0c-10,0.9-13.8,2.3-13.8,6.4s-1.1,32,2.5,35.5c3.5,3.5,48.3,2,51,0.6
		c2.7-1.5,3.5-18.9,2.9-26.4c-0.6-7.6,1.7-9.9-1.6-13.1C186.5,89.5,163.3,89.9,163.3,89.9z"/>
	<g>
		<path class="st13" d="M187.3,105.3c-0.1,3.8-0.7,4.3-0.7,5.2c-0.2,1.3,0.6,2.3,2.4,2.1c0.4,0,0.7-0.4,0.9-0.8
			c-0.1,0.4-0.4,0.8-0.9,0.9c-1.8,0.3-2.8-0.7-2.6-2.2C186.4,109.8,186.7,109.7,187.3,105.3z"/>
		<path class="st14" d="M189.9,108.8c-0.3-1.7-0.6-4.6-0.6-4.6l-1.9,0.4c0,0-0.2,3.3-0.7,5.1c-0.5,1.7,0.1,3.2,2.2,3
			C190.1,112.5,190.2,110.5,189.9,108.8z M187.7,109.2c0.3-0.6,1.1-0.8,1.5-0.1c0.3,0.5,0.3,1.3,0.1,1.9c-0.4,0.7-1.4,0.8-1.7,0
			C187.3,110.4,187.4,109.7,187.7,109.2z"/>
	</g>
	<path class="st12" d="M153,145.1c-15.6,1.4-26.9,0.3-32,9.1c-6.7,11.5-4.9,64.7,1.7,71.3c6.6,6.6,70.8,12.5,83.2,3
		c12.4-9.4,8.4-70.7,2.8-77.9c-6.4-8.2-19.8-6.6-29.3-7C170.4,143.2,161.9,144.3,153,145.1z"/>
	<path class="st15" d="M207.7,225.9c-0.9,1.4-2.1,2.4-3.6,3.2c-15.1,7.3-66.2,2.9-79-2.6c-2-0.9-2.3-1.5-2.8-2.1
		c-4.2-7.6-5.2-27-5.5-35.7c0.1,9.1,0.6,28.1,4.9,36c0.6,0.8,1,1.4,3.1,2.4c14,6.2,69,10.5,81.3,1.6c0.8-0.8,0.5-0.2,2.2-2.4
		c5.3-8,5.7-26.4,5.7-35.9C214,193.7,212.8,218.4,207.7,225.9z"/>
	<path class="st1" d="M189.7,92.8c-3.3-3.3-24.8-2.3-24.8-2.3s-6.2-0.3-16.3,0.6c-10,0.9-13.4,0.4-13.8,5.1
		c-0.2,1.8-0.6,4.6-0.7,8.8c14.2,2,44.6,5.3,57.8,0C191.6,98.1,192.9,95.9,189.7,92.8z"/>
	<path class="st16" d="M189.7,92.8c-3.3-3.3-26.1-3.6-26.1-3.6s-4.7-0.1-14.8,0.8c-7.9,0.7-12.6,1.3-13.5,4.2
		c11.4,2.6,33.6,6.9,44.4,4.4c5.1-1.2,9.3-2.1,11.9-3.1C191.3,94.6,190.7,93.7,189.7,92.8z"/>
	<g>
		<path class="st13" d="M192.5,187c-0.1,3.8-0.7,4.3-0.7,5.2c-0.2,1.3,0.6,2.3,2.4,2.1c0.4,0,0.7-0.4,0.9-0.8
			c-0.1,0.4-0.4,0.8-0.9,0.9c-1.8,0.3-2.8-0.7-2.6-2.2C191.6,191.5,191.9,191.4,192.5,187z"/>
		<path class="st14" d="M195.1,190.5c-0.3-1.7-0.6-4.6-0.6-4.6l-1.9,0.4c0,0-0.2,3.3-0.7,5.1c-0.5,1.7,0.1,3.2,2.2,3
			C195.4,194.3,195.4,192.2,195.1,190.5z M192.9,191c0.3-0.6,1.1-0.8,1.5-0.1c0.3,0.5,0.3,1.3,0.1,1.9c-0.4,0.7-1.4,0.8-1.7,0
			C192.6,192.2,192.7,191.4,192.9,191z"/>
	</g>
	<g>
		<path class="st13" d="M198.1,186c1.5,3.5,2.2,3.7,2.6,4.6c0.6,1.1,0.3,2.3-1.4,2.8c-0.4,0.1-0.8-0.1-1.1-0.4
			c0.3,0.3,0.7,0.6,1.2,0.6c1.8-0.4,2.3-1.7,1.6-3.1C200.6,189.8,200.3,189.8,198.1,186z"/>
		<path class="st14" d="M199.3,193.4c2-0.6,2.1-2.2,1-3.6c-1.1-1.4-2.5-4.4-2.5-4.4l-2,0.3c0,0,0.8,2.8,1.1,4.5
			C197.3,191.9,198.1,193.8,199.3,193.4z M199.9,191.4c0,0.9-1,1.2-1.6,0.6c-0.4-0.4-0.7-1.2-0.6-1.8c0.1-0.8,0.9-0.9,1.5-0.4
			C199.6,190.1,200,190.8,199.9,191.4z"/>
	</g>
	<path class="st1" d="M215.5,180.4c-0.5-14.5-3.7-27-6.1-30.1c-6.4-8.2-19.1-8.7-28.5-9.1c-9-0.4-18-0.2-26.9,0.5
		c-28.3,2.5-37.7,5.6-38.4,39.4C130.4,184.4,186.5,194.3,215.5,180.4z"/>
	<path class="st17" d="M209.4,150.3c-6.4-8.2-19.1-8.7-28.5-9.1c-9-0.4-18-0.2-26.9,0.5c-19,1.7-29.5,3.6-34.5,15
		c7,1.9,18.1,4,29.8,4.5c27.7,1.2,51.4-0.5,63.1-3.2C211.4,154.3,210.3,151.5,209.4,150.3z"/>
	<path class="st15" d="M205.9,249.4c-5.7,5.4-79.6,8.4-86.1-1.5c-1.7-2.3-3.1-4.8-4.3-7.4c-7.7-15.9-9.2-33.1-8.3-50.5
		c1.3-26.5,1.6-49.1,3.1-65.2c1.8-14.3,1.1-21.5,11.4-36.6c-10.4,14.1-11.4,21-13.4,36.4c-2.4,17-1.7,43.3-2.9,65.3
		c-1,17.9,0.5,35.2,8.4,51.4c4.8,9.6,5.8,12.7,30,14.2c20.6,1.2,57.1-1.3,61.9-4.9c1.4-1.2,3.8-4.4,4.8-6c3.1-5,4.9-10.6,6.1-16.3
		C214.4,236.5,211.5,243.7,205.9,249.4z"/>
	<g>
		<g>
			<path class="st3" d="M120.6,178.8C120.6,178.8,120.6,178.8,120.6,178.8c-1.3-0.3-2-0.5-2-0.5c-0.1,0-0.2-0.2-0.2-0.3
				c0-0.1,0.2-0.2,0.3-0.2c0,0,0.7,0.2,1.9,0.5c0.1,0,0.2,0.2,0.2,0.3C120.8,178.7,120.7,178.8,120.6,178.8z"/>
		</g>
		<g>
			<path class="st3" d="M164.3,184.2c-0.4,0-0.8,0-1.1,0c-0.1,0-0.2-0.1-0.2-0.3c0-0.1,0.1-0.2,0.3-0.2h0c1.3,0,2.6,0,3.9,0
				c0.1,0,0.3,0.1,0.3,0.2c0,0.1-0.1,0.3-0.2,0.3C166.1,184.2,165.2,184.2,164.3,184.2z M159.2,184.1
				C159.2,184.1,159.2,184.1,159.2,184.1c-1.3,0-2.6-0.1-3.9-0.2c-0.1,0-0.2-0.1-0.2-0.3s0.1-0.2,0.3-0.2c1.3,0.1,2.6,0.1,3.9,0.2
				c0.1,0,0.2,0.1,0.2,0.3C159.5,184,159.4,184.1,159.2,184.1z M170.9,184.1c-0.1,0-0.2-0.1-0.3-0.2c0-0.1,0.1-0.3,0.2-0.3
				c1.3-0.1,2.6-0.1,3.9-0.2c0.1,0,0.3,0.1,0.3,0.2c0,0.1-0.1,0.3-0.2,0.3C173.6,184,172.3,184,170.9,184.1
				C171,184.1,170.9,184.1,170.9,184.1z M151.4,183.7C151.4,183.7,151.4,183.7,151.4,183.7c-1.3-0.1-2.6-0.2-3.9-0.3
				c-0.1,0-0.2-0.1-0.2-0.3c0-0.1,0.2-0.2,0.3-0.2c1.3,0.1,2.6,0.2,3.9,0.3c0.1,0,0.2,0.1,0.2,0.3
				C151.7,183.6,151.6,183.7,151.4,183.7z M178.7,183.6c-0.1,0-0.2-0.1-0.2-0.2c0-0.1,0.1-0.3,0.2-0.3c1.4-0.1,2.6-0.2,3.9-0.3
				c0.1,0,0.3,0.1,0.3,0.2c0,0.1-0.1,0.3-0.2,0.3C181.4,183.4,180.1,183.5,178.7,183.6C178.8,183.6,178.7,183.6,178.7,183.6z
				 M143.6,183C143.6,183,143.6,183,143.6,183c-1.3-0.1-2.6-0.3-3.9-0.5c-0.1,0-0.2-0.1-0.2-0.3c0-0.1,0.1-0.2,0.3-0.2
				c1.3,0.2,2.6,0.3,3.9,0.5c0.1,0,0.2,0.1,0.2,0.3C143.9,182.9,143.8,183,143.6,183z M186.5,182.9c-0.1,0-0.2-0.1-0.2-0.2
				c0-0.1,0.1-0.3,0.2-0.3c1.4-0.1,2.7-0.3,3.9-0.4c0.1,0,0.3,0.1,0.3,0.2c0,0.1-0.1,0.3-0.2,0.3
				C189.2,182.6,187.9,182.7,186.5,182.9C186.5,182.9,186.5,182.9,186.5,182.9z M194.3,182c-0.1,0-0.2-0.1-0.2-0.2
				c0-0.1,0.1-0.3,0.2-0.3c1.4-0.2,2.7-0.3,3.9-0.5c0.1,0,0.3,0.1,0.3,0.2c0,0.1-0.1,0.3-0.2,0.3C197,181.7,195.7,181.9,194.3,182
				C194.3,182,194.3,182,194.3,182z M135.9,181.9C135.9,181.9,135.9,181.9,135.9,181.9c-1.3-0.2-2.6-0.4-3.9-0.7
				c-0.1,0-0.2-0.2-0.2-0.3c0-0.1,0.2-0.2,0.3-0.2c1.3,0.2,2.6,0.5,3.8,0.7c0.1,0,0.2,0.2,0.2,0.3
				C136.1,181.9,136,181.9,135.9,181.9z M202,181c-0.1,0-0.2-0.1-0.2-0.2c0-0.1,0.1-0.3,0.2-0.3c1.4-0.2,2.7-0.4,3.8-0.7
				c0.1,0,0.3,0.1,0.3,0.2c0,0.1-0.1,0.3-0.2,0.3C204.8,180.5,203.5,180.8,202,181C202.1,181,202,181,202,181z M128.2,180.6
				C128.2,180.6,128.2,180.5,128.2,180.6c-1.4-0.3-2.7-0.6-3.9-0.8c-0.1,0-0.2-0.2-0.2-0.3c0-0.1,0.2-0.2,0.3-0.2
				c1.2,0.3,2.5,0.6,3.8,0.8c0.1,0,0.2,0.2,0.2,0.3C128.4,180.5,128.3,180.6,128.2,180.6z"/>
		</g>
		<g>
			<path class="st3" d="M209.7,179.4c-0.1,0-0.2-0.1-0.2-0.2c0-0.1,0-0.3,0.2-0.3c1.4-0.4,2-0.9,2.1-0.8c0.1,0.1,0.3,0.3,0.1,0.4
				C211.6,178.7,210.9,179.1,209.7,179.4C209.7,179.4,209.7,179.4,209.7,179.4z"/>
		</g>
	</g>
	<g>
		<path class="st3" d="M163.9,105.7L163.9,105.7c-1.3,0-2.6,0-3.9-0.1c-0.1,0-0.2-0.1-0.2-0.3c0-0.1,0.1-0.2,0.3-0.2
			c1.3,0,2.6,0.1,3.9,0.1c0.1,0,0.3,0.1,0.3,0.3C164.2,105.6,164.1,105.7,163.9,105.7z M167.8,105.7c-0.1,0-0.2-0.1-0.3-0.2
			c0-0.1,0.1-0.3,0.2-0.3c1.3,0,2.6-0.1,3.9-0.2c0.1,0,0.3,0.1,0.3,0.2c0,0.1-0.1,0.3-0.2,0.3C170.5,105.6,169.1,105.6,167.8,105.7
			C167.8,105.7,167.8,105.7,167.8,105.7z M156.1,105.5C156.1,105.5,156.1,105.5,156.1,105.5c-1.3-0.1-2.6-0.2-3.9-0.3
			c-0.1,0-0.2-0.1-0.2-0.3c0-0.1,0.1-0.2,0.3-0.2c1.3,0.1,2.6,0.2,3.9,0.3c0.1,0,0.2,0.1,0.2,0.3
			C156.3,105.4,156.2,105.5,156.1,105.5z M175.6,105.1c-0.1,0-0.2-0.1-0.2-0.2c0-0.1,0.1-0.3,0.2-0.3c1.3-0.1,2.6-0.3,3.9-0.5
			c0.1,0,0.3,0.1,0.3,0.2c0,0.1-0.1,0.3-0.2,0.3C178.2,104.8,176.9,105,175.6,105.1C175.6,105.1,175.6,105.1,175.6,105.1z
			 M148.3,104.7C148.3,104.7,148.3,104.7,148.3,104.7c-1.3-0.2-2.6-0.4-3.9-0.6c-0.1,0-0.2-0.2-0.2-0.3c0-0.1,0.2-0.2,0.3-0.2
			c1.3,0.2,2.6,0.4,3.9,0.6c0.1,0,0.2,0.1,0.2,0.3C148.6,104.6,148.5,104.7,148.3,104.7z M183.3,104c-0.1,0-0.2-0.1-0.2-0.2
			c0-0.1,0.1-0.3,0.2-0.3c1.3-0.2,2.6-0.5,3.8-0.8c0.1,0,0.3,0.1,0.3,0.2c0,0.1-0.1,0.3-0.2,0.3C186,103.5,184.7,103.8,183.3,104
			C183.4,104,183.4,104,183.3,104z M140.6,103.4C140.6,103.4,140.6,103.4,140.6,103.4c-2.5-0.5-3.9-0.9-3.9-0.9
			c-0.1,0-0.2-0.2-0.2-0.3c0-0.1,0.2-0.2,0.3-0.2c0,0,1.4,0.4,3.8,0.9c0.1,0,0.2,0.2,0.2,0.3C140.8,103.3,140.7,103.4,140.6,103.4z"
			/>
	</g>
</g>
</svg>
