<?xml version="1.0" encoding="utf-8"?>
<!-- Generator: Adobe Illustrator 23.0.1, SVG Export Plug-In . SVG Version: 6.00 Build 0)  -->
<svg version="1.1" id="Layer_1" xmlns="http://www.w3.org/2000/svg" xmlns:xlink="http://www.w3.org/1999/xlink" x="0px" y="0px"
	 viewBox="0 0 321.7 321.7" style="enable-background:new 0 0 321.7 321.7;" xml:space="preserve">
<style type="text/css">
	.st0{fill:#5CD8FF;}
	.st1{fill:#5BB8E3;}
	.st2{fill:#EF5826;}
	.st3{fill:#33CEFF;}
	.st4{fill:#4A6792;}
</style>
<g>
	<path class="st0" d="M236.8,142.9l-16.6,56.2l0,0.1l-3.5-2.1l-22.3-13.4l-19-11.4l-61.9-37.2v0l39.4-38.2l0.2-0.2l3.5-3.4l0.2-0.2
		l0.5-0.5c0.3-0.3,0.8-0.6,1.2-0.7c3.1-0.9,14.2-2.7,45.4,17.7C226.2,124.2,237.9,137.8,236.8,142.9z"/>
	<path class="st1" d="M203.9,109.5c-15.2-10.1-26.3-14.9-33.6-16.9c9.3,9,18.7,19.8,22.8,29.7c7.7,18.7-9.9,41.2-18.4,50.6
		l47.8,29.5l14.2-59.4C237.9,137.8,226.2,124.2,203.9,109.5z"/>
	<polygon class="st2" points="168.8,165.7 171.2,162 186.1,171.5 183,175.7 	"/>
	<path class="st3" d="M222.6,202.5c-3.6-4.1-22-19-52.1-37.6c-30.1-18.6-53.3-30.7-56.9-29.9l-27.2,10.2L224.7,231L222.6,202.5z"/>
	<path class="st1" d="M222.6,202.5c0.2-2.6-12.6-12-32.7-25.2c5.8,8.1,11,16,13.7,21.2c3.5,6.8,5.5,15.6,6.7,23.6l14.5,9
		L222.6,202.5z"/>
	<path class="st4" d="M224.7,231c-1.1,3.3-34.3-13.8-72.6-37.5c-38.2-23.7-68.8-46.4-65.9-48.3c1.6-1,34.3,13.9,72.6,37.5
		C197,206.5,225.3,229.1,224.7,231z"/>
	<g>
		<g>
			<path class="st4" d="M157.5,93.3c-0.1,0-0.4-0.2-0.7-0.3l-0.2,0.2c0.4,0.2,0.9,0.4,0.9,0.4C157.6,93.6,157.7,93.4,157.5,93.3z
				 M163.6,96.2c-1-0.5-2.1-1-3-1.5c-0.1,0-0.2,0-0.2,0.1c0,0.1,0,0.1,0.1,0.2c1,0.5,2,1,3,1.5c0,0,0.1,0,0.1,0c0,0,0.1,0,0.1-0.1
				C163.7,96.3,163.7,96.2,163.6,96.2z M169.7,99.3c-1-0.5-2-1.1-3-1.6c-0.1,0-0.1,0-0.2,0.1c0,0.1,0,0.2,0.1,0.2c1,0.5,2,1,3,1.6
				c0,0,0,0,0.1,0c0,0,0.1,0,0.1-0.1C169.8,99.5,169.7,99.4,169.7,99.3z M175.6,102.6c-1-0.6-2-1.1-3-1.7c-0.1,0-0.1,0-0.2,0.1
				c0,0.1,0,0.2,0.1,0.2c1,0.5,2,1.1,3,1.7c0,0,0,0,0.1,0c0.1,0,0.1,0,0.1-0.1C175.7,102.7,175.7,102.6,175.6,102.6z M181.4,106
				c-1-0.6-2-1.2-2.9-1.7c-0.1,0-0.2,0-0.2,0.1c0,0.1,0,0.2,0.1,0.2c1,0.6,1.9,1.1,2.9,1.7c0,0,0,0,0.1,0c0.1,0,0.1,0,0.1-0.1
				C181.5,106.2,181.5,106.1,181.4,106z M187.2,109.6c-0.9-0.6-1.9-1.2-2.8-1.8c0,0,0,0,0,0c0,0,0,0,0,0c-0.1-0.1-0.2,0-0.2,0
				c0,0.1,0,0.2,0.1,0.2c0.2,0.1,0.5,0.3,0.7,0.4c0.7,0.4,1.4,0.9,2.2,1.3c0,0,0.1,0,0.1,0c0.1,0,0.1,0,0.1-0.1
				C187.3,109.7,187.3,109.6,187.2,109.6z M192.9,113.3c-0.9-0.6-1.9-1.2-2.8-1.8c-0.1,0-0.2,0-0.2,0c0,0.1,0,0.2,0,0.2
				c0.9,0.6,1.9,1.2,2.8,1.8c0,0,0.1,0,0.1,0c0.1,0,0.1,0,0.1-0.1C193,113.4,193,113.3,192.9,113.3z M198.5,117
				c-0.9-0.6-1.9-1.3-2.8-1.9c-0.1,0-0.2,0-0.2,0c-0.1,0.1,0,0.2,0,0.2c0.9,0.6,1.9,1.3,2.8,1.9c0,0,0.1,0,0.1,0c0,0,0.1,0,0.1-0.1
				C198.6,117.2,198.6,117.1,198.5,117z M204.1,120.9c-0.9-0.6-1.8-1.3-2.8-2c-0.1,0-0.2,0-0.2,0c0,0.1,0,0.2,0,0.2
				c0.9,0.7,1.8,1.3,2.8,2c0,0,0.1,0,0.1,0c0,0,0.1,0,0.1-0.1C204.2,121,204.2,120.9,204.1,120.9z M209.6,124.9
				c-0.9-0.7-1.8-1.3-2.7-2c-0.1-0.1-0.2,0-0.2,0c-0.1,0.1,0,0.2,0,0.2c0.9,0.7,1.8,1.3,2.7,2c0,0,0.1,0,0.1,0c0,0,0.1,0,0.1-0.1
				C209.6,125,209.6,124.9,209.6,124.9z M215,129c-0.9-0.7-1.8-1.4-2.7-2.1c-0.1,0-0.2,0-0.2,0c0,0.1,0,0.1,0,0.2
				c0.9,0.7,1.8,1.4,2.7,2.1c0,0,0.1,0,0.1,0c0,0,0.1,0,0.1-0.1C215,129.1,215,129,215,129z M220.3,133.2c-0.9-0.7-1.8-1.4-2.7-2.1
				c-0.1-0.1-0.1,0-0.2,0c-0.1,0.1-0.1,0.1,0,0.2c0.9,0.7,1.8,1.4,2.6,2.1c0,0,0.1,0,0.1,0c0,0,0.1,0,0.1-0.1
				C220.4,133.3,220.4,133.2,220.3,133.2z M225.5,137.5c-0.8-0.7-1.7-1.4-2.6-2.2c-0.1-0.1-0.1-0.1-0.2,0c-0.1,0.1-0.1,0.2,0,0.2
				c0.9,0.7,1.8,1.5,2.6,2.2c0,0,0.1,0,0.1,0c0.1,0,0.1,0,0.1,0C225.6,137.6,225.6,137.5,225.5,137.5z M230.6,141.9
				c-0.8-0.7-1.7-1.5-2.5-2.2c-0.1-0.1-0.2-0.1-0.2,0c-0.1,0.1,0,0.2,0,0.2c0.9,0.7,1.7,1.5,2.5,2.2c0,0,0.1,0.1,0.1,0.1
				c0.1,0,0.1,0,0.1-0.1C230.7,142.1,230.7,142,230.6,141.9z M235.6,146.6c-0.8-0.8-1.6-1.6-2.5-2.3c0-0.1-0.1,0-0.2,0
				c-0.1,0.1-0.1,0.2,0,0.2c0.9,0.8,1.7,1.6,2.4,2.3c0,0,0.1,0.1,0.1,0.1c0,0,0.1,0,0.1-0.1C235.6,146.7,235.6,146.6,235.6,146.6z"
				/>
		</g>
	</g>
	<g>
		<g>
			<path class="st4" d="M233,150.7c-0.8-0.8-1.6-1.6-2.5-2.3c-0.1-0.1-0.1-0.1-0.2,0c-0.1,0.1-0.1,0.1,0,0.2
				c0.8,0.8,1.7,1.6,2.5,2.3c0,0,0.1,0,0.1,0c0,0,0.1,0,0.1,0C233.1,150.8,233.1,150.7,233,150.7z M228.1,146.1
				c-0.8-0.7-1.7-1.5-2.5-2.2c-0.1,0-0.1,0-0.2,0c-0.1,0.1-0.1,0.1,0,0.2c0.9,0.7,1.7,1.5,2.5,2.2c0,0,0.1,0,0.1,0s0.1,0,0.1,0
				C228.1,146.2,228.1,146.1,228.1,146.1z M223,141.6c-0.9-0.7-1.7-1.4-2.6-2.2c-0.1,0-0.1,0-0.2,0c-0.1,0.1,0,0.1,0,0.2
				c0.9,0.7,1.8,1.4,2.6,2.2c0,0,0.1,0,0.1,0c0,0,0.1,0,0.1-0.1C223,141.8,223,141.7,223,141.6z M217.7,137.3
				c-0.9-0.7-1.8-1.4-2.6-2.1c-0.1,0-0.1,0-0.2,0c-0.1,0.1,0,0.2,0,0.2c0.9,0.7,1.8,1.4,2.7,2.1c0,0,0.1,0,0.1,0c0,0,0.1,0,0.1-0.1
				C217.8,137.4,217.8,137.4,217.7,137.3z M212.4,133.1c-0.9-0.7-1.8-1.4-2.7-2c-0.1-0.1-0.1-0.1-0.2,0c-0.1,0.1-0.1,0.2,0,0.2
				c0.9,0.7,1.8,1.4,2.7,2c0,0,0.1,0,0.1,0c0.1,0,0.1,0,0.1-0.1C212.5,133.2,212.5,133.2,212.4,133.1z M207,129
				c-0.9-0.7-1.8-1.3-2.7-2c-0.1-0.1-0.2,0-0.2,0c-0.1,0.1,0,0.2,0,0.2c0.9,0.7,1.8,1.3,2.7,2c0,0,0.1,0,0.1,0c0,0,0.1,0,0.1-0.1
				C207.1,129.2,207.1,129.1,207,129z M201.5,125.1c-0.9-0.7-1.8-1.3-2.8-1.9c-0.1-0.1-0.2,0-0.2,0c-0.1,0.1,0,0.1,0,0.2
				c0.9,0.6,1.9,1.3,2.8,2c0,0,0.1,0,0.1,0c0.1,0,0.1,0,0.1-0.1C201.6,125.2,201.6,125.1,201.5,125.1z M196,121.2
				c-0.9-0.7-1.9-1.3-2.8-1.9c-0.1,0-0.1,0-0.2,0c-0.1,0.1,0,0.2,0,0.2c0.9,0.6,1.9,1.3,2.8,1.9c0,0,0,0,0.1,0s0.1,0,0.1-0.1
				C196,121.3,196,121.2,196,121.2z M190.3,117.4c-1-0.6-1.9-1.2-2.8-1.8c-0.1-0.1-0.1,0-0.2,0c0,0.1,0,0.2,0.1,0.2
				c0.9,0.6,1.9,1.2,2.8,1.8c0,0,0,0,0.1,0c0,0,0.1,0,0.1-0.1C190.4,117.5,190.4,117.4,190.3,117.4z M184.6,113.7
				c-1-0.6-1.9-1.2-2.9-1.8c-0.1,0-0.1,0-0.2,0.1c-0.1,0.1,0,0.2,0,0.2c1,0.6,1.9,1.2,2.9,1.8c0,0,0.1,0,0.1,0c0,0,0.1,0,0.1-0.1
				C184.7,113.9,184.7,113.8,184.6,113.7z M178.9,110.2c-1-0.6-2-1.2-2.9-1.7c-0.1,0-0.2,0-0.2,0.1c0,0.1,0,0.1,0.1,0.2
				c1,0.6,1.9,1.1,2.9,1.7c0,0,0.1,0,0.1,0c0,0,0.1,0,0.1-0.1C179,110.3,178.9,110.2,178.9,110.2z M173,106.8c-1-0.6-2-1.1-3-1.7
				c-0.1,0-0.2,0-0.2,0c0,0.1,0,0.2,0.1,0.2c1,0.5,1.9,1.1,2.9,1.7c0,0,0.1,0,0.1,0c0,0,0.1,0,0.1-0.1
				C173.1,106.9,173.1,106.8,173,106.8z M167.1,103.5c-1-0.5-2-1.1-3-1.6c-0.1,0-0.2,0-0.2,0.1c0,0.1,0,0.2,0.1,0.2c1,0.5,2,1,3,1.6
				c0,0,0.1,0,0.1,0c0.1,0,0.1,0,0.1-0.1C167.2,103.6,167.2,103.5,167.1,103.5z M161.1,100.4c-1-0.5-2.1-1-3-1.5
				c-0.1,0-0.2,0-0.2,0.1c0,0.1,0,0.2,0.1,0.2c1,0.5,2,1,3.1,1.5h0.1c0.1,0,0.1,0,0.1-0.1C161.2,100.5,161.2,100.4,161.1,100.4z
				 M155,97.5c-0.3-0.1-1.2-0.5-1.9-0.8l-0.2,0.2c0.7,0.3,1.6,0.7,2,0.9C155,97.8,155.2,97.5,155,97.5z"/>
		</g>
	</g>
	<path class="st0" d="M126.2,143.6c-7.6-4.2-16.7-5.2-24.9-2.4c-2.8,0.9-4.5,2-3.4,2.9c3.3,2.8,56.2,30.7,56.2,23.5
		C154,161.2,150.2,156.9,126.2,143.6z"/>
</g>
</svg>
