<?xml version="1.0" encoding="utf-8"?>
<!-- Generator: Adobe Illustrator 23.0.1, SVG Export Plug-In . SVG Version: 6.00 Build 0)  -->
<svg version="1.1" id="Layer_1" xmlns="http://www.w3.org/2000/svg" xmlns:xlink="http://www.w3.org/1999/xlink" x="0px" y="0px"
	 viewBox="0 0 321.7 321.7" style="enable-background:new 0 0 321.7 321.7;" xml:space="preserve">
<style type="text/css">
	.st0{fill:#BC446F;}
	.st1{fill:#EF5972;}
	.st2{opacity:0.63;fill:#BC446F;}
	.st3{fill:#AF3C54;}
	.st4{fill:#BC33C4;}
	.st5{fill:#68287F;}
	.st6{opacity:0.29;fill:#F6BCFF;}
	.st7{fill:#BC33AB;}
	.st8{opacity:0.29;fill:#F62AFF;}
</style>
<g>
	<g>
		<path class="st0" d="M109.5,65.1l11.3-4.4c0,0,14.5,23.5,34.5,25.1c20.1,1.6,37.4-5.8,48.9-23.9l11.7,4.2c0,0-13.6,7.6-23.2,30.9
			c-9.6,23.3-6,49.5-6,49.5H138C138,146.7,142.9,88.4,109.5,65.1z"/>
		<path class="st1" d="M104.8,66.9c0,0,8.4,9.9,9.9,24.1c1.1,10.8-5.9,23.9-8.9,34.1c0,0-3,4.1,7.7,30.1l-4.3,82.9
			c30.7,25.6,76.9,21.7,104.1,0.8c0,0-12.8-55.3-7.4-87c0,0,7.3-10.7,8.9-21.6c0,0-4-8.2-5.1-16c-0.5-3.3-1.3-13.4,0.3-23.1
			c2-12.1,7.9-24.2,7.9-24.2L204.2,62c0,0,4,14,1.1,28.4c-2.4,12-10.8,24.4-20,29.1c-11,5.6-25.9,9.7-38,5.5
			c-9.5-3.3-14.5-9.4-20.6-18c-3.4-4.8-6.7-12.2-8-17.1c-4.4-16.1,1.4-28.8,2-29.1L104.8,66.9z"/>
		<path class="st2" d="M172.8,164.3c-23.7,0-59.3-9.1-59.3-9.1l-4.3,82.9c12.5,10.4,27.5,15.9,42.8,17.4c-0.8-2.5-1.8-5.2-3.1-7.9
			C121.1,186.3,172.8,164.3,172.8,164.3z"/>
		<path class="st2" d="M204.5,98.5c0,0-14.8,25.6-11.5,27.7S204.5,98.5,204.5,98.5z"/>
		<path class="st2" d="M205.9,98.5c0,0-7.7,27.2-2,27.8C209.4,127,205.9,98.5,205.9,98.5z"/>
		<g>
			<path class="st3" d="M127.8,109.9c6,8.8,12.6,15.3,23.6,17.4c5.8,1,12.9,1,22.3-1.9c13.1-4.2,18.8-8.7,24.1-16.7
				c2.7-4.2,4.8-8.7,6.1-13.4c-3.5,8.6-9.6,17.6-17.6,22.3c-4.2,2.2-8.7,4.1-13.3,5.4c-14.8,4.4-29,3.2-39.2-8.5
				c-6.9-7.5-11.9-15.6-15.1-24.6c0.5,2.4,1.3,4.7,2.2,7C123.4,103.4,125.4,106.4,127.8,109.9z"/>
			<path class="st3" d="M110.4,237.5c2.4-43.7,0.3-4.7,2.1-40.8c1.3-26.9,1-20,1.9-41.7c0-0.1-10.2-23.4-8.3-29.3
				c0-0.1,0.1-0.3,0.1-0.3c4.8-14.4,7.9-21.4,8.4-29.6c-1.1,9.4-5.9,18.6-9.7,29.6c-0.6,1.8,0,5.7,0.3,7.6
				c1.4,7.2,4.6,15.9,7.2,22.3c-1,14.9-1,16.9-2.4,41.2c-0.2,4.3,0.8-15.6-2.2,42.1c0.6,0.4,9.9,8.9,25.2,14
				c26.6,8.9,59.1,3.2,80.2-13.7C205.7,244.4,139.4,261.3,110.4,237.5z"/>
		</g>
		<g>
			<path class="st4" d="M121.5,86.9c0.7,2.3-1.2,4.9-4.2,5.9s-6.1-0.2-6.8-2.5c-0.7-2.3,1.2-4.9,4.2-5.9S120.8,84.6,121.5,86.9z"/>
			<path class="st5" d="M113.6,92.9c3.5,0.6,6.8-1.5,7.6-4c0.9-2.6-1.6-5.2-5.9-4.6c4-1.2,7.6,1.4,6.5,4.8c-0.5,1.6-1.9,2.9-3.4,3.5
				C116.9,93.3,115.2,93.4,113.6,92.9z"/>
			<path class="st6" d="M113.8,85.7c0,0-2.3,0.4-1.9,2.9c0.3,2.4,2.5,3.4,3.1,1C115.6,87.2,116.6,85.2,113.8,85.7z"/>
		</g>
		<g>
			<path class="st7" d="M212.3,92.7c-0.4,2.4-3.2,3.9-6.4,3.4c-3.1-0.5-5.4-2.8-5-5.2c0.4-2.4,3.2-3.9,6.4-3.4
				C210.4,88,212.7,90.3,212.3,92.7z"/>
			<path class="st5" d="M207.8,87.6c4.1,1.4,5.2,4.9,3.2,6.8c-1.8,1.9-5.7,2.2-8.5,0.2c1.1,1.1,2.8,1.8,4.4,1.9
				c1.6,0.1,3.4-0.4,4.6-1.6C214,92.2,211.9,88.2,207.8,87.6z"/>
			<path class="st8" d="M205.9,88.2c0,0-2.2-0.6-3,1.7c-0.8,2.3,0.7,4.1,2.3,2.2C206.8,90.3,208.6,89,205.9,88.2z"/>
		</g>
	</g>
	<path class="st2" d="M116.6,95.9c0,0-9.8,27.1-4.8,29C116.9,126.7,116.6,95.9,116.6,95.9z"/>
	<path class="st2" d="M118.9,102.1v0.4c0.4,0.4,0.9,22.6,4.9,24C127.7,127.9,118.9,102.1,118.9,102.1z"/>
</g>
</svg>
