<?xml version="1.0" encoding="utf-8"?>
<!-- Generator: Adobe Illustrator 23.0.1, SVG Export Plug-In . SVG Version: 6.00 Build 0)  -->
<svg version="1.1" id="Layer_1" xmlns="http://www.w3.org/2000/svg" xmlns:xlink="http://www.w3.org/1999/xlink" x="0px" y="0px"
	 viewBox="0 0 321.7 321.7" style="enable-background:new 0 0 321.7 321.7;" xml:space="preserve">
<style type="text/css">
	.st0{fill:#FA6B5B;}
	.st1{fill:#1D2251;}
	.st2{fill:#322144;}
	.st3{fill:#4B3F56;}
	.st4{fill:#FA835B;}
	.st5{opacity:0.54;fill:#E06D48;}
	.st6{fill:#403160;}
</style>
<g>
	<path class="st0" d="M131.2,107.4l-12.7-53l6-3c0,0,36.9,8,66.8-3.2l12.8,4.6l-11.9,57.1L131.2,107.4z"/>
	<path class="st1" d="M198.4,51.6l5.6,1.6l0.1-0.3l-12.8-4.6c-29.9,11.2-66.8,3.2-66.8,3.2l-6,3l0.2,0.8
		C129.3,56.7,167,61,198.4,51.6z"/>
	<path class="st2" d="M88.8,121.7l-21.8,0.9c0,0-2.3,4,3.9,10.2c6.3,6.3,34.8,20.2,35.4,17.4c0.6-2.7-2.2-12.5-4.6-14.9
		C99.4,133,88.8,121.7,88.8,121.7z"/>
	<path class="st3" d="M67.1,122.7c0,0,34.9,14.6,39.3,27.7l4.8-21.7l2.8-43.6L91.9,67.7L67.1,122.7z"/>
	<path class="st2" d="M255.8,118.3c1.2,3.6-32.8,33.1-38.7,30.7c0,0,0.3-6.1,2.4-12.8C221.7,129.6,244.7,117.8,255.8,118.3z"/>
	<path class="st3" d="M230.5,62.4l25.3,55.9c0,0-35.5,11.5-38.7,30.7l-3.9-19.5V94.2L230.5,62.4z"/>
	<path class="st4" d="M91.9,67.7c0,0,19.6,45.7,19.6,57.1c0,11.5-7.4,105.9-13.4,132.8c0,0,80.4,16.9,124.8,2.3
		c0,0-14.5-87.2-9.7-130.5c0.3-2.4,17.3-67,17.3-67l-38.9-14.1c0,0-8.9,33.2-35.5,33.2c-21.3,0-32.5-29.7-32.5-29.7L91.9,67.7z"/>
	<path class="st5" d="M118.5,196.6c3.8-15.8,40.7-9.7,13.7-36.7c-22.3-22.3-23.8-80.8-23.7-100.5l-16.6,8.3c0,0,19.6,45.7,19.6,57.1
		c0,11.5-7.4,105.9-13.4,132.8c0,0,28.1,5.9,60.2,7.7c1-7.5,0.4-16.4-5.1-24C140.7,224.4,114.7,212.4,118.5,196.6z"/>
	<g>
		<path class="st6" d="M156.5,86.1c19.6,0,33.1-23.8,38.8-36.4l-4.1-1.5c0,0-9,32-35.6,32c-21.3,0-31.2-28.8-31.2-28.8l-4.5,2.2
			C126.8,65.3,141.2,86.1,156.5,86.1z"/>
	</g>
</g>
</svg>
