<?xml version="1.0" encoding="utf-8"?>
<!-- Generator: Adobe Illustrator 23.0.1, SVG Export Plug-In . SVG Version: 6.00 Build 0)  -->
<svg version="1.1" id="Layer_1" xmlns="http://www.w3.org/2000/svg" xmlns:xlink="http://www.w3.org/1999/xlink" x="0px" y="0px"
	 viewBox="0 0 321.7 321.7" style="enable-background:new 0 0 321.7 321.7;" xml:space="preserve">
<style type="text/css">
	.st0{fill:#4778E3;}
	.st1{fill:#6BADFF;}
	.st2{fill:#57A4EA;}
	.st3{fill:#5FA9F9;}
	.st4{fill:#C3DAF4;}
	.st5{opacity:0.29;}
	.st6{fill:#94B9E8;}
	.st7{fill:#6F94B5;}
	.st8{fill:#FFDBC2;}
	.st9{fill:#FC6C0C;}
</style>
<g>
	<path class="st0" d="M128.9,39.6l5.6-7.5c0,0,5,18.5,21.6,21.6s28.5-21.6,28.5-21.6l5.9,16.2L169,91.2l-23.8-2.7L129,41.3v-1.7
		H128.9z"/>
	<path class="st1" d="M214.6,235.8c-10.1-67.6-8-71.3-16.4-89.5c-1.3-2.9-5.9-13-7.8-17.6c-6.7-15.9,8.8-49.9,8.8-49.9l-3.3-26.3
		c-0.6-4.8-0.1-7.6,0.1-15.9L184.6,32c0.5,2.6,0.5,5.4,1.2,10.3c1,7.1-1.1,14.4-6,19.6c-7.2,7.7-18.4,12.5-27.1,9.2
		c-8.8-3.3-18-12.4-18.3-22c-0.9-9.9,0.2-17.1,0.2-17.1l-11.4,4c1.1,7.4,2.5,11.3,2.2,17.8L123.8,83c0,0,15.2,18.3,10.5,47.4
		c-1.3,7.8-7.6,15.8-11.8,29c-9.2,28.6-15.9,71.3-23.3,108.4c31,16.9,91.8,22.4,124.3-1.4C218.9,258.7,216.4,247.4,214.6,235.8z"/>
	<path class="st2" d="M214.6,235.8c-10.1-67.6-8-71.3-16.4-89.5c-1.3-2.9-5.9-13-7.8-17.6c-6.7-15.9,8.8-49.9,8.8-49.9l-3.3-26.3
		c-0.6-4.8-0.1-7.6,0.1-15.9l-5.1-2.1l2.7,41.5c0,0-12.5,37.3-12.5,48s13.7,27.9,16.6,53.6c2.4,21,6.1,78.1,7.3,98.4
		c6.7-2.4,12.9-5.6,18.4-9.5C218.9,258.7,216.4,247.4,214.6,235.8z"/>
	<path class="st3" d="M126.5,171.1c6.5-30.8,14.9-34.2,14.9-49.4c0-15.1-9.6-37.9-9.6-37.9s-2.8-9.4-2.8-25c0-8.3-1.7-17.2-3.3-23.7
		l-2.6,0.9c1.1,7.4,2.5,11.3,2.2,17.8L123.7,83c0,0,15.2,18.3,10.5,47.4c-1.3,7.8-7.6,15.8-11.8,29c-9.2,28.6-15.9,71.3-23.3,108.4
		c4.8,2.6,10.1,4.9,15.9,6.8C116.3,256.3,121,196.9,126.5,171.1z"/>
	<g>
		<g>
			<path class="st4" d="M186.1,34.7c-0.2,0-0.4-0.2-0.4-0.4c0-0.4,0-0.7,0-1c0-0.2,0.2-0.4,0.4-0.4s0.4,0.2,0.4,0.4c0,0.3,0,0.6,0,1
				C186.5,34.5,186.3,34.7,186.1,34.7L186.1,34.7z"/>
		</g>
		<g>
			<path class="st4" d="M158.7,76.1h-0.2c-0.6,0-1.3,0-1.9-0.1c-0.2,0-0.4-0.2-0.3-0.4c0-0.2,0.2-0.4,0.4-0.3
				c0.6,0.1,1.2,0.1,1.8,0.1h0.2l0,0c0.2,0,0.4,0.2,0.4,0.4C159.1,75.9,158.9,76.1,158.7,76.1z M160.7,76c-0.2,0-0.4-0.1-0.4-0.3
				c0-0.2,0.1-0.4,0.3-0.4c0.6-0.1,1.3-0.1,2-0.3c0.2,0,0.4,0.1,0.4,0.3c0,0.2-0.1,0.4-0.3,0.4C162.1,75.9,161.4,75.9,160.7,76
				L160.7,76z M154.7,75.8C154.7,75.8,154.6,75.8,154.7,75.8c-0.8-0.1-1.4-0.3-2.1-0.5c-0.2-0.1-0.3-0.3-0.2-0.5s0.3-0.3,0.5-0.2
				c0.6,0.2,1.3,0.4,1.9,0.5c0.2,0,0.3,0.2,0.3,0.4C155,75.6,154.9,75.8,154.7,75.8z M164.7,75.3c-0.2,0-0.3-0.1-0.4-0.3
				c-0.1-0.2,0.1-0.4,0.3-0.5c0.6-0.2,1.3-0.3,1.9-0.5c0.2-0.1,0.4,0,0.5,0.2s0,0.4-0.2,0.5C166.1,75,165.4,75.1,164.7,75.3
				C164.8,75.3,164.7,75.3,164.7,75.3z M150.8,74.6h-0.1c-0.6-0.3-1.2-0.5-1.9-0.8c-0.2-0.1-0.3-0.3-0.2-0.5s0.3-0.3,0.5-0.2
				c0.6,0.3,1.2,0.6,1.8,0.8c0.2,0.1,0.3,0.3,0.2,0.5C151.1,74.5,151,74.6,150.8,74.6z M168.6,74.1c-0.1,0-0.3-0.1-0.3-0.2
				c-0.1-0.2,0-0.4,0.2-0.5c0.6-0.2,1.2-0.5,1.8-0.8c0.2-0.1,0.4,0,0.5,0.2s0,0.4-0.2,0.5c-0.6,0.3-1.2,0.6-1.9,0.8
				C168.6,74.1,168.6,74.1,168.6,74.1z M147.2,72.8c-0.1,0-0.1,0-0.2,0c-0.6-0.3-1.2-0.7-1.8-1.1c-0.2-0.1-0.2-0.3-0.1-0.5
				c0.1-0.2,0.3-0.2,0.5-0.1c0.6,0.4,1.1,0.7,1.7,1c0.2,0.1,0.2,0.3,0.1,0.5C147.5,72.7,147.3,72.8,147.2,72.8z M172.2,72.4
				c-0.1,0-0.3-0.1-0.3-0.2c-0.1-0.2,0-0.4,0.2-0.5c0.6-0.3,1.2-0.6,1.7-1c0.2-0.1,0.4-0.1,0.5,0.1s0.1,0.4-0.1,0.5
				c-0.6,0.4-1.2,0.7-1.8,1C172.3,72.4,172.3,72.4,172.2,72.4z M143.8,70.6c-0.1,0-0.2,0-0.2-0.1c-0.5-0.4-1.1-0.8-1.6-1.2
				c-0.2-0.1-0.2-0.4-0.1-0.5c0.1-0.2,0.4-0.2,0.5-0.1c0.5,0.4,1,0.8,1.6,1.2c0.2,0.1,0.2,0.4,0.1,0.5
				C144,70.6,143.9,70.6,143.8,70.6z M175.7,70.3c-0.1,0-0.2-0.1-0.3-0.2c-0.1-0.2-0.1-0.4,0.1-0.5c0.6-0.4,1.1-0.8,1.6-1.2
				c0.2-0.1,0.4-0.1,0.5,0.1s0.1,0.4-0.1,0.5c-0.5,0.4-1.1,0.8-1.7,1.2C175.8,70.3,175.7,70.3,175.7,70.3z M140.7,68.1
				c-0.1,0-0.2,0-0.3-0.1c-0.5-0.5-1-0.9-1.5-1.4c-0.1-0.1-0.1-0.4,0-0.5s0.4-0.1,0.5,0c0.5,0.5,0.9,0.9,1.4,1.4
				C141,67.6,141,67.9,140.7,68.1C140.9,68,140.8,68.1,140.7,68.1z M178.9,67.8c-0.1,0-0.2,0-0.3-0.1c-0.1-0.2-0.1-0.4,0-0.5
				c0.5-0.4,1-0.9,1.5-1.3c0.1-0.1,0.4-0.1,0.5,0s0.1,0.4,0,0.5c-0.5,0.5-1,0.9-1.5,1.4C179.1,67.8,179,67.8,178.9,67.8z
				 M137.9,65.1c-0.1,0-0.2,0-0.3-0.1c-0.4-0.5-0.9-1.1-1.3-1.6c-0.1-0.2-0.1-0.4,0.1-0.5c0.2-0.1,0.4-0.1,0.5,0.1
				c0.4,0.5,0.8,1.1,1.2,1.6c0.1,0.2,0.1,0.4,0,0.5C138.1,65.1,138,65.1,137.9,65.1z M181.8,65c-0.1,0-0.2,0-0.3-0.1
				c-0.2-0.1-0.2-0.4,0-0.5c0.4-0.5,0.9-1,1.3-1.5c0.1-0.2,0.4-0.2,0.5-0.1c0.2,0.1,0.2,0.4,0.1,0.5c-0.4,0.5-0.8,1.1-1.3,1.6
				C182,65,181.9,65,181.8,65z M135.5,61.9c-0.1,0-0.3-0.1-0.3-0.2c-0.4-0.6-0.7-1.2-1-1.8c-0.1-0.2,0-0.4,0.2-0.5s0.4,0,0.5,0.2
				c0.3,0.6,0.6,1.2,1,1.7c0.1,0.2,0.1,0.4-0.1,0.5C135.7,61.9,135.6,61.9,135.5,61.9z M184.2,61.8c-0.1,0-0.1,0-0.2-0.1
				c-0.2-0.1-0.2-0.3-0.1-0.5c0.3-0.6,0.7-1.1,1-1.7c0.1-0.2,0.3-0.3,0.5-0.2s0.3,0.3,0.2,0.5c-0.3,0.6-0.6,1.2-1,1.8
				C184.5,61.7,184.3,61.8,184.2,61.8z M133.7,58.2c-0.2,0-0.3-0.1-0.4-0.2c-0.2-0.7-0.5-1.3-0.6-2c-0.1-0.2,0.1-0.4,0.3-0.5
				s0.4,0.1,0.5,0.3c0.2,0.6,0.4,1.3,0.6,1.9c0.1,0.2,0,0.4-0.2,0.5C133.8,58.2,133.8,58.2,133.7,58.2z M186,58.2h-0.1
				c-0.2-0.1-0.3-0.3-0.2-0.5c0.2-0.6,0.5-1.2,0.6-1.9c0.1-0.2,0.3-0.3,0.5-0.3c0.2,0.1,0.3,0.3,0.3,0.5c-0.2,0.7-0.4,1.3-0.7,1.9
				C186.3,58.1,186.2,58.2,186,58.2z M187.2,54.3C187.1,54.3,187.1,54.3,187.2,54.3c-0.3,0-0.4-0.2-0.4-0.4c0.1-0.6,0.2-1.3,0.3-2
				c0-0.2,0.2-0.4,0.4-0.3c0.2,0,0.4,0.2,0.3,0.4c-0.1,0.7-0.2,1.4-0.3,2C187.5,54.2,187.3,54.3,187.2,54.3z M132.8,54.3
				c-0.2,0-0.3-0.1-0.4-0.3c-0.1-0.4-0.1-0.9-0.1-1.3l-0.1-0.7c0-0.2,0.1-0.4,0.3-0.4s0.4,0.1,0.4,0.3l0.1,0.7c0,0.4,0,0.8,0.1,1.3
				C133.2,54.1,133,54.3,132.8,54.3L132.8,54.3z M187.6,50.3L187.6,50.3c-0.2,0-0.4-0.2-0.4-0.4s0-0.4,0-0.5c0-0.5,0-1,0-1.5
				c0-0.2,0.1-0.4,0.4-0.4c0.2,0,0.4,0.1,0.4,0.4c0,0.5,0,1,0,1.5c0,0.2,0,0.4,0,0.6C188,50.2,187.8,50.3,187.6,50.3z M132.5,50.3
				c-0.2,0-0.4-0.2-0.4-0.3c0-0.7-0.1-1.4-0.1-2c0-0.2,0.1-0.4,0.4-0.4c0.2,0,0.4,0.1,0.4,0.4c0,0.7,0.1,1.3,0.1,2
				C132.8,50.1,132.7,50.3,132.5,50.3L132.5,50.3z M187.4,46.3c-0.2,0-0.3-0.1-0.4-0.3c-0.1-0.7-0.2-1.3-0.3-2
				c0-0.2,0.1-0.4,0.3-0.4s0.4,0.1,0.4,0.3c0.1,0.7,0.2,1.3,0.3,2C187.8,46.1,187.6,46.3,187.4,46.3L187.4,46.3z M132.2,46.3
				c-0.2,0-0.4-0.2-0.4-0.4c0-0.7,0-1.4-0.1-2c0-0.2,0.2-0.4,0.4-0.4s0.4,0.2,0.4,0.4c0,0.7,0,1.3,0.1,2
				C132.6,46.1,132.5,46.3,132.2,46.3L132.2,46.3z M186.8,42.3c-0.2,0-0.3-0.1-0.4-0.3c-0.1-0.7-0.2-1.4-0.2-2
				c0-0.2,0.1-0.4,0.3-0.4s0.4,0.1,0.4,0.3c0.1,0.7,0.1,1.3,0.2,2C187.2,42.1,187.1,42.3,186.8,42.3L186.8,42.3z M132.1,42.2
				c-0.2,0-0.4-0.2-0.4-0.4c0-0.6,0-1.2,0-1.7v-0.3c0-0.2,0.2-0.4,0.4-0.4l0,0c0.2,0,0.4,0.2,0.4,0.4v0.3c0,0.5,0,1.1,0,1.7
				C132.5,42.1,132.4,42.2,132.1,42.2L132.1,42.2z M186.4,38.3c-0.2,0-0.4-0.1-0.4-0.3c-0.1-0.7-0.1-1.4-0.2-2
				c0-0.2,0.1-0.4,0.3-0.4s0.4,0.1,0.4,0.3c0,0.6,0.1,1.3,0.2,2C186.8,38.1,186.6,38.3,186.4,38.3L186.4,38.3z M132.2,38.2
				C132.1,38.2,132.1,38.2,132.2,38.2c-0.2,0-0.4-0.2-0.4-0.4c0-0.7,0-1.4,0-2c0-0.2,0.2-0.4,0.4-0.4s0.4,0.2,0.4,0.4
				c0,0.6,0,1.3,0,2C132.5,38,132.4,38.2,132.2,38.2z"/>
		</g>
		<g>
			<path class="st4" d="M132.3,35L132.3,35c-0.2,0-0.4-0.2-0.4-0.4c0-0.6,0-1,0-1c0-0.2,0.2-0.4,0.4-0.4s0.4,0.2,0.4,0.4
				c0,0,0,0.4,0,1C132.6,34.8,132.5,35,132.3,35z"/>
		</g>
	</g>
	<g class="st5">
		<path class="st6" d="M137.3,76.5c-1.9,1-3,3.1-3,5.3c-0.1,4.1,0.8,11.3,7.7,13.8c9.9,3.6,15.9,2,24.7,2s28.8-5.5,22.3-19.2
			c-4.5-9.5-24.4,3.7-36.4,1.7C142.8,78.6,140.8,74.6,137.3,76.5z"/>
	</g>
	<g class="st5">
		<path class="st6" d="M166.7,142.1c-15.1-2.9-29.4,8.1-32.5,24.6c-4,21.8-17.4,77.1-14.2,93.3c4.2,21.1,75.6,22.1,77.8-0.1
			c1.7-17.3-3.6-111.6-29.8-117.5C167.6,142.3,167.1,142.2,166.7,142.1z"/>
	</g>
	<g>
		<path class="st7" d="M186.5,55.5c0-0.1-0.1-0.2-0.2-0.2c-0.3-0.1-0.9,0.3-1.2,1.1c-0.1,0.4-1.2,4-0.8,4.1c0.4,0.2,2.4-3.1,2.5-3.4
			C187.2,56.3,187.1,55.3,186.5,55.5z"/>
		<path class="st8" d="M184.4,60.6c-0.6-0.2,0.7-4.2,0.7-4.2c0.4-1,1.2-1.5,1.5-0.9c0.1,0,0.2,0,0.3,0c0.4,0.2,0.4,0.9,0.1,1.7
			C186.8,57.4,184.9,60.8,184.4,60.6z M185.2,56.4c-0.2,0.5-1.1,3.9-0.8,4.1c0.3,0.1,2.2-2.9,2.4-3.4c0.3-0.8,0.2-1.7-0.3-1.5h-0.1
			v-0.1C186.2,55,185.5,55.7,185.2,56.4z"/>
		<g>
			<path class="st9" d="M186.5,55.5c0-0.1-0.1-0.2-0.2-0.2c-0.3-0.1-0.9,0.3-1.2,1.1c-0.1,0.4-1.2,4-0.8,4.1
				c0.4,0.2,2.4-3.1,2.5-3.4C187.2,56.3,187.1,55.3,186.5,55.5z"/>
			<path class="st8" d="M184.4,60.6c-0.6-0.2,0.7-4.2,0.7-4.2c0.4-1,1.2-1.5,1.5-0.9c0.1,0,0.2,0,0.3,0c0.4,0.2,0.4,0.9,0.1,1.7
				C186.8,57.4,184.9,60.8,184.4,60.6z M185.2,56.4c-0.2,0.5-1.1,3.9-0.8,4.1c0.3,0.1,2.2-2.9,2.4-3.4c0.3-0.8,0.2-1.7-0.3-1.5h-0.1
				v-0.1C186.2,55,185.5,55.7,185.2,56.4z"/>
		</g>
		<g>
			<path class="st9" d="M182.2,66.3c0.1,0.1,0.1,0.2,0.2,0.2c0.4,0.1,0.9-0.4,1.1-1.1c0.1-0.4,1.1-4,0.6-4.2
				c-0.4-0.2-2.3,3.2-2.4,3.5C181.4,65.6,181.6,66.6,182.2,66.3z"/>
			<path class="st8" d="M181.7,64.7c0.1-0.4,2-3.8,2.5-3.6s-0.4,3.9-0.6,4.3c-0.4,1-1.1,1.5-1.4,1c-0.1,0-0.2,0-0.3,0l0,0
				C181.4,66.2,181.5,65.2,181.7,64.7z M184.1,61.3c-0.4-0.1-2.2,3.1-2.3,3.5c-0.3,0.8-0.2,1.7,0.4,1.5h0.1c0,0,0.1,0.2,0.2,0.2
				c0.4,0.1,0.9-0.7,1-1.1c0.1-0.2,0.3-1.2,0.5-2.2C184.4,61.2,184.1,61.2,184.1,61.3z"/>
		</g>
		<g>
			<path class="st9" d="M178.9,58.7c-0.1,0-0.2,0.1-0.2,0.2c-0.1,0.3,0.3,0.9,1.1,1.2c0.4,0.1,4,1.2,4.1,0.8
				c0.2-0.4-3.1-2.4-3.4-2.5C179.6,58,178.6,58.1,178.9,58.7z"/>
			<path class="st8" d="M179.7,60.1c-0.9-0.4-1.5-1.1-0.9-1.5c0-0.1,0-0.2,0-0.3c0.2-0.4,0.9-0.4,1.7-0.1c0.3,0.1,3.7,2.1,3.5,2.6
				C183.7,61.4,179.8,60.2,179.7,60.1z M180.4,58.4c-0.7-0.3-1.4-0.3-1.5,0.1c0,0.1,0,0.3,0,0.3h-0.1c-0.5,0.3,0.1,0.9,0.9,1.2
				c0.5,0.2,3.9,1.1,4.1,0.8S180.9,58.6,180.4,58.4z"/>
		</g>
		<g>
			<path class="st9" d="M189.6,63c0.1-0.1,0.2-0.1,0.2-0.2c0.1-0.4-0.4-0.9-1.1-1.1c-0.4-0.1-4-1.1-4.2-0.6
				c-0.2,0.4,3.2,2.3,3.5,2.4C188.9,63.8,189.9,63.6,189.6,63z"/>
			<path class="st8" d="M184.5,61.1c0.2-0.5,3.9,0.4,4.3,0.6c1,0.3,1.5,1.1,1,1.4c0,0.1,0,0.2,0,0.3l0,0c-0.2,0.5-1.2,0.4-1.7,0.2
				C187.7,63.4,184.3,61.6,184.5,61.1z M188.7,61.8c-0.4-0.2-4-1-4.1-0.7c-0.1,0.4,3,2.1,3.5,2.3c0.9,0.3,1.7,0.2,1.5-0.4v-0.1
				c0,0,0.2-0.1,0.2-0.2C189.9,62.4,189.1,61.9,188.7,61.8z"/>
		</g>
		<g>
			<path class="st9" d="M189.7,58.7c0-0.1,0-0.2,0-0.3c-0.1-0.3-0.9-0.4-1.6-0.1c-0.4,0.2-3.7,2-3.5,2.4s3.9-0.5,4.2-0.7
				C189.7,59.7,190.3,58.9,189.7,58.7z"/>
			<path class="st8" d="M184.6,60.7c-0.2-0.6,3.5-2.5,3.5-2.5c1-0.4,1.9-0.2,1.7,0.4c0.4,0.2,0.3,0.6,0,0.9
				c-0.2,0.2-0.5,0.4-0.9,0.6C188.5,60.3,184.8,61.3,184.6,60.7z M189.1,58.2c-0.3,0-0.6,0.1-1,0.2c-0.5,0.2-3.6,2-3.4,2.3
				c0.2,0.4,3.7-0.5,4.1-0.7c0.3-0.1,0.6-0.4,0.8-0.6c0.5-0.6,0-0.7-0.1-0.7c0,0,0.1-0.2,0-0.3C189.5,58.2,189.3,58.2,189.1,58.2z"
				/>
		</g>
		<g>
			<path class="st9" d="M179,63.2c0,0.1,0,0.2,0,0.3c0.2,0.3,0.9,0.3,1.6,0c0.4-0.2,3.6-2.1,3.4-2.5c-0.2-0.4-3.8,0.6-4.2,0.8
				C179,62.2,178.4,63,179,63.2z"/>
			<path class="st8" d="M179.2,63.8c-0.2-0.1-0.3-0.3-0.3-0.5c-0.1,0-0.2-0.1-0.2-0.2l0,0c-0.2-0.5,0.6-1.1,1.1-1.3
				c0.3-0.2,4-1.3,4.3-0.8s-3.4,2.6-3.4,2.6C180.1,63.8,179.5,63.9,179.2,63.8z M178.9,63c0.1,0.1,0.2,0.2,0.2,0.2s-0.1,0.2,0,0.3
				c0.1,0.3,0.8,0.3,1.5,0c0.5-0.2,3.5-2.1,3.4-2.4c-0.2-0.4-3.7,0.6-4.1,0.8c-0.3,0.2-0.6,0.4-0.8,0.6
				C178.8,62.7,178.8,62.9,178.9,63L178.9,63z"/>
		</g>
		<g>
			<path class="st9" d="M182,55.5c-0.1,0-0.2,0-0.3,0c-0.3,0.1-0.4,0.9-0.1,1.6c0.2,0.4,2,3.7,2.4,3.5s-0.5-3.9-0.7-4.2
				C183.1,55.5,182.3,54.9,182,55.5z"/>
			<path class="st8" d="M181.6,57.1c-0.2-0.4-0.2-0.7-0.2-1c0-0.4,0.2-0.8,0.6-0.7c0.1-0.1,0.1-0.2,0.2-0.2l0,0
				c0.4-0.2,0.9,0.3,1.3,1.1c0.1,0.3,1.1,4.1,0.6,4.3C183.6,60.9,181.8,57.5,181.6,57.1z M182.3,55.4L182.3,55.4
				c-0.1,0.1-0.2,0.2-0.2,0.2s-0.2-0.1-0.3,0c-0.4,0.2-0.2,1.1,0,1.5s2,3.6,2.3,3.4c0.3-0.1-0.5-3.7-0.7-4.1
				C183.2,55.9,182.7,55.2,182.3,55.4z"/>
		</g>
		<g>
			<path class="st9" d="M186.6,66.2c0.1,0,0.2,0,0.3,0c0.3-0.2,0.3-0.9,0-1.6c-0.2-0.4-2.1-3.6-2.5-3.4c-0.4,0.2,0.6,3.8,0.8,4.2
				C185.6,66.2,186.3,66.8,186.6,66.2z"/>
			<path class="st8" d="M185.1,65.4c-0.2-0.3-1.3-4-0.8-4.3c0.6-0.3,2.6,3.4,2.6,3.4c0.5,1,0.3,1.8-0.3,1.7c0,0.1-0.1,0.2-0.2,0.2
				l0,0C185.9,66.7,185.3,65.9,185.1,65.4z M184.4,61.3c-0.4,0.2,0.6,3.7,0.8,4.1c0.2,0.3,0.4,0.6,0.6,0.8c0.2,0.2,0.4,0.2,0.5,0.2
				l0,0c0.1-0.1,0.2-0.2,0.2-0.2s0.2,0.1,0.3,0c0.3-0.1,0.3-0.8,0-1.5C186.6,64.1,184.7,61.1,184.4,61.3z"/>
		</g>
		<path class="st9" d="M186.3,57.1c-0.1,0.2-1.7,3.6-1.9,3.5s1.1-3.6,1.2-3.8C185.7,56.2,186.5,56.6,186.3,57.1z"/>
		<path class="st8" d="M184.4,60.6c-0.3-0.1,1.1-3.8,1.1-3.9c0.1-0.2,0.4-0.4,0.6-0.3c0.2,0.1,0.4,0.4,0.3,0.6
			C186.3,57.2,184.7,60.7,184.4,60.6z M185.6,56.8c-0.2,0.4-1.2,3.2-1.2,3.7c0.3-0.4,1.7-3.1,1.8-3.4
			C186.4,56.6,185.8,56.4,185.6,56.8z"/>
		<g>
			<path class="st9" d="M186.3,57.1c-0.1,0.2-1.7,3.6-1.9,3.5s1.1-3.6,1.2-3.8C185.7,56.2,186.5,56.6,186.3,57.1z"/>
			<path class="st8" d="M184.4,60.6c-0.3-0.1,1.1-3.8,1.1-3.9c0.1-0.2,0.4-0.4,0.6-0.3c0.2,0.1,0.4,0.4,0.3,0.6
				C186.3,57.2,184.7,60.7,184.4,60.6z M185.6,56.8c-0.2,0.4-1.2,3.2-1.2,3.7c0.3-0.4,1.7-3.1,1.8-3.4
				C186.4,56.6,185.8,56.4,185.6,56.8z"/>
		</g>
		<g>
			<path class="st9" d="M182.2,65c0.1-0.2,1.6-3.6,1.8-3.6c0.2,0.1-1,3.6-1,3.8C182.8,65.8,182,65.5,182.2,65z"/>
			<path class="st8" d="M182.1,65c0-0.1,1.6-3.7,1.9-3.6c0.3,0.1-1,3.9-1,3.9c-0.1,0.3-0.4,0.4-0.6,0.3
				C182.2,65.5,182,65.2,182.1,65z M184,61.6c-0.3,0.4-1.6,3.1-1.7,3.5c-0.2,0.4,0.5,0.7,0.7,0.2C183.1,64.9,184,62,184,61.6z"/>
		</g>
		<g>
			<path class="st9" d="M180.3,58.8c0.2,0.1,3.6,1.7,3.5,1.9s-3.6-1.1-3.8-1.2C179.5,59.4,179.8,58.6,180.3,58.8z"/>
			<path class="st8" d="M180,59.7c-0.2-0.1-0.4-0.4-0.3-0.6c0.1-0.2,0.4-0.4,0.6-0.3c0.1,0,3.7,1.7,3.5,2
				C183.7,61.1,180,59.7,180,59.7z M180.3,58.9c-0.4-0.2-0.7,0.5-0.3,0.7s3.2,1.2,3.7,1.2C183.3,60.4,180.6,59,180.3,58.9z"/>
		</g>
		<g>
			<path class="st9" d="M188.2,63c-0.2-0.1-3.6-1.6-3.6-1.8c0.1-0.2,3.6,1,3.8,1C189,62.4,188.8,63.1,188.2,63z"/>
			<path class="st8" d="M184.6,61.1c0.1-0.3,3.9,1,3.9,1c0.6,0.2,0.3,1.1-0.3,0.9C188.2,63,184.5,61.4,184.6,61.1z M184.8,61.2
				c0.4,0.3,3.1,1.6,3.5,1.7c0.4,0.2,0.7-0.5,0.2-0.7C188.1,62.1,185.3,61.2,184.8,61.2z"/>
		</g>
		<g>
			<path class="st9" d="M182.9,56.7c0.1,0.2,1.3,3.7,1.1,3.8s-1.8-3.3-1.9-3.5C182,56.5,182.7,56.2,182.9,56.7z"/>
			<path class="st8" d="M184,60.6c-0.3-0.1-1.8-3.3-1.9-3.5c-0.1-0.2,0-0.5,0.3-0.6c0.2-0.1,0.5,0,0.6,0.3
				C183.1,56.8,184.5,60.8,184,60.6z M182.2,57c0.2,0.4,1.4,3.1,1.8,3.4c0-0.5-1-3.4-1.1-3.7C182.7,56.3,182,56.6,182.2,57z"/>
		</g>
		<g>
			<path class="st9" d="M185.6,65.2c-0.1-0.2-1.4-3.7-1.2-3.8s1.9,3.2,2,3.4C186.6,65.4,185.9,65.8,185.6,65.2z"/>
			<path class="st8" d="M185.6,65.3c-0.1-0.1-1.5-3.8-1.2-3.9c0.3-0.1,2,3.4,2.1,3.5c0.2,0.4-0.2,0.8-0.6,0.7
				C185.9,65.5,185.6,65.4,185.6,65.3z M184.5,61.5c0,0.5,1.1,3.3,1.2,3.7l0,0c0.2,0.4,0.8,0.1,0.6-0.3
				C186.2,64.5,184.8,61.9,184.5,61.5z"/>
		</g>
		<g>
			<path class="st9" d="M179.8,62.2c0.2-0.1,3.8-1.2,3.9-1c0.1,0.2-3.4,1.7-3.6,1.8C179.6,63.2,179.3,62.4,179.8,62.2z"/>
			<path class="st8" d="M179.5,62.4c0.1-0.1,0.1-0.2,0.3-0.3c0.1,0,3.8-1.2,4-0.9c0.1,0.3-3.6,1.8-3.6,1.8
				C179.7,63.2,179.3,62.8,179.5,62.4z M183.6,61.2c-0.5,0-3.4,0.9-3.7,1l0,0c-0.4,0.2-0.2,0.8,0.3,0.7
				C180.5,62.7,183.2,61.6,183.6,61.2z"/>
		</g>
		<g>
			<path class="st9" d="M188.4,59.7c-0.2,0.1-3.7,1.3-3.8,1.1s3.3-1.8,3.5-1.9C188.6,58.8,188.9,59.5,188.4,59.7z"/>
			<path class="st8" d="M184.5,60.9c-0.5-0.2,3.1-1.8,3.5-2c0.6-0.3,1,0.6,0.4,0.9v-0.1v0.1C188.2,59.9,184.9,61.1,184.5,60.9z
				 M188.1,59c-0.4,0.2-3.1,1.4-3.4,1.8c0.5,0,3.4-1,3.7-1.1s0.3-0.5,0-0.6C188.4,59,188.2,59,188.1,59z"/>
		</g>
		<path class="st9" d="M185.2,61.2c-0.2,0.6-0.9,0.9-1.5,0.6c-0.6-0.2-0.9-0.9-0.6-1.5c0.2-0.6,0.9-0.9,1.5-0.6
			C185.1,60,185.4,60.6,185.2,61.2z"/>
		<path class="st8" d="M183.7,61.9c-0.6-0.2-0.9-1-0.7-1.6s1-0.9,1.6-0.7c0.6,0.3,0.9,1,0.7,1.6C185,61.9,184.3,62.2,183.7,61.9z
			 M184.5,59.8c-0.6-0.2-1.2,0-1.4,0.6s0,1.2,0.6,1.4s1.2,0,1.4-0.6C185.3,60.6,185.1,60,184.5,59.8z"/>
	</g>
	<g>
		<path class="st4" d="M155.7,280.4L155.7,280.4c-0.7,0-1.3,0-2,0c-0.2,0-0.4-0.2-0.4-0.4c0-0.2,0.2-0.4,0.4-0.4c0.7,0,1.3,0,2,0
			c0.2,0,0.4,0.2,0.4,0.4C156.1,280.2,155.9,280.4,155.7,280.4z M157.7,280.4c-0.2,0-0.4-0.2-0.4-0.4c0-0.2,0.2-0.4,0.4-0.4
			c0.7,0,1.3,0,2,0c0.2,0,0.4,0.2,0.4,0.4c0,0.2-0.2,0.4-0.4,0.4C159,280.4,158.4,280.4,157.7,280.4L157.7,280.4z M151.7,280.3
			L151.7,280.3c-0.7,0-1.4,0-2-0.1c-0.2,0-0.4-0.2-0.4-0.4c0-0.2,0.2-0.4,0.4-0.4c0.7,0,1.3,0.1,2,0.1c0.2,0,0.4,0.2,0.4,0.4
			C152.1,280.2,151.9,280.3,151.7,280.3z M161.7,280.3c-0.2,0-0.4-0.2-0.4-0.4c0-0.2,0.2-0.4,0.4-0.4c0.7,0,1.3,0,2-0.1
			c0.2,0,0.4,0.2,0.4,0.4c0,0.2-0.2,0.4-0.4,0.4C163.1,280.3,162.4,280.3,161.7,280.3L161.7,280.3z M165.7,280.1
			c-0.2,0-0.4-0.2-0.4-0.4c0-0.2,0.1-0.4,0.4-0.4c0.7,0,1.3-0.1,2-0.1c0.2,0,0.4,0.1,0.4,0.3c0,0.2-0.1,0.4-0.3,0.4
			C167.1,280.1,166.4,280.1,165.7,280.1L165.7,280.1z M147.7,280.1L147.7,280.1h-0.6c-0.5,0-0.9-0.1-1.4-0.1c-0.2,0-0.4-0.2-0.3-0.4
			c0-0.2,0.2-0.4,0.4-0.3c0.5,0,0.9,0.1,1.4,0.1h0.6c0.2,0,0.4,0.2,0.4,0.4C148.1,280,147.9,280.1,147.7,280.1z M169.7,279.9
			c-0.2,0-0.4-0.1-0.4-0.3c0-0.2,0.1-0.4,0.3-0.4c0.7-0.1,1.3-0.1,2-0.2c0.2,0,0.4,0.1,0.4,0.3c0,0.2-0.1,0.4-0.3,0.4
			C171.1,279.7,170.4,279.8,169.7,279.9L169.7,279.9z M143.7,279.8L143.7,279.8c-0.7-0.1-1.4-0.2-2-0.3c-0.2,0-0.3-0.2-0.3-0.4
			c0-0.2,0.2-0.4,0.4-0.3c0.7,0.1,1.3,0.2,2,0.3c0.2,0,0.4,0.2,0.3,0.4C144.1,279.6,143.9,279.8,143.7,279.8z M173.7,279.5
			c-0.2,0-0.4-0.1-0.4-0.3c0-0.2,0.1-0.4,0.3-0.4c0.7-0.1,1.3-0.1,2-0.2c0.2,0,0.4,0.1,0.4,0.3c0,0.2-0.1,0.4-0.3,0.4
			C175,279.3,174.4,279.4,173.7,279.5L173.7,279.5z M139.8,279.2C139.7,279.2,139.7,279.2,139.8,279.2c-0.7-0.1-1.4-0.2-2-0.4
			c-0.2,0-0.3-0.2-0.3-0.4c0-0.2,0.2-0.3,0.4-0.3c0.7,0.1,1.3,0.2,2,0.4c0.2,0,0.3,0.2,0.3,0.4C140.1,279.1,139.9,279.2,139.8,279.2
			z M177.6,279c-0.2,0-0.3-0.1-0.4-0.3c0-0.2,0.1-0.4,0.3-0.4c0.7-0.1,1.3-0.2,2-0.3c0.2,0,0.4,0.1,0.4,0.3c0,0.2-0.1,0.4-0.3,0.4
			C179,278.8,178.4,278.9,177.6,279C177.7,279,177.7,279,177.6,279z M135.8,278.5L135.8,278.5c-0.7-0.1-1.4-0.3-2-0.4
			c-0.2,0-0.3-0.2-0.3-0.4c0-0.2,0.2-0.3,0.4-0.3c0.7,0.1,1.3,0.3,2,0.4c0.2,0,0.3,0.2,0.3,0.4S136,278.5,135.8,278.5z M181.6,278.4
			c-0.2,0-0.3-0.1-0.4-0.3c0-0.2,0.1-0.4,0.3-0.4c0.7-0.1,1.3-0.2,2-0.3c0.2,0,0.4,0.1,0.4,0.3c0,0.2-0.1,0.4-0.3,0.4
			C183,278.1,182.3,278.3,181.6,278.4L181.6,278.4z M185.5,277.7c-0.2,0-0.3-0.1-0.4-0.3c0-0.2,0.1-0.4,0.3-0.4
			c0.7-0.1,1.3-0.3,2-0.4c0.2,0,0.4,0.1,0.4,0.3c0,0.2-0.1,0.4-0.3,0.4C186.9,277.4,186.3,277.5,185.5,277.7
			C185.6,277.6,185.6,277.7,185.5,277.7z M131.9,277.6L131.9,277.6c-0.7-0.2-1.4-0.3-2-0.5c-0.2-0.1-0.3-0.3-0.3-0.5
			c0.1-0.2,0.3-0.3,0.5-0.3c0.6,0.2,1.3,0.3,1.9,0.5c0.2,0,0.3,0.3,0.3,0.5C132.2,277.5,132.1,277.6,131.9,277.6z M189.4,276.8
			c-0.2,0-0.3-0.1-0.4-0.3c0-0.2,0.1-0.4,0.3-0.5c0.6-0.2,1.3-0.3,1.9-0.5c0.2,0,0.4,0.1,0.5,0.3c0.1,0.2-0.1,0.4-0.3,0.5
			C190.8,276.5,190.2,276.6,189.4,276.8C189.5,276.8,189.5,276.8,189.4,276.8z M128,276.6L128,276.6c-0.7-0.2-1.4-0.4-2-0.6
			c-0.2-0.1-0.3-0.3-0.3-0.5c0.1-0.2,0.3-0.3,0.5-0.3c0.6,0.2,1.3,0.4,1.9,0.5c0.2,0.1,0.3,0.3,0.3,0.5
			C128.4,276.5,128.2,276.6,128,276.6z M193.3,275.8c-0.2,0-0.3-0.1-0.4-0.3c-0.1-0.2,0.1-0.4,0.3-0.5c0.6-0.2,1.3-0.4,1.9-0.5
			c0.2-0.1,0.4,0.1,0.5,0.3c0.1,0.2-0.1,0.4-0.3,0.5c-0.6,0.2-1.3,0.4-1.9,0.6C193.4,275.8,193.4,275.8,193.3,275.8z M124.2,275.5
			L124.2,275.5c-0.7-0.2-1.4-0.4-2-0.6c-0.2-0.1-0.3-0.3-0.2-0.5c0.1-0.2,0.3-0.3,0.5-0.2c0.6,0.2,1.3,0.4,1.9,0.6
			c0.2,0.1,0.3,0.3,0.3,0.5C124.5,275.4,124.4,275.5,124.2,275.5z M197.2,274.7c-0.2,0-0.3-0.1-0.4-0.3c-0.1-0.2,0-0.4,0.2-0.5
			c0.6-0.2,1.3-0.4,1.9-0.6c0.2-0.1,0.4,0,0.5,0.2s0,0.4-0.2,0.5c-0.6,0.2-1.3,0.4-1.9,0.6C197.2,274.7,197.2,274.7,197.2,274.7z
			 M120.4,274.3L120.4,274.3c-0.7-0.2-1.4-0.4-2-0.6c-0.2-0.1-0.3-0.3-0.2-0.5c0.1-0.2,0.3-0.3,0.5-0.2c0.6,0.2,1.3,0.4,1.9,0.6
			c0.2,0.1,0.3,0.3,0.2,0.5C120.7,274.2,120.5,274.3,120.4,274.3z M200.9,273.4c-0.2,0-0.3-0.1-0.4-0.2c-0.1-0.2,0-0.4,0.2-0.5
			c0.6-0.2,1.2-0.5,1.9-0.7c0.2-0.1,0.4,0,0.5,0.2s0,0.4-0.2,0.5c-0.6,0.2-1.2,0.5-1.9,0.7C201,273.3,201,273.4,200.9,273.4z
			 M116.6,273L116.6,273c-0.7-0.2-1.4-0.4-2-0.7c-0.2-0.1-0.3-0.3-0.2-0.5c0.1-0.2,0.3-0.3,0.5-0.2c0.6,0.2,1.2,0.4,1.9,0.7
			c0.2,0.1,0.3,0.3,0.2,0.5C116.9,272.9,116.7,273,116.6,273z M204.7,271.9c-0.1,0-0.3-0.1-0.3-0.2c-0.1-0.2,0-0.4,0.2-0.5
			c0.6-0.3,1.2-0.5,1.8-0.8c0.2-0.1,0.4,0,0.5,0.2s0,0.4-0.2,0.5c-0.6,0.3-1.2,0.6-1.8,0.8C204.8,271.8,204.7,271.9,204.7,271.9z
			 M112.8,271.6L112.8,271.6c-0.7-0.2-1.4-0.5-2-0.7c-0.2-0.1-0.3-0.3-0.2-0.5c0.1-0.2,0.3-0.3,0.5-0.2c0.6,0.2,1.2,0.5,1.9,0.7
			c0.2,0.1,0.3,0.3,0.2,0.5C113.1,271.5,113,271.6,112.8,271.6z M109.1,270.2L109.1,270.2c-0.7-0.3-1.4-0.5-2-0.7
			c-0.2-0.1-0.3-0.3-0.2-0.5c0.1-0.2,0.3-0.3,0.5-0.2c0.6,0.2,1.2,0.5,1.9,0.7c0.2,0.1,0.3,0.3,0.2,0.5
			C109.4,270.1,109.2,270.2,109.1,270.2z M208.3,270.1c-0.1,0-0.3-0.1-0.3-0.2c-0.1-0.2,0-0.4,0.2-0.5c0.6-0.3,1.2-0.6,1.8-0.9
			c0.2-0.1,0.4,0,0.5,0.1c0.1,0.2,0,0.4-0.1,0.5c-0.6,0.3-1.2,0.6-1.8,0.9C208.4,270.1,208.3,270.1,208.3,270.1z M105.4,268.7
			L105.4,268.7c-0.8-0.3-1.4-0.5-2-0.8c-0.2-0.1-0.3-0.3-0.2-0.5c0.1-0.2,0.3-0.3,0.5-0.2c0.6,0.2,1.2,0.5,1.8,0.8
			c0.2,0.1,0.3,0.3,0.2,0.5C105.6,268.6,105.5,268.7,105.4,268.7z M211.8,268.2c-0.1,0-0.3-0.1-0.3-0.2c-0.1-0.2,0-0.4,0.1-0.5
			c0.6-0.3,1.1-0.7,1.7-1.1c0.2-0.1,0.4-0.1,0.5,0.1s0.1,0.4-0.1,0.5c-0.6,0.4-1.1,0.7-1.7,1.1C211.9,268.2,211.8,268.2,211.8,268.2
			z M101.7,267.1c-0.1,0-0.1,0-0.2,0c-1.2-0.5-1.8-0.8-1.8-0.8c-0.2-0.1-0.3-0.3-0.2-0.5c0.1-0.2,0.3-0.3,0.5-0.2
			c0,0,0.7,0.3,1.8,0.8c0.2,0.1,0.3,0.3,0.2,0.5C101.9,267.1,101.8,267.1,101.7,267.1z M215.1,266c-0.1,0-0.2-0.1-0.3-0.2
			c-0.1-0.2-0.1-0.4,0.1-0.5c0.5-0.4,1-0.7,1.5-1.1c0.2-0.1,0.4-0.1,0.5,0.1s0.1,0.4-0.1,0.5c-0.5,0.4-1,0.8-1.5,1.1
			C215.3,266,215.2,266,215.1,266z M218,263.9c-0.1,0-0.2-0.1-0.3-0.2c-0.1-0.2-0.1-0.4,0.1-0.5c0.5-0.4,1-0.7,1.5-1.1
			c0.2-0.1,0.4-0.1,0.5,0.1s0.1,0.4-0.1,0.5c-0.5,0.4-1,0.8-1.5,1.1C218.2,263.9,218.1,263.9,218,263.9z"/>
	</g>
</g>
</svg>
