<?xml version="1.0" encoding="utf-8"?>
<!-- Generator: Adobe Illustrator 23.0.1, SVG Export Plug-In . SVG Version: 6.00 Build 0)  -->
<svg version="1.1" id="Layer_1" xmlns="http://www.w3.org/2000/svg" xmlns:xlink="http://www.w3.org/1999/xlink" x="0px" y="0px"
	 viewBox="0 0 321.7 321.7" style="enable-background:new 0 0 321.7 321.7;" xml:space="preserve">
<style type="text/css">
	.st0{fill:#316662;}
	.st1{fill:#5A9693;}
	.st2{fill:#508784;}
	.st3{fill:#E68C6E;}
	.st4{fill:#D98568;}
	.st5{fill:#67ADA9;}
	.st6{fill:#36706C;}
	.st7{fill:#FFE19F;}
	.st8{fill:#7CD1CC;}
	.st9{fill:#6EB7B1;}
	.st10{fill:#FFC661;}
</style>
<g>
	<polygon class="st0" points="109.8,140.5 116.5,141 117.7,148.7 105.4,147.1 	"/>
	<path class="st0" d="M218.2,147.6c0,0,0.4-3.4,3.5-4.1l12,0l3.3,9.8l-19.6-1.9L218.2,147.6z"/>
	<path class="st1" d="M152.9,156c0,0,12.2-87.7,17.5-93.4c5.3-5.7,13.3-3.3,15.2,0c2.9,5.1,10.5,95.7,10.5,95.7h11.6
		c0,0-10.7-92.3-21.5-100.2c-10.8-7.9-20.7,0.5-23.7,9.1c-3.1,8.6-20.8,85.4-20.8,85.4L152.9,156z"/>
	<path class="st2" d="M104.1,198.5c0,0-26.4,23.7-28.4,38.4l1.4,22.7c0,0,2.1-1.5,2.9-6.1c1.6-9.5,6-18.2,13.2-27.2
		c11.9-15,15-17.1,15-17.1L104.1,198.5z"/>
	<path class="st3" d="M93.2,146.5l19,117.8c0,0,97.7,2.4,105.3-0.8c7.5-3.2,28.1-89,25.1-109.5L93.2,146.5z"/>
	<path class="st4" d="M217.4,263.5c4.5-1.9,13.7-33.3,19.7-62.7c-8.7,15.2-22.3,34.4-38.2,41c-27.9,11.6-86.8,22.5-86.8,22.5
		S209.9,266.7,217.4,263.5z"/>
	<path class="st5" d="M239.7,186.8c2.4-14.2,3.7-26.6,2.8-32.9l-149.4-7.5l6,37.2L239.7,186.8z"/>
	<path class="st6" d="M157,143.9c0,0-26.4,1.2-41.9,0c-15.4-1.2-22.3,0-21.9,2.6c0.4,2.6,30,10.9,60.5,9.4
		c30.5-1.5,37.4,1.4,51.7,2.7c14.3,1.4,35.8,1,37.1-4.5C243.1,151.7,173.4,142,157,143.9z"/>
	<path class="st5" d="M135.4,156c0,0,12-84.6,18.9-91.4c5.9-5.9,15.1-3.6,17.1,0c2.1,3.9,11.2,91.5,11.2,91.5l13,1.6
		c0,0-10.5-89.3-22.7-97.5c-12.2-8.2-24,0.2-27.5,9.1c-3.5,8.9-21.3,85.3-21.3,85.3L135.4,156z"/>
	<g>
		<g>
			<path class="st7" d="M102.1,180.4C102.1,180.4,102.1,180.4,102.1,180.4l-1.9-0.1c-0.1,0-0.2-0.1-0.2-0.2c0-0.1,0.1-0.2,0.2-0.2
				c0,0,0,0,0,0l1.9,0.1c0.1,0,0.2,0.1,0.2,0.2C102.2,180.3,102.2,180.4,102.1,180.4z"/>
		</g>
		<g>
			<path class="st7" d="M233.3,183.9C233.3,183.9,233.3,183.9,233.3,183.9l-3.9-0.1c-0.1,0-0.2-0.1-0.2-0.2c0-0.1,0.1-0.2,0.2-0.2
				c0,0,0,0,0,0l3.9,0.1c0.1,0,0.2,0.1,0.2,0.2C233.4,183.8,233.3,183.9,233.3,183.9z M225.5,183.7
				C225.5,183.7,225.5,183.7,225.5,183.7l-3.9-0.1c-0.1,0-0.2-0.1-0.2-0.2c0-0.1,0.1-0.2,0.2-0.2l3.9,0.1c0.1,0,0.2,0.1,0.2,0.2
				C225.7,183.6,225.6,183.7,225.5,183.7z M217.8,183.5C217.8,183.5,217.8,183.5,217.8,183.5l-3.9-0.1c-0.1,0-0.2-0.1-0.2-0.2
				c0-0.1,0.1-0.2,0.2-0.2c0,0,0,0,0,0l3.9,0.1c0.1,0,0.2,0.1,0.2,0.2C218,183.4,217.9,183.5,217.8,183.5z M210.1,183.3
				C210.1,183.3,210.1,183.3,210.1,183.3l-3.9-0.1c-0.1,0-0.2-0.1-0.2-0.2c0-0.1,0.1-0.2,0.2-0.2c0,0,0,0,0,0l3.9,0.1
				c0.1,0,0.2,0.1,0.2,0.2C210.3,183.2,210.2,183.3,210.1,183.3z M202.4,183.1C202.4,183.1,202.4,183.1,202.4,183.1l-3.9-0.1
				c-0.1,0-0.2-0.1-0.2-0.2c0-0.1,0.1-0.2,0.2-0.2c0,0,0,0,0,0l3.9,0.1c0.1,0,0.2,0.1,0.2,0.2C202.5,183,202.5,183.1,202.4,183.1z
				 M194.7,182.9C194.7,182.9,194.7,182.9,194.7,182.9l-3.9-0.1c-0.1,0-0.2-0.1-0.2-0.2c0-0.1,0.1-0.2,0.2-0.2c0,0,0,0,0,0l3.9,0.1
				c0.1,0,0.2,0.1,0.2,0.2C194.8,182.8,194.8,182.9,194.7,182.9z M187,182.7C187,182.7,187,182.7,187,182.7l-3.9-0.1
				c-0.1,0-0.2-0.1-0.2-0.2c0-0.1,0.1-0.2,0.2-0.2c0,0,0,0,0,0l3.9,0.1c0.1,0,0.2,0.1,0.2,0.2C187.1,182.6,187,182.7,187,182.7z
				 M179.2,182.4C179.2,182.4,179.2,182.4,179.2,182.4l-3.9-0.1c-0.1,0-0.2-0.1-0.2-0.2c0-0.1,0.1-0.2,0.2-0.2c0,0,0,0,0,0l3.9,0.1
				c0.1,0,0.2,0.1,0.2,0.2C179.4,182.4,179.3,182.4,179.2,182.4z M171.5,182.2C171.5,182.2,171.5,182.2,171.5,182.2l-3.9-0.1
				c-0.1,0-0.2-0.1-0.2-0.2c0-0.1,0.1-0.2,0.2-0.2c0,0,0,0,0,0l3.9,0.1c0.1,0,0.2,0.1,0.2,0.2C171.7,182.2,171.6,182.2,171.5,182.2z
				 M163.8,182C163.8,182,163.8,182,163.8,182l-3.9-0.1c-0.1,0-0.2-0.1-0.2-0.2c0-0.1,0.1-0.2,0.2-0.2c0,0,0,0,0,0l3.9,0.1
				c0.1,0,0.2,0.1,0.2,0.2C164,182,163.9,182,163.8,182z M156.1,181.8C156.1,181.8,156.1,181.8,156.1,181.8l-3.9-0.1
				c-0.1,0-0.2-0.1-0.2-0.2c0-0.1,0.1-0.2,0.2-0.2l3.9,0.1c0.1,0,0.2,0.1,0.2,0.2C156.2,181.7,156.2,181.8,156.1,181.8z
				 M148.4,181.6C148.4,181.6,148.4,181.6,148.4,181.6l-3.9-0.1c-0.1,0-0.2-0.1-0.2-0.2c0-0.1,0.1-0.2,0.2-0.2c0,0,0,0,0,0l3.9,0.1
				c0.1,0,0.2,0.1,0.2,0.2C148.5,181.5,148.5,181.6,148.4,181.6z M140.7,181.4C140.7,181.4,140.7,181.4,140.7,181.4l-3.9-0.1
				c-0.1,0-0.2-0.1-0.2-0.2c0-0.1,0.1-0.2,0.2-0.2l3.9,0.1c0.1,0,0.2,0.1,0.2,0.2C140.8,181.3,140.7,181.4,140.7,181.4z
				 M132.9,181.2C132.9,181.2,132.9,181.2,132.9,181.2l-3.9-0.1c-0.1,0-0.2-0.1-0.2-0.2c0-0.1,0.1-0.2,0.2-0.2c0,0,0,0,0,0l3.9,0.1
				c0.1,0,0.2,0.1,0.2,0.2C133.1,181.1,133,181.2,132.9,181.2z M125.2,181C125.2,181,125.2,181,125.2,181l-3.9-0.1
				c-0.1,0-0.2-0.1-0.2-0.2c0-0.1,0.1-0.2,0.2-0.2c0,0,0,0,0,0l3.9,0.1c0.1,0,0.2,0.1,0.2,0.2C125.4,180.9,125.3,181,125.2,181z
				 M117.5,180.8C117.5,180.8,117.5,180.8,117.5,180.8l-3.9-0.1c-0.1,0-0.2-0.1-0.2-0.2c0-0.1,0.1-0.1,0.2-0.2l3.9,0.1
				c0.1,0,0.2,0.1,0.2,0.2C117.7,180.7,117.6,180.8,117.5,180.8z M109.8,180.6C109.8,180.6,109.8,180.6,109.8,180.6l-3.9-0.1
				c-0.1,0-0.2-0.1-0.2-0.2c0-0.1,0.1-0.2,0.2-0.2c0,0,0,0,0,0l3.9,0.1c0.1,0,0.2,0.1,0.2,0.2C109.9,180.5,109.9,180.6,109.8,180.6z
				"/>
		</g>
		<g>
			<path class="st7" d="M239,184.1C239,184.1,239,184.1,239,184.1l-1.9-0.1c-0.1,0-0.2-0.1-0.2-0.2c0-0.1,0.1-0.2,0.2-0.2
				c0,0,0,0,0,0l1.9,0.1c0.1,0,0.2,0.1,0.2,0.2C239.2,184,239.1,184.1,239,184.1z"/>
		</g>
	</g>
	<path class="st8" d="M93.2,146.5c1.6,3.2,29.9,9.5,55.7,8.9c5.6-0.1,9.4-0.5,19-0.6c26-0.1,33.2,4.7,57,4
		c4.2-0.1,16.4-0.7,17.6-4.8c-0.7,2.6-5.5,3.8-8.1,4.3c-18,3.5-42.1-0.9-47.5-1.5c-28.2-2.9-41.5,3.3-75.9-4
		C108.6,152.3,93.8,148.8,93.2,146.5z"/>
	<path class="st9" d="M229.8,171c-3.4,0-6.2-2.8-6.2-6.2c0.1-6.5,0.6-16,0.1-18.5c-0.6-2.9-2-2.9-2-2.9l11.9,0
		c1.1,0,2.1,0.7,2.4,1.7c0.7,1.8,1.6,5.1,2.3,10.2c0.5,3.5,0.6,6.8,0.7,9.4c0,3.4-2.7,6.2-6.2,6.2H229.8z"/>
	<g>
		<g>
			<path class="st7" d="M237.8,164.9C237.8,164.9,237.8,164.9,237.8,164.9c-0.2-0.1-0.3-0.2-0.3-0.4c0.1-0.6,0.2-1.2,0.2-1.8
				c0-0.2,0.1-0.3,0.3-0.3h0c0.2,0,0.3,0.1,0.3,0.3c0,0.7-0.1,1.3-0.2,1.9C238.1,164.8,238,164.9,237.8,164.9z"/>
		</g>
		<g>
			<path class="st7" d="M233.3,169.2c-0.2,0-0.3-0.1-0.3-0.3c0-0.2,0.1-0.3,0.3-0.3c1-0.1,2-0.6,2.7-1.3c0.1-0.1,0.3-0.1,0.4,0
				c0.1,0.1,0.1,0.3,0,0.4C235.6,168.6,234.5,169.1,233.3,169.2C233.3,169.2,233.3,169.2,233.3,169.2z M230,169.2
				C230,169.2,230,169.2,230,169.2c-1.2-0.1-2.3-0.6-3.1-1.5c-0.1-0.1-0.1-0.3,0-0.4c0.1-0.1,0.3-0.1,0.4,0c0.8,0.8,1.7,1.3,2.7,1.3
				c0.2,0,0.3,0.2,0.3,0.3C230.3,169.1,230.1,169.2,230,169.2z"/>
		</g>
		<g>
			<path class="st7" d="M225.5,164.9c-0.1,0-0.3-0.1-0.3-0.2c-0.2-0.6-0.2-1.3-0.2-1.9c0-0.2,0.1-0.3,0.3-0.3c0.2,0,0.3,0.1,0.3,0.3
				c0,0.6,0.1,1.2,0.2,1.8C225.8,164.7,225.7,164.8,225.5,164.9C225.5,164.9,225.5,164.9,225.5,164.9z"/>
		</g>
	</g>
	<g>
		<path class="st10" d="M120.5,157.8H108c-1.8,0-3.2-1.4-3.2-3.2c0-1.8,1.4-3.2,3.2-3.2h12.5c1.8,0,3.2,1.4,3.2,3.2
			C123.7,156.3,122.3,157.8,120.5,157.8z M108,152.6c-1.1,0-2,0.9-2,2c0,1.1,0.9,2,2,2h12.5c1.1,0,2-0.9,2-2c0-1.1-0.9-2-2-2H108z"
			/>
	</g>
	<path class="st8" d="M158.7,169.1c0.5-3.2,3.2-5.6,6.5-6c9.2-1,32.6-2.9,43.8,2.4c14.2,6.7-9.5,8.6-34.4,10.2
		C160.6,176.7,158.2,172.7,158.7,169.1z"/>
	<g>
		<path class="st10" d="M120.5,165.5H108c-1.8,0-3.2-1.4-3.2-3.2c0-1.8,1.4-3.2,3.2-3.2h12.5c1.8,0,3.2,1.4,3.2,3.2
			C123.7,164.1,122.3,165.5,120.5,165.5z M108,160.3c-1.1,0-2,0.9-2,2c0,1.1,0.9,2,2,2h12.5c1.1,0,2-0.9,2-2c0-1.1-0.9-2-2-2H108z"
			/>
	</g>
	<g>
		<rect x="111.4" y="156.9" class="st10" width="5.6" height="3.4"/>
	</g>
	<path class="st2" d="M107.6,163.6c0,0,4.5,77.6,4.4,85.5c0,3.2-1.4,16.1-1.4,16.1l6.4-0.7c0,0,1.5-1.7,3.8-11.6
		c2.2-9.8,1.1-89.3,1.1-89.3H107.6z"/>
	<path class="st9" d="M109.8,140.5l-0.7,12.7h11.4v-11.1c0-0.9-0.7-1.6-1.6-1.6H109.8z"/>
	<path class="st5" d="M121.1,251.2c0,0-5,12.4-25.3,6.9c-20.3-5.4-20.1-21.2-20.1-21.2l1.2,21.6c0.1,2,1.4,3.8,3.2,4.6
		c6.8,2.8,23.1,9.3,29.3,8.6C117.3,270.9,120.6,256.2,121.1,251.2z"/>
</g>
</svg>
