<?xml version="1.0" encoding="iso-8859-1"?>
<!-- Generator: Adobe Illustrator 19.0.0, SVG Export Plug-In . SVG Version: 6.00 Build 0)  -->
<svg version="1.1" id="Capa_1" xmlns="http://www.w3.org/2000/svg" xmlns:xlink="http://www.w3.org/1999/xlink" x="0px" y="0px"
	 viewBox="0 0 512 512" style="enable-background:new 0 0 512 512;" xml:space="preserve">
<circle style="fill:#FFE17D;" cx="255.999" cy="256" r="248.499"/>
<path style="fill:#FFD164;" d="M292.073,468.427c-137.242,0-248.499-111.257-248.499-248.499c0-59.433,20.891-113.97,55.695-156.732
	C43.284,108.761,7.501,178.192,7.501,256.001c0,137.241,111.256,248.499,248.499,248.499c77.81,0,147.241-35.784,192.805-91.768
	C406.044,447.535,351.505,468.427,292.073,468.427z"/>
<path style="fill:#9C6846;" d="M256,303.861c-47.878,0-93.579-5.559-135.508-15.608c-5.431-1.302-10.112,4.372-8.436,10.285
	C131.393,366.801,188.467,416.323,256,416.323s124.608-49.521,143.944-117.784c1.675-5.913-3.005-11.587-8.436-10.285
	C349.579,298.302,303.877,303.861,256,303.861z"/>
<g>
	<path style="fill:#7D5046;" d="M391.508,288.253c-41.929,10.049-87.63,15.608-135.508,15.608s-93.579-5.559-135.507-15.608
		c-5.431-1.301-10.112,4.372-8.436,10.285c5.061,17.869,12.763,34.405,22.507,49.153c39.838,7.568,80.367,11.731,121.454,11.731
		c41.075,0,81.589-4.16,121.414-11.722c9.747-14.75,17.451-31.289,22.513-49.161C401.619,292.624,396.939,286.951,391.508,288.253z"
		/>
	<path style="fill:#7D5046;" d="M171.831,232.357L171.831,232.357c-11.068,0-20.04-8.972-20.04-20.04v-32.469
		c0-11.068,8.972-20.04,20.04-20.04l0,0c11.068,0,20.04,8.972,20.04,20.04v32.469C191.871,223.385,182.899,232.357,171.831,232.357z
		"/>
</g>
<path style="fill:#9C6846;" d="M191.871,179.848c0-12.379-11.222-22.135-24.048-19.651v33.352c0,13.012,11.068,23.337,24.044,22.372
	h0.004V179.848z"/>
<path style="fill:#FFFFFF;" d="M363.794,315.629c4.333-7.425,7.958-15.381,10.999-23.663c-37.26,7.689-77.202,11.894-118.793,11.894
	c-41.617,0-81.582-4.209-118.86-11.907c3.056,8.322,6.741,16.292,11.102,23.748c5.043,8.62,13.58,14.133,22.868,15.263
	c27.809,3.383,56.152,5.197,84.89,5.197c28.732,0,57.068-1.813,84.87-5.195C350.189,329.834,358.743,324.283,363.794,315.629z"/>
<path style="fill:#7D5046;" d="M340.168,232.357L340.168,232.357c-11.068,0-20.04-8.972-20.04-20.04v-32.469
	c0-11.068,8.972-20.04,20.04-20.04l0,0c11.068,0,20.04,8.972,20.04,20.04v32.469C360.209,223.385,351.236,232.357,340.168,232.357z"
	/>
<path style="fill:#9C6846;" d="M360.209,179.848c0-12.379-11.222-22.135-24.048-19.651v33.352c0,13.012,11.068,23.337,24.044,22.372
	h0.004V179.848z"/>
<path d="M171.821,167.297c4.142,0,7.5-3.358,7.5-7.5c0-4.142-3.358-7.5-7.5-7.5c-15.187,0-27.542,12.355-27.542,27.542v32.068
	c0,15.187,12.355,27.543,27.542,27.543s27.542-12.356,27.542-27.543v-28.06c0-4.142-3.358-7.5-7.5-7.5c-4.142,0-7.5,3.358-7.5,7.5
	v28.06c0,6.916-5.626,12.543-12.542,12.543s-12.542-5.627-12.542-12.543v-32.068C159.278,172.923,164.905,167.297,171.821,167.297z"
	/>
<path d="M340.178,167.297c4.142,0,7.5-3.358,7.5-7.5c0-4.142-3.358-7.5-7.5-7.5c-15.187,0-27.543,12.355-27.543,27.542v32.068
	c0,15.187,12.356,27.543,27.543,27.543s27.542-12.356,27.542-27.543v-28.06c0-4.142-3.358-7.5-7.5-7.5c-4.142,0-7.5,3.358-7.5,7.5
	v28.06c0,6.916-5.626,12.543-12.542,12.543c-6.916,0-12.543-5.627-12.543-12.543v-32.068
	C327.635,172.923,333.262,167.297,340.178,167.297z"/>
<path d="M15.108,248.714c1.833-61.604,26.857-119.542,70.459-163.145c43.603-43.603,101.542-68.626,163.145-70.459
	c61.332-1.824,120.401,19.43,166.327,59.852c3.109,2.736,7.849,2.435,10.585-0.675c2.737-3.109,2.435-7.849-0.675-10.585
	C376.16,20.759,313.413-1.826,248.267,0.117c-65.44,1.947-126.988,28.528-173.305,74.846
	C28.644,121.279,2.063,182.827,0.115,248.268C-1.824,313.414,20.757,376.162,63.7,424.951c1.482,1.685,3.552,2.545,5.633,2.545
	c1.76,0,3.527-0.616,4.952-1.87c3.109-2.737,3.412-7.476,0.675-10.585C34.538,369.116,13.283,310.046,15.108,248.714z"/>
<path d="M448.3,87.052c-2.736-3.109-7.476-3.412-10.585-0.675c-3.109,2.736-3.412,7.476-0.675,10.585
	c40.421,45.925,61.677,104.994,59.852,166.326c-1.833,61.604-26.856,119.542-70.459,163.145s-101.541,68.625-163.145,70.459
	c-61.334,1.824-120.401-19.43-166.327-59.852c-3.108-2.736-7.848-2.435-10.585,0.675c-2.737,3.109-2.435,7.849,0.675,10.585
	c46.854,41.239,106.579,63.7,168.941,63.7c2.577,0,5.158-0.038,7.742-0.115c65.441-1.948,126.988-28.528,173.305-74.846
	c46.318-46.317,72.899-107.865,74.847-173.305C513.823,198.588,491.242,135.84,448.3,87.052z"/>
<path d="M108.556,285.048c-3.888,4.049-5.329,10.003-3.762,15.54c10.025,35.392,29.502,65.898,56.324,88.22
	c27.537,22.918,60.337,35.033,94.853,35.033s67.317-12.114,94.853-35.033c26.822-22.323,46.298-52.83,56.324-88.22
	c1.568-5.535,0.127-11.489-3.761-15.539c-3.594-3.744-8.694-5.27-13.641-4.085c-42.645,10.221-87.653,15.403-133.775,15.403
	s-91.13-5.183-133.775-15.403C117.248,279.777,112.149,281.304,108.556,285.048z M392.706,295.679
	c0.068,0.179,0.114,0.453,0.01,0.821c-9.065,32.003-27.351,60.691-51.487,80.78c-24.809,20.647-54.291,31.562-85.258,31.562
	s-60.45-10.914-85.258-31.562c-24.136-20.089-42.421-48.777-51.487-80.78c-0.104-0.367-0.058-0.642,0.01-0.821
	c3.532,0.843,7.085,1.639,10.647,2.415c3.273,8.231,7.306,16.119,12.003,23.447c6.132,9.567,16.733,16.05,28.357,17.34
	c28.625,3.179,57.467,4.791,85.727,4.791c28.253,0,57.09-1.611,85.708-4.788c11.648-1.293,22.272-7.804,28.417-17.415
	c4.668-7.3,8.672-15.158,11.934-23.369C385.602,297.322,389.165,296.523,392.706,295.679z M364.032,301.704
	c-1.991,4.037-4.182,7.945-6.573,11.684c-3.729,5.832-10.246,9.79-17.435,10.588c-28.071,3.116-56.351,4.696-84.053,4.696
	c-27.709,0-55.995-1.581-84.072-4.699c-7.171-0.796-13.67-4.731-17.384-10.526c-2.409-3.759-4.617-7.689-6.62-11.746
	c34.943,6.41,71.168,9.666,108.075,9.666C292.874,311.367,329.093,308.112,364.032,301.704z"/>
<g>
</g>
<g>
</g>
<g>
</g>
<g>
</g>
<g>
</g>
<g>
</g>
<g>
</g>
<g>
</g>
<g>
</g>
<g>
</g>
<g>
</g>
<g>
</g>
<g>
</g>
<g>
</g>
<g>
</g>
</svg>
