<?xml version="1.0" encoding="iso-8859-1"?>
<!-- Generator: Adobe Illustrator 19.0.0, SVG Export Plug-In . SVG Version: 6.00 Build 0)  -->
<svg version="1.1" id="Capa_1" xmlns="http://www.w3.org/2000/svg" xmlns:xlink="http://www.w3.org/1999/xlink" x="0px" y="0px"
	 viewBox="0 0 512 512" style="enable-background:new 0 0 512 512;" xml:space="preserve">
<circle style="fill:#FFE17D;" cx="255.999" cy="256" r="248.499"/>
<path style="fill:#FFD164;" d="M292.073,468.427c-137.242,0-248.499-111.257-248.499-248.499c0-59.433,20.891-113.97,55.695-156.732
	C43.284,108.761,7.501,178.191,7.501,256.001c0,137.241,111.256,248.499,248.499,248.499c77.81,0,147.241-35.784,192.805-91.768
	C406.044,447.536,351.505,468.427,292.073,468.427z"/>
<path style="fill:#9C6846;" d="M256.115,349.114c-21.241,0-41.517-1.737-60.118-4.877c-2.409-0.407-4.486,1.366-3.743,3.214
	c8.579,21.332,33.9,36.808,63.861,36.808c29.961,0,55.282-15.475,63.861-36.808c0.743-1.848-1.333-3.621-3.743-3.214
	C297.632,347.377,277.356,349.114,256.115,349.114z"/>
<path d="M15.108,248.714c1.833-61.604,26.857-119.542,70.459-163.145c43.603-43.603,101.542-68.626,163.145-70.459
	c61.333-1.826,120.401,19.43,166.327,59.852c3.109,2.736,7.849,2.435,10.585-0.675c2.737-3.109,2.435-7.849-0.675-10.585
	C376.16,20.759,313.414-1.821,248.267,0.116c-65.44,1.947-126.988,28.528-173.305,74.846C28.644,121.28,2.063,182.827,0.115,248.268
	C-1.824,313.413,20.757,376.161,63.7,424.951c1.482,1.685,3.552,2.545,5.633,2.545c1.76,0,3.527-0.616,4.952-1.87
	c3.109-2.737,3.412-7.476,0.675-10.585C34.538,369.115,13.283,310.045,15.108,248.714z"/>
<path d="M448.3,87.052c-2.736-3.109-7.476-3.412-10.585-0.675c-3.109,2.736-3.412,7.476-0.675,10.585
	c40.421,45.925,61.677,104.994,59.852,166.326c-1.833,61.604-26.856,119.542-70.459,163.145s-101.541,68.626-163.145,70.459
	c-61.338,1.822-120.401-19.43-166.327-59.852c-3.108-2.736-7.848-2.435-10.585,0.675c-2.737,3.11-2.435,7.849,0.675,10.585
	c46.854,41.239,106.579,63.7,168.941,63.7c2.577,0,5.158-0.038,7.742-0.115c65.441-1.948,126.988-28.529,173.305-74.846
	c46.318-46.317,72.899-107.865,74.847-173.305C513.823,198.588,491.242,135.84,448.3,87.052z"/>
<path d="M256.144,391.744c32.378,0,60.842-16.683,70.827-41.514c1.308-3.252,0.764-6.839-1.455-9.594
	c-2.442-3.033-6.462-4.494-10.496-3.814c-18.762,3.167-38.57,4.773-58.876,4.773c-20.306,0-40.115-1.606-58.876-4.773
	c-4.031-0.681-8.053,0.78-10.496,3.813c-2.219,2.756-2.763,6.343-1.455,9.595C195.302,375.061,223.766,391.744,256.144,391.744z
	 M256.144,356.596c17.887,0,35.422-1.2,52.259-3.572c-10.301,14.308-30.389,23.721-52.259,23.721
	c-21.871,0-41.958-9.411-52.258-23.721C220.722,355.396,238.256,356.596,256.144,356.596z"/>
<path d="M167.841,263.472c14.474,0,28.293-6.865,37.914-18.835c2.595-3.229,2.082-7.949-1.147-10.544
	c-3.229-2.596-7.95-2.082-10.544,1.147c-6.759,8.41-16.317,13.232-26.223,13.232c-9.905,0-19.462-4.823-26.222-13.233
	c-2.596-3.229-7.315-3.742-10.544-1.146c-3.229,2.595-3.742,7.315-1.147,10.544C139.549,256.607,153.368,263.472,167.841,263.472z"
	/>
<path d="M382.158,244.637c2.595-3.229,2.082-7.949-1.147-10.544c-3.229-2.596-7.95-2.082-10.544,1.146
	c-6.76,8.41-16.318,13.233-26.223,13.233c-9.905,0-19.462-4.823-26.222-13.233c-2.596-3.229-7.315-3.742-10.544-1.146
	c-3.229,2.595-3.742,7.315-1.147,10.544c9.622,11.97,23.44,18.835,37.914,18.835C358.717,263.472,372.537,256.607,382.158,244.637z"
	/>
<path d="M207.093,173.647c-1.19-3.967-5.371-6.219-9.339-5.028l-80.17,24.051c-3.967,1.19-6.219,5.372-5.028,9.339
	c0.975,3.249,3.955,5.347,7.181,5.347c0.713,0,1.439-0.103,2.158-0.318l80.17-24.051
	C206.032,181.795,208.283,177.614,207.093,173.647z"/>
<path d="M392.321,207.355c3.226,0,6.206-2.098,7.181-5.347c1.19-3.967-1.061-8.148-5.028-9.339l-80.171-24.051
	c-3.965-1.19-8.148,1.061-9.339,5.028c-1.19,3.968,1.061,8.148,5.028,9.339l80.171,24.051
	C390.881,207.252,391.607,207.355,392.321,207.355z"/>
<g>
</g>
<g>
</g>
<g>
</g>
<g>
</g>
<g>
</g>
<g>
</g>
<g>
</g>
<g>
</g>
<g>
</g>
<g>
</g>
<g>
</g>
<g>
</g>
<g>
</g>
<g>
</g>
<g>
</g>
</svg>
