<?xml version="1.0" encoding="iso-8859-1"?>
<!-- Generator: Adobe Illustrator 19.0.0, SVG Export Plug-In . SVG Version: 6.00 Build 0)  -->
<svg version="1.1" id="Capa_1" xmlns="http://www.w3.org/2000/svg" xmlns:xlink="http://www.w3.org/1999/xlink" x="0px" y="0px"
	 viewBox="0 0 512 512" style="enable-background:new 0 0 512 512;" xml:space="preserve">
<circle style="fill:#FFE17D;" cx="255.999" cy="255.999" r="248.499"/>
<g>
	<path style="fill:#FFD164;" d="M292.073,468.426c-137.242,0-248.499-111.257-248.499-248.499
		c0-59.433,20.891-113.97,55.695-156.732C43.284,108.76,7.501,178.19,7.501,256c0,137.241,111.256,248.499,248.499,248.499
		c77.81,0,147.241-35.784,192.805-91.768C406.044,447.535,351.505,468.426,292.073,468.426z"/>
	<ellipse style="fill:#FFD164;" cx="159.809" cy="255.999" rx="64.13" ry="56.11"/>
	<ellipse style="fill:#FFD164;" cx="352.188" cy="255.999" rx="64.13" ry="56.11"/>
</g>
<path style="fill:#6E5A64;" d="M79.646,175.838c-4.427,0-8.016,3.589-8.016,8.016v15.468c0,5.36,2.679,10.366,7.139,13.339
	l40.957,27.305l40.081-64.129L79.646,175.838L79.646,175.838z"/>
<ellipse style="fill:#5A4650;" cx="159.809" cy="231.949" rx="64.13" ry="56.11"/>
<path style="fill:#84737B;" d="M159.806,215.919c23.338,0,45.048,3.153,63.489,8.523c-4.204-27.43-30.989-48.604-63.489-48.604
	s-59.285,21.173-63.489,48.604C114.76,219.072,136.47,215.919,159.806,215.919z"/>
<path style="fill:#6E5A64;" d="M424.338,175.838c4.427,0,8.016,3.589,8.016,8.016v15.468c0,5.36-2.679,10.366-7.139,13.339
	l-40.957,27.305l-40.081-64.129L424.338,175.838L424.338,175.838z"/>
<ellipse style="fill:#5A4650;" cx="344.178" cy="231.949" rx="64.13" ry="56.11"/>
<path style="fill:#84737B;" d="M344.176,215.919c-23.338,0-45.048,3.153-63.489,8.523c4.204-27.43,30.989-48.604,63.489-48.604
	s59.285,21.173,63.489,48.604C389.224,219.072,367.513,215.919,344.176,215.919z"/>
<path d="M346.134,331.696c-20.755,28.207-54.45,45.047-90.134,45.047c-35.684,0-69.38-16.84-90.134-45.047
	c-2.456-3.337-7.15-4.051-10.486-1.596c-3.336,2.455-4.051,7.15-1.596,10.486c23.571,32.033,61.783,51.158,102.216,51.158
	c40.435,0,78.646-19.125,102.216-51.158c2.455-3.336,1.74-8.031-1.596-10.486C353.284,327.645,348.588,328.359,346.134,331.696z"/>
<path d="M15.108,248.713c1.833-61.604,26.857-119.542,70.459-163.145c43.603-43.603,101.542-68.626,163.145-70.459
	c61.333-1.83,120.401,19.43,166.327,59.852c3.109,2.737,7.849,2.436,10.585-0.675c2.737-3.109,2.435-7.848-0.675-10.585
	C376.159,20.757,313.409-1.815,248.267,0.115c-65.44,1.948-126.988,28.529-173.305,74.847
	C28.644,121.279,2.063,182.825,0.115,248.266C-1.824,313.413,20.757,376.16,63.7,424.949c1.482,1.685,3.552,2.545,5.633,2.545
	c1.76,0,3.527-0.616,4.952-1.87c3.109-2.737,3.412-7.476,0.675-10.585C34.538,369.114,13.283,310.045,15.108,248.713z"/>
<path d="M448.3,87.05c-2.736-3.109-7.476-3.411-10.585-0.675c-3.109,2.737-3.412,7.476-0.675,10.585
	c40.421,45.926,61.677,104.994,59.852,166.327c-1.833,61.603-26.856,119.542-70.459,163.145s-101.541,68.626-163.145,70.459
	c-61.338,1.826-120.401-19.43-166.327-59.851c-3.108-2.736-7.848-2.435-10.585,0.675c-2.737,3.109-2.435,7.848,0.675,10.585
	c46.854,41.239,106.579,63.7,168.941,63.7c2.576,0,5.158-0.039,7.742-0.116c65.441-1.948,126.988-28.529,173.305-74.846
	c46.318-46.317,72.899-107.865,74.847-173.305C513.823,198.587,491.242,135.84,448.3,87.05z"/>
<path d="M447.863,199.287v-15.47c0-8.556-6.961-15.517-15.517-15.517h-80.171c-30.92,0-57.324,17.489-67.337,41.912
	c-8.186-6.292-18.32-9.843-28.852-9.843c-10.555,0-20.693,3.552-28.878,9.854c-10.01-24.428-36.417-41.922-67.341-41.922h-80.17
	c-8.556,0-15.517,6.961-15.517,15.517v15.47c0,7.887,3.917,15.207,10.479,19.582l13.72,9.146c-0.089,1.293-0.148,2.593-0.148,3.905
	c0,35.08,32.136,63.62,71.636,63.62s71.636-28.54,71.636-63.62c0-1.653-0.094-3.286-0.234-4.907
	c6.114-7.328,15.211-11.644,24.818-11.644c9.579,0,18.678,4.304,24.79,11.607c-0.142,1.634-0.237,3.279-0.237,4.944
	c0,35.08,32.136,63.62,71.636,63.62s71.637-28.54,71.637-63.62c0-1.312-0.059-2.612-0.148-3.905l13.719-9.146
	C443.945,214.494,447.863,207.174,447.863,199.287z M82.88,206.388c-2.379-1.586-3.8-4.241-3.8-7.101v-15.47
	c0-0.285,0.232-0.517,0.517-0.517h34.039c-10.089,7.562-17.796,17.547-21.98,28.938L82.88,206.388z M159.767,280.539
	c-31.229,0-56.636-21.811-56.636-48.62c0-26.809,25.407-48.619,56.636-48.619s56.636,21.811,56.636,48.619
	C216.403,258.729,190.996,280.539,159.767,280.539z M352.175,280.539c-31.229,0-56.636-21.811-56.636-48.62
	c0-26.809,25.407-48.619,56.636-48.619s56.637,21.811,56.637,48.619C408.812,258.729,383.404,280.539,352.175,280.539z
	 M432.863,199.287c0,2.86-1.421,5.515-3.8,7.101l-8.776,5.851c-4.184-11.391-11.891-21.376-21.98-28.938h34.039
	c0.285,0,0.517,0.232,0.517,0.517V199.287z"/>
<path d="M183.818,151.232c4.142,0,7.5-3.358,7.5-7.5c0-4.142-3.358-7.5-7.5-7.5h-48.103c-4.142,0-7.5,3.358-7.5,7.5
	c0,4.142,3.358,7.5,7.5,7.5H183.818z"/>
<path d="M376.226,151.232c4.142,0,7.5-3.358,7.5-7.5c0-4.142-3.358-7.5-7.5-7.5h-48.102c-4.142,0-7.5,3.358-7.5,7.5
	c0,4.142,3.358,7.5,7.5,7.5H376.226z"/>
<g>
</g>
<g>
</g>
<g>
</g>
<g>
</g>
<g>
</g>
<g>
</g>
<g>
</g>
<g>
</g>
<g>
</g>
<g>
</g>
<g>
</g>
<g>
</g>
<g>
</g>
<g>
</g>
<g>
</g>
</svg>
