<?xml version="1.0" encoding="iso-8859-1"?>
<!-- Generator: Adobe Illustrator 19.0.0, SVG Export Plug-In . SVG Version: 6.00 Build 0)  -->
<svg version="1.1" id="Capa_1" xmlns="http://www.w3.org/2000/svg" xmlns:xlink="http://www.w3.org/1999/xlink" x="0px" y="0px"
	 viewBox="0 0 511.998 511.998" style="enable-background:new 0 0 511.998 511.998;" xml:space="preserve">
<path style="fill:#5A4650;" d="M489.929,13.765c6.426-5.455,16.046,0.274,14.056,8.464c-6.211,25.567-24.054,73.86-49.417,117.584
	L393.91,78.396C423.681,64.279,460.821,38.473,489.929,13.765z"/>
<g>
	<path style="fill:#6E5A64;" d="M495.087,17.678c1.058-2.022,1.309-4.064,1.008-5.949c4.934,0.293,9.289,4.742,7.89,10.501
		c-6.211,25.567-24.054,73.86-49.417,117.584l-26.97-27.307C458.7,76.981,483.577,39.676,495.087,17.678z"/>
	<path style="fill:#6E5A64;" d="M21.824,13.765C15.398,8.31,5.778,14.039,7.768,22.229c6.211,25.567,24.054,73.86,49.417,117.584
		l60.659-61.417C88.072,64.279,50.933,38.473,21.824,13.765z"/>
</g>
<path style="fill:#5A4650;" d="M16.666,17.678c-1.058-2.022-1.309-4.064-1.008-5.949c-4.934,0.293-9.289,4.742-7.89,10.501
	c6.211,25.567,24.054,73.86,49.417,117.584l26.97-27.307C53.053,76.981,28.176,39.676,16.666,17.678z"/>
<path style="fill:#C864C8;" d="M457.191,176.998l0.054,0.052c-2.609-5.299-2.234-11.525,1.075-16.417
	c1.303-1.927,2.58-3.853,3.831-5.778c3.416-5.256,3.404-12.129-0.095-17.329c-18.489-27.477-42.312-51.063-70.002-69.252
	c-4.472-2.938-10.194-3.239-15.123-1.157c-4.955,2.094-9.78,4.033-14.448,5.832c-4.072,1.569-8.529,1.265-12.488-0.569l0.003,0.003
	c-28.63-13.256-60.498-20.704-94.122-20.704s-65.491,7.448-94.122,20.704l0.003-0.003c-3.959,1.834-8.416,2.138-12.488,0.569
	c-4.667-1.799-9.492-3.737-14.448-5.832c-4.929-2.083-10.65-1.781-15.123,1.157c-27.691,18.191-51.514,41.777-70.002,69.252
	c-3.499,5.2-3.511,12.073-0.095,17.329c1.251,1.925,2.528,3.851,3.831,5.778c3.309,4.892,3.684,11.118,1.075,16.417l0.054-0.052
	c-14.721,29.87-23.024,63.469-23.024,99.02c0,123.898,100.439,224.338,224.338,224.338s224.338-100.44,224.338-224.338
	C480.214,240.467,471.911,206.868,457.191,176.998z"/>
<path style="fill:#6E5A64;" d="M255.876,359.477c-39.863,0-77.351-4.223-110.058-11.646c-8.486-1.926-14.14,8.665-7.686,14.502
	c28.317,25.612,70.533,41.879,117.744,41.879s89.427-16.268,117.744-41.879c6.454-5.837,0.801-16.428-7.686-14.502
	C333.228,355.255,295.739,359.477,255.876,359.477z"/>
<path style="fill:#A54BBE;" d="M287.925,468.308c-123.899,0-224.338-100.44-224.338-224.338c0-69.522,31.631-131.65,81.278-172.799
	c-3.309-1.311-6.598-2.598-10.043-4.054c-4.929-2.083-10.65-1.781-15.123,1.157c-27.691,18.191-51.514,41.777-70.002,69.252
	c-3.499,5.2-3.511,12.073-0.095,17.329c1.251,1.925,2.528,3.851,3.831,5.778c3.309,4.892,3.684,11.118,1.075,16.417l0.054-0.052
	c-14.721,29.87-23.024,63.469-23.024,99.02c0,123.898,100.439,224.338,224.338,224.338c70.112,0,132.693-32.18,173.831-82.555
	C391.061,449.36,341.711,468.308,287.925,468.308z"/>
<path style="fill:#5A4650;" d="M161.375,379.377c29.766,3.025,61.521,4.664,94.502,4.664s64.736-1.639,94.502-4.664
	c8.49-5.056,16.294-10.76,23.242-17.044c6.454-5.837,0.801-16.428-7.685-14.502c-32.708,7.424-70.196,11.647-110.058,11.647
	s-77.351-4.223-110.058-11.647c-8.486-1.926-14.14,8.665-7.685,14.502C145.08,368.617,152.885,374.321,161.375,379.377z"/>
<g>
	<path style="fill:#FFFFFF;" d="M175.756,353.399v33.572c0,5.838,7.3,8.481,11.037,3.996l27.742-33.22
		C201.187,356.735,188.196,355.325,175.756,353.399z"/>
	<path style="fill:#FFFFFF;" d="M335.997,353.399v33.572c0,5.838-7.3,8.481-11.037,3.996l-27.742-33.22
		C310.566,356.735,323.558,355.325,335.997,353.399z"/>
</g>
<path style="fill:#5A4650;" d="M171.75,292.042L171.75,292.042c-11.062,0-20.03-8.968-20.03-20.03v-16.024
	c0-11.062,8.968-20.03,20.03-20.03l0,0c11.062,0,20.03,8.968,20.03,20.03v16.024C191.78,283.074,182.812,292.042,171.75,292.042z"/>
<path style="fill:#6E5A64;" d="M191.78,255.988c0-12.372-11.217-22.124-24.036-19.641v15.635c0,13.275,10.761,24.036,24.036,24.036
	l0,0V255.988z"/>
<path style="fill:#5A4650;" d="M340.003,292.042L340.003,292.042c-11.062,0-20.03-8.968-20.03-20.03v-16.024
	c0-11.062,8.968-20.03,20.03-20.03l0,0c11.062,0,20.03,8.968,20.03,20.03v16.024C360.033,283.074,351.065,292.042,340.003,292.042z"
	/>
<path style="fill:#6E5A64;" d="M360.033,255.988c0-12.372-11.217-22.124-24.036-19.641v15.635c0,13.275,10.761,24.036,24.036,24.036
	l0,0V255.988z"/>
<path d="M504.68,6.461c-5.77-3.558-13.14-2.981-18.341,1.434c-27.75,23.556-59.971,45.428-84.891,57.691
	c-1.753-1.219-3.511-2.419-5.278-3.58c-6.474-4.251-14.757-4.924-22.16-1.796c-4.621,1.953-9.406,3.885-14.224,5.741
	c-2.053,0.791-4.409,0.657-6.639-0.375c-30.646-14.197-63.372-21.395-97.271-21.395s-66.625,7.198-97.27,21.395
	c-2.229,1.032-4.586,1.167-6.639,0.375c-4.818-1.856-9.604-3.788-14.226-5.742c-7.401-3.127-15.685-2.455-22.159,1.797
	c-1.747,1.147-3.476,2.315-5.189,3.501C85.493,53.229,53.352,31.4,25.66,7.895C20.458,3.479,13.089,2.903,7.319,6.461
	c-5.778,3.564-8.47,10.152-6.858,16.785c6.001,24.7,22.435,68.447,44.679,107.685c-0.554,0.804-1.118,1.598-1.664,2.409
	c-5.192,7.716-5.256,17.766-0.162,25.603c1.276,1.963,2.578,3.928,3.907,5.893c1.791,2.648,2,5.976,0.559,8.902
	c-16.933,34.38-25.079,72.978-23.559,111.622c2.041,51.86,22.22,102.323,56.82,142.097c1.483,1.705,3.567,2.578,5.662,2.578
	c1.746,0,3.5-0.606,4.919-1.841c3.125-2.719,3.455-7.456,0.736-10.581c-32.367-37.206-51.242-84.383-53.149-132.842
	c-1.422-36.156,6.194-72.258,22.027-104.405c3.793-7.703,3.184-16.873-1.591-23.933c-1.277-1.888-2.529-3.776-3.755-5.663
	c-1.782-2.742-1.771-6.381,0.029-9.055c18.06-26.839,40.904-49.439,67.897-67.171c2.248-1.476,5.345-1.674,8.085-0.517
	c4.768,2.015,9.704,4.008,14.671,5.922c5.875,2.264,12.388,1.994,18.337-0.762c28.655-13.274,59.26-20.005,90.965-20.005
	s62.312,6.731,90.966,20.005c5.949,2.756,12.461,3.026,18.337,0.762c4.967-1.914,9.903-3.907,14.67-5.921
	c2.74-1.158,5.838-0.959,8.086,0.517c9.214,6.053,18.258,12.968,26.881,20.553c3.11,2.736,7.849,2.431,10.585-0.678
	c2.736-3.11,2.432-7.849-0.678-10.585c-3.236-2.847-6.532-5.6-9.872-8.262c24.842-13.182,55.015-34.017,81.195-56.241
	c0.183-0.155,0.387-0.331,0.759-0.102c0.23,0.142,0.225,0.199,0.157,0.477c-5.478,22.548-20.085,61.747-40.012,98.181
	c-2.846-3.593-5.817-7.161-8.914-10.685c-2.734-3.111-7.473-3.418-10.584-0.683c-3.111,2.734-3.417,7.473-0.683,10.584
	c7.084,8.062,13.498,16.343,19.062,24.612c1.799,2.673,1.811,6.312,0.029,9.054c-1.227,1.888-2.479,3.777-3.758,5.667
	c-4.773,7.057-5.382,16.224-1.59,23.923c14.731,29.909,22.201,62.094,22.201,95.66c0,58.47-22.924,113.288-64.548,154.359
	c-41.617,41.063-96.757,63.273-155.269,62.458c-50.542-0.677-99.764-19.616-138.6-53.326c-3.13-2.715-7.865-2.38-10.581,0.748
	c-2.715,3.128-2.38,7.865,0.748,10.581c41.508,36.03,94.151,56.271,148.232,56.997c1.073,0.014,2.137,0.021,3.208,0.021
	c61.357,0,119.064-23.652,162.797-66.802c44.504-43.911,69.013-102.522,69.013-165.036c0-35.885-7.989-70.298-23.745-102.288
	c-1.439-2.922-1.23-6.246,0.559-8.892c1.33-1.966,2.633-3.932,3.91-5.896c5.094-7.838,5.031-17.888-0.162-25.603
	c-0.499-0.741-1.013-1.482-1.524-2.223c22.298-39.286,38.776-83.132,44.786-107.871C513.15,16.614,510.458,10.025,504.68,6.461z
	 M54.914,117.64C35.056,81.274,20.502,42.201,15.037,19.705c-0.068-0.278-0.073-0.335,0.157-0.477
	c0.372-0.228,0.577-0.052,0.759,0.102c26.117,22.17,56.206,42.958,81.012,56.145C81.34,87.854,67.27,101.946,54.914,117.64z"/>
<path d="M171.75,243.458c4.142,0,7.5-3.358,7.5-7.5s-3.358-7.5-7.5-7.5c-15.18,0-27.53,12.35-27.53,27.53v16.024
	c0,15.18,12.35,27.53,27.53,27.53s27.53-12.35,27.53-27.53v-12.018c0-4.142-3.358-7.5-7.5-7.5s-7.5,3.358-7.5,7.5v12.018
	c0,6.909-5.621,12.53-12.53,12.53c-6.909,0-12.53-5.621-12.53-12.53v-16.024C159.22,249.079,164.841,243.458,171.75,243.458z"/>
<path d="M340.003,243.458c4.142,0,7.5-3.358,7.5-7.5s-3.358-7.5-7.5-7.5c-15.18,0-27.53,12.35-27.53,27.53v16.024
	c0,15.18,12.35,27.53,27.53,27.53s27.53-12.35,27.53-27.53v-12.018c0-4.142-3.358-7.5-7.5-7.5s-7.5,3.358-7.5,7.5v12.018
	c0,6.909-5.621,12.53-12.53,12.53s-12.53-5.621-12.53-12.53v-16.024C327.473,249.079,333.095,243.458,340.003,243.458z"/>
<path d="M207.771,227.493c2.872,0,5.612-1.659,6.856-4.451c1.685-3.784-0.017-8.218-3.801-9.902l-72.108-32.106
	c-3.785-1.686-8.218,0.017-9.902,3.801c-1.685,3.784,0.017,8.218,3.801,9.902l72.108,32.106
	C205.717,227.284,206.752,227.493,207.771,227.493z"/>
<path d="M382.88,184.835c-1.685-3.783-6.117-5.487-9.902-3.801L300.87,213.14c-3.784,1.685-5.485,6.118-3.801,9.902
	c1.244,2.792,3.984,4.451,6.856,4.451c1.019,0,2.055-0.209,3.046-0.65l72.108-32.106
	C382.863,193.053,384.565,188.619,382.88,184.835z"/>
<path d="M133.451,367.602c10.885,9.06,22.783,16.886,35.373,23.309c1.206,4.113,4.274,7.454,8.496,8.982
	c1.565,0.567,3.167,0.842,4.746,0.842c2.041,0,4.04-0.467,5.868-1.349c21.608,8.18,44.383,12.327,67.767,12.327
	c23.461,0,46.306-4.173,67.974-12.405c1.867,0.93,3.917,1.427,6.013,1.427c1.579,0,3.182-0.275,4.746-0.841
	c4.294-1.555,7.394-4.986,8.555-9.197c12.438-6.385,24.193-14.133,34.961-23.094c5.457-4.542,7.113-11.737,4.121-17.903
	c-3.28-6.761-11.044-10.321-18.883-8.653c-34.465,7.324-70.628,11.038-107.486,11.038c-36.861,0-73.024-3.714-107.487-11.039
	c-7.84-1.664-15.603,1.894-18.883,8.655C126.338,355.866,127.994,363.06,133.451,367.602z M183.256,383.497v-21.201
	c5.331,0.715,10.687,1.359,16.072,1.914L183.256,383.497z M328.498,383.497l-16.102-19.322c5.395-0.559,10.762-1.207,16.102-1.927
	V383.497z M366.304,355.717c1.157-0.245,1.806,0.063,2.095,0.316c-0.015,0.013-0.03,0.026-0.046,0.039
	c-7.774,6.47-16.104,12.255-24.856,17.289v-13.359C351.169,358.739,358.777,357.317,366.304,355.717z M294.178,365.743
	l18.094,21.712c-18.142,6.138-37.122,9.256-56.572,9.256c-19.348,0-38.236-3.087-56.296-9.163l18.152-21.782
	c12.61,0.869,25.336,1.316,38.144,1.316C268.62,367.083,281.458,366.628,294.178,365.743z M145.095,355.717
	c7.642,1.624,15.369,3.065,23.161,4.344v13.513c-8.883-5.082-17.332-10.944-25.209-17.501c-0.016-0.014-0.031-0.026-0.046-0.039
	C143.29,355.78,143.938,355.472,145.095,355.717z"/>
<g>
</g>
<g>
</g>
<g>
</g>
<g>
</g>
<g>
</g>
<g>
</g>
<g>
</g>
<g>
</g>
<g>
</g>
<g>
</g>
<g>
</g>
<g>
</g>
<g>
</g>
<g>
</g>
<g>
</g>
</svg>
