<?xml version="1.0" encoding="iso-8859-1"?>
<!-- Generator: Adobe Illustrator 19.0.0, SVG Export Plug-In . SVG Version: 6.00 Build 0)  -->
<svg version="1.1" id="Capa_1" xmlns="http://www.w3.org/2000/svg" xmlns:xlink="http://www.w3.org/1999/xlink" x="0px" y="0px"
	 viewBox="0 0 512 512" style="enable-background:new 0 0 512 512;" xml:space="preserve">
<circle style="fill:#FFE17D;" cx="256.017" cy="256.038" r="248.479"/>
<path style="fill:#FFD164;" d="M292.089,468.443c-137.231,0-248.479-111.248-248.479-248.479c0-59.428,20.889-113.961,55.69-156.72
	C43.321,108.806,7.541,178.23,7.541,256.033c0,137.23,111.247,248.479,248.479,248.479c77.803,0,147.229-35.781,192.789-91.761
	C406.051,447.553,351.518,468.443,292.089,468.443z"/>
<path style="fill:#9C6846;" d="M255.962,371.908c27.468,0,53.687,2.954,77.741,8.294c3.116,0.692,5.8-2.323,4.84-5.466
	c-11.093-36.277-43.837-62.595-82.581-62.595s-71.488,26.317-82.581,62.595c-0.961,3.143,1.724,6.157,4.84,5.466
	C202.276,374.861,228.494,371.908,255.962,371.908z"/>
<path style="fill:#A5CDFF;" d="M79.68,424.358c26.561,0,48.093-21.532,48.093-48.093c0-39.644-32.678-90.179-44.161-106.713
	c-1.905-2.743-5.958-2.743-7.863,0c-11.482,16.534-44.161,67.069-44.161,106.713C31.587,402.826,53.12,424.358,79.68,424.358z"/>
<path style="fill:#8CB4EB;" d="M54.259,385.001c0-29.125,17.629-78.115,31.543-112.25c-0.788-1.163-1.532-2.251-2.19-3.198
	c-1.906-2.744-5.958-2.744-7.863,0c-11.483,16.534-44.161,67.069-44.161,106.713c0,24.668,18.643,44.764,42.567,47.536
	C62.148,415.057,54.259,400.992,54.259,385.001z"/>
<path style="fill:#7D5046;" d="M255.962,336.188c23.954,0,46.605,3.204,66.975,8.834c-15.876-20.054-39.953-32.88-66.974-32.88
	c-27.023,0-51.1,12.825-66.974,32.88C209.358,339.391,232.008,336.188,255.962,336.188z"/>
<path style="fill:#C4DEFF;" d="M256.02,146.489c105.234,0,197.056,57.17,246.287,142.103c1.396-10.663,2.192-21.514,2.192-32.558
	c0-137.231-111.247-248.479-248.479-248.479S7.541,118.802,7.541,256.034c0,11.044,0.796,21.895,2.192,32.558
	C58.964,203.659,150.786,146.489,256.02,146.489z"/>
<path style="fill:#A5CDFF;" d="M43.61,219.965c0-59.428,20.889-113.961,55.69-156.72C43.321,108.806,7.541,178.23,7.541,256.033
	c0,11.043,0.796,21.895,2.192,32.557v0.001c9.929-17.13,21.666-33.06,34.821-47.691C43.977,233.991,43.61,227.023,43.61,219.965z"/>
<path style="fill:#7D5046;" d="M340.182,264.049L340.182,264.049c-11.067,0-20.038-8.971-20.038-20.038V227.98
	c0-11.067,8.971-20.038,20.038-20.038l0,0c11.067,0,20.038,8.971,20.038,20.038v16.031
	C360.221,255.078,351.249,264.049,340.182,264.049z"/>
<path style="fill:#9C6846;" d="M360.221,227.98c0-12.378-11.221-22.133-24.046-19.649v15.642c0,13.281,10.766,24.046,24.046,24.046
	l0,0V227.98z"/>
<path style="fill:#7D5046;" d="M171.858,264.049L171.858,264.049c-11.067,0-20.038-8.971-20.038-20.038V227.98
	c0-11.067,8.971-20.038,20.038-20.038l0,0c11.067,0,20.038,8.971,20.038,20.038v16.031
	C191.897,255.078,182.925,264.049,171.858,264.049z"/>
<path style="fill:#9C6846;" d="M191.897,227.98c0-12.378-11.221-22.133-24.046-19.649v15.642c0,13.281,10.766,24.046,24.046,24.046
	l0,0V227.98z"/>
<path d="M171.848,271.549c15.186,0,27.54-12.354,27.54-27.54v-12.025c0-4.142-3.358-7.499-7.499-7.499s-7.499,3.358-7.499,7.499
	v12.025c0,6.915-5.626,12.541-12.541,12.541s-12.541-5.626-12.541-12.541v-16.033c0-6.915,5.626-12.541,12.541-12.541
	c4.142,0,7.499-3.358,7.499-7.499s-3.358-7.499-7.499-7.499c-15.186,0-27.54,12.354-27.54,27.54v16.033
	C144.308,259.195,156.663,271.549,171.848,271.549z"/>
<path d="M367.733,244.01v-12.025c0-4.142-3.358-7.499-7.499-7.499c-4.142,0-7.499,3.358-7.499,7.499v12.025
	c0,6.915-5.626,12.541-12.541,12.541c-6.915,0-12.542-5.626-12.542-12.541v-16.033c0-6.915,5.627-12.541,12.542-12.541
	c4.142,0,7.499-3.358,7.499-7.499s-3.358-7.499-7.499-7.499c-15.186,0-27.541,12.354-27.541,27.54v16.033
	c0,15.186,12.355,27.54,27.541,27.54S367.733,259.195,367.733,244.01z"/>
<path d="M448.305,87.097c-2.736-3.109-7.475-3.411-10.584-0.675c-3.109,2.737-3.412,7.475-0.675,10.584
	c40.418,45.922,61.672,104.986,59.847,166.314c-1.833,61.598-26.854,119.533-70.453,163.132
	c-85.706,85.706-222.422,94.331-318.013,20.065c-3.271-2.542-7.982-1.95-10.523,1.321c-2.541,3.271-1.95,7.982,1.321,10.523
	c46.231,35.917,101.515,53.584,156.619,53.584c65.933,0,131.609-25.296,181.201-74.89c46.314-46.313,72.893-107.857,74.841-173.291
	C513.823,198.625,491.244,135.883,448.305,87.097z"/>
<path d="M197.229,138.557c-2.912-2.932-7.656-2.946-10.597-0.043c-0.231,0.228-23.724,22.987-76.938,38.191
	c-3.982,1.138-6.288,5.289-5.151,9.271c0.941,3.294,3.944,5.441,7.207,5.441c0.682,0,1.376-0.094,2.064-0.291
	c57.324-16.378,82.368-40.951,83.406-41.989C200.143,146.214,200.142,141.487,197.229,138.557z"/>
<path d="M179.867,387.566c24.261-5.387,49.873-8.117,76.124-8.117c26.252,0,51.865,2.731,76.125,8.117
	c0.852,0.189,1.707,0.282,2.552,0.282c3.184,0,6.227-1.316,8.469-3.741c2.846-3.078,3.849-7.492,2.617-11.521
	c-12.421-40.618-48.494-67.908-89.763-67.908s-77.341,27.29-89.762,67.907c-1.232,4.029-0.23,8.443,2.615,11.521
	C171.681,387.174,175.802,388.468,179.867,387.566z M255.991,319.676c32.824,0,61.765,20.683,73.619,52.022
	c-23.603-4.811-48.339-7.248-73.619-7.248s-50.016,2.438-73.619,7.248C194.227,340.359,223.167,319.676,255.991,319.676z"/>
<path d="M135.286,376.308c0-20.43-7.817-45.506-23.236-74.533c-1.943-3.658-6.484-5.048-10.141-3.105
	c-3.658,1.943-5.048,6.483-3.105,10.141c14.055,26.458,21.483,49.798,21.483,67.495c0,22.386-18.212,40.599-40.6,40.599
	S39.09,398.693,39.09,376.307c0-35.08,28.021-80.538,40.607-99.184c0.79,1.167,1.639,2.439,2.537,3.805
	c2.275,3.461,6.926,4.423,10.386,2.147c3.461-2.275,4.423-6.925,2.147-10.386c-5.288-8.043-8.926-12.907-9.079-13.11
	c-1.417-1.889-3.639-3-5.999-3s-4.583,1.111-5.999,3c-1.564,2.085-30.275,40.716-43.283,81.241
	c-14.846-39.411-19.076-81.866-12.189-123.964c8.17-49.946,31.472-95.328,67.385-131.241
	c43.599-43.599,101.534-68.62,163.132-70.453c61.33-1.829,120.392,19.428,166.314,59.847c3.109,2.737,7.847,2.436,10.584-0.675
	c2.737-3.109,2.435-7.847-0.675-10.584C376.171,20.81,313.427-1.764,248.288,0.169C182.853,2.117,121.31,28.696,74.997,75.01
	c-38.148,38.148-62.9,86.36-71.581,139.425c-8.478,51.823-1.102,104.164,21.327,151.39c-0.419,3.544-0.65,7.047-0.65,10.484
	c0,30.656,24.941,55.597,55.597,55.597S135.286,406.965,135.286,376.308z"/>
<path d="M400.348,191.416c3.263,0,6.266-2.147,7.207-5.441c1.138-3.983-1.168-8.133-5.151-9.271
	c-53.214-15.204-76.707-37.963-76.921-38.174c-2.929-2.929-7.677-2.929-10.605,0c-2.929,2.929-2.929,7.677,0,10.605
	c1.038,1.038,26.082,25.612,83.407,41.989C398.972,191.322,399.665,191.416,400.348,191.416z"/>
<g>
</g>
<g>
</g>
<g>
</g>
<g>
</g>
<g>
</g>
<g>
</g>
<g>
</g>
<g>
</g>
<g>
</g>
<g>
</g>
<g>
</g>
<g>
</g>
<g>
</g>
<g>
</g>
<g>
</g>
</svg>
