<?xml version="1.0" encoding="iso-8859-1"?>
<!-- Generator: Adobe Illustrator 19.0.0, SVG Export Plug-In . SVG Version: 6.00 Build 0)  -->
<svg version="1.1" id="Capa_1" xmlns="http://www.w3.org/2000/svg" xmlns:xlink="http://www.w3.org/1999/xlink" x="0px" y="0px"
	 viewBox="0 0 512 512" style="enable-background:new 0 0 512 512;" xml:space="preserve">
<path style="fill:#DBD9DC;" d="M249.468,7.591C122.846,11.063,23.532,118.136,23.532,244.805v139.454
	c0,30.99,25.123,56.113,56.113,56.113h40.081c8.854,0,16.032,7.178,16.032,16.032v24.048c0,13.282,10.767,24.048,24.048,24.048
	h192.387c13.282,0,24.048-10.767,24.048-24.048v-24.048c0-8.854,7.178-16.032,16.032-16.032h40.081
	c30.99,0,56.113-25.123,56.113-56.113v-144.29C488.468,109.41,380.84,3.989,249.468,7.591z"/>
<path style="fill:#C9C6CA;" d="M143.774,416.324L143.774,416.324c-22.136,0-40.081-17.945-40.081-40.081V244.805
	c0-115.298,82.294-214.329,192.558-233.804c-20.912-3.651-42.767-4.559-65.212-2.183C112.06,21.417,23.532,125.161,23.532,244.805
	v139.454c0,30.99,25.123,56.113,56.113,56.113h40.081c8.854,0,16.032,7.178,16.032,16.032v24.048
	c0,13.282,10.767,24.048,24.048,24.048h24.048v-48.097C183.855,434.269,165.91,416.324,143.774,416.324z"/>
<g>
	<path style="fill:#867E88;" d="M248.593,361.385l-25.406,61.42c-2.711,6.554,3.799,13.141,10.385,10.507l16.475-6.59
		c3.822-1.529,8.086-1.529,11.908,0l16.475,6.59c6.585,2.634,13.096-3.953,10.385-10.507l-25.406-61.42
		C260.676,354.782,251.324,354.782,248.593,361.385z"/>
	<circle style="fill:#867E88;" cx="151.79" cy="288.061" r="72.14"/>
</g>
<path style="fill:#6F6571;" d="M151.79,247.985c34.327,0,62.997,23.996,70.296,56.113c1.173-5.163,1.849-10.514,1.849-16.032
	c0-39.845-32.3-72.145-72.145-72.145s-72.145,32.3-72.145,72.145c0,5.518,0.676,10.869,1.849,16.032
	C88.794,271.981,117.464,247.985,151.79,247.985z"/>
<circle style="fill:#867E88;" cx="360.21" cy="288.061" r="72.14"/>
<g>
	<path style="fill:#6F6571;" d="M360.21,247.985c34.327,0,62.997,23.996,70.296,56.113c1.173-5.163,1.849-10.514,1.849-16.032
		c0-39.845-32.3-72.145-72.145-72.145s-72.145,32.3-72.145,72.145c0,5.518,0.676,10.869,1.849,16.032
		C297.213,271.981,325.883,247.985,360.21,247.985z"/>
	<path style="fill:#6F6571;" d="M238.138,396.95c5.707-2.282,11.716-3.44,17.862-3.44s12.155,1.158,17.863,3.44l5.101,2.04
		l-15.556-37.606c-2.731-6.603-12.084-6.603-14.815,0l-15.556,37.606L238.138,396.95z"/>
</g>
<path d="M476.447,145.015c-12.51-29.005-30.382-54.93-53.12-77.053c-46.826-45.56-108.646-69.66-174.065-67.869
	C186.321,1.82,127.476,28.368,83.565,74.848c-43.549,46.099-67.533,106.457-67.533,169.957v139.454
	c0,35.077,28.537,63.613,63.613,63.613h40.081c4.705,0,8.532,3.828,8.532,8.532v24.048c0,17.396,14.153,31.548,31.549,31.548
	h192.387c17.396,0,31.549-14.152,31.549-31.548v-24.048c0-4.705,3.828-8.532,8.532-8.532h40.081
	c35.076,0,63.613-28.537,63.613-63.613v-144.29C495.968,206.995,489.4,175.049,476.447,145.015z M480.968,384.259
	c0,26.806-21.808,48.613-48.613,48.613h-40.081c-12.976,0-23.532,10.557-23.532,23.532v24.048c0,9.125-7.424,16.548-16.549,16.548
	h-8.533v-16.549c0-4.142-3.358-7.5-7.5-7.5s-7.5,3.358-7.5,7.5v16.55h-25.08v-16.549c0-4.142-3.358-7.5-7.5-7.5s-7.5,3.358-7.5,7.5
	v16.549h-25.081v-16.549c0-4.142-3.358-7.5-7.5-7.5s-7.5,3.358-7.5,7.5v16.549h-25.081v-16.549c0-4.142-3.358-7.5-7.5-7.5
	s-7.5,3.358-7.5,7.5v16.549h-25.081v-16.549c0-4.142-3.358-7.5-7.5-7.5s-7.5,3.358-7.5,7.5v16.549h-8.531
	c-9.125,0-16.549-7.423-16.549-16.548v-24.048c0-12.976-10.557-23.532-23.532-23.532h-40.08c-26.805,0-48.613-21.808-48.613-48.613
	V244.805c0-59.653,22.529-116.354,63.437-159.655c41.155-43.564,96.274-68.446,155.205-70.062c2.134-0.059,4.255-0.087,6.38-0.087
	c58.965,0,114.442,22.487,156.813,63.713c43.916,42.728,68.101,99.996,68.101,161.255L480.968,384.259L480.968,384.259z"/>
<path d="M270.338,358.518c-2.409-5.823-8.037-9.585-14.338-9.585c-6.301,0-11.929,3.762-14.338,9.585l-25.407,61.42
	c-2.391,5.78-1.094,12.39,3.303,16.838c4.397,4.45,10.991,5.823,16.798,3.499l16.475-6.59c2.044-0.818,4.294-0.816,6.337,0
	l16.475,6.59c1.876,0.75,3.833,1.115,5.773,1.115c4.065,0,8.048-1.603,11.025-4.614c4.397-4.448,5.693-11.058,3.303-16.838
	L270.338,358.518z M281.774,426.232c-0.239,0.244-0.394,0.182-0.559,0.117l-16.476-6.591c-2.818-1.127-5.778-1.69-8.739-1.69
	c-2.961,0-5.922,0.563-8.74,1.691l-16.475,6.59c-0.165,0.064-0.319,0.126-0.559-0.117c-0.241-0.244-0.177-0.397-0.11-0.56
	l25.407-61.42c0.067-0.164,0.132-0.318,0.477-0.318s0.409,0.154,0.477,0.318l25.407,61.42
	C281.951,425.834,282.014,425.988,281.774,426.232z"/>
<path d="M87.537,281.18c1.562-14.831,7.974-28.256,18.542-38.825c10.569-10.569,23.994-16.98,38.825-18.542
	c14.406-1.518,29.062,1.876,41.26,9.557c3.506,2.208,8.135,1.154,10.343-2.351c2.207-3.505,1.155-8.136-2.351-10.343
	c-15.032-9.465-33.083-13.647-50.823-11.781c-18.024,1.898-35.021,10.014-47.86,22.854c-12.839,12.839-20.955,29.836-22.853,47.86
	c-1.868,17.741,2.315,35.791,11.781,50.823c1.426,2.264,3.862,3.505,6.354,3.505c1.366,0,2.748-0.373,3.989-1.154
	c3.505-2.207,4.558-6.838,2.351-10.343C89.414,310.242,86.02,295.589,87.537,281.18z"/>
<path d="M219.18,245.7c-2.207-3.505-6.839-4.557-10.343-2.351c-3.505,2.207-4.558,6.838-2.351,10.343
	c7.68,12.197,11.075,26.851,9.557,41.26c-1.562,14.831-7.974,28.256-18.542,38.825c-10.569,10.568-23.994,16.98-38.825,18.542
	c-14.412,1.518-29.062-1.876-41.26-9.557c-3.505-2.208-8.136-1.154-10.343,2.351s-1.155,8.136,2.351,10.343
	c12.689,7.99,27.527,12.216,42.516,12.216c2.768,0,5.542-0.144,8.308-0.436c18.024-1.898,35.021-10.014,47.86-22.853
	s20.956-29.836,22.854-47.86C232.83,278.781,228.646,260.732,219.18,245.7z"/>
<path d="M295.922,281.18c1.562-14.831,7.974-28.256,18.542-38.825c10.569-10.569,23.994-16.98,38.825-18.542
	c14.407-1.518,29.062,1.876,41.26,9.557c3.506,2.208,8.135,1.154,10.343-2.351c2.207-3.505,1.155-8.136-2.351-10.343
	c-15.033-9.465-33.084-13.647-50.823-11.781c-18.024,1.898-35.021,10.014-47.86,22.854c-12.839,12.839-20.955,29.836-22.853,47.86
	c-1.868,17.741,2.315,35.791,11.781,50.823c1.426,2.264,3.862,3.505,6.354,3.505c1.366,0,2.748-0.373,3.989-1.154
	c3.505-2.207,4.558-6.838,2.351-10.343C297.798,310.242,294.404,295.589,295.922,281.18z"/>
<path d="M414.872,253.692c7.68,12.197,11.075,26.851,9.557,41.26c-1.562,14.831-7.974,28.256-18.542,38.825
	c-10.569,10.568-23.994,16.98-38.825,18.542c-14.41,1.518-29.062-1.876-41.26-9.557c-3.506-2.208-8.136-1.154-10.343,2.351
	s-1.155,8.136,2.351,10.343c12.689,7.99,27.527,12.216,42.516,12.216c2.768,0,5.542-0.144,8.308-0.436
	c18.024-1.898,35.021-10.014,47.86-22.853s20.956-29.836,22.854-47.86c1.868-17.742-2.316-35.791-11.781-50.823
	c-2.207-3.505-6.838-4.557-10.343-2.351C413.717,245.556,412.665,250.187,414.872,253.692z"/>
<g>
</g>
<g>
</g>
<g>
</g>
<g>
</g>
<g>
</g>
<g>
</g>
<g>
</g>
<g>
</g>
<g>
</g>
<g>
</g>
<g>
</g>
<g>
</g>
<g>
</g>
<g>
</g>
<g>
</g>
</svg>
