<?xml version="1.0" encoding="iso-8859-1"?>
<!-- Generator: Adobe Illustrator 19.0.0, SVG Export Plug-In . SVG Version: 6.00 Build 0)  -->
<svg version="1.1" id="Capa_1" xmlns="http://www.w3.org/2000/svg" xmlns:xlink="http://www.w3.org/1999/xlink" x="0px" y="0px"
	 viewBox="0 0 512 512" style="enable-background:new 0 0 512 512;" xml:space="preserve">
<circle style="fill:#FFE17D;" cx="256" cy="256" r="248.5"/>
<path style="fill:#FFD164;" d="M292.073,468.428c-137.243,0-248.5-111.258-248.5-248.5c0-59.433,20.891-113.971,55.695-156.733
	C43.284,108.76,7.5,178.19,7.5,256c0,137.242,111.257,248.5,248.5,248.5c77.81,0,147.242-35.784,192.806-91.769
	C406.045,447.536,351.506,468.428,292.073,468.428z"/>
<path style="fill:#9C6846;" d="M256,303.861c-47.878,0-93.58-5.559-135.509-15.608c-5.431-1.302-10.112,4.372-8.436,10.285
	C131.392,366.801,188.467,416.323,256,416.323s124.608-49.521,143.945-117.785c1.675-5.914-3.005-11.587-8.436-10.285
	C349.58,298.302,303.878,303.861,256,303.861z"/>
<path style="fill:#7D5046;" d="M391.509,288.253C349.58,298.302,303.879,303.86,256,303.86s-93.58-5.559-135.508-15.608
	c-5.431-1.301-10.112,4.372-8.436,10.285c5.061,17.869,12.763,34.405,22.507,49.153c39.838,7.568,80.367,11.731,121.455,11.731
	c41.075,0,81.589-4.16,121.415-11.722c9.747-14.75,17.451-31.289,22.513-49.161C401.62,292.624,396.94,286.951,391.509,288.253z"/>
<path style="fill:#FFFFFF;" d="M363.795,315.629c4.333-7.425,7.958-15.381,10.999-23.663c-37.26,7.689-77.202,11.894-118.794,11.894
	c-41.617,0-81.582-4.209-118.861-11.907c3.056,8.322,6.741,16.292,11.102,23.748c5.043,8.62,13.58,14.133,22.868,15.263
	c27.809,3.383,56.152,5.197,84.89,5.197c28.732,0,57.068-1.813,84.871-5.195C350.19,329.833,358.744,324.283,363.795,315.629z"/>
<path style="fill:#A5CDFF;" d="M21.587,362.155c-18.783-18.783-18.783-49.236,0-68.019c28.035-28.035,86.881-40.663,106.693-44.235
	c3.287-0.593,6.153,2.273,5.561,5.561c-3.572,19.812-16.2,78.659-44.235,106.693C70.823,380.938,40.37,380.938,21.587,362.155z"/>
<path style="fill:#8CB4EB;" d="M47.475,360.316c-18.783-18.783-18.783-49.236,0-68.019c14.464-14.464,40.564-28.254,65.79-39.339
	c-26.017,5.863-68.959,18.46-91.677,41.178c-18.783,18.783-18.783,49.236,0,68.019c13.546,13.546,33.124,17.167,50.055,11.174
	C62.791,371.485,54.345,367.187,47.475,360.316z"/>
<path style="fill:#A5CDFF;" d="M490.413,362.155c18.783-18.783,18.783-49.236,0-68.019c-28.035-28.035-86.881-40.663-106.693-44.235
	c-3.287-0.593-6.153,2.273-5.561,5.561c3.572,19.812,16.2,78.659,44.235,106.693C441.177,380.938,471.63,380.938,490.413,362.155z"
	/>
<path style="fill:#8CB4EB;" d="M444.604,352.3c-20.596-20.596-42.774-67.708-57.074-101.686c-1.38-0.265-2.675-0.508-3.81-0.713
	c-3.288-0.593-6.154,2.273-5.561,5.561c3.572,19.812,16.2,78.659,44.234,106.693c17.444,17.444,44.839,18.472,63.718,3.514
	C471.437,367.976,455.912,363.608,444.604,352.3z"/>
<path d="M139.076,229.753c3.229,2.594,7.949,2.081,10.544-1.147c6.758-8.408,16.314-13.231,26.219-13.231
	c9.904,0,19.46,4.823,26.219,13.231c1.482,1.844,3.656,2.802,5.851,2.802c1.648,0,3.309-0.542,4.694-1.655
	c3.229-2.595,3.742-7.316,1.147-10.544c-9.621-11.969-23.438-18.833-37.91-18.833c-14.473,0-28.29,6.865-37.91,18.833
	C135.333,222.437,135.847,227.158,139.076,229.753z"/>
<path d="M206.851,148.976c-1.538-3.846-5.9-5.716-9.749-4.178l-80.162,32.064c-3.846,1.539-5.716,5.903-4.178,9.749
	c1.173,2.933,3.989,4.717,6.966,4.717c0.927,0,1.87-0.173,2.783-0.538l80.162-32.065
	C206.519,157.187,208.389,152.823,206.851,148.976z"/>
<path d="M336.161,200.375c-14.472,0-28.29,6.865-37.91,18.833c-2.595,3.229-2.082,7.949,1.147,10.544
	c1.385,1.114,3.045,1.655,4.694,1.655c2.194,0,4.369-0.958,5.851-2.802c6.759-8.408,16.315-13.231,26.219-13.231
	s19.46,4.823,26.219,13.231c2.594,3.228,7.314,3.741,10.544,1.147c3.229-2.595,3.742-7.316,1.147-10.545
	C364.451,207.24,350.634,200.375,336.161,200.375z"/>
<path d="M392.272,191.328c2.977,0,5.793-1.784,6.966-4.717c1.539-3.846-0.332-8.21-4.178-9.749l-80.162-32.064
	c-3.847-1.539-8.211,0.332-9.749,4.178c-1.539,3.846,0.332,8.21,4.178,9.749l80.162,32.065
	C390.402,191.156,391.345,191.328,392.272,191.328z"/>
<path d="M512,327.311c0-7.839-1.627-15.424-4.693-22.39c7.256-37.51,6.013-76.816-3.63-113.753
	c-10.003-38.313-29.149-74.31-55.369-104.1c-2.736-3.109-7.476-3.411-10.585-0.675c-3.109,2.737-3.412,7.476-0.675,10.585
	c25.032,28.441,42.566,61.406,52.115,97.979c7.82,29.951,9.761,61.557,5.791,92.314c-14.495-14.127-37.476-26.086-68.369-35.544
	c-3.965-1.214-8.155,1.015-9.367,4.976s1.015,8.154,4.976,9.367c28.645,8.77,50.401,20.02,62.916,32.534
	c7.668,7.668,11.891,17.862,11.891,28.706s-4.223,21.039-11.891,28.707c-7.667,7.667-17.862,11.89-28.706,11.89
	s-21.039-4.223-28.707-11.89c-24.804-24.805-37.133-76.759-41.418-98.843c1.383,0.268,2.882,0.565,4.482,0.896
	c4.056,0.839,8.024-1.77,8.863-5.826c0.839-4.056-1.77-8.025-5.826-8.864c-9.425-1.949-15.438-2.814-15.69-2.851
	c-2.335-0.333-4.695,0.452-6.364,2.122c-1.669,1.669-2.455,4.027-2.122,6.364c0.199,1.391,2.33,15.869,7.296,34.846
	c-38.81,8.292-79.451,12.499-120.919,12.499c-41.469,0-82.109-4.207-120.919-12.499c4.966-18.977,7.097-33.456,7.296-34.846
	c0.333-2.337-0.452-4.694-2.122-6.364s-4.027-2.455-6.364-2.122c-0.251,0.036-6.265,0.902-15.69,2.851
	c-4.057,0.839-6.665,4.808-5.826,8.864c0.838,4.056,4.807,6.662,8.863,5.826c1.602-0.331,3.103-0.63,4.487-0.897
	c-4.275,22.076-16.585,74.005-41.423,98.844c-7.668,7.667-17.863,11.89-28.707,11.89s-21.039-4.223-28.706-11.89
	C19.223,348.35,15,338.155,15,327.311s4.223-21.038,11.891-28.706c12.521-12.521,34.293-23.776,62.963-32.549
	c3.961-1.212,6.189-5.405,4.978-9.366c-1.211-3.961-5.404-6.189-9.366-4.978c-30.89,9.452-53.873,21.402-68.378,35.52
	C7.405,213.171,32.426,138.778,85.616,85.587c43.598-43.597,101.53-68.617,163.126-70.451
	c61.331-1.825,120.388,19.429,166.308,59.845c3.109,2.737,7.849,2.435,10.585-0.675c2.737-3.109,2.435-7.849-0.675-10.585
	C376.176,20.784,313.442-1.799,248.296,0.143C182.863,2.091,121.322,28.668,75.009,74.981
	c-60.247,60.247-86.472,146.098-70.263,229.82C1.646,311.799,0,319.427,0,327.311c0,14.851,5.783,28.812,16.284,39.313
	c4.192,4.192,8.943,7.619,14.075,10.239c9.214,17.183,20.439,33.355,33.39,48.069c1.482,1.685,3.552,2.545,5.633,2.545
	c1.76,0,3.527-0.616,4.952-1.87c3.109-2.737,3.412-7.476,0.675-10.585c-8.885-10.095-16.895-20.925-23.952-32.311
	c1.503,0.121,3.015,0.197,4.539,0.197c14.851,0,28.812-5.783,39.313-16.284c8.983-8.983,16.431-20.775,22.557-33.422
	C145.219,388.777,198,423.823,256,423.823c57.902,0,110.772-35.074,138.534-90.621c6.126,12.647,13.574,24.439,22.557,33.422
	c10.501,10.501,24.462,16.284,39.313,16.284c1.573,0,3.134-0.079,4.685-0.208c-9.773,15.787-21.378,30.444-34.646,43.713
	c-43.598,43.597-101.53,68.617-163.126,70.451c-61.311,1.822-120.388-19.427-166.308-59.844c-3.108-2.736-7.848-2.435-10.585,0.675
	c-2.737,3.109-2.435,7.849,0.675,10.585c46.849,41.234,106.568,63.693,168.923,63.693c2.576,0,5.157-0.038,7.741-0.115
	c65.434-1.948,126.975-28.525,173.287-74.838c17.886-17.886,32.934-38.15,44.759-60.24c5.069-2.61,9.762-6.008,13.909-10.156
	C506.217,356.123,512,342.161,512,327.311z M364.043,301.707c-1.989,4.033-4.179,7.938-6.567,11.673
	c-3.728,5.831-10.244,9.788-17.432,10.586c-28.07,3.116-56.346,4.695-84.044,4.695c-27.704,0-55.987-1.58-84.062-4.697
	c-7.17-0.797-13.668-4.731-17.381-10.525c-2.406-3.754-4.612-7.681-6.614-11.734c34.952,6.409,71.194,9.656,108.058,9.656
	C292.858,311.361,329.096,308.115,364.043,301.707z M256,408.823c-56.274,0-107.22-36.958-130.54-94.38
	c1.874-4.988,3.566-9.961,5.091-14.814c3.158,7.676,6.974,15.038,11.375,21.905c6.132,9.566,16.731,16.048,28.355,17.339
	c28.624,3.178,57.463,4.789,85.718,4.789c28.249,0,57.082-1.61,85.699-4.787c11.647-1.293,22.27-7.803,28.415-17.414
	c4.379-6.849,8.181-14.187,11.329-21.849c1.527,4.859,3.222,9.84,5.098,14.836C363.227,371.834,312.18,408.823,256,408.823z"/>
<g>
</g>
<g>
</g>
<g>
</g>
<g>
</g>
<g>
</g>
<g>
</g>
<g>
</g>
<g>
</g>
<g>
</g>
<g>
</g>
<g>
</g>
<g>
</g>
<g>
</g>
<g>
</g>
<g>
</g>
</svg>
