<?xml version="1.0" encoding="iso-8859-1"?>
<!-- Generator: Adobe Illustrator 19.0.0, SVG Export Plug-In . SVG Version: 6.00 Build 0)  -->
<svg version="1.1" id="Capa_1" xmlns="http://www.w3.org/2000/svg" xmlns:xlink="http://www.w3.org/1999/xlink" x="0px" y="0px"
	 viewBox="0 0 512 512" style="enable-background:new 0 0 512 512;" xml:space="preserve">
<circle style="fill:#FFE17D;" cx="255.999" cy="256" r="248.499"/>
<path style="fill:#FFD164;" d="M292.073,468.427c-137.242,0-248.499-111.257-248.499-248.499c0-59.433,20.891-113.97,55.695-156.732
	C43.284,108.761,7.501,178.191,7.501,256.001c0,137.241,111.256,248.499,248.499,248.499c77.81,0,147.241-35.784,192.805-91.768
	C406.044,447.536,351.505,468.427,292.073,468.427z"/>
<path style="fill:#9C6846;" d="M255.943,317.922c-45.238,0-88.418-4.865-128.033-13.66c-5.132-1.139-9.554,3.826-7.971,9.002
	c18.27,59.746,72.197,103.087,136.004,103.087s117.734-43.342,136.004-103.087c1.583-5.176-2.84-10.141-7.971-9.002
	C344.36,313.056,301.18,317.922,255.943,317.922z"/>
<path style="fill:#7D5046;" d="M256.018,352.194c41.972,0,83.375-3.971,124.114-11.081c4.789-8.784,8.823-18.068,11.814-27.849
	c1.583-5.176-2.839-10.141-7.971-9.002c-39.615,8.795-82.796,13.66-128.033,13.66s-88.418-4.865-128.033-13.66
	c-5.131-1.139-9.554,3.826-7.971,9.002c2.988,9.771,7.018,19.046,11.8,27.822C172.53,348.214,213.989,352.194,256.018,352.194z"/>
<path style="fill:#E6646E;" d="M182.901,247.762c13.626-17.131,45.886-63.123,27.487-94.386
	c-7.113-12.086-21.108-18.982-35.04-17.389c-11.315,1.293-20.394,7.238-26.091,15.416c-2.335,3.352-6.565,4.738-10.431,3.417
	c-9.431-3.223-20.268-2.644-30.155,3.008c-12.174,6.96-19.377,20.799-17.961,34.751c3.664,36.09,56.883,54.083,78.003,59.832
	C173.938,253.832,179.529,252,182.901,247.762z"/>
<path id="SVGCleanerId_0" style="fill:#E6646E;" d="M329.098,247.762c-13.626-17.131-45.886-63.123-27.487-94.386
	c7.113-12.086,21.108-18.982,35.04-17.389c11.315,1.293,20.394,7.238,26.091,15.416c2.335,3.352,6.565,4.738,10.431,3.417
	c9.431-3.223,20.268-2.644,30.155,3.008c12.174,6.96,19.377,20.799,17.961,34.751c-3.664,36.09-56.883,54.083-78.003,59.832
	C338.061,253.832,332.47,252,329.098,247.762z"/>
<path style="fill:#DC4655;" d="M189.89,231.477c-21.121-5.749-74.34-23.742-78.004-59.832c-0.572-5.631,0.319-11.219,2.316-16.369
	c-1.865,0.704-3.717,1.514-5.533,2.552c-12.174,6.959-19.377,20.799-17.961,34.751c3.664,36.09,56.883,54.083,78.004,59.832
	c5.225,1.422,10.817-0.409,14.188-4.648c3.134-3.94,7.261-9.455,11.523-15.917C192.92,231.955,191.396,231.887,189.89,231.477z"/>
<g>
	<path id="SVGCleanerId_0_1_" style="fill:#E6646E;" d="M329.098,247.762c-13.626-17.131-45.886-63.123-27.487-94.386
		c7.113-12.086,21.108-18.982,35.04-17.389c11.315,1.293,20.394,7.238,26.091,15.416c2.335,3.352,6.565,4.738,10.431,3.417
		c9.431-3.223,20.268-2.644,30.155,3.008c12.174,6.96,19.377,20.799,17.961,34.751c-3.664,36.09-56.883,54.083-78.003,59.832
		C338.061,253.832,332.47,252,329.098,247.762z"/>
</g>
<path style="fill:#DC4655;" d="M356.018,242.862c-13.626-17.131-45.886-63.124-27.487-94.386c2.845-4.833,6.819-8.787,11.421-11.75
	c-1.112-0.228-2.141-0.607-3.3-0.74c-13.933-1.592-27.928,5.304-35.04,17.389c-18.399,31.264,13.861,77.256,27.487,94.386
	c3.372,4.239,8.963,6.07,14.188,4.648c4.672-1.272,10.958-3.183,17.889-5.717C359.218,245.823,357.404,244.605,356.018,242.862z"/>
<path d="M15.108,248.714c1.833-61.604,26.857-119.542,70.459-163.145c43.603-43.603,101.542-68.626,163.145-70.459
	c61.338-1.826,120.4,19.43,166.327,59.852c3.109,2.736,7.848,2.435,10.585-0.675c2.737-3.11,2.435-7.849-0.675-10.585
	C376.159,20.759,313.406-1.821,248.267,0.116c-65.44,1.947-126.988,28.528-173.305,74.846
	C28.644,121.28,2.063,182.827,0.115,248.268C-1.824,313.413,20.757,376.161,63.7,424.951c1.482,1.685,3.552,2.545,5.633,2.545
	c1.76,0,3.527-0.616,4.952-1.87c3.109-2.737,3.412-7.476,0.675-10.585C34.538,369.115,13.283,310.045,15.108,248.714z"/>
<path d="M448.3,87.052c-2.736-3.109-7.476-3.412-10.585-0.675c-3.109,2.736-3.412,7.476-0.675,10.585
	c40.421,45.925,61.677,104.994,59.852,166.326c-1.833,61.604-26.856,119.542-70.459,163.145s-101.541,68.626-163.145,70.459
	c-61.336,1.822-120.401-19.43-166.327-59.852c-3.108-2.736-7.848-2.435-10.585,0.675c-2.737,3.109-2.435,7.849,0.675,10.585
	c46.854,41.239,106.579,63.7,168.941,63.7c2.577,0,5.158-0.038,7.742-0.115c65.441-1.948,126.988-28.529,173.305-74.846
	c46.318-46.317,72.899-107.865,74.847-173.305C513.823,198.588,491.242,135.84,448.3,87.052z"/>
<path d="M382.394,296.917c-40.301,8.947-82.836,13.484-126.423,13.484c-43.587,0-86.122-4.537-126.423-13.484
	c-4.989-1.107-10.051,0.484-13.539,4.255c-3.573,3.864-4.78,9.196-3.231,14.262c9.539,31.192,28.047,58.062,53.525,77.704
	c26.053,20.086,57.06,30.703,89.667,30.703s63.615-10.617,89.668-30.703c25.478-19.642,43.986-46.512,53.525-77.705
	c1.549-5.066,0.341-10.398-3.231-14.262C392.444,297.399,387.384,295.811,382.394,296.917z M336.48,381.259
	c-23.405,18.044-51.245,27.582-80.51,27.582s-57.104-9.538-80.51-27.582c-22.467-17.321-39.528-41.963-48.108-69.465
	c41.054,9.03,84.318,13.607,128.617,13.607s87.565-4.577,128.618-13.607C376.011,339.29,358.949,363.937,336.48,381.259z"/>
<path d="M166.761,259.617c1.837,0.5,3.7,0.743,5.545,0.743c6.322,0,12.422-2.852,16.484-7.959
	c15.315-19.254,48.71-67.823,28.084-102.869c-8.536-14.504-25.559-22.959-42.359-21.039c-12.929,1.477-24.079,8.077-31.397,18.583
	c-0.423,0.608-1.152,0.847-1.852,0.606c-12.116-4.14-25.01-2.864-36.307,3.594c-14.681,8.393-23.402,25.28-21.702,42.023
	C87.365,233.757,143.022,253.155,166.761,259.617z M112.405,164.298c4.627-2.645,9.643-3.986,14.681-3.986
	c3.131,0,6.271,0.519,9.331,1.564c6.978,2.385,14.797-0.176,19.012-6.228c4.82-6.92,12.204-11.272,20.792-12.253
	c11.007-1.255,22.151,4.266,27.729,13.744c6.663,11.322,5.933,26.717-2.171,45.758c-7.235,16.999-18.596,32.462-24.725,40.167
	c-1.513,1.902-4.004,2.718-6.351,2.08c-9.499-2.586-27.808-8.331-43.697-17.754c-17.799-10.557-27.497-22.536-28.823-35.605
	C97.071,180.842,102.787,169.796,112.405,164.298z"/>
<path d="M428.799,193.299c1.7-16.743-7.021-33.631-21.702-42.023c-11.297-6.458-24.191-7.734-36.307-3.594
	c-0.703,0.24-1.429,0.001-1.853-0.606c-7.317-10.506-18.467-17.106-31.396-18.583c-16.799-1.919-33.824,6.535-42.36,21.039
	c-20.625,35.047,12.77,83.616,28.085,102.869c4.062,5.108,10.162,7.959,16.484,7.959c1.844,0,3.708-0.243,5.545-0.743
	C369.035,253.155,424.692,233.757,428.799,193.299z M385.053,227.39c-15.889,9.423-34.198,15.168-43.697,17.754
	c-2.345,0.639-4.838-0.178-6.351-2.08c-6.128-7.705-17.49-23.168-24.725-40.167c-8.104-19.041-8.835-34.436-2.172-45.758
	c5.05-8.582,14.663-13.921,24.606-13.921c1.039,0,2.082,0.058,3.123,0.177c8.587,0.981,15.971,5.333,20.791,12.254
	c4.216,6.052,12.036,8.612,19.012,6.227c7.981-2.727,16.509-1.867,24.012,2.422c9.618,5.499,15.334,16.544,14.224,27.486
	C412.549,204.854,402.852,216.833,385.053,227.39z"/>
<g>
</g>
<g>
</g>
<g>
</g>
<g>
</g>
<g>
</g>
<g>
</g>
<g>
</g>
<g>
</g>
<g>
</g>
<g>
</g>
<g>
</g>
<g>
</g>
<g>
</g>
<g>
</g>
<g>
</g>
</svg>
