<?xml version="1.0" encoding="iso-8859-1"?>
<!-- Generator: Adobe Illustrator 19.0.0, SVG Export Plug-In . SVG Version: 6.00 Build 0)  -->
<svg version="1.1" id="Capa_1" xmlns="http://www.w3.org/2000/svg" xmlns:xlink="http://www.w3.org/1999/xlink" x="0px" y="0px"
	 viewBox="0 0 512 512" style="enable-background:new 0 0 512 512;" xml:space="preserve">
<circle style="fill:#FFE17D;" cx="255.999" cy="256" r="248.499"/>
<path style="fill:#FFD164;" d="M292.073,468.427c-137.242,0-248.499-111.257-248.499-248.499c0-59.433,20.891-113.97,55.695-156.732
	C43.284,108.761,7.501,178.192,7.501,256.001c0,137.241,111.256,248.499,248.499,248.499c77.81,0,147.241-35.784,192.805-91.768
	C406.044,447.535,351.505,468.427,292.073,468.427z"/>
<path style="fill:#7D5046;" d="M340.168,256.001L340.168,256.001c-11.068,0-20.04-8.972-20.04-20.04v-16.032
	c0-11.068,8.972-20.04,20.04-20.04l0,0c11.068,0,20.04,8.972,20.04,20.04v16.032C360.209,247.029,351.236,256.001,340.168,256.001z"
	/>
<path style="fill:#9C6846;" d="M360.209,219.929c0-12.379-11.222-22.135-24.048-19.651v15.643c0,13.282,10.767,24.048,24.048,24.048
	l0,0V219.929z"/>
<path style="fill:#7D5046;" d="M171.831,256.001L171.831,256.001c-11.068,0-20.04-8.972-20.04-20.04v-16.032
	c0-11.068,8.972-20.04,20.04-20.04l0,0c11.068,0,20.04,8.972,20.04,20.04v16.032C191.871,247.029,182.899,256.001,171.831,256.001z"
	/>
<path style="fill:#9C6846;" d="M191.871,219.929c0-12.379-11.222-22.135-24.048-19.651v15.643c0,13.282,10.767,24.048,24.048,24.048
	l0,0V219.929z"/>
<path d="M171.821,207.382c4.142,0,7.5-3.358,7.5-7.5c0-4.143-3.358-7.5-7.5-7.5c-15.187,0-27.542,12.355-27.542,27.542v16.034
	c0,15.187,12.355,27.542,27.542,27.542s27.542-12.355,27.542-27.542v-12.026c0-4.142-3.358-7.5-7.5-7.5c-4.142,0-7.5,3.358-7.5,7.5
	v12.026c0,6.916-5.626,12.542-12.542,12.542s-12.542-5.626-12.542-12.542v-16.034C159.278,213.009,164.905,207.382,171.821,207.382z
	"/>
<path d="M367.721,235.959v-12.026c0-4.142-3.358-7.5-7.5-7.5c-4.142,0-7.5,3.358-7.5,7.5v12.026c0,6.916-5.626,12.542-12.542,12.542
	c-6.916,0-12.543-5.626-12.543-12.542v-16.034c0-6.916,5.627-12.542,12.543-12.542c4.142,0,7.5-3.358,7.5-7.5
	c0-4.143-3.358-7.5-7.5-7.5c-15.187,0-27.543,12.355-27.543,27.542v16.034c0,15.187,12.356,27.542,27.543,27.542
	S367.721,251.146,367.721,235.959z"/>
<path d="M181.349,373.317c17.079-18.563,44.986-29.646,74.651-29.646s57.572,11.083,74.651,29.646
	c1.479,1.607,3.497,2.422,5.521,2.422c1.815,0,3.635-0.655,5.076-1.981c3.048-2.804,3.246-7.549,0.441-10.597
	c-19.87-21.596-51.904-34.49-85.689-34.49s-65.82,12.894-85.689,34.49c-2.804,3.048-2.607,7.793,0.441,10.597
	C173.8,376.563,178.544,376.365,181.349,373.317z"/>
<path d="M15.108,248.714c1.833-61.604,26.857-119.542,70.459-163.145c43.603-43.603,101.542-68.626,163.145-70.459
	c61.336-1.824,120.401,19.43,166.327,59.852c3.109,2.736,7.848,2.435,10.585-0.675c2.737-3.11,2.435-7.849-0.675-10.585
	C376.159,20.759,313.405-1.826,248.267,0.117c-65.44,1.947-126.988,28.528-173.305,74.846
	C28.644,121.279,2.063,182.827,0.115,248.268C-1.824,313.414,20.757,376.162,63.7,424.951c1.482,1.685,3.552,2.545,5.633,2.545
	c1.76,0,3.527-0.616,4.952-1.87c3.109-2.737,3.412-7.476,0.675-10.585C34.538,369.116,13.283,310.046,15.108,248.714z"/>
<path d="M448.3,87.052c-2.736-3.109-7.476-3.412-10.585-0.675c-3.109,2.736-3.412,7.476-0.675,10.585
	c40.421,45.925,61.677,104.994,59.852,166.326c-1.833,61.604-26.856,119.542-70.459,163.145s-101.541,68.625-163.145,70.459
	c-61.333,1.824-120.401-19.43-166.327-59.852c-3.108-2.736-7.848-2.435-10.585,0.675s-2.435,7.849,0.675,10.585
	c46.854,41.239,106.579,63.7,168.941,63.7c2.577,0,5.158-0.038,7.742-0.115c65.441-1.948,126.988-28.528,173.305-74.846
	c46.318-46.317,72.899-107.865,74.847-173.305C513.823,198.588,491.242,135.84,448.3,87.052z"/>
<g>
</g>
<g>
</g>
<g>
</g>
<g>
</g>
<g>
</g>
<g>
</g>
<g>
</g>
<g>
</g>
<g>
</g>
<g>
</g>
<g>
</g>
<g>
</g>
<g>
</g>
<g>
</g>
<g>
</g>
</svg>
