<?xml version="1.0" encoding="iso-8859-1"?>
<!-- Generator: Adobe Illustrator 19.0.0, SVG Export Plug-In . SVG Version: 6.00 Build 0)  -->
<svg version="1.1" id="Capa_1" xmlns="http://www.w3.org/2000/svg" xmlns:xlink="http://www.w3.org/1999/xlink" x="0px" y="0px"
	 viewBox="0 0 512 512" style="enable-background:new 0 0 512 512;" xml:space="preserve">
<path style="fill:#FFE17D;" d="M480.452,231.952C480.452,355.913,353.398,504.5,256,504.5S31.548,355.913,31.548,231.952
	S132.039,7.5,256,7.5S480.452,107.99,480.452,231.952z"/>
<path style="fill:#FFD164;" d="M304.097,488.468c-97.398,0-224.452-156.604-224.452-280.565
	c0-78.304,40.123-147.207,100.906-187.367C93.713,51.531,31.548,134.466,31.548,231.952C31.548,355.912,158.602,504.5,256,504.5
	c19.859,0,40.95-6.261,61.947-17.147C313.282,488.018,308.648,488.468,304.097,488.468z"/>
<path style="fill:#9C6846;" d="M256,440.371L256,440.371c-26.563,0-48.097-21.534-48.097-48.097v-40.081
	c0-26.563,21.534-48.097,48.097-48.097l0,0c26.563,0,48.097,21.534,48.097,48.097v40.081
	C304.097,418.837,282.563,440.371,256,440.371z"/>
<g>
	<path style="fill:#FFD164;" d="M84.592,322.346L84.592,322.346c-15.222,3.044-24.582,18.399-20.28,33.314
		c8.245,28.582,19.776,76.046,22.67,125.997c0.741,12.788,11.169,22.843,23.978,22.843h53.291c15.083,0,26.455-13.673,23.646-28.492
		c-7.337-38.714-27.598-107.784-81.852-148.686C99.918,322.702,92.117,320.841,84.592,322.346z"/>
	<path style="fill:#FFD164;" d="M427.408,322.346L427.408,322.346c15.222,3.044,24.582,18.399,20.28,33.314
		c-8.245,28.582-19.776,76.046-22.67,125.997c-0.741,12.788-11.169,22.843-23.978,22.843h-53.291
		c-15.083,0-26.455-13.673-23.646-28.492c7.337-38.714,27.598-107.784,81.852-148.686
		C412.082,322.702,419.883,320.841,427.408,322.346z"/>
</g>
<path style="fill:#C4DEFF;" d="M256,167.823c89.102,0,168.442,41.585,219.836,106.349c2.952-14.218,4.615-28.374,4.615-42.22
	C480.452,107.99,379.961,7.5,256,7.5S31.548,107.99,31.548,231.952c0,13.845,1.664,28.002,4.615,42.22
	C87.558,209.407,166.898,167.823,256,167.823z"/>
<path style="fill:#A5CDFF;" d="M79.645,207.903c0-78.304,40.123-147.207,100.906-187.367
	C93.713,51.531,31.548,134.466,31.548,231.952c0,13.845,1.664,28.001,4.615,42.219v0.001c13.17-16.596,28.198-31.64,44.732-44.882
	C80.107,222.082,79.645,214.935,79.645,207.903z"/>
<g>
	<path style="fill:#FFFFFF;" d="M325.062,154.046L325.062,154.046c27.538-8.351,56.632,7.203,64.983,34.742l9.305,30.685
		c8.351,27.538-7.203,56.632-34.742,64.983l0,0c-27.538,8.351-56.632-7.203-64.983-34.742l-9.305-30.685
		C281.97,191.491,297.524,162.397,325.062,154.046z"/>
	<path style="fill:#FFFFFF;" d="M186.938,154.046L186.938,154.046c-27.538-8.351-56.632,7.203-64.983,34.742l-9.305,30.685
		c-8.351,27.538,7.203,56.632,34.742,64.983l0,0c27.538,8.351,56.632-7.203,64.983-34.742l9.305-30.685
		C230.03,191.491,214.476,162.397,186.938,154.046z"/>
</g>
<g>
	<path style="fill:#FFC350;" d="M140.317,480.452c-11.988,0-21.747-8.385-22.441-19.047c-2.709-41.649-13.501-81.224-21.217-105.056
		c-3.435-10.61,2.483-21.43,13.129-25.972c-1.259-1.01-2.445-2.077-3.742-3.055c-6.128-4.619-13.929-6.48-21.454-4.975
		c-15.222,3.045-24.582,18.399-20.28,33.314c8.244,28.582,19.776,76.047,22.67,125.997c0.741,12.787,11.168,22.843,23.977,22.843
		h53.291c13.554,0,24.015-11.056,23.978-24.048h-47.911V480.452z"/>
	<path style="fill:#FFC350;" d="M392.3,480.452c-15.084,0-26.455-12.601-23.646-26.258c6.735-32.749,24.44-89.015,69.248-127.193
		c-3.022-2.221-6.548-3.865-10.494-4.654c-7.525-1.505-15.326,0.356-21.454,4.975c-54.254,40.903-74.515,109.972-81.852,148.686
		c-2.809,14.819,8.563,28.492,23.646,28.492h53.291c12.809,0,23.237-10.056,23.977-22.843c0.023-0.405,0.07-0.8,0.095-1.205
		L392.3,480.452L392.3,480.452z"/>
</g>
<path style="fill:#7D5046;" d="M256,304.097c-26.563,0-48.097,21.534-48.097,48.097v32.065c0-26.563,21.534-48.097,48.097-48.097
	s48.097,21.534,48.097,48.097v-32.065C304.097,325.63,282.563,304.097,256,304.097z"/>
<path d="M487.952,231.952c0-46.393-13.652-91.169-39.481-129.488c-2.315-3.435-6.976-4.341-10.411-2.027
	c-3.435,2.315-4.342,6.977-2.027,10.411c24.153,35.833,36.919,77.71,36.919,121.104c0,30.161-7.889,63.337-22.918,96.822
	c-4.997-7.09-12.587-12.068-21.154-13.782c-9.558-1.91-19.559,0.4-27.439,6.341c-56.498,42.594-77.321,114.316-84.705,153.277
	c-0.332,1.753-0.513,3.514-0.548,5.266C294.826,491.23,274.589,497,256,497c-18.598,0-38.83-5.762-60.186-17.116
	c-0.035-1.754-0.215-3.517-0.548-5.273c-7.384-38.961-28.207-110.684-84.705-153.278c-7.88-5.941-17.883-8.252-27.439-6.341
	c-9.315,1.863-17.483,7.579-22.41,15.681c-4.919,8.091-6.233,17.956-3.605,27.066c8.668,30.05,19.588,76.017,22.389,124.353
	C80.467,498.862,94.288,512,110.96,512h53.291c9.445,0,18.313-4.166,24.329-11.429c1.453-1.754,2.692-3.641,3.719-5.62
	C214.58,506.256,235.977,512,256,512c20.015,0,41.417-5.744,63.701-17.05c1.026,1.98,2.266,3.866,3.719,5.62
	c6.016,7.263,14.884,11.429,24.329,11.429h53.291c16.672,0,30.493-13.138,31.465-29.91c2.801-48.335,13.721-94.302,22.389-124.352
	c0.667-2.31,1.077-4.669,1.242-7.036C476.95,310.045,487.952,269.007,487.952,231.952z M177.028,491.002
	c-3.157,3.812-7.814,5.998-12.777,5.998H110.96c-8.734,0-15.978-6.93-16.491-15.777c-2.881-49.721-14.071-96.856-22.951-127.642
	c-1.49-5.165-0.776-10.534,2.01-15.116c2.793-4.594,7.245-7.707,12.534-8.764c5.364-1.074,11.002,0.242,15.468,3.61
	c52.472,39.558,72.017,107.259,78.998,144.094C181.447,482.251,180.171,487.208,177.028,491.002z M440.482,353.581
	c-8.88,30.786-20.07,77.921-22.951,127.642C417.018,490.07,409.774,497,401.04,497h-53.291c-4.963,0-9.62-2.186-12.777-5.998
	c-3.144-3.795-4.419-8.751-3.5-13.599c6.981-36.834,26.526-104.535,78.998-144.093c3.447-2.599,7.591-3.975,11.769-3.975
	c1.235,0,2.475,0.12,3.699,0.365c5.29,1.058,9.741,4.17,12.534,8.764C441.258,343.047,441.972,348.416,440.482,353.581z"/>
<path d="M39.048,231.952c0-57.95,22.567-112.431,63.543-153.408C143.569,37.567,198.05,15,256,15
	c30.797,0,60.551,6.318,88.433,18.78c26.941,12.041,50.802,29.182,70.92,50.946c2.812,3.042,7.557,3.229,10.598,0.417
	c3.042-2.812,3.229-7.557,0.417-10.598c-21.503-23.263-47.011-41.585-75.814-54.459C320.733,6.758,288.92,0,256,0
	C194.043,0,135.795,24.127,91.985,67.937S24.048,169.995,24.048,231.952c0,25.663,5.184,52.985,15.406,81.207
	c1.105,3.051,3.984,4.948,7.052,4.948c0.848,0,1.71-0.145,2.554-0.45c3.895-1.411,5.908-5.711,4.498-9.606
	C43.93,281.471,39.048,255.867,39.048,231.952z"/>
<path d="M129.132,190.962c7.139-23.536,32.094-36.875,55.632-29.737c3.936,1.193,7.67,2.91,11.1,5.101
	c3.491,2.229,8.128,1.208,10.358-2.282c2.23-3.49,1.209-8.128-2.282-10.358c-4.586-2.931-9.573-5.224-14.823-6.815
	c-31.45-9.541-64.8,8.288-74.339,39.738l-9.307,30.685c-4.621,15.235-3.033,31.358,4.473,45.399
	c7.505,14.041,20.03,24.319,35.266,28.94c5.72,1.735,11.563,2.594,17.376,2.594c9.67,0,19.253-2.38,28.023-7.068
	c14.041-7.505,24.318-20.03,28.939-35.265l9.307-30.685c3.837-12.653,3.415-25.869-1.223-38.219
	c-1.457-3.878-5.78-5.839-9.658-4.385c-3.877,1.456-5.841,5.78-4.385,9.658c3.468,9.235,3.783,19.123,0.911,28.592l-9.307,30.685
	c-3.458,11.401-11.149,20.773-21.656,26.39s-22.572,6.807-33.975,3.348c-11.401-3.458-20.774-11.149-26.391-21.657
	s-6.806-22.573-3.347-33.975L129.132,190.962z"/>
<path d="M349.414,294.227c5.812,0,11.658-0.86,17.376-2.594c15.236-4.621,27.76-14.899,35.266-28.94
	c7.506-14.041,9.094-30.164,4.473-45.399l-9.307-30.685c-1.976-6.513-5.005-12.573-9.003-18.012
	c-2.454-3.337-7.149-4.053-10.485-1.601c-3.337,2.454-4.054,7.148-1.601,10.485c2.988,4.064,5.254,8.6,6.734,13.481l9.307,30.685
	c3.458,11.401,2.27,23.467-3.347,33.975c-5.617,10.508-14.989,18.199-26.391,21.657c-23.539,7.14-48.492-6.202-55.631-29.738
	l-9.307-30.685c-7.139-23.536,6.202-48.492,29.738-55.631c8.555-2.595,17.57-2.579,26.071,0.048c3.957,1.221,8.157-0.995,9.38-4.952
	c1.223-3.958-0.995-8.157-4.952-9.38c-11.372-3.513-23.423-3.536-34.852-0.071c-31.452,9.54-49.278,42.888-39.739,74.339
	l9.307,30.685c4.621,15.235,14.898,27.76,28.939,35.265C330.161,291.847,339.742,294.227,349.414,294.227z"/>
<path d="M256,447.871c30.656,0,55.597-24.94,55.597-55.597v-40.081c0-30.656-24.94-55.597-55.597-55.597
	s-55.597,24.94-55.597,55.597v40.081C200.403,422.931,225.344,447.871,256,447.871z M215.403,352.193
	c0-22.385,18.211-40.597,40.597-40.597s40.597,18.211,40.597,40.597v40.081c0,22.385-18.211,40.597-40.597,40.597
	s-40.597-18.211-40.597-40.597L215.403,352.193L215.403,352.193z"/>
<g>
</g>
<g>
</g>
<g>
</g>
<g>
</g>
<g>
</g>
<g>
</g>
<g>
</g>
<g>
</g>
<g>
</g>
<g>
</g>
<g>
</g>
<g>
</g>
<g>
</g>
<g>
</g>
<g>
</g>
</svg>
