<?xml version="1.0" encoding="iso-8859-1"?>
<!-- Generator: Adobe Illustrator 19.0.0, SVG Export Plug-In . SVG Version: 6.00 Build 0)  -->
<svg version="1.1" id="Capa_1" xmlns="http://www.w3.org/2000/svg" xmlns:xlink="http://www.w3.org/1999/xlink" x="0px" y="0px"
	 viewBox="0 0 512 512" style="enable-background:new 0 0 512 512;" xml:space="preserve">
<circle style="fill:#BEE86E;" cx="255.999" cy="255.999" r="248.499"/>
<path style="fill:#AFD755;" d="M292.073,468.427c-137.242,0-248.499-111.257-248.499-248.499c0-59.433,20.891-113.97,55.695-156.732
	C43.285,108.761,7.501,178.191,7.501,256c0,137.241,111.256,248.499,248.499,248.499c77.81,0,147.241-35.784,192.805-91.768
	C406.044,447.535,351.505,468.427,292.073,468.427z"/>
<g>
	<path style="fill:#5A4650;" d="M171.831,256L171.831,256c-11.068,0-20.04-8.972-20.04-20.04v-8.35l40.081-11.69v20.04
		C191.871,247.028,182.899,256,171.831,256z"/>
	<path style="fill:#5A4650;" d="M340.168,256L340.168,256c11.068,0,20.04-8.972,20.04-20.04v-8.35l-40.081-11.69v20.04
		C320.128,247.028,329.1,256,340.168,256z"/>
</g>
<g>
	<path style="fill:#6E5A64;" d="M359.765,231.012l0.444-3.402l-24.048-7.015v7.349c0,6.641,5.383,12.024,12.024,12.024
		C353.758,239.968,358.401,236.157,359.765,231.012z"/>
	<path style="fill:#6E5A64;" d="M191.871,215.919l-24.048,7.014v4.612c0,6.621,5.18,12.3,11.799,12.421
		c6.744,0.123,12.249-5.306,12.249-12.022L191.871,215.919L191.871,215.919z"/>
</g>
<path d="M15.109,248.713c1.833-61.604,26.857-119.542,70.459-163.145C129.171,41.965,187.11,16.943,248.713,15.11
	c61.336-1.834,120.401,19.43,166.327,59.852c3.109,2.737,7.848,2.436,10.585-0.675c2.737-3.109,2.435-7.848-0.675-10.585
	C376.16,20.759,313.413-1.82,248.267,0.116c-65.44,1.948-126.988,28.529-173.305,74.847C28.644,121.279,2.063,182.827,0.115,248.267
	C-1.824,313.414,20.757,376.16,63.7,424.95c1.482,1.685,3.552,2.545,5.633,2.545c1.76,0,3.527-0.616,4.952-1.87
	c3.109-2.737,3.412-7.476,0.675-10.585C34.538,369.115,13.283,310.046,15.109,248.713z"/>
<path d="M448.3,87.05c-2.736-3.109-7.476-3.411-10.585-0.675c-3.109,2.737-3.412,7.476-0.675,10.585
	c40.421,45.926,61.677,104.994,59.852,166.327c-1.833,61.603-26.856,119.542-70.459,163.145s-101.541,68.626-163.145,70.459
	c-61.333,1.824-120.401-19.43-166.327-59.851c-3.108-2.736-7.848-2.435-10.585,0.675c-2.737,3.109-2.435,7.848,0.675,10.585
	C133.904,489.539,193.63,512,255.992,512c2.576,0,5.158-0.039,7.742-0.116c65.441-1.948,126.988-28.529,173.305-74.846
	c46.318-46.317,72.899-107.865,74.847-173.305C513.823,198.588,491.242,135.841,448.3,87.05z"/>
<path d="M206.763,156.722c-1.682-3.786-6.115-5.489-9.899-3.808l-72.153,32.068c-3.785,1.682-5.49,6.114-3.808,9.899
	c1.242,2.795,3.984,4.456,6.857,4.456c1.018,0,2.052-0.208,3.042-0.648l72.153-32.068
	C206.74,164.939,208.445,160.507,206.763,156.722z"/>
<path d="M171.85,263.471c15.187,0,27.542-12.355,27.542-27.542v-20.042c0-2.361-1.111-4.583-3-6c-1.889-1.417-4.334-1.86-6.6-1.2
	l-40.085,11.691c-3.2,0.934-5.4,3.867-5.4,7.2v8.351C144.307,251.116,156.663,263.471,171.85,263.471z M159.307,233.203
	l25.085-7.316v10.042c0,6.916-5.626,12.542-12.542,12.542s-12.542-5.626-12.542-12.542v-2.726H159.307z"/>
<path d="M384.297,199.338c2.873,0,5.615-1.661,6.857-4.456c1.682-3.785-0.022-8.217-3.808-9.899l-72.154-32.068
	c-3.787-1.683-8.217,0.022-9.899,3.808s0.022,8.217,3.808,9.899l72.154,32.068C382.245,199.13,383.279,199.338,384.297,199.338z"/>
<path d="M367.75,235.929v-8.351c0-3.333-2.2-6.267-5.4-7.2l-40.085-11.691c-2.268-0.662-4.712-0.217-6.6,1.2
	c-1.889,1.417-3,3.639-3,6v20.042c0,15.187,12.356,27.542,27.543,27.542S367.75,251.116,367.75,235.929z M327.664,235.929v-10.042
	l25.085,7.316v2.726c0,6.916-5.626,12.542-12.542,12.542C333.291,248.471,327.664,242.845,327.664,235.929z"/>
<path d="M330.684,311.144c3.905-1.382,5.95-5.668,4.567-9.573c-1.382-3.905-5.669-5.949-9.573-4.567
	c-18.815,6.661-32.385,22.83-36.063,41.922c-10.457-3.325-21.927-5.063-33.703-5.063c-11.689,0-23.085,1.714-33.484,4.994
	c-3.698-19.062-17.259-35.2-36.051-41.853c-3.904-1.382-8.19,0.662-9.573,4.567c-1.382,3.904,0.662,8.19,4.567,9.573
	c16.154,5.72,27.018,21.028,27.069,38.117c0,0.067-0.001,0.134,0.001,0.201c-0.035,17.105-10.904,32.432-27.07,38.155
	c-3.905,1.382-5.949,5.668-4.567,9.573c1.089,3.077,3.981,4.999,7.07,4.999c0.831,0,1.676-0.139,2.503-0.432
	c20.565-7.281,34.862-25.921,36.825-47.322c9.889-3.654,21.098-5.572,32.71-5.572c11.711,0,23.003,1.948,32.95,5.66
	c1.995,21.363,16.28,39.963,36.816,47.234c0.828,0.293,1.672,0.432,2.503,0.432c3.088,0,5.98-1.922,7.07-4.999
	c1.383-3.904-0.662-8.19-4.567-9.573c-16.148-5.717-27.01-21.016-27.069-38.098c0.001-0.038-0.002-0.075-0.002-0.113
	c0-0.009,0-0.017,0-0.026C303.613,332.243,314.492,316.877,330.684,311.144z"/>
<g>
</g>
<g>
</g>
<g>
</g>
<g>
</g>
<g>
</g>
<g>
</g>
<g>
</g>
<g>
</g>
<g>
</g>
<g>
</g>
<g>
</g>
<g>
</g>
<g>
</g>
<g>
</g>
<g>
</g>
</svg>
