<?xml version="1.0" encoding="iso-8859-1"?>
<!-- Generator: Adobe Illustrator 19.0.0, SVG Export Plug-In . SVG Version: 6.00 Build 0)  -->
<svg version="1.1" id="Capa_1" xmlns="http://www.w3.org/2000/svg" xmlns:xlink="http://www.w3.org/1999/xlink" x="0px" y="0px"
	 viewBox="0 0 512.002 512.002" style="enable-background:new 0 0 512.002 512.002;" xml:space="preserve">
<circle style="fill:#FFE17D;" cx="256" cy="256" r="248.5"/>
<path style="fill:#FFD164;" d="M292.074,468.428c-137.243,0-248.5-111.258-248.5-248.5c0-59.433,20.891-113.971,55.695-156.733
	C43.285,108.76,7.502,178.19,7.502,256c0,137.242,111.257,248.5,248.5,248.5c77.81,0,147.242-35.784,192.806-91.769
	C406.046,447.536,351.508,468.428,292.074,468.428z"/>
<path style="fill:#9C6846;" d="M272.034,336.162L272.034,336.162c-13.282,0-24.048,10.767-24.048,24.048v8.016
	c0,13.282,10.767,24.048,24.048,24.048l0,0c13.282,0,24.048-10.767,24.048-24.048v-8.016
	C296.082,346.928,285.315,336.162,272.034,336.162z"/>
<path style="fill:#7D5046;" d="M272.034,336.162c-13.282,0-24.048,10.767-24.048,24.048v8.016c0,2.826,0.577,5.497,1.473,8.016
	c3.313-9.319,12.12-16.032,22.576-16.032s19.263,6.713,22.576,16.032c0.895-2.519,1.473-5.19,1.473-8.016v-8.016
	C296.082,346.928,285.315,336.162,272.034,336.162z"/>
<path d="M167.804,263.514c14.473,0,28.292-6.865,37.913-18.834c2.595-3.229,2.082-7.949-1.147-10.544s-7.95-2.082-10.544,1.147
	c-6.759,8.409-16.316,13.232-26.221,13.232c-9.904,0-19.461-4.823-26.22-13.232c-2.595-3.228-7.315-3.743-10.544-1.147
	c-3.229,2.595-3.742,7.316-1.147,10.544C139.514,256.65,153.332,263.514,167.804,263.514z"/>
<path d="M317.978,235.283c-2.595-3.228-7.316-3.743-10.544-1.147c-3.229,2.595-3.742,7.316-1.147,10.544
	c9.621,11.97,23.439,18.834,37.912,18.834s28.291-6.865,37.912-18.834c2.595-3.229,2.082-7.949-1.147-10.544
	s-7.95-2.082-10.544,1.147c-6.759,8.409-16.316,13.232-26.221,13.232S324.737,243.692,317.978,235.283z"/>
<path d="M303.57,368.247v-8.017c0-17.396-14.153-31.55-31.55-31.55s-31.55,14.153-31.55,31.55v8.017
	c0,17.396,14.153,31.55,31.55,31.55S303.57,385.643,303.57,368.247z M255.471,368.247v-8.017c0-9.125,7.424-16.55,16.55-16.55
	s16.55,7.424,16.55,16.55v8.017c0,9.125-7.424,16.55-16.55,16.55S255.471,377.372,255.471,368.247z"/>
<path d="M350.782,76.111c-1.305-2.438-3.847-3.961-6.613-3.961h-32.066c-4.142,0-7.5,3.358-7.5,7.5s3.358,7.5,7.5,7.5h18.053
	l-24.293,36.439c-1.534,2.301-1.677,5.26-0.373,7.699c1.305,2.438,3.847,3.961,6.613,3.961h32.066c4.142,0,7.5-3.358,7.5-7.5
	s-3.358-7.5-7.5-7.5h-18.053L350.41,83.81C351.944,81.509,352.087,78.55,350.782,76.111z"/>
<path d="M472.435,15h18.053l-24.293,36.44c-1.534,2.301-1.677,5.26-0.373,7.699c1.305,2.438,3.847,3.961,6.613,3.961h32.066
	c4.142,0,7.5-3.358,7.5-7.5s-3.358-7.5-7.5-7.5h-18.053l24.293-36.439c1.534-2.301,1.677-5.26,0.373-7.699
	C509.809,1.523,507.268,0,504.502,0h-32.066c-4.142,0-7.5,3.358-7.5,7.5S468.293,15,472.435,15z"/>
<path d="M426.41,74.985c-2.929,2.929-2.929,7.678,0,10.606c3.448,3.448,6.764,6.992,9.975,10.608H390.25l56.359-84.539
	c1.535-2.301,1.677-5.26,0.373-7.699C445.676,1.523,443.135,0,440.369,0h-64.133c-4.142,0-7.5,3.358-7.5,7.5s3.358,7.5,7.5,7.5
	h50.119l-21.7,32.55C356.749,13.314,298.194-3.352,239.012,0.56C177.126,4.648,118.863,31.079,74.958,74.985
	C28.643,121.3,2.063,182.845,0.115,248.282c-1.939,65.143,20.642,127.887,63.582,176.674c1.482,1.685,3.552,2.545,5.633,2.545
	c1.76,0,3.527-0.616,4.952-1.87c3.109-2.737,3.412-7.476,0.675-10.585c-40.419-45.923-61.673-104.989-59.848-166.318
	c1.833-61.6,26.855-119.536,70.455-163.136c41.333-41.333,96.18-66.216,154.437-70.064c55.88-3.688,111.168,12.091,156.332,44.506
	L369.996,99.54c-1.534,2.301-1.677,5.26-0.373,7.699c1.305,2.438,3.847,3.961,6.613,3.961h72.445
	c31.348,41.533,48.321,91.866,48.321,144.815c0,64.377-25.07,124.901-70.591,170.423c-43.6,43.6-101.537,68.622-163.136,70.455
	c-61.338,1.827-120.395-19.429-166.318-59.848c-3.108-2.736-7.848-2.435-10.585,0.675c-2.737,3.109-2.435,7.848,0.675,10.585
	c46.852,41.236,106.575,63.697,168.933,63.697c2.576,0,5.157-0.039,7.741-0.115c65.437-1.948,126.981-28.527,173.296-74.842
	c48.354-48.355,74.985-112.646,74.985-181.029c0-68.384-26.63-132.675-74.985-181.03C434.088,72.056,429.339,72.056,426.41,74.985z"
	/>
<g>
</g>
<g>
</g>
<g>
</g>
<g>
</g>
<g>
</g>
<g>
</g>
<g>
</g>
<g>
</g>
<g>
</g>
<g>
</g>
<g>
</g>
<g>
</g>
<g>
</g>
<g>
</g>
<g>
</g>
</svg>
