<?xml version="1.0" encoding="iso-8859-1"?>
<!-- Generator: Adobe Illustrator 19.0.0, SVG Export Plug-In . SVG Version: 6.00 Build 0)  -->
<svg version="1.1" id="Capa_1" xmlns="http://www.w3.org/2000/svg" xmlns:xlink="http://www.w3.org/1999/xlink" x="0px" y="0px"
	 viewBox="0 0 512.002 512.002" style="enable-background:new 0 0 512.002 512.002;" xml:space="preserve">
<circle style="fill:#FFE17D;" cx="255.98" cy="256" r="248.5"/>
<g>
	<path style="fill:#FFD164;" d="M292.054,468.428c-137.243,0-248.5-111.258-248.5-248.5c0-59.433,20.891-113.971,55.695-156.733
		C43.265,108.76,7.481,178.191,7.481,256c0,137.242,111.257,248.5,248.5,248.5c77.81,0,147.242-35.784,192.806-91.769
		C406.026,447.536,351.487,468.428,292.054,468.428z"/>
	<path style="fill:#FFD164;" d="M183.836,504.5L183.836,504.5c8.818,0,16.032-7.215,16.032-16.032l0,0
		c0-8.818-7.215-16.032-16.032-16.032l0,0h8.016l0,0c8.818,0,16.032-7.215,16.032-16.032l0,0c0-8.818-7.215-16.032-16.032-16.032
		l0,0h8.016c8.818,0,16.032-7.215,16.032-16.032l0,0c0-8.818-7.215-16.032-16.032-16.032h88.177c8.854,0,16.032-7.178,16.032-16.032
		l0,0c0-8.854-7.178-16.032-16.032-16.032h-144.29c-13.282,0-24.048-10.767-24.048-24.048v-48.097
		c0-8.854-7.178-16.032-16.032-16.032l0,0c-8.854,0-16.032,7.178-16.032,16.032v39.241c0,10.921-3.717,21.518-10.539,30.046
		l-7.472,9.34c-9.097,11.371-14.053,25.499-14.053,40.061v33.618c0,26.563,21.534,48.097,48.097,48.097h80.16V504.5z"/>
</g>
<path style="fill:#7D5046;" d="M155.033,209.424L155.033,209.424c-10.985-1.354-18.792-11.357-17.437-22.342l1.962-15.912
	c1.354-10.985,11.357-18.792,22.342-17.437l0,0c10.985,1.354,18.792,11.357,17.437,22.342l-1.962,15.912
	C176.021,202.971,166.018,210.778,155.033,209.424z"/>
<path style="fill:#9C6846;" d="M173.534,201.391c1.988-2.686,3.403-5.85,3.842-9.404l1.961-15.912
	c1.354-10.984-6.452-20.988-17.437-22.342c-1.354-0.167-2.694-0.19-4.004-0.089l-1.532,12.24
	C154.775,178.768,161.49,196.633,173.534,201.391z"/>
<path style="fill:#7D5046;" d="M323.038,227.46L323.038,227.46c-10.985-1.354-18.792-11.357-17.437-22.342l1.962-15.912
	c1.354-10.985,11.357-18.792,22.342-17.437l0,0c10.985,1.354,18.792,11.357,17.437,22.342l-1.962,15.912
	C344.026,221.008,334.023,228.815,323.038,227.46z"/>
<path style="fill:#9C6846;" d="M341.539,219.427c1.988-2.686,3.403-5.85,3.842-9.404l1.961-15.912
	c1.354-10.985-6.452-20.988-17.437-22.342c-1.354-0.167-2.694-0.19-4.004-0.089l-1.532,12.24
	C322.779,196.804,329.495,214.67,341.539,219.427z"/>
<path style="fill:#FFC350;" d="M103.675,504.5h80.161c8.818,0,16.032-7.215,16.032-16.032c0-2.93-0.853-5.646-2.241-8.016h-93.953
	c-13.26,0-24.048-10.788-24.048-24.048v-33.618c0-9.067,3.12-17.958,8.783-25.037l7.473-9.341
	c10.194-12.744,16.307-28.75,16.307-45.069v-53.05c-2.366-1.377-5.579-2.224-8.515-2.224c-8.854,0-16.032,7.178-16.032,16.032
	v39.242c0,10.921-3.716,21.517-10.539,30.046l-7.473,9.34c-9.097,11.371-14.053,25.5-14.053,40.061v33.618
	C55.578,482.967,77.112,504.5,103.675,504.5z"/>
<path d="M17.262,222.755c7.229-52.304,30.842-99.743,68.287-137.188c43.603-43.603,101.543-68.626,163.146-70.459
	c61.338-1.83,120.401,19.43,166.328,59.852c3.109,2.737,7.848,2.436,10.585-0.675c2.737-3.109,2.435-7.848-0.675-10.585
	C376.142,20.757,313.397-1.815,248.248,0.114c-65.44,1.948-126.989,28.529-173.306,74.847
	c-39.775,39.775-64.859,90.171-72.539,145.741C-5.026,274.456,5.03,330.214,30.72,377.704c1.357,2.509,3.938,3.933,6.604,3.933
	c1.205,0,2.427-0.291,3.562-0.905c3.644-1.971,4.999-6.522,3.028-10.165C19.732,325.864,10.266,273.37,17.262,222.755z"/>
<path d="M448.282,87.05c-2.736-3.109-7.476-3.411-10.585-0.675c-3.109,2.737-3.412,7.476-0.675,10.585
	c40.421,45.926,61.677,104.995,59.852,166.328c-1.833,61.603-26.856,119.543-70.459,163.146
	c-29.439,29.438-66.077,50.824-105.953,61.844c-36.855,10.185-75.934,11.444-113.393,3.713c0.173-1.15,0.265-2.326,0.265-3.524
	c0-4.369-1.196-8.463-3.279-11.973c6.77-4.137,11.296-11.598,11.296-20.095c0-4.369-1.196-8.463-3.279-11.973
	c6.769-4.138,11.295-11.598,11.295-20.095c0-3.009-0.567-5.887-1.601-8.534h66.255c12.977,0,23.534-10.558,23.534-23.534
	s-10.558-23.534-23.534-23.534H143.714c-9.126,0-16.551-7.425-16.551-16.551v-48.102c0-12.977-10.558-23.534-23.534-23.534
	S80.095,291.1,80.095,304.076v39.246c0,9.184-3.16,18.192-8.897,25.364l-7.473,9.341c-10.123,12.653-15.698,28.546-15.698,44.751
	v33.621c0,30.659,24.943,55.603,55.602,55.603H183.8c6.152,0,11.757-2.375,15.955-6.253c18.493,4.15,37.384,6.238,56.276,6.238
	c23.071,0,46.135-3.089,68.427-9.25c42.371-11.709,81.295-34.426,112.564-65.695c46.318-46.317,72.899-107.866,74.847-173.306
	C513.806,198.587,491.225,135.84,448.282,87.05z M183.799,497h-80.171c-22.388,0-40.602-18.214-40.602-40.603v-33.621
	c0-12.812,4.408-25.377,12.411-35.381l7.473-9.341c7.857-9.822,12.185-22.157,12.185-34.734v-39.246
	c0-4.706,3.829-8.534,8.534-8.534s8.534,3.829,8.534,8.534v48.102c0,17.397,14.154,31.551,31.551,31.551h144.307
	c4.706,0,8.534,3.829,8.534,8.534s-3.829,8.534-8.534,8.534h-88.188c-4.142,0-7.5,3.358-7.5,7.5s3.358,7.5,7.5,7.5
	c4.706,0,8.534,3.829,8.534,8.534s-3.828,8.534-8.534,8.534h-8.017c-4.142,0-7.5,3.358-7.5,7.5s3.358,7.5,7.5,7.5
	c4.706,0,8.534,3.828,8.534,8.534s-3.829,8.534-8.534,8.534h-8.017c-4.142,0-7.5,3.358-7.5,7.5s3.358,7.5,7.5,7.5
	c4.706,0,8.534,3.829,8.534,8.534S188.505,497,183.799,497z"/>
<path d="M154.575,217.496c0.92,0.091,1.838,0.136,2.751,0.136c6.348,0,12.45-2.174,17.422-6.254
	c5.687-4.667,9.216-11.27,9.938-18.591l1.179-11.968c0.406-4.122-2.606-7.793-6.729-8.199c-4.12-0.397-7.793,2.606-8.199,6.729
	l-1.179,11.968c-0.329,3.334-1.936,6.34-4.525,8.466c-2.59,2.125-5.854,3.116-9.187,2.786c-6.882-0.678-11.93-6.83-11.252-13.712
	l1.572-15.957c0.678-6.883,6.839-11.935,13.712-11.252c4.136,0.408,7.793-2.606,8.199-6.729s-2.606-7.793-6.729-8.199
	c-15.115-1.479-28.621,9.596-30.11,24.709l-1.572,15.957C128.377,202.499,139.462,216.007,154.575,217.496z"/>
<path d="M322.123,234.003c0.92,0.091,1.838,0.136,2.751,0.136c6.348,0,12.449-2.174,17.421-6.254
	c5.687-4.667,9.217-11.269,9.938-18.591l1.179-11.968c0.406-4.123-2.606-7.793-6.729-8.199c-4.125-0.403-7.793,2.606-8.199,6.729
	l-1.179,11.968c-0.678,6.882-6.827,11.927-13.712,11.252c-6.882-0.678-11.93-6.829-11.252-13.712l1.572-15.957
	c0.329-3.334,1.936-6.341,4.526-8.466c2.589-2.125,5.851-3.12,9.186-2.786c4.122,0.403,7.793-2.606,8.199-6.729
	c0.406-4.122-2.606-7.793-6.729-8.199c-7.323-0.722-14.485,1.452-20.172,6.119s-9.217,11.269-9.938,18.591l-1.572,15.957
	c-0.721,7.321,1.452,14.485,6.119,20.172S314.801,233.282,322.123,234.003z"/>
<path d="M175.302,305.564c61.373,1.404,116.807,28.979,117.356,29.256c1.084,0.547,2.237,0.806,3.374,0.806
	c2.741,0,5.382-1.508,6.701-4.122c1.867-3.697,0.382-8.208-3.315-10.075c-2.375-1.199-58.913-29.378-123.773-30.862
	c-4.126-0.08-7.575,3.185-7.669,7.327C167.88,302.036,171.16,305.47,175.302,305.564z"/>
<path d="M187.142,133.564c1.381,1.1,3.03,1.635,4.669,1.635c2.2,0,4.38-0.964,5.861-2.815c2.588-3.234,2.063-7.954-1.171-10.542
	c-1.79-1.432-44.428-34.768-96.227-8.869c-3.705,1.852-5.207,6.357-3.354,10.062c1.853,3.705,6.356,5.207,10.062,3.354
	C149.988,104.889,185.574,132.326,187.142,133.564z"/>
<path d="M391.58,126.228c-0.812-4.062-4.765-6.693-8.825-5.884l-80.17,16.034c-4.062,0.812-6.696,4.764-5.884,8.825
	c0.713,3.565,3.845,6.031,7.347,6.031c0.487,0,0.982-0.048,1.479-0.147l80.17-16.034C389.758,134.241,392.392,130.29,391.58,126.228
	z"/>
<g>
</g>
<g>
</g>
<g>
</g>
<g>
</g>
<g>
</g>
<g>
</g>
<g>
</g>
<g>
</g>
<g>
</g>
<g>
</g>
<g>
</g>
<g>
</g>
<g>
</g>
<g>
</g>
<g>
</g>
</svg>
